<svg xmlns="http://www.w3.org/2000/svg" width="84.5" height="84.5" viewBox="0 0 84.5 84.5"><defs><style>.a{fill:none;}</style></defs><path class="a" d="M0,0H84.5V84.5H0Z"/><path d="M45.25,33.688V12.563L34.688,2,24.125,12.563V19.6H3V68.9H66.375V33.688ZM17.083,61.854H10.042V54.813h7.042Zm0-14.083H10.042V40.729h7.042Zm0-14.083H10.042V26.646h7.042ZM38.208,61.854H31.167V54.813h7.042Zm0-14.083H31.167V40.729h7.042Zm0-14.083H31.167V26.646h7.042Zm0-14.083H31.167V12.563h7.042Zm21.125,42.25H52.292V54.813h7.042Zm0-14.083H52.292V40.729h7.042Z" transform="translate(7.563 5.042)"/></svg>