<svg id="Layer_1" data-name="Layer 1" xmlns="http://www.w3.org/2000/svg" viewBox="0 0 1533.6 1337.22"><defs><style>.cls-1{fill:#fff;}</style></defs><path class="cls-1" d="M732,1340.71H708.38L580,1092.17l35.68-107L546,996.74l-75.7-100.91L96,1052.78l100.13,33.37,77.5,90.42-9.66,8.28-75.21-87.74L82.57,1061.72l-61.76,274L8.4,1333l62-275.28-10.6-3.53,409.43-171.7,93.84-67L694.86,1013l.17,1.52ZM716.14,1328h1.6l-35.18-310.46L559.81,833.41l-78.43,56,70.13,93.5,83-13.83-40.66,122Z" transform="translate(-8.4 -3.49)"/><path class="cls-1" d="M753.19,1013.2,567.45,800.93l20.61-135L453.13,265l26.15-156.9,131-91.7L1050.41,3.49,1090,254.2l-27.55,24.9v26.59l-1.31,69.47c.12,5.64,2.93,144.51,0,188.81-3.05,46.09-35.35,84.78-36.71,86.4l-2.15,2.54-66.34-6.32v6H945.12l-29.57,19.48L988.32,850l-68.57,150.82L822,903.08ZM580.92,797,751.48,991.92l56.91-91-23.17-34.75,9.79-8L915.77,978.85l58.68-129.13L899.81,667.24l34.46-22.71L748.64,626.85,657.89,484.26l10.74-6.84L756,614.77l260.68,24.83c6.92-9.06,29.37-41,31.72-76.47,2.9-43.76,0-186.53,0-188l1.32-101.73,26.63-24.06L1039.6,16.54,614.45,29.05,491,115.5,466.2,264,601.11,664.78Z" transform="translate(-8.4 -3.49)"/><polygon class="cls-1" points="1521.57 1332.92 1425.97 1054.68 1021.34 877.65 1026.43 865.99 1436.19 1045.26 1533.6 1328.8 1521.57 1332.92"/><polygon class="cls-1" points="1297.31 1254.99 1284.9 1252.14 1323.85 1083.38 1428.84 1044.01 1433.32 1055.92 1334.71 1092.9 1297.31 1254.99"/><polygon class="cls-1" points="892.12 1337.22 863.76 1337.22 852.05 1061.62 886.68 973.14 809.91 907.63 776.39 982.94 813.95 1061.3 808.99 1330.97 796.26 1330.75 801.17 1064.08 762.38 983.14 805.21 886.9 901.84 969.34 864.87 1063.76 875.97 1324.5 881.24 1324.5 950.5 879.53 1014.23 822.35 1105.53 1107.7 991.19 1107.7 1031 1238.85 946.08 1335.07 936.54 1326.65 1016.76 1235.74 974.01 1094.98 1088.1 1094.98 1008.09 844.94 962.38 885.97 892.12 1337.22"/><polygon class="cls-1" points="799.68 885.66 778.75 864.74 571.27 803.72 567.87 834.35 555.22 832.93 560.3 787.22 785.47 853.45 803.93 871.92 971.8 840.12 974.16 852.62 799.68 885.66"/><polygon class="cls-1" points="567.9 537.55 555.18 537.55 555.18 434.23 520.12 375.4 558.88 315.62 610.32 332.79 610.32 381.98 661.22 381.92 661.22 293.34 736.26 269.51 710.1 167.71 710.1 106.71 838.34 106.71 948.19 101.92 1027.56 122.15 1068.89 175.31 1058.85 183.13 1020.21 133.41 946.88 114.72 838.61 119.43 722.83 119.44 722.83 166.9 751.61 277.99 673.95 302.65 673.95 394.63 597.6 394.72 597.6 341.96 564.2 330.8 535.11 375.69 567.9 430.73 567.9 537.55"/></svg>