<svg id="Group_99" data-name="Group 99" xmlns="http://www.w3.org/2000/svg" width="53.522" height="51.682" viewBox="0 0 53.522 51.682">
  <path id="Path_25" data-name="Path 25" d="M127.824,17.816H82.666A4.194,4.194,0,0,0,78.484,22V58.375a4.141,4.141,0,0,0,4.182,4.182h45.159a4.141,4.141,0,0,0,4.182-4.182V22a4.141,4.141,0,0,0-4.182-4.182ZM106.75,58.125h-2.927a.836.836,0,1,1,0-1.672h2.927a.838.838,0,0,1,.836.836A.9.9,0,0,1,106.75,58.125Zm23.583-6.1H80.156V22a2.516,2.516,0,0,1,2.509-2.509h45.159A2.516,2.516,0,0,1,130.332,22Z" transform="translate(-78.484 -17.816)"/>
  <path id="Path_26" data-name="Path 26" d="M255.068,492.322h-1.422a13.468,13.468,0,0,1-2.843-3.6H237.924a11.7,11.7,0,0,1-2.676,3.6h-1.505a.836.836,0,1,0,0,1.672h21.325a.836.836,0,0,0,0-1.672Z" transform="translate(-217.687 -442.313)"/>
  <path id="Path_27" data-name="Path 27" d="M391.873,72.447a8.321,8.321,0,0,0-1,7.359l1.338-1.505a6.239,6.239,0,0,1,1.087-4.934,6.739,6.739,0,1,1,1.84,9.366l-1.171,1.255c.084.084.167.084.251.167a8.431,8.431,0,1,0-2.341-11.708Z" transform="translate(-359.677 -63.75)"/>
  <path id="Path_28" data-name="Path 28" d="M490.6,231.64a10.138,10.138,0,0,1-5.686,2.342l1.505,3.679a3.075,3.075,0,0,0,5.687-2.342Z" transform="translate(-444.857 -210.565)"/>
  <path id="Path_29" data-name="Path 29" d="M181.746,119.283a3.333,3.333,0,0,0,2.007.585,3.512,3.512,0,1,0-3.512-3.512,3.8,3.8,0,0,0,.418,1.672l-6.1,6.774a3.29,3.29,0,0,0-3.763.335l-2.76-2.174a3.381,3.381,0,1,0-5.77.669c-1.422,1.84-3.261,4.349-4.6,6.1a3.329,3.329,0,1,0,1.422.836c1.338-1.756,3.178-4.182,4.516-6.021a3.222,3.222,0,0,0,3.429-.418l2.843,2.258a3.47,3.47,0,0,0,3.178,4.767,3.368,3.368,0,0,0,2.843-5.185Z" transform="translate(-145.787 -103.478)"/>
</svg>
