<svg xmlns="http://www.w3.org/2000/svg" width="68.822" height="51.202" viewBox="0 0 68.822 51.202">
  <g id="Group_113" data-name="Group 113" transform="translate(0)">
    <path id="Path_31" data-name="Path 31" d="M98.1,373.808l-2.826,7.03-.58-5.073h.435a.468.468,0,0,0,.435-.435v-1.377a.468.468,0,0,0-.435-.435H92.886a.468.468,0,0,0-.435.435v1.377a.468.468,0,0,0,.435.435h.435l-.58,5.073-2.826-7.03a7.034,7.034,0,0,0-5.363,6.015l-.652,4.783a2.048,2.048,0,0,0,1.957,2.319c3.986.145,12.175.145,16.161,0a2.035,2.035,0,0,0,1.957-2.319l-.58-4.783a6.869,6.869,0,0,0-5.29-6.015Z" transform="translate(-83.885 -335.833)"/>
    <path id="Path_32" data-name="Path 32" d="M126.145,273.913a6.233,6.233,0,1,1-6.233-6.233,6.233,6.233,0,0,1,6.233,6.233" transform="translate(-109.824 -243.692)"/>
    <path id="Path_33" data-name="Path 33" d="M479.788,379.826a7.034,7.034,0,0,0-5.363-6.015l-2.826,7.03-.58-5.073h.435a.468.468,0,0,0,.435-.435v-1.377a.467.467,0,0,0-.435-.435h-2.319a.468.468,0,0,0-.435.435v1.377a.468.468,0,0,0,.435.435h.435l-.58,5.073-2.826-7.03a7.034,7.034,0,0,0-5.363,6.015l-.58,4.783a2.049,2.049,0,0,0,1.957,2.319c3.986.145,12.175.145,16.161,0a2.035,2.035,0,0,0,1.957-2.319Z" transform="translate(-411.505 -335.836)"/>
    <path id="Path_34" data-name="Path 34" d="M502.465,273.913a6.233,6.233,0,1,1-6.233-6.233,6.233,6.233,0,0,1,6.233,6.233" transform="translate(-437.443 -243.692)"/>
    <path id="Path_35" data-name="Path 35" d="M274.008,201.566c3.986.145,12.175.145,16.161,0a2.035,2.035,0,0,0,1.957-2.319l-.58-4.783a7.034,7.034,0,0,0-5.363-6.015l-2.826,7.03-.58-5.073h.435a.468.468,0,0,0,.435-.435v-1.377a.468.468,0,0,0-.435-.435h-2.247a.467.467,0,0,0-.435.435v1.3a.467.467,0,0,0,.435.435h.435l-.58,5.073-2.826-6.958a7.034,7.034,0,0,0-5.363,6.015l-.58,4.783a2.044,2.044,0,0,0,1.957,2.319Z" transform="translate(-247.686 -174.461)"/>
    <path id="Path_36" data-name="Path 36" d="M314.305,88.553a6.233,6.233,0,1,1-6.233-6.233,6.233,6.233,0,0,1,6.233,6.233" transform="translate(-273.633 -82.32)"/>
    <path id="Path_37" data-name="Path 37" d="M164.034,100.814l-4.058-4.058A1.589,1.589,0,0,0,157.729,99l1.449,1.449h-8.624a1.609,1.609,0,0,0-1.594,1.594v11.74a1.594,1.594,0,1,0,3.189,0V103.64h7.1l-1.449,1.449a1.667,1.667,0,0,0,0,2.246,1.576,1.576,0,0,0,2.174,0l4.058-4.058a1.791,1.791,0,0,0,0-2.464Z" transform="translate(-140.538 -94.509)"/>
    <path id="Path_38" data-name="Path 38" d="M445.256,137.536l-1.449-1.449a1.589,1.589,0,1,0-2.247,2.247l4.058,4.058a1.6,1.6,0,0,0,1.087.435,1.475,1.475,0,0,0,1.087-.435l4.058-4.058a1.589,1.589,0,1,0-2.246-2.247l-1.449,1.449v-8.262a1.609,1.609,0,0,0-1.594-1.594H435.038a1.594,1.594,0,0,0,0,3.189h10.146v6.667Z" transform="translate(-388.206 -121.81)"/>
    <path id="Path_39" data-name="Path 39" d="M288.71,386.052h-14.06L276.1,384.6a1.588,1.588,0,0,0-2.246-2.246l-4.058,4.058a1.668,1.668,0,0,0,0,2.247l4.058,4.058a1.576,1.576,0,0,0,2.174,0,1.668,1.668,0,0,0,0-2.247l-1.449-1.449H288.71a1.609,1.609,0,0,0,1.594-1.594,1.435,1.435,0,0,0-1.594-1.377Z" transform="translate(-245.357 -343.149)"/>
  </g>
</svg>
