<svg xmlns="http://www.w3.org/2000/svg" width="55.088" height="55.095" viewBox="0 0 55.088 55.095">
  <path id="Path_173" data-name="Path 173" d="M148.862,44.79a1.312,1.312,0,0,0-1.189,1.312v2.05a12.646,12.646,0,0,0-1.394.594l-1.456-1.456a1.312,1.312,0,0,0-1.845,0L138.9,51.349a1.312,1.312,0,0,0,0,1.865l1.435,1.435a12.759,12.759,0,0,0-.594,1.435h-2.009a1.312,1.312,0,0,0-1.312,1.312v5.74a1.312,1.312,0,0,0,1.312,1.312h2.009a12.7,12.7,0,0,0,.594,1.414L138.9,67.3a1.312,1.312,0,0,0,0,1.865l4.079,4.059a1.312,1.312,0,0,0,1.845,0l1.414-1.414a12.677,12.677,0,0,0,1.435.594v2.03a1.312,1.312,0,0,0,1.312,1.312h5.76a1.312,1.312,0,0,0,1.312-1.312V72.4a12.8,12.8,0,0,0,1.435-.574l1.394,1.394a1.312,1.312,0,0,0,1.845,0l4.059-4.059a1.312,1.312,0,0,0,.021-1.845L163.4,65.862a12.736,12.736,0,0,0,.594-1.414H166a1.312,1.312,0,0,0,1.312-1.312V57.4A1.312,1.312,0,0,0,166,56.084H163.99a12.759,12.759,0,0,0-.594-1.435l1.414-1.456a1.312,1.312,0,0,0-.021-1.845l-4.059-4.059a1.312,1.312,0,0,0-1.845,0l-1.435,1.435a12.69,12.69,0,0,0-1.394-.574V46.1a1.312,1.312,0,0,0-1.312-1.312h-5.76c-.041,0-.082,0-.123,0Zm1.435,2.624h3.136v1.6a1.312,1.312,0,0,0,.984,1.271,10.051,10.051,0,0,1,2.665,1.127,1.312,1.312,0,0,0,1.6-.2l1.127-1.127,2.214,2.214-1.107,1.127A1.311,1.311,0,0,0,160.73,55a10.2,10.2,0,0,1,1.127,2.706,1.312,1.312,0,0,0,1.271,1h1.558v3.116h-1.558a1.312,1.312,0,0,0-1.271.984,10.11,10.11,0,0,1-1.127,2.706,1.311,1.311,0,0,0,.184,1.578l1.107,1.127-2.214,2.214-1.087-1.087a1.311,1.311,0,0,0-1.6-.184,10.183,10.183,0,0,1-2.706,1.107,1.312,1.312,0,0,0-.984,1.271v1.578H150.3V71.541a1.313,1.313,0,0,0-.984-1.271,10.088,10.088,0,0,1-2.706-1.127,1.312,1.312,0,0,0-1.6.184L143.9,70.434l-2.214-2.214,1.107-1.107a1.312,1.312,0,0,0,.2-1.6,10.141,10.141,0,0,1-1.127-2.706,1.312,1.312,0,0,0-1.271-.984h-1.558V58.708H140.6a1.313,1.313,0,0,0,1.271-1A10.237,10.237,0,0,1,143,55a1.312,1.312,0,0,0-.2-1.6l-1.107-1.107,2.214-2.214,1.148,1.127a1.312,1.312,0,0,0,1.6.2,10,10,0,0,1,2.665-1.127,1.312,1.312,0,0,0,.984-1.271Zm1.578,6.5a6.365,6.365,0,1,0,6.355,6.355A6.383,6.383,0,0,0,151.875,53.912Zm0,2.624a3.741,3.741,0,0,1,0,7.482,3.741,3.741,0,1,1,0-7.482Zm-18.633,18.47a11.307,11.307,0,0,0-5.76,1.64,1.312,1.312,0,1,0,1.332,2.255,8.681,8.681,0,0,1,4.428-1.271,9.381,9.381,0,0,1,6.416,2.542,1.313,1.313,0,0,0,.9.348l6.17-.041a1.464,1.464,0,0,1,1.169.389,1.125,1.125,0,0,1,.287.82c-.015.64-.284,1.271-1.456,1.271h-8.773a1.312,1.312,0,1,0,0,2.624h8.773a4.022,4.022,0,0,0,4.08-3.834,3.777,3.777,0,0,0-1.025-2.706,4.181,4.181,0,0,0-3.055-1.189h-.02l-5.719.041a11.945,11.945,0,0,0-7.748-2.89Zm32.244.021a5.979,5.979,0,0,0-2.6.656l-7.81,3.977A1.312,1.312,0,1,0,156.262,82l7.81-3.977c1.268-.645,2.506-.405,2.993.328s.247,1.771-.881,2.44l-.021.02-16.6,10.086H131.417l-8.63-14.923A1.312,1.312,0,0,0,121,75.476l-5.535,3.2a1.279,1.279,0,0,0-.123.062A1.312,1.312,0,0,0,115,80.458L125.82,99.214a1.312,1.312,0,0,0,1.8.492l5.514-3.2a1.312,1.312,0,0,0,.492-1.783l-.7-1.21h16.993a1.31,1.31,0,0,0,.7-.2L167.514,83.06l.02-.02a4.436,4.436,0,0,0,1.722-6.15,4.169,4.169,0,0,0-2.89-1.8,5.277,5.277,0,0,0-.882-.061Zm-44.318,3.382,9.532,16.5-3.259,1.866-9.512-16.481Z" transform="translate(-114.815 -44.788)"/>
</svg>
