<?xml version="1.0" encoding="utf-8"?>
<!-- Generator: Adobe Illustrator 25.0.1, SVG Export Plug-In . SVG Version: 6.00 Build 0)  -->
<svg version="1.1" id="Mobile-Development" xmlns="http://www.w3.org/2000/svg" xmlns:xlink="http://www.w3.org/1999/xlink" x="0px"
	 y="0px" viewBox="0 0 37 25.8" style="enable-background:new 0 0 37 25.8;" xml:space="preserve">
<style type="text/css">
	.st0{fill:#FFFFFF;}
</style>
<path class="st0" d="M8.3,9.5c0.1-0.3,0.3-0.7,0.4-1C8.9,8.2,9,8,9.1,7.8c0.1-0.1,0-0.2,0-0.3C8.9,7.2,8.7,6.9,8.5,6.6
	C8.3,6.4,8.2,6.1,8.2,5.9c0-0.2,0.1-0.4,0.2-0.6c0.1-0.2,0.3-0.4,0.5-0.6c0.2-0.2,0.4-0.4,0.7-0.4c0.1,0,0.3,0,0.4,0.1
	c0.3,0.1,0.6,0.2,0.9,0.4c0.2,0.1,0.4,0.1,0.6,0.2c0.2-0.1,0.3-0.3,0.5-0.4c0.3-0.2,0.6-0.4,0.8-0.6c0,0,0.1,0,0.1-0.1
	C13,3.7,13,3.7,13,3.5c0-0.5,0-1,0-1.6c0-0.2,0.1-0.3,0.2-0.4c0.3-0.2,0.6-0.4,0.9-0.5C14.3,1,14.5,1,14.8,0.9
	c0.2,0,0.4,0.1,0.5,0.2c0.2,0.2,0.3,0.3,0.5,0.5c0.1,0.1,0.2,0.3,0.3,0.4c0.1,0.1,0.1,0.2,0.2,0.2c0,0,0.1,0.1,0.2,0.1
	c0.2,0,0.3-0.1,0.5-0.1c0.3,0,0.6,0,0.9-0.1c0.1,0,0.3,0,0.4-0.1c0.1,0,0.1-0.1,0.2-0.2c0.1-0.3,0.2-0.5,0.3-0.8
	c0.1-0.3,0.3-0.5,0.5-0.7c0.1-0.1,0.2-0.1,0.4-0.1c0.4,0,0.7,0,1.1,0.1c0.4,0.1,0.8,0.5,0.8,0.9c0,0.3,0.1,0.6,0.1,0.9
	c0,0.1,0,0.3,0.1,0.4c0.1,0.1,0.2,0.2,0.3,0.2c0.4,0.1,0.7,0.3,1,0.4c0.2,0.1,0.3,0.2,0.5,0.2c0,0,0.1,0,0.2,0
	c0.2-0.1,0.3-0.2,0.5-0.3C24.6,3,24.8,2.9,25,2.8c0.2-0.1,0.7-0.2,0.9,0c0.3,0.2,0.6,0.4,0.8,0.6c0.2,0.2,0.4,0.4,0.4,0.7
	c-0.1,0.3-0.1,0.5-0.2,0.8c-0.1,0.2-0.1,0.3-0.2,0.5c0,0.1,0,0.1-0.1,0.2c-0.1,0.1-0.1,0.2,0.1,0.4c0.1,0.1,0.2,0.3,0.3,0.4
	c0.2,0.3,0.4,0.6,0.6,0.8c0.1,0.1,0.1,0.2,0.2,0.2c0.3,0,0.6,0,0.9,0c0.2,0,0.3-0.1,0.5-0.1c0.2,0,0.3,0,0.5,0.1
	c0.1,0,0.2,0.1,0.2,0.2c0.2,0.3,0.4,0.6,0.4,0.9c0,0.2,0.1,0.3,0.1,0.5c0.1,0.3-0.1,0.5-0.3,0.7c-0.4,0.3-0.7,0.6-1.1,0.9
	c0,0,0,0,0,0.1c0,0.3,0.1,0.7,0.1,1c0,0,0,0.1,0,0.1c0,0.2,0,0.5,0,0.7c0,0.1,0.1,0.2,0.2,0.3c0.3,0.2,0.6,0.3,1,0.5
	c0.1,0.1,0.2,0.1,0.3,0.2c0.3,0.2,0.4,0.5,0.4,0.8c0,0.2,0,0.4-0.1,0.7c-0.1,0.3,0,0.6-0.3,0.8c-0.1,0.1-0.3,0.2-0.5,0.2
	c-0.3,0-0.6,0.1-0.9,0.2c-0.2,0-0.4,0.1-0.6,0.1c-0.1,0.3-0.2,0.5-0.3,0.8c-0.1,0.2-0.2,0.3-0.3,0.5c-0.1,0.1-0.1,0.3-0.2,0.4
	c-0.1,0.2,0.1,0.3,0.2,0.5c0.2,0.3,0.4,0.7,0.6,1c0.1,0.2,0.2,0.4,0.1,0.6c-0.1,0.2-0.2,0.4-0.3,0.6c-0.1,0.1-0.2,0.2-0.2,0.3
	c-0.2,0.2-0.4,0.5-0.7,0.5c-0.2,0-0.5,0-0.7-0.1c-0.2,0-0.3-0.1-0.5-0.2C26.1,21.1,26,21,25.8,21c-0.2-0.1-0.3,0.1-0.4,0.1
	c-0.2,0.1-0.3,0.2-0.4,0.3c-0.2,0.2-0.4,0.3-0.6,0.5C24.2,22,24.1,22,24,22c-0.1,0-0.1,0.1-0.1,0.2c0,0.5,0,1.1,0.1,1.6
	c0,0.2-0.1,0.3-0.3,0.5c-0.3,0.2-0.6,0.3-0.9,0.4c-0.3,0.1-0.5,0.1-0.8,0.1c-0.1,0-0.2-0.1-0.3-0.2c-0.2-0.2-0.4-0.5-0.6-0.7
	c-0.1-0.2-0.3-0.4-0.5-0.5c-0.1-0.1-0.3-0.1-0.4,0c-0.5,0.1-0.9,0.2-1.4,0.1c-0.2,0-0.3,0.1-0.3,0.2c-0.1,0.2-0.2,0.4-0.3,0.6
	c-0.1,0.2-0.2,0.4-0.4,0.7c-0.2,0.3-0.4,0.4-0.7,0.4c-0.3,0-0.7,0-1-0.1c-0.5-0.1-0.7-0.4-0.8-1c0-0.3-0.1-0.5-0.1-0.8
	c0-0.1-0.1-0.3-0.1-0.4c0-0.1-0.1-0.2-0.2-0.2c-0.2,0-0.5-0.1-0.7-0.2c-0.2-0.1-0.4-0.2-0.5-0.3c-0.1,0-0.1-0.1-0.2-0.1
	c-0.1,0-0.2-0.1-0.3,0c-0.4,0.2-0.7,0.5-1.1,0.7c-0.3,0.2-0.6,0.3-0.9,0.2c-0.2-0.1-0.4-0.3-0.6-0.4c-0.2-0.1-0.3-0.3-0.5-0.5
	c-0.1-0.2-0.2-0.4-0.2-0.6c0.1-0.3,0.2-0.6,0.3-0.9c0.1-0.2,0.2-0.4,0.2-0.6c0-0.1,0-0.2-0.1-0.3c-0.2-0.2-0.3-0.5-0.5-0.7
	c-0.1-0.2-0.3-0.4-0.4-0.6c-0.1-0.2-0.3-0.2-0.5-0.2c-0.4,0-0.9,0-1.4,0c-0.2,0-0.4-0.1-0.5-0.3c-0.1-0.2-0.3-0.4-0.4-0.6
	c-0.1-0.2-0.2-0.5-0.2-0.7c-0.1-0.4,0.2-0.6,0.4-0.9c0.3-0.3,0.6-0.5,0.9-0.8C8,15,8,14.9,8,14.8c0-0.2,0-0.4-0.1-0.6
	c0-0.3,0-0.5-0.1-0.8c0-0.1,0-0.2,0-0.3c0-0.1-0.1-0.1-0.2-0.1c-0.2-0.1-0.4-0.2-0.6-0.3c-0.3-0.2-0.7-0.3-0.9-0.6
	C6,11.9,6,11.7,6,11.5c0-0.2,0-0.4,0-0.6c0-0.3,0.1-0.5,0.2-0.8c0-0.1,0.1-0.2,0.2-0.2c0.3-0.2,0.5-0.3,0.8-0.3
	C7.6,9.6,8,9.5,8.3,9.5z M24.3,7.3c-1.7-1.7-3.6-2.5-5.9-2.5c-2.3,0-4.3,0.9-5.8,2.7c-1.4,1.6-2.1,3.5-2,5.6c0.1,2,0.8,3.8,2.2,5.3
	c1.5,1.6,3.4,2.4,5.5,2.5c2.2,0.1,4.2-0.7,5.8-2.2c1.6-1.5,2.4-3.3,2.5-5.5c0.1-0.8-0.1-1.6-0.3-2.4c-0.1,0-0.1,0.1-0.2,0.1
	c-0.2,0.1-0.4,0.2-0.6,0.3c-0.5,0.3-1,0.6-1.5,0.8c-0.4,0.2-0.9,0.5-1.3,0.7c0,0-0.1,0.1-0.1,0.1c0,0.2-0.1,0.5-0.1,0.7
	c-0.1,0.4-0.2,0.8-0.4,1.1c-0.2,0.3-0.4,0.6-0.6,0.9c-0.2,0.2-0.5,0.5-0.8,0.6c-0.2,0.1-0.4,0.2-0.6,0.3c-0.2,0.1-0.5,0.2-0.7,0.3
	c-0.2,0.1-0.5,0.1-0.7,0.1c-0.5,0-1,0-1.4-0.1c-0.3-0.1-0.6-0.2-0.8-0.3c-0.6-0.3-1-0.7-1.4-1.2c-0.2-0.3-0.4-0.7-0.6-1.1
	c-0.1-0.4-0.2-0.8-0.2-1.2c0-0.4,0-0.9,0.2-1.3c0.2-0.6,0.5-1.2,0.9-1.7c0.3-0.3,0.6-0.5,0.9-0.7c0.5-0.4,1.1-0.5,1.7-0.6
	c0.4,0,0.8,0,1.2,0.1c0.5,0.1,0.9,0.3,1.3,0.5c0.1,0.1,0.2,0,0.3,0c0.3-0.2,0.7-0.4,1-0.6c0.3-0.2,0.5-0.3,0.8-0.4
	c0.3-0.2,0.5-0.3,0.8-0.5C23.8,7.6,24.1,7.4,24.3,7.3z"/>
</svg>
