<?xml version="1.0" encoding="utf-8"?>
<!-- Generator: Adobe Illustrator 25.0.1, SVG Export Plug-In . SVG Version: 6.00 Build 0)  -->
<svg version="1.1" id="Mobile-Development" xmlns="http://www.w3.org/2000/svg" xmlns:xlink="http://www.w3.org/1999/xlink" x="0px"
	 y="0px" viewBox="0 0 37 25.8" style="enable-background:new 0 0 37 25.8;" xml:space="preserve">
<style type="text/css">
	.st0{fill-rule:evenodd;clip-rule:evenodd;fill:#FFFFFF;stroke:#E01F26;stroke-width:0.6;}
</style>
<path id="traffic" class="st0" d="M12.4,24.8c0,0.3-0.2,0.5-0.5,0.5h-1c-0.3,0-0.5-0.2-0.5-0.5v-3.5c0-0.3,0.2-0.5,0.5-0.5h1
	c0.3,0,0.5,0.2,0.5,0.5V24.8z M10.4,16.9l-4.2-3C6,14,5.7,14.1,5.5,14.2v10.6c0,0.3-0.2,0.5-0.5,0.5H4c-0.3,0-0.5-0.2-0.5-0.5V14.2
	C2,13.7,1.1,12,1.7,10.4C2.2,8.9,3.9,8,5.5,8.6c1.5,0.5,2.3,2.1,1.9,3.6l4,2.8l4.4-4.4c-0.7-1.5-0.1-3.3,1.4-4s3.3-0.1,4,1.4
	c0.2,0.4,0.3,0.8,0.3,1.3c0,0.1,0,0.1,0,0.2l3.7,1.6L30,5c-0.9-1.4-0.5-3.2,0.9-4.1s3.2-0.5,4.1,0.9s0.5,3.2-0.9,4.1
	c-0.2,0.1-0.4,0.2-0.6,0.3v18.5c0,0.3-0.2,0.5-0.5,0.5h-1c-0.3,0-0.5-0.2-0.5-0.5V6.4L26.1,13c-0.3,0.4-0.8,0.5-1.2,0.3l-4.3-1.9
	c-0.3,0.4-0.7,0.6-1.2,0.8v12.6c0,0.3-0.2,0.5-0.5,0.5h-1c-0.3,0-0.5-0.2-0.5-0.5V12.2c-0.1,0-0.2-0.1-0.3-0.1l-4.7,4.7v1.6
	c0,0.3-0.2,0.5-0.5,0.5h-1c-0.3,0-0.5-0.2-0.5-0.5L10.4,16.9z M26.3,24.8c0,0.3-0.2,0.5-0.5,0.5h-1c-0.3,0-0.5-0.2-0.5-0.5v-3.5
	c0-0.3,0.2-0.5,0.5-0.5h1c0.3,0,0.5,0.2,0.5,0.5V24.8z M26.3,18.3c0,0.3-0.2,0.5-0.5,0.5h-1c-0.3,0-0.5-0.2-0.5-0.5v-3.5
	c0-0.3,0.2-0.5,0.5-0.5h1c0.3,0,0.5,0.2,0.5,0.5V18.3z M18.4,10.4c0.5,0,1-0.4,1-1s-0.4-1-1-1c-0.5,0-1,0.4-1,1S17.8,10.4,18.4,10.4
	L18.4,10.4z M4.5,12.4c0.5,0,1-0.4,1-1s-0.4-1-1-1c-0.5,0-1,0.4-1,1S3.9,12.4,4.5,12.4L4.5,12.4z M32.3,4.5c0.5,0,1-0.4,1-1
	s-0.4-1-1-1c-0.5,0-1,0.4-1,1C31.3,4,31.7,4.5,32.3,4.5L32.3,4.5L32.3,4.5z"/>
</svg>
