<?xml version="1.0" encoding="utf-8"?>
<!-- Generator: Adobe Illustrator 25.0.1, SVG Export Plug-In . SVG Version: 6.00 Build 0)  -->
<svg version="1.1" id="Mobile-Development" xmlns="http://www.w3.org/2000/svg" xmlns:xlink="http://www.w3.org/1999/xlink" x="0px"
	 y="0px" viewBox="0 0 37 25.8" style="enable-background:new 0 0 37 25.8;" xml:space="preserve">
<style type="text/css">
	.st0{fill:#FFFFFF;}
</style>
<g>
	<g>
		<line class="st0" x1="0.6" y1="-4.5" x2="36.4" y2="-4.5"/>
		<path class="st0" d="M23.8,10.6c-0.3-0.3-0.7-0.3-0.9,0s-0.3,0.7,0,0.9l3.4,3.4l-3.4,3.4c-0.2,0.3-0.2,0.7,0.1,0.9
			c0.2,0.2,0.6,0.2,0.9,0l3.9-3.9c0.3-0.3,0.3-0.7,0-1L23.8,10.6z"/>
		<path class="st0" d="M14.1,10.6c-0.3-0.3-0.7-0.3-0.9,0l-3.8,3.9c-0.3,0.3-0.3,0.7,0,1l3.8,3.8c0.1,0.1,0.3,0.2,0.5,0.2
			c0.4,0,0.7-0.3,0.7-0.7c0-0.2-0.1-0.3-0.2-0.5l-3.4-3.4l3.4-3.4C14.4,11.3,14.4,10.9,14.1,10.6C14.1,10.6,14.1,10.6,14.1,10.6z"/>
		<path class="st0" d="M20.7,8.6C20.3,8.5,20,8.7,19.8,9c0,0,0,0,0,0l-3.9,11.4c-0.1,0.3,0.1,0.7,0.4,0.8c0,0,0,0,0,0
			c0.1,0,0.1,0,0.2,0c0.3,0,0.5-0.2,0.6-0.4l3.9-11.4C21.2,9.1,21,8.7,20.7,8.6z"/>
		<path class="st0" d="M32.8,1.6H4.2c-1.6,0-2.8,1.3-2.8,2.8v17.9c0,1.6,1.3,2.8,2.8,2.8h28.7c1.6,0,2.8-1.3,2.8-2.8V4.4
			C35.7,2.9,34.4,1.6,32.8,1.6z M9.3,3.5c0,0.3-0.3,0.6-0.6,0.6c-0.3,0-0.6-0.3-0.6-0.6s0.3-0.6,0.6-0.6l0,0C9,2.9,9.3,3.2,9.3,3.5z
			 M7.6,3.5c0,0.3-0.3,0.6-0.6,0.6S6.4,3.8,6.4,3.5S6.6,2.9,7,2.9l0,0C7.3,2.9,7.6,3.2,7.6,3.5z M5.9,3.5c0,0.3-0.3,0.6-0.6,0.6
			c-0.3,0-0.6-0.3-0.6-0.6c0-0.3,0.3-0.6,0.6-0.6C5.6,2.9,5.9,3.2,5.9,3.5C5.9,3.5,5.9,3.5,5.9,3.5z M32.8,24.8H4.2
			c-1.3,0-2.4-1.1-2.4-2.4v-17h33.4v17C35.2,23.7,34.2,24.7,32.8,24.8z"/>
	</g>
</g>
</svg>
