<svg xmlns="http://www.w3.org/2000/svg" width="314.938" height="221.618" viewBox="0 0 314.938 221.618">
  <g id="_1._project_manager" data-name="1. project manager" transform="translate(0.375 0.528)">
    <g id="Group_5353" data-name="Group 5353" transform="translate(184.322 32.422)">
      <g id="Group_5347" data-name="Group 5347" transform="translate(72.783 98.013)">
        <path id="Path_202358" data-name="Path 202358" d="M265.861,138.22h-19.44l-17.928,32.851,8.6,1.586a20.758,20.758,0,0,0,7.27.047h0a20.76,20.76,0,0,0,16.61-15.332Z" transform="translate(-218.545 -138.162)" fill="#fff" stroke="#000" stroke-linecap="round" stroke-linejoin="round" stroke-width="0.75"/>
        <path id="Path_202359" data-name="Path 202359" d="M265.468,141l-4.355,19.077a13.34,13.34,0,0,1-13,10.37h-25.78v6.894h31.489A13.336,13.336,0,0,0,266.8,167.056l5.733-24.415a3.626,3.626,0,0,0-2.89-4.4h0A3.626,3.626,0,0,0,265.468,141Z" transform="translate(-222.328 -138.184)" fill="#fff" stroke="#000" stroke-linecap="round" stroke-linejoin="round" stroke-width="0.75"/>
        <rect id="Rectangle_861" data-name="Rectangle 861" width="6.983" height="40.542" transform="translate(22.169 82.474) rotate(-180)" fill="#fff" stroke="#000" stroke-linecap="round" stroke-linejoin="round" stroke-width="0.75"/>
        <rect id="Rectangle_862" data-name="Rectangle 862" width="13.616" height="5.519" rx="0.452" transform="translate(25.486 87.52) rotate(-180)" fill="#fff" stroke="#000" stroke-linecap="round" stroke-linejoin="round" stroke-width="0.75"/>
        <rect id="Rectangle_863" data-name="Rectangle 863" width="11.522" height="3.954" transform="translate(24.439 43.114) rotate(-180)" fill="#fff" stroke="#000" stroke-linecap="round" stroke-linejoin="round" stroke-width="0.75"/>
        <rect id="Rectangle_864" data-name="Rectangle 864" width="31.02" height="5.519" rx="0.452" transform="translate(34.187 90.279) rotate(180)" fill="#fff" stroke="#000" stroke-linecap="round" stroke-linejoin="round" stroke-width="0.75"/>
      </g>
      <path id="Path_202360" data-name="Path 202360" d="M236.5,130.8v11.092l-20.042,6.348a19.6,19.6,0,0,0-13.182,14.279L185.977,221.2h24.01l14-44.567,3.783,44.567h22.661l2.417-46.087h4.781a27.013,27.013,0,0,0,26.979-25.64l.95-18.674Z" transform="translate(-171.853 -44.703)" fill="#fff" stroke="#000" stroke-linecap="round" stroke-linejoin="round" stroke-width="0.75"/>
      <path id="Path_202361" data-name="Path 202361" d="M237.5,198.615H206.249a3.96,3.96,0,0,1-1.207-7.731l6.279-2.006,6.443-2.057h22.658l.855,6.234.144,1.067A3.957,3.957,0,0,1,237.5,198.615Z" transform="translate(-161.842 -10.325)" fill="#fff" stroke="#000" stroke-linecap="round" stroke-linejoin="round" stroke-width="0.75"/>
      <path id="Path_202362" data-name="Path 202362" d="M212.433,198.615H181.184a3.96,3.96,0,0,1-1.207-7.731l6.28-2.006,6.442-2.057h22.659l.854,6.234.145,1.067A3.958,3.958,0,0,1,212.433,198.615Z" transform="translate(-177.224 -10.325)" fill="#fff" stroke="#000" stroke-linecap="round" stroke-linejoin="round" stroke-width="0.75"/>
      <path id="Path_202363" data-name="Path 202363" d="M246.913,83.232c-3.344-9.24-22.882-8.112-24.252,8.486s-11.762,23.2,1.854,30.778,29.246,3.3,31.18-5.478.081-10.394.4-20.949S254.407,82.266,246.913,83.232Z" transform="translate(-152.459 -77.447)" fill="#fff" stroke="#000" stroke-linecap="round" stroke-linejoin="round" stroke-width="0.75"/>
      <path id="Path_202364" data-name="Path 202364" d="M211.752,120.366,207.4,130.708a6.748,6.748,0,0,0,2.491,8.244h0a6.749,6.749,0,0,0,8.933-1.328l8.849-10.72-15.919-6.539" transform="translate(-159.033 -51.107)" fill="#fff" stroke="#000" stroke-linecap="round" stroke-linejoin="round" stroke-width="0.75"/>
      <path id="Path_202365" data-name="Path 202365" d="M250.452,99.234l16.463,3.287a10.115,10.115,0,0,1,7.439,6.229l9.422,24.02s-9.748.26-13.858,6.013l.967,11.391H221.818a13.067,13.067,0,0,0-.321-6.153c-.968-3.837-1.451-6.416-1.451-6.416l-10.152-4.27,6.553-21.606a10.117,10.117,0,0,1,6.819-6.769l15.566-4.591Z" transform="translate(-157.176 -64.076)" fill="#fff" stroke="#000" stroke-linecap="round" stroke-linejoin="round" stroke-width="0.75"/>
      <path id="Path_202366" data-name="Path 202366" d="M240.673,99.739c-5.5,20.805-2.625,50.641-2.625,50.641" transform="translate(-140.359 -63.766)" fill="#fff" stroke="#000" stroke-linecap="round" stroke-linejoin="round" stroke-width="0.75"/>
      <path id="Path_202367" data-name="Path 202367" d="M240.387,93.793v9.829s-2.5,3.264-7.985,3.061c-4.647-.168-4.946-2.253-4.923-2.88a.951.951,0,0,1,.015-.181V99.675Z" transform="translate(-146.384 -67.414)" fill="#fff" stroke="#000" stroke-linecap="round" stroke-linejoin="round" stroke-width="0.75"/>
      <path id="Path_202368" data-name="Path 202368" d="M240.387,93.793v2.161a19.675,19.675,0,0,1-12.908,7.849.949.949,0,0,1,.015-.181V99.675Z" transform="translate(-146.384 -67.414)" fill="#fff" stroke="#000" stroke-linecap="round" stroke-linejoin="round" stroke-width="0.75"/>
      <path id="Path_202369" data-name="Path 202369" d="M223.478,89.346c.108,2.122.51,3.008.27,5.748s.321,10.957,6.069,11.9a13.885,13.885,0,0,0,15.469-10.011c2.23,1.255,4.728-2.075,3.653-3.874s-3.169-.752-3.787.671-.805,2.015-.805,2.015a84.424,84.424,0,0,1-2.39-8.514,28.4,28.4,0,0,1-.618-4.405A33.382,33.382,0,0,1,223.478,89.346Z" transform="translate(-148.84 -74.115)" fill="#fff" stroke="#000" stroke-linecap="round" stroke-linejoin="round" stroke-width="0.75"/>
      <path id="Path_202370" data-name="Path 202370" d="M227.762,89.286l-1.17,3.924a.942.942,0,0,0,.537,1.136l.754.318" transform="translate(-146.953 -70.181)" fill="#fff" stroke="#000" stroke-linecap="round" stroke-linejoin="round" stroke-width="0.75"/>
      <path id="Path_202371" data-name="Path 202371" d="M238.882,89.761c-.463-.342-1.712.665-1.33,1.631" transform="translate(-140.246 -69.932)" fill="#fff" stroke="#000" stroke-linecap="round" stroke-linejoin="round" stroke-width="0.75"/>
      <path id="Path_202372" data-name="Path 202372" d="M227.827,94.684a2.376,2.376,0,0,0,2.58,2.057.8.8,0,0,0,.087-.008,2.374,2.374,0,0,0,1.936-1.572,2.307,2.307,0,0,0,.116-1.1Z" transform="translate(-146.17 -67.247)" fill="#fff" stroke="#000" stroke-width="0.75"/>
      <path id="Path_202373" data-name="Path 202373" d="M229.414,96.245c.006.05.018.1.027.14a.8.8,0,0,0,.087-.008,2.374,2.374,0,0,0,1.936-1.572,1.412,1.412,0,0,0-2.051,1.439Z" transform="translate(-145.204 -66.892)" fill="#fff" stroke="#000" stroke-width="0.75"/>
      <path id="Path_202374" data-name="Path 202374" d="M227.827,94.684a2.376,2.376,0,0,0,2.58,2.057.8.8,0,0,0,.087-.008,2.374,2.374,0,0,0,1.936-1.572,2.307,2.307,0,0,0,.116-1.1Z" transform="translate(-146.17 -67.247)" fill="#fff" stroke="#000" stroke-linecap="round" stroke-linejoin="round" stroke-width="0.75"/>
      <ellipse id="Ellipse_93" data-name="Ellipse 93" cx="0.698" cy="0.698" rx="0.698" ry="0.698" transform="translate(84.625 19.838)" fill="#fff" stroke="#000" stroke-linecap="round" stroke-linejoin="round" stroke-width="0.75"/>
      <ellipse id="Ellipse_94" data-name="Ellipse 94" cx="0.698" cy="0.698" rx="0.698" ry="0.698" transform="translate(76.434 19.838)" fill="#fff" stroke="#000" stroke-linecap="round" stroke-linejoin="round" stroke-width="0.75"/>
      <path id="Path_202375" data-name="Path 202375" d="M229.087,88.247a4.074,4.074,0,0,1,3.645.168" transform="translate(-145.396 -71.042)" fill="#fff" stroke="#000" stroke-linecap="round" stroke-linejoin="round" stroke-width="0.75"/>
      <path id="Path_202376" data-name="Path 202376" d="M227.538,88.247a4.073,4.073,0,0,0-3.645.168" transform="translate(-148.585 -71.042)" fill="#fff" stroke="#000" stroke-linecap="round" stroke-linejoin="round" stroke-width="0.75"/>
      <path id="Path_202377" data-name="Path 202377" d="M259.149,130.474l.644,1.723-13.818-7.413s-4.108-9.387-8.1-11.2-5.357-.2-5.478,1.047c-2.98-.726-3.907,1.168-3.223,2.216-2.095-.565-3,.129-2.74,1.893.2,1.351,5.716,2.262,7.086,4.034s2.785,8.254,5.645,9.422c1.862.76,11.465,9.263,17.949,15.111A11.843,11.843,0,0,0,270.5,149.03h0a11.848,11.848,0,0,0,6.021-13.49l-2.869-11.078S263.9,123.351,259.149,130.474Z" transform="translate(-147.051 -55.767)" fill="#fff" stroke="#000" stroke-linecap="round" stroke-linejoin="round" stroke-width="0.75"/>
      <line id="Line_132" data-name="Line 132" x2="5.64" y2="2.538" transform="translate(112.744 76.429)" fill="#1d1d1d" stroke="#000" stroke-linecap="round" stroke-linejoin="round" stroke-width="0.75"/>
      <path id="Path_202378" data-name="Path 202378" d="M230.115,113.925s5.927,1.594,8.252,6.9" transform="translate(-144.767 -55.059)" fill="#fff" stroke="#000" stroke-linecap="round" stroke-linejoin="round" stroke-width="0.75"/>
      <path id="Path_202379" data-name="Path 202379" d="M228.118,115.3a12.171,12.171,0,0,1,5.188,2.13,15.815,15.815,0,0,1,3.5,4.452" transform="translate(-145.992 -54.217)" fill="#fff" stroke="#000" stroke-linecap="round" stroke-linejoin="round" stroke-width="0.75"/>
      <line id="Line_133" data-name="Line 133" x1="5.999" y1="15.306" transform="translate(104.44 55.417)" fill="none" stroke="#000" stroke-linecap="round" stroke-linejoin="round" stroke-width="0.75"/>
      <path id="Path_202380" data-name="Path 202380" d="M216.026,126.824c-.069-6.327,3.439-10.215,3.721-14.6" transform="translate(-153.413 -56.102)" fill="#fff" stroke="#000" stroke-linecap="round" stroke-linejoin="round" stroke-width="0.75"/>
      <path id="Path_202381" data-name="Path 202381" d="M209.771,168.606l-.565-6.187a13.877,13.877,0,0,1,9.821-14.551l13.245-3.986" transform="translate(-157.633 -36.675)" fill="#fff" stroke="#000" stroke-linecap="round" stroke-linejoin="round" stroke-width="0.75"/>
      <path id="Path_202382" data-name="Path 202382" d="M222.108,149.4c-2.919-11.536-1.423-40.975,2.517-48.435" transform="translate(-150.617 -63.012)" fill="#fff" stroke="#000" stroke-linecap="round" stroke-linejoin="round" stroke-width="0.75"/>
    </g>
    <g id="Group_5360" data-name="Group 5360" transform="translate(0 35.533)">
      <g id="Group_5355" data-name="Group 5355" transform="translate(5.673 96.554)">
        <path id="Path_202383" data-name="Path 202383" d="M68.367,139.244h19.44L105.735,172.1l-8.6,1.586a20.758,20.758,0,0,1-7.27.045h0a20.762,20.762,0,0,1-16.61-15.33Z" transform="translate(-65.38 -139.186)" fill="#fff" stroke="#000" stroke-width="0.75"/>
        <path id="Path_202384" data-name="Path 202384" d="M73.679,142.029l4.357,19.077a13.337,13.337,0,0,0,13,10.37h25.782v6.894H85.332A13.337,13.337,0,0,1,72.346,168.08l-5.733-24.415a3.626,3.626,0,0,1,2.89-4.4h0A3.627,3.627,0,0,1,73.679,142.029Z" transform="translate(-66.516 -139.208)" fill="#fff" stroke="#000" stroke-linecap="round" stroke-linejoin="round" stroke-width="0.75"/>
        <rect id="Rectangle_865" data-name="Rectangle 865" width="6.983" height="38.889" transform="translate(28.135 41.935)" fill="#fff" stroke="#000" stroke-linecap="round" stroke-linejoin="round" stroke-width="0.75"/>
        <rect id="Rectangle_866" data-name="Rectangle 866" width="13.616" height="5.519" rx="0.452" transform="translate(24.818 80.349)" fill="#fff" stroke="#000" stroke-linecap="round" stroke-linejoin="round" stroke-width="0.75"/>
        <rect id="Rectangle_867" data-name="Rectangle 867" width="11.522" height="3.954" transform="translate(25.865 39.162)" fill="#fff" stroke="#000" stroke-linecap="round" stroke-linejoin="round" stroke-width="0.75"/>
        <rect id="Rectangle_868" data-name="Rectangle 868" width="31.02" height="5.519" rx="0.452" transform="translate(16.117 83.108)" fill="#fff" stroke="#000" stroke-linecap="round" stroke-linejoin="round" stroke-width="0.75"/>
      </g>
      <path id="Path_202385" data-name="Path 202385" d="M169.318,211.593l-.579-2.148-11.849-44.052A28.914,28.914,0,0,0,136.6,145.022l-13.883-3.8H106.137l-5.385,0,0,0H95.166l-21.109,0v10.394a18.61,18.61,0,0,0,18.612,18.612H105.8l-.208,39.209-.031,6.113H130.8l.244-3.965.108-2.148,2.017-39.209h.4l9.919,39.209,1.546,6.113h25.244Z" transform="translate(-56.214 -41.416)" fill="#fff" stroke="#000" stroke-linecap="round" stroke-linejoin="round" stroke-width="0.75"/>
      <path id="Path_202386" data-name="Path 202386" d="M116.782,120.591l4.171,9.95s16.195,5.156,19.819,4.914,7.655-4.672,11.36-4.35,6.447,2.337,6.124,3.949-3.863.161-5.437,0-4.071,1.853-4.071,1.853,3.954-.725,4.071,1.693-6.085,2.095-6.085,2.095l-26.687,3.926a9.6,9.6,0,0,1-9.5-4.363l-8.028-12.7Z" transform="translate(-38.75 -54.08)" fill="#fff" stroke="#000" stroke-linecap="round" stroke-linejoin="round" stroke-width="0.75"/>
      <path id="Path_202387" data-name="Path 202387" d="M112.344,153.944a4.562,4.562,0,0,1,4.4,3.353l10.533,38.317" transform="translate(-32.718 -33.611)" fill="#fff" stroke="#000" stroke-linecap="round" stroke-linejoin="round" stroke-width="0.75"/>
      <path id="Path_202388" data-name="Path 202388" d="M79.881,142.348v6.787A6.124,6.124,0,0,0,86,155.259H101.1a8.863,8.863,0,0,1,8.864,8.862v40.124" transform="translate(-52.64 -40.728)" fill="#fff" stroke="#000" stroke-linecap="round" stroke-linejoin="round" stroke-width="0.75"/>
      <path id="Path_202389" data-name="Path 202389" d="M127.676,139.96l.482,26.853H79.5V140.846A16.033,16.033,0,0,0,65.211,135.9H65.2l.068-.194.01-.032L72.6,114.716a18.829,18.829,0,0,1,12.735-11.48l13.865-3.7,9.477.647,11.844,3.8a18.826,18.826,0,0,1,11.736,10.946l7.428,18.59S133.8,139.4,127.676,139.96Z" transform="translate(-61.652 -67.002)" fill="#fff" stroke="#000" stroke-linecap="round" stroke-linejoin="round" stroke-width="0.75"/>
      <path id="Path_202390" data-name="Path 202390" d="M98.013,104.422c0,.239.008.379.008.379s-1.275,2.577-6.632,2.658-6.645-3.544-6.645-3.544.416-4.137.389-7.352a16.329,16.329,0,0,0-.181-2.617l0-.023.008,0,13.568,4.507C97.981,99.077,97.994,103.147,98.013,104.422Z" transform="translate(-49.657 -70.445)" fill="#fff" stroke="#000" stroke-width="0.75"/>
      <path id="Path_202391" data-name="Path 202391" d="M97.934,104.42c-6.027.294-10.67-3.812-12.88-7.859a16.329,16.329,0,0,0-.181-2.617l0-.018,13.568,4.507C97.9,99.075,97.915,103.145,97.934,104.42Z" transform="translate(-49.577 -70.445)" fill="#fff" stroke="#000" stroke-width="0.75"/>
      <path id="Path_202392" data-name="Path 202392" d="M87.735,105.462c-4.4-.2-5.854-4.852-6.66-10.394S82.149,87.215,85,87.7c-.752-3.868.023-8.325,11.317-8.325s13.983,3.465,13.713,8.1-4.112,7.529-8.5,6.429S87.735,105.462,87.735,105.462Z" transform="translate(-52.023 -79.374)" fill="#fff" stroke="#000" stroke-width="0.75"/>
      <path id="Path_202393" data-name="Path 202393" d="M88.359,87.069l-1.746,8.917s-.7-4.27-3.384-3.653-1.772,3.439-.805,4.405,2.874,0,2.874,0,3.331,10.9,12.14,10.8,9.345-9.614,8.969-12.193,1.344-7.841.807-10.849C100.713,83.632,96.469,88.628,88.359,87.069Z" transform="translate(-51.673 -76.294)" fill="#fff" stroke="#000" stroke-width="0.75"/>
      <path id="Path_202394" data-name="Path 202394" d="M82.339,90.467c.805-.886,1.853.563,1.37,1.557" transform="translate(-51.132 -72.735)" fill="#fff" stroke="#000" stroke-linecap="round" stroke-linejoin="round" stroke-width="0.75"/>
      <path id="Path_202395" data-name="Path 202395" d="M92.6,89.973l1.636,3.339A1.059,1.059,0,0,1,94,94.551l-.865.8" transform="translate(-44.838 -72.87)" fill="#fff" stroke="#000" stroke-linecap="round" stroke-linejoin="round" stroke-width="0.75"/>
      <ellipse id="Ellipse_95" data-name="Ellipse 95" cx="0.694" cy="0.694" rx="0.694" ry="0.694" transform="translate(43.427 18.078)" fill="#fff" stroke="#000" stroke-linecap="round" stroke-linejoin="round" stroke-width="0.75"/>
      <ellipse id="Ellipse_96" data-name="Ellipse 96" cx="0.694" cy="0.694" rx="0.694" ry="0.694" transform="translate(52.297 17.901)" fill="#fff" stroke="#000" stroke-linecap="round" stroke-linejoin="round" stroke-width="0.75"/>
      <path id="Path_202396" data-name="Path 202396" d="M93.981,88.491a2.933,2.933,0,0,1,3.156-.179" transform="translate(-43.987 -74.113)" fill="#fff" stroke="#000" stroke-linecap="round" stroke-linejoin="round" stroke-width="0.75"/>
      <path id="Path_202397" data-name="Path 202397" d="M88.491,88.752a2.93,2.93,0,0,1,3.156-.179" transform="translate(-47.357 -73.953)" fill="#fff" stroke="#000" stroke-linecap="round" stroke-linejoin="round" stroke-width="0.75"/>
      <g id="Group_5356" data-name="Group 5356" transform="translate(43.746 24.854)">
        <path id="Path_202398" data-name="Path 202398" d="M94.868,94.955a2.375,2.375,0,0,1-2.379,2.287.788.788,0,0,1-.087,0,2.376,2.376,0,0,1-2.074-1.385,2.314,2.314,0,0,1-.218-1.083Z" transform="translate(-90.109 -94.776)" fill="#fff" stroke="#000" stroke-width="0.75"/>
        <path id="Path_202399" data-name="Path 202399" d="M92.42,96.774a1.281,1.281,0,0,1-.015.142.787.787,0,0,1-.087,0,2.376,2.376,0,0,1-2.074-1.385,1.385,1.385,0,0,1,.818-.224A1.412,1.412,0,0,1,92.42,96.774Z" transform="translate(-90.025 -94.45)" fill="#fff" stroke="#000" stroke-width="0.75"/>
        <path id="Path_202400" data-name="Path 202400" d="M94.868,94.955a2.375,2.375,0,0,1-2.379,2.287.788.788,0,0,1-.087,0,2.376,2.376,0,0,1-2.074-1.385,2.314,2.314,0,0,1-.218-1.083Z" transform="translate(-90.109 -94.776)" fill="#fff" stroke="#000" stroke-linecap="round" stroke-linejoin="round" stroke-width="0.75"/>
      </g>
      <line id="Line_134" data-name="Line 134" y1="15.334" x2="7.412" transform="translate(17.843 58.508)" fill="none" stroke="#000" stroke-linecap="round" stroke-linejoin="round" stroke-width="0.75"/>
      <line id="Line_135" data-name="Line 135" x1="0.483" y1="17.939" transform="translate(65.539 55.016)" fill="#fff" stroke="#000" stroke-linecap="round" stroke-linejoin="round" stroke-width="0.75"/>
      <path id="Path_202401" data-name="Path 202401" d="M119.132,187.29l9.329,5.414a3.015,3.015,0,0,1,1.5,2.608h0a3.017,3.017,0,0,1-3.018,3.018H96.293a3.017,3.017,0,0,1-3.014-3.148l.347-7.891Z" transform="translate(-44.42 -13.148)" fill="#fff" stroke="#000" stroke-linecap="round" stroke-linejoin="round" stroke-width="0.75"/>
      <path id="Path_202402" data-name="Path 202402" d="M143.673,187.29,153,192.7a3.015,3.015,0,0,1,1.5,2.608h0a3.017,3.017,0,0,1-3.016,3.018H120.833a3.016,3.016,0,0,1-3.013-3.148l.345-7.891Z" transform="translate(-29.36 -13.148)" fill="#fff" stroke="#000" stroke-linecap="round" stroke-linejoin="round" stroke-width="0.75"/>
      <path id="Path_202403" data-name="Path 202403" d="M119.176,183.5l-.109,2.147-.244,3.965H93.579l.032-6.112Z" transform="translate(-44.234 -15.472)" fill="#fff" stroke="#000" stroke-linecap="round" stroke-linejoin="round" stroke-width="0.75"/>
      <path id="Path_202404" data-name="Path 202404" d="M143.878,189.615H118.633l-1.546-6.112h25.245l.579,2.147Z" transform="translate(-29.808 -15.472)" fill="#fff" stroke="#000" stroke-linecap="round" stroke-linejoin="round" stroke-width="0.75"/>
      <path id="Path_202405" data-name="Path 202405" d="M101.9,143.7a19.649,19.649,0,0,1,14.436,19.96l-.081,1.556" transform="translate(-39.125 -39.896)" fill="#fff" stroke="#000" stroke-linecap="round" stroke-linejoin="round" stroke-width="0.75"/>
      <line id="Line_136" data-name="Line 136" y1="2.89" transform="translate(49.584 123.877)" fill="none" stroke="#000" stroke-linecap="round" stroke-linejoin="round" stroke-width="0.75"/>
      <path id="Path_202406" data-name="Path 202406" d="M86.33,141.884c.752-13.966,5.067-31.155,5.067-31.155h18.351l5.909,5.8s-4.512,17.081-5.264,24.817Z" transform="translate(-48.683 -60.132)" fill="#ad1123" stroke="#000" stroke-linecap="round" stroke-linejoin="round" stroke-width="0.75"/>
      <path id="Path_202407" data-name="Path 202407" d="M113.86,126.6c.647.266.886,3.463-2.9,5.1s-9.664.967-9.664.967L80.844,148l-1.089.82A10.477,10.477,0,0,1,63.389,137.6l3.169-11.285a16.033,16.033,0,0,1,14.286,4.946l-.5.763.5-.266,18.73-9.887s.963-2.522,1.556-3.865,1.586-3.224,2.9-2.795-.136,6.19-.136,6.19a15.916,15.916,0,0,0,5.693-.253c2.445-.723,3.466-3.061,4.994-2.713s1.478,2.6-.131,4.136C115.551,122.655,116.382,124.856,113.86,126.6Z" transform="translate(-63 -57.419)" fill="#fff" stroke="#000" stroke-linecap="round" stroke-linejoin="round" stroke-width="0.75"/>
      <line id="Line_137" data-name="Line 137" x1="6.875" y2="3.706" transform="translate(10.467 74.608)" fill="none" stroke="#000" stroke-linecap="round" stroke-linejoin="round" stroke-width="0.75"/>
      <path id="Path_202408" data-name="Path 202408" d="M98.006,119.75a12.768,12.768,0,0,1-8.206,2.243" transform="translate(-46.553 -54.596)" fill="#fff" stroke="#000" stroke-width="0.75"/>
      <path id="Path_202409" data-name="Path 202409" d="M97.184,122.247c-1.37,1.436-5.156,1.959-7.01,1.759" transform="translate(-46.324 -53.063)" fill="#fff" stroke="#000" stroke-width="0.75"/>
      <path id="Path_202410" data-name="Path 202410" d="M100.842,110.729l.526,4.948a1.025,1.025,0,0,0,1.033.918l4.351-.065Z" transform="translate(-39.777 -60.132)" fill="#ad1123" stroke="#000" stroke-width="0.75"/>
    </g>
    <g id="Group_5364" data-name="Group 5364" transform="translate(103.593 0)">
      <path id="Path_202411" data-name="Path 202411" d="M168.6,61.948c-7.305-.86-9.077,16.226-5.827,25.409s2.713,15.843,2.713,15.843l32.335-4.083s-2.362-6.185-1.289-17.005S187.828,47.338,168.6,61.948Z" transform="translate(-106.323 -57.354)" fill="#fff" stroke="#000" stroke-width="0.75"/>
      <path id="Path_202412" data-name="Path 202412" d="M169.989,94.952l-6.826,15.04-23.871.913s-2.216-4.835-2.014-6.487-2.3-.321-2.659,1.773a8.352,8.352,0,0,0,0,3.384s-6.848-.524-7.333,1.128,1.149,3.122,1.149,3.122-1.23.463-.665,2.558,2.075,1.651,2.075,1.651a2.6,2.6,0,0,0,1.268,3.424c2.3,1.37,8.943-2.054,8.943-2.054l24.791,5.338a7.965,7.965,0,0,0,8.6-3.841l9.839-17.249Z" transform="translate(-127.197 -34.281)" fill="#fff" stroke="#000" stroke-width="0.75"/>
      <path id="Path_202413" data-name="Path 202413" d="M166.709,143.382,148.646,252.371h25.507l13.074-66.716,4.727,66.716h25.5L203.986,92.062l-9.13-10.82L176.645,88.4Z" transform="translate(-114.033 -42.694)" fill="#fff" stroke="#000" stroke-width="0.75"/>
      <line id="Line_138" data-name="Line 138" x2="13.399" transform="translate(64.673 86.776)" fill="#fff" stroke="#000" stroke-linecap="round" stroke-linejoin="round" stroke-width="0.75"/>
      <line id="Line_139" data-name="Line 139" x1="1.719" y1="26.696" transform="translate(71.475 116.265)" fill="#fff" stroke="#000" stroke-linecap="round" stroke-linejoin="round" stroke-width="0.75"/>
      <path id="Path_202414" data-name="Path 202414" d="M177.832,81.242,164.1,86.253a7.45,7.45,0,0,0-4.165,3.784l-6.366,13.329,6.106,4.941s-.771,1.181,1.57,10.528-.775,29.476-.775,29.476H174.85Z" transform="translate(-111.015 -42.694)" fill="#fff" stroke="#000" stroke-width="0.75"/>
      <path id="Path_202415" data-name="Path 202415" d="M177.282,80.506s18.262,3.224,22.989,9.238,6.718,13.824,1.4,21.27l-3.116,5.372v30.4H182.223Z" transform="translate(-96.46 -43.146)" fill="#fff" stroke="#000" stroke-width="0.75"/>
      <line id="Line_140" data-name="Line 140" x2="7.766" y2="2.244" transform="translate(81.873 37.25)" fill="none" stroke="#000" stroke-linecap="round" stroke-linejoin="round" stroke-width="0.75"/>
      <path id="Path_202416" data-name="Path 202416" d="M182.1,75.247v9.674s-1.049,6.655-8.477,6.008c-3.124-.271-4.1-2.161-4.188-4.259a15.555,15.555,0,0,1,1.46-6.161Z" transform="translate(-101.278 -46.373)" fill="#fff" stroke="#000" stroke-width="0.75"/>
      <path id="Path_202417" data-name="Path 202417" d="M182.1,75.247v4.38a12.84,12.84,0,0,1-10.155,7.008,13.249,13.249,0,0,1-2.509.035,15.555,15.555,0,0,1,1.46-6.161Z" transform="translate(-101.278 -46.373)" fill="#fff" stroke="#000" stroke-width="0.75"/>
      <g id="Group_5362" data-name="Group 5362" transform="translate(59.531 8.725)">
        <path id="Path_202418" data-name="Path 202418" d="M166.65,62.761c-2.056,2.94-1.531,8.34-1.209,11.441s-1.128,15.027,7.9,16.155,14.02-10.192,14.02-10.192,2.014,1.57,3.665-1.007-.442-4.231-1.812-4.07-3.021,4.231-3.021,4.231l-.645-2.721S172.41,71.865,166.65,62.761Z" transform="translate(-163.446 -62.761)" fill="#fff" stroke="#000" stroke-linecap="round" stroke-linejoin="round" stroke-width="0.75"/>
        <ellipse id="Ellipse_97" data-name="Ellipse 97" cx="3.928" cy="3.928" rx="3.928" ry="3.928" transform="translate(0 11.844)" fill="#ad1123" stroke="#000" stroke-linecap="round" stroke-linejoin="round" stroke-width="0.75"/>
        <ellipse id="Ellipse_98" data-name="Ellipse 98" cx="0.739" cy="0.739" rx="0.739" ry="0.739" transform="translate(3.928 13.67)" fill="#fff" stroke="#000" stroke-width="0.75"/>
        <ellipse id="Ellipse_99" data-name="Ellipse 99" cx="0.739" cy="0.739" rx="0.739" ry="0.739" transform="translate(12.817 13.67)" fill="#fff" stroke="#000" stroke-width="0.75"/>
        <path id="Path_202419" data-name="Path 202419" d="M166.2,69.693a2.905,2.905,0,0,1,2.982-.269" transform="translate(-162.794 -58.856)" fill="#fff" stroke="#000" stroke-linecap="round" stroke-linejoin="round" stroke-width="0.75"/>
        <path id="Path_202420" data-name="Path 202420" d="M174.487,69.618a2.9,2.9,0,0,0-2.99-.126" transform="translate(-159.541 -58.853)" fill="#fff" stroke="#000" stroke-linecap="round" stroke-linejoin="round" stroke-width="0.75"/>
        <g id="Group_5361" data-name="Group 5361" transform="translate(10.087 21.278)">
          <path id="Path_202421" data-name="Path 202421" d="M170.339,76.565a2.377,2.377,0,0,0,2.58,2.057.8.8,0,0,0,.087-.008,2.372,2.372,0,0,0,1.936-1.572,2.308,2.308,0,0,0,.118-1.1Z" transform="translate(-170.339 -75.947)" fill="#fff" stroke="#000" stroke-width="0.75"/>
          <path id="Path_202422" data-name="Path 202422" d="M170.339,76.565a2.377,2.377,0,0,0,2.58,2.057.8.8,0,0,0,.087-.008,2.372,2.372,0,0,0,1.936-1.572,2.308,2.308,0,0,0,.118-1.1Z" transform="translate(-170.339 -75.947)" fill="#fff" stroke="#000" stroke-linecap="round" stroke-linejoin="round" stroke-width="0.75"/>
        </g>
        <ellipse id="Ellipse_100" data-name="Ellipse 100" cx="3.928" cy="3.928" rx="3.928" ry="3.928" transform="translate(9.628 11.844)" fill="#ad1123" stroke="#000" stroke-linecap="round" stroke-linejoin="round" stroke-width="0.75"/>
        <line id="Line_141" data-name="Line 141" x2="2.279" transform="translate(7.611 14.409)" fill="#1d1d1d" stroke="#000" stroke-width="0.75"/>
        <line id="Line_142" data-name="Line 142" x2="5.77" transform="translate(17.239 14.409)" fill="none" stroke="#000" stroke-linecap="round" stroke-linejoin="round" stroke-width="0.75"/>
        <path id="Path_202423" data-name="Path 202423" d="M181.162,71.428c-1.021-.4-1.854,1.5-1.236,2.082" transform="translate(-154.499 -57.476)" fill="#fff" stroke="#000" stroke-linecap="round" stroke-linejoin="round" stroke-width="0.75"/>
        <ellipse id="Ellipse_173" data-name="Ellipse 173" cx="0.739" cy="0.739" rx="0.739" ry="0.739" transform="translate(13.928 13.67)" fill="#fff" stroke="#000" stroke-width="0.75"/>
      </g>
      <g id="Group_5363" data-name="Group 5363" transform="translate(60.443 32.674)">
        <path id="Path_202424" data-name="Path 202424" d="M169.12,83.476c-3.876-2.379-5.264-4.67-4.028-5.719s9.561,3.571,9.561,3.571a3.1,3.1,0,0,1,4.3.161c2.141,2.095,2.571,8,2.571,8l9.079,24.547,5.843-7.657s7.358,3.813,10.528,9.132c0,0-11.376,20.118-17.607,19.635s-9.668-5.372-11.012-12.3-6.674-28.414-6.674-28.414-4.175.537-4.767-2.2a3.655,3.655,0,0,1,1.128-3.905S165.676,85.648,169.12,83.476Z" transform="translate(-164.653 -77.602)" fill="#fff" stroke="#000" stroke-width="0.75"/>
        <path id="Path_202425" data-name="Path 202425" d="M166.755,84.6c1.773-1.681,4.3-.554,4.3-.554" transform="translate(-163.363 -73.875)" fill="#fff" stroke="#000" stroke-width="0.75"/>
        <path id="Path_202426" data-name="Path 202426" d="M167.421,81.414c2.417-1.02,3.813,0,3.813,0" transform="translate(-162.955 -75.541)" fill="#fff" stroke="#000" stroke-width="0.75"/>
        <path id="Path_202427" data-name="Path 202427" d="M169.7,89.139c-.287-2.5-1.819-2.908-1.819-2.908" transform="translate(-162.671 -72.306)" fill="#fff" stroke="#000" stroke-linecap="round" stroke-linejoin="round" stroke-width="0.75"/>
        <path id="Path_202428" data-name="Path 202428" d="M170.85,79.911a5.33,5.33,0,0,1,3.2,1.922" transform="translate(-160.85 -76.185)" fill="#fff" stroke="#000" stroke-linecap="round" stroke-linejoin="round" stroke-width="0.75"/>
        <line id="Line_143" data-name="Line 143" x2="2.363" y2="4.781" transform="translate(25.952 36.438)" fill="#fff" stroke="#000" stroke-linecap="round" stroke-linejoin="round" stroke-width="0.75"/>
      </g>
      <line id="Line_144" data-name="Line 144" y1="5.965" x2="4.28" transform="translate(93.091 54.653)" fill="none" stroke="#000" stroke-linecap="round" stroke-linejoin="round" stroke-width="0.75"/>
      <path id="Path_202429" data-name="Path 202429" d="M157.636,100.625c1.927-5.1,3.158-6.045,3.557-8.935" transform="translate(-108.517 -36.282)" fill="#fff" stroke="#000" stroke-linecap="round" stroke-linejoin="round" stroke-width="0.75"/>
      <path id="Path_202430" data-name="Path 202430" d="M152.764,187.29l-9.327,5.414a3.015,3.015,0,0,0-1.5,2.608h0a3.017,3.017,0,0,0,3.016,3.018H175.6a3.016,3.016,0,0,0,3.013-3.148l-.345-7.891Z" transform="translate(-118.152 22.386)" fill="#fff" stroke="#000" stroke-linecap="round" stroke-linejoin="round" stroke-width="0.75"/>
      <path id="Path_202431" data-name="Path 202431" d="M201.12,187.29l9.329,5.414a3.015,3.015,0,0,1,1.5,2.608h0a3.017,3.017,0,0,1-3.016,3.018H178.281a3.018,3.018,0,0,1-3.014-3.148l.347-7.891Z" transform="translate(-97.698 22.386)" fill="#fff" stroke="#000" stroke-linecap="round" stroke-linejoin="round" stroke-width="0.75"/>
      <path id="Path_202432" data-name="Path 202432" d="M192.268,187.859l7.746,4.5a3.015,3.015,0,0,1,1.5,2.608h0a3.014,3.014,0,0,1-1.059,2.3" transform="translate(-87.263 22.735)" fill="#fff" stroke="#000" stroke-linecap="round" stroke-linejoin="round" stroke-width="0.75"/>
      <path id="Path_202433" data-name="Path 202433" d="M129.523,104.487c2.393.444,4.709-.449,5.162,1.344.537,2.122-3.008,3.492-6.634,2.2" transform="translate(-126.672 -28.429)" fill="#fff" stroke="#000" stroke-width="0.75"/>
      <path id="Path_202434" data-name="Path 202434" d="M133.437,106.479c2.35.413,4.242,5.516-4.6,4.481" transform="translate(-126.189 -27.207)" fill="#fff" stroke="#000" stroke-width="0.75"/>
      <path id="Path_202435" data-name="Path 202435" d="M133.86,108.8c1.862.155,4.012,3.763-3.737,4.43" transform="translate(-125.401 -25.78)" fill="#fff" stroke="#000" stroke-width="0.75"/>
      <path id="Path_202436" data-name="Path 202436" d="M133.294,105.936c-.053,1.693,2.309,2.766,2.39,2.766" transform="translate(-123.455 -27.54)" fill="#fff" stroke="#000" stroke-width="0.75"/>
      <line id="Line_145" data-name="Line 145" y1="0.055" x2="4.302" transform="translate(35.966 75.656)" fill="#1d1d1d" stroke="#000" stroke-width="0.75"/>
      <path id="Path_202437" data-name="Path 202437" d="M182.856,81.766" transform="translate(-93.039 -42.373)" fill="#fff" stroke="#000" stroke-linecap="round" stroke-linejoin="round" stroke-width="0.75"/>
      <path id="Path_202438" data-name="Path 202438" d="M176.832,80.12" transform="translate(-96.736 -43.383)" fill="#fff" stroke="#000" stroke-linecap="round" stroke-linejoin="round" stroke-width="0.75"/>
    </g>
    <g id="Group_5372" data-name="Group 5372" transform="translate(75.063 102.045)">
      <path id="Path_202439" data-name="Path 202439" d="M125.869,229.106h-5.586l31.758-91.693h5.586l-5.869,16.944Z" transform="translate(-102.909 -110.436)" fill="#fff" stroke="#000" stroke-linecap="round" stroke-linejoin="round" stroke-width="0.75"/>
      <rect id="Rectangle_869" data-name="Rectangle 869" width="14.395" height="7.908" transform="translate(43.953 22.868)" fill="#fff" stroke="#000" stroke-linecap="round" stroke-linejoin="round" stroke-width="0.75"/>
      <path id="Path_202440" data-name="Path 202440" d="M224.026,229h5.586l-31.758-91.693h-5.586Z" transform="translate(-58.733 -110.332)" fill="#fff" stroke="#000" stroke-linecap="round" stroke-linejoin="round" stroke-width="0.75"/>
      <rect id="Rectangle_870" data-name="Rectangle 870" width="14.395" height="7.908" transform="translate(144.3 30.776) rotate(-180)" fill="#fff" stroke="#000" stroke-linecap="round" stroke-linejoin="round" stroke-width="0.75"/>
      <rect id="Rectangle_871" data-name="Rectangle 871" width="169.471" height="6.746" rx="0.553" transform="translate(27.287 20.23)" fill="#ad1123" stroke="#000" stroke-linecap="round" stroke-linejoin="round" stroke-width="0.75"/>
      <rect id="Rectangle_872" data-name="Rectangle 872" width="169.471" height="6.746" rx="0.553" transform="translate(0 20.23)" fill="#fff" stroke="#000" stroke-linecap="round" stroke-linejoin="round" stroke-width="1"/>
      <path id="Path_202441" data-name="Path 202441" d="M230.422,140.664H193.4a1.024,1.024,0,0,1-.913-.56l-9.025-17.768a1.023,1.023,0,0,1,.912-1.488H221.4a1.024,1.024,0,0,1,.913.56l1.777,3.5,7.249,14.27A1.024,1.024,0,0,1,230.422,140.664Z" transform="translate(-64.204 -120.434)" fill="#fff" stroke="#000" stroke-linecap="round" stroke-linejoin="round" stroke-width="0.75"/>
      <path id="Path_202443" data-name="Path 202443" d="M228.52,127.837l-5.738,8.7h-41.3l6.052-8.955Z" transform="translate(-65.351 -116.303)" fill="#fff" stroke="#000" stroke-linecap="round" stroke-linejoin="round" stroke-width="0.75"/>
      <g id="Group_5371" data-name="Group 5371" transform="translate(42.249 0)">
        <path id="Path_202444" data-name="Path 202444" d="M175.319,120.591H150.5a1.463,1.463,0,0,0-1.347.886l-7.383,17.31a1.463,1.463,0,0,0,1.347,2.035h24.823a1.465,1.465,0,0,0,1.347-.886l7.383-17.31A1.463,1.463,0,0,0,175.319,120.591Zm-6.934,18.517a1.335,1.335,0,0,1-1.226.81H144.55Z" transform="translate(-132.047 -120.591)" fill="#fff" stroke="#000" stroke-width="0.75"/>
        <rect id="Rectangle_873" data-name="Rectangle 873" width="37.063" height="2.788" rx="0.228" transform="translate(0 17.443)" fill="#fff" stroke="#000" stroke-width="0.75"/>
        <ellipse id="Ellipse_101" data-name="Ellipse 101" cx="0.36" cy="0.36" rx="0.36" ry="0.36" transform="translate(33.621 18.476)" fill="#fff" stroke="#000" stroke-width="1"/>
        <ellipse id="Ellipse_102" data-name="Ellipse 102" cx="0.36" cy="0.36" rx="0.36" ry="0.36" transform="translate(30.479 18.476)" fill="#fff" stroke="#000" stroke-width="1"/>
        <ellipse id="Ellipse_103" data-name="Ellipse 103" cx="0.36" cy="0.36" rx="0.36" ry="0.36" transform="translate(27.335 18.476)" fill="#fff" stroke="#000" stroke-width="1"/>
        <ellipse id="Ellipse_104" data-name="Ellipse 104" cx="0.36" cy="0.36" rx="0.36" ry="0.36" transform="translate(24.193 18.476)" fill="#fff" stroke="#000" stroke-width="1"/>
      </g>
    </g>
    <line id="Line_146" data-name="Line 146" y1="0.913" x2="2.502" transform="translate(163.637 40.106)" fill="none" stroke="#000" stroke-linecap="round" stroke-linejoin="round" stroke-width="1"/>
  </g>
</svg>
