<svg xmlns="http://www.w3.org/2000/svg" width="221.666" height="222.904" viewBox="0 0 221.666 222.904">
  <g id="_4.done" data-name="4.done" transform="translate(0.5 0.464)">
    <g id="Group_5640" data-name="Group 5640" transform="translate(23.779 147.211)">
      <path id="Path_202553" data-name="Path 202553" d="M60.823,187.9,97.19,218.406l4.467-5.324A10,10,0,0,0,100.423,199L75.511,178.1Z" transform="translate(-60.823 -178.101)" fill="#fff" stroke="#000" stroke-linecap="round" stroke-linejoin="round" stroke-width="1"/>
      <path id="Path_202554" data-name="Path 202554" d="M60.823,189.185,97.19,219.692l2.438-2.907L64.111,186.991Z" transform="translate(-60.823 -179.387)" fill="#fff" stroke="#000" stroke-linecap="round" stroke-linejoin="round" stroke-width="1"/>
    </g>
    <g id="Group_5643" data-name="Group 5643" transform="translate(78.251 32.561)">
      <g id="Group_5642" data-name="Group 5642">
        <path id="Path_202555" data-name="Path 202555" d="M142.272,54.9l4.512,24.412,16.663-7.048,2.514-5.578A1.957,1.957,0,0,1,169.53,68.3l-.778,1.725,8.029-3.4a1.963,1.963,0,0,1,2.523,1.138h0a1.963,1.963,0,0,1-1.138,2.523L170.741,73.1l.021.05,8.413-3.185a1.957,1.957,0,0,1,1.387,3.661l-8.318,3.149.02.048,8.316-3.149A1.963,1.963,0,0,1,183.1,74.81h0a1.962,1.962,0,0,1-1.138,2.523l-8.219,3.112.042.1,6.6-2.5a1.957,1.957,0,0,1,1.386,3.661L144.064,95.23a6.792,6.792,0,0,1-6.586-1.122c-.048-.037-.092-.077-.139-.115s-.115-.092-.169-.142a6.774,6.774,0,0,1-2.124-3.309L126.04,58.716Z" transform="translate(-124.728 -45.633)" fill="#fff" stroke="#000" stroke-linecap="round" stroke-linejoin="round" stroke-width="1"/>
        <path id="Path_202556" data-name="Path 202556" d="M149.977,83.375l-2.741,1.176" transform="translate(-127.793 -49.751)" fill="#fff" stroke="#000" stroke-linecap="round" stroke-linejoin="round" stroke-width="1"/>
        <g id="Group_5641" data-name="Group 5641">
          <path id="Path_202557" data-name="Path 202557" d="M124.506,57.345,128.722,69.6l17.171-2.765-1.984-12.321c-1.466-6.2-5.492-9.445-10.1-10.446h0" transform="translate(-124.506 -44.066)" fill="#fff" stroke="#000" stroke-linecap="round" stroke-linejoin="round" stroke-width="1"/>
        </g>
      </g>
      <path id="Path_202558" data-name="Path 202558" d="M175.3,72.641l-.955,1.916a5.224,5.224,0,0,1,.324,3.331,5.645,5.645,0,0,1-3.1,4.01" transform="translate(-131.313 -48.199)" fill="#fff" stroke="#000" stroke-linecap="round" stroke-linejoin="round" stroke-width="1"/>
    </g>
    <g id="rocket" transform="translate(10.676 45.44)">
      <g id="rocket-2" data-name="rocket">
        <g id="Group_5644" data-name="Group 5644" transform="translate(15.878 103.816)">
          <path id="Path_202559" data-name="Path 202559" d="M75.209,181.574,64.37,200.016a2.193,2.193,0,0,0,.481,2.79L85,219.707a2.192,2.192,0,0,0,2.831-.012l16.277-13.88a2.193,2.193,0,0,0-.014-3.348L78.507,181.005A2.191,2.191,0,0,0,75.209,181.574Z" transform="translate(-64.068 -180.492)" fill="#fff" stroke="#000" stroke-linecap="round" stroke-linejoin="round" stroke-width="1"/>
          <rect id="Rectangle_891" data-name="Rectangle 891" width="25.394" height="2.743" transform="matrix(0.643, -0.766, 0.766, 0.643, 1.138, 22.612)" fill="#fff" stroke="#000" stroke-linecap="round" stroke-linejoin="round" stroke-width="1"/>
          <rect id="Rectangle_892" data-name="Rectangle 892" width="25.394" height="2.743" transform="matrix(0.643, -0.766, 0.766, 0.643, 6.917, 27.459)" fill="#fff" stroke="#000" stroke-linecap="round" stroke-linejoin="round" stroke-width="1"/>
          <rect id="Rectangle_893" data-name="Rectangle 893" width="25.394" height="2.743" transform="matrix(0.643, -0.766, 0.766, 0.643, 12.695, 32.306)" fill="#fff" stroke="#000" stroke-linecap="round" stroke-linejoin="round" stroke-width="1"/>
          <rect id="Rectangle_894" data-name="Rectangle 894" width="25.394" height="2.743" transform="matrix(0.643, -0.766, 0.766, 0.643, 18.473, 37.153)" fill="#fff" stroke="#000" stroke-linecap="round" stroke-linejoin="round" stroke-width="1"/>
        </g>
        <path id="Path_202560" data-name="Path 202560" d="M133.883,189.661l1.363,26.772a2.2,2.2,0,0,1-.772,1.783l-18.088,15.335a2.192,2.192,0,0,1-3.56-1.208l-5.535-25.588a2.193,2.193,0,0,1,.837-2.224l22.259-16.52A2.192,2.192,0,0,1,133.883,189.661Z" transform="translate(-54.434 -77.701)" fill="#fff" stroke="#000" stroke-linecap="round" stroke-linejoin="round" stroke-width="1"/>
        <path id="Path_202561" data-name="Path 202561" d="M85.986,149.966l-26.6,3.315a2.193,2.193,0,0,0-1.623,1.07L45.807,174.829a2.192,2.192,0,0,0,1.809,3.3l26.16,1a2.192,2.192,0,0,0,2.044-1.21l12.4-24.794A2.193,2.193,0,0,0,85.986,149.966Z" transform="translate(-45.505 -72.259)" fill="#fff" stroke="#000" stroke-linecap="round" stroke-linejoin="round" stroke-width="1"/>
        <path id="Path_202562" data-name="Path 202562" d="M72.681,165.9l30.856,25.884a2.194,2.194,0,0,0,2.817,0c46.548-38.951,89.987-82.675,83.328-130.974h0a2,2,0,0,0-2.05-1.693A78.767,78.767,0,0,0,175.37,60.7q-3.822.8-7.537,1.968c-38.579,12.086-68.475,52.754-95.8,99.516A2.927,2.927,0,0,0,72.681,165.9Z" transform="translate(-49.284 -59.123)" fill="#fff" stroke="#000" stroke-linecap="round" stroke-linejoin="round" stroke-width="1"/>
        <path id="Path_202563" data-name="Path 202563" d="M168.385,68.183a81.7,81.7,0,0,1,33.022-9.046,2.207,2.207,0,0,1,2.3,1.908,76.631,76.631,0,0,1-3.323,33.981Z" transform="translate(-63.277 -59.125)" fill="#fff" stroke="#000" stroke-linecap="round" stroke-linejoin="round" stroke-width="1"/>
        <g id="Group_5645" data-name="Group 5645" transform="translate(83.777 39.622)">
          <path id="Path_202564" data-name="Path 202564" d="M146.694,110.147a11.831,11.831,0,1,0,16.647-1.436A11.815,11.815,0,0,0,146.694,110.147Z" transform="translate(-143.518 -105.516)" fill="#ad1123" stroke="#000" stroke-linecap="round" stroke-linejoin="round" stroke-width="1"/>
          <path id="Path_202565" data-name="Path 202565" d="M146.3,109.8a12.259,12.259,0,1,1,1.534,17.246A12.256,12.256,0,0,1,146.3,109.8Zm2.242,1.925A9.3,9.3,0,1,0,161.63,110.6,9.3,9.3,0,0,0,148.537,111.725Z" transform="translate(-143.446 -105.445)" fill="#ad1123" stroke="#000" stroke-linecap="round" stroke-linejoin="round" stroke-width="1"/>
        </g>
        <g id="Group_5646" data-name="Group 5646" transform="translate(72.724 69.189)">
          <path id="Path_202566" data-name="Path 202566" d="M140.829,140.314a1.289,1.289,0,1,0,.163,1.819,1.291,1.291,0,0,0-.163-1.819Z" transform="translate(-131.709 -140.011)" fill="#fff" stroke="#000" stroke-linecap="round" stroke-linejoin="round" stroke-width="1"/>
          <path id="Path_202567" data-name="Path 202567" d="M136.738,145.192a1.289,1.289,0,1,0,.162,1.819,1.291,1.291,0,0,0-.162-1.819Z" transform="translate(-131.117 -140.716)" fill="#fff" stroke="#000" stroke-linecap="round" stroke-linejoin="round" stroke-width="1"/>
          <path id="Path_202568" data-name="Path 202568" d="M132.646,150.069a1.289,1.289,0,1,0,.162,1.819,1.292,1.292,0,0,0-.162-1.819Z" transform="translate(-130.525 -141.422)" fill="#fff" stroke="#000" stroke-linecap="round" stroke-linejoin="round" stroke-width="1"/>
        </g>
      </g>
    </g>
    <g id="Group_5647" data-name="Group 5647" transform="translate(14.702 55.808)">
      <path id="Path_202569" data-name="Path 202569" d="M100.357,98.733l15.7,21.837c.234.327.453.66.665.995a19.016,19.016,0,0,1-4.86,25.78l-32.6,19.733L50.212,142.711l30.429-16.992-7.3-6.137c-13.647-11.477-13.461-32.8.711-43.62q.334-.254.676-.5L80.6,71.244l25.733,17.089" transform="translate(-50.212 -71.244)" fill="#fff" stroke="#000" stroke-linecap="round" stroke-linejoin="round" stroke-width="1"/>
      <line id="Line_157" data-name="Line 157" x2="10.12" y2="8.49" transform="translate(30.246 54.325)" fill="#fff" stroke="#000" stroke-linecap="round" stroke-linejoin="round" stroke-width="1"/>
    </g>
    <path id="Path_202570" data-name="Path 202570" d="M83.391,65.914l35.285,29.6L133.731,66.23c3.342-5.469,6.029-22.571,1.72-26.185l-5.817-5c-5.123-5.122-15.022.4-19.822,5.1Z" transform="translate(-40.308 -9.903)" fill="#fff" stroke="#000" stroke-linecap="round" stroke-linejoin="round" stroke-width="1"/>
    <g id="Group_5648" data-name="Group 5648" transform="translate(0 127.263)">
      <path id="Path_202571" data-name="Path 202571" d="M33.024,164.578l36.367,30.508,4.467-5.325a10,10,0,0,0-1.234-14.083l-24.911-20.9Z" transform="translate(-33.024 -154.781)" fill="#fff" stroke="#000" stroke-linecap="round" stroke-linejoin="round" stroke-width="1"/>
      <path id="Path_202572" data-name="Path 202572" d="M33.024,165.864l36.367,30.508,2.438-2.907L36.312,163.671Z" transform="translate(-33.024 -156.067)" fill="#fff" stroke="#000" stroke-linecap="round" stroke-linejoin="round" stroke-width="1"/>
    </g>
    <g id="Group_5653" data-name="Group 5653" transform="translate(82.039 0)">
      <g id="Group_5649" data-name="Group 5649">
        <path id="Path_202573" data-name="Path 202573" d="M150.361,36.138a17.389,17.389,0,0,1-.775-3.968,18.861,18.861,0,0,1,.627-6.183c1.627-6.855,1.831-10.27,1.506-11.749a9.894,9.894,0,0,0-6.708-7.674c-4.059-1.14-6.355-.372-8.156.7-3.044,1.814-4.585,4.929-5.534,7.18a28.577,28.577,0,0,0-2.049,15.776Z" transform="translate(-128.934 -6)" fill="#fff" stroke="#000" stroke-linecap="round" stroke-linejoin="round" stroke-width="1"/>
      </g>
      <g id="Group_5652" data-name="Group 5652" transform="translate(3.786 3.452)">
        <path id="Path_202574" data-name="Path 202574" d="M144.812,29.944l-2.531,9.117c-.245.884-2.374,1.066-4.754.4s-4.11-1.913-3.865-2.8l2.531-9.116Z" transform="translate(-133.401 -12.569)" fill="#fff" stroke="#000" stroke-linecap="round" stroke-linejoin="round" stroke-width="1"/>
        <g id="Group_5650" data-name="Group 5650">
          <path id="Path_202575" data-name="Path 202575" d="M139.908,29.97a7.2,7.2,0,0,0,8.833-4.994l1.623-5.846a7.176,7.176,0,0,0-13.828-3.84l-1.623,5.846A7.2,7.2,0,0,0,139.908,29.97Z" transform="translate(-133.547 -10.036)" fill="#fff" stroke="#000" stroke-linecap="round" stroke-linejoin="round" stroke-width="1"/>
          <ellipse id="Ellipse_115" data-name="Ellipse 115" cx="2.537" cy="2.537" rx="2.537" ry="2.537" transform="translate(11.089 7.54)" fill="#fff" stroke="#000" stroke-linecap="round" stroke-linejoin="round" stroke-width="1"/>
          <ellipse id="Ellipse_116" data-name="Ellipse 116" cx="2.537" cy="2.537" rx="2.537" ry="2.537" transform="translate(3.906 5.546)" fill="#fff" stroke="#000" stroke-linecap="round" stroke-linejoin="round" stroke-width="1"/>
          <path id="Path_202576" data-name="Path 202576" d="M136.619,17.343a1.516,1.516,0,0,0-2.312-.642,2.286,2.286,0,0,0-.761,2.742,1.516,1.516,0,0,0,2.312.642" transform="translate(-133.36 -10.957)" fill="#fff" stroke="#000" stroke-linecap="round" stroke-linejoin="round" stroke-width="1"/>
          <path id="Path_202577" data-name="Path 202577" d="M142.9,26.142a.907.907,0,0,0,.63,1.113h0a.906.906,0,0,0,1.113-.629l.89-3.2" transform="translate(-134.736 -11.972)" fill="#fff" stroke="#000" stroke-linecap="round" stroke-linejoin="round" stroke-width="1"/>
          <path id="Path_202578" data-name="Path 202578" d="M140.786,27.806a1.533,1.533,0,0,1-1.12-1.854" transform="translate(-134.265 -12.338)" fill="#fff" stroke="#000" stroke-linecap="round" stroke-linejoin="round" stroke-width="1"/>
        </g>
        <g id="Group_5651" data-name="Group 5651" transform="translate(15.296 8.034)">
          <path id="Path_202579" data-name="Path 202579" d="M151.243,19.428" transform="translate(-151.243 -19.428)" fill="#fff" stroke="#000" stroke-linecap="round" stroke-linejoin="round" stroke-width="1"/>
        </g>
      </g>
      <path id="Path_202580" data-name="Path 202580" d="M147.042,10.58a5.955,5.955,0,0,1-3.731,3.784c-1.668.657-5.4.076-6.179-.142,1.73-4.634,5.515-6.452,9.2-5.375a7.246,7.246,0,0,1,5.486,6.124c.121,1.271-.74,2.909-1.007,3.625A9.479,9.479,0,0,0,147.042,10.58Z" transform="translate(-130.12 -6.368)" fill="#fff" stroke="#000" stroke-linecap="round" stroke-linejoin="round" stroke-width="1"/>
    </g>
    <g id="Group_5656" data-name="Group 5656" transform="translate(69.468 27.45)">
      <g id="Group_5655" data-name="Group 5655">
        <path id="Path_202581" data-name="Path 202581" d="M134.817,51.316l-5.376,24.169,18.043.026,4.483-4.14a1.952,1.952,0,1,1,2.649,2.868l-1.387,1.28,8.694.013a1.956,1.956,0,0,1,1.872,2.027h0a1.957,1.957,0,0,1-2.027,1.873l-7.912-.314v.052l8.964.357a1.952,1.952,0,1,1-.155,3.9l-8.863-.352v.051l8.861.352a1.958,1.958,0,0,1,1.872,2.028h0a1.957,1.957,0,0,1-2.027,1.873l-8.759-.348,0,.11,7.036.28a1.952,1.952,0,0,1-.156,3.9l-39.888-2.291a6.776,6.776,0,0,1-5.608-3.6c-.03-.052-.055-.107-.084-.159s-.069-.129-.1-.2a6.756,6.756,0,0,1-.659-3.867l4.14-32.724Z" transform="translate(-114.237 -39.595)" fill="#fff" stroke="#000" stroke-linecap="round" stroke-linejoin="round" stroke-width="1"/>
        <path id="Path_202582" data-name="Path 202582" d="M131.673,80.044l-2.975.01" transform="translate(-116.329 -44.159)" fill="#fff" stroke="#000" stroke-linecap="round" stroke-linejoin="round" stroke-width="1"/>
        <g id="Group_5654" data-name="Group 5654" transform="translate(2.007)">
          <path id="Path_202583" data-name="Path 202583" d="M117.49,46.652l-.907,12.89,16.84,4.156,2.983-12.083c1.07-6.26-1.359-10.812-5.2-13.525h0" transform="translate(-116.583 -38.091)" fill="#fff" stroke="#000" stroke-linecap="round" stroke-linejoin="round" stroke-width="1"/>
        </g>
      </g>
    </g>
    <g id="cloud" transform="translate(114.846 164.137)">
      <path id="Path_202584" data-name="Path 202584" d="M261.024,239.145a16.56,16.56,0,0,0-16.566-16.551c-.251,0-.5.009-.749.021a16.562,16.562,0,1,0-29.553-14.871A16.563,16.563,0,1,0,184.6,222.615c-.248-.013-.5-.021-.749-.021A16.55,16.55,0,0,0,183,255.673v.02h63.463v-.124A16.553,16.553,0,0,0,261.024,239.145Z" transform="translate(-167.288 -197.889)" fill="#fff" stroke="#000" stroke-linecap="round" stroke-linejoin="round" stroke-width="1"/>
      <path id="Path_202585" data-name="Path 202585" d="M216.773,227.084a13.453,13.453,0,1,0-20.6,17.249" transform="translate(-170.945 -201.339)" fill="#fff" stroke="#000" stroke-linecap="round" stroke-linejoin="round" stroke-width="1"/>
      <path id="Path_202586" data-name="Path 202586" d="M251.844,246.433a9.387,9.387,0,1,0-17.007-7.9" transform="translate(-177.057 -202.92)" fill="#fff" stroke="#000" stroke-linecap="round" stroke-linejoin="round" stroke-width="1"/>
    </g>
    <path id="spiral" d="M67.592,226.894a16.477,16.477,0,0,1-14.848,17.612A12.679,12.679,0,0,1,38.95,232.733a10.545,10.545,0,0,1,9.5-11.272A8.114,8.114,0,0,1,57.281,229,6.748,6.748,0,0,1,51.2,236.21a5.193,5.193,0,0,1-5.65-4.822,4.319,4.319,0,0,1,3.893-4.617,3.324,3.324,0,0,1,3.616,3.086,2.764,2.764,0,0,1-2.491,2.955,2.128,2.128,0,0,1-2.315-1.975" transform="translate(-33.877 -37.156)" fill="#fff" stroke="#000" stroke-linecap="round" stroke-linejoin="round" stroke-width="1"/>
    <path id="triangle" d="M238.842,110.257l-8.75.617a1.156,1.156,0,0,0-.874,1.8l4.977,7.3a1.155,1.155,0,0,0,2-.153l3.775-7.919A1.156,1.156,0,0,0,238.842,110.257Z" transform="translate(-61.369 -21.078)" fill="#fff" stroke="#000" stroke-linecap="round" stroke-linejoin="round" stroke-width="1"/>
    <g id="circle" transform="translate(196.263 119.069)">
      <path id="Path_202587" data-name="Path 202587" d="M272.437,145.2a9.966,9.966,0,1,0,9.967,9.966A9.966,9.966,0,0,0,272.437,145.2Zm0,15.888a5.922,5.922,0,1,1,5.922-5.922A5.922,5.922,0,0,1,272.437,161.089Z" transform="translate(-262.471 -145.201)" fill="#fff" stroke="#000" stroke-linecap="round" stroke-linejoin="round" stroke-width="1"/>
    </g>
    <g id="baloon" transform="translate(185.359 12.063)">
      <path id="Path_202588" data-name="Path 202588" d="M269.05,66.9c.021,1.1.07,2.72.2,4.68.668,9.859,2.275,10.934,1.623,14.241-1.369,6.947-9.387,6.887-9.738,12.613-.273,4.455,4.493,5.863,5.478,12.207a16.833,16.833,0,0,1-1.826,9.969" transform="translate(-251.372 -26.871)" fill="#fff" stroke="#000" stroke-width="1"/>
      <path id="Path_202589" data-name="Path 202589" d="M268.774,68.533l-.372.646a1.472,1.472,0,0,0,1.276,2.206h.743a1.472,1.472,0,0,0,1.276-2.206l-.372-.646A1.472,1.472,0,0,0,268.774,68.533Z" transform="translate(-252.396 -27.001)" fill="#fff" stroke="#000" stroke-width="1"/>
      <path id="Path_202590" data-name="Path 202590" d="M285.03,38.1c0,11.153-7.9,22.4-17.654,22.4s-17.653-11.243-17.653-22.4,7.9-18,17.653-18S285.03,26.945,285.03,38.1Z" transform="translate(-249.723 -20.103)" fill="#ad1123" stroke="#000" stroke-linecap="round" stroke-linejoin="round" stroke-width="1"/>
    </g>
  </g>
</svg>
