<svg id="_5.Design_User_Experince" data-name="5.Design &amp; User Experince" xmlns="http://www.w3.org/2000/svg" xmlns:xlink="http://www.w3.org/1999/xlink" width="248.425" height="232.048" viewBox="0 0 248.425 232.048">
  <defs>
    <clipPath id="clip-path">
      <rect id="Rectangle_1169" data-name="Rectangle 1169" width="248.425" height="232.048" fill="#fff" stroke="#000" stroke-width="1"/>
    </clipPath>
  </defs>
  <g id="Group_5779" data-name="Group 5779" clip-path="url(#clip-path)">
    <path id="Path_202815" data-name="Path 202815" d="M20.185,178.053c-5.481-6.378-6.983-15.037-3.765-21.841,4.265-9.022,16.315-13.7,27.394-9.131.133-.363,1.572-4.133,4.9-4.9,3.5-.8,7.915,2,9.131,7.06v28.807Z" transform="translate(3.439 33.133)" fill="#fff" stroke="#000" stroke-width="1"/>
    <path id="Path_202816" data-name="Path 202816" d="M20.185,178.053c-5.481-6.378-6.983-15.037-3.765-21.841,4.265-9.022,16.315-13.7,27.394-9.131.133-.363,1.572-4.133,4.9-4.9,3.5-.8,7.915,2,9.131,7.06v28.807Z" transform="translate(3.439 33.133)" fill="#ad1123" stroke="#000" stroke-width="0.75"/>
    <rect id="Rectangle_1130" data-name="Rectangle 1130" width="18.639" height="33.749" transform="translate(222.898 177.415)" fill="#fff" stroke="#000" stroke-width="1"/>
    <rect id="Rectangle_1131" data-name="Rectangle 1131" width="18.639" height="33.749" transform="translate(222.898 177.415)" fill="#fff" stroke="#000" stroke-width="0.75"/>
    <rect id="Rectangle_1132" data-name="Rectangle 1132" width="18.639" height="39.115" transform="translate(206.423 172.05)" fill="#fff" stroke="#000" stroke-width="1"/>
    <rect id="Rectangle_1133" data-name="Rectangle 1133" width="18.639" height="39.115" transform="translate(206.423 172.05)" fill="#fff" stroke="#000" stroke-width="0.75"/>
    <rect id="Rectangle_1134" data-name="Rectangle 1134" width="18.639" height="69.899" transform="translate(190.748 141.265)" fill="#fff" stroke="#000" stroke-width="1"/>
    <rect id="Rectangle_1135" data-name="Rectangle 1135" width="18.639" height="69.899" transform="translate(190.748 141.265)" fill="#fff" stroke="#000" stroke-width="0.75"/>
    <path id="Path_202817" data-name="Path 202817" d="M123.247,72.409,137.086,99.24l-24.718-.046s-3.523-15.206-3.383-15.629,14.263-11.156,14.263-11.156" transform="translate(25.42 16.889)" fill="#fff" stroke="#000" stroke-width="1"/>
    <path id="Path_202818" data-name="Path 202818" d="M123.247,72.409,137.086,99.24l-24.718-.046s-3.523-15.206-3.383-15.629S123.247,72.409,123.247,72.409Z" transform="translate(25.42 16.889)" fill="#fff" stroke="#000" stroke-width="0.75"/>
    <path id="Path_202819" data-name="Path 202819" d="M15.191,191.592H239.526c3.525,0,6.382-4.506,6.382-10.065s-2.857-10.065-6.382-10.065H15.191c-3.525,0-6.382,4.506-6.382,10.065s2.857,10.065,6.382,10.065" transform="translate(2.055 39.994)" fill="#fff" stroke="#000" stroke-width="1"/>
    <path id="Path_202820" data-name="Path 202820" d="M15.191,191.592H239.526c3.525,0,6.382-4.506,6.382-10.065s-2.857-10.065-6.382-10.065H15.191c-3.525,0-6.382,4.506-6.382,10.065S11.666,191.592,15.191,191.592Z" transform="translate(2.055 39.994)" fill="#fff" stroke="#000" stroke-width="0.75"/>
    <path id="Path_202821" data-name="Path 202821" d="M68,87.533c-4.038-3.515-9.243-7.459-9.121-13.345.339-4.545,2.612-5.294,6.053-7.057,2.384-2.664-.976-5.71-2.672-7.757-1.865-2.531-2.307-5.827-2.365-8.969-.3-4.447,1.317-9.288,6.338-9.63,1.2-1.787-1.2-3.326,2.41-7.527,3.416-3.925,10.772-7.83,15.395-4.034,0,0,5.571-6,12.067-1.486S102.974,39.4,107.21,39.213s6.5,4.236,3.86,7.249-4.895,2.918-5.083,4.895-5.178,1.412-6.5.377S86.175,81.576,85.538,81.67,68,87.533,68,87.533" transform="translate(13.733 6.075)" fill="#fff" stroke="#000" stroke-width="1"/>
    <path id="Path_202822" data-name="Path 202822" d="M68,87.533c-4.038-3.515-9.243-7.459-9.121-13.345.339-4.545,2.612-5.294,6.053-7.057,2.384-2.664-.976-5.71-2.672-7.757-1.865-2.531-2.307-5.827-2.365-8.969-.3-4.447,1.317-9.288,6.338-9.63,1.2-1.787-1.2-3.326,2.41-7.527,3.416-3.925,10.772-7.83,15.395-4.034,0,0,5.571-6,12.067-1.486S102.974,39.4,107.21,39.213s6.5,4.236,3.86,7.249-4.895,2.918-5.083,4.895-5.178,1.412-6.5.377S86.175,81.576,85.538,81.67,68,87.533,68,87.533Z" transform="translate(13.733 6.075)" fill="#fff" stroke="#000" stroke-width="0.75"/>
    <path id="Path_202823" data-name="Path 202823" d="M64.5,78.281s29.353-21.547,47.684-17.453S135.317,76.22,135.317,76.22L122.891,94.436l1.412,7.625-56.768-1.649Z" transform="translate(15.045 14.067)" fill="#fff" stroke="#000" stroke-width="1"/>
    <path id="Path_202824" data-name="Path 202824" d="M64.5,78.281s29.353-21.547,47.684-17.453S135.317,76.22,135.317,76.22L122.891,94.436l1.412,7.625-56.768-1.649Z" transform="translate(15.045 14.067)" fill="#fff" stroke="#000" stroke-width="0.75"/>
    <path id="Path_202825" data-name="Path 202825" d="M93.162,61.577s-.2-1.625.5,4.071,8.19,7.012,8.262,8.028c0,1.015-2.542,10.211-14.122,12.4s-16.8-3.812-14.686-4.8c7.2-3.884,6.92-18.781,6.92-18.781a12.432,12.432,0,0,1-6.849-9.461c-4.942-.847-6-6.5-2.189-8.613a4.123,4.123,0,0,1,3.036-.353s3.461-.848,3.248-6.637c9.6,1.694,13.7,2.612,18.216,0,3.954,5.436,9.955,25.7-11.58,25.417" transform="translate(16.025 8.73)" fill="#fff" stroke="#000" stroke-width="1"/>
    <path id="Path_202826" data-name="Path 202826" d="M93.162,61.577s-.2-1.625.5,4.071,8.19,7.012,8.262,8.028c0,1.015-2.542,10.211-14.122,12.4s-16.8-3.812-14.686-4.8c7.2-3.884,6.92-18.781,6.92-18.781a12.432,12.432,0,0,1-6.849-9.461c-4.942-.847-6-6.5-2.189-8.613a4.123,4.123,0,0,1,3.036-.353s3.461-.848,3.248-6.637c9.6,1.694,13.7,2.612,18.216,0,3.954,5.436,9.955,25.7-11.58,25.417" transform="translate(16.025 8.73)" fill="#fff" stroke="#000" stroke-width="0.75"/>
    <rect id="Rectangle_1136" data-name="Rectangle 1136" width="137.54" height="96.684" transform="translate(56.456 114.48)" fill="#fff" stroke="#000" stroke-width="1"/>
    <path id="Path_204083" data-name="Path 204083" d="M0,0H137.54V96.684H0Z" transform="translate(56.456 114.48)" fill="#fff" stroke="#000" stroke-width="0.75"/>
    <path id="Path_202827" data-name="Path 202827" d="M76.033,92.828h3.951S68.5,106.8,68.028,113.77s.242,12.373,7.323,13.766c-5.817,2.615-12.03-2.093-12.6-3.787s2.448-24.882,3.2-25.574,10.076-5.346,10.076-5.346" transform="translate(14.622 21.652)" fill="#fff" stroke="#000" stroke-width="1"/>
    <path id="Path_202828" data-name="Path 202828" d="M76.033,92.828h3.951S68.5,106.8,68.028,113.77s.242,12.373,7.323,13.766c-5.817,2.615-12.03-2.093-12.6-3.787s2.448-24.882,3.2-25.574S76.033,92.828,76.033,92.828Z" transform="translate(14.622 21.652)" fill="#fff" stroke="#000" stroke-width="0.75"/>
    <rect id="Rectangle_1138" data-name="Rectangle 1138" width="6.307" height="4.895" transform="translate(67.847 178.122)" fill="#fff" stroke="#000" stroke-width="1"/>
    <rect id="Rectangle_1139" data-name="Rectangle 1139" width="6.307" height="4.895" transform="translate(67.847 178.122)" fill="#fff" stroke="#000" stroke-width="0.75"/>
    <rect id="Rectangle_1140" data-name="Rectangle 1140" width="6.307" height="4.895" transform="translate(67.847 188.289)" fill="#fff" stroke="#000" stroke-width="1"/>
    <rect id="Rectangle_1141" data-name="Rectangle 1141" width="6.307" height="4.895" transform="translate(67.847 188.289)" fill="#fff" stroke="#000" stroke-width="0.75"/>
    <rect id="Rectangle_1142" data-name="Rectangle 1142" width="6.307" height="4.895" transform="translate(67.847 198.456)" fill="#fff" stroke="#000" stroke-width="1"/>
    <rect id="Rectangle_1143" data-name="Rectangle 1143" width="6.307" height="4.895" transform="translate(67.847 198.456)" fill="#fff" stroke="#000" stroke-width="0.75"/>
    <rect id="Rectangle_1144" data-name="Rectangle 1144" width="21.57" height="2.071" transform="translate(82.532 179.533)" fill="#fff" stroke="#000" stroke-width="1"/>
    <rect id="Rectangle_1145" data-name="Rectangle 1145" width="21.57" height="2.071" transform="translate(82.532 179.533)" fill="#fff" stroke="#000" stroke-width="0.75"/>
    <rect id="Rectangle_1146" data-name="Rectangle 1146" width="21.57" height="2.071" transform="translate(82.532 189.701)" fill="#fff" stroke="#000" stroke-width="1"/>
    <rect id="Rectangle_1147" data-name="Rectangle 1147" width="21.57" height="2.071" transform="translate(82.532 189.701)" fill="#fff" stroke="#000" stroke-width="0.75"/>
    <rect id="Rectangle_1148" data-name="Rectangle 1148" width="21.57" height="2.172" transform="translate(82.532 199.391)" fill="#fff" stroke="#000" stroke-width="1"/>
    <rect id="Rectangle_1149" data-name="Rectangle 1149" width="21.57" height="2.172" transform="translate(82.532 199.391)" fill="#fff" stroke="#000" stroke-width="0.75"/>
    <rect id="Rectangle_1150" data-name="Rectangle 1150" width="11.297" height="12.426" transform="translate(139.77 160.329)" fill="#fff" stroke="#000" stroke-width="1"/>
    <rect id="Rectangle_1151" data-name="Rectangle 1151" width="11.297" height="12.426" transform="translate(139.77 160.329)" fill="#fff" stroke="#000" stroke-width="0.75"/>
    <rect id="Rectangle_1152" data-name="Rectangle 1152" width="9.586" height="12.426" transform="translate(157.015 160.329)" fill="#fff" stroke="#000" stroke-width="1"/>
    <rect id="Rectangle_1153" data-name="Rectangle 1153" width="9.586" height="12.426" transform="translate(157.015 160.329)" fill="#fff" stroke="#000" stroke-width="0.75"/>
    <rect id="Rectangle_1154" data-name="Rectangle 1154" width="9.602" height="12.426" transform="translate(172.108 160.329)" fill="#fff" stroke="#000" stroke-width="1"/>
    <rect id="Rectangle_1155" data-name="Rectangle 1155" width="9.602" height="12.426" transform="translate(172.108 160.329)" fill="#fff" stroke="#000" stroke-width="0.75"/>
    <rect id="Rectangle_1156" data-name="Rectangle 1156" width="59.732" height="26.642" transform="translate(121.977 180.569)" fill="#fff" stroke="#000" stroke-width="1"/>
    <rect id="Rectangle_1157" data-name="Rectangle 1157" width="59.732" height="26.642" transform="translate(121.977 180.569)" fill="#fff" stroke="#000" stroke-width="0.75"/>
    <rect id="Rectangle_1158" data-name="Rectangle 1158" width="37.264" height="31.349" transform="translate(140.774 121.071)" fill="#fff" stroke="#000" stroke-width="1"/>
    <rect id="Rectangle_1159" data-name="Rectangle 1159" width="37.264" height="31.349" transform="translate(140.774 121.071)" fill="#fff" stroke="#000" stroke-width="0.75"/>
    <path id="Path_202829" data-name="Path 202829" d="M114.149,98.173c0,.511,37.264,31.349,37.264,31.349" transform="translate(26.625 22.899)" fill="#fff" stroke="#000" stroke-linecap="round" stroke-linejoin="round" stroke-width="0.161" stroke-dasharray="1.927 1.927"/>
    <line id="Line_222" data-name="Line 222" y1="30.932" x2="37.24" transform="translate(140.775 121.488)" fill="none" stroke="#000" stroke-linecap="round" stroke-linejoin="round" stroke-width="0.161" stroke-dasharray="1.927 1.927"/>
    <path id="Path_202830" data-name="Path 202830" d="M44.575,164.365A10.544,10.544,0,1,0,34.031,174.91a10.544,10.544,0,0,0,10.544-10.544" transform="translate(5.479 35.879)" fill="#fff" stroke="#000" stroke-width="1"/>
    <path id="Path_202831" data-name="Path 202831" d="M44.575,164.365A10.544,10.544,0,1,0,34.031,174.91,10.544,10.544,0,0,0,44.575,164.365Z" transform="translate(5.479 35.879)" fill="#fff" stroke="#000" stroke-width="0.75"/>
    <path id="Path_202832" data-name="Path 202832" d="M31.656,120.569a9.743,9.743,0,1,0-9.744,9.744,9.744,9.744,0,0,0,9.744-9.744" transform="translate(2.838 25.85)" fill="#fff" stroke="#000" stroke-width="1"/>
    <path id="Path_202833" data-name="Path 202833" d="M31.656,120.569a9.743,9.743,0,1,0-9.744,9.744A9.744,9.744,0,0,0,31.656,120.569Z" transform="translate(2.838 25.85)" fill="#fff" stroke="#ad1123" stroke-width="0.75"/>
    <path id="Path_202834" data-name="Path 202834" d="M73.525,106.695q-.773,1.5-1.411,2.888c-15.8,3.7-21.747-3.157-23.81-7.147a136.777,136.777,0,0,1,15.1-24.385c1.576-2.01,8.236-6.66,15.015-.164s5.931,12.614-4.895,28.807" transform="translate(11.267 17.39)" fill="#fff" stroke="#000" stroke-width="1"/>
    <path id="Path_202835" data-name="Path 202835" d="M73.525,106.695q-.773,1.5-1.411,2.888c-15.8,3.7-21.747-3.157-23.81-7.147a136.777,136.777,0,0,1,15.1-24.385c1.576-2.01,8.236-6.66,15.015-.164S84.351,90.5,73.525,106.695Z" transform="translate(11.267 17.39)" fill="#fff" stroke="#000" stroke-width="0.75"/>
    <path id="Path_202836" data-name="Path 202836" d="M59.218,141.054s17.151,3.405,30.613-7.046c9.707-8.229,10.638-10.12,10.638-10.12l2.166-1.27a9.5,9.5,0,0,0,3.907,1.553c2.448.424,3.436-.847,3.436-.847s-6.967-3.765-7.39-3.859-22.312,8.377-22.735,8.8S65.119,138.9,65.119,138.9Z" transform="translate(13.813 27.865)" fill="#fff" stroke="#000" stroke-width="1"/>
    <path id="Path_202837" data-name="Path 202837" d="M130.4,118.53c-2.258,2.048-11.367-2.048-11.367-2.048s2.966,10.8-.707,12.852-11.649-2.965-11.649-2.965l-2.258,1.269c-10.168,13.84-46.339,30.364-58.746,7.2-6.354-11.863-1.794-25.483,3.964-37.678,2.062,3.99,8.014,10.851,23.81,7.147-13.038,28.37,14.785,24.088,25.11,17.046,10.661-7.272,17.087-10.026,24.783-7.837,2.545.724,9.32,2.964,7.059,5.012" transform="translate(9.935 22.663)" fill="#fff" stroke="#000" stroke-width="1"/>
    <path id="Path_202838" data-name="Path 202838" d="M130.4,118.53c-2.258,2.048-11.367-2.048-11.367-2.048s2.966,10.8-.707,12.852-11.649-2.965-11.649-2.965l-2.258,1.269c-10.168,13.84-46.339,30.364-58.746,7.2-6.354-11.863-1.794-25.483,3.964-37.678,2.062,3.99,8.014,10.851,23.81,7.147-13.038,28.37,14.785,24.088,25.11,17.046,10.661-7.272,17.087-10.026,24.783-7.837C125.885,114.242,132.66,116.482,130.4,118.53Z" transform="translate(9.935 22.663)" fill="#fff" stroke="#000" stroke-width="0.75"/>
    <path id="Path_202839" data-name="Path 202839" d="M133.3,88.527s-8.4,4.943-5.3,8.049,5.954-1.577,8.426-.588-2.706,7.3-.164,8.5,11.367-1.342,13.2-1.907,5.434-5.929,2.188-13.2c-3.812-8.543-18.357-.847-18.357-.847" transform="translate(29.697 19.907)" fill="#fff" stroke="#000" stroke-width="1"/>
    <path id="Path_202840" data-name="Path 202840" d="M133.3,88.527s-8.4,4.943-5.3,8.049,5.954-1.577,8.426-.588-2.706,7.3-.164,8.5,11.367-1.342,13.2-1.907,5.434-5.929,2.188-13.2C147.848,80.831,133.3,88.527,133.3,88.527Z" transform="translate(29.697 19.907)" fill="#fff" stroke="#000" stroke-width="0.75"/>
    <rect id="Rectangle_1160" data-name="Rectangle 1160" width="21.323" height="17.792" transform="translate(0.462 150.374)" fill="#fff" stroke="#000" stroke-width="1"/>
    <rect id="Rectangle_1161" data-name="Rectangle 1161" width="21.323" height="17.792" transform="translate(0.462 150.374)" fill="#fff" stroke="#000" stroke-width="0.75"/>
    <path id="Path_202841" data-name="Path 202841" d="M157.3,114.547h1.765l2.684,7.948v61.951H157.3Z" transform="translate(36.691 26.718)" fill="#fff" stroke="#000" stroke-width="1"/>
    <path id="Path_202842" data-name="Path 202842" d="M157.3,114.547h1.765l2.684,7.948v61.951H157.3Z" transform="translate(36.691 26.718)" fill="#fff" stroke="#000" stroke-width="0.75"/>
    <path id="Path_202843" data-name="Path 202843" d="M169.785,139.508h1.3l1.973,4.511v35.169h-3.272Z" transform="translate(39.603 32.54)" fill="#fff" stroke="#000" stroke-width="1"/>
    <path id="Path_202844" data-name="Path 202844" d="M169.785,139.508h1.3l1.973,4.511v35.169h-3.272Z" transform="translate(39.603 32.54)" fill="#fff" stroke="#000" stroke-width="0.75"/>
    <path id="Path_202845" data-name="Path 202845" d="M182.5,143.859h1.3l1.973,3.9v30.412H182.5Z" transform="translate(42.567 33.555)" fill="#fff" stroke="#000" stroke-width="1"/>
    <path id="Path_202846" data-name="Path 202846" d="M182.5,143.859h1.3l1.973,3.9v30.412H182.5Z" transform="translate(42.567 33.555)" fill="#fff" stroke="#000" stroke-width="0.75"/>
    <line id="Line_223" data-name="Line 223" x2="11.297" y2="12.426" transform="translate(139.77 160.328)" fill="none" stroke="#000" stroke-linecap="round" stroke-linejoin="round" stroke-width="0.161" stroke-dasharray="1.927 1.927"/>
    <line id="Line_224" data-name="Line 224" x1="11.297" y2="12.426" transform="translate(139.771 160.328)" fill="none" stroke="#000" stroke-linecap="round" stroke-linejoin="round" stroke-width="0.161" stroke-dasharray="1.927 1.927"/>
    <line id="Line_225" data-name="Line 225" x1="9.586" y2="12.426" transform="translate(157.015 160.328)" fill="none" stroke="#000" stroke-linecap="round" stroke-linejoin="round" stroke-width="0.161" stroke-dasharray="1.927 1.927"/>
    <line id="Line_226" data-name="Line 226" x2="9.586" y2="12.426" transform="translate(157.015 160.328)" fill="none" stroke="#000" stroke-linecap="round" stroke-linejoin="round" stroke-width="0.161" stroke-dasharray="1.927 1.927"/>
    <line id="Line_227" data-name="Line 227" x1="9.586" y2="12.426" transform="translate(172.116 160.328)" fill="none" stroke="#000" stroke-linecap="round" stroke-linejoin="round" stroke-width="0.161" stroke-dasharray="1.927 1.927"/>
    <line id="Line_228" data-name="Line 228" x2="9.586" y2="12.426" transform="translate(172.116 160.328)" fill="none" stroke="#000" stroke-linecap="round" stroke-linejoin="round" stroke-width="0.161" stroke-dasharray="1.927 1.927"/>
    <path id="Path_202847" data-name="Path 202847" d="M98.908,146.417,128,173.059V146.417l-29.09,26.642" transform="translate(23.07 34.152)" fill="#fff" stroke="#000" stroke-linecap="round" stroke-linejoin="round" stroke-width="0.161" stroke-dasharray="1.927 1.927"/>
    <line id="Line_229" data-name="Line 229" x1="30.643" y2="26.642" transform="translate(151.068 180.569)" fill="none" stroke="#000" stroke-linecap="round" stroke-linejoin="round" stroke-width="0.161" stroke-dasharray="1.927 1.927"/>
    <line id="Line_230" data-name="Line 230" x1="30.643" y1="26.642" transform="translate(151.068 180.569)" fill="none" stroke="#000" stroke-linecap="round" stroke-linejoin="round" stroke-width="0.161" stroke-dasharray="1.927 1.927"/>
    <path id="Path_202848" data-name="Path 202848" d="M82.46,58.288s5.685,1.264,7.557.329L89.84,56.87a18.893,18.893,0,0,1-7.38,1.418" transform="translate(19.234 13.265)" fill="#fff" stroke="#000" stroke-width="1"/>
    <path id="Path_202849" data-name="Path 202849" d="M82.46,58.288s5.685,1.264,7.557.329L89.84,56.87A18.893,18.893,0,0,1,82.46,58.288Z" transform="translate(19.234 13.265)" fill="#fff" stroke="#000" stroke-linecap="round" stroke-linejoin="round" stroke-width="0.792"/>
    <path id="Path_202850" data-name="Path 202850" d="M100.682,93.1l14.609-1.433.265,1.433Z" transform="translate(23.484 21.381)" fill="#fff" stroke="#000" stroke-width="1"/>
    <path id="Path_202851" data-name="Path 202851" d="M100.682,93.1l14.609-1.433.265,1.433Z" transform="translate(23.484 21.381)" fill="#fff" stroke="#000" stroke-width="0.75"/>
    <path id="Path_202852" data-name="Path 202852" d="M90.033,78.4c3.353,5.614,3.592,10.362,3.248,10.591" transform="translate(21 18.286)" fill="#fff" stroke="#000" stroke-width="1"/>
    <path id="Path_202853" data-name="Path 202853" d="M90.033,78.4c3.353,5.614,3.592,10.362,3.248,10.591" transform="translate(21 18.286)" fill="#fff" stroke="#000" stroke-width="0.75"/>
    <path id="Path_202854" data-name="Path 202854" d="M200.741,81.471A12.944,12.944,0,1,0,187.8,94.414a12.943,12.943,0,0,0,12.943-12.943" transform="translate(40.785 15.984)" fill="#fff" stroke="#000" stroke-width="1"/>
    <path id="Path_202857" data-name="Path 202857" d="M27.665,79.6a12.791,12.791,0,0,1-7.518-.645,25.307,25.307,0,0,0-12.674-.215,17.056,17.056,0,0,0-4.538,1.733v7.234H38.767V76.181c-1.91.085-3.821.215-5.732.411-2.147.215-3.652,2.362-5.37,3.007" transform="translate(0.685 17.769)" fill="#fff" stroke="#000" stroke-width="1"/>
    <path id="Path_202858" data-name="Path 202858" d="M27.665,79.6a12.791,12.791,0,0,1-7.518-.645,25.307,25.307,0,0,0-12.674-.215,17.056,17.056,0,0,0-4.538,1.733v7.234H38.767V76.181c-1.91.085-3.821.215-5.732.411C30.888,76.806,29.383,78.953,27.665,79.6Z" transform="translate(0.685 17.769)" fill="#fff" stroke="#000" stroke-width="0.75"/>
    <path id="Path_202859" data-name="Path 202859" d="M2.936,66.281v16.5a17.041,17.041,0,0,1,4.538-1.733,25.293,25.293,0,0,1,12.674.215,12.8,12.8,0,0,0,7.518.645c1.718-.645,3.221-2.793,5.37-3.008,1.91-.195,3.821-.324,5.732-.409V66.281Z" transform="translate(0.685 15.46)" fill="#fff" stroke="#000" stroke-width="1"/>
    <path id="Path_202860" data-name="Path 202860" d="M2.936,66.281v16.5a17.041,17.041,0,0,1,4.538-1.733,25.293,25.293,0,0,1,12.674.215,12.8,12.8,0,0,0,7.518.645c1.718-.645,3.221-2.793,5.37-3.008,1.91-.195,3.821-.324,5.732-.409V66.281Z" transform="translate(0.685 15.46)" fill="#fff" stroke="#000" stroke-width="0.75"/>
    <path id="Path_202861" data-name="Path 202861" d="M18.087,73.236a3.292,3.292,0,1,0-3.293,3.293,3.293,3.293,0,0,0,3.293-3.293" transform="translate(2.683 16.314)" fill="#fff" stroke="#000" stroke-width="1"/>
    <path id="Path_202862" data-name="Path 202862" d="M18.087,73.236a3.292,3.292,0,1,0-3.293,3.293A3.293,3.293,0,0,0,18.087,73.236Z" transform="translate(2.683 16.314)" fill="#fff" stroke="#000" stroke-width="0.75"/>
    <rect id="Rectangle_1162" data-name="Rectangle 1162" width="31.818" height="22.89" transform="translate(183.637 40.49)" fill="#fff" stroke="#000" stroke-width="1"/>
    <path id="Path_204084" data-name="Path 204084" d="M0,0H31.818V22.89H0Z" transform="translate(183.637 40.49)" fill="#ad1123" stroke="#000" stroke-width="0.75"/>
    <path id="Path_202863" data-name="Path 202863" d="M166.22,41.084l-4.769-2.754a2.291,2.291,0,0,0-3.437,1.984v5.508a2.291,2.291,0,0,0,3.437,1.984l4.769-2.754a2.291,2.291,0,0,0,0-3.969" transform="translate(36.857 8.868)" fill="#fff" stroke="#000" stroke-width="1"/>
    <path id="Path_202864" data-name="Path 202864" d="M166.22,41.084l-4.769-2.754a2.291,2.291,0,0,0-3.437,1.984v5.508a2.291,2.291,0,0,0,3.437,1.984l4.769-2.754A2.291,2.291,0,0,0,166.22,41.084Z" transform="translate(36.857 8.868)" fill="#fff" stroke="#000" stroke-width="0.75"/>
    <path id="Path_202865" data-name="Path 202865" d="M152.652,25.116H123.4a5.338,5.338,0,0,1-5.339-5.339V8.2A5.338,5.338,0,0,1,123.4,2.862h29.248A5.338,5.338,0,0,1,157.991,8.2V19.777a5.338,5.338,0,0,1-5.339,5.339" transform="translate(27.539 0.668)" fill="#fff" stroke="#000" stroke-width="1"/>
    <rect id="Rectangle_1164" data-name="Rectangle 1164" width="39.925" height="22.254" rx="4.329" transform="translate(145.605 3.53)" fill="#fff" stroke="#000" stroke-width="0.75"/>
    <path id="Path_202866" data-name="Path 202866" d="M135.8,21.116h-5.675a7.065,7.065,0,0,1,0-14.129H135.8a7.065,7.065,0,0,1,0,14.129" transform="translate(28.704 1.63)" fill="#fff" stroke="#000" stroke-width="1"/>
    <path id="Path_202867" data-name="Path 202867" d="M135.8,21.116h-5.675a7.065,7.065,0,0,1,0-14.129H135.8a7.065,7.065,0,0,1,0,14.129Z" transform="translate(28.704 1.63)" fill="#fff" stroke="#000" stroke-width="0.75"/>
    <path id="Path_202868" data-name="Path 202868" d="M144.032,7.513h-3.657a.914.914,0,0,1-.914-.914V5.645a.914.914,0,0,1,.914-.914h3.657a.914.914,0,0,1,.914.914V6.6a.914.914,0,0,1-.914.914" transform="translate(32.53 1.104)" fill="#fff" stroke="#000" stroke-width="1"/>
    <rect id="Rectangle_1165" data-name="Rectangle 1165" width="5.484" height="2.782" rx="0.741" transform="translate(171.992 5.834)" fill="#fff" stroke="#000" stroke-width="0.75"/>
    <path id="Path_202869" data-name="Path 202869" d="M147.3,7.513h-1.566a.664.664,0,0,1-.664-.663V5.4a.664.664,0,0,1,.664-.665H147.3a.664.664,0,0,1,.663.665V6.85a.664.664,0,0,1-.663.663" transform="translate(33.837 1.104)" fill="#fff" stroke="#000" stroke-width="1"/>
    <path id="Rectangle_1166" data-name="Rectangle 1166" d="M.538,0H2.355a.538.538,0,0,1,.538.538V2.243a.539.539,0,0,1-.539.539H.538A.538.538,0,0,1,0,2.244V.538A.538.538,0,0,1,.538,0Z" transform="translate(178.903 5.834)" fill="#fff" stroke="#000" stroke-width="0.75"/>
    <path id="Path_202870" data-name="Path 202870" d="M139.289,14.2a6.823,6.823,0,1,0-6.822,6.822,6.823,6.823,0,0,0,6.822-6.822" transform="translate(29.306 1.721)" fill="#fff" stroke="#000" stroke-width="1"/>
    <path id="Path_202871" data-name="Path 202871" d="M139.289,14.2a6.823,6.823,0,1,0-6.822,6.822A6.823,6.823,0,0,0,139.289,14.2Z" transform="translate(29.306 1.721)" fill="#fff" stroke="#000" stroke-width="0.75"/>
    <rect id="Rectangle_1167" data-name="Rectangle 1167" width="7.117" height="3.067" transform="translate(153.865 0.462)" fill="#fff" stroke="#000" stroke-width="1"/>
    <rect id="Rectangle_1168" data-name="Rectangle 1168" width="7.117" height="3.067" transform="translate(153.865 0.462)" fill="#fff" stroke="#000" stroke-width="0.75"/>
  </g>
  <g id="Ellipse_171" data-name="Ellipse 171" transform="translate(94.493 56.01)" fill="none" stroke="#000" stroke-width="0.8">
    <ellipse cx="2" cy="1.5" rx="2" ry="1.5" stroke="none"/>
    <ellipse cx="2" cy="1.5" rx="1.6" ry="1.1" fill="none"/>
  </g>
  <g id="Ellipse_172" data-name="Ellipse 172" transform="translate(104.493 54.01)" fill="none" stroke="#000" stroke-width="0.8">
    <circle cx="2" cy="2" r="2" stroke="none"/>
    <circle cx="2" cy="2" r="1.6" fill="none"/>
  </g>
  <g id="Group_5781" data-name="Group 5781" transform="translate(100.795 62.422)">
    <path id="Path_202421" data-name="Path 202421" d="M170.339,76.6a2.5,2.5,0,0,0,2.71,2.161.839.839,0,0,0,.092-.008,2.491,2.491,0,0,0,2.034-1.651,2.424,2.424,0,0,0,.124-1.151Z" transform="translate(-170.339 -75.947)" fill="#fff" stroke="#000" stroke-width="0.75"/>
    <path id="Path_202422" data-name="Path 202422" d="M170.339,76.6a2.5,2.5,0,0,0,2.71,2.161.839.839,0,0,0,.092-.008,2.491,2.491,0,0,0,2.034-1.651,2.424,2.424,0,0,0,.124-1.151Z" transform="translate(-170.339 -75.947)" fill="#fff" stroke="#000" stroke-linecap="round" stroke-linejoin="round" stroke-width="0.75"/>
  </g>
</svg>
