<svg xmlns="http://www.w3.org/2000/svg" width="120" height="118.984" viewBox="0 0 120 118.984">
  <g id="Logo" transform="translate(-6.723 -9.529)">
    <path id="Path_447" data-name="Path 447" d="M104.357,77.331c-.9,2.674-1.769,5.24-2.66,7.873.81.284,1.58.554,2.363.81,1.661.567,3.336,1.094,4.983,1.688a6.256,6.256,0,0,1,3.916,8.116c-1.648,4.916-3.322,9.831-4.983,14.747-.54,1.621-1.094,3.228-1.648,4.848a6.278,6.278,0,0,1-8.062,4.038c-2.242-.729-4.47-1.5-6.712-2.255-.162-.054-.338-.108-.594-.176-.122.3-.23.581-.324.864-.7,2.066-1.377,4.132-2.08,6.2a6.289,6.289,0,0,1-8.157,4.065q-10.169-3.423-20.351-6.887A6.262,6.262,0,0,1,56,113c.783-2.323,1.553-4.632,2.363-7.036-2.471-.837-4.9-1.661-7.387-2.5-.513,1.513-1.013,2.971-1.512,4.429-.324.932-.621,1.877-.945,2.809a6.224,6.224,0,0,1-7.86,3.984Q30.2,111.22,19.779,107.635a6.21,6.21,0,0,1-3.876-7.86c.689-2.161,1.445-4.294,2.174-6.442.095-.27.176-.554.284-.878-1.067-.365-2.08-.7-3.093-1.053-1.377-.473-2.768-.918-4.159-1.4a6.285,6.285,0,0,1-4.024-8.13Q10.407,72,13.756,62.152a6.245,6.245,0,0,1,7.995-3.943c2.309.756,4.605,1.54,6.9,2.323.122.041.243.081.446.135.446-1.323.891-2.62,1.323-3.9s.878-2.593,1.337-3.943c-.527-.189-1.026-.378-1.526-.54C28.314,51.632,26.4,51,24.478,50.349a6.251,6.251,0,0,1-4.051-7.941q3.322-10.047,6.766-20.041a6.233,6.233,0,0,1,7.846-3.822c2.242.743,4.47,1.512,6.712,2.255.23.081.473.135.743.2.8-2.336,1.58-4.632,2.35-6.928A6.27,6.27,0,0,1,53.162,9.93l20.3,6.847A6.288,6.288,0,0,1,77.5,24.893c-.783,2.363-1.594,4.713-2.417,7.157,2.471.837,4.9,1.661,7.4,2.5.608-1.783,1.2-3.525,1.783-5.267.23-.662.446-1.323.675-1.985a6.219,6.219,0,0,1,7.86-3.984q10.452,3.464,20.878,7.049a6.185,6.185,0,0,1,3.862,7.914c-.689,2.12-1.418,4.213-2.134,6.32-.095.3-.189.594-.3.945,1.053.365,2.08.7,3.093,1.053,1.323.446,2.633.891,3.957,1.337a6.288,6.288,0,0,1,4.173,8.319q-3.3,9.8-6.631,19.6a6.222,6.222,0,0,1-7.86,3.97c-2.2-.7-4.389-1.472-6.577-2.215C104.979,77.533,104.695,77.439,104.357,77.331Zm20.068-25.24c-4.47-1.513-8.886-3-13.329-4.51,1.5-4.443,2.971-8.8,4.456-13.221-9.062-3.052-18.042-6.091-27.1-9.156-1.5,4.429-2.971,8.8-4.47,13.221L71.1,34.076c1.5-4.443,2.971-8.8,4.456-13.221L48.449,11.7c-1.5,4.429-2.971,8.8-4.47,13.221-4.483-1.512-8.872-3-13.329-4.5-2.971,8.791-5.915,17.5-8.872,26.266,4.47,1.513,8.886,3.011,13.329,4.51-1.526,4.5-3.012,8.913-4.524,13.383-4.47-1.513-8.886-3-13.329-4.5L8.381,86.338l13.329,4.51c-1.5,4.443-2.971,8.8-4.456,13.221,9.061,3.066,18.055,6.1,27.1,9.156,1.5-4.429,2.984-8.8,4.47-13.221,4.321,1.458,8.575,2.89,12.883,4.348-1.5,4.429-2.971,8.8-4.456,13.221,9.048,3.052,18.042,6.091,27.1,9.156,1.5-4.416,2.971-8.778,4.47-13.207l13.329,4.5c2.971-8.8,5.915-17.529,8.872-26.266-4.483-1.513-8.872-3-13.329-4.51,1.526-4.51,3.025-8.94,4.524-13.383,4.5,1.512,8.9,3,13.329,4.5C118.523,69.566,121.467,60.855,124.425,52.091Z" transform="translate(0 0)"/>
    <path id="Path_448" data-name="Path 448" d="M135.044,65.905c-2.957,8.764-5.9,17.488-8.872,26.266-4.443-1.5-8.832-2.984-13.329-4.5-1.5,4.443-3,8.872-4.524,13.383,4.456,1.513,8.845,3,13.329,4.51-2.957,8.737-5.888,17.461-8.872,26.266l-13.329-4.5c-1.5,4.429-2.971,8.8-4.47,13.207-9.061-3.066-18.055-6.1-27.1-9.156,1.485-4.416,2.957-8.791,4.456-13.221-4.308-1.458-8.562-2.89-12.883-4.348-1.5,4.416-2.971,8.778-4.47,13.221-9.048-3.052-18.042-6.09-27.1-9.156,1.485-4.416,2.957-8.778,4.456-13.221L19,100.153c2.957-8.751,5.9-17.461,8.872-26.266,4.443,1.5,8.859,2.984,13.329,4.5,1.513-4.456,3-8.872,4.524-13.383-4.443-1.5-8.859-3-13.329-4.51,2.957-8.764,5.9-17.475,8.872-26.266,4.456,1.5,8.845,2.984,13.329,4.5,1.485-4.416,2.971-8.778,4.47-13.221,9.048,3.052,18.042,6.091,27.1,9.156-1.485,4.416-2.957,8.778-4.456,13.221L94.6,52.225c1.5-4.416,2.971-8.791,4.47-13.221,9.062,3.066,18.055,6.091,27.1,9.156-1.485,4.416-2.957,8.764-4.456,13.221C126.158,62.894,130.574,64.393,135.044,65.905ZM53.126,123.164c1.5-4.416,2.971-8.791,4.47-13.221,6.455,2.188,12.856,4.335,19.3,6.523-1.5,4.443-2.971,8.818-4.456,13.221,6.941,2.35,13.8,4.659,20.7,6.982,1.513-4.47,2.984-8.832,4.47-13.221,4.5,1.513,8.9,3,13.329,4.5,2.242-6.658,4.47-13.234,6.7-19.865-4.5-1.526-8.886-3.011-13.329-4.51,2.242-6.631,4.456-13.194,6.685-19.784,4.456,1.513,8.859,2.984,13.329,4.5,2.242-6.644,4.47-13.221,6.712-19.852-4.5-1.526-8.9-3.012-13.329-4.511,1.5-4.456,2.971-8.818,4.456-13.221-6.914-2.336-13.775-4.646-20.7-7-1.5,4.443-2.984,8.8-4.47,13.221-6.469-2.188-12.87-4.348-19.3-6.523,1.5-4.456,2.971-8.818,4.456-13.221-6.941-2.35-13.788-4.659-20.7-7-1.5,4.429-2.971,8.8-4.47,13.221l-13.329-4.5c-2.228,6.671-4.456,13.261-6.685,19.879,4.483,1.513,8.886,3,13.329,4.51-2.242,6.631-4.456,13.194-6.685,19.784-4.5-1.512-8.886-3-13.329-4.5-2.242,6.658-4.47,13.248-6.7,19.865,4.47,1.513,8.872,3,13.329,4.51-1.5,4.443-2.971,8.8-4.456,13.221C39.365,118.505,46.211,120.828,53.126,123.164Z" transform="translate(-10.619 -13.814)" fill="#fff"/>
    <path id="Path_449" data-name="Path 449" d="M82.275,153.351c-6.914-2.336-13.761-4.646-20.7-6.982,1.485-4.416,2.957-8.778,4.456-13.221-4.456-1.512-8.859-3-13.329-4.51,2.228-6.617,4.456-13.207,6.7-19.865,4.443,1.5,8.832,2.984,13.329,4.5,2.228-6.59,4.443-13.153,6.685-19.784-4.443-1.5-8.845-3-13.329-4.511,2.228-6.617,4.456-13.194,6.7-19.852,4.443,1.5,8.859,2.984,13.329,4.5,1.5-4.416,2.971-8.791,4.47-13.221,6.914,2.336,13.761,4.646,20.7,7-1.486,4.4-2.957,8.764-4.456,13.221,6.428,2.174,12.829,4.335,19.3,6.523,1.486-4.416,2.971-8.778,4.47-13.221,6.928,2.336,13.788,4.659,20.7,7-1.485,4.4-2.957,8.764-4.456,13.221,4.429,1.5,8.832,2.984,13.329,4.51-2.242,6.631-4.456,13.221-6.712,19.852-4.47-1.512-8.872-3-13.329-4.5-2.228,6.59-4.443,13.167-6.685,19.784,4.443,1.5,8.832,2.984,13.329,4.51-2.228,6.617-4.456,13.207-6.7,19.865-4.429-1.5-8.832-2.984-13.329-4.5-1.486,4.375-2.957,8.751-4.47,13.221-6.887-2.323-13.748-4.646-20.7-6.982,1.485-4.4,2.957-8.778,4.456-13.221-6.442-2.174-12.829-4.335-19.3-6.523C85.259,144.546,83.774,148.922,82.275,153.351Zm17.866-52.883c-2.242,6.644-4.456,13.207-6.685,19.8,6.482,2.188,12.87,4.348,19.3,6.509,2.242-6.644,4.456-13.207,6.685-19.8C112.97,104.8,106.6,102.655,100.141,100.468Z" transform="translate(-39.768 -44.001)"/>
    <path id="Path_450" data-name="Path 450" d="M361.185,357.1c6.455,2.174,12.829,4.335,19.3,6.509-2.228,6.59-4.443,13.153-6.685,19.8-6.428-2.161-12.816-4.321-19.3-6.509C356.728,370.307,358.943,363.744,361.185,357.1Zm1.837,3.876c-1.513,4.5-3.012,8.913-4.524,13.383,4.308,1.458,8.575,2.9,12.883,4.348,1.512-4.483,3.011-8.913,4.524-13.383C371.6,363.866,367.356,362.434,363.021,360.976Z" transform="translate(-300.812 -300.634)" fill="#fff"/>
    <path id="Path_451" data-name="Path 451" d="M388.624,385.8c4.321,1.458,8.575,2.89,12.883,4.348-1.513,4.47-3.012,8.9-4.524,13.383-4.308-1.458-8.575-2.89-12.883-4.348C385.626,394.713,387.112,390.3,388.624,385.8Zm9.548,5.969c-2.5-.837-4.916-1.661-7.4-2.5l-2.66,7.9c2.5.837,4.916,1.661,7.4,2.5C396.389,397.022,397.267,394.443,398.172,391.769Z" transform="translate(-326.414 -325.458)"/>
    <path id="Path_452" data-name="Path 452" d="M423.774,414c-.9,2.674-1.783,5.253-2.674,7.9-2.485-.837-4.9-1.648-7.4-2.5.891-2.647,1.769-5.24,2.66-7.9C418.859,412.337,421.276,413.161,423.774,414Z" transform="translate(-352.017 -347.687)" fill="#fff"/>
  </g>
</svg>
