<svg xmlns="http://www.w3.org/2000/svg" width="132.66" height="145" viewBox="0 0 132.66 145">
  <g id="meradesh-logo" transform="translate(-1937 -6535)">
    <g id="M-01" transform="translate(1936.2 6549.895)">
      <path id="Path_444" data-name="Path 444" d="M18.566,125.62l-1.431-.633a1.069,1.069,0,0,1-.636-.95V1.8a1.04,1.04,0,0,1,1.749-.792l1.431,1.267A1.207,1.207,0,0,1,20,3.065V124.512A.986.986,0,0,1,18.566,125.62Z" transform="translate(8.94 4.387)"/>
      <path id="Path_445" data-name="Path 445" d="M.8,63.643V62.213A1.08,1.08,0,0,1,1.9,61.1H132.361a1.08,1.08,0,0,1,1.1,1.113v1.431a1.08,1.08,0,0,1-1.1,1.113H1.9A1.08,1.08,0,0,1,.8,63.643Z" transform="translate(0 39.603)"/>
    </g>
    <text id="M" transform="translate(1971 6639)" font-size="96" font-family="SegoeUI-Bold, Segoe UI" font-weight="700"><tspan x="0" y="0">M</tspan></text>
  </g>
</svg>
