<svg xmlns="http://www.w3.org/2000/svg" width="74.744" height="63.271" viewBox="0 0 74.744 63.271"><defs><style>.a,.d{fill:#ad1123;}.b{fill:none;stroke:#dbdae1;stroke-linecap:round;stroke-miterlimit:10;stroke-width:4px;}.c{fill:#323d50;stroke:#323d50;}.d{stroke:#ad1123;}</style></defs><g transform="translate(-0.794 -0.999)"><circle class="a" cx="5.481" cy="5.481" r="5.481" transform="translate(43.975 11.019)"/><line class="b" x1="8.133" transform="translate(2.794 6.764)"/><line class="b" y1="7.824" x2="0.031" transform="translate(6.86 3.006)"/><line class="b" x1="8.133" transform="translate(65.405 47.163)"/><line class="b" y1="7.824" x2="0.031" transform="translate(69.472 43.406)"/><path class="c" d="M51.537,19.394a12.308,12.308,0,0,0-4.266.755A6.189,6.189,0,0,0,41.217,15.3h-.009a13.935,13.935,0,0,0-27.856.512,13.643,13.643,0,0,0,.105,1.691A13.265,13.265,0,0,0,12.32,43.58V47.62L5.4,54.483a1.016,1.016,0,0,0-.3.723V59.3H7.16V55.63l6.922-6.863a1.016,1.016,0,0,0,.3-.723V43.9c.342.027.683.052,1.032.052h3.1v5.716l-4.858,4.816a1.016,1.016,0,0,0-.3.723V59.3h2.064V55.63l4.858-4.816a1.016,1.016,0,0,0,.3-.723V43.951h5.16v7.762l-2.794,2.77a1.016,1.016,0,0,0-.3.723V59.3H24.7V55.63L27.5,52.86a1.016,1.016,0,0,0,.3-.723V43.951h4.128V59.3h2.064V43.951h4.128v8.186a1.016,1.016,0,0,0,.3.723l2.794,2.77V59.3h2.064V55.206a1.016,1.016,0,0,0-.3-.723l-2.794-2.77V43.951h5.16V50.09a1.016,1.016,0,0,0,.3.723l4.858,4.816V59.3H52.57V55.206a1.016,1.016,0,0,0-.3-.723l-4.858-4.816V43.951h4.128v4.093a1.016,1.016,0,0,0,.3.723l6.922,6.863V59.3h2.064V55.206a1.016,1.016,0,0,0-.3-.723L53.6,47.62V43.766a12.264,12.264,0,0,0-2.064-24.372Zm0,22.51H15.416a11.245,11.245,0,0,1-.7-22.474,1.032,1.032,0,0,0,.755-.4,1.017,1.017,0,0,0,.192-.829,11.858,11.858,0,1,1,23.491-2.39c0,.115-.008.228-.017.341l-.014.233a1.016,1.016,0,0,0,.362.828,1.038,1.038,0,0,0,.881.222,4.131,4.131,0,0,1,4.976,3.986c0,.031-.019.16-.021.19a1.019,1.019,0,0,0,.471.913,1.041,1.041,0,0,0,1.033.05A10.255,10.255,0,1,1,51.537,41.9Z" transform="translate(0 0)"/><path class="d" d="M29.788,7.564A9.821,9.821,0,0,0,26.5,7V9.321a7.5,7.5,0,0,1,2.513.43Z" transform="translate(0.629 0.802)"/><path class="d" d="M24.575,7.486A9.887,9.887,0,0,0,18,16.785h2.321A7.562,7.562,0,0,1,25.35,9.673Z" transform="translate(0.27 0.88)"/><rect class="c" width="2.987" height="2.24" transform="translate(57.777 61.53)"/><rect class="c" width="2.24" height="2.24" transform="translate(50.286 61.53)"/><rect class="c" width="2.24" height="2.24" transform="translate(41.025 61.53)"/><rect class="c" width="2.24" height="2.24" transform="translate(4.748 61.53)"/><rect class="c" width="2.24" height="2.24" transform="translate(13.245 61.53)"/><rect class="c" width="2.24" height="2.24" transform="translate(22.505 61.53)"/><rect class="c" width="2.24" height="2.24" transform="translate(31.765 61.53)"/></g></svg>