<svg xmlns="http://www.w3.org/2000/svg" width="299.637" height="219.452" viewBox="0 0 299.637 219.452">
  <g id="_3.coding" data-name="3.coding" transform="translate(0.5 0.5)">
    <g id="mac" transform="translate(53.297 0)">
      <g id="Group_5638" data-name="Group 5638" transform="translate(0 0)">
        <rect id="Rectangle_886" data-name="Rectangle 886" width="208.742" height="151.193" rx="9.447" transform="translate(9.649)" fill="#fff" stroke="#000" stroke-width="1"/>
        <path id="Path_202526" data-name="Path 202526" d="M107.371,50.566h74.2a4.2,4.2,0,0,0,4.2-4.2h0a4.2,4.2,0,0,0-4.2-4.2h-74.2a4.2,4.2,0,0,0-4.2,4.2h0A4.2,4.2,0,0,0,107.371,50.566Z" transform="translate(-73.054 -7.169)" fill="#ad1123" stroke="#000" stroke-width="1"/>
        <path id="Path_202527" data-name="Path 202527" d="M107.371,38.757H212.016a4.2,4.2,0,0,0,4.2-4.2h0a4.2,4.2,0,0,0-4.2-4.2H107.371a4.2,4.2,0,0,0-4.2,4.2h0A4.2,4.2,0,0,0,107.371,38.757Z" transform="translate(-73.054 -12.859)" fill="#ad1123" stroke="#000" stroke-width="1"/>
        <path id="Path_202528" data-name="Path 202528" d="M107.371,62.375h48.647a4.2,4.2,0,0,0,4.2-4.2h0a4.2,4.2,0,0,0-4.2-4.2H107.371a4.2,4.2,0,0,0-4.2,4.2h0A4.2,4.2,0,0,0,107.371,62.375Z" transform="translate(-73.054 -1.478)" fill="#ad1123" stroke="#000" stroke-width="1"/>
        <rect id="Rectangle_887" data-name="Rectangle 887" width="64.287" height="9.756" rx="3.292" transform="translate(137.194 133.694)" fill="#fff" stroke="#000" stroke-width="1"/>
        <rect id="Rectangle_888" data-name="Rectangle 888" width="64.287" height="9.756" rx="3.292" transform="translate(114.445 160.293)" fill="#fff" stroke="#000" stroke-width="1"/>
        <rect id="Rectangle_889" data-name="Rectangle 889" width="64.287" height="9.756" rx="3.292" transform="translate(154.694 180.592)" fill="#fff" stroke="#000" stroke-width="1"/>
        <g id="Group_5639" data-name="Group 5639" transform="translate(131.244 31.149)">
          <rect id="Rectangle_890" data-name="Rectangle 890" width="114.095" height="88.896" rx="9.447" fill="#fff" stroke="#000" stroke-width="1"/>
          <path id="Path_202529" data-name="Path 202529" d="M204.658,48.78h0a5.6,5.6,0,0,1,5.6,5.6h0a5.6,5.6,0,0,1-5.6,5.6h0a5.6,5.6,0,0,1-5.6-5.6h0A5.6,5.6,0,0,1,204.658,48.78Z" transform="translate(-181.21 -35.13)" fill="#fff" stroke="#000" stroke-width="1"/>
          <path id="Path_202530" data-name="Path 202530" d="M219.774,48.78h0a5.6,5.6,0,0,1,5.6,5.6h0a5.6,5.6,0,0,1-5.6,5.6h0a5.6,5.6,0,0,1-5.6-5.6h0A5.6,5.6,0,0,1,219.774,48.78Z" transform="translate(-173.925 -35.13)" fill="#fff" stroke="#000" stroke-width="1"/>
          <path id="Path_202531" data-name="Path 202531" d="M234.889,48.78h0a5.6,5.6,0,0,1,5.6,5.6h0a5.6,5.6,0,0,1-5.6,5.6h0a5.6,5.6,0,0,1-5.6-5.6h0A5.6,5.6,0,0,1,234.889,48.78Z" transform="translate(-166.642 -35.13)" fill="#fff" stroke="#000" stroke-width="1"/>
          <path id="Path_202532" data-name="Path 202532" d="M250,48.78h0a5.6,5.6,0,0,1,5.6,5.6h0a5.6,5.6,0,0,1-5.6,5.6h0a5.6,5.6,0,0,1-5.6-5.6h0A5.6,5.6,0,0,1,250,48.78Z" transform="translate(-159.359 -35.13)" fill="#fff" stroke="#000" stroke-width="1"/>
          <path id="Path_202533" data-name="Path 202533" d="M204.658,64.84h0a5.6,5.6,0,0,1,5.6,5.6h0a5.6,5.6,0,0,1-5.6,5.6h0a5.6,5.6,0,0,1-5.6-5.6h0A5.6,5.6,0,0,1,204.658,64.84Z" transform="translate(-181.21 -27.393)" fill="#fff" stroke="#000" stroke-width="1"/>
          <path id="Path_202534" data-name="Path 202534" d="M219.774,64.84h0a5.6,5.6,0,0,1,5.6,5.6h0a5.6,5.6,0,0,1-5.6,5.6h0a5.6,5.6,0,0,1-5.6-5.6h0A5.6,5.6,0,0,1,219.774,64.84Z" transform="translate(-173.925 -27.393)" fill="#fff" stroke="#000" stroke-width="1"/>
          <path id="Path_202535" data-name="Path 202535" d="M234.889,64.84h0a5.6,5.6,0,0,1,5.6,5.6h0a5.6,5.6,0,0,1-5.6,5.6h0a5.6,5.6,0,0,1-5.6-5.6h0A5.6,5.6,0,0,1,234.889,64.84Z" transform="translate(-166.642 -27.393)" fill="#fff" stroke="#000" stroke-width="1"/>
          <path id="Path_202536" data-name="Path 202536" d="M250,64.84h0a5.6,5.6,0,0,1,5.6,5.6h0a5.6,5.6,0,0,1-5.6,5.6h0a5.6,5.6,0,0,1-5.6-5.6h0A5.6,5.6,0,0,1,250,64.84Z" transform="translate(-159.359 -27.393)" fill="#fff" stroke="#000" stroke-width="1"/>
          <path id="Path_202537" data-name="Path 202537" d="M204.658,80.9h0a5.6,5.6,0,0,1,5.6,5.6h0a5.6,5.6,0,0,1-5.6,5.6h0a5.6,5.6,0,0,1-5.6-5.6h0A5.6,5.6,0,0,1,204.658,80.9Z" transform="translate(-181.21 -19.653)" fill="#fff" stroke="#000" stroke-width="1"/>
          <path id="Path_202538" data-name="Path 202538" d="M219.774,80.9h0a5.6,5.6,0,0,1,5.6,5.6h0a5.6,5.6,0,0,1-5.6,5.6h0a5.6,5.6,0,0,1-5.6-5.6h0A5.6,5.6,0,0,1,219.774,80.9Z" transform="translate(-173.925 -19.653)" fill="#fff" stroke="#000" stroke-width="1"/>
          <path id="Path_202539" data-name="Path 202539" d="M234.889,80.9h0a5.6,5.6,0,0,1,5.6,5.6h0a5.6,5.6,0,0,1-5.6,5.6h0a5.6,5.6,0,0,1-5.6-5.6h0A5.6,5.6,0,0,1,234.889,80.9Z" transform="translate(-166.642 -19.653)" fill="#fff" stroke="#000" stroke-width="1"/>
          <path id="Path_202540" data-name="Path 202540" d="M250,80.9h0a5.6,5.6,0,0,1,5.6,5.6h0a5.6,5.6,0,0,1-5.6,5.6h0a5.6,5.6,0,0,1-5.6-5.6h0A5.6,5.6,0,0,1,250,80.9Z" transform="translate(-159.359 -19.653)" fill="#ad1123" stroke="#000" stroke-width="1"/>
        </g>
        <path id="Path_202541" data-name="Path 202541" d="M99.218,137.835h1.765a.771.771,0,0,0,.771-.769V135.3a.772.772,0,0,0-.771-.771H99.218a.773.773,0,0,0-.771.771v1.765A.769.769,0,0,0,99.218,137.835Z" transform="translate(-98.447 37.339)" fill="#fff" stroke="#000" stroke-width="1"/>
        <path id="Path_202542" data-name="Path 202542" d="M103.347,137.835h1.765a.772.772,0,0,0,.771-.769V135.3a.771.771,0,0,0-.771-.771h-1.765a.774.774,0,0,0-.771.771v1.765A.773.773,0,0,0,103.347,137.835Z" transform="translate(-96.457 37.339)" fill="#fff" stroke="#000" stroke-width="1"/>
        <path id="Path_202543" data-name="Path 202543" d="M107.479,137.835h1.765a.773.773,0,0,0,.771-.769V135.3a.772.772,0,0,0-.771-.771h-1.765a.773.773,0,0,0-.771.771v1.765A.769.769,0,0,0,107.479,137.835Z" transform="translate(-94.466 37.339)" fill="#fff" stroke="#000" stroke-width="1"/>
        <path id="Path_202544" data-name="Path 202544" d="M111.609,137.835h1.765a.772.772,0,0,0,.771-.769V135.3a.771.771,0,0,0-.771-.771h-1.765a.773.773,0,0,0-.774.771v1.765A.778.778,0,0,0,111.609,137.835Z" transform="translate(-92.478 37.339)" fill="#fff" stroke="#000" stroke-width="1"/>
        <path id="Path_202545" data-name="Path 202545" d="M115.738,137.835H117.5a.774.774,0,0,0,.774-.769V135.3a.773.773,0,0,0-.774-.771h-1.765a.773.773,0,0,0-.771.771v1.765A.772.772,0,0,0,115.738,137.835Z" transform="translate(-90.486 37.339)" fill="#fff" stroke="#000" stroke-width="1"/>
        <path id="Path_202546" data-name="Path 202546" d="M103.5,133.334h1.765a.773.773,0,0,0,.769-.771V130.8a.773.773,0,0,0-.769-.771H103.5a.771.771,0,0,0-.771.771v1.765A.769.769,0,0,0,103.5,133.334Z" transform="translate(-96.384 35.168)" fill="#fff" stroke="#000" stroke-width="1"/>
        <path id="Path_202547" data-name="Path 202547" d="M107.628,133.334h1.765a.774.774,0,0,0,.771-.771V130.8a.774.774,0,0,0-.771-.771h-1.765a.773.773,0,0,0-.771.771v1.765A.77.77,0,0,0,107.628,133.334Z" transform="translate(-94.394 35.168)" fill="#fff" stroke="#000" stroke-width="1"/>
        <path id="Path_202548" data-name="Path 202548" d="M111.757,133.334h1.765a.773.773,0,0,0,.774-.771V130.8a.773.773,0,0,0-.774-.771h-1.765a.774.774,0,0,0-.771.771v1.765A.774.774,0,0,0,111.757,133.334Z" transform="translate(-92.405 35.168)" fill="#fff" stroke="#000" stroke-width="1"/>
        <path id="Path_202549" data-name="Path 202549" d="M107.479,142.673h1.765a.775.775,0,0,0,.771-.771v-1.765a.772.772,0,0,0-.771-.771h-1.765a.773.773,0,0,0-.771.771V141.9A.77.77,0,0,0,107.479,142.673Z" transform="translate(-94.466 39.67)" fill="#fff" stroke="#000" stroke-width="1"/>
        <path id="Path_202550" data-name="Path 202550" d="M111.609,142.673h1.765a.774.774,0,0,0,.771-.771v-1.765a.771.771,0,0,0-.771-.771h-1.765a.773.773,0,0,0-.774.771V141.9A.779.779,0,0,0,111.609,142.673Z" transform="translate(-92.478 39.67)" fill="#fff" stroke="#000" stroke-width="1"/>
        <path id="Path_202551" data-name="Path 202551" d="M119.218,79.351l-18.026,14.3a2.342,2.342,0,0,0-.256,3.434l14.973,16.053" transform="translate(-51.318 10.749)" fill="#fff" stroke="#000" stroke-width="1"/>
        <path id="Path_202552" data-name="Path 202552" d="M129.6,79.351l18.024,14.3a2.342,2.342,0,0,1,.258,3.434L132.9,113.138" transform="translate(-37.205 10.749)" fill="#fff" stroke="#000" stroke-width="1"/>
      </g>
    </g>
    <g id="lady" transform="translate(0 47.08)">
      <g id="chair" transform="translate(0 45.632)">
        <line id="Line_154" data-name="Line 154" x1="4.361" y2="49.766" transform="translate(0.156 75.545)" fill="none" stroke="#000" stroke-linecap="round" stroke-linejoin="round" stroke-width="1"/>
        <line id="Line_155" data-name="Line 155" x2="4.361" y2="49.766" transform="translate(33.711 75.545)" fill="none" stroke="#000" stroke-linecap="round" stroke-linejoin="round" stroke-width="1"/>
        <rect id="Rectangle_884" data-name="Rectangle 884" width="36.315" height="76.531" rx="2.663" transform="translate(36.315 76.531) rotate(-180)" fill="#fff" stroke="#000" stroke-width="1"/>
        <path id="Path_202500" data-name="Path 202500" d="M24.24,170.4H68.416a1.566,1.566,0,0,1,1.567,1.567v19.377a1.566,1.566,0,0,1-1.567,1.567H24.24" transform="translate(-11.086 -116.382)" fill="#fff" stroke="#000" stroke-width="1"/>
      </g>
      <g id="sit" transform="translate(11.135 0)">
        <g id="Group_5627" data-name="Group 5627" transform="translate(17.959 35.41)">
          <path id="Path_202501" data-name="Path 202501" d="M62.855,113.437l-5.931,24.175,18.135.419,4.6-4.063a1.963,1.963,0,1,1,2.6,2.94l-1.423,1.257,8.738.2a1.968,1.968,0,0,1,1.839,2.079h0a1.969,1.969,0,0,1-2.079,1.838l-7.946-.489,0,.053,9,.554a1.962,1.962,0,0,1-.241,3.917l-8.9-.548,0,.052,8.9.548a1.967,1.967,0,0,1,1.838,2.078h0A1.969,1.969,0,0,1,89.9,150.29l-8.8-.541,0,.112,7.065.434a1.962,1.962,0,1,1-.241,3.917l-40.042-3.173a6.814,6.814,0,0,1-5.559-3.739c-.029-.054-.053-.109-.08-.163s-.067-.131-.1-.2a6.793,6.793,0,0,1-.578-3.9l4.875-32.8Z" transform="translate(-41.497 -101.57)" fill="#fff" stroke="#000" stroke-width="1"/>
          <path id="Path_202502" data-name="Path 202502" d="M58.1,139.867l-2.991-.054" transform="translate(-42.536 -103.827)" fill="#fff" stroke="#000" stroke-linecap="round" stroke-linejoin="round" stroke-width="1"/>
          <path id="Path_202503" data-name="Path 202503" d="M45.371,109.16,44.178,122.1l16.835,4.545,3.262-12.079c1.212-6.269-1.131-10.9-4.928-13.708h0" transform="translate(-41.701 -100.854)" fill="#fff" stroke="#000" stroke-linecap="round" stroke-linejoin="round" stroke-width="1"/>
        </g>
        <path id="Path_202504" data-name="Path 202504" d="M83.429,140.507l-1.662,1.359a5.243,5.243,0,0,1-1.075,3.179,5.659,5.659,0,0,1-4.484,2.389" transform="translate(-26.187 -68.47)" fill="#fff" stroke="#000" stroke-width="1"/>
        <path id="Path_202505" data-name="Path 202505" d="M53.692,153.079q.091-.41.2-.82l1.789-7.02,43.329,11.044.015-.058,16.258,4.144a19.067,19.067,0,0,1,13.766,23.185l-14.128,39.659H77.9l13.266-36.156-9.909-.012C63.375,187.023,49.779,170.524,53.692,153.079Z" transform="translate(-24.417 -68.83)" fill="#fff" stroke="#000" stroke-width="1"/>
        <path id="Path_202506" data-name="Path 202506" d="M57.608,157.122l26.128,6.66c.39.1.772.214,1.151.336a19.064,19.064,0,0,1,12.878,22.934L85.441,223.216H47.427l12.425-32.661-9.56-.011c-17.878-.022-31.474-16.52-27.561-33.966q.093-.41.2-.82l1.789-7.02,30.779-3.456" transform="translate(-22.055 -68.834)" fill="#fff" stroke="#000" stroke-width="1"/>
        <line id="Line_156" data-name="Line 156" x2="13.244" transform="translate(37.56 121.724)" fill="#fff" stroke="#000" stroke-linecap="round" stroke-linejoin="round" stroke-width="1"/>
        <path id="Path_202507" data-name="Path 202507" d="M50.3,63.441a11.264,11.264,0,0,0-9.948.5C36.9,65.7,34.12,69.673,34.713,72.96c.408,2.256,2.161,2.827,1.854,4.548-.388,2.171-3.3,1.916-5.055,4.8a8.991,8.991,0,0,0-.674,7.076c.841,2.658,2.525,3.144,2.19,4.464-.519,2.051-4.78,1.662-5.9,4.3-.03.07-.056.141-.08.212a3.006,3.006,0,0,0,1.476,3.569A29.428,29.428,0,0,0,46,105.305a28.615,28.615,0,0,0,10.827-3.684,5.442,5.442,0,0,0,2.367-2.735,3.062,3.062,0,0,0,.115-2.173c-.477-1.261-2.057-2.045-3.539-2.779s-2.105-.734-2.19-1.18c-.183-.971,2.759-1.35,4.212-3.791a6.322,6.322,0,0,0,.253-5.981c-.791-1.365-1.954-1.556-2.359-3.117a4.7,4.7,0,0,1,.169-2.526c.605-2.381.927-5.865.252-8C55.186,66.415,51.867,64.062,50.3,63.441Z" transform="translate(-22.425 -62.519)" fill="#fff" stroke="#000" stroke-width="1"/>
        <path id="Path_202508" data-name="Path 202508" d="M23.41,146.171H69.588l-6.4-42.515c-.957-6.355-5.776-11-11.415-11H39.038c-5.894,0-10.849,5.063-11.509,11.762Z" transform="translate(-22.158 -64.819)" fill="#fff" stroke="#000" stroke-width="1"/>
        <path id="Path_202509" data-name="Path 202509" d="M52.2,84.5v9.109c0,.884-1.928,1.6-4.305,1.6s-4.306-.716-4.306-1.6V84.5Z" transform="translate(-23.698 -64.197)" fill="#fff" stroke="#000" stroke-width="1"/>
        <g id="Group_5630" data-name="Group 5630" transform="translate(15.057 4.04)">
          <rect id="Rectangle_885" data-name="Rectangle 885" width="13.816" height="19.657" rx="6.908" transform="translate(16.064 19.657) rotate(-180)" fill="#fff" stroke="#000" stroke-width="1"/>
          <ellipse id="Ellipse_111" data-name="Ellipse 111" cx="2.443" cy="2.443" rx="2.443" ry="2.443" transform="translate(10.915 6.199)" fill="#fff" stroke="#000" stroke-width="1"/>
          <ellipse id="Ellipse_112" data-name="Ellipse 112" cx="2.443" cy="2.443" rx="2.443" ry="2.443" transform="translate(3.738 6.199)" fill="#fff" stroke="#000" stroke-width="1"/>
          <ellipse id="Ellipse_113" data-name="Ellipse 113" cx="0.455" cy="0.455" rx="0.455" ry="0.455" transform="translate(14.231 7.927)" fill="#fff" stroke="#000" stroke-width="1"/>
          <ellipse id="Ellipse_114" data-name="Ellipse 114" cx="0.455" cy="0.455" rx="0.455" ry="0.455" transform="translate(7.107 7.927)" fill="#fff" stroke="#000" stroke-width="1"/>
          <path id="Path_202512" data-name="Path 202512" d="M41.145,75.386a1.46,1.46,0,0,0-2.31,0,2.2,2.2,0,0,0,0,2.74,1.458,1.458,0,0,0,2.31,0" transform="translate(-38.356 -67.498)" fill="#fff" stroke="#000" stroke-width="1"/>
          <path id="Path_202513" data-name="Path 202513" d="M48.476,81.617a.873.873,0,0,0,.871.87h0a.873.873,0,0,0,.87-.87v-3.2" transform="translate(-39.128 -67.772)" fill="#fff" stroke="#000" stroke-width="1"/>
          <path id="Path_202514" data-name="Path 202514" d="M47.059,83.526a1.476,1.476,0,0,1-1.516-1.432" transform="translate(-38.904 -68.053)" fill="#fff" stroke="#000" stroke-width="1"/>
        </g>
        <path id="Path_202515" data-name="Path 202515" d="M42.128,74.4a.627.627,0,0,0,.357.357.936.936,0,0,0,.363.072" transform="translate(-23.586 -63.427)" fill="#fff" stroke="#000" stroke-width="1"/>
        <path id="Path_202516" data-name="Path 202516" d="M55.6,74.4a.628.628,0,0,1-.356.357.943.943,0,0,1-.364.072" transform="translate(-24.559 -63.427)" fill="#fff" stroke="#000" stroke-width="1"/>
        <path id="Path_202518" data-name="Path 202518" d="M77.814,246.644h47.594v-6.968a10.023,10.023,0,0,0-10.023-10.022h-32.6Z" transform="translate(-26.309 -75.271)" fill="#fff" stroke="#000" stroke-width="1"/>
        <path id="Path_202519" data-name="Path 202519" d="M77.814,247.733h47.594v-3.8H78.926Z" transform="translate(-26.309 -76.361)" fill="#fff" stroke="#000" stroke-width="1"/>
        <path id="Path_202520" data-name="Path 202520" d="M90.619,243.2a8.685,8.685,0,0,0-8.56-8.806" transform="translate(-26.633 -75.633)" fill="#fff" stroke="#000" stroke-linecap="round" stroke-linejoin="round" stroke-width="1"/>
        <path id="Path_202521" data-name="Path 202521" d="M44.124,246.644H91.718v-6.968a10.023,10.023,0,0,0-10.023-10.022h-32.6Z" transform="translate(-23.739 -75.271)" fill="#fff" stroke="#000" stroke-width="1"/>
        <path id="Path_202522" data-name="Path 202522" d="M44.124,247.733H91.718v-3.8H45.236Z" transform="translate(-23.739 -76.361)" fill="#fff" stroke="#000" stroke-width="1"/>
        <path id="Path_202523" data-name="Path 202523" d="M48.026,99.625l19.146,15.8L75.407,99.32l-1.658-5.89a1.957,1.957,0,1,1,3.768-1.061l.513,1.822L82,86.429a1.963,1.963,0,0,1,2.664-.751h0a1.963,1.963,0,0,1,.75,2.665L81.53,95.268l.047.025,1.035-1.8a1.957,1.957,0,0,1,3.415,1.914l-.985,1.709.045.024.984-1.708a1.964,1.964,0,0,1,2.665-.75h0a1.963,1.963,0,0,1,.75,2.664l-.934,1.618.1.051.089-.109a1.957,1.957,0,1,1,3.415,1.914L75.315,129.366a6.794,6.794,0,0,1-5.768,3.372c-.06,0-.12,0-.18,0s-.147,0-.22,0a6.775,6.775,0,0,1-3.755-1.17L38.042,112.977Z" transform="translate(-23.275 -64.268)" fill="#fff" stroke="#000" stroke-width="1"/>
        <path id="Path_202524" data-name="Path 202524" d="M69.532,117.767q-.673,1.331-1.345,2.663" transform="translate(-25.574 -66.735)" fill="#fff" stroke="#000" stroke-linecap="round" stroke-linejoin="round" stroke-width="1"/>
        <path id="Path_202525" data-name="Path 202525" d="M47.707,121.31,59.023,108.2,45.794,96.779a9.61,9.61,0,0,0-13.484.918h0a9.609,9.609,0,0,0,1.777,14.287Z" transform="translate(-22.653 -64.955)" fill="#fff" stroke="#000" stroke-width="1"/>
      </g>
    </g>
  </g>
</svg>
