<?xml version="1.0" encoding="utf-8"?>
<!-- Generator: Adobe Illustrator 25.0.1, SVG Export Plug-In . SVG Version: 6.00 Build 0)  -->
<svg version="1.1" id="Mobile-Development" xmlns="http://www.w3.org/2000/svg" xmlns:xlink="http://www.w3.org/1999/xlink" x="0px"
	 y="0px" viewBox="0 0 37 25.8" style="enable-background:new 0 0 37 25.8;" xml:space="preserve">
<style type="text/css">
	.st0{fill:#FFFFFF;stroke:#FFFFFF;stroke-width:0.392;}
</style>
<g id="analytics" transform="translate(-790.55 -31.6)">
	<path id="Path_1839" class="st0" d="M821.6,55.8l-1.5-0.9v0.6h-22v-22h0.6l-0.9-1.5l-0.9,1.5h0.6v1.8h-0.9v0.6h0.9v1.2h-0.9v0.6
		h0.9V39h-0.9v0.6h0.9v1.2h-0.9v0.6h0.9v1.2h-0.9v0.6h0.9v1.2h-0.9V45h0.9v1.2h-0.9v0.6h0.9V48h-0.9v0.6h0.9V50h-0.9v0.6h0.9v1.2
		h-0.9v0.6h0.9v1.2h-0.9v0.6h0.9v1.2h-0.9V56h0.9v1h0.6v-0.9h1.2V57h0.6v-0.9h1.2V57h0.6v-0.9h1.2V57h0.6v-0.9h1.2V57h0.6v-0.9h1.2
		V57h0.6v-0.9h1.2V57h0.6v-0.9h1.2V57h0.6v-0.9h1.2V57h0.6v-0.9h1.2V57h0.6v-0.9h1.2V57h0.6v-0.9h1.2V57h0.6v-0.9h1.8v0.6
		L821.6,55.8z"/>
	<path id="Path_1840" class="st0" d="M799.8,55.1c0.7,0,1.3-0.6,1.3-1.3c0-0.4-0.2-0.8-0.5-1.1l3.2-6.3c0.1,0,0.2,0,0.3,0
		c0.6,0,1-0.3,1.2-0.9l7.4,1.1c0.1,0.7,0.7,1.3,1.4,1.2s1.3-0.7,1.2-1.4c0-0.3-0.1-0.5-0.3-0.7l4.5-4.7c0.7,0.3,1.5,0,1.8-0.7
		s0-1.5-0.7-1.8s-1.5,0-1.8,0.7c-0.2,0.5-0.1,1,0.2,1.4l-4.5,4.7c-0.2-0.1-0.4-0.1-0.6-0.2c-0.6,0-1.1,0.3-1.2,0.9l-7.4-1.1
		c-0.1-0.7-0.7-1.3-1.4-1.2s-1.3,0.7-1.2,1.4c0,0.4,0.2,0.7,0.5,0.9l-3.2,6.3c-0.7-0.1-1.4,0.3-1.6,1.1c-0.1,0.7,0.3,1.4,1.1,1.6
		C799.6,55.1,799.7,55.1,799.8,55.1z"/>
</g>
</svg>
