<?xml version="1.0" encoding="utf-8"?>
<!-- Generator: Adobe Illustrator 27.0.1, SVG Export Plug-In . SVG Version: 6.00 Build 0)  -->
<svg version="1.1" id="Layer_1" xmlns="http://www.w3.org/2000/svg" xmlns:xlink="http://www.w3.org/1999/xlink" x="0px" y="0px"
	 viewBox="0 0 82 100" style="enable-background:new 0 0 82 100;" xml:space="preserve">
<style type="text/css">
	.st0{fill:#FFFFFF;}
</style>
<g transform="translate(0.000000,100.000000) scale(0.100000,-0.100000)">
	<path class="st0" d="M525,990c-50-21-105-102-105-156c0-28,15-30,63-10c55,23,107,102,107,164C590,1002,555,1003,525,990z"/>
	<path class="st0" d="M200,801c-82-25-157-99-183-182C-34,462,37,187,160,60c62-64,97-71,195-40c75,24,87,23,168-6
		c66-23,114-8,173,53c43,44,124,192,124,226c0,8-20,32-44,52c-54,44-76,88-76,149c0,58,28,114,75,152l35,29l-21,30
		c-72,99-186,129-315,84l-61-22l-62,22C288,811,244,814,200,801z"/>
</g>
</svg>
