<svg id="IOS" xmlns="http://www.w3.org/2000/svg" width="20.933" height="25.119" viewBox="0 0 20.933 25.119">
  <path id="Path_432" data-name="Path 432" d="M30.457,960.362c-2.8.944-4.974,1.889-4.663,5.981C28.589,965.713,31.078,964.139,30.457,960.362Zm-8.878,5.682A6.879,6.879,0,0,0,15,972.922c0,6.28,4.187,12.56,6.579,12.56,1.794,0,3.289-1.2,4.486-1.2s2.392,1.2,4.187,1.2c2.392,0,5.084-3.588,5.682-6.878-2.093-1.5-3.588-2.392-3.588-5.084,0-1.794,1.5-3.589,3.289-5.084a6.1,6.1,0,0,0-4.486-2.392c-1.794,0-3.724,1.42-5.084,1.5C24.868,967.539,23.373,966.044,21.579,966.044Z" transform="translate(-15 -960.362)" fill="#979797"/>
</svg>
