<?xml version="1.0" encoding="UTF-8"?><svg id="Layer_2" xmlns="http://www.w3.org/2000/svg" viewBox="0 0 327.28 335.68"><defs><style>.cls-1{fill:#695322;}.cls-2{fill:#694826;}.cls-3{fill:#675122;}.cls-4{fill:#fef2bb;}.cls-5{fill:#fef1b8;}.cls-6{fill:#fef1b9;}.cls-7{fill:#fef1b6;}.cls-8{fill:#fef1b7;}.cls-9{fill:#fef1b5;}.cls-10{fill:#fef1ba;}.cls-11{fill:#fef1bb;}.cls-12{fill:#feeea6;}.cls-13{fill:#feeeaa;}.cls-14{fill:#feeea9;}.cls-15{fill:#feda37;}.cls-16{fill:#feefa9;}.cls-17{fill:#feefaf;}.cls-18{fill:#feefad;}.cls-19{fill:#feefae;}.cls-20{fill:#fef0b1;}.cls-21{fill:#fef0b3;}.cls-22{fill:#fef0b2;}.cls-23{fill:#fef0b0;}.cls-24{fill:#feeda2;}.cls-25{fill:#fd7abc;}.cls-26{fill:#fe7bbc;}.cls-27{fill:#fe9d8b;}.cls-28{fill:#7e553b;}.cls-29{fill:#82562d;}.cls-30{fill:#7e4553;}.cls-31{fill:#7f6a37;}.cls-32{fill:#734a38;}.cls-33{fill:#7e6625;}.cls-34{fill:#806826;}.cls-35{fill:#7d6525;}.cls-36{fill:#7d5f27;}.cls-37{fill:#8ad3a6;}.cls-38{fill:#89d2a5;}.cls-39{fill:#8cd4a7;}.cls-40{fill:#8cd4a8;}.cls-41{fill:#8dd4a8;}.cls-42{fill:#cdc9c6;}.cls-43{fill:#df9242;}.cls-44{fill:#df9142;}.cls-45{fill:#de9142;}.cls-46{fill:#c3beba;}.cls-47{fill:#da8e41;}.cls-48{fill:#e19342;}.cls-49{fill:#e29343;}.cls-50{fill:#dd9041;}.cls-51{fill:#dd9042;}.cls-52{fill:#43573c;}.cls-53{fill:#41b676;}.cls-54{fill:#41b776;}.cls-55{fill:#41b777;}.cls-56{fill:#40583b;}.cls-57{fill:#42ac70;}.cls-58{fill:#42b475;}.cls-59{fill:#42b173;}.cls-60{fill:#42b777;}.cls-61{fill:#42b877;}.cls-62{fill:#42b676;}.cls-63{fill:#43b878;}.cls-64{fill:#43b777;}.cls-65{fill:#43b677;}.cls-66{fill:#43b676;}.cls-67{fill:#3f2c1e;}.cls-68{fill:#3d5035;}.cls-69{fill:#88d2a5;}.cls-70{fill:#715129;}.cls-71{fill:#724737;}.cls-72{fill:#44b878;}.cls-73{fill:#544e40;}.cls-74{fill:#88632b;}.cls-75{fill:#85d1a3;}.cls-76{fill:#826926;}.cls-77{fill:#55664f;}.cls-78{fill:#595044;}.cls-79{fill:#565c48;}.cls-80{fill:#5c4942;}.cls-81{fill:#3d2b1e;}.cls-82{fill:#5a4b40;}.cls-83{fill:#594a3f;}.cls-84{fill:#584e43;}.cls-85{fill:#585044;}.cls-86{fill:#57604b;}.cls-87{fill:#81d0a1;}.cls-88{fill:#4b694b;}.cls-89{fill:#754839;}.cls-90{fill:#765f25;}.cls-91{fill:#7a5035;}.cls-92{fill:#7a6e65;}.cls-93{fill:#534338;}.cls-94{fill:#525442;}.cls-95{fill:#4f5a44;}.cls-96{fill:#7c6425;}.cls-97{fill:#7c533c;}</style></defs><g id="Layer_1-2"><g><path class="cls-26" d="M163.68,229.52c-.89-6.02-1.79-12.04-2.68-18.06-.09-.57-.17-1.14-.25-1.71l-.32-4.14c-1.88-8.66-3.76-17.31-5.63-25.97-1.82-6.52-3.39-13.12-5.53-19.52-1.39-4.17-3.62-8.06-5.47-12.07-1.94-4.22-3.8-8.48-5.84-12.64-2.74-5.56-5.63-11.04-8.45-16.56,7.23-3.54,14.48-7.03,21.67-10.65,2.25-1.13,3.65-1.36,3.66,1.84,0,.72,.68,1.43,1.04,2.15,.25,.78,.53,1.55,.76,2.34,3.03,10.2,6.06,20.4,9.09,30.59,.37,1.55,.75,3.1,1.12,4.65,2.68,8.83,12.63,12.53,18.94,7.05l-.05,.03c6.4-2.52,8.68-8.67,6.02-16.26,0-.35-.15-.61-.45-.78-1.16-1.59-2.32-3.18-3.49-4.77-5.86-12.26-14.74-22.06-25.03-30.71,1.09-1.22,1.98-2.79,3.32-3.59,4.64-2.79,9.45-5.31,14.19-7.94,.48-.15,.96-.31,1.43-.46,2.29-1.07,4.59-2.14,6.88-3.21,2.65,4.3,5.29,8.61,7.94,12.91,.31,.6,.61,1.21,.92,1.81,1.74,3.52,3.38,7.09,5.23,10.55,3.29,6.12,6.71,12.18,10.08,18.26,.32,.86,.65,1.71,.97,2.57,2.59,5.25,5.18,10.5,7.77,15.75,4.68,11.14,9.56,22.2,13.99,33.43,4.31,10.93,8.18,22.03,12.24,33.05-5,.77-10.01,1.55-15.02,2.32-6.05,.93-12.1,1.87-18.15,2.8-5.1,.69-10.2,1.38-15.3,2.07-8.18,1.14-16.36,2.27-24.55,3.41-3.69,.49-7.37,.97-11.06,1.46Zm39.08-47.69l-.06-.05c4.09,4.71,7.31-.63,10.88-1.21,1.36-.22,2.34-3.06,3.38-4.77,.2-.32-.07-.96-.18-1.44-2.58-11.44-3.17-11.76-14.04-7.74-1.24,.46-2.62,.64-3.72,1.3-.82,.49-2.02,1.86-1.83,2.31,1.7,3.94,3.67,7.76,5.57,11.61Z"/><path class="cls-81" d="M261.59,313.7c4.3,5.65,8.74,11.2,12.84,17,1.82,2.58,3.77,3.68,6.97,3.64,13.8-.16,27.61-.08,41.42-.05,1.52,0,3.04,.19,4.46,1.4h-116.39v-16.73c-.89,6.43-1.61,11.58-2.32,16.73H104.18c-.03-.37-.06-.74-.1-1.11,1.51-.1,3.02-.28,4.53-.29,9.81-.03,19.66-.59,29.41,.17,7.8,.61,10.86-3.74,13.44-9.58,.43-.32,.87-.64,1.3-.96,2.71-4.69,5.41-9.39,8.12-14.08,.25,.04,.49,.05,.74,.05,.11,.97,.22,1.94,.34,2.91,.55,.28,1.1,.81,1.65,.81,10.36-.03,20.72-.11,31.08-.19,.35,.01,.7,.03,1.04,.05,5.03-.2,10.07-.41,15.1-.61,.28,0,.55-.01,.83,0,4.7,.22,9.4,.43,14.09,.65,7.33-.01,14.66-.03,21.99-.04,4.62,.08,9.24,.17,13.86,.25Zm-42.57,16.7c-.01,.31-.02,.61-.04,.92h47.45c0-.31,0-.61,0-.92h-47.41Zm-16.8,1.04c-.02-.31-.04-.61-.05-.92h-46.19c0,.31,0,.61,0,.92h46.24Z"/><path class="cls-39" d="M195.73,313.46c-.35-.01-.7-.03-1.04-.04-2.42-2.43-4.97-4.76-7.22-7.34-1.76-2.02-2.89-1.66-4.67,.05-2.52,2.42-5.42,4.46-8.15,6.66,1.1-1.24,2.16-2.53,3.32-3.71q6.2-6.25-.14-12.58-5.57-5.56-11.02-.23c-.94,.92-2.02,1.71-3.03,2.55,.06-.64,.12-1.28,.17-1.92,9.18-8.67,7.77-6.21,1-13.1,0-.35,0-.7,0-1.06,.73,.35,1.58,.56,2.17,1.06q5.45,4.68,10.68-.54,5.7-5.7,.95-11.54c.02-.4,.03-.79,.05-1.19q6.26,5.38,12.19-.48c1.18-1.17,2.26-2.47,3.56-3.49,2.19-1.72,1.67-2.99-.12-4.71-5.12-4.91-10.08-10-15.09-15.02q-6.74-6.76-13.64-.99c-.37,1.68-.99,3.35-1.05,5.04-.31,7.91-.46,15.83-.66,23.75-.02-9.94-.03-19.88-.05-29.83,.34-.05,.68-.1,1.02-.15,8.07-7.36,6.59-5.28,.29-11.75-.11-.11-.28-.18-.42-.26,.28-.59,.56-1.18,.85-1.77q6.31,7.13,12.88,.51c.8-.81,1.48-1.75,2.21-2.63,.9-.24,1.81-.49,2.71-.73-2.62,2.77-5.35,5.44-7.8,8.35-.75,.89-1.34,3.26-.99,3.51,4.11,2.89,5.49,9.36,11.9,9.22,.27,0,.8,.55,.8,.83-.04,6.35,6.29,7.82,9.24,11.87,.26,.36,2.65-.27,3.55-1.04,2.89-2.48,5.54-5.24,8.28-7.9,.05,.63,.1,1.26,.15,1.9q-10.61,9.25-.56,18.78c.47,.45,1.04,.8,1.56,1.2,.29,1.33,.58,2.66,.87,4-1.55,1.47-3.13,2.91-4.64,4.42q-6.43,6.41-1.1,13.62c-2.81-1.36-6.17-4.38-8.29-3.67-3.09,1.02-5.28,4.73-7.86,7.3-.12,.12-.33,.23-.33,.35-.02,1.35-.56,3.14,.1,3.98,2.22,2.85,4.88,5.36,7.36,8-.07,.23-.07,.46,0,.69Zm-7.74-33.73c-.4,.02-.8,.03-1.21,.05-1.18,.04-2.69-.39-3.49,.18-10.48,7.36-10.65,9.37-1.88,18.12,.47,.47,1,.89,1.41,1.41,1.56,2,2.88,2.04,4.72,.09,4.3-4.56,8.78-8.95,13.27-13.32q9.28-9.04-.11-18.01c-1.34-1.28-3.05-3.82-4.66-.97-2.41,4.29-10.21,4.85-8.27,12.02,.04,.16,.15,.29,.23,.44Z"/><path class="cls-55" d="M261.59,313.7c-4.62-.08-9.24-.17-13.86-.25-.18-2.52-.64-4.81-3.96-4.66-1.75-2.17-5.39-5.68-4.95-6.29,2.83-3.98,6.35-7.58,10.2-10.59,.5-.39,4.24,3.28,6.42,5.14,1.76,1.5,3.43,3.09,5.14,4.64,0,.73,.02,1.46,.02,2.19-2.51,2.37-5.05,4.72-7.49,7.17-.19,.19,.32,1.09,.51,1.67,3.58,.28,4.32-2.36,5.09-4.96,.65-.68,1.3-1.36,1.95-2.04,.13,1.05,.26,2.1,.47,3.76,.54-2.32,.93-3.98,1.32-5.64l.2,.29c-.35,3.19-.7,6.37-1.06,9.56Z"/><path class="cls-92" d="M89.76,1.93c-8.95,2.78-18.17,4.92-26.81,8.47C42.45,18.83,26.44,32.91,14.19,51.33c-.72,1.08-1.65,2.02-2.48,3.03,3.54-5.44,6.48-11.4,10.71-16.23C40.32,17.65,62.79,5.14,89.77,.94c0,.33,0,.66,0,1Z"/><path class="cls-92" d="M180.76,27.83c-6.15-4.08-11.94-8.91-18.53-12.06-9.64-4.61-19.87-7.99-29.81-11.96-.88-.35-1.56-1.21-2.33-1.84,.5-.03,1-.07,1.5-.1,2.71,.66,5.42,1.32,8.12,1.98,13.84,5.03,27.11,11.15,38.47,20.77,1.03,.87,1.73,2.13,2.58,3.21Z"/><path d="M152.76,323.91c-.43,.32-.87,.64-1.3,.96-26.38,0-52.76,0-79.14,0,0-.32,0-.64,0-.96,26.81,0,53.63,0,80.44,0Z"/><path class="cls-77" d="M256.85,253.76c1.27,8.09,2.64,16.16,3.76,24.27,.63,4.55,.85,9.15,1.26,13.73l-.46,.03c-.26,0-.51,0-.77-.01-.37-3.62-.74-7.23-1.1-10.85-.01-.39-.02-.79-.03-1.18-1.01-7.04-2.02-14.08-3.03-21.11l-.64-1.95,.02-2.88c.33,0,.67-.02,1-.03Z"/><path class="cls-88" d="M164.95,282.76c0,.35,0,.7,0,1.06-.39,2.68-.78,5.35-1.16,8.03-.05-1.47-.11-2.95-.16-4.42,.12-4.25,.24-8.5,.36-12.76,.21-7.92,.36-15.84,.66-23.75,.07-1.69,.69-3.36,1.06-5.04-.25,12.3-.5,24.59-.75,36.89Z"/><path d="M262.7,302.9h35.28c0,.41,0,.82,0,1.23-11.78,0-23.56,0-35.34,0,0,0-.2-.29-.2-.29,.13-.3,.21-.62,.25-.94Z"/><path d="M261.87,291.76h16.58c.01,.73,.03,1.47,.04,2.2h-16.64c-.15-.72-.3-1.45-.45-2.17l.46-.03Z"/><path class="cls-78" d="M165.67,230.9c-.28,.59-.56,1.18-.85,1.77,.04,4,.08,8.01,.13,12.01-.34,.05-.68,.1-1.02,.15-.09-5.1-.17-10.21-.26-15.32,3.69-.49,7.37-.97,11.06-1.46,0,.26,0,.52,0,.78-3.02,.69-6.05,1.37-9.07,2.06Z"/><path class="cls-79" d="M256.85,253.76c-.33,.01-.66,.03-1,.03-1.39-4.67-2.79-9.34-4.18-14.01,.11-1,.21-2,.32-2.99l.82-1.17,4.04,18.13Z"/><path class="cls-86" d="M163.62,287.42c.05,1.47,.11,2.95,.16,4.42,.06,1.69,.11,3.38,.17,5.06-.06,.64-.12,1.28-.17,1.92-.3,2.36-.59,4.72-.89,7.08-.02,.6-.04,1.19-.06,1.79-.4,.73-.81,1.45-1.21,2.18-.25,0-.5-.02-.74-.05,.91-7.47,1.83-14.93,2.74-22.4Z"/><path class="cls-95" d="M252.82,235.62c-.27,.39-.55,.78-.82,1.17-.09-.33-.18-.67-.27-1-1.29-5.34-2.58-10.68-3.87-16.02,.32,0,.64,0,.96-.01,1.33,5.29,2.66,10.58,3.99,15.87Z"/><path class="cls-84" d="M248.83,219.76c-.32,0-.64,.01-.97,.01-2.02-.03-4.03-.07-6.05-.1-.33,.09-.66,.17-.99,.26l-8.14,.73c.02-.29,.03-.59,.04-.88,5.01-.77,10.01-1.55,15.02-2.32,.36,.77,.72,1.53,1.08,2.3Z"/><path class="cls-46" d="M208.57,335.68c.71-5.15,1.43-10.3,2.32-16.73v16.73c-.77,0-1.55,0-2.32,0Z"/><path class="cls-93" d="M116.72,.85c-6.32,0-12.65,0-18.97,.01,.01-.29,0-.58,0-.87,6.33,0,12.65,0,18.98,0-.01,.28-.01,.57,0,.85Z"/><path class="cls-94" d="M261.41,291.78c.15,.72,.3,1.45,.45,2.17,.28,2.98,.56,5.96,.85,8.94-.04,.33-.12,.64-.25,.94-.39,1.66-.78,3.32-1.32,5.64-.21-1.66-.34-2.71-.47-3.76-.02-.61-.04-1.22-.06-1.84,0-.73-.02-1.46-.02-2.19,0-.6-.01-1.2-.02-1.81,.03-2.7,.05-5.41,.08-8.11,.26,.01,.51,.01,.77,.01Z"/><path class="cls-83" d="M116.72,.85c-.01-.28,0-.57,0-.85,2.73,.61,5.47,1.22,8.2,1.84-2.73-.33-5.47-.66-8.2-.99Z"/><path class="cls-82" d="M97.74,0c.01,.29,.02,.58,0,.87-2.66,.35-5.32,.71-7.99,1.06,.01-.33,.01-.66,0-1,2.66-.31,5.32-.62,7.98-.94Z"/><path class="cls-15" d="M160.42,205.61c-11.43,5.95-23.31,10.76-36.14,12.47-40.05,5.37-73.65-7-99.8-37.88C7.23,159.85-1.21,135.67,.14,109.15,2.3,66.66,22.57,34.96,60.87,15.77,84.57,3.89,109.68,1.71,135.19,8.82c33.87,9.44,57.69,30.77,71.37,63.13,8.25,19.52,9.7,39.9,6.21,60.71-3.37-6.08-6.79-12.14-10.08-18.26-1.86-3.46-3.5-7.03-5.23-10.55,3.83-.64,7.66-1.28,11.49-1.92-.07-.4-.14-.8-.22-1.2-4.07,.44-8.13,.87-12.2,1.31-2.65-4.3-5.29-8.61-7.94-12.91-1.29-.05-2.59-.09-3.88-.14-1.69-3.41-3.38-6.81-5.07-10.22-3.5-5.88,.42-8.15,4.87-10.42,4.17-2.14,8.17-4.63,12.24-6.96-.2-.38-.41-.75-.61-1.13-2.77,1.56-5.54,3.14-8.33,4.69-3.46,1.92-7.21,5.72-10.32,5.26-4.4-.65-7.35,1.06-10.8,2.39-1.53,.73-3.33,1.17-4.55,2.26-2.88,2.58-9.97,1.72-7.49,8.84-2.68,1.68-5.35,3.36-8.03,5.05-1.2,.43-3.31,1.44-3.47,1.19-3.68-5.7-7.19-.8-10.61,.17-2.12,.6-4.55,1.48-5.92,3.04-2.38,2.72-9.92,2.39-5.97,9.25,.18,.31-.31,1.42-.74,1.62-1.99,.9-4.87,2.83-5.96,2.13-2.47-1.59-6.53-1.68-6.24-6.9,.62-11.1,.19-22.26,.19-33.39,0-4.11,0-8.21,0-12.32-.42,0-.85,0-1.27,0,0,1.72,0,3.43,0,5.15,0,13.46,.06,26.92-.08,40.38-.02,1.66-1.16,3.32-1.78,4.97-4.03,1.13-6.06,3.91-6.06,7.98,0,2.95,.12,6.08,4.08,6.74,0,0-.03-.03-.03-.03,.02,.42,.04,.83,.06,1.25-12.54,28.39-25.08,56.78-37.62,85.17,.47,.21,.94,.41,1.41,.62,12.47-28.33,24.94-56.66,37.41-85,2.72-.65,5.45-1.3,8.17-1.94,.29-.61,.59-1.22,.88-1.83,.92-2.13,1.7-4.34,2.82-6.35,.92-1.66,1.97-3.54,3.49-4.46,.97-.59,2.89,.37,4.39,.64,2.04,3.36,4.08,6.71,6.12,10.07-.14,.65-.27,1.31-.41,1.96,2.82,5.52,5.71,11,8.45,16.56,2.05,4.16,3.9,8.42,5.84,12.64,3.67,10.53,7.34,21.07,11.01,31.6,1.88,8.66,3.76,17.31,5.63,25.97Zm-105.02-4.94c.44,.22,.87,.45,1.31,.67,4.56-7.94,9.11-15.87,13.67-23.81-.42-.24-.84-.48-1.26-.72l-13.71,23.86Zm13.7-153.1c.42-.25,.84-.5,1.26-.75-4.56-7.84-9.12-15.67-13.67-23.51-.4,.24-.79,.47-1.19,.71,4.53,7.85,9.07,15.7,13.6,23.55Zm88.66,153.59c.44-.21,.88-.42,1.32-.63-4.58-7.92-9.16-15.84-13.75-23.76-.4,.23-.8,.46-1.21,.69,4.55,7.9,9.09,15.8,13.64,23.7Zm-12.46-156.07c.4,.22,.8,.45,1.2,.67,4.18-7.28,8.36-14.55,12.54-21.83-.4-.23-.81-.45-1.21-.68-4.18,7.28-8.35,14.56-12.53,21.84Zm-103.7,30.05c.23-.41,.47-.82,.7-1.23-7.25-4.17-14.49-8.34-21.74-12.51l-.69,1.21,21.73,12.53Zm-2.93,77.52l-.93-1.16c-6.46,3.79-12.91,7.58-19.37,11.36,.24,.4,.48,.8,.72,1.2,6.53-3.8,13.05-7.6,19.58-11.4ZM107.6,9.78c-.19,0-.38,0-.57,0v27.07c.19,0,.38,0,.57,0V9.78ZM31.78,112.65c-.02-.18-.04-.36-.06-.55H5.48c0,.18,0,.36,0,.55H31.78Zm75.84,74.92c-.21,.06-.41,.12-.62,.18v26.5c.21,0,.41,0,.62,0v-26.67ZM19.14,103.85l.03-1.75c-4.51-.44-9.02-.87-13.53-1.31l-.14,1.35c4.55,.57,9.09,1.14,13.64,1.71ZM97.31,24.23c.48-.07,.95-.13,1.43-.2-.53-4.51-1.06-9.03-1.59-13.54-.47,.07-.94,.13-1.42,.2,.53,4.51,1.05,9.03,1.58,13.54Zm1.42,176.28c-.49-.06-.98-.11-1.46-.17-.47,4.51-.94,9.02-1.41,13.54,.46,.05,.92,.11,1.38,.16,.5-4.51,.99-9.02,1.49-13.53ZM76.55,15.02c-.52,.18-1.04,.35-1.56,.53,1.47,4.2,2.94,8.4,4.41,12.59,.38-.14,.76-.27,1.14-.41-1.33-4.24-2.66-8.48-3.99-12.72ZM19.13,122.33c-.05-.5-.1-.99-.15-1.49-4.6,.46-9.19,.91-13.79,1.37,.05,.41,.1,.82,.14,1.23,4.6-.37,9.2-.74,13.8-1.11ZM129.32,12.41c-.52-.08-1.04-.16-1.57-.24-.88,4.32-1.76,8.65-2.64,12.97l1.3,.25c.97-4.33,1.93-8.65,2.9-12.98ZM38.21,188.01c.38,.3,.76,.59,1.14,.89,2.99-3.46,5.99-6.92,8.98-10.38-.34-.29-.68-.58-1.02-.87-3.04,3.45-6.07,6.9-9.11,10.36ZM188.03,75.51c.21,.43,.42,.87,.63,1.3,4.22-1.9,8.44-3.8,12.66-5.7l-.56-1.25c-4.24,1.88-8.48,3.76-12.72,5.65ZM75.04,209.14c.5,.14,1,.27,1.5,.41,1.3-4.24,2.6-8.49,3.91-12.73-.43-.13-.85-.26-1.28-.39-1.38,4.24-2.76,8.47-4.13,12.71Zm52.83,3.39c.48-.11,.97-.21,1.45-.32-.98-4.37-1.96-8.74-2.94-13.12-.45,.1-.9,.2-1.35,.29,.94,4.38,1.89,8.76,2.83,13.14Zm-10.74-12.12l-1.26,.14,1.44,13.47c.45-.05,.9-.1,1.35-.15-.51-4.49-1.02-8.98-1.53-13.47Zm26.91-7.22c-.44,.17-.89,.34-1.33,.51l5.66,12.51c.39-.19,.78-.38,1.18-.57-1.84-4.15-3.67-8.3-5.51-12.45ZM167.91,30.05c-.38-.33-.77-.66-1.15-1-2.58,3.64-5.16,7.29-7.75,10.93,.34,.24,.67,.49,1.01,.73,2.63-3.56,5.26-7.11,7.89-10.67Zm-120.22-1.04c-.37,.32-.73,.64-1.1,.96,2.63,3.58,5.27,7.17,7.9,10.75,.35-.25,.69-.5,1.04-.75-2.61-3.65-5.23-7.3-7.84-10.95Zm18.82-9.96l-1.38,.29c1.83,4.06,3.67,8.11,5.5,12.17,.41-.18,.81-.36,1.22-.54-1.78-3.97-3.56-7.95-5.34-11.92Zm76.15,11.82c.45,.18,.91,.36,1.36,.54,1.85-4.22,3.69-8.43,5.54-12.65-.37-.17-.74-.33-1.11-.5-1.93,4.2-3.86,8.41-5.79,12.61ZM23.38,140.3c-.22-.47-.45-.94-.67-1.41-4.26,1.44-8.51,2.88-12.77,4.32,.14,.41,.27,.81,.41,1.22,4.34-1.38,8.69-2.75,13.03-4.13Zm168.94-56.36c.14,.41,.29,.83,.43,1.24,4.13-1.31,8.26-2.61,12.39-3.92-.15-.46-.31-.93-.46-1.39-4.12,1.36-8.24,2.72-12.35,4.08Zm-102.93,115.58c-.46-.12-.92-.24-1.39-.35-.83,4.29-1.67,8.58-2.5,12.86,.42,.08,.84,.17,1.25,.25,.88-4.25,1.76-8.51,2.64-12.76Zm48.75,9.88c.43-.11,.87-.22,1.3-.33-1.42-4.19-2.83-8.38-4.25-12.57-.4,.14-.8,.28-1.2,.42,1.38,4.16,2.77,8.32,4.15,12.48Zm-102.37-44.39c-.29-.36-.59-.73-.88-1.09-3.56,2.66-7.12,5.32-10.68,7.98,.26,.34,.51,.68,.77,1.02,3.6-2.64,7.2-5.28,10.79-7.92ZM14.53,70.17c-.22,.41-.44,.82-.66,1.22,4.01,1.76,8.02,3.53,12.03,5.29,.17-.39,.33-.77,.5-1.16-3.96-1.78-7.91-3.57-11.87-5.35ZM118.49,10.5c-.41-.05-.83-.1-1.24-.15-.43,4.53-.87,9.06-1.3,13.6,.43,.05,.87,.1,1.3,.15,.41-4.53,.82-9.07,1.24-13.6Zm15.44,17.2c.43,.17,.86,.34,1.29,.5,1.4-4.25,2.79-8.5,4.19-12.74l-1.19-.41-4.29,12.65ZM7.71,90.51c-.08,.44-.16,.87-.24,1.31l12.62,2.44c.07-.41,.15-.83,.22-1.24-4.2-.84-8.4-1.67-12.6-2.51Zm199.43,1.2c-.08-.41-.17-.82-.25-1.23-4.3,.88-8.61,1.76-12.91,2.63,.09,.41,.17,.83,.26,1.24,4.3-.88,8.61-1.76,12.91-2.65ZM86.73,12.28c-.44,.15-.88,.31-1.32,.46,.93,4.19,1.86,8.38,2.79,12.57,.4-.09,.79-.18,1.19-.27-.89-4.25-1.78-8.51-2.67-12.76ZM20.23,131.39c-.07-.45-.14-.89-.21-1.34l-12.72,2.84c.09,.42,.18,.85,.28,1.27,4.22-.93,8.43-1.85,12.65-2.78Zm-.18-46.74c.09-.43,.17-.86,.26-1.29l-9.97-3.39c-.15,.47-.3,.93-.45,1.4l10.16,3.29Zm26.59,109.96l1.15,.87c2.07-2.93,4.14-5.85,6.21-8.78-.37-.26-.73-.52-1.1-.77-2.09,2.89-4.17,5.79-6.26,8.68ZM32.74,59c.3-.38,.6-.76,.9-1.14-2.95-2.07-5.91-4.15-8.86-6.22l-.69,.99c2.88,2.12,5.77,4.25,8.65,6.37Zm11.2-16.29c.14-.14,.28-.27,.43-.41-1.94-2-3.88-3.99-5.82-5.99-.12,.11-.24,.23-.36,.34,1.92,2.02,3.83,4.03,5.75,6.05ZM13.68,153.12c.19,.42,.38,.84,.57,1.27l6.81-3.02c-.14-.36-.29-.72-.43-1.08-2.32,.94-4.64,1.89-6.95,2.83ZM31.5,43.2l-.92,1.07c1.81,1.47,3.63,2.94,5.44,4.4,.26-.32,.52-.64,.78-.96-1.77-1.51-3.54-3.01-5.3-4.52Zm134.7,2.75l1.06,.85c1.17-1.44,2.35-2.88,3.52-4.32-.38-.29-.76-.59-1.13-.88-1.15,1.45-2.3,2.9-3.44,4.34Zm17.58,9.95c.3,.34,.6,.68,.9,1.01,1.9-1.44,3.8-2.89,5.7-4.33-.24-.31-.48-.61-.72-.92-1.96,1.41-3.92,2.83-5.88,4.24Zm.03-11.67c-.3-.35-.6-.71-.89-1.06-1.7,1.62-3.4,3.23-5.1,4.85l.94,.98c1.69-1.59,3.37-3.18,5.06-4.77Z"/><path class="cls-15" d="M165.71,145.12c-3.03-10.2-6.06-20.4-9.09-30.59-.23-.79-.51-1.56-.76-2.34-.59-2.3-.8-4.81-1.92-6.82-.68-1.23-2.75-1.69-4.19-2.5-.33-4.6-.66-9.2-.99-13.8,.98-.36,1.95-.73,2.93-1.09,3.02,2.95,6.03,5.9,9.05,8.85-.28,1.86,3.08,3.66,.1,5.57,.64,.65,1.29,1.3,1.93,1.95,10.29,8.65,19.18,18.44,25.03,30.71-11.3-5.66-18.31-2.46-22.1,10.08Z"/><path class="cls-49" d="M160.75,96.81c-3.02-2.95-6.03-5.9-9.05-8.85,1.35-.74,2.7-1.48,4.05-2.22,3.21,4.09,4.37,4.25,7.01,1.01l-.04,.05c1.77-.55,3.6-.97,5.29-1.69,3.26-1.4,6.44-2.97,9.65-4.47,.67-.63,1.33-1.25,2-1.88,1.69,3.41,3.38,6.81,5.07,10.22-1,1.12-2,2.23-3,3.35-.48,.15-.96,.31-1.43,.46-3.71,1.55-7.68,2.68-11.06,4.76-3.34,2.06-5.86,1.96-8.48-.75Z"/><path class="cls-48" d="M191.3,139.81c.31,.17,.46,.43,.45,.78,.44,6.33-1.09,11.92-6.02,16.25l.05-.03c-7.8,2.12-14.29,.9-18.16-7.07,.68-3.21,2.33-5.11,5.9-5.52,2.39-.28,5.13-1.03,6.88-2.54,3.45-2.98,6.95-3.17,10.91-1.87Zm-6,12.94l-.57-1.17c-1.51,.72-3.02,1.44-4.53,2.16,.21,.42,.41,.85,.62,1.27,1.49-.75,2.99-1.5,4.48-2.25Z"/><path class="cls-67" d="M191.3,139.81c-3.96-1.3-7.46-1.11-10.91,1.87-1.75,1.51-4.49,2.27-6.88,2.54-3.57,.42-5.21,2.31-5.9,5.52-.26,.01-.52,.01-.78,.01-.37-1.55-.75-3.1-1.12-4.65,3.78-12.54,10.8-15.74,22.1-10.08,1.16,1.59,2.33,3.18,3.49,4.77Z"/><path class="cls-30" d="M202.76,181.83c-1.89-3.85-3.87-7.67-5.57-11.61-.19-.45,1-1.82,1.83-2.31,1.1-.66,2.48-.84,3.72-1.3,10.87-4.03,11.47-3.7,14.04,7.74,.11,.48,.38,1.12,.18,1.44-1.04,1.71-2.02,4.55-3.38,4.77-3.57,.58-6.79,5.92-10.88,1.21,3.36-.72,6.84-1.13,10.03-2.32,1.26-.47,2.89-2.96,2.58-4.04-.99-3.55-2.78-6.87-4.33-10.25-.03-.07-.89,.24-1.37,.36-11.34,2.77-11.48,3.02-7.59,13.99,.27,.76,.49,1.55,.73,2.32Z"/><path class="cls-91" d="M149.76,102.86c1.44,.81,3.51,1.27,4.19,2.5,1.11,2.01,1.32,4.52,1.92,6.82-.36-.71-1.04-1.43-1.04-2.15-.02-3.19-1.41-2.97-3.66-1.84-7.19,3.61-14.44,7.11-21.67,10.65,.13-.65,.27-1.31,.41-1.96,5.34-2.56,10.6-5.3,16.06-7.59,3.12-1.31,4.34-3.21,3.81-6.43Z"/><path class="cls-97" d="M154.79,179.64c-3.67-10.53-7.34-21.07-11.01-31.6,1.85,4.02,4.08,7.91,5.47,12.08,2.14,6.41,3.72,13.01,5.53,19.52Z"/><path class="cls-32" d="M160.75,96.81c2.61,2.71,5.13,2.81,8.48,.75,3.38-2.08,7.35-3.22,11.06-4.76-4.74,2.62-9.55,5.15-14.19,7.94-1.34,.81-2.22,2.37-3.32,3.59-.64-.65-1.29-1.3-1.93-1.95,2.99-1.91-.37-3.71-.1-5.57Z"/><path class="cls-89" d="M166.83,149.76c.26,0,.52,0,.78-.01,3.87,7.97,10.37,9.19,18.16,7.07-6.31,5.48-16.26,1.77-18.94-7.05Z"/><path class="cls-73" d="M174.74,228.84c0-.26,0-.52,0-.78,8.18-1.13,16.36-2.27,24.55-3.41,.56,.09,1.12,.19,1.67,.28-4.12,.93-8.24,1.86-12.35,2.8-.63,.03-1.26,.06-1.88,.1-1.08,.07-2.16,.15-3.24,.22-.9,.24-1.81,.49-2.71,.73-2.01,.02-4.01,.04-6.02,.06Z"/><path class="cls-71" d="M185.73,156.85c4.93-4.34,6.46-9.93,6.02-16.25,2.66,7.59,.38,13.73-6.02,16.25Z"/><path class="cls-80" d="M232.73,219.78c0,.29-.02,.59-.04,.88,0,0,.09,.26,.09,.26-5.99,.68-11.98,1.35-17.97,2.03,0,0-.22-.37-.22-.37,6.05-.93,12.1-1.87,18.15-2.8Z"/><path class="cls-17" d="M196.54,102.04c4.07-.44,8.13-.87,12.2-1.31,.07,.4,.14,.8,.22,1.2-3.83,.64-7.66,1.28-11.49,1.92-.31-.6-.61-1.21-.92-1.81Z"/><path class="cls-85" d="M200.96,224.94c-.56-.1-1.11-.19-1.67-.29,5.1-.69,10.2-1.38,15.3-2.07,0,0,.22,.37,.22,.37-1.34,.65-2.69,1.31-4.03,1.97-3.27,0-6.54,.02-9.81,.02Z"/><path class="cls-28" d="M181.72,92.34c1-1.12,2-2.23,3-3.35,1.29,.05,2.59,.09,3.88,.14-2.3,1.07-4.59,2.14-6.88,3.21Z"/><path class="cls-54" d="M225.75,313.49c-4.7-.22-9.4-.43-14.09-.65,.11-2.64,.22-5.29,.32-7.93,2.48,2.67,4.97,5.33,7.45,8,.41-.42,.82-.83,1.23-1.25-2.89-2.62-5.77-5.24-8.66-7.85,0-.66,0-1.32,0-1.99,3.1-2.7,6.12-5.49,9.33-8.04,.94-.75,3.07-1.53,3.54-1.09,3.38,3.15,7.13,6.26,9.22,10.2,.57,1.08-4.1,4.94-6.36,7.53-.65,.75-1.27,1.52-1.9,2.29-.04,.26-.06,.52-.08,.78Z"/><path class="cls-59" d="M174.64,312.78c2.74-2.2,5.63-4.23,8.15-6.66,1.78-1.71,2.9-2.07,4.67-.05,2.25,2.58,4.8,4.9,7.22,7.34-10.36,.07-20.72,.16-31.08,.19-.55,0-1.1-.53-1.65-.81,1.97-.03,3.93-.06,5.9-.09,.66,.03,1.33,.06,1.99,.09,1.6,0,3.19,0,4.79,0Z"/><path class="cls-61" d="M225.75,313.49c.02-.26,.05-.52,.08-.78,2.29-1.75,4.92-3.21,6.8-5.33,2.63-2.97,4.56-3.66,7.22-.09,1.59,2.13,3.81,3.79,5.75,5.67,.22-.24,.45-.47,.67-.71-.83-1.15-1.66-2.3-2.49-3.45,3.32-.15,3.78,2.14,3.96,4.66-7.33,.01-14.66,.03-21.99,.04Z"/><path class="cls-42" d="M219.03,330.4h47.41c0,.31,0,.61,0,.92h-47.45c.01-.31,.02-.61,.04-.92Z"/><path class="cls-42" d="M202.23,331.44h-46.24c0-.31,0-.61,0-.92h46.19c.02,.31,.04,.61,.05,.92Z"/><path class="cls-56" d="M212,301.81c0,.66,0,1.32,0,1.99,0,.37-.01,.74-.02,1.11-.11,2.64-.21,5.29-.32,7.93-.28,0-.55,0-.83,0-.09-2.73-.17-5.45-.25-8.18,.04-.99,.08-1.98,.12-2.98-.07-7.64-.14-15.28-.21-22.92-.29-1.33-.58-2.66-.87-4,.1-2.02,.21-4.05,.31-6.07,.29-.68,.58-1.35,.87-2.03,.36,2.72,.73,5.43,1.09,8.15,0,.64,0,1.27,0,1.91,.01,.37,.02,.75,.03,1.12,.05,.61,.1,1.23,.15,1.84,0,7.02,.01,14.04,.02,21.06-.03,.35-.06,.7-.09,1.05Z"/><path class="cls-57" d="M210.57,304.67c.08,2.73,.17,5.45,.26,8.18-5.03,.2-10.07,.41-15.1,.61-.07-.23-.07-.46,0-.69,1.6,.01,3.21,.02,4.81,.03,3.35-2.71,6.69-5.42,10.04-8.13Z"/><path class="cls-55" d="M167.86,312.69c-1.97,.03-3.93,.06-5.9,.1-.11-.97-.22-1.94-.34-2.91,.4-.73,.81-1.45,1.21-2.18,1.67,1.67,3.35,3.33,5.02,5Z"/><path class="cls-55" d="M164.95,282.76c.25-12.3,.5-24.59,.75-36.89q6.91-5.77,13.64,.99c5.01,5.02,9.97,10.11,15.09,15.02,1.79,1.72,2.31,2.99,.12,4.71-1.3,1.02-2.37,2.32-3.56,3.49q-5.93,5.86-12.19,.48c-1.7-1.8-3.39-3.61-5.09-5.41-.33,.35-.66,.71-1,1.06,2.01,1.85,4.02,3.69,6.04,5.54q4.75,5.84-.95,11.54-5.24,5.24-10.68,.54c-.59-.51-1.44-.72-2.17-1.06Z"/><path class="cls-55" d="M183.47,228.05c1.08-.07,2.16-.15,3.24-.22,7.04,7,14.08,14.01,21.11,21.01,.21,1.36,.42,2.71,.63,4.07-2.74,2.65-5.39,5.41-8.28,7.9-.89,.77-3.29,1.4-3.55,1.04-2.95-4.05-9.28-5.52-9.24-11.87,0-.29-.53-.84-.8-.83-6.42,.14-7.8-6.33-11.9-9.22-.35-.25,.24-2.63,.99-3.51,2.45-2.91,5.18-5.59,7.8-8.35Z"/><path class="cls-55" d="M187.99,279.73c-.08-.15-.19-.28-.23-.44-1.93-7.17,5.86-7.73,8.27-12.02,1.61-2.85,3.31-.31,4.66,.97q9.42,8.98,.11,18.01c-4.49,4.38-8.97,8.77-13.27,13.32-1.84,1.95-3.16,1.92-4.72-.09-.4-.52-.94-.94-1.41-1.41-8.77-8.76-8.6-10.76,1.88-18.12,.81-.57,2.31-.14,3.49-.18,2.59,2.7,5.17,5.39,7.76,8.09,.34-.36,.68-.72,1.02-1.09-2.53-2.35-5.05-4.7-7.58-7.05Z"/><path class="cls-55" d="M174.64,312.78c-1.6,0-3.19,0-4.79,0-2.32-2.29-4.64-4.58-6.96-6.88,.3-2.36,.59-4.72,.89-7.08,1.01-.85,2.09-1.63,3.03-2.55q5.46-5.32,11.02,.23,6.35,6.34,.14,12.58c-1.17,1.18-2.22,2.47-3.32,3.71Z"/><path class="cls-55" d="M200.53,312.8c-1.6-.01-3.21-.02-4.81-.03-2.49-2.64-5.14-5.15-7.36-8-.66-.84-.12-2.63-.1-3.98,0-.12,.22-.24,.33-.35,2.58-2.56,4.77-6.27,7.86-7.3,2.13-.7,5.49,2.32,8.29,3.67,0,0-.03-.03-.03-.03,1.65,2.05,3.29,4.11,4.94,6.16-3.04,3.28-6.09,6.57-9.13,9.85Z"/><path class="cls-55" d="M210.48,278.78c.07,7.64,.14,15.28,.21,22.92-.29-.03-.58-.07-.87-.11-1.7-1.6-3.4-3.2-5.1-4.79,0,0,.03,.03,.03,.03q-5.33-7.2,1.1-13.62c1.51-1.51,3.09-2.95,4.64-4.42Z"/><path class="cls-62" d="M209.92,268.71c-.1,2.02-.21,4.05-.31,6.07-.52-.4-1.09-.75-1.56-1.2q-10.05-9.53,.56-18.78c.33,1.35,.66,2.69,.98,4.04,.11,3.29,.22,6.58,.33,9.87Z"/><path class="cls-65" d="M174.74,228.84c2.01-.02,4.01-.04,6.02-.06-.73,.88-1.41,1.82-2.21,2.63q-6.56,6.63-12.88-.51c3.02-.69,6.05-1.37,9.07-2.06Z"/><path class="cls-64" d="M163.95,296.91c-.06-1.69-.11-3.38-.17-5.06,.39-2.68,.78-5.36,1.17-8.03,6.77,6.88,8.18,4.43-1,13.1Z"/><path class="cls-66" d="M164.95,244.68c-.04-4-.08-8.01-.13-12.01,.14,.09,.3,.15,.42,.26,6.3,6.47,7.78,4.39-.29,11.75Z"/><path class="cls-52" d="M209.59,258.84c-.33-1.35-.66-2.69-.98-4.04-.05-.63-.1-1.26-.15-1.9-.21-1.36-.42-2.71-.63-4.07-.11-.65-.22-1.31-.34-1.96l-.73-7.26,1.15-.16,1.92,10.39c.05,.98,.09,1.96,.14,2.93,.21,2.01,.42,4.02,.63,6.04-.34,.01-.67,.02-1.01,.03Z"/><path class="cls-75" d="M187.99,279.73c2.53,2.35,5.05,4.7,7.58,7.05-.34,.36-.68,.72-1.02,1.09-2.59-2.7-5.17-5.39-7.76-8.09,.4-.02,.8-.03,1.21-.05Z"/><path class="cls-69" d="M178.75,271.74c-2.01-1.85-4.02-3.69-6.04-5.54,.33-.35,.66-.71,1-1.06,1.7,1.8,3.39,3.61,5.09,5.41-.02,.39-.03,.79-.05,1.18Z"/><path class="cls-40" d="M209.98,252.77c-.05-.98-.09-1.96-.14-2.93,3-2.52,5.88-5.18,9.02-7.52,3.3-2.46,3.83-4.86,.59-7.68,3.91,2.96,6.78,1.27,9.11-2.17,1.98-2.92,6.72-4.01,5.88-8.81,3.73,1.5,4.52-2.05,6.4-3.73,.33-.09,.66-.17,.99-.26-.37,.91-.5,2.05-1.14,2.69-8.58,8.68-17.13,17.39-25.91,25.86-2.47,2.38-2.59,3.66-.09,6.17,9.06,9.09,9.02,9.27,17.81-.03,1.26-1.34,1.47-3.67,1.96-4.99,1.75-.78,4.12-1.29,5.75-2.68,4.03-3.42,7.71-7.24,11.53-10.9,.09,.33,.18,.67,.27,1-.11,1-.21,2-.32,2.99-2.97,2.16-5.96,4.29-8.9,6.48-3.57,2.67-5.76,5.63-1.75,9.68-3.38-3.47-6.21-2.81-8.98,.93-1.46,1.97-3.36,3.66-5.24,5.27-1.83,1.57-1.84,2.83,.03,4.32,1.03,.82,1.88,1.86,2.82,2.79,7.02,6.96,6.84,6.76,13.97,.18,3.65-3.37,5.27-6.13,.8-9.8,5.12,4.09,8.56,1.75,11.4-2.96,.21,.65,.43,1.3,.64,1.95-2.08,2.59-6.81,3.82-4.59,7.8-1.39,.26-3.08,.08-4.05,.82-10.85,8.37-10.82,10.13-.84,19.42,2.02,1.88,3.02,1.55,4.74-.16,2.43-2.42,5.17-4.53,7.78-6.77,.01,.39,.02,.79,.03,1.18-2.14,2.05-4.27,4.11-6.42,6.13-2.01,1.89-2.5,3.6-.05,5.67,2.64,2.23,5.01,4.76,7.5,7.16,0,.6,.01,1.2,.02,1.81-1.71-1.55-3.39-3.15-5.15-4.64-2.18-1.86-5.92-5.53-6.42-5.14-3.85,3.01-7.37,6.61-10.2,10.59-.44,.62,3.2,4.12,4.95,6.29,.83,1.15,1.66,2.3,2.49,3.45-.22,.24-.45,.47-.67,.71-1.94-1.87-4.16-3.53-5.75-5.67-2.66-3.57-4.59-2.88-7.22,.09-1.88,2.12-4.5,3.58-6.8,5.33,.63-.76,1.25-1.54,1.9-2.29,2.26-2.59,6.93-6.45,6.36-7.53-2.09-3.94-5.84-7.05-9.22-10.2-.47-.44-2.6,.34-3.54,1.09-3.21,2.55-6.24,5.34-9.33,8.04,.03-.35,.06-.7,.09-1.05,3.34-3.59,9.08-7.05,9.28-10.8,.17-3.25-5.96-6.83-9.3-10.26-.05-.61-.1-1.23-.15-1.84,3.23,3.07,6.35,6.28,9.76,9.13,.82,.69,3.09,.81,3.89,.17,11.02-8.74,11.02-9.34,1.09-18.9-.12-.11-.25-.22-.35-.35-1.68-2.23-3.19-2.22-5.17-.11-2.93,3.13-6.16,5.97-9.26,8.94,0-.64,0-1.27,0-1.91,2.98-2.88,6.05-5.69,8.89-8.71,.62-.66,.95-2.64,.5-3.08-3.64-3.55-7.5-6.88-11.3-10.27Zm26.45,50.7c2.23-3.01,3.42-5.07,5.03-6.71,6.81-6.96,6.9-6.97,.04-13.65-5.35-5.2-3.78-5.85-9.73,.06-7.03,6.99-6.98,6.99,.03,14.19,1.38,1.42,2.43,3.17,4.63,6.1Z"/><path class="cls-38" d="M260.61,303.88c.02,.61,.04,1.22,.06,1.84-.65,.68-1.3,1.36-1.95,2.04-1.7,1.65-3.4,3.31-5.09,4.96-.19-.57-.7-1.47-.51-1.67,2.44-2.45,4.98-4.8,7.49-7.17Z"/><path class="cls-63" d="M253.62,312.72c1.7-1.65,3.4-3.31,5.09-4.96-.77,2.6-1.52,5.23-5.09,4.96Z"/><path class="cls-55" d="M259.51,279.74c-2.61,2.24-5.35,4.35-7.78,6.77-1.72,1.71-2.72,2.04-4.74,.16-9.98-9.29-10.01-11.05,.84-19.42,.97-.75,2.65-.57,4.05-.82-2.22-3.98,2.52-5.21,4.59-7.8,1.01,7.04,2.02,14.07,3.03,21.11Z"/><path class="cls-55" d="M255.83,256.67c-2.83,4.71-6.28,7.05-11.39,2.96-1.13-1.23-2.27-2.46-3.41-3.69-4.01-4.05-1.83-7.02,1.75-9.68,2.94-2.19,5.93-4.32,8.9-6.48,1.39,4.67,2.78,9.34,4.18,14.01,0,.96-.01,1.92-.02,2.88Z"/><path class="cls-62" d="M260.56,299.88c-2.49-2.4-4.87-4.93-7.5-7.16-2.45-2.07-1.96-3.78,.05-5.67,2.16-2.03,4.29-4.09,6.42-6.13,.37,3.62,.74,7.24,1.1,10.85-.03,2.7-.05,5.41-.08,8.11Z"/><path class="cls-69" d="M162.89,305.91c2.32,2.29,4.64,4.58,6.96,6.88-.66-.03-1.33-.06-1.99-.09-1.67-1.67-3.35-3.33-5.02-5,.02-.6,.04-1.19,.06-1.79Z"/><path class="cls-55" d="M251.73,235.79c-3.82,3.66-7.51,7.48-11.53,10.9-1.63,1.38-4,1.9-5.75,2.68-.49,1.33-.7,3.66-1.96,4.99-8.79,9.3-8.75,9.12-17.81,.03-2.5-2.51-2.38-3.79,.09-6.17,8.78-8.47,17.33-17.18,25.91-25.86,.64-.64,.77-1.78,1.14-2.69,2.02,.03,4.03,.07,6.05,.1,1.29,5.34,2.58,10.68,3.87,16.02Z"/><path class="cls-72" d="M240.83,219.93c-1.87,1.69-2.67,5.23-6.39,3.73-.55-.91-1.1-1.83-1.65-2.74,0,0-.09-.26-.09-.26,2.71-.24,5.43-.49,8.14-.73Z"/><path class="cls-49" d="M149.76,102.86c.54,3.21-.69,5.12-3.81,6.43-5.45,2.29-10.71,5.04-16.06,7.59-2.04-3.36-4.08-6.71-6.12-10.07,5.1-2.27,10.25-4.42,15.26-6.86,2.04-.99,5.57-3.12,5.36-3.84-1.12-3.8,1.69-5.18,3.44-7.28,.31,.07,.62,.14,.93,.21,.33,4.6,.66,9.2,.99,13.8Z"/><path class="cls-70" d="M147.84,88.85c-1.75,2.09-4.56,3.47-3.44,7.28,.21,.71-3.32,2.84-5.36,3.84-5.01,2.44-10.17,4.59-15.26,6.86-1.49-.27-3.41-1.23-4.39-.64-1.52,.93-2.57,2.8-3.49,4.46-1.12,2.02-1.9,4.23-2.82,6.35,3.36-8.02,.43-12.24-8.32-12.02,.03-.32,.03-.63,0-.95,.62-1.66,1.77-3.31,1.78-4.97,.15-13.46,.08-26.92,.08-40.38,0-1.72,0-3.43,0-5.15,.42,0,.85,0,1.27,0,0,4.11,0,8.21,0,12.32,0,11.13,.43,22.29-.19,33.39-.29,5.22,3.77,5.31,6.24,6.9,1.09,.71,3.97-1.23,5.96-2.13,.43-.19,.92-1.3,.74-1.62-3.95-6.86,3.59-6.53,5.97-9.25,1.37-1.56,3.8-2.44,5.92-3.04,3.42-.97,6.93-5.86,10.61-.17,.16,.25,2.27-.76,3.48-1.19,.4,.03,.8,.07,1.2,.1Zm-8.7-1.7c-1.29,2.16-2.43,3.34-2.19,3.77,1.26,2.31,2.86,4.43,4.35,6.61,.74-.75,2.26-1.82,2.11-2.19-1.01-2.43-2.39-4.71-4.27-8.19Zm-10.17,5.53c-1.42,1.79-2.77,2.99-2.58,3.34,1.3,2.34,2.92,4.5,4.44,6.72,.64-.6,1.93-1.45,1.81-1.77-.93-2.51-2.13-4.92-3.67-8.29Zm-5.38,2.73c-1.43,1.99-2.71,3.23-2.5,3.58,1.38,2.28,3.07,4.37,4.66,6.53,.6-.83,1.9-1.92,1.7-2.45-.88-2.31-2.19-4.46-3.86-7.65Zm15.39,2.66c-1.85-2.36-3.39-4.35-5.04-6.22-.04-.04-2.21,1.54-2.13,1.68,1.26,2.31,2.73,4.5,4.15,6.72,.83-.6,1.67-1.2,3.02-2.18Z"/><path class="cls-27" d="M104.02,120.77c-12.47,28.33-24.94,56.66-37.41,85-.47-.21-.94-.41-1.41-.62,12.54-28.39,25.08-56.78,37.61-85.17,.4,.27,.8,.53,1.2,.8Z"/><path class="cls-2" d="M177.65,80.65c-3.21,1.5-6.39,3.07-9.65,4.47-1.69,.73-3.52,1.14-5.29,1.69-1.01-2.24-1.9-4.55-3.1-6.69-.37-.65-1.58-1.1-2.42-1.11-.5,0-1.55,1.2-1.43,1.56,.69,2.14,1.34,4.44,2.68,6.15,.56,.71,2.82,.07,4.31,.04-2.64,3.25-3.8,3.08-7.01-1.01-.36-.68-.72-1.37-1.09-2.05-2.48-7.11,4.61-6.25,7.49-8.84,1.21-1.09,3.01-1.53,4.55-2.26,.03,.43,.05,.86,.08,1.29,.74,2.7,1.41,5.43,2.31,8.08,.12,.37,1.86,.69,2.1,.41,.65-.77,1.34-1.96,1.19-2.84-.27-1.59-1.13-3.08-1.75-4.62,.28-.36,.56-.72,.84-1.08,1.47,2.22,1.07,6.09,5.24,5.94,.31,.29,.62,.58,.94,.86Zm-14.74-6.12c-1.17,2.19-2.28,3.46-2.01,3.92,1.3,2.23,2.97,4.24,4.52,6.32,.66-.77,2.03-1.86,1.85-2.26-1.06-2.4-2.47-4.64-4.36-7.98Z"/><path class="cls-36" d="M177.65,80.65c-.31-.29-.62-.58-.94-.86-.29-2.24-.39-4.53-.97-6.69-.23-.85-1.52-1.42-2.33-2.11-.65,.95-1.29,1.9-1.94,2.86-.28,.36-.56,.72-.84,1.08-1.29-.34-2.57-.69-3.86-1.03-.03-.43-.05-.86-.08-1.29,3.46-1.33,6.4-3.04,10.8-2.39,3.11,.46,6.86-3.34,10.32-5.26,2.78-1.55,5.55-3.12,8.33-4.69,.2,.38,.41,.75,.61,1.13-4.07,2.33-8.06,4.83-12.24,6.96-4.45,2.28-8.37,4.54-4.87,10.42-.67,.63-1.33,1.25-2,1.88Z"/><path class="cls-76" d="M55.39,200.67l13.71-23.86c.42,.24,.84,.48,1.26,.72-4.56,7.94-9.11,15.87-13.67,23.81-.44-.22-.87-.45-1.31-.67Z"/><path class="cls-33" d="M69.09,47.57c-4.53-7.85-9.07-15.7-13.6-23.55,.4-.24,.79-.47,1.19-.71,4.56,7.84,9.12,15.67,13.67,23.51-.42,.25-.84,.5-1.26,.75Z"/><path class="cls-35" d="M157.75,201.17c-4.55-7.9-9.09-15.8-13.64-23.7,.4-.23,.8-.46,1.21-.69,4.58,7.92,9.16,15.84,13.75,23.76-.44,.21-.88,.42-1.32,.63Z"/><path class="cls-96" d="M145.29,45.09c4.18-7.28,8.35-14.56,12.53-21.84,.4,.23,.81,.45,1.21,.68-4.18,7.28-8.36,14.55-12.54,21.83-.4-.22-.8-.45-1.2-.67Z"/><path class="cls-33" d="M41.59,75.14l-21.73-12.53,.69-1.21c7.25,4.17,14.49,8.34,21.74,12.51-.23,.41-.47,.82-.7,1.23Z"/><path class="cls-34" d="M38.66,152.65c-6.53,3.8-13.05,7.6-19.58,11.4-.24-.4-.48-.8-.72-1.2,6.46-3.79,12.91-7.58,19.37-11.36l.93,1.16Z"/><path class="cls-1" d="M107.6,9.78v27.07c-.19,0-.38,0-.57,0V9.78c.19,0,.38,0,.57,0Z"/><path class="cls-90" d="M31.78,112.65H5.49c0-.18,0-.36,0-.55H31.72c.02,.18,.04,.36,.06,.55Z"/><path class="cls-3" d="M107.61,187.57v26.67c-.21,0-.41,0-.62,0v-26.5c.21-.06,.41-.12,.62-.18Z"/><path class="cls-13" d="M19.14,103.85c-4.55-.57-9.09-1.14-13.64-1.71l.14-1.35c4.51,.44,9.02,.87,13.53,1.31l-.03,1.75Z"/><path class="cls-21" d="M97.31,24.23c-.53-4.51-1.05-9.03-1.58-13.54,.47-.07,.94-.13,1.42-.2,.53,4.51,1.06,9.03,1.59,13.54-.48,.07-.95,.13-1.43,.2Z"/><path class="cls-22" d="M98.73,200.52c-.5,4.51-.99,9.02-1.49,13.53-.46-.05-.92-.11-1.38-.16,.47-4.51,.94-9.02,1.41-13.54,.49,.06,.98,.11,1.46,.17Z"/><path class="cls-31" d="M104.77,104.98c-5.84,4.42-6.28,7.51-1.97,13.77-3.96-.66-4.09-3.79-4.08-6.74,0-4.07,2.03-6.85,6.06-7.98,.02,.32,.02,.63,0,.95Z"/><path class="cls-18" d="M76.55,15.02c1.33,4.24,2.66,8.48,3.99,12.72-.38,.14-.76,.27-1.14,.41-1.47-4.2-2.94-8.4-4.41-12.59,.52-.18,1.04-.35,1.56-.53Z"/><path class="cls-24" d="M19.13,122.33c-4.6,.37-9.2,.74-13.8,1.11-.05-.41-.1-.82-.14-1.23,4.6-.46,9.19-.91,13.79-1.37,.05,.5,.1,.99,.15,1.49Z"/><path class="cls-13" d="M129.32,12.41c-.97,4.33-1.93,8.65-2.9,12.98l-1.3-.25c.88-4.32,1.76-8.65,2.64-12.97,.52,.08,1.04,.16,1.57,.24Z"/><path class="cls-7" d="M38.21,188.01c3.04-3.45,6.07-6.9,9.11-10.36,.34,.29,.68,.58,1.02,.87-2.99,3.46-5.99,6.92-8.98,10.38-.38-.3-.76-.59-1.14-.89Z"/><path class="cls-23" d="M188.03,75.51c4.24-1.88,8.48-3.76,12.72-5.65l.56,1.25c-4.22,1.9-8.44,3.8-12.66,5.7-.21-.43-.42-.87-.63-1.3Z"/><path class="cls-17" d="M75.04,209.14c1.38-4.24,2.76-8.47,4.13-12.71,.43,.13,.85,.26,1.28,.39-1.3,4.24-2.6,8.49-3.91,12.73-.5-.14-1-.27-1.5-.41Z"/><path class="cls-14" d="M127.87,212.53c-.94-4.38-1.89-8.76-2.83-13.14,.45-.1,.9-.2,1.35-.29,.98,4.37,1.96,8.74,2.94,13.12-.48,.11-.97,.21-1.45,.32Z"/><path class="cls-19" d="M117.13,200.41c.51,4.49,1.02,8.98,1.53,13.47-.45,.05-.9,.1-1.35,.15l-1.44-13.47,1.26-.14Z"/><path class="cls-4" d="M144.04,193.2c1.84,4.15,3.67,8.3,5.51,12.45-.39,.19-.78,.38-1.18,.57l-5.66-12.51c.44-.17,.89-.34,1.33-.51Z"/><path class="cls-8" d="M167.91,30.05c-2.63,3.56-5.26,7.11-7.89,10.67-.34-.24-.67-.49-1.01-.73,2.58-3.64,5.16-7.29,7.75-10.93,.38,.33,.77,.66,1.15,1Z"/><path class="cls-7" d="M47.69,29.02c2.61,3.65,5.23,7.3,7.84,10.95-.35,.25-.69,.5-1.04,.75-2.63-3.58-5.27-7.17-7.9-10.75,.37-.32,.73-.64,1.1-.96Z"/><path class="cls-9" d="M66.51,19.05c1.78,3.97,3.56,7.95,5.34,11.92-.41,.18-.81,.36-1.22,.54-1.83-4.06-3.67-8.11-5.5-12.17l1.38-.29Z"/><path class="cls-6" d="M142.67,30.87c1.93-4.2,3.86-8.41,5.79-12.61,.37,.17,.74,.33,1.11,.5-1.85,4.22-3.69,8.43-5.54,12.65-.45-.18-.91-.36-1.36-.54Z"/><path class="cls-16" d="M23.38,140.3c-4.34,1.38-8.69,2.75-13.03,4.13-.14-.41-.27-.81-.41-1.22,4.26-1.44,8.51-2.88,12.77-4.32,.22,.47,.45,.94,.67,1.41Z"/><path class="cls-8" d="M192.31,83.94c4.12-1.36,8.24-2.72,12.35-4.08,.15,.46,.31,.93,.46,1.39-4.13,1.31-8.26,2.61-12.39,3.92-.14-.41-.29-.83-.43-1.24Z"/><path class="cls-23" d="M89.38,199.52c-.88,4.25-1.76,8.51-2.64,12.76-.42-.08-.84-.17-1.25-.25,.83-4.29,1.67-8.58,2.5-12.86,.46,.12,.92,.24,1.39,.35Z"/><path class="cls-11" d="M138.13,209.4c-1.38-4.16-2.77-8.32-4.15-12.48,.4-.14,.8-.28,1.2-.42,1.42,4.19,2.83,8.38,4.25,12.57-.43,.11-.87,.22-1.3,.33Z"/><path class="cls-6" d="M35.76,165.01c-3.6,2.64-7.2,5.28-10.79,7.92-.26-.34-.51-.68-.77-1.02,3.56-2.66,7.12-5.32,10.68-7.98,.29,.36,.59,.73,.88,1.09Z"/><path class="cls-5" d="M14.53,70.17c3.96,1.78,7.91,3.57,11.87,5.35-.17,.39-.33,.77-.5,1.16-4.01-1.76-8.02-3.53-12.03-5.29,.22-.41,.44-.82,.66-1.22Z"/><path class="cls-18" d="M118.49,10.5c-.41,4.53-.82,9.07-1.24,13.6-.43-.05-.87-.1-1.3-.15,.43-4.53,.87-9.06,1.3-13.6,.41,.05,.83,.1,1.24,.15Z"/><path class="cls-8" d="M133.92,27.7l4.29-12.65,1.19,.41c-1.4,4.25-2.79,8.5-4.19,12.74-.43-.17-.86-.34-1.29-.5Z"/><path class="cls-10" d="M7.71,90.51c4.2,.84,8.4,1.67,12.6,2.51-.07,.41-.15,.83-.22,1.24l-12.62-2.44c.08-.44,.16-.87,.24-1.31Z"/><path class="cls-6" d="M207.15,91.72c-4.3,.88-8.61,1.76-12.91,2.65-.09-.41-.17-.83-.26-1.24,4.3-.88,8.61-1.76,12.91-2.63,.08,.41,.17,.82,.25,1.23Z"/><path class="cls-20" d="M86.73,12.28c.89,4.25,1.78,8.51,2.67,12.76-.4,.09-.79,.18-1.19,.27-.93-4.19-1.86-8.38-2.79-12.57,.44-.15,.88-.31,1.32-.46Z"/><path class="cls-11" d="M20.23,131.39c-4.22,.93-8.43,1.85-12.65,2.78-.09-.42-.18-.85-.28-1.27l12.72-2.84c.07,.45,.14,.89,.21,1.34Z"/><path class="cls-20" d="M20.06,84.65l-10.16-3.29c.15-.47,.3-.93,.45-1.4l9.97,3.39c-.09,.43-.17,.86-.26,1.29Z"/><path class="cls-7" d="M46.65,194.61c2.09-2.89,4.17-5.79,6.26-8.68,.37,.26,.73,.52,1.1,.77-2.07,2.93-4.14,5.85-6.21,8.78l-1.15-.87Z"/><path class="cls-5" d="M32.74,59c-2.88-2.12-5.77-4.25-8.65-6.37l.69-.99c2.95,2.07,5.91,4.15,8.86,6.22-.3,.38-.6,.76-.9,1.14Z"/><path class="cls-74" d="M154.66,83.7c.36,.68,.72,1.37,1.09,2.05-1.35,.74-2.7,1.48-4.05,2.21-.98,.36-1.95,.73-2.93,1.09-.31-.07-.62-.14-.93-.21-.4-.03-.8-.07-1.2-.1,2.68-1.68,5.35-3.36,8.03-5.05Z"/><path class="cls-70" d="M104.02,120.77c-.4-.27-.8-.53-1.2-.8-.02-.41-.04-.83-.06-1.25,3.14,.03,6.29,.07,9.43,.1-2.72,.65-5.44,1.3-8.17,1.94Z"/><path class="cls-5" d="M43.94,42.72c-1.92-2.02-3.83-4.03-5.75-6.05,.12-.11,.24-.23,.36-.34,1.94,2,3.88,3.99,5.82,5.99-.14,.14-.28,.27-.43,.41Z"/><path class="cls-18" d="M13.68,153.12c2.32-.94,4.64-1.89,6.95-2.83,.14,.36,.29,.72,.43,1.08l-6.81,3.02c-.19-.42-.38-.84-.57-1.27Z"/><path class="cls-19" d="M31.5,43.2c1.77,1.51,3.54,3.01,5.3,4.52-.26,.32-.52,.64-.78,.96-1.81-1.47-3.63-2.94-5.44-4.4l.92-1.07Z"/><path class="cls-12" d="M166.21,45.95c1.15-1.45,2.3-2.9,3.44-4.34,.38,.29,.76,.59,1.13,.88-1.17,1.44-2.35,2.88-3.52,4.32l-1.06-.85Z"/><path class="cls-10" d="M183.79,55.9c1.96-1.41,3.92-2.83,5.88-4.24,.24,.31,.48,.61,.72,.92-1.9,1.44-3.8,2.89-5.7,4.33-.3-.34-.6-.68-.9-1.01Z"/><path class="cls-6" d="M183.82,44.23c-1.69,1.59-3.37,3.18-5.06,4.77l-.94-.98c1.7-1.62,3.4-3.23,5.1-4.85,.3,.35,.6,.71,.89,1.06Z"/><path class="cls-29" d="M185.3,152.75c-1.49,.75-2.99,1.5-4.48,2.25-.21-.42-.41-.85-.62-1.27,1.51-.72,3.02-1.44,4.53-2.16l.57,1.17Z"/><path class="cls-25" d="M202.76,181.83c-.24-.77-.46-1.56-.73-2.32-3.88-10.97-3.75-11.22,7.59-13.99,.48-.12,1.33-.43,1.37-.36,1.55,3.38,3.34,6.7,4.33,10.25,.3,1.08-1.33,3.57-2.58,4.04-3.19,1.19-6.67,1.6-10.03,2.32,0,0,.06,.05,.06,.05Z"/><path class="cls-60" d="M219.44,234.64c3.24,2.83,2.71,5.22-.59,7.68-3.13,2.34-6.02,5-9.02,7.52-.64-3.46-1.28-6.93-1.92-10.39l-1.15,.16c.24,2.42,.49,4.84,.73,7.26-2.38-2.31-4.9-4.49-7.05-7-.74-.87-.62-3.7-.77-3.69-6.23,.41-7.42-5.65-11.08-8.45,4.12-.93,8.23-1.86,12.35-2.8,3.27,0,6.54-.01,9.81-.02,2.89,3.24,5.78,6.48,8.67,9.72Z"/><path class="cls-41" d="M188.6,227.73c3.66,2.8,4.85,8.87,11.08,8.45,.14,0,.02,2.82,.77,3.69,2.15,2.51,4.67,4.69,7.05,7,.11,.65,.22,1.31,.34,1.96-7.04-7-14.08-14.01-21.11-21.01,.63-.03,1.26-.06,1.88-.1Z"/><path class="cls-54" d="M219.44,234.64c-2.89-3.24-5.78-6.48-8.67-9.72,1.34-.66,2.69-1.31,4.03-1.96,5.99-.68,11.98-1.35,17.97-2.03,.55,.91,1.1,1.83,1.65,2.74,.84,4.8-3.9,5.89-5.88,8.81-2.33,3.43-5.2,5.12-9.11,2.17Z"/><path class="cls-87" d="M211.98,304.91c0-.37,0-.74,.02-1.11,2.89,2.62,5.77,5.24,8.66,7.85-.41,.42-.82,.83-1.23,1.25-2.48-2.67-4.97-5.33-7.45-8Z"/><path class="cls-55" d="M211.88,276.74c3.1-2.97,6.33-5.81,9.26-8.94,1.97-2.11,3.49-2.12,5.17,.11,.1,.13,.23,.24,.35,.35,9.93,9.56,9.94,10.16-1.09,18.9-.8,.63-3.07,.51-3.89-.17-3.41-2.85-6.53-6.05-9.76-9.13-.01-.37-.02-.75-.03-1.12Z"/><path class="cls-53" d="M209.98,252.77c3.79,3.39,7.65,6.72,11.3,10.27,.45,.44,.12,2.42-.5,3.08-2.84,3.02-5.91,5.83-8.89,8.71-.36-2.72-.73-5.43-1.09-8.15-.06-2.62-.12-5.25-.19-7.87-.21-2.01-.42-4.02-.63-6.04Z"/><path class="cls-58" d="M212.07,279.7c3.34,3.43,9.47,7.02,9.3,10.26-.2,3.75-5.95,7.22-9.28,10.8,0-7.02-.01-14.04-.02-21.07Z"/><path class="cls-37" d="M209.83,301.58c.29,.04,.58,.08,.87,.11-.04,.99-.08,1.98-.12,2.98-3.35,2.71-6.69,5.42-10.04,8.13,3.04-3.28,6.08-6.57,9.13-9.85,.06-.46,.11-.91,.17-1.37Z"/><path class="cls-68" d="M210.6,258.81c.06,2.62,.12,5.25,.19,7.87-.29,.68-.58,1.35-.87,2.03-.11-3.29-.22-6.58-.33-9.87,.34,0,.67-.02,1.01-.03Z"/><path class="cls-69" d="M209.83,301.58c-.06,.46-.11,.91-.17,1.37-1.65-2.05-3.29-4.11-4.94-6.16,1.7,1.6,3.4,3.2,5.1,4.79Z"/><path class="cls-55" d="M241.03,255.94c1.14,1.23,2.27,2.46,3.41,3.69,4.47,3.67,2.85,6.43-.8,9.8-7.13,6.57-6.95,6.77-13.97-.18-.94-.93-1.79-1.97-2.82-2.79-1.87-1.49-1.86-2.74-.03-4.32,1.88-1.61,3.78-3.3,5.24-5.27,2.77-3.74,5.59-4.4,8.98-.93Z"/><path class="cls-55" d="M236.42,303.47c-2.2-2.93-3.24-4.68-4.63-6.1-7-7.21-7.06-7.2-.03-14.19,5.94-5.91,4.38-5.27,9.73-.06,6.86,6.68,6.77,6.68-.04,13.65-1.61,1.65-2.81,3.71-5.03,6.71Z"/><path class="cls-47" d="M139.13,87.15c1.88,3.48,3.26,5.76,4.27,8.19,.16,.37-1.36,1.44-2.11,2.19-1.48-2.19-3.09-4.31-4.35-6.61-.24-.43,.89-1.61,2.19-3.77Z"/><path class="cls-50" d="M128.96,92.67c1.54,3.37,2.74,5.78,3.67,8.29,.12,.32-1.18,1.17-1.81,1.77-1.52-2.22-3.14-4.38-4.44-6.72-.19-.35,1.16-1.55,2.58-3.34Z"/><path class="cls-45" d="M123.59,95.41c1.67,3.2,2.98,5.34,3.86,7.65,.2,.53-1.09,1.62-1.7,2.45-1.59-2.15-3.29-4.24-4.66-6.53-.21-.34,1.07-1.58,2.5-3.58Z"/><path class="cls-43" d="M138.98,98.06c-1.36,.98-2.19,1.58-3.02,2.18-1.42-2.22-2.88-4.42-4.15-6.72-.08-.14,2.09-1.72,2.13-1.68,1.66,1.88,3.19,3.86,5.04,6.22Z"/><path class="cls-51" d="M162.76,86.76c-1.49,.03-3.75,.66-4.31-.04-1.35-1.71-1.99-4.01-2.68-6.15-.12-.36,.93-1.56,1.43-1.56,.83,0,2.05,.46,2.42,1.11,1.2,2.14,2.09,4.45,3.1,6.69,0,0,.04-.05,.04-.05Z"/><path class="cls-45" d="M166.78,73.89c1.29,.34,2.58,.69,3.86,1.03,.62,1.53,1.48,3.03,1.75,4.62,.15,.88-.55,2.07-1.19,2.84-.24,.29-1.98-.04-2.1-.41-.9-2.65-1.57-5.38-2.31-8.08Z"/><path class="cls-44" d="M162.92,74.53c1.88,3.34,3.3,5.58,4.36,7.98,.18,.4-1.19,1.49-1.85,2.26-1.54-2.09-3.21-4.1-4.52-6.32-.27-.46,.84-1.73,2.01-3.92Z"/><path class="cls-45" d="M171.48,73.84c.65-.95,1.29-1.9,1.94-2.86,.81,.7,2.1,1.26,2.33,2.11,.58,2.16,.68,4.45,.97,6.69-4.17,.15-3.77-3.72-5.24-5.94Z"/></g></g></svg>