<?xml version="1.0" encoding="utf-8"?>
<!-- Generator: Adobe Illustrator 27.0.1, SVG Export Plug-In . SVG Version: 6.00 Build 0)  -->
<svg version="1.1" id="Layer_2_00000106140342000779048000000006978488489323855002_"
	 xmlns="http://www.w3.org/2000/svg" xmlns:xlink="http://www.w3.org/1999/xlink" x="0px" y="0px" viewBox="0 0 2538 962"
	 style="enable-background:new 0 0 2538 962;" xml:space="preserve">
<style type="text/css">
	.st0{fill:#62A0A5;}
	.st1{fill:#E17E3D;}
	.st2{fill:#F1C67D;}
	.st3{fill:#9BC0CB;}
	.st4{fill:#BBA9E1;}
	.st5{fill:#F0DFC1;}
	.st6{fill:#F1E1C3;}
	.st7{fill:#F9F2E6;}
	.st8{fill:#010101;}
	.st9{fill:#000101;}
	.st10{fill:#040607;}
	.st11{fill:#040403;}
	.st12{fill:#020101;}
	.st13{fill:#020100;}
	.st14{fill:#E17F3D;}
	.st15{fill:#080706;}
	.st16{fill:#9ABEC9;}
	.st17{fill:#E28343;}
	.st18{fill:#BCAAE1;}
	.st19{fill:#BDACE2;}
</style>
<g id="Layer_1-2">
	<g>
		<path class="st0" d="M0,731c1.3-8.8,2.3-17.7,4.1-26.5c11.3-55,39.5-99.4,84.6-132.9c28.2-21,60-34.1,94.6-39.2
			c56.6-8.3,109,3.7,156.1,36.5c50.8,35.5,81.3,84.4,90.2,145.6c9.4,64.8-7.7,122.9-50.4,172.7c-34.9,40.7-79.6,64.2-132.5,72.4
			c-5.5,0.9-11.1,1.5-16.6,2.3h-27c-1.1-0.3-2.2-0.8-3.3-0.9c-31.7-2.3-61.5-11-89.1-26.8C52.7,901,17.2,851.5,3.9,786
			c-1.7-8.6-2.6-17.3-3.9-26C0,750.3,0,740.7,0,731L0,731z M225.2,746.7h64v-52.1h-64V746.7z M329.8,763.3h-63.7v52.2h63.7V763.3z
			 M243.9,763.4h-63.6v52.1h63.6V763.4z M148.6,799.9c0.2-0.8,0.4-1.1,0.4-1.4c0-49.8,0.1-99.7,0.1-149.5c0-4.7-2.5-6.8-7.1-7.1
			c-10.3-0.8-20.6-1.8-30.9-2.6c-5.5-0.5-10.9-1-16.4-1.2c-3.9-0.1-6.4,2-6.6,5.9c-0.1,3.6,1.9,5.9,5.7,6.2c2.8,0.2,5.6,0.5,8.4,0.8
			c11.4,1,22.8,2,34.7,3.1v145.8H148.6z M171.4,834.6c1.5,0.1,2.8,0.2,4.1,0.2c53.7,0,107.3,0,161,0c1.2,0,2.3,0,3.5-0.2
			c3.6-0.6,5.9-2.6,5.9-6.3c0-4-2.6-5.9-6.4-6.3c-1.2-0.1-2.3,0-3.5,0c-53,0-106,0-159,0c-1.8,0-3.6,0-5.6,0L171.4,834.6
			L171.4,834.6z M143,802.8c-14.4,0-25.8,11.2-25.8,25.4c-0.1,14.4,11.6,26,26,25.9c14-0.1,25.8-11.9,25.8-25.8
			C168.8,814.3,157.2,802.8,143,802.8L143,802.8z"/>
		<path class="st1" d="M1014,962c-8.5-1.3-17-2.3-25.5-3.9c-55.9-10.8-101-39-134.9-84.8c-23-31-36.6-66-40.4-104.4
			c-6-61.9,11-117,51.7-164.3c32.8-38,74.2-61.8,123.7-70.8c67.4-12.2,127.6,4.4,179.8,48.3c41.2,34.6,65.5,79.3,73.2,132.5
			c8.2,56.4-4.1,108.6-37,155.4c-33,46.9-78.2,75.7-134.2,87.6c-8.1,1.7-16.5,2.3-24.7,3.4c-1.3,0.2-2.5,0.6-3.7,0.9L1014,962
			L1014,962z M1073.9,634c-12,0.7-24.6,6-34.2,17.2c-14.8,17.3-15.4,38.2-2.1,58.5c11.3,17.2,23,34.3,34.6,51.4
			c3.7,5.4,4.8,5.4,8.4,0c11.4-17,22.9-34,34.1-51c2.3-3.5,4.2-7.2,5.8-11C1133.1,668.9,1109.3,633.7,1073.9,634L1073.9,634z
			 M1003.3,754.2c-3,15.3-6,30-8.9,44.8c24.6,10.2,48.6,20.1,73.3,30.3c0-15.7,0.1-30.4-0.1-45.2c0-1.3-1.8-3-3.2-3.7
			c-8.3-3.8-16.8-7.2-25.2-10.8C1027.3,764.6,1015.6,759.5,1003.3,754.2L1003.3,754.2z M1001.6,672.2c-1.4-0.2-2.2-0.4-3-0.4
			c-15.6,0-31.3,0-46.9,0c-1.6,0-3.3,0.3-4.9,0.8c-10.2,3.3-16.5,17.1-12.7,27.6c0.3,0.8,1.2,1.5,2,1.8c18,8,36.1,16,54.6,24.1
			C994.5,708.1,998,690.3,1001.6,672.2z M977.6,792c2.8-14.2,5.5-27.8,8.3-41.2c0.6-2.9,0-4.5-2.9-5.7
			c-15.3-6.5-30.4-13.2-45.7-19.9c-0.9-0.4-2-0.5-3.3-0.9c0,15.9,0,31.4,0.1,46.8c0,1.3,1.1,3.3,2.2,3.7
			C949.8,780.6,963.5,786.2,977.6,792L977.6,792z M1080.8,856.8c0.1-0.2,0.2-0.5,0.2-0.7c-30-12.4-60.1-24.8-90.6-37.4
			c-2.6,12.9-5.1,25.3-7.7,38.1H1080.8z M964.8,857.1c2.8-14,5.4-27.5,8.2-41c0.7-3.5-0.4-4.9-3.7-6.2c-10.1-3.8-20-8.1-30-12.2
			c-1.6-0.7-3.2-1.2-5.2-2c0,15.4-0.2,30,0.1,44.7c0.2,8.8,7.4,16,15.7,16.7C954.7,857.4,959.5,857.1,964.8,857.1L964.8,857.1z
			 M1085,789.5c0,15.5,0,30,0.1,44.4c0,1.1,0.6,2.9,1.4,3.2c9.7,4.2,19.4,8.2,30,12.6c1-4.1,2.5-7.4,2.6-10.7
			c0.3-10.5,0.2-21,0.1-31.4c0-1.2-0.8-3.2-1.7-3.6C1106.9,799.2,1096.3,794.5,1085,789.5L1085,789.5z M1051.2,752.2
			c0.2-0.2,0.5-0.5,0.7-0.8c-7.9-11.7-15.7-23.5-23.6-35.2c-6.2-9.3-10.1-19.4-11.5-30.8c-3.2,15.8-6.4,31.7-9.7,47.8
			C1022.1,739.7,1036.7,745.9,1051.2,752.2L1051.2,752.2z M1119,724.1c-10.5,15.5-20.2,29.9-30,44.5c10.2,4.4,19.9,8.6,30,13V724.1z
			"/>
		<path class="st2" d="M1883,962c-7-1-14.1-1.9-21.1-3c-36.8-5.6-69.8-20.3-99.1-43c-33.7-26.2-57.3-59.9-71.3-100.3
			c-9-26-13-53-11.3-80.5c2.9-49.6,20.2-93.6,53.1-131.1c32.8-37.5,73.8-61,122.8-70.2c61.7-11.5,118.2,1.8,168.4,38.8
			c46.9,34.5,74.7,81.3,84.5,138.7c0.4,2.5,0.8,4.9,1.1,7.4c0.5,14.1,1.1,28.1,1.6,42.2c-0.3,1.1-0.6,2.2-0.8,3.3
			c-1.9,11.6-2.9,23.4-5.9,34.8c-12,46.9-37,85.8-75,116c-29.3,23.2-62.6,38.1-99.7,43.9c-7.2,1.1-14.4,2-21.5,3L1883,962L1883,962z
			 M1830,746c0,32.2,0,64.3,0,96.5c0,9.5,5,14.5,14.4,14.5c35.2,0,70.3,0,105.4,0c9.5,0,14.2-4.6,14.2-14.1c0-64.3,0-128.6,0-192.9
			c0-9.4-4.7-14-14.2-14c-35.2,0-70.3,0-105.4,0c-9.4,0-14.3,5-14.3,14.5C1830,682.4,1830,714.2,1830,746L1830,746z"/>
		<path class="st3" d="M1054.2,302c-18.9,43.1-48.6,76.7-89.2,100.6c-24,14.1-49.7,23.3-77.2,27.1c-48.5,6.7-94.3-1.8-137-26.2
			c-39.4-22.5-68.6-54.4-88.1-95.2c-9.8-20.6-15.9-42.2-18.8-64.8c-4.7-36.6-0.4-71.9,13-106.2c12.8-32.8,32.5-60.8,59.1-84.1
			c31-27.2,67.1-43.3,107.4-50.7c6.5-1.2,13.1-1.7,19.6-2.5c9.3,0,18.7,0,28,0c4.4,0.6,8.8,1.3,13.1,1.9
			c42.7,5.6,80.3,22.5,113,50.6c30.6,26.3,51.8,58.7,64.3,96.8c5.2,15.9,8.2,32.4,9.8,49.2c1.8,19.1-0.1,37.8-2.4,56.6
			C1063.9,270.7,1059,286.4,1054.2,302L1054.2,302z M743.1,171.8c-2.5,0.7-4.9,1.6-7.3,1.9c-4.1,0.4-5.4,2.1-5.4,6.4
			c0.2,23.7,0.1,47.3,0.1,71c0,1.9,0.2,3.8,0.3,6.1h12.3v37.8h27.7c0-1.8,0-3.5,0-5.1c0-12.2,0.2-24.3-0.1-36.5
			c-0.1-3.7,1.2-5.9,4.6-6.3c1.8-0.2,4.1,0.7,5.7,1.9c2.5,1.9,4.3,4.7,6.8,6.6c4.7,3.5,5.8,7.9,5.5,13.4c-0.4,8.6-0.1,17.2-0.1,25.9
			H821v-38.5c6.4,1.6,12.1,3.8,18,4.4c4.6,0.5,4.9,2.5,4.9,6.1c-0.2,9.3,0,18.6,0,28h27.6v-43.5h22.2v43.5h27.5v-46.7
			c7.5-0.5,15,7.1,21.8-2.1c0.2,0.4,0.5,0.9,0.7,1.3v47.6H971v-62.6c4.2-1,8.1-1.9,11.8-2.7v-22c-4.1-1.8-7.9-3.6-11.9-5.4v-63.4
			h-27.5c0,2.2,0,4,0,5.8c0,14-0.1,28,0.1,42c0.1,4.6-0.3,7.4-6,5.6c-1.8-0.6-4.2,0.3-6.3,0.7c-3.3,0.6-6.6,1.4-10.4,2.2v-56.2
			h-27.6V186H871v-47.2h-27.2c0,1.9,0,3.6,0,5.2c0,10.8,0.1,21.7-0.1,32.5c0,1.5-0.9,4.1-1.9,4.4c-6.7,2-13.6,3.5-20.8,5.3v-47.4
			h-27.7c0,10.7,0.1,21.1,0,31.4c-0.1,12.3,2.2,10.8-11.4,10.7c-7.7,0-11-3.7-11-11.3c0-4.7,0-9.3,0-14c0-5.6,0-11.2,0-16.9h-27.7
			L743.1,171.8L743.1,171.8z"/>
		<path class="st4" d="M2111.9,761.1c-0.5-14.1-1.1-28.1-1.6-42.2c1.6-10.3,2.7-20.7,4.8-30.8c7-34,21.9-64.4,43.8-91.3
			c19.9-24.5,44.1-43.7,72.6-57.3c23.9-11.4,48.9-18.3,75.5-20.5c41.3-3.5,79.9,5.2,116.5,24.1c17.2,8.9,32.6,20.4,46.8,33.7
			c26.9,25.2,45.6,55.6,57.2,90.5c5.2,15.8,8.5,32,9.6,48.7c0.1,1.1,0.6,2.2,0.9,3.2v29c-0.3,1.2-0.8,2.5-0.9,3.7
			c-0.8,6.8-1.1,13.6-2.4,20.2c-10.4,54.6-36.9,99.8-81.1,133.7c-42.7,32.7-91.1,47.4-145,43.5c-20.5-1.5-40.3-5.7-59.6-13
			c-29.3-11-54.9-27.8-76.8-49.8c-18.8-18.9-33.5-40.9-44.1-65.4C2119.7,801.8,2114,781.9,2111.9,761.1L2111.9,761.1z M2403.1,682.8
			c0-2.1,0-3.9,0-5.7c-0.1-17.7-12-32.8-28.9-36.6c-16.5-3.7-34.2,3.7-38.9,20.3c-1,3.4-3.7,4.3-6.7,3.1c-3.6-1.4-4-4.5-2.4-7.5
			c3.5-6.4,7.5-12.7,11.5-19.3c-12.4-16.6-35.1-23.7-56.6-16.8c-9.9,3.2-18.1,9-24.6,17.3c-10.4,13.3-13.9,28.4-11.2,44.9
			c-0.9,0.2-1.4,0.3-1.9,0.3c-24.9,1.8-42.1,20.7-41.3,45.5c0.8,23.6,19.8,41.5,44.2,41.5c10.8,0,21.7,0,32.5,0h9.1v35
			c-5.8,0.8-10.4-0.7-13.6-4.5c-5.4-6.3-15.3-7-21.5-1.4c-6.4,5.8-6.8,15.9-0.9,21.9c6.4,6.5,16.5,6.8,22-0.3c3-3.9,6-5,10.7-4.9
			c13.8,0.3,13.8,0.1,13.8-13.6c0-10.6,0-21.2,0-31.7h20.4c0,15.4-0.1,30.4,0.1,45.3c0,3.5-0.6,5.9-4,8.1c-7.4,4.8-8.4,15.4-2.7,22
			c5.8,6.7,15.7,7.2,22.2,1c6.1-5.8,6.6-16.9-0.4-21.6c-5.2-3.6-5.2-7.6-5.2-12.5c0.1-10.3,0-20.7,0-31c0-3.8,0-7.5,0-11.4h20.2
			c0,10.4,0.1,20.5,0,30.6c-0.1,15-0.9,15.3,15.1,14.9c3.9-0.1,6.4,0.8,8.9,4.3c5.2,7.3,15.1,7.7,22,1.5c6.5-5.9,6.5-15.9,0-22.2
			c-6.1-5.8-17.2-5.8-21.6,1.3c-3.8,6.2-8.5,4.7-13.8,4.5V770c14.6,0,28.9,0.1,43.2,0c11.1-0.1,21-3.7,29-11.5
			c13.3-13,17.1-28.7,11.2-46.2C2436.7,693.7,2422.8,684.5,2403.1,682.8L2403.1,682.8z"/>
		<path class="st5" d="M1676,734.3c-0.3,119.2-96,216.1-216,215.6c-118.1-0.5-214.4-96.4-213.9-217.2
			c0.5-118.3,96.7-215.6,217-214.6C1579.4,519,1675.9,613.9,1676,734.3L1676,734.3z M1355.3,717.8c0.7,0.9,2.1,2.5,3.5,4.1
			c1.3-1.7,2.9-3.2,3.8-5c0.7-1.6,0.3-3.6,0.6-5.4c8.8-52.3,56.3-87.8,109.3-81.7c42.3,4.8,75.8,34.9,85,76.6
			c0.9,4.1,1.2,8.3,2.4,12.2c0.4,1.4,2.6,2.2,4,3.3c0.9-1.6,2.5-3.1,2.5-4.7c0-3.1-0.9-6.2-1.4-9.3c-7.6-43.7-44.9-79.5-88.8-84.9
			c-32.9-4.1-62.1,4.5-86.9,26.6C1369.6,667.3,1358.6,689.8,1355.3,717.8L1355.3,717.8z M1425.6,758.3c9.7-9.5,19.1-18.6,28.4-27.8
			c0.8-0.8,2-1.5,2.4-2.5c0.7-1.4,1.2-3,1.2-4.6c0.1-7.8,0.1-15.7,0.1-23.5c0-5.9,0-11.8,0-17.7c-15.4-0.3-32.1,11-38.8,26.3
			C1411.1,726.2,1413.6,742.7,1425.6,758.3L1425.6,758.3z M1430.8,763.3c11.7,11.7,31.2,14.9,47.8,8c16.2-6.7,28.1-23.2,28.1-39.4
			c-14.3,0-28.6,0-42.9,0c-0.9,0-1.9,0.6-2.6,1.2C1451.1,743.1,1440.9,753.2,1430.8,763.3L1430.8,763.3z M1461.9,804.5
			c33.5-0.8,62-21.8,71.6-53c0.8-2.7,3.7-6.7-0.8-8.1c-4.7-1.5-4.8,3.3-5.8,6.3c-10.4,32.7-45.1,53.4-78.6,46.5
			c-26.9-5.5-44.6-21.7-53.5-47.6c-0.9-2.6-1.5-6.4-5.2-5.3c-4.4,1.2-2.2,4.9-1.4,7.5C1397.6,782.5,1428.8,805.2,1461.9,804.5
			L1461.9,804.5z M1464.9,724.6h41.9c1.4-19.9-21.5-42.9-41.9-42.1V724.6z M1439.1,825.2c-0.4-0.4-0.6-0.5-0.7-0.6
			c-38.9-10.4-63.6-34.9-73.8-74c-0.4-1.7-3.2-2.8-4.9-4.2c-0.6,1.9-2.2,4.1-1.8,5.8c5.7,25.1,18.9,45.5,39.4,61
			c12.2,9.2,25.7,15.7,41.3,18.3C1438.8,829.1,1438.9,827,1439.1,825.2L1439.1,825.2z M1461,846.4c8.7,0,16-7.1,15.9-15.7
			c-0.1-8.4-7.2-15.6-15.5-15.7c-8.7-0.1-16,6.9-16.2,15.5C1445.1,839.1,1452.3,846.4,1461,846.4L1461,846.4z M1485.1,675
			c8.4,0,15.7-7.2,15.8-15.5c0.1-8.5-7.7-16-16.6-15.9c-8.1,0.1-15.1,7.2-15.2,15.6C1469,667.7,1476.4,675,1485.1,675z
			 M1557.1,651.8c0.2,0,0.3,0,0.5,0c15.4-0.1,13.4,1.7,13.4-13.6c0-15.7,2.1-13.7-13.7-13.7c-15.2,0-13.7-2.2-13.8,13.8
			C1543.5,654.4,1542.5,651.6,1557.1,651.8z M1566,750.6c-1.5-1.6-2.4-3.5-3.8-3.8c-3.3-0.8-4,1.8-4.7,4.4
			c-7.9,30.7-26,53-54.3,67.2c-1.7,0.9-3.9,4-3.5,5.3c1,3.4,4,2.5,6.6,1.2c22-11,39.1-27,49.9-49.2
			C1560,767.7,1562.6,759.3,1566,750.6L1566,750.6z M1557.7,816.8c-15.8,0.3-14.2-2.7-14.3,14.3c-0.1,15.2-0.9,13,13,13
			c16.4,0,14.5,1.9,14.5-14.1C1571,814.9,1572.8,817,1557.7,816.8L1557.7,816.8z M1365.7,624.5c-3,0-6,0-9,0
			c-3.4-0.1-4.8,1.5-4.7,4.9c0.1,5.8,0.1,11.7,0,17.5c-0.1,3.7,1.6,5.1,5.2,5c5.5-0.1,11-0.2,16.5,0c3.8,0.1,5.6-1.3,5.4-5.2
			c-0.2-3,0-6,0-9C1378.8,622.6,1381,624.6,1365.7,624.5L1365.7,624.5z M1379,830.1c0-2.7-0.1-5.3,0-8c0.2-3.8-1.2-5.5-5.2-5.3
			c-5.5,0.2-11,0.2-16.5,0c-3.8-0.1-5.6,1.3-5.4,5.2c0.2,3.2,0,6.3,0,9.5c0.1,14-1.8,12.7,12.9,12.7
			C1381.1,844.1,1378.8,845.9,1379,830.1L1379,830.1z M1384.7,721.1c0.9,0.9,2.2,2.5,3.6,4c1.2-1.4,3.3-2.7,3.6-4.3
			c4.8-30.9,21.9-50.9,51.9-60c1.4-0.4,2.3-2.9,3.4-4.4c-1.8-0.7-3.9-2.4-5.2-1.9c-7,2.5-14.2,4.9-20.6,8.7
			C1400.1,675.9,1388.4,695.2,1384.7,721.1L1384.7,721.1z M1503.6,673.3c2.2,2,4.3,3.8,6.3,5.7c11.6,11.4,18,25.2,20.2,41.2
			c0.2,1.8,2.4,4.6,3.7,4.6c3.1,0.1,3.7-2.8,3.2-5.5c-0.9-4.7-1.6-9.5-3-14.1c-4.9-15.5-14-27.9-27-38
			C1505.7,669.5,1504.7,671.3,1503.6,673.3L1503.6,673.3z M1544.4,728.9c-2.5,2.4-4.9,3.6-5.2,5.2c-0.5,3.3,2.4,4.2,5,3.6
			c1.9-0.5,3.5-2.1,5.2-3.2C1548.1,732.9,1546.7,731.4,1544.4,728.9L1544.4,728.9z M1526.6,729.2c-2.2,2.2-4.6,3.4-4.8,5
			c-0.5,3.3,2.2,3.8,5,3.8c2.7,0,5.5-0.6,5-3.8C1531.5,732.5,1529,731.3,1526.6,729.2L1526.6,729.2z M1397.5,728.9
			c-2.5,2.4-4,3.9-5.5,5.4c1.7,1.2,3.3,3.4,4.9,3.3c1.9-0.1,3.6-2.1,5.5-3.3C1401.1,732.8,1399.8,731.4,1397.5,728.9L1397.5,728.9z
			 M1379.9,739.7c2.2-2.5,3.6-4.1,5-5.7c-1.7-1.1-3.4-2.7-5.3-3.1c-2.6-0.6-5.5,0.2-4.9,3.6C1375,736.1,1377.4,737.3,1379.9,739.7
			L1379.9,739.7z M1362.3,728.9c-2.4,2.5-3.9,4-5.3,5.4c1.6,1.2,3.1,3,5,3.4c2.5,0.6,5.5-0.1,5.1-3.5
			C1366.9,732.7,1364.6,731.4,1362.3,728.9L1362.3,728.9z M1561.7,729.1c-2.2,2.2-4.5,3.5-4.8,5c-0.6,3.4,2.3,3.7,4.9,3.7
			c2.7,0,5.5-0.6,4.9-3.9C1566.5,732.5,1564.1,731.3,1561.7,729.1L1561.7,729.1z"/>
		<path class="st6" d="M624.2,366c119.9,0.4,216.1,97.1,215.8,217.8c-0.3,118.7-95.6,216.8-217.3,216.1
			c-119-0.7-215.5-97.6-214.5-219C409.1,463,503.7,366.3,624.2,366L624.2,366z M832,583.4c-0.3-116.3-92.8-208.6-206.5-209.3
			c-116.8-0.7-208.7,93.3-209.4,207.2c-0.7,117.5,92.5,210.1,207.1,210.5C739.5,792.2,831.2,698.9,832,583.4L832,583.4z"/>
		<path class="st6" d="M1054.2,302c4.9-15.6,9.8-31.3,14.6-46.9c7.3-12.8,13.8-26.2,22-38.4c24.4-35.9,57.4-61.4,97.6-77.7
			c17.5-7.1,35.7-11.6,54.3-13.8c17.2-2,34.4-1.7,51.7,0.6c33.2,4.4,63.8,15.9,91.6,34.4c27.6,18.4,50,42.1,66.6,71
			c10.2,17.7,18,36.3,22.9,56.1c5.2,21.1,7.7,42.5,6.3,64.2c-2.9,45.6-18,86.8-46.6,122.9c-22.1,28-49.5,49-82,63.5
			c-19.4,8.6-39.6,14.6-60.8,16.2c-10.7,0.8-21.5,2.2-32.3,1.8c-27.8-0.9-54.6-6.8-80-18.2c-27.8-12.5-52.2-29.9-72.6-52.6
			c-17.8-19.7-31.3-42-41-66.8c-6.9-17.7-11.3-36.1-13.4-54.9c-1.8-16.5-2-33.1,0.6-49.7C1054.4,309.8,1054.1,305.9,1054.2,302
			L1054.2,302z M1266.8,548c114.3-0.3,205.8-92.2,207-205.3c1.2-117-91-210-205.5-210.6c-117.6-0.6-207.5,93.7-208.3,206.3
			C1059.3,455.5,1153.3,547.8,1266.8,548z"/>
		<path class="st7" d="M1880,359.8c0-118.2,96.2-218.7,221.2-215.6c111.2,2.8,212.1,94.6,208.6,223.1
			c-3,111.8-94.4,211.7-221.6,208.5C1975.2,572.8,1880.5,480.8,1880,359.8L1880,359.8z M2302,360.4c-0.6-116-91.1-205.4-200.6-208.2
			c-123.2-3.1-210.2,93.9-213.2,200.9c-3.5,123,93.8,213.2,202.9,214.9C2209.1,569.8,2301.7,474.6,2302,360.4L2302,360.4z"/>
		<path class="st8" d="M225.2,746.7v-52.1h64v52.1H225.2z"/>
		<path class="st8" d="M329.8,763.3v52.2h-63.7v-52.2H329.8z"/>
		<path class="st9" d="M243.9,763.4v52.1h-63.6v-52.1H243.9z"/>
		<path class="st8" d="M148.6,799.9H137V654.1c-11.9-1.1-23.3-2.1-34.7-3.1c-2.8-0.2-5.6-0.6-8.4-0.8c-3.8-0.3-5.8-2.5-5.7-6.2
			c0.1-4,2.7-6.1,6.6-5.9c5.5,0.2,11,0.7,16.4,1.2c10.3,0.9,20.6,1.9,30.9,2.6c4.6,0.3,7.1,2.4,7.1,7.1c0,49.8,0,99.7-0.1,149.5
			C149,798.8,148.9,799.1,148.6,799.9L148.6,799.9z"/>
		<path class="st10" d="M171.4,834.7v-12.5c2,0,3.8,0,5.6,0c53,0,106,0,159,0c1.2,0,2.3-0.1,3.5,0c3.8,0.4,6.4,2.3,6.4,6.3
			c0,3.7-2.3,5.7-5.9,6.3c-1.1,0.2-2.3,0.2-3.5,0.2c-53.6,0-107.3,0-161,0C174.3,834.9,173,834.7,171.4,834.7L171.4,834.7z"/>
		<path class="st11" d="M143,802.8c14.2,0,25.9,11.5,25.9,25.5c0,13.9-11.7,25.7-25.8,25.8c-14.4,0.1-26.1-11.5-26-25.9
			C117.2,814,128.6,802.8,143,802.8L143,802.8z M127.9,828.7c0.1,8.3,7.1,15.2,15.3,15c8.2-0.2,15-7.2,14.9-15.5
			c-0.1-8.3-7.1-15.2-15.4-15C134.3,813.3,127.8,820.1,127.9,828.7L127.9,828.7z"/>
		<path class="st12" d="M1073.9,634c35.4-0.3,59.2,34.8,46.7,65.1c-1.6,3.8-3.5,7.6-5.8,11c-11.3,17.1-22.7,34.1-34.1,51
			c-3.7,5.4-4.8,5.4-8.4,0c-11.6-17.1-23.2-34.1-34.6-51.4c-13.4-20.3-12.7-41.2,2.1-58.5C1049.3,640,1061.9,634.7,1073.9,634
			L1073.9,634z M1075.6,707.4c15.3-0.2,27.2-11.9,26.8-26.2c-0.4-14.8-12.4-26.5-27-26.1c-14.4,0.3-25.6,12-25.4,26.5
			C1050.2,695.9,1061.8,707.6,1075.6,707.4L1075.6,707.4z"/>
		<path class="st12" d="M1003.3,754.2c12.3,5.3,24.1,10.3,35.8,15.3c8.4,3.6,16.9,7.1,25.2,10.8c1.4,0.6,3.2,2.4,3.2,3.7
			c0.2,14.8,0.1,29.6,0.1,45.2c-24.6-10.2-48.7-20.1-73.3-30.3C997.3,784.2,1000.2,769.5,1003.3,754.2L1003.3,754.2z"/>
		<path class="st13" d="M1001.6,672.2c-3.6,18-7.2,35.8-10.8,54c-18.5-8.2-36.6-16.1-54.6-24.1c-0.8-0.4-1.8-1.1-2-1.8
			c-3.9-10.5,2.5-24.3,12.7-27.6c1.5-0.5,3.2-0.8,4.9-0.8c15.6-0.1,31.3-0.1,46.9,0C999.4,671.8,1000.2,672,1001.6,672.2z"/>
		<path class="st13" d="M977.6,792c-14.1-5.8-27.7-11.3-41.3-17.1c-1.1-0.5-2.2-2.4-2.2-3.7c-0.2-15.5-0.1-30.9-0.1-46.8
			c1.3,0.3,2.3,0.5,3.3,0.9c15.2,6.6,30.4,13.4,45.7,19.9c2.9,1.2,3.5,2.8,2.9,5.7C983.1,764.2,980.4,777.7,977.6,792L977.6,792z"/>
		<path class="st13" d="M1080.8,856.8h-98.1c2.6-12.7,5.1-25.2,7.7-38.1c30.5,12.6,60.5,25,90.6,37.4
			C1080.9,856.4,1080.8,856.6,1080.8,856.8z"/>
		<path class="st13" d="M964.8,857c-5.3,0-10.1,0.3-14.9-0.1c-8.4-0.6-15.5-7.9-15.7-16.7c-0.3-14.6-0.1-29.3-0.1-44.7
			c2,0.8,3.6,1.4,5.2,2c10,4.1,19.9,8.3,30,12.2c3.2,1.2,4.4,2.7,3.7,6.2C970.2,829.5,967.5,843.1,964.8,857L964.8,857z"/>
		<path class="st13" d="M1085,789.5c11.3,5,21.9,9.7,32.4,14.5c0.9,0.4,1.7,2.4,1.7,3.6c0.1,10.5,0.3,21-0.1,31.4
			c-0.1,3.3-1.6,6.6-2.6,10.7c-10.6-4.4-20.3-8.4-30-12.6c-0.8-0.3-1.4-2.1-1.4-3.2C1085,819.5,1085,805,1085,789.5L1085,789.5z"/>
		<path class="st11" d="M1051.2,752.2c-14.6-6.3-29.2-12.5-44.1-19c3.3-16.1,6.5-32,9.7-47.8c1.4,11.4,5.4,21.5,11.5,30.8
			c7.8,11.8,15.7,23.5,23.6,35.2C1051.7,751.7,1051.5,752,1051.2,752.2L1051.2,752.2z"/>
		<path class="st12" d="M1119,724.1v57.5c-10.1-4.4-19.8-8.6-30-13C1098.8,754,1108.5,739.6,1119,724.1z"/>
		<path class="st14" d="M1830,746c0-31.8,0-63.6,0-95.5c0-9.6,4.9-14.5,14.3-14.5c35.2,0,70.3,0,105.4,0c9.5,0,14.2,4.6,14.2,14
			c0,64.3,0,128.6,0,192.9c0,9.5-4.7,14.1-14.2,14.1c-35.2,0-70.3,0-105.4,0c-9.4,0-14.4-5-14.4-14.5
			C1830,810.3,1830,778.1,1830,746L1830,746z M1930.2,728c-7.5,6.6-14.5,12.7-21.4,18.9c-2.5,2.3-4.2,5.2-1.7,8.3
			c2.4,3,5.6,2.3,8.4,0.1c0.4-0.3,0.9-0.5,1.2-0.8c8.1-7.3,16.3-14.7,24.4-22.1c3.3-3,3.2-5.9,0-8.9c-5.2-4.7-10.3-9.5-15.5-14.1
			c-3.8-3.4-7.7-6.8-11.8-9.9c-1.2-0.8-3.8-1-4.9-0.2c-1.4,0.9-2.7,3.2-2.6,4.8c0.1,1.7,1.5,3.6,2.9,4.9
			C1915.9,715.3,1922.8,721.4,1930.2,728L1930.2,728z M1863.8,728c7.4-6.7,14.3-13.2,21.3-19.4c2.8-2.4,4.2-5.1,1.6-8.1
			c-2.5-2.9-6-2.2-8.5,0c-8.7,7.7-17.2,15.6-25.8,23.4c-2.7,2.5-2.9,5.3-0.2,7.8c8.7,7.9,17.5,15.8,26.3,23.6
			c2.6,2.3,5.8,3.1,8.2-0.2c2.3-3.2,0.9-5.8-1.9-8.2C1878,740.9,1871.1,734.6,1863.8,728L1863.8,728z M1896.9,831
			c7.2,0,13-5.6,13.1-12.9c0.1-7.1-5.8-13.1-12.9-13.1c-7.3,0-13.1,6-13,13.5C1884.1,825.3,1889.9,831,1896.9,831L1896.9,831z"/>
		<path class="st9" d="M743.1,171.8v-33h27.7c0,5.7,0,11.3,0,16.9c0,4.7,0,9.3,0,14c0,7.6,3.3,11.3,11,11.3
			c13.6,0.1,11.3,1.6,11.4-10.7c0.1-10.3,0-20.6,0-31.4h27.7v47.4c7.3-1.8,14.1-3.3,20.8-5.3c1-0.3,1.9-2.9,1.9-4.4
			c0.2-10.8,0.1-21.7,0.1-32.5c0-1.6,0-3.3,0-5.2H871V186h22.1v-47.1h27.6V195c3.8-0.8,7.1-1.6,10.4-2.2c2.1-0.4,4.4-1.3,6.3-0.7
			c5.7,1.8,6.1-0.9,6-5.6c-0.2-14-0.1-28-0.1-42c0-1.8,0-3.6,0-5.8h27.5v63.3c4.1,1.9,7.9,3.6,11.9,5.4v22
			c-3.7,0.9-7.6,1.8-11.8,2.7V295h-27.4v-47.6c-0.2-0.4-0.5-0.9-0.7-1.3c-6.8,9.1-14.3,1.6-21.8,2.1v46.7h-27.5v-43.5h-22.2v43.5
			h-27.6c0-9.4-0.1-18.7,0-28c0.1-3.6-0.3-5.6-4.9-6.1c-5.9-0.6-11.6-2.7-18-4.4v38.5h-27.8c0-8.7-0.3-17.3,0.1-25.9
			c0.3-5.6-0.8-10-5.5-13.4c-2.5-1.9-4.3-4.7-6.8-6.6c-1.5-1.2-3.8-2.1-5.7-1.9c-3.4,0.3-4.7,2.6-4.6,6.3
			c0.2,12.2,0.1,24.3,0.1,36.5c0,1.6,0,3.2,0,5.1h-27.7v-37.8h-12.3c-0.1-2.2-0.3-4.1-0.3-6.1c0-23.7,0.2-47.3-0.1-71
			c0-4.3,1.2-6,5.4-6.4C738.2,173.5,740.5,172.5,743.1,171.8L743.1,171.8z M968.1,233.2c-7.7-0.3-12.3,4.1-17.5,7.6
			c-3.8,2.5-4.5,5.4-4.5,9.4c0.2,11.6,0.1,23.3,0.1,34.9v7.9c6.4,0,12-0.1,17.7,0c3.3,0.1,4.4-1.3,4.3-4.4c-0.2-6.5,0-13,0-19.4
			C968.1,257.2,968.1,245.3,968.1,233.2L968.1,233.2z M946.2,142.1c0,16.8,0,33.1,0.1,49.4c0,1,1,2.7,1.8,3c6.5,2,13,3.7,19.6,5.5
			v-57.9L946.2,142.1L946.2,142.1z M896.1,142.2c0,14.7,0,28.9,0.1,43c0,1.2,0.8,3,1.8,3.5c4.7,2.6,9.6,5.1,14.5,7.3
			c3.8,1.7,5.5,0.5,5.5-3.7c0-16,0-31.9,0-47.9c0-0.8-0.2-1.5-0.3-2.2L896.1,142.2L896.1,142.2z M918,270c0-6.5-0.1-13,0-19.5
			c0.1-3.1-0.9-5-4.2-4.4c-5.5,1-10.9,2.2-16.3,3.6c-0.7,0.2-1.4,2.1-1.4,3.2c-0.1,12.2,0,24.3-0.1,36.5c0,2.8,1.1,3.8,3.9,3.7
			c4.5-0.2,9-0.2,13.5,0c3.4,0.2,4.8-1,4.7-4.6C917.9,282.3,918,276.1,918,270L918,270z M796.4,142.1v38.2
			c7.2,1.3,14.1,2.6,21.2,3.9v-42.1H796.4z M846.6,142.2c0,12.1,0,23.9,0.1,35.7c0,1,0.9,2.7,1.7,2.9c6.4,1.7,12.9,3.1,19.8,4.7
			v-43.2L846.6,142.2L846.6,142.2z M746.3,258.5V293c6.3,0,12.3,0.2,18.2-0.2c1.2-0.1,3.2-2.3,3.3-3.5c0.2-12.6,0.2-25.2,0.2-37.6
			C760.8,253.9,753.9,256.1,746.3,258.5z M846.7,293c4.1,0,7.5,0,11,0c12.2-0.1,10.6,1.3,10.7-10.5c0-10.1,0-20.1,0-31.2
			c-7.2,3.5-13.5,6.5-19.8,9.6c-0.8,0.4-1.7,1.3-1.7,2C846.7,272.8,846.7,282.7,846.7,293L846.7,293z M767.6,175.3v-32.9h-21.3v29.5
			C754.6,166.5,760.7,171.9,767.6,175.3z M796.2,293c6.6,0,12.7,0.1,18.8-0.1c1,0,2.9-1.9,2.9-2.9c0.2-9.9,0.1-19.8,0.1-30.7
			c-6.3,3-11.9,5.7-17.5,8.5c-1.3-1-2.6-2-4.3-3.3L796.2,293L796.2,293z"/>
		<path class="st8" d="M2403.1,682.8c19.8,1.7,33.7,10.9,40,29.5c5.9,17.5,2,33.2-11.2,46.2c-8,7.8-17.9,11.4-29,11.5
			c-14.3,0.1-28.6,0-43.2,0v35.2c5.3,0.3,10,1.7,13.8-4.5c4.4-7.1,15.6-7.2,21.6-1.3c6.5,6.3,6.6,16.3,0,22.2
			c-6.9,6.2-16.8,5.8-22-1.5c-2.5-3.5-5-4.4-8.9-4.3c-15.9,0.5-15.2,0.1-15.1-14.9c0.1-10.1,0-20.2,0-30.6h-20.2c0,3.8,0,7.6,0,11.4
			c0,10.3,0.1,20.7,0,31c-0.1,5-0.1,9,5.2,12.5c7,4.8,6.5,15.9,0.4,21.6c-6.6,6.2-16.4,5.7-22.2-1c-5.7-6.6-4.7-17.1,2.7-22
			c3.3-2.2,4-4.5,4-8.1c-0.1-15-0.1-30-0.1-45.3h-20.4c0,10.5,0,21.1,0,31.7c0,13.7,0,13.9-13.8,13.6c-4.7-0.1-7.6,1-10.7,4.9
			c-5.5,7.1-15.5,6.9-22,0.3c-5.9-6-5.5-16.1,0.9-21.9c6.1-5.6,16-4.9,21.5,1.4c3.2,3.8,7.8,5.3,13.6,4.5v-35h-9.1
			c-10.8,0-21.7,0-32.5,0c-24.5-0.1-43.5-17.9-44.2-41.5c-0.8-24.8,16.3-43.6,41.3-45.5c0.5,0,0.9-0.2,1.9-0.3
			c-2.8-16.6,0.8-31.7,11.2-44.9c6.4-8.2,14.7-14.1,24.6-17.3c21.5-6.9,44.2,0.2,56.6,16.8c-4,6.6-7.9,12.8-11.5,19.3
			c-1.6,2.9-1.2,6.1,2.4,7.5c3,1.2,5.8,0.3,6.7-3.1c4.7-16.7,22.4-24,38.9-20.3c17,3.8,28.8,18.9,28.9,36.6
			C2403.1,678.9,2403.1,680.7,2403.1,682.8L2403.1,682.8z"/>
		<path class="st15" d="M1355.3,717.8c3.3-28,14.3-50.5,34.1-68.2c24.7-22.1,54-30.7,86.9-26.6c43.9,5.5,81.2,41.2,88.8,84.9
			c0.5,3.1,1.4,6.2,1.4,9.3c0,1.6-1.6,3.1-2.5,4.7c-1.4-1.1-3.6-1.9-4-3.3c-1.2-4-1.5-8.2-2.4-12.2c-9.2-41.6-42.6-71.7-85-76.6
			c-53-6-100.5,29.4-109.3,81.7c-0.3,1.8,0.1,3.8-0.6,5.4c-0.8,1.9-2.5,3.4-3.8,5C1357.4,720.3,1356.1,718.7,1355.3,717.8
			L1355.3,717.8z"/>
		<path class="st11" d="M1425.6,758.3c-12.1-15.6-14.6-32.1-6.7-49.8c6.8-15.3,23.4-26.6,38.8-26.3c0,5.9,0,11.8,0,17.7
			c0,7.8,0.1,15.7-0.1,23.5c0,1.5-0.5,3.2-1.2,4.6c-0.5,1-1.6,1.7-2.4,2.5C1444.7,739.7,1435.3,748.8,1425.6,758.3L1425.6,758.3z"/>
		<path class="st13" d="M1430.8,763.3c10.2-10.1,20.3-20.1,30.5-30.2c0.7-0.6,1.7-1.2,2.6-1.2c14.3-0.1,28.6,0,42.9,0
			c0,16.2-11.9,32.7-28.1,39.4C1462,778.2,1442.5,775,1430.8,763.3L1430.8,763.3z"/>
		<path class="st15" d="M1461.9,804.5c-33.1,0.8-64.3-22-73.8-53.7c-0.8-2.7-2.9-6.3,1.4-7.5c3.8-1,4.3,2.7,5.2,5.3
			c8.9,25.9,26.6,42,53.5,47.6c33.5,6.9,68.2-13.8,78.6-46.5c0.9-3,1-7.8,5.8-6.3c4.5,1.5,1.7,5.5,0.8,8.1
			C1523.9,782.7,1495.4,803.7,1461.9,804.5L1461.9,804.5z"/>
		<path class="st11" d="M1464.9,724.6v-42.1c20.3-0.8,43.3,22.2,41.9,42.1H1464.9z"/>
		<path class="st15" d="M1439.1,825.2c-0.1,1.8-0.3,4-0.5,6.4c-15.6-2.7-29.1-9.1-41.3-18.3c-20.6-15.5-33.8-35.9-39.4-61
			c-0.4-1.7,1.1-3.8,1.8-5.8c1.7,1.4,4.5,2.5,4.9,4.2c10.2,39.1,34.9,63.6,73.8,74C1438.5,824.6,1438.6,824.8,1439.1,825.2
			L1439.1,825.2z"/>
		<path class="st11" d="M1461,846.4c-8.7,0-15.9-7.3-15.8-15.9c0.2-8.6,7.5-15.7,16.2-15.5c8.3,0.1,15.4,7.3,15.5,15.7
			C1477,839.3,1469.8,846.5,1461,846.4L1461,846.4z"/>
		<path class="st11" d="M1485.1,675c-8.7,0-16.1-7.3-15.9-15.8c0.1-8.3,7.1-15.5,15.2-15.6c8.9-0.1,16.7,7.3,16.6,15.9
			C1500.8,667.8,1493.5,674.9,1485.1,675z"/>
		<path class="st11" d="M1557.1,651.8c-14.6-0.2-13.6,2.5-13.6-13.5c0-16-1.4-13.8,13.8-13.8c15.9,0,13.7-2,13.7,13.7
			c0,15.4,2,13.5-13.4,13.6C1557.4,651.8,1557.3,651.8,1557.1,651.8z"/>
		<path class="st15" d="M1566,750.6c-3.4,8.7-6,17.1-9.8,25c-10.8,22.2-27.9,38.3-49.9,49.2c-2.6,1.3-5.6,2.2-6.6-1.2
			c-0.4-1.3,1.8-4.4,3.5-5.3c28.3-14.2,46.5-36.5,54.3-67.2c0.7-2.6,1.4-5.2,4.7-4.4C1563.5,747.1,1564.5,749,1566,750.6L1566,750.6
			z"/>
		<path class="st11" d="M1557.7,816.8c15,0.2,13.2-1.9,13.2,13.2c0,16,1.9,14.1-14.5,14.1c-13.9,0-13.1,2.2-13-13
			C1543.6,814.1,1541.9,817.1,1557.7,816.8L1557.7,816.8z"/>
		<path class="st12" d="M1365.7,624.5c15.4,0.2,13.2-1.9,13.3,13.2c0,3-0.1,6,0,9c0.2,3.9-1.6,5.3-5.4,5.2c-5.5-0.2-11-0.1-16.5,0
			c-3.6,0.1-5.2-1.3-5.2-5c0.1-5.8,0.1-11.7,0-17.5c-0.1-3.4,1.3-5,4.7-4.9C1359.7,624.5,1362.7,624.5,1365.7,624.5L1365.7,624.5z"
			/>
		<path class="st8" d="M1379,830.1c-0.2,15.8,2.1,14-14.1,14c-14.7,0-12.8,1.4-12.9-12.7c0-3.2,0.1-6.3,0-9.5
			c-0.2-3.9,1.6-5.3,5.4-5.2c5.5,0.2,11,0.2,16.5,0c4-0.2,5.4,1.5,5.2,5.3C1378.9,824.8,1379,827.4,1379,830.1L1379,830.1z"/>
		<path class="st15" d="M1384.7,721.1c3.7-25.9,15.4-45.2,36.8-58c6.3-3.8,13.6-6.2,20.6-8.7c1.3-0.5,3.4,1.2,5.2,1.9
			c-1.1,1.5-2,4-3.4,4.4c-30,9.1-47.1,29.1-51.9,60c-0.2,1.6-2.3,2.9-3.6,4.3C1387,723.6,1385.6,722.1,1384.7,721.1L1384.7,721.1z"
			/>
		<path class="st15" d="M1503.6,673.3c1.1-2,2.1-3.8,3.4-6.1c13,10.1,22.2,22.6,27,38c1.4,4.6,2.1,9.4,3,14.1
			c0.5,2.7-0.1,5.5-3.2,5.5c-1.3,0-3.4-2.8-3.7-4.6c-2.3-16-8.7-29.8-20.2-41.2C1507.9,677,1505.7,675.2,1503.6,673.3L1503.6,673.3z
			"/>
		<path class="st15" d="M1397.5,728.9c2.3,2.5,3.6,3.9,4.9,5.4c-1.8,1.2-3.6,3.2-5.5,3.3c-1.6,0.1-3.3-2.1-4.9-3.3
			C1393.5,732.8,1395,731.3,1397.5,728.9L1397.5,728.9z"/>
		<path class="st15" d="M1379.9,739.7c-2.5-2.4-4.9-3.6-5.2-5.2c-0.6-3.4,2.4-4.2,4.9-3.6c1.9,0.4,3.5,2,5.3,3.1
			C1383.5,735.6,1382.1,737.2,1379.9,739.7L1379.9,739.7z"/>
		<path class="st0" d="M127.9,828.7c-0.1-8.5,6.4-15.3,14.8-15.5c8.2-0.2,15.2,6.7,15.4,15c0.1,8.3-6.6,15.4-14.9,15.5
			C135,843.9,128,837,127.9,828.7L127.9,828.7z M143,838.2c5.5,0,9.9-4.3,9.9-9.7c0-5.4-4.3-9.8-9.8-9.9c-5.6-0.1-10.3,4.5-10.1,10
			C133.1,834.1,137.4,838.2,143,838.2L143,838.2z"/>
		<path class="st1" d="M1075.6,707.4c-13.8,0.2-25.4-11.5-25.6-25.8c-0.2-14.6,10.9-26.2,25.4-26.5c14.6-0.3,26.7,11.3,27,26.1
			C1102.8,695.6,1090.9,707.2,1075.6,707.4L1075.6,707.4z"/>
		<path class="st2" d="M1930.2,728c-7.3-6.6-14.3-12.8-21.1-19.1c-1.3-1.3-2.8-3.2-2.9-4.9c-0.1-1.6,1.2-3.8,2.6-4.8
			c1.1-0.8,3.8-0.6,4.9,0.2c4.1,3,8,6.5,11.8,9.9c5.2,4.6,10.3,9.4,15.5,14.1c3.2,3,3.3,5.9,0,8.9c-8.1,7.4-16.3,14.7-24.4,22.1
			c-0.4,0.3-0.9,0.5-1.2,0.8c-2.8,2.2-5.9,2.9-8.4-0.1c-2.5-3.1-0.8-6,1.7-8.3C1915.7,740.7,1922.7,734.6,1930.2,728L1930.2,728z"/>
		<path class="st2" d="M1863.8,728c7.3,6.6,14.2,12.9,21.2,18.9c2.8,2.4,4.1,5,1.9,8.2c-2.4,3.3-5.6,2.5-8.2,0.2
			c-8.9-7.8-17.6-15.6-26.3-23.6c-2.7-2.5-2.5-5.3,0.2-7.8c8.6-7.9,17.1-15.8,25.8-23.4c2.5-2.2,6-3,8.5,0c2.6,3,1.1,5.7-1.6,8.1
			C1878.1,714.9,1871.2,721.3,1863.8,728L1863.8,728z"/>
		<path class="st2" d="M1896.9,831c-7,0-12.9-5.7-12.9-12.5c-0.1-7.5,5.7-13.5,13-13.5c7.1,0,13,6,12.9,13.1
			C1909.9,825.4,1904.2,831,1896.9,831L1896.9,831z"/>
		<path class="st3" d="M968.1,233.2c0,12.1,0,24,0,36c0,6.5-0.1,13,0,19.4c0.1,3.2-1,4.5-4.3,4.4c-5.6-0.2-11.3,0-17.7,0v-7.9
			c0-11.6,0.1-23.3-0.1-34.9c-0.1-4.1,0.7-6.9,4.5-9.4C955.8,237.3,960.4,232.9,968.1,233.2L968.1,233.2z"/>
		<path class="st3" d="M946.2,142.1h21.5V200c-6.6-1.8-13.2-3.5-19.6-5.5c-0.9-0.3-1.8-1.9-1.8-3
			C946.2,175.2,946.2,158.9,946.2,142.1L946.2,142.1z"/>
		<path class="st3" d="M896.1,142.2h21.6c0.1,0.7,0.3,1.5,0.3,2.2c0,16,0,31.9,0,47.9c0,4.1-1.7,5.4-5.5,3.7
			c-5-2.2-9.8-4.7-14.5-7.3c-1-0.6-1.8-2.3-1.8-3.5C896.1,171.1,896.1,157,896.1,142.2L896.1,142.2z"/>
		<path class="st3" d="M918.1,270c0,6.2-0.2,12.3,0.1,18.5c0.1,3.6-1.2,4.7-4.7,4.6c-4.5-0.2-9-0.2-13.5,0c-2.8,0.1-3.9-0.9-3.9-3.7
			c0.1-12.2,0-24.3,0.1-36.5c0-1.1,0.7-3,1.4-3.2c5.4-1.4,10.8-2.6,16.3-3.6c3.3-0.6,4.3,1.3,4.2,4.4C918,257,918.1,263.5,918.1,270
			L918.1,270z"/>
		<path class="st16" d="M796.5,142.1h21.2v42.1c-7.1-1.3-14-2.6-21.2-3.9V142.1z"/>
		<path class="st3" d="M846.6,142.3h21.5v43.2c-6.9-1.6-13.4-3-19.8-4.7c-0.8-0.2-1.7-1.9-1.7-2.9
			C846.6,166.2,846.6,154.4,846.6,142.3L846.6,142.3z"/>
		<path class="st16" d="M746.3,258.5c7.6-2.4,14.5-4.5,21.6-6.7c0,12.3,0.1,24.9-0.2,37.6c0,1.2-2.1,3.4-3.3,3.5
			c-6,0.4-11.9,0.2-18.2,0.2V258.5z"/>
		<path class="st3" d="M846.7,293c0-10.3,0-20.2,0.1-30.1c0-0.7,1-1.6,1.7-2c6.3-3.1,12.7-6.1,19.8-9.6c0,11,0,21.1,0,31.2
			c-0.1,11.8,1.5,10.5-10.7,10.5C854.2,293,850.8,293,846.7,293L846.7,293z"/>
		<path class="st16" d="M767.6,175.3c-6.9-3.4-13-8.8-21.3-3.4v-29.5h21.3V175.3L767.6,175.3z"/>
		<path class="st16" d="M796.2,293v-28.6c1.6,1.3,3,2.3,4.3,3.3c5.7-2.7,11.2-5.4,17.5-8.5c0,10.9,0.1,20.8-0.1,30.7
			c0,1-1.8,2.9-2.9,2.9C808.9,293.1,802.8,293,796.2,293L796.2,293z"/>
		<path class="st17" d="M516.3,654.6c-17-1.9-18.3-3.4-18.3-20c0-31.2,0-62.3,0-93.5c0-10.1,4.1-14.2,14.2-14.3
			c13.5,0,26.9,0,41.3,0c0-6.8,0.2-13.2,0-19.6c-0.6-13.5,2-19.5,19-19.4c54.7,0.4,109.3,0.1,164,0.2c11.2,0,15.4,4.2,15.4,15.4
			c0,32.5,0,65,0,97.5c0,10.4-4.6,15-14.9,15c-11.5,0-23,0-34.5,0h-5.9c0,8.2,0,15.8,0,23.5c0,11.3-4,15.3-15.4,15.3
			c-43,0-86,0.1-129-0.1c-3.8,0-6.5,1.1-9.1,3.8c-5.4,5.7-10.9,11.3-16.7,16.5c-1.7,1.5-5.1,2.9-6.8,2.2c-1.7-0.8-3-4.1-3.2-6.4
			C516,665.5,516.3,660.1,516.3,654.6L516.3,654.6z M526.2,659.6c0.5,0.3,1,0.6,1.5,0.9c3.9-4.2,8-8.3,11.7-12.6
			c2.5-2.9,5.4-3.8,9.2-3.8c44,0.1,88,0,132,0.2c4.3,0,5.7-1,5.7-5.5c-0.2-32-0.2-64,0-96c0-4.5-1-5.9-5.8-5.9
			c-55.7,0.2-111.3,0.2-166.9,0c-4.9,0-5.7,1.7-5.6,6c0.2,30,0.1,60,0.1,90c0,11.5,0,11.5,11.6,12.1c4.2,0.2,6.5,2.3,6.6,6.5
			C526.3,654.1,526.2,656.8,526.2,659.6L526.2,659.6z M696.6,605.4c13.8,0,26.7-0.2,39.7,0.1c4.5,0.1,6-1.1,5.9-5.8
			c-0.2-31.8-0.2-63.6,0-95.5c0-5-1.2-6.4-6.3-6.4c-55.3,0.2-110.6,0.1-165.9,0.1c-1.2,0-2.5-0.3-3.5,0.1c-1.1,0.5-2.7,1.7-2.7,2.6
			c-0.2,8.6-0.1,17.2-0.1,26.3h6.6c37.2,0,74.3,0,111.5,0c10.6,0,14.8,4.2,14.9,14.8c0.1,18.8,0,37.7,0,56.5
			C696.6,600.3,696.6,602.4,696.6,605.4L696.6,605.4z"/>
		<path class="st18" d="M1187.4,231c0.8,4.7,1.2,8.2-3.8,10.4c-4.5,2-5.4,6.6-4.5,11.2c1.1,4.9,4.6,7.9,9.5,8.2
			c6.5,0.4,13,0.4,19.5,0c4.7-0.2,9-4.3,9.6-8.8c0.6-4.2-0.7-8.5-4.6-10.2c-5.4-2.4-4.2-6.2-3.8-10.5h46.3c0.5,4.1,1.8,7.8-3.5,10.4
			c-4.4,2.2-5.7,6.6-4.2,11.6c1.4,4.8,4.9,7.3,9.5,7.6c6.3,0.4,12.7,0.3,19,0c4.6-0.2,8.1-2.7,9.3-7c1.2-4.5,1-9.6-3.6-12
			c-5.1-2.6-4.4-6.1-3.8-10.6h46.2c0.8,4.3,1.7,8.1-3.9,10.5c-4.1,1.7-5.1,6-4.4,10.2c0.8,4.8,4.6,8.5,9.6,8.8
			c6.5,0.4,13,0.3,19.5,0c4.9-0.3,9-4.4,9.7-8.7c0.7-4.9-1.3-9.5-5.9-11.5c-5-2.1-2.2-5.8-3.1-10.2c6.3,0.7,12.2,0.4,17.5,2.2
			c7.4,2.5,9.4,9.5,9.4,16.6c0.1,27.2,0.2,54.3,0,81.4c-0.1,12.1-6.7,18.2-18.9,18.2c-58,0-115.9,0-173.9,0c-12.8,0-19-6.2-19-19
			c0-26.6,0.2-53.3-0.1-79.9c-0.1-10.9,6.7-20.1,19.1-19C1182.4,231.2,1184.7,231,1187.4,231L1187.4,231z"/>
		<path class="st19" d="M1280.3,451.1c10.7,0,20.8,0,30.9,0c1.5,0,3.3-0.2,4.4,0.5c1.3,0.9,2.9,2.8,2.7,4c-0.1,1.2-2.3,2.3-3.7,3.2
			c-0.5,0.3-1.3,0.1-2,0.1c-30.5,0-61,0-91.5,0c-2.8,0-5.9-0.1-5.9-3.7c0-3.3,2.8-4.1,5.8-4.1c10.7,0,21.3,0,32.4,0V374h-5.3
			c-17.8,0-35.7,0-53.5,0c-2.9,0-6.4,0.3-6.4-3.6c0-3.9,3.4-4.3,6.6-4.2c7.5,0,14.9,0,22.4,0c1.9-4.1-2-12.6,7.8-9.6
			c0.2,0.3,0.5,0.7,0.6,1.1c0.5,5.7,3.7,8.5,9.6,8.5c6,0,11.9,0,18.3,0c0.2-3.4,0.4-6.3,0.6-9.6h25.4c0.2,2.9,0.4,6,0.7,9.6
			c8.5,0,16.8,0.1,25-0.1c0.9,0,2.4-1.6,2.6-2.6c0.4-2.1,0.1-4.3,0.1-6.9h6.3c0.3,0.3,0.4,0.4,0.5,0.6c0.9,6,4.4,9.1,10.7,9.1
			c4.8,0,9.7-0.4,14.5,0.2c2.1,0.3,5.2,2.5,5.4,4.2c0.3,2.9-2.6,3.5-5.4,3.5c-18-0.1-36,0-54,0c-1.8,0-3.6,0-5.6,0L1280.3,451.1
			L1280.3,451.1z"/>
		<path class="st19" d="M1270.9,245.8c2.1,0.2,3.8-0.1,4.7,0.5c1.6,1.1,2.6,2.9,3.9,4.4c-1.4,1.1-2.8,3-4.4,3.1
			c-5.3,0.4-10.7,0.4-16,0c-1.7-0.1-3.2-2.2-4.7-3.4c1.5-1.2,2.9-2.6,4.5-3.5c0.9-0.5,2.2-0.2,4.2-0.4c0-6,0-11.9,0-17.9
			c0-3-0.3-6.7,4-6.6c4.2,0.1,3.8,3.8,3.8,6.8C1270.9,234.4,1270.9,239.9,1270.9,245.8L1270.9,245.8z"/>
		<path class="st18" d="M1202,245.7c2.1,0.3,4,0,5.3,0.8c1.5,0.9,3,2.7,3.3,4.2c0.1,0.9-2.3,3-3.6,3.1c-5.6,0.4-11.3,0.4-16.9,0
			c-1.4-0.1-2.7-2.3-4-3.6c1.3-1.1,2.7-3.1,4-3.1c3.9,0.1,4.2-1.9,4.2-5c-0.1-4.6-0.3-9.3,0.2-13.9c0.3-2.4-0.3-6.5,4.1-6.1
			c3.8,0.4,3.6,3.7,3.6,6.6C1202,234.3,1202,239.9,1202,245.7L1202,245.7z"/>
		<path class="st18" d="M1339.5,245.7c1.9,0.3,3.9,0.1,5.4,0.9c1.3,0.7,3,2.6,2.9,3.8c-0.1,1.3-2.2,3.2-3.5,3.3
			c-5.8,0.4-11.6,0.4-17.4,0c-1.3-0.1-2.5-2.2-3.7-3.3c1.3-1.2,2.7-3.4,3.9-3.4c4.3,0.1,5-1.9,4.9-5.5c-0.2-5-0.3-10,0.1-14.9
			c0.1-1.6,2-3.1,3-4.6c1.3,1.6,3.6,3.1,3.8,4.8c0.5,5.6,0.2,11.3,0.2,16.9C1339.1,244.3,1339.3,245,1339.5,245.7L1339.5,245.7z"/>
		<path class="st2" d="M2178.2,405.6v-39.1h67.5v39.1H2178.2z"/>
		<path class="st2" d="M2100.2,405.6v-39.2h67.5v39.2H2100.2z"/>
		<path class="st2" d="M1944.2,455.6v-39.2h67.5v39.2H1944.2z"/>
		<path class="st2" d="M2022.2,455.6v-39.2h67.5v39.2H2022.2L2022.2,455.6z"/>
		<path class="st2" d="M2100.4,416.3h67.3v39.3h-67.3V416.3z"/>
		<path class="st2" d="M2178.3,455.6v-39.3h67.4v39.3H2178.3z"/>
		<path class="st2" d="M2089.6,405.9h-67.2v-39.5h67.2V405.9z"/>
		<path class="st2" d="M2245.8,316.4v39.2h-67.5v-39.2L2245.8,316.4L2245.8,316.4z"/>
		<path class="st2" d="M2022.2,355.6v-39.2h67.5v39.2H2022.2L2022.2,355.6z"/>
		<path class="st2" d="M2178.2,305.6v-39.2h67.5v39.2H2178.2z"/>
		<path class="st11" d="M143,838.2c-5.6,0-9.9-4.1-10-9.6c-0.1-5.6,4.5-10.2,10.1-10c5.5,0.1,9.8,4.5,9.8,9.9
			C153,833.9,148.5,838.2,143,838.2L143,838.2z"/>
		<path class="st14" d="M558.4,571.8c10.1-0.1,17.7,7.5,17.7,17.6c0,10-7.7,17.7-17.6,17.7c-9.5,0-17.8-8.1-18.1-17.7
			C540.2,579.9,548.5,571.8,558.4,571.8z"/>
		<path class="st14" d="M636.2,571.8c9.9,0,17.8,7.8,17.8,17.6c0,9.8-7.9,17.6-17.7,17.6c-9.9,0-17.8-7.8-17.8-17.6
			C618.5,579.5,626.2,571.8,636.2,571.8L636.2,571.8z"/>
		<path class="st17" d="M597.5,571.7c10,0.1,17.6,7.8,17.5,17.8c-0.1,9.9-7.8,17.5-17.8,17.5c-10,0-17.5-7.7-17.4-17.8
			C579.9,579,587.4,571.7,597.5,571.7L597.5,571.7z M597.3,581.2c-4.3,0.1-7.7,3.7-7.6,8.2c0.1,4.2,3.5,7.7,7.6,7.7
			c4.3,0,7.8-3.6,7.9-8C605.1,584.7,601.6,581.1,597.3,581.2z"/>
	</g>
</g>
<rect x="1333.8" y="726" class="st5" width="73.4" height="15.6"/>
<path class="st15" d="M1364.7,737.1h-6c-1.7,0-3-1.3-3-3l0,0c0-1.7,1.3-3,3-3h6c1.7,0,3,1.3,3,3l0,0
	C1367.7,735.8,1366.4,737.1,1364.7,737.1z"/>
<path class="st15" d="M1381.4,737.1h-6c-1.7,0-3-1.3-3-3l0,0c0-1.7,1.3-3,3-3h6c1.7,0,3,1.3,3,3l0,0
	C1384.4,735.8,1383,737.1,1381.4,737.1z"/>
<path class="st15" d="M1398,737.1h-6c-1.7,0-3-1.3-3-3l0,0c0-1.7,1.3-3,3-3h6c1.7,0,3,1.3,3,3l0,0
	C1401,735.8,1399.7,737.1,1398,737.1z"/>
<rect x="1514.3" y="725" class="st5" width="59.5" height="15.6"/>
<path class="st15" d="M1531.4,737.1h-6c-1.7,0-3-1.3-3-3l0,0c0-1.7,1.3-3,3-3h6c1.7,0,3,1.3,3,3l0,0
	C1534.4,735.8,1533.1,737.1,1531.4,737.1z"/>
<path class="st15" d="M1548.1,737.1h-6c-1.7,0-3-1.3-3-3l0,0c0-1.7,1.3-3,3-3h6c1.7,0,3,1.3,3,3l0,0
	C1551.1,735.8,1549.7,737.1,1548.1,737.1z"/>
<path class="st15" d="M1564.7,737.1h-6c-1.7,0-3-1.3-3-3l0,0c0-1.7,1.3-3,3-3h6c1.7,0,3,1.3,3,3l0,0
	C1567.7,735.8,1566.4,737.1,1564.7,737.1z"/>
</svg>
