<?xml version="1.0" encoding="utf-8"?>
<!-- Generator: Adobe Illustrator 28.0.0, SVG Export Plug-In . SVG Version: 6.00 Build 0)  -->
<svg version="1.1" id="Layer_1" xmlns="http://www.w3.org/2000/svg" xmlns:xlink="http://www.w3.org/1999/xlink" x="0px" y="0px"
	 viewBox="0 0 132.7 125.7" style="enable-background:new 0 0 132.7 125.7;" xml:space="preserve">
<style type="text/css">
	.st0{font-family:'SegoeUI-Bold';}
	.st1{font-size:96px;}
</style>
<g id="meradesh-logo" transform="translate(-1937 -6535)">
	<g id="M-01" transform="translate(1936.2 6549.895)">
		<path id="Path_444" d="M27.5,110.7l-1.4-0.6c-0.4-0.2-0.6-0.5-0.6-0.9V-13.1c0-0.6,0.4-1.1,1-1.1c0.3,0,0.5,0.1,0.7,0.3l1.4,1.3
			c0.2,0.2,0.3,0.5,0.3,0.8v121.4c0.1,0.5-0.2,1.1-0.7,1.2C28,110.9,27.7,110.8,27.5,110.7z"/>
		<path id="Path_445" d="M0.8,84v-1.4c0-0.6,0.5-1.1,1-1.1c0,0,0,0,0.1,0h130.5c0.6,0,1.1,0.5,1.1,1.1c0,0,0,0,0,0.1V84
			c0,0.6-0.5,1.1-1,1.1c0,0,0,0-0.1,0H1.9C1.3,85.1,0.8,84.6,0.8,84C0.8,84,0.8,84,0.8,84z"/>
	</g>
	<text transform="matrix(1 0 0 1 1971 6619.7124)" class="st0 st1">M</text>
</g>
</svg>
