<svg id="PM" xmlns="http://www.w3.org/2000/svg" width="128.651" height="125" viewBox="0 0 128.651 125">
  <g id="Group_64" data-name="Group 64">
    <path id="Path_318" data-name="Path 318" d="M0,19.721,65.09,51.846l62.729-32.125L67.515,0Z"/>
    <path id="Path_319" data-name="Path 319" d="M0,28.769v57.8l59.543,38.284V60.61Z" transform="translate(0 0.143)"/>
    <path id="Path_320" data-name="Path 320" d="M68.374,60.263v64.57l59.48-38.284V28.769Z" transform="translate(0.797 0.143)"/>
  </g>
  <g id="Group_65" data-name="Group 65" transform="translate(76.011 40.068)">
    <path id="Path_321" data-name="Path 321" d="M75.1,64.605l2.52-1.361v45.881l-2.52,1.488Z" transform="translate(-75.102 -39.347)" fill="#fff"/>
    <path id="Path_322" data-name="Path 322" d="M81.1,61.07l4.164-2.255v45.352L81.1,106.73Z" transform="translate(-75.001 -39.421)" fill="#fff"/>
    <path id="Path_323" data-name="Path 323" d="M87.046,57.885l2.072-1.114v44.8l-2.072,1.449Z" transform="translate(-74.902 -39.455)" fill="#fff"/>
    <path id="Path_324" data-name="Path 324" d="M90.607,55.838l2.268-1.26V99.242l-2.268,1.449Z" transform="translate(-74.842 -39.492)" fill="#fff"/>
    <path id="Path_325" data-name="Path 325" d="M98.079,52.008l3.955-2.318V93.813L98.079,96.03Z" transform="translate(-74.717 -39.574)" fill="#fff"/>
    <path id="Path_326" data-name="Path 326" d="M103.443,48.909l4.114-2.218V90.28l-4.114,2.368Z" transform="translate(-74.627 -39.624)" fill="#fff"/>
    <path id="Path_327" data-name="Path 327" d="M110.661,44.866l2.084-1.26V55.977l-2.084,1.015Z" transform="translate(-74.506 -39.676)" fill="#fff"/>
    <path id="Path_328" data-name="Path 328" d="M114.241,42.865l2.072-1.26V53.976l-2.072,1.014Z" transform="translate(-74.446 -39.71)" fill="#fff"/>
    <path id="Path_329" data-name="Path 329" d="M117.816,41l2.072-1.26V52.112l-2.072,1.014Z" transform="translate(-74.386 -39.741)" fill="#fff"/>
    <path id="Path_330" data-name="Path 330" d="M111.193,86.614V83.855l3.087-1.89v2.841Z" transform="translate(-74.497 -39.033)" fill="#fff"/>
    <path id="Path_331" data-name="Path 331" d="M111.193,83.052V80.281l3.087-1.89v2.853Z" transform="translate(-74.497 -39.093)" fill="#fff"/>
    <path id="Path_332" data-name="Path 332" d="M118.336,82.334V79.562l3.1-1.889v2.853Z" transform="translate(-74.377 -39.105)" fill="#fff"/>
    <path id="Path_333" data-name="Path 333" d="M118.336,78.753V75.994l3.1-1.889v2.84Z" transform="translate(-74.377 -39.165)" fill="#fff"/>
    <path id="Path_334" data-name="Path 334" d="M114.309,77.509V67.367l1.713-1.385-3.251-2.949-3.32,6.74,1.77-.907V79.575l3.087-1.889Z" transform="translate(-74.526 -39.35)" fill="#fff"/>
    <path id="Path_335" data-name="Path 335" d="M121.316,73.222V63.061l1.719-1.373-3.257-2.948-3.32,6.739,1.77-.919V75.269l3.087-1.889Z" transform="translate(-74.409 -39.422)" fill="#fff"/>
  </g>
</svg>
