<?xml version="1.0" encoding="utf-8"?>
<!-- Generator: Adobe Illustrator 28.0.0, SVG Export Plug-In . SVG Version: 6.00 Build 0)  -->
<svg version="1.1" id="Layer_1" xmlns="http://www.w3.org/2000/svg" xmlns:xlink="http://www.w3.org/1999/xlink" x="0px" y="0px"
	 viewBox="0 0 101.1 90.9" style="enable-background:new 0 0 101.1 90.9;" xml:space="preserve">
<style type="text/css">
	.st0{enable-background:new    ;}
	.st1{fill:#1A1818;}
</style>
<g class="st0">
	<path class="st1" d="M39.1,3.1c-2.3,0-4.1,0.1-5.5,0.3c-1.4,0.2-2.5,0.5-3.3,0.9c-0.8,0.4-1.4,0.9-1.8,1.6
		c-0.4,0.7-0.7,1.5-0.9,2.5C27.2,10.2,27,15,27,22.6v44.5c0,3.6,0,6.6,0.1,8.9c0.1,2.3,0.2,4,0.4,5.2c0.2,1.1,0.5,2.1,0.8,2.9
		c0.4,0.8,1,1.5,1.8,2c0.8,0.5,1.9,0.9,3.2,1.2s3,0.4,5.1,0.4h2.3v3.1H0v-3.1h2.3c2,0,3.7-0.1,5-0.4c1.3-0.2,2.4-0.6,3.2-1.1
		c0.8-0.5,1.4-1.1,1.8-1.9c0.4-0.7,0.7-1.6,0.9-2.6c0.2-1,0.4-2.8,0.5-5.2c0.1-2.4,0.2-5.5,0.2-9.3V22.6c0-3.6-0.1-6.6-0.2-8.9
		c-0.1-2.3-0.3-4-0.5-5.1c-0.2-1-0.5-1.8-0.8-2.5c-0.3-0.7-0.9-1.3-1.7-1.7c-0.8-0.4-1.9-0.8-3.3-1C6,3.2,4.1,3.1,1.7,3.1H0V0h101
		v3.1h-1.3c-2.3,0-4.1,0.1-5.5,0.3c-1.4,0.2-2.5,0.5-3.3,0.9C90,4.6,89.4,5.2,89,5.8c-0.4,0.7-0.7,1.5-0.9,2.5
		c-0.4,1.9-0.7,6.7-0.7,14.3v44.5c0,3.6,0,6.6,0.1,8.9c0.1,2.3,0.2,4,0.4,5.2c0.2,1.1,0.5,2,0.8,2.8c0.4,0.8,1,1.5,1.8,2
		c0.8,0.5,1.9,0.9,3.2,1.2s3.1,0.4,5.2,0.4h2.1v3.1H59.7v-3.1h3.1c2,0,3.6-0.1,4.9-0.4c1.3-0.2,2.4-0.6,3.2-1.1
		c0.8-0.5,1.4-1.1,1.8-1.9c0.4-0.7,0.7-1.6,0.9-2.6c0.4-2.1,0.6-6.9,0.6-14.5V22.6c0-7.2-0.2-11.9-0.6-14c-0.2-1-0.5-1.8-0.8-2.5
		c-0.3-0.7-0.9-1.3-1.7-1.7c-0.8-0.4-1.9-0.8-3.3-1c-1.4-0.2-3.3-0.3-5.8-0.3H39.1z"/>
</g>
</svg>
