<svg xmlns="http://www.w3.org/2000/svg" xmlns:xlink="http://www.w3.org/1999/xlink" width="384" height="287" viewBox="0 0 384 287">
  <defs>
    <clipPath id="clip-path">
      <rect id="Rectangle_209" data-name="Rectangle 209" width="384" height="287" transform="translate(1)" fill="none"/>
    </clipPath>
  </defs>
  <g id="OOH-Illus" transform="translate(-1)" clip-path="url(#clip-path)">
    <path id="Path_453" data-name="Path 453" d="M383,287.25H0V0H383ZM219.489,93.054l-.024-.008c-.308.97-.128,1.6.585,1.479,1.824-.3,2.422,1.062,3.333,2.065.594.654,1.005,1.727,2.232,1.061,1.112-.6,1.729-1.427,1.173-2.739-.5-1.17-.01-1.822,1.05-2.353,3.724-1.866,7.413-3.8,11.133-5.676a1.827,1.827,0,0,1,1.375-.223c3.2,1.778,6.34,3.665,9.531,5.46a26.31,26.31,0,0,0,5.132,2.523c.844.253,2.11-.424,2.974-1,.264-.175.027-1.516-.323-2.129-.793-1.389-1.8-2.653-2.716-3.974a46.063,46.063,0,0,1-3.42-5.08c-1.188-2.34-.747-2.774,1.408-4.322,3.318-2.384,6.492-4.973,9.646-7.574a5.4,5.4,0,0,0,1.461-2.338A2.249,2.249,0,0,0,261.684,65a8.536,8.536,0,0,0-3.255.692c-4.853,2.261-9.755,4.451-14.428,7.047a11.178,11.178,0,0,1-6.607,1.287c-3.839-.285-7.668-.69-11.506-.985a3.238,3.238,0,0,0-1.976.349,24.486,24.486,0,0,0-2.631,2.455,10.687,10.687,0,0,0,2.564,2.133c2.528,1,5.165,1.719,8.218,2.7l-8.781,7.054c-3.4-.957-6.312-2.852-9.933-1.47,1.384,1.915,2.42,3.533,3.655,4.98a12.9,12.9,0,0,0,2.487,1.814m56.176-63.147a5.582,5.582,0,0,0-.552,1.793c.164,3.17.536,6.332.619,9.5.043,1.651.639,2.01,2.144,1.793,4.5-.649,9.009-1.21,13.516-1.8.773-.1,1.546-.2,2.488-.319.07.989.168,1.719.166,2.449-.019,7.978-.181,15.957-.059,23.933.269,17.692.684,35.382,1.026,53.074.093,4.8.123,9.6.21,14.393.152,8.471.341,16.942.474,25.413.024,1.531-.148,3.066-.244,4.878,1.976-.109,3.715-.074,5.413-.321,7.333-1.067,14.647-2.255,21.98-3.324,6.958-1.014,13.957-1.771,20.888-2.939,7.054-1.189,14.042-2.77,21.07-4.119,2.858-.549,5.75-.922,8.619-1.419a8.244,8.244,0,0,0,1.548-.6c-.535-.236-1.121-.751-1.6-.666-6.741,1.209-13.463,2.521-20.2,3.766-8.134,1.5-16.269,3.006-24.417,4.435-4.535.8-9.088,1.493-13.646,2.141-5.733.815-11.481,1.529-17.22,2.3-1.409.19-1.8-.4-1.8-1.782-.01-7.475-.052-14.951-.19-22.424-.353-19-.866-38-1.114-57-.177-13.521-.028-27.047-.019-40.571,0-.553.051-1.106.088-1.834,1.4-.172,2.744-.336,4.091-.5,9.642-1.2,19.276-2.471,28.927-3.589,10.268-1.189,20.555-2.221,30.826-3.392a1.8,1.8,0,0,0,1.231-1.208,39.09,39.09,0,0,0,.051-7.081c-.418-3.357-.851-6.676-.1-10.02.295-1.314-.274-1.738-1.468-1.627-1.833.17-3.663.362-5.6.555-.2-2.484-.4-4.881-.59-7.277l-.516.017V14.5L295.512,25.4c.275-6.424.543-12.672.811-18.918l-.571-.046a1.942,1.942,0,0,0-.256.616c-.177,5.415-.357,10.829-.493,16.245-.067,2.671-.377,2.967-3.311,2.719V6.313c-.471.163-.664.365-.667.571-.1,6.039-.166,12.078-.278,18.116-.01.54-.156,1.463-.441,1.551-1.872.577-3.8.973-6,1.5-.175-7.275.406-14.245-1.738-20.94a71.744,71.744,0,0,1,.547,20.96c-2.083.363-4.05.666-5.995,1.072a5.888,5.888,0,0,0-1.5.813ZM137.528,241.766c1.309.025,1.258-.678.845-1.576-.833-1.81-1.771-3.581-2.475-5.439-1.447-3.82-2.361-7.685-1.443-11.864a40.473,40.473,0,0,0,.981-8.478c.009-2.717-.05-5.2,2.833-6.592.318-.153.527-.523.8-.781q4.5-4.3,9.009-8.589a1.407,1.407,0,0,1,.645-.345c2.859-.592,5.708-1.255,8.588-1.728,8.722-1.434,17.47-2.715,26.182-4.206,6.995-1.2,13.939-2.692,20.929-3.92,14.412-2.531,28.85-4.912,43.256-7.47,11.584-2.056,23.117-4.4,34.711-6.4,12.948-2.231,25.937-4.224,38.912-6.3,8.3-1.33,16.612-2.6,24.908-3.959,3.069-.5,6.1-1.256,9.162-1.789,6-1.044,12.018-2,18.02-3.037a4.7,4.7,0,0,0,1.374-.8c-.524-.156-1.087-.526-1.565-.437-6.847,1.282-13.661,2.754-20.526,3.926-11.232,1.917-22.508,3.576-33.743,5.476-13.751,2.327-27.475,4.813-41.217,7.189-11.353,1.964-22.72,3.847-34.074,5.806q-22.831,3.94-45.648,7.957c-6.191,1.1-12.337,2.453-18.521,3.594-9.3,1.715-18.608,3.348-27.915,5-.69.123-1.4.152-2.635.281,1.142-1,1.824-1.606,2.518-2.2a7.65,7.65,0,0,0,2.877-5.283c.106-1.383.722-1.739,1.962-1.865,4.955-.5,9.909-1.034,14.849-1.667,3.39-.435,3.581-.638,3.647-4.109.1-5.169-.012-10.341.08-15.51.187-10.521.689-21.041.63-31.56-.105-18.943-.521-37.884-.822-56.825-.063-3.985-.365-7.975-.256-11.953.288-10.463.826-20.918,1.1-31.38.242-9.155.269-18.315.373-27.474a3.364,3.364,0,0,0-.283-.95,2,2,0,0,0-.791,1.538c.005,1.555.16,3.11.15,4.665q-.082,12.993-.219,25.986c0,.5-.046,1-.056,1.495-.252,12.449-.714,24.9-.7,37.348.017,16.262.4,32.524.643,48.785.08,5.418.354,10.838.264,16.253-.145,8.717-.56,17.429-.778,26.145-.109,4.355-.005,8.716-.058,13.074-.033,2.7-.525,3.391-3.149,3.748-5.181.705-10.385,1.237-15.582,1.822a1.114,1.114,0,0,1-.52-.164c0-3.427.027-6.723-.014-10.018-.015-1.242-.626-2.663-.2-3.687,1.021-2.47.432-4.795-.089-7.12-.954-4.25-2.133-8.449-3.156-12.684-1.214-5.023-2.544-10.028-3.476-15.105a45.769,45.769,0,0,1-.866-10.536,59.417,59.417,0,0,1,1.945-10.454,20.606,20.606,0,0,1,1.844-3.931l.559.031c.567,1.814,1.231,3.605,1.68,5.448.88,3.618,1.18,7.452,2.559,10.856A143.376,143.376,0,0,0,162.84,144.5c1.669,3.068,2.4,6.1,1.195,9.478a19.942,19.942,0,0,0-.589,2.92l.475.228,2.52-1.517v6.257l.444.285a11.515,11.515,0,0,0,2.7-12.323c-1.884-6.96-4.053-13.843-6.171-20.738-1.055-3.436-2.53-6.764-3.336-10.252-1.612-6.976-2.87-14.033-4.324-21.046a11.525,11.525,0,0,0-5.575-8.22c-2.448-1.408-3.919-5.91-2.5-7.843,2.012-2.747,2.385-5.727,2.347-8.964a39.44,39.44,0,0,1,.655-5.472,52.3,52.3,0,0,0,.716-5.7,6.9,6.9,0,0,0-7.287-7.06,20.5,20.5,0,0,0-4.958.619c-2.687.8-5.667,1.055-7.556,3.64a29.969,29.969,0,0,0-6.1,14.866,26.041,26.041,0,0,1-3.918,11.14,12.942,12.942,0,0,0-1.261,10.384,3.164,3.164,0,0,1-.132,1.366c-.488,2.358-1.126,4.694-1.447,7.073-.169,1.257.484,2.637.269,3.875-.56,3.22-1.51,6.372-2.09,9.589a28.635,28.635,0,0,1-4,9.991,33.677,33.677,0,0,0-2.377,5.041c-.815,2.013-1.421,4.112-2.237,6.125-1.635,4.038-3.385,8.031-5.012,12.072-.453,1.125-.822,1.959-2.33,1.748a2.153,2.153,0,0,0-1.78.978c-.226.484.328,1.3.432,1.98a4.107,4.107,0,0,1,.082,2.121c-3.1,6.589-6.285,13.139-9.452,19.7-.8,1.666-1.626,3.325-2.274,4.649A59.077,59.077,0,0,1,81.325,181c-4.012-.745-6.17,1.194-7.69,4.585-2.162,4.823-4.573,9.536-6.657,14.392a4.337,4.337,0,0,1-3.737,2.828c-3.741.553-7.483,1.1-11.613,1.7q.459-99.325.917-198.357l-.668,0c-.811,66.411-.522,132.827-.965,199.161l14.85-2.142c-1.355,2.9-2.454,5.321-3.63,7.7a1.739,1.739,0,0,1-1.066.622c-4.875,1.266-9.726,2.644-14.647,3.7-3.7.8-7.512,1.1-11.252,1.748-9.388,1.626-18.766,3.313-28.143,5a28.548,28.548,0,0,0-2.878.825l.143.481L61.08,213.1c-1.062,3.341-2.121,6.722-3.213,10.091-.9,2.782-1.97,5.517-1.008,8.539a21.224,21.224,0,0,1,.725,3.624c.2,1.467,1.3,2.446,2.375,1.937,1.519-.72,2.678-.175,3.879.258,4.091,1.475,8.14,3.066,12.185,4.664a1.652,1.652,0,0,1,.733.995,2.955,2.955,0,0,0,4.478,1.652,2.075,2.075,0,0,1,1.375-.4,5.29,5.29,0,0,0,6.024-2.3c3.693-5.256,7.344-10.526,8.543-17.051a12.447,12.447,0,0,1,1.379-3.655c2.558-4.654,4.926-9.385,6-14.631a2.538,2.538,0,0,1,2.534-2.2c4.562-.631,9.116-1.326,13.677-1.967,1.25-.175,2.514-.246,3.625-.35.254,2.248.469,4.161.684,6.073l.469-.046a1.653,1.653,0,0,0,.094-.5,35.108,35.108,0,0,1,1.012-14.956c1.521-5.08,2.4-10.182,1.292-15.464a13.725,13.725,0,0,0-.572-1.55c-.221.629-.368.823-.327.959a22.28,22.28,0,0,1-.622,14.124,2.119,2.119,0,0,1-1.181,1.284c-3.665.72-7.359,1.289-11.033,1.96-1.884.344-3.747.8-5.619,1.2l.1.392,16.781-2.576c-.218,2.525-.346,4.63-.623,6.716a1.7,1.7,0,0,1-1.017,1.2c-5.978,1.1-11.972,2.119-18.329,3.22,2.016-4.06,3.6-7.937,2.085-11.939-1.606-4.248-6.107-4.831-9.836-6.3,1.547-3.331,3.413-6.367,4.4-9.666,2.092-7.02,5.185-13.582,8.226-20.191.221-.48-.2-1.384-.542-1.954-.29-.476-.912-.751-1.409-1.131l17.071-38.7-.6-.27c-.2.419-.409.834-.6,1.256-1.529,3.332-3.112,6.64-4.56,10.006-.88,2.045-1.531,4.188-2.323,6.272-.549,1.447-1.1,2.9-1.762,4.3-1.793,3.752-3.664,7.466-5.474,11.209q-1.454,3.005-2.8,6.063a9.746,9.746,0,0,0-.419,1.712l.728.437c.1-.291.121-.729.322-.84a1.225,1.225,0,0,1,1.061-.087,2.262,2.262,0,0,1,.751,1.194c.043.172-.518.735-.707.692-1.866-.423-2.929,1.061-4.336,1.72a1.836,1.836,0,0,1-2.759-1.97,6.837,6.837,0,0,1,.479-1.8c1.817-4.5,3.67-8.99,5.488-13.492,1.024-2.537,1.983-5.1,3.007-7.639a33.159,33.159,0,0,1,2.43-5.616c3.61-5.612,4.705-11.974,5.876-18.337.019-.1.122-.189.186-.284l1.192.739,3.652-5.346.623.186c.576,6.548,1.2,13.092,1.694,19.645a17.568,17.568,0,0,1-.348,4.6c-.264,1.365-.944,2.644-1.308,4-.693,2.575-1.3,5.172-1.925,7.765-.693,2.893-1.476,5.773-2.006,8.7-.517,2.851-.676,5.766-1.15,8.626-.721,4.351-1.808,8.654-2.3,13.026-.4,3.53,1.041,4.277,4.219,2.648.09-.046.234.013.4.027,1.176,1.595,2.606,2.626,4.766,1.891a1.26,1.26,0,0,1,1.014.186,6.094,6.094,0,0,0,6.468.705,3.76,3.76,0,0,1,2.3-.223c2.166.682,2.686,2.113,1.9,4.588-1.037,3.255-2.144,6.491-3.059,9.78a24.086,24.086,0,0,0-.344,4.32c1.725-1.288-.234-3.371,1.908-3.792,1.292-.254,2.59-.477,3.886-.713l.39.732c-1.411,1.113-2.8,2.255-4.241,3.328-1.084.807-2.6,1.281-3.292,2.322-2.967,4.446-5.681,9.061-8.528,13.588-1.645,2.614-3.246,5.271-5.1,7.736a46.8,46.8,0,0,1-5.142,5.258c-2.18,2.108-3.35,5.273-4.88,8.024-.18.323.129.918.226,1.475,2.322-1.134,3.365-3.915,6.435-3.606-.371,1.66-.694,3.1-1.014,4.546a4.371,4.371,0,0,0,1.935,4.885,21.7,21.7,0,0,0,3.99,2.007,2.045,2.045,0,0,0,2.892-.9c.594-1.239-.2-2.049-1.167-2.593a2.611,2.611,0,0,1-1.307-2.447c-.276-3.861.875-7.385,2.383-10.832a28.242,28.242,0,0,1,1.393-2.5l.581.1c1.1,4.174,2.179,8.461.931,12.742-.975,3.343-.249,6.606-.492,9.893a3.9,3.9,0,0,0,.439,2.165,7.546,7.546,0,0,0,1.708,1.538,6.5,6.5,0,0,0,1.349-1.749,30.06,30.06,0,0,0,.7-3.956c.4.613.581.852.718,1.115,2.519,4.831,2.74,4.206,7.829,3.131,3.077-.65,4.218-2.754,3.364-5.556a2.748,2.748,0,0,0-1.63-1.706c-.8-.156-1.736.387-3.009.737,1.631.088,3.26-.211,3.543.274a4.943,4.943,0,0,1,.377,3.508c-.51,1.8-2.377,1.958-3.936,2.372a2.026,2.026,0,0,1-2.591-1.18,23.689,23.689,0,0,0-2.553-3.655c-1.017-1.218-2.1-1.02-2.687.465a14.818,14.818,0,0,0-.552,2.543c-.189.941-.371,1.885-.557,2.827l-.678.131a6.841,6.841,0,0,1-.964-2.1c-.167-2.025-.009-4.077-.2-6.1-.158-1.691.278-2.571,1.969-2.419a5.872,5.872,0,0,1,3.112,1.314c1.6,1.374,2.934,3.051,4.44,4.539,1.6,1.577,3.3,1.682,4.093.685l-3.767-1.295Zm152.959,11.681c.622-.265,1.01-.449,1.411-.6,5.308-1.98,10.638-3.9,15.919-5.952,3.305-1.281,6.533-2.763,9.813-4.109a1.819,1.819,0,0,1,1.366-.042c4.2,2.3,8.372,4.648,12.543,7,2.4,1.35,4.775,2.729,7.161,4.094l.316-.559-19.6-11.563c.678-.312,1.284-.62,1.912-.874,8.116-3.291,16.66-5.516,24.388-9.794a2.559,2.559,0,0,1,2.051.145c3.2,1.664,6.335,3.467,9.521,5.166,2.146,1.145,4.341,2.2,6.513,3.291l.226-.465-16.208-9.1a5.793,5.793,0,0,1,.716-.462c3.485-1.488,6.986-2.94,10.447-4.48.445-.2.692-.841,1.031-1.277-.518-.019-1.122-.222-1.541-.027-3.552,1.648-7.038,3.44-10.622,5.012a4.042,4.042,0,0,1-2.938-.005c-3.119-1.394-6.094-3.108-9.2-4.523-5.437-2.474-10.936-4.813-16.4-7.225a5.622,5.622,0,0,1-.964-.78c8.17-2.629,16.116-5.143,24.026-7.77a5.985,5.985,0,0,1,4.481.146c2.24.926,4.566,1.648,6.869,2.418a11.031,11.031,0,0,0,1.677.295l.1-.421-9.4-3.372q0-.25,0-.5c1.287-.585,2.548-1.234,3.867-1.734,1.161-.44,2.405-.659,3.567-1.1.334-.126.508-.673.755-1.026-.38-.066-.828-.3-1.13-.172-2.3.945-4.617,1.861-6.827,2.989a3.926,3.926,0,0,1-3.676.215c-5.163-2.157-10.392-4.154-15.575-6.262-2.021-.822-3.986-1.781-6.236-2.793.708-.254,1.1-.435,1.517-.54,5.792-1.467,11.632-2.769,17.361-4.451,2.762-.811,5.2-.869,7.67.607a6.115,6.115,0,0,0,1.685.43l.1-.439-4.688-2.041c1.06-.405,1.608-.668,2.186-.827,5.761-1.586,11.53-3.141,17.285-4.746a11.852,11.852,0,0,0,1.967-.957l-.333-.723c-.887.3-1.761.651-2.662.9-5.334,1.5-10.733,2.792-15.987,4.529-2.915.964-5.527,1.6-8.29-.242a6.407,6.407,0,0,0-2.684-.742,69.719,69.719,0,0,1-16.151-4.5c-1.148-.442-2.236-1.037-3.352-1.562l.166-.546c4.039-.737,8.076-1.488,12.117-2.208,3.311-.59,6.635-1.11,9.934-1.755.434-.085.758-.731,1.133-1.118a4.915,4.915,0,0,0-1.47-.145c-1.091.228-2.138.673-3.231.882q-9.819,1.876-19.655,3.655a4.383,4.383,0,0,1-2.346-.179c-1.946-.816-3.8-1.857-5.733-2.7-.442-.192-1.079.067-1.626.119.355.413.628,1.007,1.077,1.205,1.606.711,3.272,1.289,5.222,2.034-4.4,1.3-8.4,2.465-12.386,3.647-4.036,1.2-8.058,2.4-11.995-.357-.315-.221-.921-.029-1.391-.029q-.084.346-.167.691l3.695,1.449c-7.38,1.786-14.626,3.574-21.9,5.251a4.5,4.5,0,0,1-2.8-.368c-3.342-1.665-6.594-3.509-9.915-5.216-.421-.216-1.06-.008-1.6,0a5.065,5.065,0,0,0,1.047,1.026c3.291,1.712,6.606,3.378,10.206,5.207a11.207,11.207,0,0,1-1.477.6q-12.047,2.6-24.106,5.156a2.325,2.325,0,0,1-1.573-.247c-3.08-1.951-6.109-3.986-9.185-5.944-.318-.2-.848-.071-1.28-.094.153.36.206.88.478,1.051,1.207.76,2.485,1.406,3.723,2.117,1.844,1.059,3.676,2.138,5.895,3.43a10.01,10.01,0,0,1-1.244.554q-11.524,2.365-23.056,4.689a1.791,1.791,0,0,1-1.189-.365c-2.81-1.949-5.582-3.955-8.4-5.886a6.357,6.357,0,0,0-1.726-.554,5.882,5.882,0,0,0,1.1,1.585c2.617,1.88,5.3,3.674,8.1,5.6a9.393,9.393,0,0,1-1.306.465c-6.118,1.147-12.295,2.046-18.342,3.486-4.727,1.125-8.724.923-11.787-3.337-.194-.269-.843-.211-1.281-.3.114.479.088,1.082.376,1.407a10.781,10.781,0,0,0,1.659,1.2c1,.759,1.979,1.546,3.227,2.525l-13.972,3.229a2.059,2.059,0,0,0,1.724.526,81.8,81.8,0,0,0,8.7-2.042c3.034-1,5.309-.3,7.723,1.685,3.207,2.637,6.774,4.834,10.14,7.283,1.956,1.423,3.829,2.962,5.728,4.461,1.125.887,2.23,1.8,3.682,2.973-2.06.661-3.574,1.228-5.131,1.63-5,1.293-10.029,2.49-15.028,3.794-2.706.705-5.366,1.588-8.071,2.3a2.154,2.154,0,0,1-1.707-.264c-2.242-1.969-4.393-4.043-6.58-6.075-.523-.486-1.06-.958-1.623-1.4-.04-.032-.506.386-.5.4a10.075,10.075,0,0,0,1.4,1.836c2.117,1.876,4.293,3.687,6.766,5.8l-10.941,3.56q.05.224.1.447c1.1-.24,2.215-.41,3.286-.734q3.217-.973,6.388-2.1a2.573,2.573,0,0,1,2.879.616c2.583,2.332,5.221,4.6,7.857,6.873,3.577,3.08,7.174,6.136,10.754,9.213.056.048.007.219.007.377-4.039,1.419-8.195,2.584-12.1,4.31-9.278,4.1-19.207,6-28.822,8.955a12.168,12.168,0,0,0-2.416,1.4l.369.547a6.247,6.247,0,0,1,1.547-1.086c3.5-1.093,6.962-2.475,10.551-3.065,6.6-1.084,12.644-3.685,18.826-5.969,3.91-1.445,7.863-2.782,11.837-4.04a2.565,2.565,0,0,1,2.034.6c2.418,2.116,4.736,4.345,7.1,6.523.031.029.2-.094.657-.317l-7.893-7.353c1.418-.367,2.252-.547,3.065-.8,4.33-1.344,8.681-2.631,12.975-4.084,4.358-1.475,8.646-3.157,13-4.652a2.629,2.629,0,0,1,2,.315c2.913,1.908,5.624,4.155,8.648,5.853a107.419,107.419,0,0,1,18.132,13.421,18.892,18.892,0,0,1,1.344,1.479l-5.043,1.955.256.559a26.588,26.588,0,0,0,2.718-1.054,3.623,3.623,0,0,1,4.928.923,41.018,41.018,0,0,0,3.388,3.215c.551.5,1.151.952,1.753,1.444l-5.487-6.968c3.422-1.447,7.291-3.088,11.163-4.721,5.5-2.317,10.986-4.656,16.51-6.908a2.729,2.729,0,0,1,2.186.028c4.158,2.824,8.234,5.77,12.339,8.673,1.655,1.171,3.319,2.329,4.979,3.493l.361-.536-17.464-12.683M179.758,183.261c-2.245-58.911-1.338-117.707.128-176.5-2.3,59.153-2.9,118.312-.888,177.469,3.736-.837,7.452-1.874,11.238-2.478,10.82-1.727,21.669-3.28,32.507-4.9,8.433-1.26,16.877-2.456,25.3-3.792,9.528-1.511,19.037-3.135,28.55-4.733,4.412-.741,8.808-1.572,13.224-2.286a2.347,2.347,0,0,0,2.254-2.311c.152-2.981.292-5.973.2-8.953-.246-8.279-.706-16.552-.9-24.832q-.327-13.634-.327-27.275c-.01-19.689.077-39.378.109-59.068a6.468,6.468,0,0,0-.289-1.355c-.55.377-.708.708-.71,1.04-.029,5.605-.1,11.211-.042,16.815q.309,31.775.683,63.548c.085,7.847.123,15.694.253,23.54.083,5.033.265,10.066.467,15.1.058,1.454-.279,2.287-1.919,2.484-2.282.275-4.537.776-6.8,1.211-8.616,1.656-17.2,3.514-25.853,4.929-7.556,1.236-15.22,1.8-22.788,2.982-11.5,1.791-22.973,3.825-34.445,5.816-6.31,1.1-12.6,2.317-18.9,3.476-.291.053-.592.046-1.053.079M4.1,213.256l.048.509c1.485-.143,2.987-.188,4.452-.447,5.267-.932,10.517-1.957,15.78-2.908,6.678-1.206,13.368-2.35,20.038-3.6.654-.122,1.718-.747,1.735-1.174.232-5.779.432-11.565.392-17.348-.031-4.543-.591-9.083-.6-13.625-.025-18.008.06-36.017.137-54.025.04-9.408.075-18.816.245-28.222.285-15.822.786-31.64.983-47.462.135-10.839-.1-21.682-.142-32.523-.006-1.551.178-3.1.22-4.655a6.332,6.332,0,0,0-.255-1.351l-.61.023a12.322,12.322,0,0,0-.266,1.858c.06,10.836.265,21.673.185,32.508-.082,11.088-.486,22.172-.658,33.259-.126,8.1-.113,16.193-.148,24.289-.046,10.528-.047,21.056-.127,31.584-.041,5.42-.322,10.84-.3,16.26.067,18.064.291,36.128.3,54.192,0,6.206.723,5.229-5.367,6.49-9.624,1.992-19.34,3.548-29.021,5.265-2.333.414-4.682.735-7.025,1.1m214.158-59.244.53.467c.361-.46.716-.925,1.085-1.378,5.805-7.133,11.564-14.306,17.437-21.384,4-4.822,8.187-9.492,12.249-14.265q7.432-8.735,14.788-17.534c.559-.665,1.016-1.413,1.551-2.1,3.958-5.071,7.924-10.137,12.041-15.4-.461.163-1.164.2-1.484.564-1.471,1.686-2.844,3.458-4.235,5.213-3.432,4.333-6.835,8.69-10.29,13-1.475,1.842-3.074,3.584-4.577,5.405-3.643,4.418-7.228,8.885-10.9,13.277-3.382,4.044-6.885,7.987-10.27,12.029-3.468,4.14-6.872,8.333-10.276,12.527-2.574,3.172-5.1,6.381-7.65,9.574m95.57-36.724.677.619c.113-.036.261-.037.333-.112,5.635-5.887,11.284-11.763,16.886-17.681,2.438-2.575,4.811-5.215,7.163-7.869,3.494-3.943,6.893-7.971,10.427-11.878q5-5.528,10.209-10.867c2.108-2.166,4.406-4.146,6.574-6.256a4.05,4.05,0,0,0,.592-1.335c-.385.024-.911-.106-1.132.1-1.6,1.467-3.238,2.918-4.688,4.531-3.075,3.42-6,6.97-9.065,10.4-4.746,5.325-9.5,10.643-14.345,15.879q-10.837,11.714-21.817,23.3a8.952,8.952,0,0,1-1.814,1.174M114.22,87.711l-.5-.447L72.638,138.63c14.787-16.224,27.941-33.768,41.581-50.919m4.989-15.041-.494-.4L82.083,116.3l.456.379c12.168-14.716,24.745-29.091,36.67-44.009M30.361,82.12l-.583-.345c-8.605,10.924-19.286,20.082-26.724,32a7.392,7.392,0,0,0,2.167-2.1c1.905-2.536,3.616-5.244,5.724-7.6,5.807-6.478,11.778-12.808,17.682-19.2a14.129,14.129,0,0,0,1.347-1.55,4.39,4.39,0,0,0,.388-1.213m187.477,60.075.507.444a2.773,2.773,0,0,0,.521-.383c4.547-5.343,9.137-10.651,13.611-16.056,2.693-3.254,5.205-6.656,7.794-10,1.329-1.714,2.667-3.421,3.951-5.168a4.628,4.628,0,0,0,.448-1.326l-.444-.2c-8.02,11.509-17.308,22.015-26.387,32.686m105.283-41.64.431.33c8.369-10.861,18.466-20.148,27.5-30.476a3.421,3.421,0,0,0-1.606.767c-3.122,3.188-6.2,6.415-9.3,9.633-.172.179-.3.395-.471.579-3.742,4.137-7.534,8.23-11.211,12.425-1.888,2.155-3.572,4.489-5.348,6.743m-46.548-3.2-.636-.5L251.03,128.947l.431.337ZM3.622,121.123l.58.45c.281-.355.588-.693.839-1.068a43.1,43.1,0,0,1,2.791-4.187c4.038-4.728,8.184-9.364,12.251-14.068.279-.323.241-.92.351-1.389-.436.2-1.007.293-1.289.626-3.779,4.462-7.57,8.914-11.241,13.464-1.568,1.944-2.863,4.108-4.282,6.172" transform="translate(0 -0.245)"/>
    <path id="Path_454" data-name="Path 454" d="M144.514,252.006l3.767,1.295c-.791,1-2.5.892-4.093-.685-1.506-1.489-2.841-3.165-4.44-4.539a5.865,5.865,0,0,0-3.112-1.314c-1.691-.151-2.127.727-1.969,2.419.189,2.021.032,4.073.2,6.1a6.841,6.841,0,0,0,.964,2.1l.678-.131c.185-.943.367-1.885.557-2.827a14.81,14.81,0,0,1,.552-2.543c.589-1.484,1.67-1.683,2.687-.465a23.688,23.688,0,0,1,2.553,3.655,2.026,2.026,0,0,0,2.591,1.18c1.559-.413,3.426-.574,3.937-2.372a4.944,4.944,0,0,0-.377-3.508c-.283-.485-1.912-.186-3.542-.274,1.273-.35,2.209-.893,3.009-.737a2.749,2.749,0,0,1,1.63,1.707c.854,2.8-.286,4.905-3.364,5.555-5.088,1.075-5.309,1.7-7.828-3.131-.137-.263-.321-.5-.718-1.114a30.13,30.13,0,0,1-.7,3.956,6.508,6.508,0,0,1-1.349,1.749,7.564,7.564,0,0,1-1.708-1.538,3.9,3.9,0,0,1-.439-2.165c.243-3.287-.483-6.55.493-9.893,1.248-4.28.167-8.568-.931-12.741l-.581-.1a28.478,28.478,0,0,0-1.393,2.5c-1.507,3.448-2.659,6.971-2.383,10.833a2.611,2.611,0,0,0,1.307,2.446c.968.545,1.761,1.354,1.167,2.594a2.044,2.044,0,0,1-2.892.9,21.681,21.681,0,0,1-3.99-2.007,4.37,4.37,0,0,1-1.935-4.885c.321-1.443.644-2.885,1.014-4.546-3.071-.309-4.113,2.472-6.435,3.606-.1-.557-.406-1.152-.227-1.475,1.529-2.751,2.7-5.916,4.88-8.024a46.77,46.77,0,0,0,5.142-5.258c1.851-2.465,3.452-5.122,5.1-7.736,2.848-4.527,5.561-9.142,8.529-13.588.695-1.041,2.209-1.516,3.292-2.322,1.441-1.073,2.83-2.215,4.242-3.328l-.39-.732c-1.3.237-2.594.459-3.886.713-2.141.421-.183,2.5-1.908,3.792a24.081,24.081,0,0,1,.344-4.32c.914-3.289,2.021-6.525,3.058-9.78.789-2.475.269-3.905-1.9-4.587a3.76,3.76,0,0,0-2.3.223,6.1,6.1,0,0,1-6.468-.705,1.258,1.258,0,0,0-1.013-.186c-2.16.735-3.591-.3-4.767-1.891-.169-.014-.313-.073-.4-.027-3.177,1.629-4.62.883-4.219-2.648.5-4.373,1.584-8.675,2.3-13.026.474-2.861.633-5.776,1.15-8.627.53-2.924,1.313-5.8,2.006-8.7.622-2.593,1.233-5.191,1.925-7.765.364-1.352,1.044-2.632,1.308-4a17.584,17.584,0,0,0,.348-4.6c-.5-6.554-1.118-13.1-1.694-19.645l-.622-.186L127.613,120l-1.192-.739c-.064.095-.167.182-.186.284-1.171,6.363-2.266,12.725-5.876,18.336a33.115,33.115,0,0,0-2.43,5.616c-1.024,2.537-1.983,5.1-3.008,7.639-1.817,4.5-3.671,8.989-5.488,13.492a6.833,6.833,0,0,0-.479,1.8,1.836,1.836,0,0,0,2.759,1.97c1.407-.658,2.47-2.143,4.336-1.72.189.043.75-.519.707-.692a2.262,2.262,0,0,0-.751-1.194,1.223,1.223,0,0,0-1.06.087c-.2.111-.221.548-.322.84l-.728-.437a9.689,9.689,0,0,1,.419-1.712q1.349-3.054,2.8-6.062c1.811-3.743,3.681-7.458,5.474-11.209.666-1.395,1.213-2.849,1.762-4.3.792-2.084,1.443-4.227,2.323-6.272,1.449-3.366,3.032-6.674,4.56-10.006.194-.422.4-.837.6-1.256l.6.269-17.07,38.7c.5.381,1.119.655,1.409,1.131.347.569.763,1.474.543,1.954-3.041,6.609-6.134,13.171-8.226,20.191-.983,3.3-2.849,6.335-4.4,9.666,3.729,1.47,8.23,2.052,9.836,6.3,1.513,4-.069,7.879-2.084,11.938,6.357-1.1,12.35-2.118,18.328-3.22a1.7,1.7,0,0,0,1.017-1.2c.277-2.086.4-4.192.623-6.716l-16.781,2.576q-.052-.2-.1-.392c1.872-.405,3.735-.861,5.619-1.2,3.675-.67,7.369-1.24,11.033-1.96a2.119,2.119,0,0,0,1.181-1.284,22.285,22.285,0,0,0,.622-14.124c-.042-.137.1-.33.326-.96a13.6,13.6,0,0,1,.572,1.55c1.112,5.282.229,10.384-1.292,15.464a35.108,35.108,0,0,0-1.012,14.956,1.651,1.651,0,0,1-.094.5l-.469.046-.684-6.073c-1.111.1-2.375.175-3.625.351-4.561.64-9.115,1.336-13.677,1.966a2.539,2.539,0,0,0-2.534,2.2c-1.074,5.246-3.441,9.977-6,14.631a12.445,12.445,0,0,0-1.379,3.655c-1.2,6.525-4.85,11.8-8.543,17.051a5.29,5.29,0,0,1-6.024,2.3,2.075,2.075,0,0,0-1.375.4A2.956,2.956,0,0,1,83.7,253.5a1.652,1.652,0,0,0-.733-.995c-4.045-1.6-8.094-3.19-12.185-4.664-1.2-.433-2.36-.977-3.879-.258-1.075.509-2.179-.471-2.375-1.937a21.272,21.272,0,0,0-.726-3.624c-.962-3.021.106-5.757,1.008-8.538,1.093-3.37,2.151-6.751,3.213-10.092L11.233,233.542l-.143-.482a28.641,28.641,0,0,1,2.878-.825c9.377-1.691,18.755-3.379,28.143-5,3.74-.648,7.547-.952,11.252-1.748,4.92-1.057,9.772-2.435,14.647-3.7a1.738,1.738,0,0,0,1.066-.622c1.175-2.38,2.274-4.8,3.63-7.7L57.855,215.6c.443-66.334.154-132.75.965-199.161l.668,0q-.458,99.105-.917,198.357c4.13-.6,7.873-1.147,11.613-1.7a4.337,4.337,0,0,0,3.737-2.828c2.083-4.855,4.495-9.569,6.657-14.392,1.52-3.391,3.678-5.331,7.69-4.585a59.077,59.077,0,0,0,6.632.477c.648-1.324,1.47-2.982,2.274-4.649,3.167-6.558,6.352-13.108,9.452-19.7a4.109,4.109,0,0,0-.081-2.12c-.1-.684-.658-1.5-.432-1.98a2.154,2.154,0,0,1,1.78-.978c1.508.211,1.877-.622,2.33-1.747,1.628-4.041,3.377-8.034,5.013-12.072.815-2.013,1.421-4.112,2.237-6.125a33.651,33.651,0,0,1,2.377-5.04,28.636,28.636,0,0,0,4-9.991c.581-3.217,1.53-6.369,2.09-9.589.215-1.238-.438-2.617-.268-3.875.321-2.379.958-4.715,1.447-7.073a3.164,3.164,0,0,0,.132-1.366,12.944,12.944,0,0,1,1.261-10.384,26.039,26.039,0,0,0,3.918-11.14,29.971,29.971,0,0,1,6.1-14.866c1.889-2.585,4.869-2.84,7.556-3.64a20.48,20.48,0,0,1,4.958-.619,6.9,6.9,0,0,1,7.288,7.06,52.464,52.464,0,0,1-.716,5.7,39.448,39.448,0,0,0-.655,5.473c.038,3.237-.335,6.217-2.347,8.964-1.416,1.934.055,6.435,2.5,7.843a11.525,11.525,0,0,1,5.575,8.22c1.454,7.013,2.712,14.07,4.324,21.046.806,3.488,2.281,6.816,3.336,10.252,2.118,6.895,4.287,13.778,6.171,20.738a11.515,11.515,0,0,1-2.7,12.323l-.444-.285V165.9l-2.521,1.517-.475-.228a19.935,19.935,0,0,1,.589-2.92c1.208-3.383.474-6.409-1.195-9.478a143.3,143.3,0,0,1-7.259-14.486c-1.379-3.4-1.679-7.238-2.559-10.856-.448-1.843-1.113-3.634-1.68-5.448l-.559-.031a20.572,20.572,0,0,0-1.844,3.931,59.422,59.422,0,0,0-1.946,10.454,45.773,45.773,0,0,0,.866,10.536c.931,5.077,2.262,10.082,3.476,15.105,1.023,4.235,2.2,8.434,3.156,12.684.522,2.326,1.111,4.651.089,7.12-.424,1.024.187,2.445.2,3.687.041,3.3.014,6.591.014,10.018a1.12,1.12,0,0,0,.52.165c5.2-.585,10.4-1.117,15.582-1.822,2.624-.357,3.116-1.053,3.149-3.748.052-4.358-.051-8.718.058-13.074.218-8.716.633-17.429.778-26.146.09-5.415-.184-10.835-.264-16.253-.24-16.261-.626-32.523-.643-48.785-.013-12.449.449-24.9.7-37.348.01-.5.051-1,.056-1.495q.117-12.993.219-25.986c.01-1.554-.144-3.11-.15-4.665a2,2,0,0,1,.791-1.538,3.376,3.376,0,0,1,.283.95c-.1,9.158-.131,18.319-.374,27.473-.277,10.463-.815,20.918-1.1,31.38-.11,3.979.192,7.968.255,11.953.3,18.942.717,37.883.822,56.825.058,10.518-.443,21.039-.63,31.56-.092,5.169.019,10.341-.08,15.51-.066,3.47-.258,3.674-3.647,4.109-4.94.633-9.893,1.165-14.849,1.667-1.24.126-1.856.481-1.962,1.865a7.647,7.647,0,0,1-2.877,5.283c-.694.593-1.375,1.2-2.518,2.2,1.24-.129,1.946-.158,2.635-.281,9.307-1.656,18.619-3.289,27.915-5,6.184-1.141,12.33-2.494,18.521-3.594q22.811-4.055,45.648-7.957c11.354-1.959,22.721-3.842,34.074-5.806,13.742-2.377,27.466-4.862,41.217-7.189,11.235-1.9,22.511-3.56,33.743-5.477,6.865-1.171,13.679-2.644,20.526-3.925.478-.089,1.041.281,1.565.436a4.705,4.705,0,0,1-1.374.8c-6,1.038-12.018,1.994-18.019,3.037-3.065.533-6.094,1.285-9.163,1.789-8.3,1.361-16.607,2.629-24.908,3.959-12.974,2.079-25.964,4.072-38.912,6.3-11.594,2-23.127,4.344-34.711,6.4-14.407,2.558-28.845,4.939-43.256,7.47-6.991,1.228-13.934,2.722-20.929,3.919-8.712,1.492-17.459,2.772-26.182,4.206-2.88.474-5.728,1.136-8.588,1.728a1.407,1.407,0,0,0-.645.345q-4.514,4.284-9.009,8.588c-.27.258-.48.629-.8.781-2.884,1.388-2.824,3.876-2.833,6.593a40.445,40.445,0,0,1-.981,8.477c-.917,4.179,0,8.044,1.443,11.864.7,1.859,1.642,3.629,2.475,5.439.413.9.465,1.6-.841,1.572-.612-1.931-1.1-3.909-1.866-5.775-1.694-4.148-2.773-8.313-1.979-12.875.613-3.524.865-7.112,1.239-10.675a15.95,15.95,0,0,0-.163-2.308c-2.783,3.372-5.224,6.312-7.63,9.281a1.281,1.281,0,0,0-.169,1.015c1.51,5.1,2.356,10.229.882,15.777,2.977-1.047,4.929.187,6.615,2.3a43.849,43.849,0,0,0,3.114,3.214m-57.1-59.955c-2.887-.913-4.647,1.025-5.944,3.723-2.262,4.705-4.536,9.406-6.728,14.144-1.331,2.876-2.433,5.859-3.786,8.724A95.247,95.247,0,0,0,64.2,238.576c-.779,3.479,1.731,7.029,5.139,8.116,3.781,1.206,7.443,2.782,11.2,4.056a31.522,31.522,0,0,0,5.389,1.188,1.78,1.78,0,0,0,1.434-.851c2.05-4.525,4.062-9.069,5.974-13.654,1.027-2.464,1.445-5.263,2.822-7.486,4.849-7.828,7.156-16.686,10.565-25.091a5.07,5.07,0,0,0-1.822-6.479,20.382,20.382,0,0,0-3.43-1.871c-2.537-1.126-5.383-1.574-7.5-3.616a3.146,3.146,0,0,0-1.755-.5c-1.423-.147-2.855-.206-4.795-.334m44.259-33.006c.321.643.48.808.459.944-.833,5.27-1.568,10.558-2.576,15.795-.51,2.65-.772,5.242.449,7.648a3.912,3.912,0,0,0,2.742,1.755,2.063,2.063,0,0,0,2.2-2.224c.111-2.907.255-5.821.575-8.711.438-3.959.96-7.914,1.626-11.84.364-2.147,1.1-4.231,1.664-6.344a1.131,1.131,0,0,1,.408,1.082c-.618,3.23-1.43,6.434-1.848,9.689-.736,5.725-1.276,11.477-1.774,17.228-.056.654.6,1.9,1.063,1.97a22.952,22.952,0,0,0,4.341-.094c1.072-.051,2.142-.141,3.214-.168,1.056-.027,2.123.095,3.168-.013a38.448,38.448,0,0,1,4.531-.648c2.141.041,2.484.043,2.227-2.073-.606-5-1.44-9.964-2.151-14.947-.167-1.17-.214-2.356-.316-3.535l.617-.035c.96,6.1,1.921,12.2,2.892,18.364.618-.038,1.289-.1,1.961-.117,4.713-.086,4.713-.083,3.778-4.834-.012-.061-.03-.121-.045-.181-1.866-7.933-3.793-15.851-5.571-23.8a102.106,102.106,0,0,1-2.235-12.448c-.189-1.973-.877-2.639-2.535-2.829a17.855,17.855,0,0,0-2.1-.014l1.716,11.521-.368.051-2.238-11.7-.86-.027-.828,3.867-.33-.062.2-3.829c-2.709.153-5.179.286-7.65.433a2.512,2.512,0,0,0-2.406,1.949c-.665,1.946-1.489,3.838-2.246,5.753l-.541-.19,2.562-6.66c-2.466-.025-2.507,1.708-2.87,3.159-.706,2.825-1.424,5.647-2.093,8.482-.654,2.773-1.349,5.541-1.85,8.343-.51,2.855-.752,5.757-1.208,8.623-.732,4.594-1.586,9.17-2.292,13.768-.162,1.052.213,2.074,1.658,1.83,1.212-.2,2.081-.655,1.812-2.222a12.3,12.3,0,0,1,.777-7.5,8.247,8.247,0,0,0,.561-2.35c.573-4.117,1.112-8.239,1.729-12.855m4.22-39.9c.876-3.217,1.784-6.23,3.751-8.741.281.191.315.268.291.312-.148.266-.309.526-.468.787a16.292,16.292,0,0,0-2.755,10.077c.059.659.464,1.7.9,1.815a2.866,2.866,0,0,0,2.325-.5c3.01-2.841,5.418-6.031,5.135-10.524a18.045,18.045,0,0,1,.2-2.612l.458.082c.331,3.986-.053,7.816-2.747,11.159a8.641,8.641,0,0,0,4.6-7.1c.6-4.691,1.011-9.408,1.523-14.111.079-.724.268-1.437.406-2.155l.571.112q-1.082,9.858-2.164,19.717a10.82,10.82,0,0,0,4.742-7.07c1.08-5.2,1.4-10.451-.543-15.654-1.824-4.9.079-9.576,1.344-14.244-.267,2.563-.926,5.075-1.235,7.63-.315,2.6-.459,5.28,1.42,8.124,0-2.324-.107-4.131.03-5.918a29.138,29.138,0,0,1,.824-5.34c.839-3.114,1.982-6.146,2.828-9.259,1.351-4.966-.811-9.3-4.914-10.13-3.441-.7-8.5,1.419-10.527,4.387-.232.339-.52.64-.781.959l-.455-.438,3.3-3.662a6.529,6.529,0,0,0-5.329,3.162,29.2,29.2,0,0,0-5.42,13.766,26.078,26.078,0,0,1-4.228,12c-1.718,2.648-1.564,5.645-1.223,8.579l.907.265,6.507-15,.52.235c-.8,1.973-1.552,3.969-2.419,5.913-2.172,4.873-4.547,9.663-6.541,14.606-1.083,2.685-.473,5.5.545,8.45,1.939-2.651,3.372-5.2,5.362-7.2,3.163-3.169,4.869-7.031,6.254-11.108a56.568,56.568,0,0,0,3.085-15.114,8.237,8.237,0,0,1,1.092-2.544c-.162,1.94-.642,3.723-.732,5.527-.3,5.953-2.333,11.419-4.572,16.819-.922,2.223-2.25,4.274-3.289,6.453-1.056,2.214-.339,5.966,1.411,7.476m10.7,67.96c1.349,2.788,2.742,5.425,3.89,8.163.42,1,.745,2.523.283,3.334-1.624,2.849-3.461,5.564-6.71,7.008a7.811,7.811,0,0,0-3.278,2.868c-3.137,5.073-6.048,10.284-9.1,15.409a33.028,33.028,0,0,1-2.721,3.772c-1.2,1.49-2.5,2.9-3.851,4.461,3.791,3.287,1.116,7.957,2.95,11.989.355-1.961.613-3.534.928-5.1,1.53-7.592,6.9-12.8,11.508-18.478a7.721,7.721,0,0,1,1.035-.793q5.841-5.039,11.668-10.093c.186-.161.31-.39.481-.571,1.142-1.207,2.221-2.483,3.45-3.593,1.556-1.4,3.17-2.822,3.277-5.029.25-5.151.329-10.311.431-15.468a1.74,1.74,0,0,0-.534-1.287c-1.177-.834-4.606.145-5.6,1.29a2.73,2.73,0,0,1-2.063.923,7.429,7.429,0,0,0-6.043,1.192m27.441-16.494c2.487-3.233,2.677-6.809,1.8-10.391-1.064-4.349-2.417-8.629-3.692-12.924-.776-2.616-1.679-5.194-2.46-7.81-1.416-4.746-2.96-9.464-4.127-14.272-1.409-5.8-2.479-11.692-3.7-17.542-.907-4.351-3.976-6.778-7.76-8.813,0,.43-.014.671,0,.91a30.742,30.742,0,0,1-1.4,12.889,1.538,1.538,0,0,0,.334,1.416,2.8,2.8,0,0,0,2,.3c.317-.107.526-1.134.449-1.7-.252-1.844-.852-3.67-.282-5.067,1.2,5.283,2.433,10.895,3.762,16.484.948,3.985,1.91,7.975,3.086,11.9a67.189,67.189,0,0,0,3.39,9.224c1.793,3.824,4.209,7.364,5.886,11.23a50.181,50.181,0,0,1,2.654,9.374,23.124,23.124,0,0,1,.057,4.8m-40.8-58.574c-.415.958-.822,1.435-.781,1.872.63,6.835,1.318,13.665,1.993,20.5a47.574,47.574,0,0,1,19.113.692c.127-.591.278-1.248.407-1.908.684-3.485,1.362-6.968,3.4-10a1.539,1.539,0,0,0,.276-1.018c-.436-2.3-.929-4.6-1.3-6.4l-4.4-1.236a44.586,44.586,0,0,1-4.651,4.7,80.486,80.486,0,0,1-7.637,4.891c-1.282.765-3.211.153-3.35-1.1a8.03,8.03,0,0,0-2.09-4.79,2.676,2.676,0,0,1-.447-1.4c-.188-1.395-.316-2.8-.533-4.8m-25.465,54.594c-2.737,5.682-5.4,11.155-8.012,16.651-1.254,2.638-2.443,5.309-3.6,7.99-.513,1.185-.313,2.21,1.081,2.675,2.043.683,4.091,1.352,6.2,2.048a47.684,47.684,0,0,0,6.494-13.662c.921-2.879,2.281-5.62,3.475-8.41.861-2.012,1.775-4,2.666-6l-.467-.461c-.8.348-1.631.634-2.388,1.055-2.705,1.509-3.95,1.152-5.446-1.885m-1.222,31.71c1.926,2.935,1.592,5.607.511,8.348-1.255,3.181-2.312,6.443-3.634,9.6-1.728,4.124-3.625,8.178-5.461,12.257a63.447,63.447,0,0,0-2.743,6.094c-1.725,5.267-3.372,10.541-6.284,15.326a10.354,10.354,0,0,0-.665,3.085c3.346-.707,4.933-2.693,6-5.315,1.774-4.381,3.635-8.726,5.417-13.1,1.616-3.969,3.082-8,4.791-11.929,1.213-2.789,2.673-5.476,4.106-8.165,2.271-4.264,1.373-8.745.9-13.165a3.1,3.1,0,0,0-2.929-3.028m3.211.895a2.527,2.527,0,0,0,0,.531c1.116,4.955,1.921,9.918-.38,14.766-1.867,3.932-4,7.746-5.713,11.741-2.621,6.115-5.02,12.326-7.437,18.525-1.327,3.4-2.2,7.065-6.31,8.754,2.763.618,4.33-.412,5.622-2.356,3.379-5.086,6.816-10.111,7.923-16.315a13.754,13.754,0,0,1,1.5-3.8c2.274-4.36,4.623-8.676,5.632-13.568A10.231,10.231,0,0,1,111.818,214a18.471,18.471,0,0,0,2.438-7.747,6.372,6.372,0,0,0-4.5-7.016m8.266,41.678.423.39c.3-.191.613-.363.9-.576a13.006,13.006,0,0,1,2.388-1.762,2.87,2.87,0,0,1,2.258.039c.365.206.378,1.3.3,1.967-.12,1.043-.469,2.058-.688,3.091a3.987,3.987,0,0,0,2.044,4.592,13.688,13.688,0,0,0,3.189,1.51,5.5,5.5,0,0,0,2.171-.34,13.627,13.627,0,0,0-1.013-1.893c-.827-1.106-2.095-2.016-2.543-3.24a23.223,23.223,0,0,1-.843-5.272,36.971,36.971,0,0,0-.3-3.882c-.582-2.562-2.463-3.159-4.091-1.159a64.084,64.084,0,0,0-4.188,6.535M134.24,138.591c3.665-.249,7.1-.572,10.551-.688,2.347-.079,4.7.155,7.056.194.42.007,1.167-.2,1.2-.4a1.9,1.9,0,0,0-.357-1.443,3.4,3.4,0,0,0-1.686-1.051,44.76,44.76,0,0,0-15.372-.227c-.455.07-1,.765-1.159,1.275a10.631,10.631,0,0,0-.235,2.341M147.2,189.567l-.615.152-3.251,11.116a34.2,34.2,0,0,0,5.5-1.367,2.848,2.848,0,0,0,1.364-2.392c-.794-2.567-1.969-5.016-3-7.509m8.992-106.642-.511-.041-1.327,6.79c2.216-1.948,1.968-4.36,1.838-6.749M143.055,256.4l-3.632-5.062c-.175,2.595,1.342,4.731,3.632,5.062m-55.338-1.986q.015-.407.03-.815L84.6,252.539l-.432.786a6.693,6.693,0,0,0,1.74,1.455c.489.183,1.2-.222,1.809-.365m21.572-91.78-2.641,1.009,1.657,1.972.984-2.981" transform="translate(-6.942 -10.536)" fill="#fff"/>
    <path id="Path_455" data-name="Path 455" d="M547.731,548.223,565.2,560.906l-.361.536c-1.66-1.164-3.324-2.323-4.979-3.493-4.1-2.9-8.181-5.849-12.339-8.673a2.727,2.727,0,0,0-2.186-.028c-5.524,2.252-11.013,4.59-16.51,6.908-3.872,1.633-7.741,3.273-11.163,4.72l5.486,6.968c-.6-.493-1.2-.941-1.753-1.444A41.071,41.071,0,0,1,518,563.185a3.623,3.623,0,0,0-4.928-.923,26.618,26.618,0,0,1-2.718,1.054l-.256-.559,5.043-1.955a18.826,18.826,0,0,0-1.344-1.479A107.435,107.435,0,0,0,495.668,545.9c-3.024-1.7-5.736-3.945-8.648-5.853a2.631,2.631,0,0,0-2-.315c-4.352,1.495-8.64,3.177-13,4.652-4.294,1.454-8.644,2.74-12.975,4.084-.812.253-1.646.432-3.065.8l7.893,7.354c-.455.223-.625.346-.656.317-2.364-2.178-4.682-4.407-7.1-6.523a2.566,2.566,0,0,0-2.034-.6c-3.974,1.258-7.927,2.595-11.837,4.039-6.182,2.285-12.229,4.885-18.826,5.969-3.59.59-7.053,1.971-10.552,3.065a6.247,6.247,0,0,0-1.547,1.086l-.369-.547a12.188,12.188,0,0,1,2.416-1.4c9.615-2.953,19.544-4.856,28.822-8.955,3.908-1.726,8.064-2.892,12.1-4.31,0-.158.049-.329-.007-.377-3.58-3.076-7.177-6.133-10.754-9.213-2.637-2.271-5.275-4.542-7.858-6.873a2.572,2.572,0,0,0-2.879-.616q-3.165,1.129-6.388,2.1c-1.072.324-2.19.494-3.287.734q-.05-.224-.1-.447l10.941-3.56c-2.473-2.108-4.649-3.919-6.766-5.8a10.088,10.088,0,0,1-1.4-1.836c-.01-.014.456-.432.5-.4.562.438,1.1.91,1.623,1.4,2.187,2.032,4.338,4.106,6.58,6.075a2.153,2.153,0,0,0,1.707.264c2.7-.713,5.365-1.6,8.071-2.3,5-1.3,10.026-2.5,15.028-3.793,1.557-.4,3.071-.969,5.131-1.63-1.452-1.174-2.558-2.086-3.682-2.973-1.9-1.5-3.772-3.038-5.728-4.461-3.367-2.449-6.933-4.646-10.14-7.283-2.414-1.985-4.689-2.689-7.723-1.685a81.789,81.789,0,0,1-8.7,2.042,2.059,2.059,0,0,1-1.725-.526l13.972-3.229c-1.247-.979-2.226-1.766-3.226-2.525a10.812,10.812,0,0,1-1.659-1.2c-.288-.325-.261-.928-.376-1.407.438.094,1.087.036,1.281.305,3.063,4.259,7.061,4.462,11.787,3.337,6.048-1.44,12.224-2.339,18.342-3.486a9.392,9.392,0,0,0,1.306-.465c-2.8-1.922-5.479-3.716-8.1-5.6a5.866,5.866,0,0,1-1.1-1.585,6.351,6.351,0,0,1,1.726.554c2.823,1.931,5.594,3.937,8.4,5.886a1.79,1.79,0,0,0,1.189.365q11.537-2.3,23.056-4.689a10.078,10.078,0,0,0,1.244-.554c-2.219-1.292-4.051-2.371-5.895-3.43-1.238-.711-2.516-1.358-3.723-2.117-.272-.171-.324-.692-.478-1.052.432.024.962-.108,1.281.094,3.077,1.958,6.1,3.992,9.185,5.944a2.325,2.325,0,0,0,1.573.247q12.062-2.534,24.106-5.156a11.141,11.141,0,0,0,1.476-.6c-3.6-1.829-6.916-3.494-10.206-5.207a5.056,5.056,0,0,1-1.047-1.026c.537-.012,1.176-.22,1.6,0,3.322,1.707,6.573,3.551,9.915,5.217a4.505,4.505,0,0,0,2.8.368c7.272-1.678,14.519-3.466,21.9-5.251l-3.695-1.449.167-.692c.471,0,1.076-.192,1.392.029,3.937,2.761,7.958,1.552,11.995.357,3.989-1.182,7.982-2.351,12.385-3.647-1.949-.745-3.615-1.323-5.221-2.034-.449-.2-.723-.793-1.077-1.206.547-.052,1.184-.31,1.625-.119,1.937.84,3.788,1.881,5.733,2.7a4.38,4.38,0,0,0,2.346.179q9.839-1.766,19.655-3.655c1.093-.209,2.14-.654,3.231-.882a4.9,4.9,0,0,1,1.47.145c-.375.386-.7,1.033-1.132,1.118-3.3.646-6.624,1.165-9.934,1.755-4.042.72-8.079,1.471-12.118,2.208l-.166.546c1.116.524,2.2,1.119,3.352,1.562a69.7,69.7,0,0,0,16.151,4.5,6.408,6.408,0,0,1,2.684.742c2.763,1.844,5.374,1.206,8.29.242,5.253-1.737,10.653-3.031,15.986-4.529.9-.253,1.775-.6,2.662-.9l.334.723a11.825,11.825,0,0,1-1.968.958c-5.755,1.605-11.524,3.16-17.284,4.746-.578.159-1.126.422-2.186.827l4.688,2.041-.1.439a6.11,6.11,0,0,1-1.685-.43c-2.476-1.476-4.909-1.417-7.671-.606-5.729,1.682-11.569,2.983-17.361,4.45-.414.1-.809.285-1.517.539,2.249,1.013,4.214,1.971,6.235,2.793,5.183,2.108,10.413,4.1,15.575,6.263a3.926,3.926,0,0,0,3.676-.216c2.209-1.128,4.529-2.044,6.827-2.989.3-.124.75.106,1.13.172-.248.354-.422.9-.755,1.026-1.162.438-2.406.657-3.567,1.1-1.318.5-2.58,1.149-3.866,1.734q0,.25,0,.5l9.4,3.372-.1.422a11.07,11.07,0,0,1-1.677-.3c-2.3-.77-4.629-1.492-6.869-2.418a5.988,5.988,0,0,0-4.482-.146c-7.909,2.626-15.856,5.14-24.025,7.77a5.6,5.6,0,0,0,.964.779c5.466,2.412,10.964,4.751,16.4,7.225,3.11,1.415,6.085,3.129,9.2,4.523a4.042,4.042,0,0,0,2.938.006c3.584-1.571,7.07-3.364,10.622-5.012.419-.194,1.023.009,1.541.027-.339.437-.586,1.079-1.031,1.277-3.462,1.54-6.962,2.993-10.447,4.48a5.759,5.759,0,0,0-.717.462l16.208,9.1-.226.465c-2.173-1.094-4.368-2.147-6.514-3.291-3.186-1.7-6.318-3.5-9.521-5.167a2.557,2.557,0,0,0-2.052-.145c-7.728,4.277-16.271,6.5-24.388,9.793-.628.255-1.234.563-1.912.875l19.6,11.563-.316.559c-2.387-1.366-4.767-2.744-7.162-4.094-4.171-2.351-8.343-4.7-12.543-7a1.822,1.822,0,0,0-1.366.042c-3.281,1.347-6.508,2.828-9.813,4.109-5.282,2.048-10.611,3.971-15.92,5.952-.4.149-.788.333-1.411.6m-60.147-9.263c2.864,2.1,5.344,4.3,8.169,5.9a104.836,104.836,0,0,1,19.6,14.816,1.878,1.878,0,0,0,1.415.549,57.4,57.4,0,0,0,5.476-1.844q5.886-2.331,11.718-4.8c3.852-1.637,7.665-3.364,11.495-5.051l-.09-.666c-.933-.578-1.864-1.16-2.8-1.732-4.661-2.85-9.344-5.666-13.979-8.557-3.688-2.3-7.3-4.717-10.994-7.01a2.589,2.589,0,0,0-1.9-.265c-7.539,2.342-15.052,4.765-22.582,7.136-1.756.552-3.552.98-5.531,1.521m30.1-9.629c2.218,1.431,4.1,2.6,5.935,3.838,3.254,2.185,6.424,4.5,9.738,6.588,3.99,2.513,8.08,4.868,12.166,7.224a2.737,2.737,0,0,0,2.014.337c8.33-3.118,16.633-6.309,24.932-9.511a19.8,19.8,0,0,0,2.271-1.277c-6.112-3.365-11.842-6.591-17.642-9.685-3.673-1.959-7.44-3.745-11.2-5.544a2.9,2.9,0,0,0-1.87-.183c-5.688,1.6-11.375,3.207-17.024,4.937-3.061.937-6.049,2.115-9.325,3.275m28.366-8.964c6.135,3.26,11.827,6.282,17.517,9.309,3.568,1.9,7.111,3.846,10.719,5.665a3.263,3.263,0,0,0,2.328.14c4.616-1.679,9.221-3.4,13.768-5.253,3.955-1.615,7.828-3.429,11.732-5.168.053-.024.032-.212.052-.37-3.239-1.659-6.436-3.451-9.761-4.963-5.659-2.573-11.388-4.991-17.116-7.407a3.572,3.572,0,0,0-2.236-.138c-6.486,1.947-12.944,3.984-19.418,5.971-2.364.726-4.746,1.388-7.584,2.215M435.993,531.009a2.973,2.973,0,0,0,.312.6c6.188,5.377,12.367,10.765,18.6,16.091a2.424,2.424,0,0,0,1.948.427c5.879-1.792,11.754-3.6,17.577-5.57,3.575-1.206,7.058-2.687,10.788-4.124-.814-.727-1.553-1.45-2.356-2.093-3.6-2.876-7.181-5.773-10.841-8.57a46.826,46.826,0,0,0-5.746-3.815,4.383,4.383,0,0,0-2.892-.217c-3.141.762-6.225,1.75-9.351,2.578-5.983,1.585-11.979,3.119-18.037,4.692m79.738-1.84c-1.52-.961-2.593-1.676-3.7-2.332-6.306-3.737-12.611-7.477-18.95-11.157a2.994,2.994,0,0,0-2.051-.287c-3.307.865-6.593,1.814-9.865,2.806-4.78,1.449-9.542,2.959-14.5,4.5.354.31.524.477.711.62,5.966,4.581,11.971,9.113,17.865,13.784a3.016,3.016,0,0,0,3.14.743c6.286-1.966,12.6-3.849,18.886-5.812,2.655-.829,5.272-1.781,8.463-2.866m-72.667-24.6-.131.506c.766.582,1.492,1.23,2.305,1.734,6.888,4.269,12.924,9.671,19.4,14.49a2.849,2.849,0,0,0,2.18.375c5.981-1.7,11.938-3.492,17.891-5.292,2-.6,3.97-1.312,6.153-2.04a10,10,0,0,0-.845-.717q-8.7-5.6-17.4-11.194a9.473,9.473,0,0,1-1.868-1.538,2.777,2.777,0,0,0-2.99-.833c-5.537,1.165-11.1,2.237-16.659,3.27-2.662.494-5.355.829-8.033,1.236m100.688,15.72q.015-.277.029-.555c-3.669-1.93-7.33-3.874-11.008-5.786-3.742-1.946-7.491-3.877-11.261-5.766a2.536,2.536,0,0,0-1.585-.184c-6,1.389-11.99,2.779-17.961,4.271-2.754.688-5.452,1.6-8.518,2.509.826.54,1.36.926,1.927,1.254,2.687,1.556,5.414,3.045,8.068,4.655,4.142,2.513,8.218,5.136,12.375,7.624a2.776,2.776,0,0,0,2,.042c3.906-1.237,7.767-2.619,11.679-3.835,4.731-1.471,9.5-2.825,14.25-4.229m29.066-8.975q-.027-.258-.053-.516c-1.932-.834-3.886-1.623-5.792-2.512-5.688-2.653-11.334-5.4-17.056-7.973a5.48,5.48,0,0,0-3.2-.145c-2.121.463-4.176,1.216-6.273,1.8-5.4,1.5-10.805,2.96-16.2,4.466a20.793,20.793,0,0,0-2.341,1.027c1.678.929,2.9,1.65,4.158,2.294,5.981,3.058,11.962,6.117,17.978,9.107a3.761,3.761,0,0,0,2.385.312q5.614-1.415,11.165-3.076c5.094-1.536,10.155-3.183,15.23-4.782M470.562,499.386a29.246,29.246,0,0,0,2.528,2.155c5.981,3.9,11.963,7.8,18.013,11.595a4.2,4.2,0,0,0,2.9.419c6.416-1.505,12.8-3.13,19.194-4.748,2.046-.518,4.067-1.132,6.1-1.7a69.518,69.518,0,0,0-8.189-4.33c-1.174-.557-2.365-1.091-3.5-1.727-3.573-2.008-7.086-4.128-10.708-6.043a4.835,4.835,0,0,0-2.986-.258c-4.265.857-8.488,1.922-12.751,2.789-3.342.68-6.72,1.181-10.6,1.851m75.762.065q0-.348,0-.7c-1.515-.684-3.039-1.349-4.543-2.056-4.105-1.931-8.239-3.806-12.29-5.845-3.228-1.624-6.331-3.543-10.13-1.758a5.157,5.157,0,0,1-1.1.181q-9.678,2.043-19.352,4.105a12.689,12.689,0,0,0-1.585.582c1.623.917,3.033,1.689,4.419,2.5,2.844,1.665,5.615,3.468,8.529,5,3.131,1.643,6.372,3.087,9.614,4.506a3.86,3.86,0,0,0,2.4.141c3.773-1.052,7.5-2.29,11.27-3.338,4.237-1.177,8.512-2.219,12.77-3.321m4.434-.515q.007.254.013.507c.312.171.616.36.938.51,7.147,3.324,14.285,6.669,21.463,9.927a3.944,3.944,0,0,0,2.573.154c6.648-2.062,13.266-4.218,19.889-6.356,1.4-.45,2.777-.942,4.165-1.414q.047-.234.094-.469c-3.983-1.677-7.953-3.384-11.952-5.019-2.181-.891-4.446-1.577-6.612-2.5-2.9-1.237-5.739-2.433-8.846-.594a6.6,6.6,0,0,1-1.8.46l-19.925,4.794m24.522-7.147a20.345,20.345,0,0,0-1.831-.977c-5.276-2.053-10.55-4.108-15.843-6.117-2.145-.814-4.32-1.555-6.51-2.239a4.36,4.36,0,0,0-2.006-.068c-5.326.974-10.659,1.921-15.956,3.036-2.551.537-5.029,1.419-7.54,2.145q-.024.273-.048.546c7.386,3.4,14.762,6.823,22.176,10.161a3.937,3.937,0,0,0,2.334-.011q10.619-2.554,21.214-5.212c1.236-.309,2.435-.762,4.011-1.263m22.807-5.976.14-.591a39.4,39.4,0,0,0-5.575-1.7,74.429,74.429,0,0,1-19.682-6.2,4.668,4.668,0,0,0-2.692-.277c-3.048.611-6.087,1.3-9.085,2.126-2.892.8-5.729,1.794-8.993,2.831,1.175.469,1.965.8,2.764,1.1,6.855,2.6,13.705,5.2,20.58,7.749a4.175,4.175,0,0,0,2.308.121c3.08-.754,6.122-1.661,9.193-2.448,3.671-.941,7.36-1.817,11.04-2.721" transform="translate(-257.244 -295.021)" fill="#fff"/>
    <path id="Path_456" data-name="Path 456" d="M736.064,40.518a5.9,5.9,0,0,1,1.5-.813c1.945-.406,3.912-.709,5.995-1.072a71.755,71.755,0,0,0-.548-20.96c2.144,6.694,1.563,13.665,1.738,20.94,2.2-.523,4.125-.919,6-1.5.285-.088.431-1.011.441-1.551.111-6.038.18-12.078.278-18.116,0-.206.2-.408.667-.571v19.7c2.934.248,3.244-.048,3.311-2.719.137-5.416.316-10.831.493-16.245a1.948,1.948,0,0,1,.256-.617l.571.046c-.268,6.247-.536,12.494-.811,18.918l56.191-10.9V17.1l.516-.017c.194,2.4.389,4.793.59,7.278,1.937-.193,3.768-.385,5.6-.555,1.194-.111,1.763.313,1.468,1.627-.75,3.345-.317,6.664.1,10.02a39.084,39.084,0,0,1-.051,7.081,1.8,1.8,0,0,1-1.231,1.208c-10.271,1.17-20.557,2.2-30.826,3.392-9.651,1.118-19.285,2.387-28.927,3.589-1.347.168-2.694.331-4.091.5-.036.727-.087,1.281-.088,1.834-.009,13.524-.157,27.05.019,40.571.248,19,.762,38,1.114,57,.139,7.473.181,14.949.19,22.424,0,1.378.4,1.971,1.8,1.782,5.739-.772,11.487-1.486,17.22-2.3,4.558-.649,9.112-1.346,13.646-2.141,8.148-1.429,16.282-2.931,24.417-4.435,6.734-1.245,13.457-2.557,20.2-3.766.477-.086,1.063.43,1.6.666a8.243,8.243,0,0,1-1.548.6c-2.869.5-5.761.871-8.619,1.419-7.028,1.349-14.016,2.93-21.07,4.119-6.931,1.168-13.93,1.925-20.887,2.939-7.333,1.069-14.648,2.257-21.98,3.324-1.7.247-3.437.212-5.413.321.1-1.813.268-3.347.244-4.878-.133-8.472-.322-16.942-.473-25.413-.086-4.8-.117-9.6-.21-14.393-.342-17.691-.757-35.381-1.026-53.074-.121-7.975.04-15.955.059-23.932,0-.73-.1-1.46-.166-2.449-.942.121-1.716.218-2.488.319-4.506.594-9.017,1.155-13.516,1.8-1.5.217-2.1-.142-2.144-1.793-.083-3.17-.456-6.332-.619-9.5a5.577,5.577,0,0,1,.552-1.794c.308,4.087.616,8.175.929,12.336a13.391,13.391,0,0,0,1.624-.009c6.768-.91,13.532-1.852,20.3-2.754,8.954-1.193,17.9-2.445,26.87-3.511,9.647-1.146,19.327-2.019,28.972-3.183,5.086-.613,5.186-.078,4.967-6.286-.14-3.962-1.015-7.9-.315-11.891.015-.089-.109-.2-.369-.652L736.064,40.518" transform="translate(-460.437 -10.811)" fill="#fff"/>
    <path id="Path_457" data-name="Path 457" d="M477.29,194.569c.461-.033.762-.025,1.053-.079,6.3-1.159,12.588-2.381,18.9-3.476,11.473-1.992,22.94-4.025,34.445-5.816,7.567-1.179,15.231-1.746,22.788-2.982,8.655-1.416,17.237-3.274,25.853-4.93,2.261-.434,4.516-.937,6.8-1.211,1.64-.2,1.977-1.03,1.919-2.484-.2-5.03-.384-10.062-.467-15.1-.13-7.846-.169-15.693-.254-23.54q-.343-31.774-.683-63.548c-.055-5.6.013-11.21.042-16.815,0-.332.159-.663.71-1.041a6.5,6.5,0,0,1,.289,1.355c-.032,19.689-.119,39.378-.109,59.067q.007,13.638.327,27.275c.2,8.28.659,16.553.905,24.833.089,2.98-.051,5.972-.2,8.953a2.348,2.348,0,0,1-2.254,2.311c-4.416.714-8.812,1.545-13.224,2.286-9.513,1.6-19.023,3.221-28.55,4.732-8.422,1.336-16.865,2.532-25.3,3.792-10.838,1.619-21.686,3.172-32.507,4.9-3.785.6-7.5,1.641-11.238,2.478-2.013-59.157-1.412-118.317.888-177.469-1.465,58.8-2.373,117.594-.128,176.5" transform="translate(-297.533 -11.553)" fill="#fff"/>
    <path id="Path_458" data-name="Path 458" d="M10.953,224.018c2.342-.364,4.691-.685,7.024-1.1,9.681-1.717,19.4-3.273,29.021-5.266,6.09-1.261,5.371-.284,5.366-6.49-.012-18.064-.236-36.128-.3-54.192-.02-5.419.261-10.839.3-16.259.08-10.528.082-21.056.127-31.584.035-8.1.022-16.194.148-24.289.172-11.087.576-22.172.658-33.259.08-10.835-.125-21.672-.185-32.507a12.371,12.371,0,0,1,.266-1.858l.61-.023a6.3,6.3,0,0,1,.255,1.351c-.042,1.553-.226,3.1-.22,4.656.041,10.841.278,21.684.142,32.523-.2,15.822-.7,31.641-.983,47.462-.169,9.406-.2,18.815-.244,28.223-.077,18.008-.162,36.017-.138,54.025.006,4.542.566,9.082.6,13.625.04,5.783-.16,11.569-.392,17.348-.017.426-1.081,1.051-1.735,1.174-6.671,1.245-13.36,2.389-20.038,3.595-5.264.951-10.513,1.976-15.78,2.908-1.465.259-2.967.3-4.452.447q-.024-.254-.048-.509" transform="translate(-6.856 -11.007)" fill="#fff"/>
    <path id="Path_459" data-name="Path 459" d="M576.555,201.836a12.865,12.865,0,0,1-2.487-1.814c-1.235-1.447-2.27-3.065-3.655-4.98,3.622-1.381,6.536.513,9.933,1.47l8.781-7.054c-3.053-.979-5.69-1.7-8.218-2.7a10.679,10.679,0,0,1-2.564-2.133,24.486,24.486,0,0,1,2.631-2.455,3.238,3.238,0,0,1,1.976-.349c3.838.295,7.667.7,11.506.985a11.178,11.178,0,0,0,6.607-1.287c4.672-2.6,9.575-4.786,14.428-7.047a8.529,8.529,0,0,1,3.255-.692,2.249,2.249,0,0,1,2.354,3.229,5.4,5.4,0,0,1-1.461,2.338c-3.153,2.6-6.328,5.19-9.646,7.575-2.155,1.548-2.6,1.982-1.408,4.322a46.05,46.05,0,0,0,3.42,5.08c.913,1.321,1.923,2.586,2.716,3.974.35.612.587,1.953.323,2.128-.865.573-2.13,1.25-2.974,1a26.31,26.31,0,0,1-5.132-2.523c-3.191-1.8-6.331-3.682-9.531-5.46a1.827,1.827,0,0,0-1.375.223c-3.72,1.874-7.409,3.81-11.133,5.676-1.06.531-1.546,1.183-1.05,2.353.557,1.313-.061,2.136-1.173,2.739-1.227.666-1.638-.407-2.232-1.061-.911-1-1.509-2.367-3.333-2.065-.713.118-.893-.509-.595-1.488q1.523-2.259,3.064-4.5c-2.128-1.425-6.289-2.4-7.956-1.833.219.314.406.61.621.885q2.147,2.737,4.3,5.465m40.923-27.257c-.947.354-1.779.618-2.572.969-10.919,4.825-21.239,10.625-30.216,18.605a6.642,6.642,0,0,1-1.064.757c-2.831,1.649-4.62,4.292-6.515,6.83-.1.135-.013.411-.013.873l4.791-3.909,1.5,2.71,13-6.508c-1.379-2.131-1.376-2.317.652-3.667,2.121-1.411,4.347-2.665,6.452-4.1,1.418-.966,2.584-1.139,3.521.54a31.457,31.457,0,0,0,3.455-2.041c3.082-2.385,6.1-4.853,9.108-7.329a2.988,2.988,0,0,0,.759-1.27c.531-1.444-.015-2.2-1.68-2.421l-.378,1.371-.351,0-.452-1.408m-11.9,23.927-5.31-4.659.326-.326c1.85,1.46,3.708,2.908,5.54,4.391a2.88,2.88,0,0,1,.588.892c.285.525.4,1.289.839,1.558a26.958,26.958,0,0,0,4.592,2.378,2.862,2.862,0,0,0,2.179-.556c.224-.152.027-1.27-.269-1.777-.715-1.222-1.595-2.347-2.421-3.5-1.154-1.615-2.414-3.164-3.45-4.85-.827-1.346-1.335-2.884-2.1-4.271-.185-.333-1.008-.693-1.259-.551-2.9,1.646-5.754,3.387-8.76,5.188,2.444,3.6,5.926,4.877,9.511,6.087m-8.473-14.4-.211-.528c-4.634-.382-9.265-.821-13.906-1.1a5.233,5.233,0,0,0-2.77.85c-1.538.919-1.5,1.814.177,2.427,2.909,1.064,5.9,1.916,8.863,2.82a3.381,3.381,0,0,0,1.128-.058l.089-.545c-3.119-.16-5.34-3.195-8.911-2.668.029-.218.094-.705.2-1.528,1.635.69,2.962,1.348,4.353,1.813,1.927.644,3.988,1.774,5.834,1.525,1.819-.245,3.442-1.948,5.15-3.012m-15.257,15.76c-3.051,1.391-3.217,2.02-1.328,4.462.227.293.4.683.691.859.41.244,1.116.59,1.334.423a1.833,1.833,0,0,0,.718-1.449c-.35-1.457-.923-2.861-1.415-4.295" transform="translate(-357.066 -109.027)" fill="#fff"/>
    <path id="Path_460" data-name="Path 460" d="M583.531,291.95c2.548-3.193,5.076-6.4,7.65-9.574,3.4-4.194,6.808-8.386,10.276-12.527,3.385-4.042,6.888-7.985,10.27-12.029,3.674-4.393,7.258-8.86,10.9-13.277,1.5-1.821,3.1-3.563,4.577-5.4,3.455-4.315,6.858-8.671,10.29-13,1.391-1.756,2.764-3.527,4.235-5.213.32-.367,1.023-.4,1.484-.564-4.118,5.265-8.083,10.33-12.041,15.4-.535.686-.993,1.434-1.551,2.1q-7.379,8.78-14.789,17.534c-4.061,4.773-8.247,9.443-12.249,14.265-5.873,7.078-11.631,14.25-17.437,21.384-.369.453-.724.919-1.085,1.378l-.53-.468" transform="translate(-365.277 -138.183)" fill="#fff"/>
    <path id="Path_461" data-name="Path 461" d="M839.052,220.867a8.95,8.95,0,0,0,1.814-1.174c7.3-7.744,14.593-15.486,21.817-23.3,4.843-5.236,9.6-10.555,14.345-15.879,3.061-3.433,5.99-6.983,9.065-10.4,1.451-1.613,3.085-3.064,4.688-4.531.222-.2.748-.073,1.133-.1a4.051,4.051,0,0,1-.592,1.335c-2.168,2.11-4.466,4.09-6.574,6.256q-5.2,5.341-10.209,10.867c-3.534,3.907-6.932,7.935-10.427,11.878-2.352,2.655-4.725,5.294-7.163,7.869-5.6,5.919-11.251,11.794-16.886,17.681-.072.075-.22.076-.333.112l-.677-.619" transform="translate(-525.227 -103.824)" fill="#fff"/>
    <path id="Path_462" data-name="Path 462" d="M235.789,233.758c-13.641,17.15-26.794,34.694-41.581,50.918l41.08-51.366.5.447" transform="translate(-121.57 -146.292)" fill="#fff"/>
    <path id="Path_463" data-name="Path 463" d="M256.586,193.619c-11.925,14.918-24.5,29.293-36.67,44.009l-.456-.379,36.633-44.032.494.4" transform="translate(-137.377 -121.194)" fill="#fff"/>
    <path id="Path_464" data-name="Path 464" d="M35.472,218.98a4.392,4.392,0,0,1-.388,1.213,14.211,14.211,0,0,1-1.347,1.55c-5.9,6.391-11.875,12.721-17.682,19.2-2.109,2.353-3.819,5.061-5.724,7.6a7.387,7.387,0,0,1-2.167,2.1c7.439-11.921,18.119-21.078,26.724-32l.583.345" transform="translate(-5.11 -137.105)" fill="#fff"/>
    <path id="Path_465" data-name="Path 465" d="M582.42,325.473c9.079-10.671,18.367-21.176,26.387-32.686l.444.2a4.633,4.633,0,0,1-.448,1.326c-1.284,1.747-2.623,3.454-3.951,5.169-2.589,3.34-5.1,6.743-7.794,10-4.473,5.4-9.063,10.713-13.611,16.056a2.79,2.79,0,0,1-.521.383l-.507-.444" transform="translate(-364.581 -183.523)" fill="#fff"/>
    <path id="Path_466" data-name="Path 466" d="M863.908,218.391c1.776-2.253,3.459-4.588,5.348-6.742,3.677-4.195,7.469-8.288,11.21-12.425.167-.184.3-.4.471-.579,3.091-3.218,6.173-6.445,9.3-9.633a3.418,3.418,0,0,1,1.606-.767c-9.033,10.328-19.13,19.615-27.5,30.476l-.431-.33" transform="translate(-540.786 -118.082)" fill="#fff"/>
    <path id="Path_467" data-name="Path 467" d="M696.7,259.466l-25.113,31.925-.431-.337,24.908-32.088.636.5" transform="translate(-420.131 -162.352)" fill="#fff"/>
    <path id="Path_468" data-name="Path 468" d="M9.685,289.926c1.419-2.064,2.714-4.228,4.282-6.172,3.67-4.55,7.462-9,11.241-13.464.282-.334.853-.423,1.289-.626-.11.469-.072,1.066-.351,1.389-4.067,4.7-8.213,9.34-12.251,14.068a43.1,43.1,0,0,0-2.791,4.187c-.251.376-.557.713-.839,1.068l-.58-.45" transform="translate(-6.063 -169.048)" fill="#fff"/>
    <path id="Path_469" data-name="Path 469" d="M176.059,485.576c1.939.128,3.371.187,4.795.334a3.145,3.145,0,0,1,1.755.5c2.121,2.042,4.967,2.49,7.5,3.616a20.384,20.384,0,0,1,3.43,1.871,5.07,5.07,0,0,1,1.822,6.479c-3.409,8.405-5.716,17.262-10.565,25.091-1.378,2.224-1.795,5.022-2.822,7.486-1.912,4.585-3.924,9.129-5.974,13.654a1.78,1.78,0,0,1-1.434.851,31.521,31.521,0,0,1-5.389-1.187c-3.762-1.274-7.424-2.85-11.205-4.056-3.408-1.087-5.918-4.637-5.139-8.116a95.25,95.25,0,0,1,6.764-19.934c1.352-2.865,2.455-5.848,3.786-8.724,2.192-4.738,4.466-9.438,6.728-14.144,1.3-2.7,3.057-4.636,5.944-3.723m-6.888,52.615c4.821-7.846,16.885-37.55,16.3-39.517l-16.3,39.517m2.4-1.039.542.229,16.444-38.464-.691-.293-16.3,38.528m-9.42-2.256.561.266c2.008-4.285,4.271-8.472,5.954-12.881,1.745-4.572,2.5-9.507,5.2-13.744,1-1.569,1.765-3.286,2.6-4.952q2.089-4.151,4.122-8.328a7.741,7.741,0,0,0,.388-1.443l-.676-.246c-1.26,2.646-2.534,5.285-3.775,7.94-.787,1.685-1.461,3.425-2.3,5.084-1.906,3.773-3.906,7.453-4.956,11.643a66.024,66.024,0,0,1-3.781,9.694c-1.014,2.365-2.219,4.649-3.338,6.969m2.9.163a363.334,363.334,0,0,0,15.357-36.942c-.685.469-1.188.62-1.277.9-3.918,12.317-9.26,24.074-14.08,36.039m9.131-43.667-.529-.26a3.431,3.431,0,0,0-.53.654c-3.129,6.764-6.265,13.526-9.352,20.31-.745,1.638-1.374,3.335-1.969,5.035-1.33,3.8-2,7.85-4.507,11.193a24.129,24.129,0,0,0-1.808,3.415c.285.014.457.069.5.017a5.759,5.759,0,0,0,.648-.909c1.865-3.5,4.038-6.818,4.869-10.839a37.3,37.3,0,0,1,2.686-7.344c1.508-3.411,3.219-6.731,4.817-10.1,1.514-3.195,2.994-6.406,4.486-9.611.24-.516.461-1.04.691-1.56M158.138,532.6l.484.194c1.181-3.232,2.337-6.473,3.548-9.694,1.245-3.311,2.478-6.629,3.839-9.893,1.339-3.211,2.785-6.381,4.272-9.527,1.459-3.085,3.03-6.117,4.552-9.173l-.52-.226c-6.7,12.213-11.715,25.148-16.175,38.319" transform="translate(-95.583 -304.061)"/>
    <path id="Path_470" data-name="Path 470" d="M322.5,363.3c-.617,4.616-1.156,8.738-1.729,12.855a8.242,8.242,0,0,1-.561,2.35,12.3,12.3,0,0,0-.777,7.5c.269,1.568-.6,2.018-1.812,2.222-1.445.244-1.82-.778-1.658-1.83.706-4.6,1.56-9.173,2.292-13.768.457-2.866.7-5.768,1.208-8.624.5-2.8,1.2-5.571,1.85-8.343.669-2.834,1.387-5.657,2.093-8.482.363-1.451.4-3.184,2.87-3.159l-2.562,6.659.542.19c.757-1.915,1.581-3.807,2.246-5.754a2.512,2.512,0,0,1,2.406-1.949c2.47-.147,4.941-.281,7.65-.433l-.2,3.829.329.062.828-3.867.86.028q1.119,5.85,2.238,11.7l.368-.051-1.716-11.521a17.849,17.849,0,0,1,2.1.014c1.658.19,2.345.855,2.535,2.829a102.1,102.1,0,0,0,2.235,12.448c1.778,7.952,3.706,15.871,5.571,23.8.015.061.033.12.044.181.935,4.751.935,4.747-3.778,4.834-.672.012-1.343.079-1.961.117l-2.892-18.364-.617.035c.1,1.179.15,2.366.316,3.535.711,4.983,1.545,9.951,2.151,14.947.257,2.115-.086,2.114-2.227,2.073a38.612,38.612,0,0,0-4.531.648c-1.045.108-2.112-.013-3.168.013-1.072.027-2.142.117-3.213.168a22.926,22.926,0,0,1-4.341.094c-.46-.067-1.12-1.316-1.063-1.97.5-5.751,1.038-11.5,1.774-17.228.418-3.255,1.23-6.459,1.848-9.689a1.13,1.13,0,0,0-.408-1.082c-.567,2.112-1.3,4.2-1.664,6.344-.665,3.926-1.188,7.881-1.625,11.839-.319,2.89-.463,5.8-.575,8.711a2.062,2.062,0,0,1-2.2,2.224,3.911,3.911,0,0,1-2.743-1.755c-1.22-2.406-.959-5-.449-7.648,1.008-5.236,1.744-10.525,2.576-15.795.021-.136-.138-.3-.459-.944m3.667-8.873.53.053q.918-4.529,1.837-9.057l-.563-.107q-.9,4.556-1.8,9.111M342.42,349.8l.613-.147-1.419-5.6-.51.123Z" transform="translate(-197.762 -214.789)"/>
    <path id="Path_471" data-name="Path 471" d="M328.5,201.215c-1.749-1.51-2.467-5.263-1.411-7.476,1.039-2.179,2.367-4.231,3.289-6.454,2.239-5.4,4.277-10.865,4.572-16.819.09-1.8.57-3.587.732-5.527a8.228,8.228,0,0,0-1.092,2.544A56.567,56.567,0,0,1,331.5,182.6c-1.385,4.078-3.091,7.939-6.254,11.108-1.99,1.995-3.423,4.545-5.362,7.2-1.018-2.95-1.629-5.765-.545-8.45,1.995-4.943,4.369-9.733,6.541-14.606.867-1.944,1.616-3.941,2.419-5.913l-.52-.235-6.507,15-.907-.265c-.342-2.933-.5-5.931,1.223-8.579a26.082,26.082,0,0,0,4.228-12,29.2,29.2,0,0,1,5.419-13.766,6.529,6.529,0,0,1,5.329-3.162l-3.3,3.662.455.438c.262-.319.549-.62.781-.959,2.024-2.968,7.086-5.083,10.527-4.387,4.1.83,6.264,5.165,4.914,10.13-.847,3.113-1.989,6.145-2.828,9.259a29.17,29.17,0,0,0-.825,5.34c-.137,1.788-.03,3.594-.03,5.918-1.878-2.844-1.735-5.52-1.419-8.124.309-2.555.968-5.067,1.235-7.63-1.265,4.667-3.168,9.347-1.344,14.244,1.939,5.2,1.623,10.458.543,15.654a10.822,10.822,0,0,1-4.742,7.07q1.082-9.859,2.164-19.717l-.571-.113c-.138.718-.327,1.43-.406,2.155-.511,4.7-.919,9.42-1.523,14.111a8.64,8.64,0,0,1-4.6,7.1c2.694-3.343,3.077-7.173,2.747-11.159l-.458-.082a17.992,17.992,0,0,0-.2,2.612c.284,4.492-2.125,7.682-5.135,10.524a2.864,2.864,0,0,1-2.325.5c-.438-.111-.842-1.156-.9-1.814a16.291,16.291,0,0,1,2.755-10.078c.159-.261.319-.52.468-.787.025-.044-.01-.121-.291-.312-1.967,2.511-2.875,5.524-3.752,8.741" transform="translate(-199.542 -92.605)"/>
    <path id="Path_472" data-name="Path 472" d="M337.431,466.519a7.431,7.431,0,0,1,6.043-1.192,2.729,2.729,0,0,0,2.063-.922c.994-1.145,4.423-2.124,5.6-1.29a1.74,1.74,0,0,1,.534,1.287c-.1,5.157-.181,10.317-.431,15.468-.107,2.207-1.722,3.625-3.277,5.029-1.229,1.11-2.308,2.387-3.45,3.593-.171.181-.3.41-.481.571q-5.827,5.054-11.668,10.093a7.688,7.688,0,0,0-1.035.793c-4.606,5.679-9.978,10.887-11.508,18.478-.315,1.562-.573,3.135-.928,5.1-1.833-4.032.842-8.7-2.95-11.989,1.353-1.558,2.65-2.972,3.851-4.461a33.066,33.066,0,0,0,2.721-3.772c3.053-5.125,5.965-10.337,9.1-15.409a7.811,7.811,0,0,1,3.278-2.868c3.249-1.443,5.086-4.16,6.71-7.008.462-.811.138-2.331-.283-3.334-1.148-2.739-2.54-5.375-3.89-8.163" transform="translate(-197.773 -289.949)"/>
    <path id="Path_473" data-name="Path 473" d="M410.968,308.554a23.126,23.126,0,0,0-.058-4.8,50.181,50.181,0,0,0-2.654-9.374c-1.677-3.866-4.094-7.406-5.886-11.23a67.191,67.191,0,0,1-3.39-9.224c-1.176-3.922-2.138-7.911-3.086-11.9-1.33-5.589-2.561-11.2-3.762-16.484-.57,1.4.03,3.223.283,5.067.077.566-.132,1.593-.449,1.7a2.8,2.8,0,0,1-2-.3,1.541,1.541,0,0,1-.334-1.416,30.748,30.748,0,0,0,1.4-12.889c-.016-.239,0-.481,0-.91,3.784,2.036,6.853,4.462,7.76,8.813,1.22,5.85,2.291,11.738,3.7,17.542,1.167,4.808,2.71,9.526,4.127,14.272.78,2.615,1.683,5.194,2.46,7.81,1.275,4.3,2.629,8.575,3.692,12.924.876,3.581.685,7.157-1.8,10.391" transform="translate(-243.868 -148.477)"/>
    <path id="Path_474" data-name="Path 474" d="M336.353,272.035c.217,2.007.346,3.41.533,4.8a2.677,2.677,0,0,0,.447,1.4,8.029,8.029,0,0,1,2.09,4.79c.139,1.255,2.068,1.867,3.35,1.1a80.482,80.482,0,0,0,7.637-4.89,44.658,44.658,0,0,0,4.651-4.7l4.4,1.236c.373,1.8.866,4.095,1.3,6.4a1.537,1.537,0,0,1-.276,1.018c-2.039,3.028-2.717,6.512-3.4,10-.129.661-.28,1.317-.407,1.908a47.587,47.587,0,0,0-19.113-.692c-.675-6.834-1.363-13.663-1.993-20.5-.04-.437.367-.915.781-1.872" transform="translate(-210.058 -170.532)"/>
    <path id="Path_475" data-name="Path 475" d="M249.71,418c1.5,3.037,2.74,3.394,5.446,1.885.757-.422,1.59-.707,2.388-1.055l.467.461c-.891,2-1.8,3.989-2.666,6-1.194,2.789-2.554,5.53-3.475,8.41a47.7,47.7,0,0,1-6.494,13.662c-2.109-.7-4.157-1.365-6.2-2.048-1.394-.466-1.593-1.49-1.081-2.675,1.16-2.681,2.349-5.351,3.6-7.989,2.612-5.5,5.274-10.969,8.012-16.651" transform="translate(-148.88 -261.902)"/>
    <path id="Path_476" data-name="Path 476" d="M235.726,502.78a3.1,3.1,0,0,1,2.929,3.028c.477,4.42,1.375,8.9-.9,13.165-1.432,2.688-2.892,5.375-4.105,8.165-1.709,3.928-3.175,7.96-4.791,11.929-1.782,4.378-3.643,8.723-5.417,13.1-1.062,2.622-2.649,4.608-5.995,5.314a10.362,10.362,0,0,1,.665-3.085c2.912-4.786,4.559-10.06,6.284-15.326a63.352,63.352,0,0,1,2.743-6.094c1.836-4.079,3.733-8.132,5.461-12.256,1.321-3.152,2.378-6.414,3.633-9.6,1.081-2.741,1.416-5.412-.511-8.348" transform="translate(-136.119 -314.973)"/>
    <path id="Path_477" data-name="Path 477" d="M241.7,505.173a6.372,6.372,0,0,1,4.5,7.016,18.465,18.465,0,0,1-2.438,7.747,10.23,10.23,0,0,0-1.217,3.511c-1.009,4.892-3.358,9.207-5.632,13.568a13.763,13.763,0,0,0-1.5,3.8c-1.107,6.2-4.544,11.229-7.923,16.315-1.292,1.944-2.859,2.973-5.622,2.356,4.115-1.689,4.983-5.353,6.31-8.754,2.418-6.2,4.816-12.411,7.437-18.525,1.713-4,3.846-7.809,5.713-11.741,2.3-4.849,1.5-9.811.38-14.766a2.527,2.527,0,0,1,0-.531" transform="translate(-138.884 -316.471)"/>
    <path id="Path_478" data-name="Path 478" d="M349.995,593.39a43.846,43.846,0,0,1-3.114-3.213c-1.685-2.115-3.637-3.349-6.615-2.3,1.475-5.548.629-10.682-.882-15.777a1.281,1.281,0,0,1,.169-1.015c2.405-2.969,4.847-5.909,7.63-9.281a15.963,15.963,0,0,1,.163,2.309c-.374,3.563-.627,7.151-1.239,10.675-.793,4.563.285,8.728,1.979,12.875.762,1.867,1.255,3.844,1.866,5.776l.041-.047" transform="translate(-212.423 -351.92)"/>
    <path id="Path_479" data-name="Path 479" d="M297,603.669a64.149,64.149,0,0,1,4.188-6.535c1.628-2,3.509-1.4,4.091,1.159a36.981,36.981,0,0,1,.3,3.883,23.174,23.174,0,0,0,.843,5.271c.448,1.224,1.716,2.134,2.543,3.24a13.608,13.608,0,0,1,1.013,1.893,5.5,5.5,0,0,1-2.171.34,13.7,13.7,0,0,1-3.189-1.51,3.988,3.988,0,0,1-2.044-4.592c.22-1.034.568-2.049.688-3.092.077-.667.064-1.76-.3-1.967a2.87,2.87,0,0,0-2.258-.039,13,13,0,0,0-2.388,1.762c-.283.212-.6.385-.9.576l-.423-.39" transform="translate(-185.914 -373.289)"/>
    <path id="Path_480" data-name="Path 480" d="M340.347,336.045a10.633,10.633,0,0,1,.234-2.341c.154-.511.7-1.206,1.159-1.275a44.766,44.766,0,0,1,15.372.227,3.4,3.4,0,0,1,1.686,1.051,1.9,1.9,0,0,1,.357,1.443c-.034.2-.781.409-1.2.4-2.353-.039-4.71-.272-7.057-.194-3.446.116-6.886.438-10.551.688" transform="translate(-213.049 -207.99)"/>
    <path id="Path_481" data-name="Path 481" d="M368.534,479.317c1.034,2.492,2.209,4.942,3,7.508a2.847,2.847,0,0,1-1.364,2.392,34.152,34.152,0,0,1-5.5,1.367l3.251-11.115.615-.152" transform="translate(-228.274 -300.286)"/>
    <path id="Path_482" data-name="Path 482" d="M395.968,194.126c.129,2.389.378,4.8-1.838,6.749l1.327-6.79.511.041" transform="translate(-246.716 -121.738)"/>
    <path id="Path_483" data-name="Path 483" d="M357.814,649.534c-2.289-.331-3.806-2.467-3.632-5.062l3.632,5.062" transform="translate(-221.701 -403.669)"/>
    <path id="Path_484" data-name="Path 484" d="M210.022,649.557c-.611.143-1.321.548-1.809.365a6.7,6.7,0,0,1-1.74-1.455l.432-.785,3.147,1.061-.029.815" transform="translate(-129.247 -405.678)"/>
    <path id="Path_485" data-name="Path 485" d="M269.217,407.312l-.984,2.981-1.657-1.972,2.641-1.009" transform="translate(-166.87 -255.213)"/>
    <path id="Path_486" data-name="Path 486" d="M615.843,638.237c1.979-.54,3.775-.968,5.531-1.521,7.53-2.37,15.043-4.794,22.582-7.135a2.586,2.586,0,0,1,1.9.265c3.692,2.293,7.306,4.71,10.994,7.01,4.636,2.891,9.318,5.706,13.979,8.556.936.573,1.867,1.155,2.8,1.732l.09.667c-3.83,1.687-7.643,3.414-11.495,5.051q-5.827,2.476-11.718,4.8a57.418,57.418,0,0,1-5.476,1.844,1.877,1.877,0,0,1-1.415-.549,104.844,104.844,0,0,0-19.6-14.815c-2.825-1.6-5.305-3.8-8.169-5.9" transform="translate(-385.503 -394.298)"/>
    <path id="Path_487" data-name="Path 487" d="M696.308,613.233c3.276-1.16,6.264-2.338,9.325-3.275,5.649-1.73,11.336-3.338,17.024-4.937a2.894,2.894,0,0,1,1.87.183c3.756,1.8,7.523,3.585,11.2,5.544,5.8,3.094,11.53,6.32,17.642,9.685a19.726,19.726,0,0,1-2.271,1.276c-8.3,3.2-16.6,6.393-24.932,9.511a2.736,2.736,0,0,1-2.014-.336c-4.086-2.356-8.176-4.712-12.166-7.224-3.315-2.087-6.484-4.4-9.738-6.588-1.838-1.234-3.718-2.407-5.935-3.839" transform="translate(-435.872 -378.923)"/>
    <path id="Path_488" data-name="Path 488" d="M772.148,589.247c2.838-.826,5.221-1.489,7.584-2.214,6.474-1.988,12.932-4.024,19.418-5.971a3.571,3.571,0,0,1,2.236.138c5.728,2.416,11.458,4.834,17.116,7.407,3.325,1.511,6.521,3.3,9.761,4.962-.019.159,0,.347-.052.37-3.9,1.739-7.777,3.553-11.732,5.169-4.547,1.856-9.152,3.574-13.768,5.252a3.261,3.261,0,0,1-2.328-.14c-3.608-1.819-7.151-3.766-10.719-5.664-5.69-3.027-11.382-6.049-17.517-9.309" transform="translate(-483.346 -363.902)"/>
    <path id="Path_489" data-name="Path 489" d="M477.907,619.193c6.058-1.573,12.054-3.107,18.037-4.693,3.126-.828,6.21-1.815,9.351-2.577a4.384,4.384,0,0,1,2.892.217,46.8,46.8,0,0,1,5.747,3.815c3.659,2.8,7.242,5.694,10.841,8.57.8.643,1.542,1.366,2.356,2.093-3.73,1.437-7.212,2.917-10.788,4.124-5.823,1.965-11.7,3.778-17.577,5.57a2.424,2.424,0,0,1-1.947-.427c-6.233-5.325-12.412-10.713-18.6-16.091a2.972,2.972,0,0,1-.312-.6" transform="translate(-299.159 -383.205)"/>
    <path id="Path_490" data-name="Path 490" d="M608.979,603.5c-3.191,1.086-5.808,2.038-8.463,2.866-6.287,1.963-12.6,3.846-18.886,5.812a3.016,3.016,0,0,1-3.139-.743c-5.9-4.67-11.9-9.2-17.865-13.783-.187-.144-.357-.31-.711-.62,4.955-1.542,9.717-3.052,14.5-4.5,3.272-.992,6.558-1.941,9.865-2.806a2.989,2.989,0,0,1,2.051.287c6.34,3.68,12.644,7.42,18.951,11.156,1.108.657,2.181,1.373,3.7,2.333" transform="translate(-350.493 -369.356)"/>
    <path id="Path_491" data-name="Path 491" d="M496.592,553.165c2.678-.407,5.371-.741,8.033-1.236,5.564-1.033,11.122-2.105,16.659-3.27a2.775,2.775,0,0,1,2.99.832,9.473,9.473,0,0,0,1.868,1.538q8.688,5.617,17.4,11.195a9.928,9.928,0,0,1,.845.717c-2.183.727-4.152,1.434-6.153,2.039-5.953,1.8-11.91,3.588-17.891,5.292a2.849,2.849,0,0,1-2.18-.376c-6.473-4.819-12.509-10.221-19.4-14.49-.814-.5-1.539-1.153-2.305-1.734l.131-.507" transform="translate(-310.773 -343.621)"/>
    <path id="Path_492" data-name="Path 492" d="M681.824,582.269c-4.752,1.4-9.519,2.759-14.25,4.229-3.912,1.216-7.773,2.6-11.679,3.834a2.775,2.775,0,0,1-2-.042c-4.157-2.488-8.233-5.111-12.375-7.625-2.654-1.61-5.381-3.1-8.068-4.655-.567-.329-1.1-.714-1.927-1.255,3.067-.911,5.765-1.82,8.518-2.509,5.97-1.491,11.965-2.882,17.96-4.271a2.537,2.537,0,0,1,1.585.184c3.77,1.889,7.519,3.82,11.261,5.766,3.678,1.912,7.339,3.856,11.008,5.786q-.015.277-.029.555" transform="translate(-395.317 -357.004)"/>
    <path id="Path_493" data-name="Path 493" d="M758.51,560c-5.075,1.6-10.136,3.246-15.23,4.782q-5.543,1.672-11.165,3.076a3.761,3.761,0,0,1-2.385-.312c-6.016-2.989-12-6.049-17.978-9.107-1.26-.644-2.48-1.365-4.158-2.294a20.812,20.812,0,0,1,2.341-1.027c5.4-1.506,10.8-2.967,16.2-4.466,2.1-.583,4.152-1.336,6.273-1.8a5.476,5.476,0,0,1,3.2.146c5.722,2.576,11.368,5.319,17.056,7.973,1.906.889,3.86,1.678,5.792,2.512q.026.258.054.516" transform="translate(-442.937 -343.709)"/>
    <path id="Path_494" data-name="Path 494" d="M570.332,539.088c3.882-.67,7.26-1.171,10.6-1.851,4.263-.868,8.486-1.932,12.751-2.789a4.836,4.836,0,0,1,2.986.258c3.622,1.915,7.134,4.035,10.708,6.043,1.131.636,2.322,1.17,3.5,1.727a69.5,69.5,0,0,1,8.189,4.33c-2.032.57-4.054,1.184-6.1,1.7-6.389,1.618-12.778,3.243-19.194,4.748a4.2,4.2,0,0,1-2.9-.419c-6.05-3.792-12.032-7.694-18.013-11.594a29.243,29.243,0,0,1-2.528-2.155" transform="translate(-357.014 -334.723)"/>
    <path id="Path_495" data-name="Path 495" d="M690.879,528.7c-4.259,1.1-8.533,2.144-12.77,3.321-3.775,1.048-7.5,2.286-11.27,3.338a3.86,3.86,0,0,1-2.4-.142c-3.242-1.419-6.483-2.862-9.614-4.506-2.914-1.53-5.685-3.332-8.529-5-1.386-.812-2.8-1.584-4.419-2.5a12.86,12.86,0,0,1,1.585-.582q9.673-2.071,19.352-4.105a5.165,5.165,0,0,0,1.1-.181c3.8-1.785,6.9.134,10.13,1.758,4.051,2.039,8.185,3.914,12.29,5.845,1.5.707,3.028,1.372,4.543,2.056v.7" transform="translate(-401.799 -324.266)"/>
    <path id="Path_496" data-name="Path 496" d="M784.746,535.47l19.925-4.794a6.585,6.585,0,0,0,1.8-.461c3.107-1.839,5.946-.643,8.846.594,2.166.923,4.431,1.609,6.612,2.5,4,1.634,7.97,3.342,11.952,5.019l-.094.469c-1.388.472-2.77.964-4.165,1.414-6.624,2.138-13.242,4.294-19.889,6.355a3.943,3.943,0,0,1-2.573-.154c-7.178-3.257-14.316-6.6-21.463-9.927-.322-.15-.626-.339-.938-.51,0-.169-.009-.338-.013-.507" transform="translate(-491.233 -331.555)"/>
    <path id="Path_497" data-name="Path 497" d="M767.072,510.866c-1.575.5-2.775.954-4.011,1.263q-10.6,2.646-21.214,5.212a3.937,3.937,0,0,1-2.334.01c-7.414-3.337-14.79-6.76-22.176-10.16q.024-.273.048-.546c2.511-.726,4.989-1.609,7.54-2.145,5.3-1.115,10.63-2.062,15.956-3.036a4.35,4.35,0,0,1,2.005.068c2.19.684,4.365,1.425,6.51,2.239,5.293,2.008,10.568,4.063,15.843,6.117a20.416,20.416,0,0,1,1.831.977" transform="translate(-449.037 -314.097)"/>
    <path id="Path_498" data-name="Path 498" d="M834.489,495.961c-3.681.9-7.369,1.78-11.04,2.721-3.072.787-6.114,1.694-9.193,2.448a4.176,4.176,0,0,1-2.308-.121c-6.874-2.544-13.724-5.153-20.58-7.749-.8-.3-1.589-.632-2.764-1.1,3.264-1.037,6.1-2.035,8.993-2.831,3-.825,6.036-1.516,9.085-2.126a4.668,4.668,0,0,1,2.692.277,74.429,74.429,0,0,0,19.682,6.2,39.4,39.4,0,0,1,5.575,1.7l-.14.591" transform="translate(-493.647 -305.169)"/>
    <path id="Path_499" data-name="Path 499" d="M736.924,53.315l83.019-15.993c.26.449.384.563.369.652-.7,3.992.175,7.928.315,11.891.22,6.207.12,5.672-4.967,6.286-9.645,1.164-19.325,2.036-28.972,3.183-8.969,1.066-17.916,2.317-26.87,3.511-6.769.9-13.533,1.844-20.3,2.754a13.478,13.478,0,0,1-1.624.008c-.313-4.161-.621-8.249-.929-12.336l-.039.046M804.9,49.047c2.384-.349,2.281,1.517,2.536,3.057.166,1.007.375,1.725,1.735,1.58,1.393-.148,1.721-.9,1.508-2.007-.422-2.193-.97-4.367,2.773-4.684-1.786-1.816-3.175-3.266-4.633-4.645-.126-.119-.907.13-1.029.381-.983,2.018-1.88,4.078-2.891,6.319m-17.686-.389c0,2.469-.015,4.717.021,6.964,0,.249.369.73.454.706a9.14,9.14,0,0,0,3.187-1.144c.453-.358.251-1.605.249-2.451,0-.466-.263-.928-.3-1.4-.068-.918.263-2.086-.189-2.682-.337-.445-1.645-.182-2.521-.18a3.774,3.774,0,0,0-.9.188m8.48,2.628c.361-.443.9-.8.927-1.194a9.468,9.468,0,0,0-.239-3.275c-.1-.331-1.383-.637-1.929-.432-1.334.5-1.112,1.745-.914,2.873a35.6,35.6,0,0,0,.67,3.591c.171.6.646,1.48,1.095,1.554.664.109,1.428-.386,2.15-.624-.312-.649-.587-1.32-.953-1.937-.138-.233-.485-.343-.807-.556m-19.556-.724c-1.933-.009-2.409.455-2.257,2.412.12,1.536.325,3.068.581,4.587a1.224,1.224,0,0,0,.767.824,2.72,2.72,0,0,0,2.891-3.233,10.664,10.664,0,0,1-.036-2.5c.093-1.424-.582-2.062-1.946-2.087m-24.9,9.663c-.444-2.062-.153-4.444-2.714-6.06-.452,2.3-.852,4.342-1.252,6.38,1.7-1.693,2.319-1.752,3.966-.321m-7.391-4.8a2.377,2.377,0,0,0-2.96,2.173,9.481,9.481,0,0,0,.186,3.5c.174.707,1,1.839,1.386,1.783a3.8,3.8,0,0,0,2.166-1.455c.4-.514.321-1.392.472-2.2l1.4-.842-.249-.57-2.427.649c.643,2.741.509,3.064-1.424,3.791-1.8-2.682-1.191-5.433,1.45-6.829m16.84-3.214c-1.021-.055-2.527-.832-2.692.931a24.9,24.9,0,0,0,.321,5.371,1.811,1.811,0,0,0,1.039,1.275,5.729,5.729,0,0,0,2.035-.207q-.045-.291-.091-.582H759.32c-1.745-2.585.629-2.794,2.207-3.444l-.416-.505-2.284.479c-.433-2.613-.433-2.613,1.862-3.319m2.7,6.541c.72.775,1.9.785,3.073-.223a1.928,1.928,0,0,0,.228-2.969c-.675-.781-1.668-1.279-2.406-2.017-.319-.32-.351-.928-.513-1.4a4.09,4.09,0,0,1,1.331-.333,6.286,6.286,0,0,1,1.516.539c-1.262-1.48-2.8-1.728-3.374-.705-.769,1.369.143,2.05,1.156,2.877a13.25,13.25,0,0,1,2.054,2.822l-3.067,1.413m-9.118,1.44.585-.006c0-1.768.013-3.536-.006-5.3-.009-.921.2-1.588,1.309-1.621.274-.008.54-.3.809-.465l-.159-.506-5.36,1.118.05.445h2.77Zm27.673-2.4-1.574-7.811-.335-.019-.743,2.344c1.5.885,1.86,3.263.773,5.672l1.879-.185" transform="translate(-461.297 -23.608)"/>
    <path id="Path_500" data-name="Path 500" d="M628.605,175.918l.452,1.408.351,0,.378-1.371c1.665.217,2.211.976,1.68,2.42a3,3,0,0,1-.758,1.271c-3.009,2.475-6.027,4.944-9.108,7.329a31.448,31.448,0,0,1-3.455,2.041c-.937-1.68-2.1-1.507-3.521-.54-2.1,1.434-4.331,2.688-6.452,4.1-2.028,1.349-2.03,1.535-.651,3.666l-13,6.508-1.5-2.71-4.791,3.908c0-.462-.088-.738.013-.873,1.9-2.537,3.685-5.18,6.515-6.83a6.622,6.622,0,0,0,1.065-.757c8.977-7.98,19.3-13.78,30.216-18.6.793-.351,1.625-.615,2.572-.969" transform="translate(-368.193 -110.365)"/>
    <path id="Path_501" data-name="Path 501" d="M648.5,220.968c-3.585-1.21-7.067-2.487-9.511-6.087,3.007-1.8,5.857-3.542,8.76-5.188.252-.143,1.075.218,1.26.551.769,1.387,1.278,2.926,2.1,4.271,1.036,1.686,2.3,3.235,3.45,4.85.826,1.155,1.706,2.281,2.421,3.5.3.507.493,1.626.269,1.777a2.862,2.862,0,0,1-2.179.556,26.96,26.96,0,0,1-4.592-2.378c-.434-.269-.553-1.033-.839-1.558a2.875,2.875,0,0,0-.587-.892c-1.832-1.482-3.69-2.931-5.54-4.391l-.326.326,5.31,4.659" transform="translate(-399.993 -131.488)"/>
    <path id="Path_502" data-name="Path 502" d="M611.632,198.668c-1.708,1.064-3.331,2.767-5.15,3.012-1.846.248-3.907-.881-5.835-1.525-1.391-.465-2.718-1.123-4.353-1.813l-.2,1.528c3.571-.527,5.792,2.508,8.911,2.668q-.044.273-.088.545a3.393,3.393,0,0,1-1.128.058c-2.966-.9-5.954-1.756-8.863-2.82-1.676-.613-1.715-1.508-.176-2.427a5.233,5.233,0,0,1,2.77-.85c4.641.275,9.271.714,13.905,1.1l.211.529" transform="translate(-371.596 -123.587)"/>
    <path id="Path_503" data-name="Path 503" d="M578.59,237.892q-2.153-2.732-4.3-5.465c-.215-.275-.4-.571-.621-.885,1.667-.565,5.827.408,7.956,1.833q-1.537,2.246-3.064,4.5a.12.12,0,0,0,.033.017" transform="translate(-359.101 -145.083)"/>
    <path id="Path_504" data-name="Path 504" d="M596.691,243.53c.492,1.434,1.065,2.838,1.415,4.295a1.833,1.833,0,0,1-.718,1.449c-.218.168-.924-.179-1.334-.423-.3-.176-.464-.566-.691-.859-1.889-2.442-1.722-3.071,1.328-4.462" transform="translate(-371.913 -152.689)"/>
    <path id="Path_505" data-name="Path 505" d="M196.75,560.493l16.3-39.517c.581,1.967-11.483,31.671-16.3,39.517" transform="translate(-123.161 -326.364)" fill="#fff"/>
    <path id="Path_506" data-name="Path 506" d="M203.178,559.372l16.3-38.528.691.293L203.72,559.6l-.542-.229" transform="translate(-127.185 -326.281)" fill="#fff"/>
    <path id="Path_507" data-name="Path 507" d="M177.992,548.652c1.119-2.32,2.324-4.6,3.338-6.969a65.982,65.982,0,0,0,3.781-9.694c1.051-4.19,3.05-7.871,4.956-11.643.838-1.658,1.511-3.4,2.3-5.084,1.241-2.655,2.515-5.294,3.775-7.939l.676.246a7.745,7.745,0,0,1-.388,1.443q-2.028,4.18-4.122,8.328c-.839,1.666-1.607,3.383-2.6,4.952-2.692,4.237-3.45,9.172-5.2,13.744-1.683,4.409-3.946,8.6-5.954,12.881l-.561-.267" transform="translate(-111.419 -317.817)" fill="#fff"/>
    <path id="Path_508" data-name="Path 508" d="M185.744,556.429c4.82-11.965,10.162-23.722,14.08-36.04.09-.282.592-.433,1.277-.9a363.306,363.306,0,0,1-15.357,36.942" transform="translate(-116.271 -325.432)" fill="#fff"/>
    <path id="Path_509" data-name="Path 509" d="M178.87,501.073c-.23.52-.451,1.044-.691,1.56-1.492,3.2-2.972,6.416-4.486,9.611-1.6,3.371-3.309,6.691-4.817,10.1a37.3,37.3,0,0,0-2.686,7.344c-.831,4.02-3,7.339-4.868,10.839a5.787,5.787,0,0,1-.648.909c-.042.052-.214,0-.5-.017A24.092,24.092,0,0,1,161.984,538c2.511-3.343,3.177-7.393,4.507-11.193.6-1.7,1.223-3.4,1.969-5.035,3.087-6.784,6.223-13.546,9.352-20.31a3.416,3.416,0,0,1,.53-.654l.529.26" transform="translate(-100.266 -313.742)" fill="#fff"/>
    <path id="Path_510" data-name="Path 510" d="M167.249,547.549c4.46-13.171,9.473-26.106,16.175-38.319l.52.226c-1.522,3.056-3.093,6.088-4.552,9.173-1.488,3.146-2.933,6.316-4.272,9.527-1.361,3.264-2.594,6.582-3.839,9.893-1.211,3.22-2.368,6.462-3.548,9.694l-.484-.194" transform="translate(-104.694 -319.011)" fill="#fff"/>
    <path id="Path_511" data-name="Path 511" d="M343.3,358.742q.9-4.556,1.8-9.111l.563.107q-.918,4.529-1.837,9.057l-.53-.053" transform="translate(-214.898 -219.106)" fill="#fff"/>
    <path id="Path_512" data-name="Path 512" d="M384.559,352l-1.316-5.629.51-.123,1.419,5.6-.613.147" transform="translate(-239.901 -216.989)" fill="#fff"/>
    <path id="Path_513" data-name="Path 513" d="M918.665,57.407c1.011-2.24,1.908-4.3,2.891-6.319.122-.251.9-.5,1.029-.38,1.457,1.379,2.847,2.83,4.633,4.645-3.743.317-3.195,2.49-2.773,4.683.212,1.105-.115,1.859-1.508,2.007-1.361.145-1.569-.573-1.735-1.58-.254-1.54-.151-3.405-2.535-3.057m3.583-5.507-2.592,4.83c2.206-.059,1.673,1.8,2.106,3.012.24.675,0,1.934,1.257,1.482.422-.151.772-1.259.7-1.881-.208-1.934-1.174-4.09,2.757-4.193l-4.232-3.25" transform="translate(-575.063 -31.967)" fill="#fff"/>
    <path id="Path_514" data-name="Path 514" d="M871.375,67.184a3.793,3.793,0,0,1,.9-.188c.876,0,2.183-.265,2.521.18.452.6.121,1.765.189,2.683.035.472.3.933.3,1.4,0,.846.2,2.093-.249,2.452a9.147,9.147,0,0,1-3.187,1.144c-.085.024-.45-.456-.454-.706-.036-2.247-.021-4.495-.021-6.964m.71,3.229c1.589-.173,2.765-.554,2.561-2.211-.043-.346-1.041-.894-1.5-.811-1.794.322-1.153,1.676-1.058,3.022M871.4,72.4c.938.768,1.6,1.576,1.853,1.464a7.193,7.193,0,0,0,1.73-1.533,6.054,6.054,0,0,0-1.787-.981c-.393-.068-.895.494-1.8,1.05" transform="translate(-545.458 -42.134)" fill="#fff"/>
    <path id="Path_515" data-name="Path 515" d="M890.2,66.343c.322.213.668.323.807.556.366.618.641,1.288.953,1.937-.721.238-1.485.734-2.15.625-.449-.074-.923-.952-1.094-1.554a35.524,35.524,0,0,1-.671-3.592c-.2-1.128-.42-2.372.914-2.873.546-.2,1.828.1,1.929.432a9.468,9.468,0,0,1,.239,3.275c-.024.392-.566.752-.927,1.195m-.655-.561c1.447-.983,1.875-2.1.967-3.4a1.633,1.633,0,0,0-1.532-.189c-.994,1.257-.3,2.384.566,3.587" transform="translate(-555.799 -38.665)" fill="#fff"/>
    <path id="Path_516" data-name="Path 516" d="M837.945,72.72c1.364.025,2.039.663,1.946,2.087a10.657,10.657,0,0,0,.036,2.5,2.72,2.72,0,0,1-2.891,3.233,1.224,1.224,0,0,1-.767-.824c-.256-1.519-.461-3.051-.581-4.587-.152-1.957.325-2.421,2.257-2.412m-1.038,4.018c.151.971.286,1.845.416,2.684,1.383.1,2.026-.455,1.919-1.609-.115-1.244-.969-1.429-2.335-1.076m-.389-1.472.872.639,1.811-1.536c-.561-.306-1.364-1-1.632-.834-.511.318-.718,1.126-1.051,1.731" transform="translate(-523.105 -45.766)" fill="#fff"/>
    <path id="Path_517" data-name="Path 517" d="M768.565,88.415c-1.647-1.431-2.264-1.372-3.966.321.4-2.038.8-4.077,1.252-6.38,2.562,1.616,2.27,4,2.714,6.06" transform="translate(-478.621 -51.797)" fill="#fff"/>
    <path id="Path_518" data-name="Path 518" d="M750.348,85.668c-2.641,1.4-3.254,4.148-1.45,6.829,1.932-.727,2.066-1.051,1.423-3.791l2.427-.65.249.57-1.4.842c-.151.8-.075,1.683-.472,2.2a3.8,3.8,0,0,1-2.165,1.455c-.389.056-1.212-1.077-1.386-1.784a9.472,9.472,0,0,1-.186-3.5,2.377,2.377,0,0,1,2.96-2.173" transform="translate(-467.795 -53.849)" fill="#fff"/>
    <path id="Path_519" data-name="Path 519" d="M795.871,76.77c-2.3.705-2.3.705-1.862,3.319l2.284-.479.417.505c-1.579.65-3.953.859-2.208,3.444h1.982l.091.582a5.739,5.739,0,0,1-2.035.208,1.813,1.813,0,0,1-1.039-1.275,24.9,24.9,0,0,1-.321-5.371c.165-1.763,1.672-.986,2.692-.931" transform="translate(-496.479 -48.165)" fill="#fff"/>
    <path id="Path_520" data-name="Path 520" d="M806.965,81.68l3.067-1.413a13.261,13.261,0,0,0-2.054-2.822c-1.013-.827-1.925-1.508-1.156-2.877.575-1.023,2.112-.775,3.374.705a6.313,6.313,0,0,0-1.517-.539,4.075,4.075,0,0,0-1.332.333c.162.477.194,1.085.514,1.4.738.738,1.731,1.237,2.406,2.017a1.929,1.929,0,0,1-.228,2.969c-1.17,1.009-2.354,1-3.073.223" transform="translate(-504.872 -46.534)" fill="#fff"/>
    <path id="Path_521" data-name="Path 521" d="M778.586,85.245v-6.34h-2.77l-.05-.444,5.36-1.118.159.507c-.27.163-.535.457-.809.465-1.113.033-1.319.7-1.309,1.621.018,1.768.005,3.536.005,5.3l-.585.006" transform="translate(-485.611 -48.66)" fill="#fff"/>
    <path id="Path_522" data-name="Path 522" d="M852.854,78.943l-1.879.185c1.087-2.409.723-4.787-.773-5.672l.743-2.344.335.019,1.574,7.811" transform="translate(-532.207 -44.759)" fill="#fff"/>
    <path id="Path_523" data-name="Path 523" d="M923.907,53.947l4.232,3.25c-3.931.1-2.965,2.258-2.757,4.193.067.622-.283,1.729-.7,1.881-1.261.453-1.017-.806-1.257-1.482-.433-1.217.1-3.071-2.106-3.012l2.592-4.83" transform="translate(-576.721 -34.014)"/>
    <path id="Path_524" data-name="Path 524" d="M872.962,71.193c-.1-1.346-.736-2.7,1.058-3.022.461-.083,1.46.465,1.5.811.2,1.657-.972,2.038-2.561,2.211" transform="translate(-546.335 -42.913)"/>
    <path id="Path_525" data-name="Path 525" d="M871.451,79.8c.9-.556,1.4-1.118,1.8-1.05a6.054,6.054,0,0,1,1.787.981,7.194,7.194,0,0,1-1.73,1.533c-.252.112-.914-.7-1.853-1.464" transform="translate(-545.508 -49.537)"/>
    <path id="Path_526" data-name="Path 526" d="M890.537,66.957c-.867-1.2-1.56-2.33-.565-3.587a1.633,1.633,0,0,1,1.532.189c.909,1.3.48,2.415-.967,3.4" transform="translate(-556.796 -39.839)"/>
    <path id="Path_527" data-name="Path 527" d="M838.993,83.2c1.366-.353,2.22-.169,2.335,1.076.107,1.153-.536,1.706-1.919,1.608-.13-.839-.266-1.713-.416-2.684" transform="translate(-525.19 -52.224)"/>
    <path id="Path_528" data-name="Path 528" d="M837.953,76.586c.333-.6.54-1.413,1.051-1.731.268-.166,1.071.529,1.632.834l-1.811,1.536-.872-.639" transform="translate(-524.539 -47.087)"/>
  </g>
</svg>
