<?xml version="1.0" standalone="no"?>
<!DOCTYPE svg PUBLIC "-//W3C//DTD SVG 20010904//EN"
 "http://www.w3.org/TR/2001/REC-SVG-20010904/DTD/svg10.dtd">
<svg version="1.0" xmlns="http://www.w3.org/2000/svg"
 width="331.000000pt" height="389.000000pt" viewBox="0 0 331.000000 389.000000"
 preserveAspectRatio="xMidYMid meet">

<g transform="translate(0.000000,389.000000) scale(0.100000,-0.100000)"
fill="#000000" stroke="none">
<path d="M1206 3869 c-40 -31 -34 -67 39 -236 36 -83 65 -156 65 -161 0 -6
-19 -21 -42 -35 -144 -84 -295 -270 -355 -434 -55 -151 -70 -319 -34 -364 l19
-24 821 -3 c898 -3 873 -4 887 54 11 42 -3 182 -26 262 -24 86 -72 187 -128
269 -48 71 -168 187 -239 232 -29 18 -53 37 -53 43 0 5 29 78 65 162 36 84 65
166 65 183 0 60 -82 95 -126 55 -11 -10 -51 -92 -89 -181 -62 -144 -72 -161
-90 -156 -152 44 -366 44 -505 0 -14 -5 -29 23 -84 152 -37 87 -77 168 -88
181 -27 28 -67 28 -102 1z m261 -801 c30 -28 32 -87 3 -113 -30 -27 -88 -25
-111 4 -61 76 38 175 108 109z m640 0 c41 -38 28 -105 -26 -128 -61 -25 -126
40 -101 101 7 16 20 34 29 39 28 16 74 11 98 -12z"/>
<path d="M365 2436 c-51 -22 -97 -68 -121 -121 l-24 -50 0 -450 0 -450 24 -51
c84 -181 342 -179 432 3 18 35 19 69 22 473 2 292 -1 449 -8 479 -28 110 -120
181 -234 181 -34 -1 -74 -7 -91 -14z"/>
<path d="M880 2430 c-20 -20 -20 -30 -18 -728 l3 -707 32 -67 c50 -106 138
-179 266 -222 15 -5 17 -25 17 -238 1 -223 2 -235 24 -278 91 -179 351 -167
435 20 12 27 16 85 19 263 l4 227 74 0 74 0 0 -208 c0 -253 8 -291 78 -361
109 -109 285 -88 367 43 l30 49 5 239 5 239 56 23 c82 33 145 83 189 149 72
107 70 81 70 847 l0 687 -23 21 -23 22 -832 0 c-821 0 -832 0 -852 -20z"/>
<path d="M2893 2420 c-28 -16 -61 -43 -72 -59 -50 -69 -51 -85 -51 -546 0
-301 4 -442 12 -466 22 -65 65 -116 123 -144 111 -55 244 -16 310 89 l30 49 0
471 c0 467 0 471 -22 512 -43 81 -118 124 -217 124 -49 0 -71 -6 -113 -30z"/>
</g>
</svg>
