<?xml version="1.0" encoding="utf-8"?>
<!-- Generator: Adobe Illustrator 25.0.1, SVG Export Plug-In . SVG Version: 6.00 Build 0)  -->
<svg version="1.1" id="Mobile-Development" xmlns="http://www.w3.org/2000/svg" xmlns:xlink="http://www.w3.org/1999/xlink" x="0px"
	 y="0px" viewBox="0 0 37 25.8" style="enable-background:new 0 0 37 25.8;" xml:space="preserve">
<style type="text/css">
	.st0{fill:#FFFFFF;stroke:#E01F26;stroke-width:0.8;}
</style>
<g id="mobile" transform="translate(-974.933 -183.6)">
	<path id="Path_1809" class="st0" d="M999.6,199.7v3.1h-12.4v-3.1h-2.1v7.2c0,1.1,0.9,2.1,2.1,2h12.4c1.1,0,2.1-0.9,2.1-2v-7.2
		H999.6z M994.4,206.8h-2c-0.6,0-1-0.5-1-1c0-0.6,0.5-1,1-1l0,0h2.1c0.6,0,1,0.5,1,1C995.5,206.4,995,206.8,994.4,206.8L994.4,206.8
		L994.4,206.8z"/>
	<path id="Path_1810" class="st0" d="M995.5,190.7l3.7,3.7l-3.7,3.7l1.4,1.4l4.4-4.4c0.4-0.4,0.4-1,0-1.4l-4.4-4.4L995.5,190.7z"/>
	<path id="Path_1811" class="st0" d="M991.3,198.1l-3.7-3.7l3.7-3.7l-1.4-1.4l-4.4,4.4c-0.4,0.4-0.4,1,0,1.4l4.4,4.4L991.3,198.1z"
		/>
	<path id="Path_1812" class="st0" d="M985.2,186.2c0-1.1,0.9-2.1,2.1-2h12.4c1.1,0,2.1,0.9,2.1,2v3.1h-2.1v-3.1h-12.4v3.1h-2.1
		V186.2z"/>
</g>
</svg>
