<svg xmlns="http://www.w3.org/2000/svg" width="59.691" height="55.96" viewBox="0 0 59.691 55.96">
  <g id="noun_Third_Party_2077632" data-name="noun_Third Party_2077632" transform="translate(0 -4)">
    <path id="Path_338" data-name="Path 338" d="M77.268,7.549l.438.107a.928.928,0,0,0,.448-1.8l-.466-.117a.933.933,0,0,0-.42,1.809Z" transform="translate(-40.895 -0.924)" fill="#fff"/>
    <path id="Path_339" data-name="Path 339" d="M53.492,6.491h.14l.466-.065a.941.941,0,1,0-.252-1.865l-.466.07A.935.935,0,1,0,53.52,6.5Z" transform="translate(-28.025 -0.294)" fill="#fff"/>
    <path id="Path_340" data-name="Path 340" d="M45.754,8.162a.933.933,0,0,0,.256-.037L46.444,8a.933.933,0,0,0-.466-1.8l-.466.131a.933.933,0,0,0,.256,1.828Z" transform="translate(-23.93 -1.168)" fill="#fff"/>
    <path id="Path_341" data-name="Path 341" d="M61.5,5.865h.466a.933.933,0,0,0,0-1.865H61.5a.933.933,0,0,0,0,1.865Z" transform="translate(-32.324)" fill="#fff"/>
    <path id="Path_342" data-name="Path 342" d="M69.421,6.184l.466.051H70a.934.934,0,0,0,.112-1.865l-.466-.056a.938.938,0,1,0-.2,1.865Z" transform="translate(-36.615 -0.165)" fill="#fff"/>
    <path id="Path_343" data-name="Path 343" d="M104.91,22.58a.933.933,0,1,0,1.3-1.343l-.35-.331a.933.933,0,1,0-1.273,1.362Z" transform="translate(-55.642 -8.875)" fill="#fff"/>
    <path id="Path_344" data-name="Path 344" d="M123.839,55.212a.933.933,0,0,0-.755,1.082q.037.224.075.466a.933.933,0,0,0,.933.788h.149a.933.933,0,0,0,.774-1.068q-.037-.238-.079-.466a.933.933,0,0,0-1.1-.8Z" transform="translate(-65.678 -27.322)" fill="#fff"/>
    <path id="Path_345" data-name="Path 345" d="M121.211,48.606c.047.145.089.289.131.434a.934.934,0,1,0,1.791-.532l-.14-.466a.934.934,0,0,0-1.781.56Z" transform="translate(-64.664 -23.155)" fill="#fff"/>
    <path id="Path_346" data-name="Path 346" d="M118.386,41.3l.187.41a.933.933,0,0,0,1.707-.755l-.2-.438a.933.933,0,0,0-1.693.783Z" transform="translate(-63.136 -19.201)" fill="#fff"/>
    <path id="Path_347" data-name="Path 347" d="M98.574,17.31l.364.266a.933.933,0,0,0,1.11-1.5l-.387-.284a.933.933,0,0,0-1.087,1.516Z" transform="translate(-52.408 -6.208)" fill="#fff"/>
    <path id="Path_348" data-name="Path 348" d="M123.94,64.13V64.6a.933.933,0,0,0,.933.9h.028a.933.933,0,0,0,.933-.975V64.06a.947.947,0,0,0-1.893.07Z" transform="translate(-66.143 -31.576)" fill="#fff"/>
    <path id="Path_349" data-name="Path 349" d="M31.091,14.391a.933.933,0,0,0,.466-.135l.378-.224A.933.933,0,0,0,31,12.418l-.415.242a.933.933,0,0,0,.466,1.735Z" transform="translate(-16.08 -4.436)" fill="#fff"/>
    <path id="Path_350" data-name="Path 350" d="M110.282,28.345a.939.939,0,1,0,1.464-1.175l-.3-.368a.933.933,0,1,0-1.436,1.189Z" transform="translate(-58.584 -11.978)" fill="#fff"/>
    <path id="Path_351" data-name="Path 351" d="M114.808,34.686a.933.933,0,1,0,1.595-.97l-.252-.41a.933.933,0,1,0-1.576.984Z" transform="translate(-61.045 -15.368)" fill="#fff"/>
    <path id="Path_352" data-name="Path 352" d="M91.861,13.123l.4.219a.938.938,0,0,0,.933-1.627l-.424-.233a.933.933,0,0,0-.886,1.641Z" transform="translate(-48.772 -3.933)" fill="#fff"/>
    <path id="Path_353" data-name="Path 353" d="M8.548,36.6a.933.933,0,0,0,1.273-.35l.224-.392a.933.933,0,1,0-1.6-.933l-.242.42A.933.933,0,0,0,8.548,36.6Z" transform="translate(-4.314 -16.21)" fill="#fff"/>
    <path id="Path_354" data-name="Path 354" d="M5.161,43.9a.933.933,0,0,0,1.217-.513l.173-.415a.934.934,0,0,0-1.716-.737l-.187.466a.933.933,0,0,0,.513,1.2Z" transform="translate(-2.447 -20.102)" fill="#fff"/>
    <path id="Path_355" data-name="Path 355" d="M.933,67.332a.933.933,0,0,0,.933-.933v-.466A.933.933,0,0,0,.933,65h0A.933.933,0,0,0,0,65.933V66.4a.933.933,0,0,0,.933.933Z" transform="translate(0 -32.554)" fill="#fff"/>
    <path id="Path_356" data-name="Path 356" d="M2.748,51.527A.933.933,0,0,0,3.9,50.865q.056-.219.117-.434a.933.933,0,0,0-1.8-.5q-.065.233-.126.466A.933.933,0,0,0,2.748,51.527Z" transform="translate(-1.102 -24.159)" fill="#fff"/>
    <path id="Path_357" data-name="Path 357" d="M38.273,8.835l-.438.187a.943.943,0,1,0,.741,1.735l.415-.177a.933.933,0,0,0-.718-1.721Z" transform="translate(-19.885 -2.559)" fill="#fff"/>
    <path id="Path_358" data-name="Path 358" d="M86.288,9.489a.933.933,0,0,0-.522-1.212L85.3,8.1a.934.934,0,0,0-.667,1.744l.424.163a.933.933,0,0,0,1.212-.522Z" transform="translate(-44.846 -2.155)" fill="#fff"/>
    <path id="Path_359" data-name="Path 359" d="M1.3,59.3h.121a.933.933,0,0,0,.933-.811,3.558,3.558,0,0,1,.061-.466.942.942,0,0,0-1.865-.27,3.742,3.742,0,0,1-.065.466A.933.933,0,0,0,1.3,59.3Z" transform="translate(-0.252 -28.257)" fill="#fff"/>
    <path id="Path_360" data-name="Path 360" d="M24.537,18.849a.933.933,0,0,0,.578-.2l.354-.275a.933.933,0,0,0-1.133-1.483l-.382.294a.933.933,0,0,0,.578,1.665Z" transform="translate(-12.594 -6.777)" fill="#fff"/>
    <path id="Path_361" data-name="Path 361" d="M12.829,29.957a.933.933,0,0,0,1.306-.182l.275-.359a.933.933,0,1,0-1.474-1.143l-.289.382A.933.933,0,0,0,12.829,29.957Z" transform="translate(-6.65 -12.75)" fill="#fff"/>
    <path id="Path_362" data-name="Path 362" d="M18.623,24.074a.933.933,0,0,0,.667-.28l.322-.322a.933.933,0,1,0-1.3-1.324l-.336.34a.933.933,0,0,0,.667,1.586Z" transform="translate(-9.45 -9.507)" fill="#fff"/>
    <path id="Path_363" data-name="Path 363" d="M9.86,100.94a1.166,1.166,0,0,1,.256-.853.984.984,0,0,1,.63-.224A.934.934,0,0,0,10.853,98a2.845,2.845,0,0,0-2.005.718,2.91,2.91,0,0,0-.853,2.224v.788a.933.933,0,1,0,1.865,0Z" transform="translate(-4.264 -50.162)" fill="#fff"/>
    <path id="Path_364" data-name="Path 364" d="M14.344,90.2a6.561,6.561,0,0,1-2.332,1.772h1.324a3.3,3.3,0,0,1,3.455,3.092V104.1H1.865V95.064a3.3,3.3,0,0,1,3.455-3.092H6.645A6.561,6.561,0,0,1,4.314,90.2,5.064,5.064,0,0,0,0,95.064v9.909a1.031,1.031,0,0,0,1.063.989H17.59a1.031,1.031,0,0,0,1.063-.989V95.064A5.064,5.064,0,0,0,14.344,90.2Z" transform="translate(0 -46.002)" fill="#fff"/>
    <path id="Path_365" data-name="Path 365" d="M19.327,75.913a4.663,4.663,0,1,0-4.663,4.663A4.663,4.663,0,0,0,19.327,75.913Zm-7.461,0a2.8,2.8,0,1,1,2.8,2.8A2.8,2.8,0,0,1,11.865,75.913Z" transform="translate(-5.337 -35.889)" fill="#fff"/>
    <ellipse id="Ellipse_24" data-name="Ellipse 24" cx="1" cy="1.5" rx="1" ry="1.5" transform="translate(2.845 53.979)" fill="#fff"/>
    <path id="Path_366" data-name="Path 366" d="M97.86,100.94a1.166,1.166,0,0,1,.256-.853.979.979,0,0,1,.63-.224.934.934,0,0,0,.1-1.865,2.845,2.845,0,0,0-2.005.718,2.91,2.91,0,0,0-.849,2.224v.788a.933.933,0,1,0,1.865,0Z" transform="translate(-51.227 -50.162)" fill="#fff"/>
    <path id="Path_367" data-name="Path 367" d="M102.344,90.2a6.561,6.561,0,0,1-2.332,1.772h1.324a3.3,3.3,0,0,1,3.455,3.092V104.1H89.865V95.064a3.3,3.3,0,0,1,3.456-3.092h1.324A6.557,6.557,0,0,1,92.314,90.2,5.064,5.064,0,0,0,88,95.064v9.909a1.031,1.031,0,0,0,1.063.989H105.59a1.031,1.031,0,0,0,1.063-.989V95.064A5.064,5.064,0,0,0,102.344,90.2Z" transform="translate(-46.963 -46.002)" fill="#fff"/>
    <path id="Path_368" data-name="Path 368" d="M102.663,80.577A4.663,4.663,0,1,0,98,75.913,4.663,4.663,0,0,0,102.663,80.577Zm0-7.461a2.8,2.8,0,1,1-2.8,2.8A2.8,2.8,0,0,1,102.663,73.115Z" transform="translate(-52.3 -35.889)" fill="#fff"/>
    <circle id="Ellipse_25" data-name="Ellipse 25" cx="1.5" cy="1.5" r="1.5" transform="translate(44.845 53.979)" fill="#fff"/>
    <path id="Path_369" data-name="Path 369" d="M53.86,42.94a1.166,1.166,0,0,1,.256-.853.979.979,0,0,1,.63-.224.934.934,0,0,0,.1-1.865,2.84,2.84,0,0,0-2.005.718,2.91,2.91,0,0,0-.849,2.224v.788a.933.933,0,0,0,1.865,0Z" transform="translate(-27.745 -19.209)" fill="#fff"/>
    <path id="Path_370" data-name="Path 370" d="M58.647,32.34a6.575,6.575,0,0,1-1.786,1.707h.466a3.3,3.3,0,0,1,3.46,3.092v9.033H45.865V37.139a3.3,3.3,0,0,1,3.455-3.092h.466a6.575,6.575,0,0,1-1.781-1.707A5.032,5.032,0,0,0,44,37.139v9.909a1.031,1.031,0,0,0,1.063.989H61.59a1.031,1.031,0,0,0,1.063-.989V37.139A5.032,5.032,0,0,0,58.647,32.34Z" transform="translate(-23.482 -15.124)" fill="#fff"/>
    <path id="Path_371" data-name="Path 371" d="M63.327,18.913a4.663,4.663,0,1,0-4.663,4.663A4.663,4.663,0,0,0,63.327,18.913Zm-7.461,0a2.8,2.8,0,1,1,2.8,2.8,2.8,2.8,0,0,1-2.8-2.8Z" transform="translate(-28.818 -5.47)" fill="#fff"/>
    <ellipse id="Ellipse_26" data-name="Ellipse 26" cx="1.5" cy="1" rx="1.5" ry="1" transform="translate(23.845 27.979)" fill="#fff"/>
    <path id="Path_372" data-name="Path 372" d="M60.266,82.589a.933.933,0,0,0,.933-.933V74.112l.616.956a.933.933,0,1,0,1.572-1.007l-2.332-3.633a.933.933,0,0,0-1.572,0L57.151,74.06a.933.933,0,0,0,1.572,1.007l.611-.956v7.545A.933.933,0,0,0,60.266,82.589Z" transform="translate(-30.421 -35.221)" fill="#fff"/>
    <path id="Path_373" data-name="Path 373" d="M62.075,103.4l-3.549-2.257a.933.933,0,0,0-1,1.576l.965.611H48.234l.961-.611a.933.933,0,0,0-1-1.576L44.648,103.4a.933.933,0,0,0,0,1.725l3.549,2.257a.933.933,0,0,0,1-1.576l-.961-.611H58.494l-.961.611a.933.933,0,0,0,1,1.576l3.549-2.257a.933.933,0,0,0,0-1.725Z" transform="translate(-23.519 -51.766)" fill="#fff"/>
  </g>
</svg>
