<svg id="_4" data-name="4" xmlns="http://www.w3.org/2000/svg" width="56.33" height="56.35" viewBox="0 0 56.33 56.35">
  <g id="Group_82" data-name="Group 82">
    <g id="Group_76" data-name="Group 76" transform="translate(7.739)">
      <path id="Path_282" data-name="Path 282" d="M49.015,24.95,36.186,17.858c1.258-3.076,2.18-6.066,2.18-8.288a9.31,9.31,0,1,0-18.614-.085,23.23,23.23,0,0,0,2.1,8.2L9.019,24.608a1.025,1.025,0,0,0-.419.769v17.6a.762.762,0,0,0,.419.684l19.537,12.56a.75.75,0,0,0,.838,0l19.7-10.68a.9.9,0,0,0,.419-.769V25.719A.865.865,0,0,0,49.015,24.95Zm-2.1.769-5.031,2.82-8.469-4.7c.671-1.367,1.425-2.905,2.1-4.443Zm-9.391,5.639-6.289-3.5c.419-.769.922-1.623,1.425-2.649l8.385,4.7v5.639l-3.1,1.709V32.041A.874.874,0,0,0,37.527,31.358ZM29.059,1.709a7.732,7.732,0,0,1,7.63,7.775c0,4.785-5.282,14.782-7.63,18.968-2.515-4.272-7.63-13.927-7.63-18.968A7.732,7.732,0,0,1,29.059,1.709ZM22.1,19.4l.5.256c.755,1.623,1.509,3.247,2.264,4.7L19,21.1ZM17.236,22.13l9.139,5.041c1.09,1.88,1.845,3.247,1.928,3.418a.853.853,0,0,0,.671.427h0a.746.746,0,0,0,.671-.427,10.085,10.085,0,0,0,.671-1.111l4.947,2.734-6.372,3.5L11.032,25.462ZM10.277,42.465V26.829l17.86,10.339V54Zm19.537,11.62V37.168l6.456-3.589v5.212a.9.9,0,0,0,.419.769.75.75,0,0,0,.838,0l4.779-2.649a.9.9,0,0,0,.419-.769V29.991l5.115-2.82V44.345Z" transform="translate(-8.6)"/>
    </g>
    <g id="Group_77" data-name="Group 77" transform="translate(11.223 33.476)">
      <path id="Path_283" data-name="Path 283" d="M27.074,46.885l-12.329-7.2a.927.927,0,0,0-.9,1.62l12.329,7.2a.927.927,0,0,0,.9-1.62Z" transform="translate(-13.359 -39.559)"/>
    </g>
    <g id="Group_78" data-name="Group 78" transform="translate(11.139 37.792)">
      <path id="Path_284" data-name="Path 284" d="M26.974,51.985l-12.329-7.2a.927.927,0,0,0-.9,1.62l12.329,7.2a.927.927,0,0,0,.9-1.62Z" transform="translate(-13.259 -44.659)"/>
    </g>
    <g id="Group_79" data-name="Group 79" transform="translate(22.707 4.32)">
      <path id="Path_285" data-name="Path 285" d="M32.389,15.779A5.489,5.489,0,1,0,26.9,10.289,5.454,5.454,0,0,0,32.389,15.779Zm0-9.269A3.69,3.69,0,1,1,28.7,10.2,3.706,3.706,0,0,1,32.389,6.51Z" transform="translate(-26.9 -4.8)"/>
    </g>
    <g id="Group_80" data-name="Group 80" transform="translate(0 7.641)">
      <path id="Path_286" data-name="Path 286" d="M9.359,22a.945.945,0,0,0,.45-.81V19.3h7.2a.85.85,0,0,0,.9-.9V12.1a.85.85,0,0,0-.9-.9h-7.2V9.4a.945.945,0,0,0-.45-.81.828.828,0,0,0-.9.09L.36,14.618a.758.758,0,0,0-.36.63,1.111,1.111,0,0,0,.36.72l8.1,5.939A1.065,1.065,0,0,0,9.359,22ZM8.1,18.4v.99L2.43,15.248,8.1,11.109v.99A.85.85,0,0,0,9,13h7.2v4.5H9A.9.9,0,0,0,8.1,18.4Z" transform="translate(0 -8.491)" fill="#a11d21"/>
    </g>
    <g id="Group_81" data-name="Group 81" transform="translate(38.398 7.551)">
      <path id="Path_287" data-name="Path 287" d="M63.638,14.518l-8.1-5.939a.828.828,0,0,0-.9-.09,1.193,1.193,0,0,0-.54.9v1.89H46.9a.85.85,0,0,0-.9.9v6.3a.85.85,0,0,0,.9.9h7.2v1.89a.945.945,0,0,0,.45.81.828.828,0,0,0,.9-.09l8.1-5.939a.818.818,0,0,0,.36-.72A.831.831,0,0,0,63.638,14.518ZM55.9,19.378v-.99a.85.85,0,0,0-.9-.9H47.8v-4.5H55a.85.85,0,0,0,.9-.9V11.1l5.669,4.14Z" transform="translate(-46 -8.391)" fill="#a11d21"/>
    </g>
  </g>
</svg>
