<svg id="_5" data-name="5" xmlns="http://www.w3.org/2000/svg" width="55.711" height="51" viewBox="0 0 55.711 51">
  <g id="Group_84" data-name="Group 84">
    <g id="Group_83" data-name="Group 83">
      <path id="Path_288" data-name="Path 288" d="M556.426,153v1.857h.407l.9,3.6c-.446.1-.869.2-1.305.306v1.911c.581-.139,1.155-.282,1.755-.412l1.086,4.342a41.009,41.009,0,0,0-10.957,16.257H534.933a20.366,20.366,0,0,0-6.1-5.625A46.51,46.51,0,0,1,536,169.323V167a47.452,47.452,0,0,0-8.938,7.252,36.11,36.11,0,0,0-12.178-3.419l1.174-4.693a21.451,21.451,0,0,0,5.084-2.013V162a18.271,18.271,0,0,1-4.572,2.093l2.308-9.237h2.266V153h-3.714L510,182.715h55.711L558.283,153h-1.857Zm-44.047,27.856,2.046-8.182a35.533,35.533,0,0,1,11.308,3.04,36.375,36.375,0,0,0-3.755,5.142h-9.6Zm11.853,0a37.161,37.161,0,0,1,3.281-4.21,19.333,19.333,0,0,1,5.111,4.21Zm39.1,0H550.324a40.025,40.025,0,0,1,9.469-14.162Z" transform="translate(-510 -131.715)"/>
      <path id="Path_289" data-name="Path 289" d="M519.184,154.857c-.05.147-.125.3-.184.453v3.811a16.088,16.088,0,0,0,2.084-4.264h3.046a8.3,8.3,0,0,1-.9-1.857H519v1.857Z" transform="translate(-502.287 -131.201)"/>
      <path id="Path_290" data-name="Path 290" d="M536.285,156.911A66.5,66.5,0,0,0,527,160.556v2.134a63.108,63.108,0,0,1,9.285-3.816Z" transform="translate(-495.43 -128.002)"/>
      <path id="Path_291" data-name="Path 291" d="M534.366,154.857V153H530.14a8.291,8.291,0,0,1-.9,1.857Z" transform="translate(-493.511 -131.16)"/>
      <path id="Path_292" data-name="Path 292" d="M527.571,160.906v20.52h1.857v-20.52a6.5,6.5,0,1,0-1.857,0Zm-3.714-6.407a4.643,4.643,0,1,1,4.643,4.643A4.642,4.642,0,0,1,523.857,154.5Z" transform="translate(-499.716 -136)" fill="#a11d21"/>
      <path id="Path_293" data-name="Path 293" d="M535.571,174.427h1.857v-20.52a6.5,6.5,0,1,0-1.857,0ZM531.857,147.5a4.643,4.643,0,1,1,4.643,4.643A4.642,4.642,0,0,1,531.857,147.5Z" transform="translate(-492.859 -141)" fill="#a11d21"/>
      <path id="Path_294" data-name="Path 294" d="M519.571,175.426h1.857v-20.52a6.554,6.554,0,1,0-1.857,0ZM515.857,148.5a4.643,4.643,0,1,1,4.643,4.643A4.642,4.642,0,0,1,515.857,148.5Z" transform="translate(-506.572 -140.142)" fill="#a11d21"/>
    </g>
  </g>
</svg>
