<svg xmlns="http://www.w3.org/2000/svg" width="58.625" height="51.857" viewBox="0 0 58.625 51.857">
  <g id="_6" data-name="6" transform="translate(0.256 0.2)">
    <g id="Layer_7" data-name="Layer 7" transform="translate(0)">
      <path id="Path_295" data-name="Path 295" d="M62.549,26.284,55.654,8.72H12.446L5.552,26.284a8.021,8.021,0,0,0,.784,7.381,7.659,7.659,0,0,0,1.569,1.7v19.3a5.26,5.26,0,0,0,5.21,5.309H54.967A5.269,5.269,0,0,0,60.2,54.661V35.371a7.689,7.689,0,0,0,1.569-1.707A8.021,8.021,0,0,0,62.549,26.284ZM34.786,10.21H44l3.36,18.876a6.543,6.543,0,0,1-1.716,5.692,6.27,6.27,0,0,1-5.556,1.846,6.4,6.4,0,0,1-5.3-6.374Zm-1.472,0V30.24a6.4,6.4,0,0,1-5.3,6.384,6.26,6.26,0,0,1-5.557-1.838,6.533,6.533,0,0,1-1.716-5.69l3.36-18.876ZM7.547,32.8a6.4,6.4,0,0,1-.629-5.92l6.527-16.626h9.17L18.905,30.388a6.309,6.309,0,0,1-6.159,5.249,6.139,6.139,0,0,1-5.2-2.842ZM28.918,58.45v-14.4H41.129V58.48Zm29.8-3.819a3.793,3.793,0,0,1-3.748,3.819H42.591V42.545H27.456V58.48H13.134a3.793,3.793,0,0,1-3.748-3.819V36.309A7.679,7.679,0,0,0,19.6,32.835a7.774,7.774,0,0,0,14.448.829,7.77,7.77,0,0,0,14.467-.779,7.679,7.679,0,0,0,10.216,3.473Zm1.84-21.866a6.14,6.14,0,0,1-5.2,2.871,6.307,6.307,0,0,1-6.168-5.21l-3.7-20.218h9.17l6.507,16.626a6.4,6.4,0,0,1-.61,5.96Z" transform="translate(-4.994 -8.72)" stroke="#000" stroke-width="0.4"/>
    </g>
    <g id="Rectangle_163" data-name="Rectangle 163" transform="translate(22 34.657)" fill="none" stroke="#a11d21" stroke-width="2">
      <rect width="16" height="17" stroke="none"/>
      <rect x="1" y="1" width="14" height="15" fill="none"/>
    </g>
  </g>
</svg>
