<svg xmlns="http://www.w3.org/2000/svg" width="66.506" height="51.958" viewBox="0 0 66.506 51.958">
  <g id="_1" data-name="1" transform="translate(-3 -10)">
    <path id="Path_279" data-name="Path 279" d="M67.427,50.527H64.31V12.078A2.081,2.081,0,0,0,62.232,10H10.274A2.081,2.081,0,0,0,8.2,12.078V50.527H5.078A2.081,2.081,0,0,0,3,52.605a9.363,9.363,0,0,0,9.352,9.352h47.8a9.363,9.363,0,0,0,9.352-9.352A2.081,2.081,0,0,0,67.427,50.527ZM10.274,12.078l51.958,0v38.45H10.274ZM67.427,52.605a7.283,7.283,0,0,1-7.274,7.274h-47.8a7.283,7.283,0,0,1-7.274-7.274H67.427Z" transform="translate(0 0)"/>
    <path id="Path_280" data-name="Path 280" d="M45.822,25.352H42.7V23.274a7.274,7.274,0,1,0-14.548,0v2.078H25.039A1.039,1.039,0,0,0,24,26.392V44.057a2.081,2.081,0,0,0,2.078,2.078h18.7a2.081,2.081,0,0,0,2.078-2.078V26.392A1.039,1.039,0,0,0,45.822,25.352ZM30.235,23.274a5.2,5.2,0,1,1,10.392,0v2.078H30.235ZM44.783,44.057h-18.7V27.431h2.078v3.117a1.039,1.039,0,0,0,2.078,0V27.431H40.626v3.117a1.039,1.039,0,1,0,2.078,0V27.431h2.078Z" transform="translate(0.822 0.235)" fill="#a11d21"/>
  </g>
</svg>
