<svg xmlns="http://www.w3.org/2000/svg" width="58.056" height="50.759" viewBox="0 0 58.056 50.759">
  <g id="noun_Apple_devices_800725" data-name="noun_Apple devices_800725" transform="translate(-1.25 -9.25)">
    <path id="Path_324" data-name="Path 324" d="M54.451,51.961h2.28a1.83,1.83,0,0,0,1.824-1.824V11.824A1.83,1.83,0,0,0,56.732,10H3.824A1.83,1.83,0,0,0,2,11.824V50.136a1.83,1.83,0,0,0,1.824,1.824h11.4" fill="none" stroke="#fff" stroke-miterlimit="10" stroke-width="1.5"/>
    <line id="Line_19" data-name="Line 19" x2="2" transform="translate(55.277 44.629)" fill="none" stroke="#fff" stroke-miterlimit="10" stroke-width="1.5"/>
    <line id="Line_20" data-name="Line 20" x2="13" transform="translate(3.277 44.629)" fill="none" stroke="#fff" stroke-miterlimit="10" stroke-width="1.5"/>
    <path id="Path_325" data-name="Path 325" d="M59.315,111h9.031v2.28a7.019,7.019,0,0,1-3.649.912H23.649A7.019,7.019,0,0,1,20,113.28V111H44.538" transform="translate(-9.79 -54.934)" fill="none" stroke="#fff" stroke-miterlimit="10" stroke-width="1.5"/>
    <path id="Path_326" data-name="Path 326" d="M69.224,80V55.824A1.83,1.83,0,0,0,67.4,54H31.824A1.83,1.83,0,0,0,30,55.824V80" transform="translate(-15.229 -23.932)" fill="none" stroke="#fff" stroke-miterlimit="10" stroke-width="1.5"/>
    <path id="Path_327" data-name="Path 327" d="M88.6,91.7V74.824A1.83,1.83,0,0,0,86.771,73H75.824A1.83,1.83,0,0,0,74,74.824V91.7a1.83,1.83,0,0,0,1.824,1.824H86.771A1.83,1.83,0,0,0,88.6,91.7Z" transform="translate(-39.161 -34.266)" fill="none" stroke="#fff" stroke-miterlimit="10" stroke-width="1.5"/>
    <circle id="Ellipse_22" data-name="Ellipse 22" cx="1" cy="1" r="1" transform="translate(29.277 13.629)" fill="#fff" stroke="#fff" stroke-width="0.5"/>
    <circle id="Ellipse_23" data-name="Ellipse 23" cx="1" cy="1" r="1" transform="translate(33.277 34.629)" fill="#fff" stroke="#fff" stroke-width="0.5"/>
  </g>
</svg>
