<svg id="ANDROID" xmlns="http://www.w3.org/2000/svg" width="25.119" height="25.119" viewBox="0 0 25.119 25.119">
  <path id="Path_428" data-name="Path 428" d="M34,66.052h1.758v1.758a2.01,2.01,0,1,0,4.019,0V66.052h3.517v1.758a2.01,2.01,0,1,0,4.019,0V66.052h1.758V55H34Z" transform="translate(-28.976 -44.701)" fill="#979797"/>
  <path id="Path_429" data-name="Path 429" d="M46.959,14.136a.987.987,0,0,0-.5-.136,1,1,0,0,0-.869.5l-1.507,2.62a7.536,7.536,0,0,0-9.922,0L32.641,14.5a1,1,0,0,0-.869-.5.987.987,0,0,0-.5.136,1,1,0,0,0-.369,1.372l1.866,3.23a7.463,7.463,0,0,0-1.188,4.054H46.65a7.463,7.463,0,0,0-1.188-4.054l1.866-3.23a1,1,0,0,0-.369-1.372ZM36.226,20.782a.754.754,0,1,1,.754-.754A.754.754,0,0,1,36.226,20.782Zm5.777,0a.754.754,0,1,1,.754-.754A.754.754,0,0,1,42,20.782Z" transform="translate(-26.555 -14)" fill="#979797"/>
  <path id="Path_430" data-name="Path 430" d="M103.507,55A1.507,1.507,0,0,0,102,56.507v5.024a1.507,1.507,0,0,0,3.014,0V56.507A1.507,1.507,0,0,0,103.507,55Z" transform="translate(-79.895 -44.701)" fill="#979797"/>
  <path id="Path_431" data-name="Path 431" d="M15.507,55A1.507,1.507,0,0,0,14,56.507v5.024a1.507,1.507,0,0,0,3.014,0V56.507A1.507,1.507,0,0,0,15.507,55Z" transform="translate(-14 -44.701)" fill="#979797"/>
</svg>
