<?xml version="1.0" encoding="utf-8"?>
<!-- Generator: Adobe Illustrator 27.0.1, SVG Export Plug-In . SVG Version: 6.00 Build 0)  -->
<svg version="1.1" id="Layer_1" xmlns="http://www.w3.org/2000/svg" xmlns:xlink="http://www.w3.org/1999/xlink" x="0px" y="0px"
	 viewBox="0 0 79 100" style="enable-background:new 0 0 79 100;" xml:space="preserve">
<style type="text/css">
	.st0{fill:#FFFFFF;}
	.st1{fill:none;}
</style>
<g transform="translate(0.000000,100.000000) scale(0.100000,-0.100000)">
	<path class="st0" d="M260,985c0-9,6-31,14-49c14-33,13-34-16-56c-36-27-81-119-76-157l3-28l204-3c157-2,206,1,213,10
		c21,34-28,150-77,182c-24,16-25,17-10,52c20,49,19,64-6,64c-15,0-25-11-35-37l-15-38h-64h-64l-17,38C297,1000,260,1016,260,985z"/>
	<path class="st0" d="M12,598c-8-8-12-54-12-140c0-124,1-128,25-144c26-17,55-13,80,12c12,12,15,42,15,133c0,102-3,120-18,134
		C80,613,29,615,12,598z"/>
	<path class="st0" d="M686,594c-13-12-16-39-16-133c0-133,8-154,58-154c56,0,62,13,62,145c0,66-5,128-10,139
		C767,615,708,617,686,594z"/>
	<path class="st0" d="M187,573c-4-3-7-84-7-179c0-171,0-173,26-203c14-17,32-31,40-31c11,0,14-16,14-64c0-56,3-67,22-80
		c55-38,98-3,98,79c0,41,4,55,15,55c10,0,15-16,17-62c3-56,6-64,31-78c24-13,30-13,55,0c25,14,27,21,30,83c2,46,7,67,16,67
		c7,0,23,12,37,26c23,24,24,32,27,186c2,88,1,170-2,184l-6,24H396C285,580,190,577,187,573z"/>
</g>
<circle class="st1" cx="33.2" cy="20.1" r="1.5"/>
<circle class="st1" cx="46.1" cy="20.1" r="1.5"/>
</svg>
