<svg id="WEB" xmlns="http://www.w3.org/2000/svg" width="25.571" height="25.188" viewBox="0 0 25.571 25.188">
  <path id="Path_447" data-name="Path 447" d="M65,152.511c1.279-.256,2.557-.384,3.836-.511v5.753a15.426,15.426,0,0,1-2.685-3.069C65.767,154.046,65.384,153.279,65,152.511Z" transform="translate(-56.689 -132.566)" fill="#979797" fill-rule="evenodd"/>
  <path id="Path_448" data-name="Path 448" d="M36.265,163.731A13.582,13.582,0,0,1,30,160.406,34.749,34.749,0,0,1,33.2,159a15.064,15.064,0,0,0,1.406,2.429A10.637,10.637,0,0,0,36.265,163.731Z" transform="translate(-26.164 -138.671)" fill="#979797" fill-rule="evenodd"/>
  <path id="Path_449" data-name="Path 449" d="M105,157.753V152a32.416,32.416,0,0,1,3.708.511,11.335,11.335,0,0,1-1.023,2.174A15.426,15.426,0,0,1,105,157.753Z" transform="translate(-91.575 -132.566)" fill="#979797" fill-rule="evenodd"/>
  <path id="Path_450" data-name="Path 450" d="M127.137,160.406A12.583,12.583,0,0,1,121,163.731a10.637,10.637,0,0,0,1.662-2.3A15.064,15.064,0,0,0,124.069,159,22.433,22.433,0,0,1,127.137,160.406Z" transform="translate(-105.53 -138.671)" fill="#979797" fill-rule="evenodd"/>
  <path id="Path_451" data-name="Path 451" d="M6.521,113.242c-1.151.511-2.429,1.023-3.58,1.662A14.056,14.056,0,0,1,0,108H5.5A23.789,23.789,0,0,0,6.521,113.242Z" transform="translate(0 -94.192)" fill="#979797" fill-rule="evenodd"/>
  <path id="Path_452" data-name="Path 452" d="M59.242,112.347a22.408,22.408,0,0,0-4.219.511A15.7,15.7,0,0,1,54,108h5.242Z" transform="translate(-47.096 -94.192)" fill="#979797" fill-rule="evenodd"/>
  <path id="Path_453" data-name="Path 453" d="M109.219,112.986a15.309,15.309,0,0,0-4.219-.639V108h5.242A17.329,17.329,0,0,1,109.219,112.986Z" transform="translate(-91.575 -94.192)" fill="#979797" fill-rule="evenodd"/>
  <path id="Path_454" data-name="Path 454" d="M154.521,108a12.843,12.843,0,0,1-2.813,6.9A32.6,32.6,0,0,0,148,113.242,18.319,18.319,0,0,0,149.151,108Z" transform="translate(-129.077 -94.192)" fill="#979797" fill-rule="evenodd"/>
  <path id="Path_455" data-name="Path 455" d="M5.5,48.288H0A12.978,12.978,0,0,1,2.3,41c.128,0,.128.128.256.128a19.82,19.82,0,0,0,3.708,1.79A19.466,19.466,0,0,0,5.5,48.288Z" transform="translate(0 -35.758)" fill="#979797" fill-rule="evenodd"/>
  <path id="Path_456" data-name="Path 456" d="M58.37,63.986H53A16.877,16.877,0,0,1,53.767,59a26.609,26.609,0,0,0,4.6.767Z" transform="translate(-46.224 -51.457)" fill="#979797" fill-rule="evenodd"/>
  <path id="Path_457" data-name="Path 457" d="M110.37,63.986H105V59.767A28.822,28.822,0,0,0,109.6,59,16.877,16.877,0,0,1,110.37,63.986Z" transform="translate(-91.575 -51.457)" fill="#979797" fill-rule="evenodd"/>
  <path id="Path_458" data-name="Path 458" d="M154.964,41a12.978,12.978,0,0,1,2.3,7.288h-5.5a19.466,19.466,0,0,0-.767-5.37,19.82,19.82,0,0,0,3.708-1.79C154.836,41.128,154.836,41,154.964,41Z" transform="translate(-131.694 -35.758)" fill="#979797" fill-rule="evenodd"/>
  <path id="Path_459" data-name="Path 459" d="M28.452,6.753a16.159,16.159,0,0,1-3.324-1.662H25A12.42,12.42,0,0,1,31.9,1a13.957,13.957,0,0,0-1.662,2.174A13.415,13.415,0,0,0,28.452,6.753Z" transform="translate(-21.804 -0.872)" fill="#979797" fill-rule="evenodd"/>
  <path id="Path_460" data-name="Path 460" d="M66.219,6.9A16.076,16.076,0,0,1,62,6.265a14.712,14.712,0,0,1,1.534-3.2A15.425,15.425,0,0,1,66.219,0Z" transform="translate(-54.073)" fill="#979797" fill-rule="evenodd"/>
  <path id="Path_461" data-name="Path 461" d="M109.219,6.265A16.076,16.076,0,0,1,105,6.9V0a15.426,15.426,0,0,1,2.685,3.069A14.712,14.712,0,0,1,109.219,6.265Z" transform="translate(-91.575)" fill="#979797" fill-rule="evenodd"/>
  <path id="Path_462" data-name="Path 462" d="M121,1a12.42,12.42,0,0,1,6.9,4.091h-.128a16.159,16.159,0,0,1-3.324,1.662,18.733,18.733,0,0,0-1.79-3.58A13.958,13.958,0,0,0,121,1Z" transform="translate(-105.53 -0.872)" fill="#979797" fill-rule="evenodd"/>
</svg>
