<svg width="69" height="71" viewBox="0 0 69 71" fill="none" xmlns="http://www.w3.org/2000/svg">
<path d="M57.5134 12.0153C57.5134 15.0316 55.1758 17.477 52.2918 17.477C49.4078 17.477 47.0698 15.0317 47.0698 12.0153C47.0698 8.99889 49.4078 6.55396 52.2918 6.55396C55.1758 6.55396 57.5134 8.99889 57.5134 12.0153Z" fill="black"/>
<path d="M56.469 19.6609H48.1142C48.0975 19.6609 46.383 19.6784 45.5674 20.3064L39.8666 24.6865L39.7594 24.5605V8.7376H41.8482V4.36826C41.8482 3.16339 40.9113 2.18359 39.7594 2.18359H11.5613C10.4093 2.18359 9.47253 3.16341 9.47253 4.36826V8.7376H11.5613V34.9528H9.47253V39.3222C9.47253 40.527 10.4094 41.5068 11.5613 41.5068H23.987L15.9584 52.8729C15.6155 53.3583 15.7137 54.0421 16.1777 54.4003C16.6418 54.7605 17.2963 54.6559 17.6381 54.1709L25.6599 42.815L33.6814 54.1709C33.886 54.461 34.2019 54.6143 34.5224 54.6143C34.7375 54.6143 34.9554 54.545 35.1421 54.4003C35.6062 54.0418 35.7039 53.3584 35.3614 52.8729L27.3332 41.5068H39.7589C40.9109 41.5068 41.8477 40.527 41.8477 39.3222V34.9528H39.7589V32.1116C40.4207 32.1116 41.0798 31.8862 41.6136 31.4757L44.9805 28.8893V51.3375C44.9805 53.1445 46.3859 54.6145 48.1138 54.6145C48.9506 54.6145 49.7373 54.2738 50.3291 53.6545C50.9212 53.036 51.247 52.2123 51.2462 51.3379V38.2303C51.2462 37.6276 51.7148 37.1376 52.2907 37.1376C52.8668 37.1376 53.3354 37.6277 53.3354 38.23L53.335 51.3376C53.335 53.1446 54.7408 54.6146 56.4685 54.6146C58.1963 54.6146 59.6018 53.1447 59.6018 51.3376V22.9376C59.6018 21.1305 58.1964 19.6605 56.4685 19.6605L56.469 19.6609ZM13.6497 34.9533V8.7381H37.67V22.1186L34.6322 18.5669C33.7697 17.5606 32.3275 17.2733 31.1448 17.7345L27.4798 13.2368C27.1059 12.7764 26.4456 12.7221 26.0077 13.1135C25.5686 13.505 25.516 14.1948 25.8899 14.6532L29.5697 19.1691C28.9427 20.3549 29.0514 21.8717 29.9625 22.9374L36.8759 31.0192C37.104 31.2863 37.3782 31.4939 37.6699 31.6674V34.9532L13.6497 34.9533Z" fill="black"/>
<path d="M16.783 15.2924H23.0494C23.6263 15.2924 24.0938 14.8035 24.0938 14.2001C24.0938 13.5966 23.6264 13.1077 23.0494 13.1077H16.783C16.2061 13.1077 15.7386 13.5966 15.7386 14.2001C15.7386 14.8035 16.2064 15.2924 16.783 15.2924Z" fill="black"/>
<path d="M16.783 21.8457H23.0494C23.6263 21.8457 24.0938 21.3567 24.0938 20.7533C24.0938 20.1498 23.6264 19.6609 23.0494 19.6609H16.783C16.2061 19.6609 15.7386 20.1498 15.7386 20.7533C15.7386 21.3563 16.2064 21.8457 16.783 21.8457Z" fill="black"/>
<path d="M29.3154 26.2153H16.783C16.2061 26.2153 15.7386 26.7043 15.7386 27.3077C15.7386 27.9111 16.206 28.4001 16.783 28.4001H29.3154C29.8923 28.4001 30.3598 27.9112 30.3598 27.3077C30.3598 26.7047 29.8924 26.2153 29.3154 26.2153Z" fill="black"/>
</svg>
