<svg width="51" height="53" viewBox="0 0 51 53" fill="none" xmlns="http://www.w3.org/2000/svg">
<path d="M47.469 17.6609H39.1142C39.0975 17.6609 37.383 17.6784 36.5674 18.3064L30.8666 22.6865L30.7594 22.5605V6.7376H32.8482V2.36826C32.8482 1.16339 31.9113 0.183594 30.7594 0.183594H2.56133C1.40933 0.183594 0.472534 1.16341 0.472534 2.36826V6.7376H2.56133V32.9528H0.472534V37.3222C0.472534 38.527 1.40935 39.5068 2.56133 39.5068H14.987L6.95837 50.8729C6.61553 51.3583 6.71366 52.0421 7.1777 52.4003C7.64176 52.7605 8.29633 52.6559 8.63808 52.1709L16.6599 40.815L24.6814 52.1709C24.886 52.461 25.2019 52.6143 25.5224 52.6143C25.7375 52.6143 25.9554 52.545 26.1421 52.4003C26.6062 52.0418 26.7039 51.3584 26.3615 50.8729L18.3332 39.5068H30.7589C31.9109 39.5068 32.8477 38.527 32.8477 37.3222V32.9528H30.7589V30.1116C31.4207 30.1116 32.0798 29.8862 32.6136 29.4757L35.9805 26.8893V49.3375C35.9805 51.1445 37.3859 52.6145 39.1138 52.6145C39.9506 52.6145 40.7373 52.2738 41.3291 51.6545C41.9212 51.036 42.247 50.2123 42.2462 49.3379V36.2303C42.2462 35.6276 42.7148 35.1376 43.2907 35.1376C43.8668 35.1376 44.3354 35.6277 44.3354 36.23L44.335 49.3376C44.335 51.1446 45.7408 52.6146 47.4685 52.6146C49.1963 52.6146 50.6018 51.1447 50.6018 49.3376V20.9376C50.6018 19.1305 49.1964 17.6605 47.4685 17.6605L47.469 17.6609ZM4.64968 32.9533V6.7381H28.67V20.1186L25.6322 16.5669C24.7697 15.5606 23.3275 15.2733 22.1448 15.7345L18.4798 11.2368C18.1059 10.7764 17.4456 10.7221 17.0077 11.1135C16.5686 11.505 16.516 12.1948 16.8899 12.6532L20.5697 17.1691C19.9427 18.3549 20.0514 19.8717 20.9625 20.9374L27.8759 29.0192C28.104 29.2863 28.3782 29.4939 28.6699 29.6674V32.9532L4.64968 32.9533Z" fill="black"/>
</svg>
