<?xml version="1.0" encoding="utf-8"?>
<!-- Generator: Adobe Illustrator 25.0.1, SVG Export Plug-In . SVG Version: 6.00 Build 0)  -->
<svg version="1.1" id="Mobile-Development" xmlns="http://www.w3.org/2000/svg" xmlns:xlink="http://www.w3.org/1999/xlink" x="0px"
	 y="0px" viewBox="0 0 37 25.8" style="enable-background:new 0 0 37 25.8;" xml:space="preserve">
<style type="text/css">
	.st0{fill:#FFFFFF;}
	.st1{fill:none;stroke:#FFFFFF;stroke-width:0.1047;stroke-miterlimit:10;}
</style>
<g>
	<path class="st0" d="M5.9,12.9c0-7,5.6-12.6,12.6-12.6c6.9,0,12.6,5.7,12.6,12.6c0,6.9-5.7,12.6-12.6,12.6
		C11.6,25.5,5.9,19.8,5.9,12.9z M19.5,2.4c0,0.1,0,0.1,0,0.2c0,1,0,2,0,3c0,0.1,0,0.2-0.2,0.2c-0.5,0-1.1,0-1.6,0
		c-0.2,0-0.2-0.1-0.2-0.2c0-1,0-2,0-3c0-0.1,0-0.1,0-0.2c-2,0.1-4.9,1.1-7,3.7C9,7.7,8.2,9.7,8,11.9c0.1,0,0.2,0,0.2,0c1,0,2,0,3,0
		c0.1,0,0.2,0,0.2,0.2c0,0.5,0,1.1,0,1.6c0,0.2-0.1,0.2-0.2,0.2c-1,0-2,0-3,0c-0.1,0-0.1,0-0.2,0c0.1,2,1.1,4.9,3.6,7
		c1.7,1.4,3.6,2.3,5.8,2.5c0-0.1,0-0.1,0-0.2c0-1,0-2,0-3.1c0-0.1,0-0.2,0.2-0.2c0.5,0,1.1,0,1.6,0c0.2,0,0.2,0.1,0.2,0.2
		c0,1,0,2,0,3c0,0.1,0,0.1,0,0.2c2.8-0.3,5.2-1.5,7-3.7c1.4-1.7,2.2-3.6,2.5-5.8c-1.2,0-2.3,0-3.4,0c0-0.1,0-0.1,0-0.2
		c0-0.5,0-1.1,0-1.6c0-0.2,0.1-0.2,0.2-0.2c1,0,2,0,3,0c0.1,0,0.1,0,0.2,0C28.7,7.1,24.5,2.8,19.5,2.4z"/>
	<circle class="st1" cx="18.3" cy="12.5" r="3.3"/>
	<polygon class="st0" points="15.5,8.9 18.8,17 19.3,13.9 22.4,14.4 	"/>
	<line class="st1" x1="20.9" y1="10.4" x2="15.7" y2="14.6"/>
</g>
</svg>
