<svg xmlns="http://www.w3.org/2000/svg" width="503.122" height="503.122" viewBox="0 0 503.122 503.122">
  <g id="Group_2737" data-name="Group 2737" transform="translate(-2 -2)">
    <path id="Path_364" data-name="Path 364" d="M10.385,253.561h234.79a8.383,8.383,0,0,0,8.385-8.385V111.01a8.383,8.383,0,0,0-8.385-8.385H152.937V10.385A8.383,8.383,0,0,0,144.551,2H10.385A8.383,8.383,0,0,0,2,10.385v234.79A8.383,8.383,0,0,0,10.385,253.561ZM60.7,236.79V186.478H94.239V236.79ZM236.79,119.4v117.4H152.937V119.4ZM18.771,18.771h117.4V236.79H111.01V186.478H119.4V169.707H35.541v16.771h8.385V236.79H18.771Z"/>
    <path id="Path_365" data-name="Path 365" d="M334.259,140.01H242.02V39.385A8.383,8.383,0,0,0,233.634,31H133.01a8.383,8.383,0,0,0-8.385,8.385V140.01H32.385A8.383,8.383,0,0,0,24,148.4V282.561a8.383,8.383,0,0,0,8.385,8.385H334.259a8.383,8.383,0,0,0,8.385-8.385V148.4A8.383,8.383,0,0,0,334.259,140.01ZM40.771,156.781h83.854v117.4H40.771ZM141.4,148.4V47.771h83.854V274.176H208.478V232.249a8.383,8.383,0,0,0-8.385-8.385H166.551a8.383,8.383,0,0,0-8.385,8.385v41.927H141.4Zm33.542,125.781V240.634h16.771v33.541Zm150.937,0H242.02v-117.4h83.854Z" transform="translate(162.478 214.176)"/>
    <rect id="Rectangle_171" data-name="Rectangle 171" width="17" height="17" transform="translate(35.561 35.561)"/>
    <rect id="Rectangle_172" data-name="Rectangle 172" width="16" height="17" transform="translate(69.561 35.561)"/>
    <rect id="Rectangle_173" data-name="Rectangle 173" width="17" height="17" transform="translate(102.561 35.561)"/>
    <rect id="Rectangle_174" data-name="Rectangle 174" width="17" height="16" transform="translate(35.561 69.561)"/>
    <rect id="Rectangle_175" data-name="Rectangle 175" width="16" height="16" transform="translate(69.561 69.561)"/>
    <rect id="Rectangle_176" data-name="Rectangle 176" width="17" height="16" transform="translate(102.561 69.561)"/>
    <rect id="Rectangle_177" data-name="Rectangle 177" width="17" height="17" transform="translate(35.561 102.561)"/>
    <rect id="Rectangle_178" data-name="Rectangle 178" width="16" height="17" transform="translate(69.561 102.561)"/>
    <rect id="Rectangle_179" data-name="Rectangle 179" width="17" height="17" transform="translate(102.561 102.561)"/>
    <rect id="Rectangle_180" data-name="Rectangle 180" width="17" height="16" transform="translate(169.561 136.561)"/>
    <rect id="Rectangle_181" data-name="Rectangle 181" width="16" height="16" transform="translate(203.561 136.561)"/>
    <rect id="Rectangle_182" data-name="Rectangle 182" width="17" height="17" transform="translate(169.561 169.561)"/>
    <rect id="Rectangle_183" data-name="Rectangle 183" width="16" height="17" transform="translate(203.561 169.561)"/>
    <rect id="Rectangle_184" data-name="Rectangle 184" width="17" height="17" transform="translate(320.561 278.561)"/>
    <rect id="Rectangle_185" data-name="Rectangle 185" width="16" height="17" transform="translate(354.561 278.561)"/>
    <rect id="Rectangle_186" data-name="Rectangle 186" width="17" height="16" transform="translate(320.561 312.561)"/>
    <rect id="Rectangle_187" data-name="Rectangle 187" width="16" height="16" transform="translate(354.561 312.561)"/>
    <rect id="Rectangle_188" data-name="Rectangle 188" width="17" height="17" transform="translate(320.561 345.561)"/>
    <rect id="Rectangle_189" data-name="Rectangle 189" width="16" height="17" transform="translate(354.561 345.561)"/>
    <rect id="Rectangle_190" data-name="Rectangle 190" width="17" height="17" transform="translate(320.561 379.561)"/>
    <rect id="Rectangle_191" data-name="Rectangle 191" width="16" height="17" transform="translate(354.561 379.561)"/>
    <rect id="Rectangle_192" data-name="Rectangle 192" width="16" height="17" transform="translate(421.561 387.561)"/>
    <rect id="Rectangle_193" data-name="Rectangle 193" width="17" height="17" transform="translate(454.561 387.561)"/>
    <rect id="Rectangle_194" data-name="Rectangle 194" width="16" height="16" transform="translate(421.561 421.561)"/>
    <rect id="Rectangle_195" data-name="Rectangle 195" width="17" height="16" transform="translate(454.561 421.561)"/>
    <rect id="Rectangle_196" data-name="Rectangle 196" width="17" height="17" transform="translate(219.561 387.561)"/>
    <rect id="Rectangle_197" data-name="Rectangle 197" width="17" height="17" transform="translate(253.561 387.561)"/>
    <rect id="Rectangle_198" data-name="Rectangle 198" width="17" height="16" transform="translate(219.561 421.561)"/>
    <rect id="Rectangle_199" data-name="Rectangle 199" width="17" height="16" transform="translate(253.561 421.561)"/>
    <rect id="Rectangle_200" data-name="Rectangle 200" width="17" height="17" transform="translate(169.561 52.561)"/>
    <rect id="Rectangle_201" data-name="Rectangle 201" width="16" height="17" transform="translate(203.561 52.561)"/>
    <rect id="Rectangle_202" data-name="Rectangle 202" width="17" height="17" transform="translate(236.561 52.561)"/>
    <rect id="Rectangle_203" data-name="Rectangle 203" width="17" height="17" transform="translate(270.561 52.561)"/>
    <rect id="Rectangle_204" data-name="Rectangle 204" width="17" height="17" transform="translate(303.561 52.561)"/>
    <rect id="Rectangle_205" data-name="Rectangle 205" width="17" height="17" transform="translate(337.561 52.561)"/>
    <rect id="Rectangle_206" data-name="Rectangle 206" width="17" height="17" transform="translate(370.561 52.561)"/>
    <rect id="Rectangle_207" data-name="Rectangle 207" width="17" height="17" transform="translate(404.561 52.561)"/>
    <rect id="Rectangle_208" data-name="Rectangle 208" width="17" height="17" transform="translate(437.561 52.561)"/>
    <rect id="Rectangle_209" data-name="Rectangle 209" width="17" height="17" transform="translate(437.561 85.561)"/>
    <rect id="Rectangle_210" data-name="Rectangle 210" width="17" height="17" transform="translate(437.561 119.561)"/>
    <rect id="Rectangle_211" data-name="Rectangle 211" width="17" height="17" transform="translate(437.561 152.561)"/>
    <rect id="Rectangle_212" data-name="Rectangle 212" width="17" height="17" transform="translate(437.561 186.561)"/>
    <rect id="Rectangle_213" data-name="Rectangle 213" width="17" height="17" transform="translate(437.561 219.561)"/>
    <rect id="Rectangle_214" data-name="Rectangle 214" width="17" height="17" transform="translate(437.561 253.561)"/>
    <rect id="Rectangle_215" data-name="Rectangle 215" width="17" height="16" transform="translate(437.561 287.561)"/>
    <rect id="Rectangle_216" data-name="Rectangle 216" width="17" height="17" transform="translate(437.561 320.561)"/>
    <rect id="Rectangle_217" data-name="Rectangle 217" width="17" height="17" transform="translate(52.561 270.561)"/>
    <rect id="Rectangle_218" data-name="Rectangle 218" width="17" height="17" transform="translate(52.561 303.561)"/>
    <rect id="Rectangle_219" data-name="Rectangle 219" width="17" height="17" transform="translate(52.561 337.561)"/>
    <rect id="Rectangle_220" data-name="Rectangle 220" width="17" height="17" transform="translate(52.561 370.561)"/>
    <rect id="Rectangle_221" data-name="Rectangle 221" width="17" height="17" transform="translate(52.561 404.561)"/>
    <rect id="Rectangle_222" data-name="Rectangle 222" width="17" height="17" transform="translate(52.561 437.561)"/>
    <rect id="Rectangle_223" data-name="Rectangle 223" width="17" height="17" transform="translate(85.561 437.561)"/>
    <rect id="Rectangle_224" data-name="Rectangle 224" width="17" height="17" transform="translate(119.561 437.561)"/>
    <rect id="Rectangle_225" data-name="Rectangle 225" width="17" height="17" transform="translate(152.561 437.561)"/>
  </g>
</svg>
