<svg xmlns="http://www.w3.org/2000/svg" width="506.87" height="507.022" viewBox="0 0 506.87 507.022">
  <g id="Group_2745" data-name="Group 2745" transform="translate(-226.338 -225.277)">
    <path id="Path_368" data-name="Path 368" d="M558.793,363.352h-92.31v-100.7a8.4,8.4,0,0,0-8.389-8.4H357.385a8.39,8.39,0,0,0-8.39,8.4v100.7h-92.31a8.4,8.4,0,0,0-8.4,8.4V506.016a8.39,8.39,0,0,0,8.4,8.39H558.793a8.39,8.39,0,0,0,8.4-8.39V371.75A8.4,8.4,0,0,0,558.793,363.352ZM265.076,380.14H349V497.627h-83.92Zm100.7-8.389V271.042H449.7V497.627H432.916V455.662a8.393,8.393,0,0,0-8.389-8.39H390.952a8.393,8.393,0,0,0-8.389,8.39v41.964H365.775ZM399.35,497.627V464.06h16.779v33.567Zm151.053,0h-83.92V380.14H550.4Z" transform="translate(166.017 217.893)"/>
    <rect id="Rectangle_267" data-name="Rectangle 267" width="16.784" height="16.784" transform="translate(547.199 503.992)"/>
    <rect id="Rectangle_268" data-name="Rectangle 268" width="16.784" height="16.784" transform="translate(581.043 503.992)"/>
    <rect id="Rectangle_269" data-name="Rectangle 269" width="16.784" height="16.784" transform="translate(547.199 537.837)"/>
    <rect id="Rectangle_270" data-name="Rectangle 270" width="16.784" height="16.784" transform="translate(581.043 537.837)"/>
    <rect id="Rectangle_271" data-name="Rectangle 271" width="16.784" height="16.784" transform="translate(547.199 571.681)"/>
    <rect id="Rectangle_272" data-name="Rectangle 272" width="16.784" height="16.784" transform="translate(581.043 571.681)"/>
    <rect id="Rectangle_273" data-name="Rectangle 273" width="16.784" height="16.784" transform="translate(547.199 605.525)"/>
    <rect id="Rectangle_274" data-name="Rectangle 274" width="16.784" height="16.784" transform="translate(581.043 605.525)"/>
    <rect id="Rectangle_275" data-name="Rectangle 275" width="16.784" height="16.784" transform="translate(649.284 613.986)"/>
    <rect id="Rectangle_276" data-name="Rectangle 276" width="17" height="17" transform="translate(682.774 613.952)"/>
    <rect id="Rectangle_277" data-name="Rectangle 277" width="16.784" height="16.784" transform="translate(649.284 648.383)"/>
    <rect id="Rectangle_278" data-name="Rectangle 278" width="17" height="16" transform="translate(682.774 648.78)"/>
    <rect id="Rectangle_279" data-name="Rectangle 279" width="16.784" height="16.784" transform="translate(445.666 613.986)"/>
    <rect id="Rectangle_280" data-name="Rectangle 280" width="16.784" height="16.784" transform="translate(479.51 613.986)"/>
    <rect id="Rectangle_281" data-name="Rectangle 281" width="16.784" height="16.784" transform="translate(445.666 648.383)"/>
    <rect id="Rectangle_282" data-name="Rectangle 282" width="16.784" height="16.784" transform="translate(479.51 648.383)"/>
    <rect id="Rectangle_283" data-name="Rectangle 283" width="16.784" height="16.784" transform="translate(402.933 266.169)"/>
    <rect id="Rectangle_284" data-name="Rectangle 284" width="16.784" height="16.784" transform="translate(436.777 266.169)"/>
    <rect id="Rectangle_285" data-name="Rectangle 285" width="16.784" height="16.784" transform="translate(470.622 266.169)"/>
    <rect id="Rectangle_286" data-name="Rectangle 286" width="16.784" height="16.784" transform="translate(504.466 266.169)"/>
    <rect id="Rectangle_287" data-name="Rectangle 287" width="16.784" height="16.784" transform="translate(538.31 266.169)"/>
    <rect id="Rectangle_288" data-name="Rectangle 288" width="16.784" height="16.784" transform="translate(572.155 266.169)"/>
    <rect id="Rectangle_289" data-name="Rectangle 289" width="16.784" height="16.784" transform="translate(605.999 266.169)"/>
    <rect id="Rectangle_290" data-name="Rectangle 290" width="16.784" height="16.784" transform="translate(640.468 266.169)"/>
    <rect id="Rectangle_291" data-name="Rectangle 291" width="16.784" height="16.784" transform="translate(674.036 266.169)"/>
    <rect id="Rectangle_292" data-name="Rectangle 292" width="16.784" height="16.784" transform="translate(674.036 299.737)"/>
    <rect id="Rectangle_293" data-name="Rectangle 293" width="16.784" height="16.784" transform="translate(674.036 334.194)"/>
    <rect id="Rectangle_294" data-name="Rectangle 294" width="16.784" height="16.784" transform="translate(674.036 368.039)"/>
    <rect id="Rectangle_295" data-name="Rectangle 295" width="16.784" height="16.784" transform="translate(674.036 401.883)"/>
    <rect id="Rectangle_296" data-name="Rectangle 296" width="16.784" height="16.784" transform="translate(674.036 435.727)"/>
    <rect id="Rectangle_297" data-name="Rectangle 297" width="16.784" height="16.784" transform="translate(674.036 469.571)"/>
    <rect id="Rectangle_298" data-name="Rectangle 298" width="16.784" height="16.784" transform="translate(674.036 503.416)"/>
    <rect id="Rectangle_299" data-name="Rectangle 299" width="16.784" height="16.784" transform="translate(674.036 537.26)"/>
    <rect id="Rectangle_300" data-name="Rectangle 300" width="16.784" height="16.784" transform="translate(276.035 506.578)"/>
    <rect id="Rectangle_301" data-name="Rectangle 301" width="16.784" height="16.784" transform="translate(276.035 474.737)"/>
    <rect id="Rectangle_302" data-name="Rectangle 302" width="16.784" height="16.784" transform="translate(276.035 540.422)"/>
    <rect id="Rectangle_303" data-name="Rectangle 303" width="16.784" height="16.784" transform="translate(276.035 574.267)"/>
    <rect id="Rectangle_304" data-name="Rectangle 304" width="16.784" height="16.784" transform="translate(276.035 608.111)"/>
    <rect id="Rectangle_305" data-name="Rectangle 305" width="16.784" height="16.784" transform="translate(276.035 642.556)"/>
    <rect id="Rectangle_306" data-name="Rectangle 306" width="16.784" height="16.784" transform="translate(276.035 676.124)"/>
    <rect id="Rectangle_307" data-name="Rectangle 307" width="16.784" height="16.784" transform="translate(309.603 676.124)"/>
    <rect id="Rectangle_308" data-name="Rectangle 308" width="16.784" height="16.784" transform="translate(344.133 676.124)"/>
    <rect id="Rectangle_309" data-name="Rectangle 309" width="16.784" height="16.784" transform="translate(377.977 676.124)"/>
    <path id="Path_369" data-name="Path 369" d="M374.1,396.37a23.361,23.361,0,0,1-23.333-23.333v-7.443a77.11,77.11,0,0,0,31.111-61.786v-24.1a54.5,54.5,0,0,0-54.444-54.436H311.884a54.5,54.5,0,0,0-54.444,54.436v24.1A77.11,77.11,0,0,0,288.551,365.6v7.434a23.361,23.361,0,0,1-23.333,23.333,38.926,38.926,0,0,0-38.88,38.888v15.547a7.771,7.771,0,0,0,7.769,7.778h171.1a7.778,7.778,0,0,0,7.778-7.778V435.258A38.933,38.933,0,0,0,374.1,396.37ZM311.884,240.833h15.547a38.926,38.926,0,0,1,38.889,38.88V294.7A30.87,30.87,0,0,1,344.512,271l-1.668-8.373a7.633,7.633,0,0,0-8.4-6.026,7.979,7.979,0,0,0-7.015,7.937,31.25,31.25,0,0,1-30.8,31.144L273,295.955V279.713A38.925,38.925,0,0,1,311.884,240.833ZM273.566,311.5l23.232-.26a46.631,46.631,0,0,0,38.671-21.481,46.283,46.283,0,0,0,30.348,20.844,61.645,61.645,0,0,1-36.978,50.027,23.459,23.459,0,0,1-18.371,0A61.659,61.659,0,0,1,273.566,311.5Zm30.776,63.437a39.1,39.1,0,0,0,30.641,0h0c.134-.067.26-.151.4-.21a38.615,38.615,0,0,0,6.118,19.377l-21.6,9.253L298.583,392.7a38.383,38.383,0,0,0,5.347-17.969C304.073,374.788,304.2,374.872,304.341,374.939Zm-62.456,60.319a23.361,23.361,0,0,1,23.333-23.333,38.611,38.611,0,0,0,22.495-7.283l24.171,12.086v26.3h-70Zm155.546,7.769h-70V417.046L353.5,405.882a38.506,38.506,0,0,0,20.6,6.043,23.361,23.361,0,0,1,23.333,23.333Z" transform="translate(0 0)"/>
  </g>
</svg>
