<svg xmlns="http://www.w3.org/2000/svg" width="507" height="507" viewBox="0 0 507 507">
  <g id="Group_2752" data-name="Group 2752" transform="translate(-2 -2)">
    <path id="Path_370" data-name="Path 370" d="M40.141,23.037a15.838,15.838,0,1,0,.017,0Z" transform="translate(165.849 156.61)"/>
    <path id="Path_371" data-name="Path 371" d="M19.067,344.723A42.57,42.57,0,0,1,55.7,302.945l7.45-1.055-2.27.8,8.439,25.05c17.459,51.78,74.061,79.759,126.413,62.482a99.782,99.782,0,0,0,52.429-40.3L233.8,340.79c-24.747,38.065-76.006,49.088-114.492,24.62a82.146,82.146,0,0,1-33.792-43l-7.6-22.561,53.342-7.537a8.476,8.476,0,0,0,7.279-8.356V263.183c1.289.4,2.62.684,3.934,1.03.9.236,1.783.523,2.679.726a2.266,2.266,0,0,1,.469.076,85.013,85.013,0,0,0,10.4,1.688c.529.051,1.058,0,1.587.076,2.167.169,4.326.329,6.528.329.717,0,1.417-.093,2.133-.11,1.05,0,2.082-.093,3.123-.152,2.611-.16,5.18-.439,7.723-.844.853-.135,1.707-.228,2.56-.388a85.535,85.535,0,0,0,10.061-2.431v20.771a8.48,8.48,0,0,0,7.322,8.356l34.133,4.828,2.423-16.72L206.8,276.637V255.654a84.411,84.411,0,0,0,42.231-64.542h.435a33.9,33.9,0,0,0,10.8-1.9,95.944,95.944,0,0,0,18.338,38.605A80.245,80.245,0,0,1,293.9,260.381l16.7-3.494a97.152,97.152,0,0,0-18.517-39.432,79.148,79.148,0,0,1-16.162-39,32.809,32.809,0,0,0-.853-43.214V119.076C275.6,58.45,226.35,8.873,165.055,8.35S53.644,56.526,53.106,117.152q-.013.962,0,1.924v53.173a68.361,68.361,0,0,1-14.618,42.108l-4.676,5.908a98,98,0,0,0-14.6,83.169A58.719,58.719,0,0,0,2,344.723V461.2H19.067ZM194,243.281a69.537,69.537,0,0,1-21.137,6.3,8.5,8.5,0,0,0-.913.135c-1.169.135-2.338.186-3.516.262-1.024.068-2.048.135-3.081.16s-2.057,0-3.089,0-2.278-.084-3.413-.169-2.074-.169-3.1-.3-2.005-.287-3-.456c-1.152-.194-2.3-.371-3.413-.625-.367-.084-.725-.194-1.092-.279-2.236-.54-4.454-1.173-6.639-1.933l-.777-.287a70.9,70.9,0,0,1-6.716-2.827,67.461,67.461,0,0,1-38.255-60.592V162.239c3.6-2.068,7-4.423,10.513-6.609a15.875,15.875,0,0,0,21.427,6.2,15.53,15.53,0,0,0,6.272-21.193,16.266,16.266,0,0,0-1.783-2.566,375.072,375.072,0,0,0,55.876-50.388,169.855,169.855,0,0,0,44.041,48.438l.188,46.556A67.453,67.453,0,0,1,194,243.281Zm55.467-102.809a16.881,16.881,0,1,1,0,33.761ZM47.227,230.68l4.676-5.95a85.261,85.261,0,0,0,18.21-52.472V119.084c-.495-51.3,41.148-93.28,93.022-93.77s94.31,40.7,94.805,92q.013.886,0,1.772v5.706a34.213,34.213,0,0,0-8.474-1.2h-5.692l-1.323-.979a152.724,152.724,0,0,1-45.039-53.435,8.576,8.576,0,0,0-14.191-1.637,358.758,358.758,0,0,1-98.21,81.431l-1.869,1.055a8.433,8.433,0,0,0-4.343,7.326v25.32a84.241,84.241,0,0,0,42.667,72.982v20.982l-68.181,9.622a59.421,59.421,0,0,0-19.132,6.187A80.8,80.8,0,0,1,47.227,230.68Z" transform="translate(0 47.803)"/>
    <path id="Path_372" data-name="Path 372" d="M277.467,113H237.8L213.68,50.273a27.387,27.387,0,0,0-47.59-6.639,27.484,27.484,0,0,0-46.7,7.834L95.707,113H55.6a25.6,25.6,0,0,0,0,51.2h1.135l12.877,90.155a34.312,34.312,0,0,0,33.775,29.312H229.68a34.315,34.315,0,0,0,33.792-29.312l12.86-90.155h1.135a25.6,25.6,0,0,0,0-51.2Zm-135.68,33.553,6.357-16.486h37.239l5.879,15.3c.247.623.623,1.169.9,1.766H141.505C141.582,146.93,141.718,146.76,141.787,146.555Zm41.506-95.744a10.333,10.333,0,0,1,4.668-1.118,10.525,10.525,0,0,1,3.8.717,10.355,10.355,0,0,1,5.973,5.973L226.7,131.7a10.46,10.46,0,1,1-19.354,7.945c-.06-.145-.119-.29-.171-.435L178.215,63.892a10.419,10.419,0,0,1,5.094-13.082ZM166.747,81.659,178.821,113H154.706Zm-60.416,51.26L135.3,57.6a10.462,10.462,0,0,1,19.524,7.509l-29.013,75.307a10.464,10.464,0,1,1-19.738-6.955c.068-.188.137-.367.213-.546ZM47.067,138.6a8.536,8.536,0,0,1,8.533-8.533H89.494a27.331,27.331,0,0,0,1.161,17.067H55.6A8.536,8.536,0,0,1,47.067,138.6Zm199.492,113.34A17.148,17.148,0,0,1,229.68,266.6H103.387a17.151,17.151,0,0,1-16.9-14.66L73.972,164.2H259.094Zm30.908-104.806H241.814a27.171,27.171,0,0,0,2.091-17.067h33.562a8.533,8.533,0,0,1,0,17.067Z" transform="translate(205.933 225.332)"/>
    <rect id="Rectangle_310" data-name="Rectangle 310" width="17" height="68" transform="translate(348.465 407)"/>
    <rect id="Rectangle_311" data-name="Rectangle 311" width="17" height="68" transform="translate(314.808 407)"/>
    <rect id="Rectangle_312" data-name="Rectangle 312" width="17" height="68" transform="translate(415 407)"/>
    <rect id="Rectangle_313" data-name="Rectangle 313" width="17" height="68" transform="translate(382.121 407)"/>
    <path id="Path_373" data-name="Path 373" d="M223.733,2H70.133A34.135,34.135,0,0,0,36,36.133V147.067A34.135,34.135,0,0,0,70.133,181.2H112.8v51.2a8.528,8.528,0,0,0,15.01,5.547L176.459,181.2h47.275a34.135,34.135,0,0,0,34.133-34.133V36.133A34.135,34.135,0,0,0,223.733,2ZM240.8,147.067a17.062,17.062,0,0,1-17.067,17.067h-51.2a8.524,8.524,0,0,0-6.477,2.987l-36.19,42.24V172.667a8.536,8.536,0,0,0-8.533-8.533h-51.2a17.062,17.062,0,0,1-17.067-17.067V36.133A17.062,17.062,0,0,1,70.133,19.067h153.6A17.062,17.062,0,0,1,240.8,36.133Z" transform="translate(251.133 0)"/>
    <path id="Path_374" data-name="Path 374" d="M176.533,7H159.467V92.333H142.4v-51.2H125.333v51.2H108.267V32.6H91.2V92.333H74.133v-25.6H57.067v25.6H40V109.4H193.6V92.333H176.533Z" transform="translate(281.267 37.667)"/>
    <rect id="Rectangle_314" data-name="Rectangle 314" width="17" height="17" transform="translate(322.727 36)"/>
  </g>
</svg>
