<?xml version="1.0" encoding="utf-8"?>
<!-- Generator: Adobe Illustrator 25.2.3, SVG Export Plug-In . SVG Version: 6.00 Build 0)  -->
<svg version="1.1" id="Layer_1" xmlns="http://www.w3.org/2000/svg" xmlns:xlink="http://www.w3.org/1999/xlink" x="0px" y="0px"
	 viewBox="0 0 847 841.9" style="enable-background:new 0 0 847 841.9;" xml:space="preserve">
<style type="text/css">
	.st0{fill:#EEF3FB;}
	.st1{fill:url(#SVGID_1_);}
	.st2{fill:url(#SVGID_2_);}
	.st3{fill:url(#SVGID_3_);}
	.st4{fill:url(#SVGID_4_);}
	.st5{fill:url(#SVGID_5_);}
	.st6{fill:url(#SVGID_6_);}
	.st7{fill:#2F4E7D;}
	.st8{fill:url(#SVGID_7_);}
	.st9{fill:url(#SVGID_8_);}
	.st10{fill:url(#SVGID_9_);}
	.st11{opacity:0.61;fill:#FFFFFF;enable-background:new    ;}
	.st12{opacity:0.64;fill:#FFFFFF;enable-background:new    ;}
	.st13{fill:url(#SVGID_10_);}
	.st14{fill:url(#SVGID_11_);}
	.st15{fill:url(#SVGID_12_);}
	.st16{fill:url(#SVGID_13_);}
	.st17{fill:url(#SVGID_14_);}
	.st18{fill:url(#SVGID_15_);}
	.st19{fill:url(#SVGID_16_);}
	.st20{fill:#ABB7CB;}
	.st21{fill:#C5D3DF;}
	.st22{fill:#B8CDDA;}
	.st23{fill:#B3C9D7;}
	.st24{fill:#FFFFFF;}
	.st25{fill:none;stroke:#E0E0E0;stroke-width:1.0324;stroke-miterlimit:10;}
	.st26{fill:#AED8F4;}
	.st27{fill:#527EB2;}
	.st28{fill:none;stroke:#E0E0E0;stroke-width:1.0505;stroke-miterlimit:10;}
	.st29{fill:#F2C6A2;}
	.st30{fill:#CC6B2B;}
	.st31{fill:none;stroke:#CC6B2B;stroke-width:2.1011;stroke-linecap:round;stroke-miterlimit:10;}
	.st32{fill:#FFFFFF;stroke:#CC6B2B;stroke-width:1.414;stroke-linecap:round;stroke-miterlimit:10;}
	.st33{fill:#95BAD8;}
</style>
<circle class="st0" cx="424.8" cy="421.2" r="409.1"/>
<g>
	<g>
		
			<linearGradient id="SVGID_1_" gradientUnits="userSpaceOnUse" x1="91.1073" y1="-84.7706" x2="91.1072" y2="218.1929" gradientTransform="matrix(1.0095 0 0 1.0095 321.7571 601.5167)">
			<stop  offset="0.2762" style="stop-color:#CCD5E2"/>
			<stop  offset="1" style="stop-color:#FFFFFF"/>
		</linearGradient>
		<polygon class="st1" points="504.3,822.2 322.5,714.4 322.5,516.4 504.9,618 		"/>
		
			<linearGradient id="SVGID_2_" gradientUnits="userSpaceOnUse" x1="469.4554" y1="-84.3511" x2="469.4554" y2="218.6125" gradientTransform="matrix(-1.0095 0 0 1.0095 1070.0139 601.5167)">
			<stop  offset="0.2762" style="stop-color:#CCD5E2"/>
			<stop  offset="1" style="stop-color:#FFFFFF"/>
		</linearGradient>
		<polygon class="st2" points="505.4,822.2 687.3,714.4 687.3,516.4 504.9,618 		"/>
		
			<linearGradient id="SVGID_3_" gradientUnits="userSpaceOnUse" x1="559.811" y1="-193.4413" x2="559.811" y2="16.3204" gradientTransform="matrix(-1.0095 0 0 1.0095 1070.0139 601.5167)">
			<stop  offset="0.7093" style="stop-color:#CCD5E2"/>
			<stop  offset="1" style="stop-color:#FFFFFF"/>
		</linearGradient>
		<polygon class="st3" points="504.9,618 687.3,516.4 502.3,406.2 322.5,516.4 		"/>
	</g>
	
		<linearGradient id="SVGID_4_" gradientUnits="userSpaceOnUse" x1="-39.088" y1="-349.0743" x2="319.25" y2="-349.0743" gradientTransform="matrix(1.0095 0 0 1.0095 321.7571 601.5167)">
		<stop  offset="0" style="stop-color:#376089"/>
		<stop  offset="1" style="stop-color:#457D9E"/>
	</linearGradient>
	<polygon class="st4" points="466.6,353 282.3,250.6 464.8,145.3 644,249.2 	"/>
	
		<linearGradient id="SVGID_5_" gradientUnits="userSpaceOnUse" x1="10.7729" y1="-349.0743" x2="269.2701" y2="-349.0743" gradientTransform="matrix(1.0095 0 0 1.0095 321.7571 601.5167)">
		<stop  offset="0" style="stop-color:#B4C8D6"/>
		<stop  offset="0.9986" style="stop-color:#F6E1DF"/>
	</linearGradient>
	<path class="st5" d="M462.6,326.9l-128-74.2c-2.6-1.6-2.6-5.4,0-6.9l128.8-74.3l128.2,74.3c2.6,1.6,2.6,5.4,0,6.9L462.6,326.9z"/>
	
		<linearGradient id="SVGID_6_" gradientUnits="userSpaceOnUse" x1="-41.2235" y1="-194.6876" x2="144.1113" y2="-194.6876" gradientTransform="matrix(1.0095 0 0 1.0095 321.7571 601.5167)">
		<stop  offset="0" style="stop-color:#376089"/>
		<stop  offset="1" style="stop-color:#457D9E"/>
	</linearGradient>
	<polygon class="st6" points="461.4,559.3 280.1,447.5 282.3,250.6 467.2,353 	"/>
	<polygon class="st7" points="644,456.4 461.3,559.8 466.6,353 644,249.5 	"/>
	
		<linearGradient id="SVGID_7_" gradientUnits="userSpaceOnUse" x1="151.4634" y1="-237.7904" x2="310.3567" y2="-237.7904" gradientTransform="matrix(1.0095 0 0 1.0095 321.7571 601.5167)">
		<stop  offset="0" style="stop-color:#C6B0D4"/>
		<stop  offset="1" style="stop-color:#EFC2A5"/>
	</linearGradient>
	<polygon class="st8" points="474.7,360.2 635.1,270.1 635.1,452.8 	"/>
	
		<linearGradient id="SVGID_8_" gradientUnits="userSpaceOnUse" x1="1291.9971" y1="-147.9087" x2="1455.7511" y2="-147.9087" gradientTransform="matrix(-1.0095 0 0 1.0095 1939.3333 601.5167)">
		<stop  offset="0" style="stop-color:#EFC1A6"/>
		<stop  offset="1" style="stop-color:#E5AFB3"/>
	</linearGradient>
	<polygon class="st9" points="635.1,452.6 474.7,360.2 469.8,544.3 	"/>
	
		<linearGradient id="SVGID_9_" gradientUnits="userSpaceOnUse" x1="-78.8996" y1="-517.6553" x2="16.8481" y2="-370.2167" gradientTransform="matrix(1.0095 0 0 1.0095 321.7571 601.5167)">
		<stop  offset="0" style="stop-color:#F3F6FB"/>
		<stop  offset="0.2415" style="stop-color:#EEF2F8"/>
		<stop  offset="0.4928" style="stop-color:#E2E9EF"/>
		<stop  offset="0.7146" style="stop-color:#EBF0F4"/>
		<stop  offset="0.9812" style="stop-color:#FCFDFE"/>
	</linearGradient>
	<polygon class="st10" points="117.5,159.9 281,250.9 463.4,146.8 297.6,50 	"/>
	<path class="st11" d="M660.1,489.4l-125.3,70.4c-17.5,9.8-39-3.1-38.7-23.2l3-139.9c0.2-9.1,5.1-17.4,12.9-21.9l122.3-70.9
		c17.2-10.1,38.9,2.5,38.9,22.4v140.4C673.2,476.1,668.2,484.8,660.1,489.4z"/>
	<path class="st12" d="M685.2,509.4l-133,74.7c-15,8.4-33.4-2.6-33-19.8l3.2-148.7c0.1-7.8,4.3-14.8,11-18.7l129.8-75.2
		c14.7-8.5,33.3,2.2,33.3,19.2v149.1C696.5,498.2,692.2,505.6,685.2,509.4z"/>
	<path class="st11" d="M710.5,535.3l-123.3,69.2c-18.2,10.2-40.6-3.2-40.2-24.1l3-137.5c0.2-9.5,5.3-18.1,13.4-22.7l120.3-69.7
		c18-10.4,40.5,2.5,40.5,23.3v138C724.1,521.5,719,530.5,710.5,535.3z"/>
	
		<linearGradient id="SVGID_10_" gradientUnits="userSpaceOnUse" x1="-140.8691" y1="-200.7029" x2="-40.5382" y2="-204.2066" gradientTransform="matrix(1.0095 0 0 1.0095 321.7571 601.5167)">
		<stop  offset="0" style="stop-color:#FFFFFF"/>
		<stop  offset="5.950000e-02" style="stop-color:#F4F7F9"/>
		<stop  offset="0.9812" style="stop-color:#53799C"/>
	</linearGradient>
	<polygon class="st13" points="280.1,447.5 179.1,386.4 180.2,346.7 281,399.5 	"/>
	
		<linearGradient id="SVGID_11_" gradientUnits="userSpaceOnUse" x1="-73.0175" y1="-275.9463" x2="-39.1041" y2="-275.9463" gradientTransform="matrix(1.0095 0 0 1.0095 321.7571 601.5167)">
		<stop  offset="0" style="stop-color:#52769A"/>
		<stop  offset="1" style="stop-color:#3C658D"/>
	</linearGradient>
	<path class="st14" d="M264.6,413.2l-1.4-0.8c-9.2-5.3-14.8-15.1-15-25.7l-0.2-155.4l34.2,19.4l-1.3,153.2
		C280.9,412.2,271.9,417.4,264.6,413.2z"/>
	
		<linearGradient id="SVGID_12_" gradientUnits="userSpaceOnUse" x1="-105.0942" y1="-294.7491" x2="-72.82" y2="-294.7491" gradientTransform="matrix(1.0095 0 0 1.0095 321.7571 601.5167)">
		<stop  offset="0" style="stop-color:#718DAC"/>
		<stop  offset="1" style="stop-color:#6082A3"/>
	</linearGradient>
	<path class="st15" d="M231.9,394.3l-1.1-0.6c-9.3-5.4-15.1-15.4-15.1-26.2V212.2l32.4,19l0.2,153.6
		C248.3,393.2,239.2,398.5,231.9,394.3z"/>
	
		<linearGradient id="SVGID_13_" gradientUnits="userSpaceOnUse" x1="-138.0665" y1="-313.7436" x2="-105.1021" y2="-313.7436" gradientTransform="matrix(1.0095 0 0 1.0095 321.7571 601.5167)">
		<stop  offset="7.055038e-04" style="stop-color:#A4B5CB"/>
		<stop  offset="1" style="stop-color:#92A9C0"/>
	</linearGradient>
	<path class="st16" d="M198.4,374.9L198.4,374.9c-9.3-5.4-15.2-15.4-15.2-26.2l-0.8-155.5l33.3,19v152.6
		C215.6,373.7,206,379.3,198.4,374.9z"/>
	
		<linearGradient id="SVGID_14_" gradientUnits="userSpaceOnUse" x1="-26.0186" y1="-432.2408" x2="-9.4397" y2="-403.5255" gradientTransform="matrix(1.0095 0 0 1.0095 321.7571 601.5167)">
		<stop  offset="2.445319e-08" style="stop-color:#C5D2DF"/>
		<stop  offset="1" style="stop-color:#E0E8EE"/>
	</linearGradient>
	<path class="st17" d="M248.1,231.2l-32.4-19l131.3-76.7c11.4-6.6,25.4-6.7,36.7-0.1l0,0c6.8,3.9,6.8,13.6,0,17.6L248.1,231.2z"/>
	
		<linearGradient id="SVGID_15_" gradientUnits="userSpaceOnUse" x1="-58.0841" y1="-450.7068" x2="-41.6971" y2="-422.3236" gradientTransform="matrix(1.0095 0 0 1.0095 321.7571 601.5167)">
		<stop  offset="7.055038e-04" style="stop-color:#CBD7E3"/>
		<stop  offset="1" style="stop-color:#DBE5ED"/>
	</linearGradient>
	<path class="st18" d="M215.6,212.2l-33.3-19l135.9-76c10.8-6,23.9-5.9,34.6,0.4l0,0c5.5,3.2,5.5,11.3,0,14.5L215.6,212.2z"/>
	
		<linearGradient id="SVGID_16_" gradientUnits="userSpaceOnUse" x1="7.2156" y1="-413.1161" x2="24.0316" y2="-383.9898" gradientTransform="matrix(1.0095 0 0 1.0095 321.7571 601.5167)">
		<stop  offset="0.3455" style="stop-color:#DCE4EB"/>
		<stop  offset="0.7419" style="stop-color:#F0F3F6"/>
		<stop  offset="1" style="stop-color:#FFFFFF"/>
	</linearGradient>
	<path class="st19" d="M282.3,250.6l-34.2-19.4l130.7-75.4c12.4-7.2,27.9-7.2,40.3,0.1l0,0c6.1,3.6,6.1,12.3,0,15.8L282.3,250.6z"/>
	<polygon class="st20" points="462.6,326.9 454,321.8 454,176.9 463.4,171.4 	"/>
	<polygon class="st21" points="454,321.8 426.8,306.2 428.1,191.6 454,176.9 	"/>
	<polygon class="st22" points="426.8,306.2 392.1,285.9 392.8,212.1 428.1,191.6 	"/>
	<g>
		<polygon class="st23" points="335.6,245.1 392.8,212.1 392.1,285.9 335.6,253.1 		"/>
		<path class="st23" d="M335.6,245.1c-1.7,0.5-2.9,2.2-2.9,3.9c0,1.9,1.3,3.5,3,4L335.6,245.1z"/>
	</g>
</g>
<g>
	<g>
		<g>
			<circle class="st24" cx="107.8" cy="664.2" r="78.4"/>
			<circle class="st25" cx="107.8" cy="664.2" r="78.4"/>
		</g>
	</g>
	<g>
		<rect x="76.8" y="651.3" class="st26" width="62" height="37.9"/>
		<path class="st27" d="M133.5,637.5H82c-4.5,0-8.3,3.6-8.3,8.3v8.6v28.5c0,4.5,3.6,8.3,8.3,8.3h51.5c4.5,0,8.3-3.6,8.3-8.3v-28.5
			v-8.6C141.8,641.2,138.2,637.5,133.5,637.5z M138.8,682.8c0,2.9-2.3,5.2-5.2,5.2H82c-2.9,0-5.2-2.3-5.2-5.2v-28.5h62L138.8,682.8
			L138.8,682.8z M138.8,651.3h-62v-5.7c0-2.9,2.3-5.2,5.2-5.2h51.5c2.9,0,5.2,2.3,5.2,5.2V651.3z"/>
		<circle class="st27" cx="84.9" cy="646.4" r="2.8"/>
		<circle class="st27" cx="92.5" cy="646.4" r="2.8"/>
		<circle class="st27" cx="100.2" cy="646.4" r="2.8"/>
		<path class="st27" d="M117.7,681.9c0.3,0.3,0.7,0.4,1,0.4s0.7-0.1,1-0.4l9.6-9.6c0.3-0.3,0.4-0.7,0.4-1s-0.1-0.7-0.4-1l-9.6-9.7
			c-0.6-0.6-1.5-0.6-2.1,0s-0.6,1.5,0,2.1l8.6,8.6l-8.6,8.6C117.1,680.4,117.1,681.3,117.7,681.9z"/>
		<path class="st27" d="M95.9,681.9c0.3,0.3,0.7,0.4,1,0.4c0.4,0,0.7-0.1,1-0.4c0.6-0.6,0.6-1.5,0-2.1l-8.6-8.6l8.6-8.5
			c0.6-0.6,0.6-1.5,0-2.1s-1.5-0.6-2.1,0l-9.6,9.5c-0.3,0.3-0.4,0.7-0.4,1s0.1,0.7,0.4,1L95.9,681.9z"/>
		<path class="st27" d="M102,682.2c0.2,0.1,0.4,0.1,0.7,0.1c0.5,0,1-0.3,1.3-0.8l10.3-19.2c0.4-0.7,0.1-1.6-0.6-2
			c-0.7-0.4-1.6-0.1-2,0.6l-10.3,19.3C100.9,680.9,101.2,681.8,102,682.2z"/>
	</g>
</g>
<g>
	<g>
		<g>
			<circle class="st24" cx="754.2" cy="174.8" r="79.8"/>
			<circle class="st28" cx="754.2" cy="174.8" r="79.8"/>
		</g>
	</g>
	<g>
		<rect x="722.7" y="161.6" class="st29" width="63.1" height="38.5"/>
		<path class="st30" d="M780.5,147.6h-52.4c-4.6,0-8.4,3.7-8.4,8.4v8.8v29c0,4.6,3.7,8.4,8.4,8.4h52.4c4.6,0,8.4-3.7,8.4-8.4v-29
			V156C788.9,151.4,785.1,147.6,780.5,147.6z M785.7,193.7c0,2.9-2.3,5.4-5.4,5.4H728c-2.9,0-5.4-2.3-5.4-5.4v-29h63.1L785.7,193.7
			L785.7,193.7z M785.7,161.6h-63.1v-5.8c0-2.9,2.3-5.4,5.4-5.4h52.4c2.9,0,5.4,2.3,5.4,5.4L785.7,161.6L785.7,161.6z"/>
		<circle class="st30" cx="729" cy="156.4" r="2"/>
		<circle class="st30" cx="736.6" cy="156.4" r="2"/>
		<circle class="st30" cx="744.1" cy="156.4" r="2"/>
		<line class="st31" x1="774.9" y1="189.1" x2="733.4" y2="189.1"/>
		<circle class="st32" cx="765" cy="189.1" r="3.2"/>
		<line class="st31" x1="733.4" y1="177.1" x2="774.9" y2="177.1"/>
		<circle class="st32" cx="743.4" cy="177.1" r="3.2"/>
	</g>
</g>
<g>
	<path class="st33" d="M301.5,293.7c-0.6-0.1-1.8-0.5-3.3-1.3c-3.5-1.9-5.8-5.1-5.2-8.3c0.5-3,3.5-3.7,7.3-1.5
		c1.5,0.9,2.5,1.7,2.8,2.1l-0.6,0.8c-0.6-0.6-1.4-1.2-2.4-1.8c-2.9-1.6-5-1.2-5.5,1.3c-0.4,2.4,1,4.9,4,6.6c1,0.5,2,0.9,2.7,1
		L301.5,293.7z"/>
	<path class="st33" d="M314.4,295.8c-0.6,3.4-3.5,3.7-6.6,1.9c-3.2-1.8-5.2-5.1-4.7-8c0.5-3.1,3.3-3.8,6.6-1.9
		C313.1,289.7,314.9,292.9,314.4,295.8z M304.9,290.7c-0.4,2.1,0.7,4.7,3.2,6.1c2.5,1.4,4.3,0.4,4.6-1.8c0.3-1.9-0.6-4.7-3.2-6.1
		C306.9,287.3,305.2,288.5,304.9,290.7z"/>
	<path class="st33" d="M326.7,303.5c0.1-1.4,0.3-3.1,0.6-4.3l-0.1,0c-0.6,0.9-1.3,1.8-2.2,2.8l-3,3.5l-1.2-0.7l-1.2-5.7
		c-0.3-1.7-0.6-3.2-0.8-4.6l0,0c-0.2,1.2-0.6,2.8-1,4.2l-1.1,4l-1.5-0.8l2.6-9.3l2,1.1l1.3,5.9c0.3,1.5,0.5,2.8,0.7,4l0.1,0
		c0.5-0.8,1.1-1.6,1.9-2.6l3-3.5l2,1.1l-0.9,10.2l-1.5-0.9L326.7,303.5z"/>
	<path class="st33" d="M341.4,311.6c0.1-1.4,0.3-3.1,0.6-4.3l-0.1,0c-0.6,0.9-1.3,1.8-2.2,2.8l-3,3.5l-1.2-0.7l-1.2-5.7
		c-0.3-1.7-0.6-3.2-0.8-4.6l0,0c-0.2,1.2-0.6,2.8-1,4.2l-1.1,4l-1.5-0.8l2.6-9.3l2,1.1l1.3,5.9c0.3,1.5,0.5,2.8,0.7,4l0.1,0
		c0.5-0.8,1.1-1.6,1.9-2.6l3-3.5l2,1.1l-0.9,10.2l-1.5-0.9L341.4,311.6z"/>
	<path class="st33" d="M352.1,317.3l-4.8-2.7l-0.6,3.5l5.3,3l-0.2,1.1l-6.9-3.9l1.7-9.7l6.6,3.7l-0.2,1.1l-5-2.8l-0.5,3.1l4.8,2.7
		L352.1,317.3z"/>
	<path class="st33" d="M355.6,313.7c0.8,0.3,2,0.9,3.1,1.5c1.7,0.9,2.7,1.8,3.4,2.8c0.5,0.8,0.8,1.6,0.6,2.4
		c-0.2,1.3-1.4,1.6-2.7,1.2l0,0c0.9,0.8,1.3,1.8,1.5,3c0.2,1.6,0.3,2.7,0.5,3.2l-1.6-0.9c-0.2-0.4-0.3-1.4-0.4-2.8
		c-0.1-1.5-0.7-2.4-2.1-3.3l-1.5-0.8l-0.7,4.2l-1.6-0.9L355.6,313.7z M356.4,319.1l1.6,0.9c1.7,0.9,2.9,0.8,3.1-0.3
		c0.2-1.3-0.8-2.4-2.5-3.4c-0.8-0.4-1.3-0.7-1.6-0.8L356.4,319.1z"/>
	<path class="st33" d="M372.4,333.3c-0.6-0.1-1.8-0.5-3.3-1.4c-3.5-1.9-5.8-5.1-5.2-8.3c0.5-3.1,3.5-3.7,7.3-1.5
		c1.5,0.9,2.4,1.7,2.8,2.1l-0.6,0.8c-0.6-0.6-1.4-1.2-2.4-1.8c-2.9-1.6-5-1.2-5.5,1.3c-0.4,2.4,1,4.9,4,6.6c1,0.5,2,0.9,2.7,1
		L372.4,333.3z"/>
	<path class="st33" d="M381.5,333.8l-4.8-2.7l-0.6,3.5l5.3,3l-0.2,1.1l-6.9-3.9l1.7-9.7l6.6,3.7l-0.2,1.1l-5-2.8l-0.5,3.1l4.8,2.7
		L381.5,333.8z"/>
</g>
<g>
	<path class="st33" d="M294.8,437.4l-1.7,2.1l-1.7-1.1l5.6-6.7l2,1.2l3.2,12.1l-1.8-1.1l-1-3.8L294.8,437.4z M299.2,439.1l-0.9-3.5
		c-0.2-0.8-0.3-1.5-0.5-2.1l0,0c-0.3,0.4-0.5,0.9-0.9,1.3l-1.6,2L299.2,439.1z"/>
	<path class="st33" d="M305.3,437c0.8,0.4,1.9,1,3.2,1.8c1.6,1,2.8,2,3.5,3c0.7,0.9,1,1.8,0.9,2.7c-0.1,0.9-0.5,1.3-1.3,1.4
		c-1,0.1-2.5-0.4-4.1-1.4c-0.5-0.3-1-0.6-1.3-0.9l-0.5,3.8l-1.7-1L305.3,437z M306.3,442.5c0.4,0.3,0.8,0.6,1.4,0.9
		c2,1.2,3.3,1.3,3.5,0c0.2-1.2-1-2.6-2.8-3.7c-0.7-0.4-1.3-0.7-1.6-0.9L306.3,442.5z"/>
	<path class="st33" d="M317.1,444.1l-1.2,9.4l-1.7-1l1.2-9.4L317.1,444.1z"/>
</g>
</svg>
