<svg xmlns="http://www.w3.org/2000/svg" width="89.971" height="74.57" viewBox="0 0 89.971 74.57">
  <g id="Group_63" data-name="Group 63" transform="translate(-2404.079 -304.5)">
    <path id="Path_16" data-name="Path 16" d="M184.8,129.718h-2.175V72.859A3.78,3.78,0,0,0,178.9,69.13H104.018a3.78,3.78,0,0,0-3.729,3.729v56.86H97.8a1.468,1.468,0,0,0-1.554,1.554V136.4a7.5,7.5,0,0,0,7.3,7.3H178.9a7.293,7.293,0,0,0,7.3-7.3v-5.127a1.353,1.353,0,0,0-1.4-1.554ZM103.24,72.859c0-.466.311-.621.777-.621H178.9a.668.668,0,0,1,.621.621v56.86h-3.107V76.9a1.468,1.468,0,0,0-1.554-1.554h-66.8A1.468,1.468,0,0,0,106.5,76.9v52.821H103.4V72.859Zm45.829,56.86a1.468,1.468,0,0,0-1.554,1.554v1.554a1.468,1.468,0,0,1-1.554,1.554H136.64a1.468,1.468,0,0,1-1.554-1.554v-1.554a1.468,1.468,0,0,0-1.554-1.554H109.454V78.451h63.7v51.267Zm34.178,6.68a4.177,4.177,0,0,1-4.195,4.195H103.7A4.39,4.39,0,0,1,99.51,136.4v-3.573h32.624a4.577,4.577,0,0,0,4.661,4.661h9.321a4.577,4.577,0,0,0,4.661-4.661h32.47Z" transform="translate(2307.829 235.37)"/>
    <path id="Path_17" data-name="Path 17" d="M285.557,195.671l-2.641-.311a13.7,13.7,0,0,0-1.4-3.107l1.554-2.175a1.453,1.453,0,0,0-.155-2.02l-2.641-2.641a1.5,1.5,0,0,0-2.175,0l-2.02,1.864a16.837,16.837,0,0,0-2.952-1.243l-.311-2.641a1.652,1.652,0,0,0-1.554-1.4H267.38a1.652,1.652,0,0,0-1.554,1.4l-.311,2.641a16.836,16.836,0,0,0-2.952,1.243l-2.175-1.864a1.453,1.453,0,0,0-2.02.155l-2.641,2.641a1.464,1.464,0,0,0-.155,2.02l1.709,2.02a16.84,16.84,0,0,0-1.243,2.952l-2.641.311a1.652,1.652,0,0,0-1.4,1.554v3.884a1.652,1.652,0,0,0,1.4,1.554l2.641.311a16.84,16.84,0,0,0,1.243,2.952l-1.709,2.02a1.453,1.453,0,0,0,.155,2.02l2.8,2.8a1.464,1.464,0,0,0,2.02.155l2.175-1.709a16.837,16.837,0,0,0,2.952,1.243l.311,2.641a1.652,1.652,0,0,0,1.554,1.4h3.884a1.652,1.652,0,0,0,1.554-1.4l.311-2.641a16.836,16.836,0,0,0,2.952-1.243l2.02,1.709a1.453,1.453,0,0,0,2.02-.155l2.8-2.8a1.464,1.464,0,0,0,.155-2.02l-1.709-2.02a16.835,16.835,0,0,0,1.243-2.952l2.641-.311a1.652,1.652,0,0,0,1.4-1.554v-3.884A1.257,1.257,0,0,0,285.557,195.671Zm-4.039,4.35a1.473,1.473,0,0,0-1.4,1.243,12.164,12.164,0,0,1-1.709,4.039,1.632,1.632,0,0,0,0,1.864l1.554,1.864-.777.777-1.864-1.554a1.414,1.414,0,0,0-1.864,0,9.621,9.621,0,0,1-3.884,1.709,1.494,1.494,0,0,0-1.243,1.4l-.311,2.33h-1.087l-.311-2.33a1.473,1.473,0,0,0-1.243-1.4,13.758,13.758,0,0,1-4.039-1.709,1.632,1.632,0,0,0-1.864,0l-1.864,1.554-.777-.777,1.554-1.864a1.414,1.414,0,0,0,0-1.864,10.4,10.4,0,0,1-1.554-3.262c0-.155-.155-.466-.155-.621a1.67,1.67,0,0,0-1.4-1.243l-2.33-.311v-1.087l2.33-.311a1.473,1.473,0,0,0,1.4-1.243,15.891,15.891,0,0,1,1.243-3.262,3.4,3.4,0,0,0,.466-.777,1.981,1.981,0,0,0,0-1.864l-1.554-1.864.621-.621,1.864,1.554a1.414,1.414,0,0,0,1.864,0,9.621,9.621,0,0,1,3.884-1.709,1.494,1.494,0,0,0,1.243-1.4l.311-2.33h1.087l.311,2.33a1.473,1.473,0,0,0,1.243,1.4,12.165,12.165,0,0,1,4.039,1.709,1.414,1.414,0,0,0,1.864-.155l1.864-1.554.777.777-1.554,2.02a1.414,1.414,0,0,0,0,1.864,9.621,9.621,0,0,1,1.709,3.884,1.494,1.494,0,0,0,1.4,1.243l2.33.311v1.087Z" transform="translate(2179.732 142.54)"/>
    <path id="Path_18" data-name="Path 18" d="M308.5,237.365l-.155.155a7.548,7.548,0,0,0,.311,10.564,7.377,7.377,0,0,0,5.437,2.175,8.045,8.045,0,0,0,5.437-2.175,8.537,8.537,0,0,0,1.087-1.4,7.531,7.531,0,0,0-1.087-9.321A7.977,7.977,0,0,0,308.5,237.365Zm2.33,8.7a4.6,4.6,0,0,1-.155-6.37l.155-.155a4.565,4.565,0,0,1,7.146,5.593c-.155.311-.466.621-.621.932A4.792,4.792,0,0,1,310.829,246.065Z" transform="translate(2135.041 98.826)"/>
    <path id="Path_19" data-name="Path 19" d="M200.268,235.661h-1.554a3.116,3.116,0,0,1-3.107-3.107,1.554,1.554,0,1,0-3.107,0,6.232,6.232,0,0,0,6.214,6.214h1.554a1.554,1.554,0,0,0,0-3.107Z" transform="translate(2228.668 102.24)"/>
    <path id="Path_20" data-name="Path 20" d="M200.268,283.5h-1.554a6.232,6.232,0,0,0-6.214,6.214,1.554,1.554,0,1,0,3.107,0,3.116,3.116,0,0,1,3.107-3.107h1.554a1.554,1.554,0,1,0,0-3.107Z" transform="translate(2228.668 59.061)"/>
    <path id="Path_21" data-name="Path 21" d="M456.554,238.768h1.554a6.232,6.232,0,0,0,6.214-6.214,1.554,1.554,0,1,0-3.107,0,3.116,3.116,0,0,1-3.107,3.107h-1.554a1.554,1.554,0,0,0,0,3.107Z" transform="translate(2012.775 102.24)"/>
    <path id="Path_22" data-name="Path 22" d="M458.107,283.5h-1.554a1.554,1.554,0,0,0,0,3.107h1.554a3.116,3.116,0,0,1,3.107,3.107,1.554,1.554,0,1,0,3.107,0A6.232,6.232,0,0,0,458.107,283.5Z" transform="translate(2012.775 59.061)"/>
  </g>
</svg>
