<?xml version="1.0" encoding="utf-8"?>
<!-- Generator: Adobe Illustrator 25.0.1, SVG Export Plug-In . SVG Version: 6.00 Build 0)  -->
<svg version="1.1" id="Mobile-Development" xmlns="http://www.w3.org/2000/svg" xmlns:xlink="http://www.w3.org/1999/xlink" x="0px"
	 y="0px" viewBox="0 0 37 25.8" style="enable-background:new 0 0 37 25.8;" xml:space="preserve">
<style type="text/css">
	.st0{fill:#FFFFFF;stroke:#FFFFFF;stroke-width:0.4;}
	.st1{display:none;fill:#FFFFFF;stroke:#FFFFFF;stroke-width:0.4;}
	.st2{fill:#FFFFFF;}
	.st3{fill:#E01F26;stroke:#E01F26;stroke-width:0.4;}
	.st4{fill:#FFFFFF;stroke:#FFFFFF;stroke-width:0.15;}
	.st5{fill-rule:evenodd;clip-rule:evenodd;fill:#FFFFFF;stroke:#FFFFFF;stroke-width:0.15;}
</style>
<g id="cloud" transform="translate(-0.8 -4.7)">
	<path id="Path_1813" class="st0" d="M31.9,25.3h-1.3V6.7c0-0.7-0.5-1.3-1.2-1.3H7.6C6.9,5.4,6.3,6,6.3,6.7v18.7H5.5
		c-0.2,0-0.4,0.2-0.4,0.4l0,0c0,2.4,1.8,4.3,4.2,4.4h18.8c2.4,0,4.2-2,4.2-4.3l0,0C32.3,25.5,32.1,25.4,31.9,25.3z M7.2,6.7
		c0-0.2,0.2-0.4,0.4-0.4l0,0h21.7c0.2,0,0.4,0.2,0.4,0.4l0,0v18.7H7.2V6.7z M28.1,29.3H9.3c-1.7,0-3.1-1.3-3.3-3h25.4
		C31.2,27.9,29.8,29.2,28.1,29.3z"/>
	<path id="Path_1814" class="st1" d="M23.5,12.3c-0.4-5.8-9.1-5.7-9.5,0c-1.9-0.1-3.4,1.4-3.5,3.2c-0.1,1.9,1.4,3.4,3.2,3.5h0.1H15
		v3.1h-2c-0.2,0-0.4,0.2-0.4,0.4c0,0.2,0.2,0.4,0.4,0.4h2.4c0.2,0,0.4-0.2,0.4-0.4c0,0,0,0,0-0.1v-7.2c0-0.2-0.2-0.4-0.4-0.4
		S15,15,15,15.2l0,0v2.9h-1.2c-1.4,0-2.5-1.1-2.5-2.5s1.1-2.5,2.5-2.5c0.1,0,0.2,0,0.4,0c0.1,0,0.3,0,0.4-0.1
		c0.1-0.1,0.2-0.2,0.2-0.3c-0.1-5.3,7.8-5.3,7.8-0.1c0,0.2,0.2,0.4,0.4,0.4c0,0,0,0,0.1,0c1.4,0,2.5,1.1,2.5,2.5l0,0
		c0,1.4-1.1,2.5-2.5,2.5h-1.2v-2.9c0-0.2-0.2-0.4-0.4-0.4c-0.2,0-0.4,0.2-0.4,0.4v7.3c0,0.2,0.2,0.4,0.4,0.4c0,0,0,0,0.1,0H24
		c0.2,0,0.4-0.2,0.4-0.4c0-0.2-0.2-0.4-0.4-0.4h-2v-3h1.2c1.8,0,3.3-1.5,3.4-3.3C26.4,13.9,25.2,12.5,23.5,12.3z"/>
	<path id="Path_1815" class="st1" d="M18.4,15.4c-0.2,0-0.4,0.2-0.4,0.4c0,0,0,0,0,0.1v7.3c0,0.2,0.2,0.4,0.4,0.4
		c0.2,0,0.4-0.2,0.4-0.4v-7.3C18.9,15.6,18.7,15.4,18.4,15.4C18.5,15.4,18.5,15.4,18.4,15.4z"/>
	<path id="Rectangle_818" class="st2" d="M6.1,26h26l0,0l0,0c0,2.2-1.8,4-4,4H8.9c-1.5,0-2.8-1.2-2.8-2.8l0,0L6.1,26L6.1,26z"/>
	<path id="Path_1816" class="st3" d="M20.6,27.4h-3.8c-0.2,0-0.4,0.2-0.4,0.4c0,0.2,0.2,0.4,0.4,0.4l0,0h3.8c0.2,0,0.4-0.2,0.4-0.4
		S20.8,27.4,20.6,27.4z"/>
</g>
<g>
	<path class="st4" d="M19,5.6c0.2,0,0.4,0.1,0.6,0.2L20.3,5c0.1-0.2,0.3-0.2,0.5-0.1l1,0.6C22,5.6,22.1,5.8,22,6l-0.3,1
		c0.2,0.1,0.3,0.3,0.5,0.5l1-0.3c0.2-0.1,0.4,0,0.5,0.2l0.6,1c0.1,0.2,0,0.4-0.1,0.5l-0.8,0.7c0.1,0.2,0.1,0.4,0.2,0.6l1,0.2
		c0.2,0,0.4,0.2,0.4,0.4V12c0,0.2-0.2,0.4-0.4,0.4l-1,0.2c0,0.2-0.1,0.4-0.2,0.6l0.8,0.7c0.2,0.1,0.2,0.3,0.1,0.5
		c-0.2,0.3-0.4,0.7-0.6,1c-0.1,0.2-0.3,0.2-0.5,0.2l-1-0.3c-0.1,0.2-0.3,0.3-0.5,0.5l0.3,1c0.1,0.2,0,0.4-0.2,0.5l-1,0.6
		c-0.2,0.1-0.4,0-0.5-0.1L19.6,17c-0.2,0.1-0.4,0.1-0.6,0.2l-0.2,1c0,0.2-0.2,0.4-0.4,0.4h-1.2c-0.2,0-0.4-0.2-0.4-0.4l-0.2-1
		c-0.2,0-0.4-0.1-0.6-0.2l-0.7,0.8C15.2,18,15,18,14.8,17.9l-1-0.6c-0.2-0.1-0.2-0.3-0.2-0.5l0.3-1c-0.2-0.1-0.3-0.3-0.5-0.5l-1,0.3
		c-0.2,0.1-0.4,0-0.5-0.2c-0.2-0.3-0.4-0.7-0.6-1c-0.1-0.2,0-0.4,0.1-0.5l0.8-0.7c-0.1-0.2-0.1-0.4-0.2-0.6l-1-0.2
		c-0.2,0-0.4-0.2-0.4-0.4v-1.2c0-0.2,0.2-0.4,0.4-0.4l1-0.2c0-0.2,0.1-0.4,0.2-0.6l-0.8-0.7c-0.2-0.1-0.2-0.3-0.1-0.5l0.6-1
		C12.2,7,12.4,7,12.6,7.1l1,0.3c0.1-0.2,0.3-0.3,0.5-0.5l-0.3-1c-0.1-0.2,0-0.4,0.2-0.5l1-0.6c0.2-0.1,0.4,0,0.5,0.1L16,5.8
		c0.2-0.1,0.4-0.1,0.6-0.2l0.2-1c0-0.2,0.2-0.4,0.4-0.4h1.2c0.2,0,0.4,0.2,0.4,0.4C18.8,4.6,19,5.6,19,5.6z M18.3,17.7l0.2-1.3
		c0.5-0.1,0.8-0.2,1.2-0.3l0.9,1c0.3-0.2,0.6-0.3,0.8-0.5L21,15.4c0.4-0.3,0.6-0.6,0.9-0.9l1.2,0.4c0.2-0.3,0.3-0.6,0.5-0.8l-1-0.9
		c0.2-0.4,0.3-0.8,0.3-1.2l1.3-0.2v-1L23,10.5c-0.1-0.5-0.2-0.8-0.3-1.2l1-0.9c-0.2-0.3-0.3-0.6-0.5-0.8L22,8
		c-0.3-0.3-0.6-0.6-0.9-0.9l0.4-1.2c-0.3-0.2-0.6-0.3-0.8-0.5l-0.9,1C19.4,6.2,19,6.1,18.6,6l-0.2-1.3h-1L17.1,6
		c-0.5,0.1-0.8,0.2-1.2,0.3l-0.9-1c-0.3,0.2-0.6,0.3-0.8,0.5L14.6,7c-0.3,0.4-0.6,0.7-0.9,1l-1.2-0.4c-0.2,0.3-0.3,0.6-0.5,0.8
		l1,0.9c-0.2,0.4-0.3,0.8-0.3,1.2l-1.3,0.2v1l1.3,0.2c0.1,0.5,0.2,0.8,0.3,1.2L12,14c0.2,0.3,0.3,0.6,0.5,0.8l1.2-0.4
		c0.3,0.4,0.6,0.6,0.9,0.9l-0.4,1.2c0.3,0.2,0.6,0.3,0.8,0.5l0.9-1c0.4,0.2,0.8,0.3,1.2,0.3l0.2,1.3C17.3,17.7,18.3,17.7,18.3,17.7z
		"/>
	<path class="st4" d="M15.8,14.7c-1.8-1-2.5-3.3-1.6-5.2c0.1-0.1,0.2-0.2,0.4-0.1c0.1,0.1,0.2,0.2,0.1,0.3c-0.8,1.6-0.2,3.6,1.4,4.5
		c1.5,0.9,3.3,0.5,4.4-0.8c1.1-1.4,1.1-3.3-0.1-4.6c-1.2-1.4-3.3-1.5-4.7-0.4c-0.1,0.1-0.3,0.1-0.4,0c-0.1-0.1-0.1-0.3,0-0.4
		c1.6-1.3,4-1.1,5.4,0.5c1.4,1.5,1.4,3.7,0.1,5.2C19.7,15.3,17.5,15.7,15.8,14.7z"/>
	<path class="st5" d="M14.9,8.6c0.2,0,0.3,0.1,0.3,0.3s-0.1,0.3-0.3,0.3s-0.3-0.1-0.3-0.3C14.6,8.7,14.8,8.6,14.9,8.6z"/>
	<path class="st4" d="M18,13c0.5-0.1,0.9-0.5,0.9-1c0-0.6-0.4-0.9-0.9-1.1c-0.2-0.1-0.6-0.3-0.6-0.6s0.3-0.4,0.5-0.4
		s0.5,0.1,0.7,0.2l0.2-0.6c-0.2-0.1-0.5-0.2-0.7-0.2V8.8h-0.5v0.6c-0.5,0.1-0.9,0.5-0.9,1s0.4,0.8,0.8,1c0.3,0.1,0.6,0.3,0.6,0.6
		c0,0.7-1,0.4-1.4,0.2l-0.2,0.6c0.2,0.1,0.6,0.2,0.8,0.2v0.6H18C18,13.6,18,13,18,13z"/>
</g>
</svg>
