<svg xmlns="http://www.w3.org/2000/svg" width="61.955" height="51.621" viewBox="0 0 61.955 51.621">
  <g id="_3" data-name="3" transform="translate(-8.376 -13.109)">
    <g id="Group_75" data-name="Group 75" transform="translate(8.376 4.697)">
      <path id="Path_266" data-name="Path 266" d="M11.822,73.914A6.98,6.98,0,0,0,8.376,79.8v7.918h2.09V79.8A5.154,5.154,0,0,1,13,75.458a.862.862,0,0,0,.2-1.365l-.015-.015A1.12,1.12,0,0,0,11.822,73.914Z" transform="translate(-8.376 -27.863)"/>
      <path id="Path_267" data-name="Path 267" d="M34.616,87.717h2.09V79.8a6.98,6.98,0,0,0-3.447-5.886,1.119,1.119,0,0,0-1.363.164l-.015.015a.862.862,0,0,0,.2,1.365A5.153,5.153,0,0,1,34.616,79.8v7.918Z" transform="translate(-14.603 -27.863)"/>
      <path id="Path_268" data-name="Path 268" d="M14.359,62.689c0,3.128,2.84,5.673,6.331,5.673h.681c3.49,0,6.33-2.545,6.33-5.673V60.721c0-3.128-2.84-5.673-6.33-5.673H20.69c-3.491,0-6.331,2.545-6.331,5.673v1.968Zm2.089-1.968a4.044,4.044,0,0,1,4.241-3.8h.681a4.043,4.043,0,0,1,4.24,3.8v1.968a4.044,4.044,0,0,1-4.24,3.8h-.681a4.044,4.044,0,0,1-4.241-3.8Z" transform="translate(-9.978 -21.596)"/>
      <path id="Path_269" data-name="Path 269" d="M16.425,90.951v-4.44a1.014,1.014,0,0,0-2.016,0v5.281h2.016Z" transform="translate(-9.992 -31.938)"/>
      <path id="Path_270" data-name="Path 270" d="M29.775,86.312v5.412h2.016V86.312a1.014,1.014,0,0,0-2.016,0Z" transform="translate(-14.106 -31.87)"/>
      <path id="Path_271" data-name="Path 271" d="M63.971,79.971a1.119,1.119,0,0,0-1.363-.164,6.979,6.979,0,0,0-3.447,5.885v4.229h2.09V85.692a5.153,5.153,0,0,1,2.537-4.341.861.861,0,0,0,.2-1.365Z" transform="translate(-21.976 -29.889)"/>
      <path id="Path_272" data-name="Path 272" d="M87.491,88.9v-3.21a6.979,6.979,0,0,0-3.447-5.885,1.119,1.119,0,0,0-1.363.164l-.015.015a.862.862,0,0,0,.2,1.365A5.153,5.153,0,0,1,85.4,85.693v4.229h2.09V88.9Z" transform="translate(-28.202 -29.889)"/>
      <path id="Path_273" data-name="Path 273" d="M72.154,74.256c3.491,0,6.331-2.545,6.331-5.674V66.614c0-3.128-2.84-5.673-6.331-5.673h-.679c-3.491,0-6.331,2.545-6.331,5.673v1.968c0,3.128,2.839,5.674,6.331,5.674Zm-4.92-5.674V66.614a4.044,4.044,0,0,1,4.241-3.8h.68a4.044,4.044,0,0,1,4.241,3.8v1.968a4.044,4.044,0,0,1-4.241,3.8h-.68A4.043,4.043,0,0,1,67.234,68.582Z" transform="translate(-23.578 -23.573)"/>
      <path id="Path_274" data-name="Path 274" d="M65.194,92.4V94H67.21V92.4a1.014,1.014,0,0,0-2.016,0Z" transform="translate(-23.591 -33.964)"/>
      <path id="Path_275" data-name="Path 275" d="M81.568,91.3a.961.961,0,0,0-1.008.9v1.723h2.017V92.2A.96.96,0,0,0,81.568,91.3Z" transform="translate(-27.706 -33.896)"/>
      <path id="Path_276" data-name="Path 276" d="M78.975,39.666V26.251c0-2.056-1.546-3.888-3.948-5.081a14.785,14.785,0,0,0-6.506-1.422H54.844c-5.764,0-10.454,2.917-10.454,6.5v.118l.08,4.285c.614,3.224,5.029,5.734,10.375,5.734H69.305l6.558,4.079a2.484,2.484,0,0,0,1.288.332,2.829,2.829,0,0,0,.7-.087C78.533,40.538,78.975,40.126,78.975,39.666Z" transform="translate(-18.021 -4.347)" fill="none" stroke="#a11d21" stroke-width="2"/>
      <path id="Path_277" data-name="Path 277" d="M40.2,4.7H26.524c-5.773,0-10.451,2.911-10.451,6.5V24.547a1.125,1.125,0,0,0,.761.99,2.661,2.661,0,0,0,1.061.212,2.457,2.457,0,0,0,1.285-.334l6.56-4.076h7.842c.469,0,.849-.236.849-.528v-.2c0-.291-.38-.528-.849-.528H25.658a2.479,2.479,0,0,0-1.284.331l-6.284,3.905V11.2c0-2.9,3.777-5.247,8.436-5.247H40.2c3.979,0,7.315,1.724,8.2,4.034a1.027,1.027,0,0,0,.977.475c.643,0,1.14-.37.992-.759C49.278,6.836,45.135,4.7,40.2,4.7Z" transform="translate(-10.438 3.714)"/>
    </g>
  </g>
</svg>
