<svg xmlns="http://www.w3.org/2000/svg" width="55.313" height="54.201" viewBox="0 0 55.313 54.201">
  <g id="_2" data-name="2" transform="translate(0 -0.021)">
    <path id="Path_256" data-name="Path 256" d="M51.625,6.328H42.591a7.1,7.1,0,0,0-8.674-4.8A7.2,7.2,0,0,0,26.55.661a7.211,7.211,0,0,0-7.164.706A7.136,7.136,0,0,0,11.7,5.711a7.2,7.2,0,0,0-1.089.616H3.688A3.652,3.652,0,0,0,0,9.942V40.667a3.652,3.652,0,0,0,3.688,3.615H19.359V47.9H13.828a3.652,3.652,0,0,0-3.688,3.615v.9a1.826,1.826,0,0,0,1.844,1.807H43.328a1.826,1.826,0,0,0,1.844-1.807v-.9A3.652,3.652,0,0,0,41.485,47.9H35.953V44.282H51.625a3.652,3.652,0,0,0,3.688-3.615V9.942A3.652,3.652,0,0,0,51.625,6.328ZM13.288,6.7a5.356,5.356,0,0,1,5-3.615,5,5,0,0,1,1.13.131.936.936,0,0,0,.8-.193,5.319,5.319,0,0,1,5.864-.56.979.979,0,0,0,.922,0,5.3,5.3,0,0,1,6.063.74.942.942,0,0,0,.939.191,5.277,5.277,0,0,1,6.965,4.031A5.615,5.615,0,0,1,41.1,8.578a1.329,1.329,0,0,1-.012.266.9.9,0,0,0,.594,1.018,6.725,6.725,0,0,1,4.415,6.379,6.859,6.859,0,0,1-3.319,5.879.9.9,0,0,0-.442.741,5.358,5.358,0,0,1-5.31,5.254,2.773,2.773,0,0,1-1.414-.357l-.2-.09a.938.938,0,0,0-.878.068.9.9,0,0,0-.419.759v3.669a.357.357,0,0,1-.323.371H30.652a.349.349,0,0,1-.324-.3,18.54,18.54,0,0,0-3.456-8.3.91.91,0,0,0-.292-.239.823.823,0,0,0-.08-.04.93.93,0,0,0-.362-.083h0a.948.948,0,0,0-.277.041,13.715,13.715,0,0,1-3.829.673A5.414,5.414,0,0,1,16.714,18.8a.892.892,0,0,0-.242-.745.913.913,0,0,0-.836-.271,6.271,6.271,0,0,1-1.1.111,5.409,5.409,0,0,1-5.319-5.484,5.573,5.573,0,0,1,2.22-4.451,5.145,5.145,0,0,1,1.3-.708.912.912,0,0,0,.554-.555ZM1.844,9.942A1.826,1.826,0,0,1,3.688,8.135H8.738c-.021.031-.036.066-.057.1a7.266,7.266,0,0,0-.523.87l-.009.02a7.534,7.534,0,0,0-.376.924c-.033.1-.059.194-.092.292a7.387,7.387,0,0,0-.176.736c-.018.1-.039.2-.053.3a7.434,7.434,0,0,0-.077,1.035A7.235,7.235,0,0,0,14.538,19.7c.124,0,.254,0,.385-.012a7.22,7.22,0,0,0,7.11,6.4,14.812,14.812,0,0,0,3.733-.57A17.208,17.208,0,0,1,28.507,32.5a2.169,2.169,0,0,0,2.145,1.838h3.134a2.174,2.174,0,0,0,2.166-2.178v-2.35a4.621,4.621,0,0,0,1.069.11,7.169,7.169,0,0,0,7.122-6.517,8.675,8.675,0,0,0,3.794-7.166,8.556,8.556,0,0,0-5-7.825c0-.095-.006-.188-.011-.281h8.7a1.826,1.826,0,0,1,1.844,1.807V36.149H1.844ZM43.328,51.511v.9H11.984v-.9A1.826,1.826,0,0,1,13.828,49.7H41.485A1.826,1.826,0,0,1,43.328,51.511ZM34.109,47.9H21.2V44.282H34.109Zm19.359-7.229a1.826,1.826,0,0,1-1.844,1.807H3.688a1.826,1.826,0,0,1-1.844-1.807V37.956H53.469Z" transform="translate(0 0)"/>
    <path id="Path_257" data-name="Path 257" d="M12,13.371a3.586,3.586,0,0,0,3.479,3.679.9.9,0,1,0,0-1.807,1.766,1.766,0,0,1-1.635-1.871,1.957,1.957,0,0,1,.926-1.682.894.894,0,0,0,.324-1.222.932.932,0,0,0-1.239-.347A3.755,3.755,0,0,0,12,13.371Z" transform="translate(-0.937 -0.962)" fill="#a11d21"/>
    <path id="Path_258" data-name="Path 258" d="M23.607,24.424a11.906,11.906,0,0,0,3.271-.592.9.9,0,0,0,.6-1.133.926.926,0,0,0-1.156-.591,10.25,10.25,0,0,1-2.721.509,1.734,1.734,0,0,1-1.618-1.594.919.919,0,0,0-1.033-.781.908.908,0,0,0-.8,1.012A3.566,3.566,0,0,0,23.607,24.424Z" transform="translate(-1.574 -1.947)" fill="#a11d21"/>
    <path id="Path_259" data-name="Path 259" d="M43.8,14.482a3.112,3.112,0,0,1,1.978,2.985,3.216,3.216,0,0,1-1.531,2.777.894.894,0,0,0-.313,1.241.933.933,0,0,0,1.266.307,5.027,5.027,0,0,0,2.423-4.325,4.923,4.923,0,0,0-3.2-4.685.927.927,0,0,0-1.18.543A.9.9,0,0,0,43.8,14.482Z" transform="translate(-3.374 -1.224)" fill="#a11d21"/>
    <path id="Path_260" data-name="Path 260" d="M38.154,7.31a1.5,1.5,0,0,1,.505-.09,1.768,1.768,0,0,1,1.635,1.859.913.913,0,0,0,.922.9h.006a.913.913,0,0,0,.915-.91,3.59,3.59,0,0,0-3.479-3.654,3.379,3.379,0,0,0-1.132.2.9.9,0,0,0-.554,1.157.927.927,0,0,0,1.18.543Z" transform="translate(-2.884 -0.519)" fill="#a11d21"/>
    <path id="Path_261" data-name="Path 261" d="M24.4,6.163A1.486,1.486,0,0,1,26.084,6l.839.459a.932.932,0,0,0,1.233-.36.894.894,0,0,0-.335-1.217l-.838-.459A3.416,3.416,0,0,0,25.347,4a3.325,3.325,0,0,0-2.143.786A.891.891,0,0,0,23.1,6.06a.935.935,0,0,0,1.3.1Z" transform="translate(-1.787 -0.383)" fill="#a11d21"/>
    <path id="Path_262" data-name="Path 262" d="M27.114,12.067l-.922.245a3.359,3.359,0,0,0-1.475.813,3.2,3.2,0,0,0-.979,2.026.892.892,0,0,0,.206.662.928.928,0,0,0,.624.325h.092a.915.915,0,0,0,.916-.813,1.4,1.4,0,0,1,.429-.9,1.524,1.524,0,0,1,.667-.361l.919-.249a.9.9,0,0,0,.651-1.108.924.924,0,0,0-1.13-.638Z" transform="translate(-1.854 -1.157)" fill="#a11d21"/>
    <path id="Path_263" data-name="Path 263" d="M34.693,17.717a1.451,1.451,0,0,1,.8.607,1.477,1.477,0,0,1,.217.718l.036.941a.914.914,0,0,0,.922.87H36.7a.911.911,0,0,0,.887-.936l-.038-.94A3.228,3.228,0,0,0,35.269,16a.926.926,0,0,0-1.164.576.9.9,0,0,0,.588,1.141Z" transform="translate(-2.661 -1.535)" fill="#a11d21"/>
    <path id="Path_264" data-name="Path 264" d="M4.922,13A.913.913,0,0,0,4,13.9v.9a.922.922,0,0,0,1.844,0v-.9A.913.913,0,0,0,4.922,13Z" transform="translate(-0.312 -1.25)"/>
    <path id="Path_265" data-name="Path 265" d="M4.922,18A.913.913,0,0,0,4,18.9V33.362a.922.922,0,0,0,1.844,0V18.9A.913.913,0,0,0,4.922,18Z" transform="translate(-0.312 -1.732)"/>
  </g>
</svg>
