<svg xmlns="http://www.w3.org/2000/svg" width="50.974" height="48.4" viewBox="0 0 50.974 48.4">
  <g id="noun_reliable_service_3317604" data-name="noun_reliable service_3317604" transform="translate(-7.555 -18.644)">
    <g id="Group_140" data-name="Group 140" transform="translate(7.555 18.644)">
      <path id="Path_307" data-name="Path 307" d="M23.682,50.065h-.429V45c-.858-4.462-4.977-5.921-7.38-6.436A39.455,39.455,0,0,1,10.9,37.193a2.424,2.424,0,0,0-2.489.515l-.687-.515c-.086-.086-.172-.172-.172-.257a.516.516,0,0,1-.086-.343V33.674a2.47,2.47,0,0,0-.772-1.8,2.86,2.86,0,0,0-1.8-.772A2.49,2.49,0,0,0,2.4,33.589v3.347a7.973,7.973,0,0,0,1.03,3.948,19.193,19.193,0,0,0,9.955,8.5c.172.086.257.172.257.343v.172h-.257a2.088,2.088,0,0,0-2.06,2.06V54.1a1.76,1.76,0,0,0,1.8,1.8h10.9a1.872,1.872,0,0,0,1.8-1.8V51.953A2.218,2.218,0,0,0,23.682,50.065Zm-9.611-2.06a18.105,18.105,0,0,1-9.1-7.809A6.347,6.347,0,0,1,4.2,37.107V33.76a.769.769,0,0,1,.772-.772.612.612,0,0,1,.515.257.784.784,0,0,1,.257.6v2.918A2.285,2.285,0,0,0,6,37.794a3.36,3.36,0,0,0,.687.858l.944.687a3.218,3.218,0,0,0,.086.944,2.343,2.343,0,0,0,1.287,1.545L14.243,44.4a.845.845,0,1,0,.687-1.545L9.694,40.282a.879.879,0,0,1-.429-.515.968.968,0,0,1,.086-.687.78.78,0,0,1,.944-.257,43.781,43.781,0,0,0,5.235,1.459c1.974.429,5.321,1.545,6.007,4.977v4.806H15.358v-.172A1.965,1.965,0,0,0,14.071,48.006Zm9.955,6.265h0l-10.9.086a.084.084,0,0,1-.086-.086V52.125a.369.369,0,0,1,.343-.343h10.3a.369.369,0,0,1,.343.343Z" transform="translate(-2.4 -7.672)" fill="#fff"/>
      <path id="Path_308" data-name="Path 308" d="M55.267,31.2a2.4,2.4,0,0,0-1.716.687,2.676,2.676,0,0,0-.772,1.8v2.918a.649.649,0,0,1-.086.343c0,.086-.086.172-.172.257l-.687.515a2.624,2.624,0,0,0-2.489-.515,39.454,39.454,0,0,1-4.977,1.373c-2.4.515-6.522,1.974-7.38,6.436v5.063H36.56a2.088,2.088,0,0,0-2.06,2.06v2.145a1.76,1.76,0,0,0,1.8,1.8H47.2a1.872,1.872,0,0,0,1.8-1.8V52.139a2.088,2.088,0,0,0-2.06-2.06h-.257v-.172c0-.172.086-.257.257-.343a20.089,20.089,0,0,0,9.955-8.5,7.743,7.743,0,0,0,1.03-3.948V33.774A2.777,2.777,0,0,0,55.267,31.2ZM47.115,52.139v2.145l-.086.086H36.216a.084.084,0,0,1-.086-.086V52.139a.369.369,0,0,1,.343-.343h10.3A.369.369,0,0,1,47.115,52.139ZM56.04,37.121a6.347,6.347,0,0,1-.772,3.089,18.483,18.483,0,0,1-9.182,7.809A2.142,2.142,0,0,0,44.8,49.908v.172H38.619V45.274c.687-3.433,4.033-4.548,6.007-4.977a43.78,43.78,0,0,0,5.235-1.459.968.968,0,0,1,.944.257.648.648,0,0,1,.086.687c-.086.257-.172.429-.429.515l-5.235,2.574a.845.845,0,0,0,.687,1.545l5.235-2.574A2.3,2.3,0,0,0,52.435,40.3a4.178,4.178,0,0,0,.086-1.03l.944-.687a3.36,3.36,0,0,0,.687-.858,2.285,2.285,0,0,0,.257-1.03V33.774a.612.612,0,0,1,.257-.515.784.784,0,0,1,.6-.257.769.769,0,0,1,.772.772v3.347Z" transform="translate(-6.953 -7.687)" fill="#fff"/>
      <path id="Path_309" data-name="Path 309" d="M20.106,14.613h.257v2.231A1.5,1.5,0,0,0,21.823,18.3H37.7a1.446,1.446,0,0,0,1.459-1.459V12.382A1.5,1.5,0,0,0,37.7,10.923H25.255a5.533,5.533,0,0,0,.257-1.716,5.406,5.406,0,1,0-5.406,5.406Zm17.421,1.974H22.08V14.269a5.2,5.2,0,0,0,2.231-1.63H37.527ZM20.106,5.516a3.663,3.663,0,0,1,3.69,3.69,4.132,4.132,0,0,1-.6,2.06h0a3.883,3.883,0,0,1-2.145,1.545h0a2.646,2.646,0,0,1-.858.086,3.663,3.663,0,0,1-3.69-3.69A3.54,3.54,0,0,1,20.106,5.516Z" transform="translate(-4.145 -3.8)" fill="#fff"/>
      <path id="Path_310" data-name="Path 310" d="M19.359,11.562a.83.83,0,0,0,1.2,0l2.4-2.4a.85.85,0,1,0-1.2-1.2l-1.8,1.8-.6-.6a.85.85,0,0,0-1.2,1.2Z" transform="translate(-4.599 -4.353)" fill="#fff"/>
      <path id="Path_311" data-name="Path 311" d="M38.958,17.216H39.3a.858.858,0,1,0,0-1.716h-.343a.858.858,0,1,0,0,1.716Z" transform="translate(-7.464 -5.46)" fill="#fff"/>
      <path id="Path_312" data-name="Path 312" d="M24.3,16.358a.811.811,0,0,0,.858.858h.687a.858.858,0,1,0,0-1.716h-.687A.86.86,0,0,0,24.3,16.358Z" transform="translate(-5.506 -5.46)" fill="#fff"/>
      <path id="Path_313" data-name="Path 313" d="M28.658,17.216h.687a.858.858,0,0,0,0-1.716h-.687a.858.858,0,1,0,0,1.716Z" transform="translate(-6.003 -5.46)" fill="#fff"/>
      <path id="Path_314" data-name="Path 314" d="M38.858,26.816H39.2a.858.858,0,1,0,0-1.716h-.343a.858.858,0,1,0,0,1.716Z" transform="translate(-7.45 -6.821)" fill="#fff"/>
      <path id="Path_315" data-name="Path 315" d="M25.158,26.816h.687a.858.858,0,1,0,0-1.716h-.687a.858.858,0,1,0,0,1.716Z" transform="translate(-5.506 -6.821)" fill="#fff"/>
      <path id="Path_316" data-name="Path 316" d="M28.558,26.816h.687a.858.858,0,1,0,0-1.716h-.687a.858.858,0,1,0,0,1.716Z" transform="translate(-5.989 -6.821)" fill="#fff"/>
      <path id="Path_317" data-name="Path 317" d="M38.758,36.516H39.1a.858.858,0,0,0,0-1.716h-.343a.811.811,0,0,0-.858.858A.86.86,0,0,0,38.758,36.516Z" transform="translate(-7.436 -8.197)" fill="#fff"/>
      <path id="Path_318" data-name="Path 318" d="M25.058,36.516h.687a.858.858,0,0,0,0-1.716h-.687a.858.858,0,1,0,0,1.716Z" transform="translate(-5.492 -8.197)" fill="#fff"/>
      <path id="Path_319" data-name="Path 319" d="M28.458,36.516h.687a.858.858,0,1,0,0-1.716h-.687a.811.811,0,0,0-.858.858A.86.86,0,0,0,28.458,36.516Z" transform="translate(-5.975 -8.197)" fill="#fff"/>
      <path id="Path_320" data-name="Path 320" d="M40.179,23.059A1.5,1.5,0,0,0,38.721,21.6H22.759A1.5,1.5,0,0,0,21.3,23.059v4.462a1.5,1.5,0,0,0,1.459,1.459H38.635a1.5,1.5,0,0,0,1.459-1.459V23.059ZM38.463,27.35H23.016V23.316H38.463Z" transform="translate(-5.081 -6.325)" fill="#fff"/>
      <path id="Path_321" data-name="Path 321" d="M38.721,31.1H22.759A1.5,1.5,0,0,0,21.3,32.559v4.462a1.5,1.5,0,0,0,1.459,1.459H38.635a1.5,1.5,0,0,0,1.459-1.459V32.559A1.375,1.375,0,0,0,38.721,31.1Zm-.257,5.75H23.016V32.816H38.463Z" transform="translate(-5.081 -7.672)" fill="#fff"/>
    </g>
  </g>
</svg>
