<svg id="noun_Latency_1631001" xmlns="http://www.w3.org/2000/svg" width="55.7" height="56.137" viewBox="0 0 55.7 56.137">
  <path id="Path_306" data-name="Path 306" d="M61.078,44a4.767,4.767,0,0,0-3.011-1.89,4.643,4.643,0,0,0-2.254-4.257,5.3,5.3,0,0,0-5.812-.1,6.975,6.975,0,0,0-2.3-2.179,8.789,8.789,0,0,0-8.828.125,6.763,6.763,0,0,0-3.186,4.822A5.687,5.687,0,0,0,30.5,42.062a7.482,7.482,0,0,0-1.567,7.755A4.742,4.742,0,0,0,33.5,52.854H56.519a5.424,5.424,0,0,0,5.1-2.866A5.848,5.848,0,0,0,61.078,44Zm-1.75,4.834a2.889,2.889,0,0,1-2.81,1.455H33.5a2.2,2.2,0,0,1-2.2-1.455,4.929,4.929,0,0,1,1.008-4.963,3.009,3.009,0,0,1,2.2-.9,5.016,5.016,0,0,1,1.916.428,1.28,1.28,0,0,0,1.768-1.287,4.277,4.277,0,0,1,2.043-4.239,6.224,6.224,0,0,1,6.162-.1A4.813,4.813,0,0,1,48.629,42.6a1.28,1.28,0,0,0,2.556.157,9.329,9.329,0,0,0-.172-2.532,2.683,2.683,0,0,1,3.4-.225,2.037,2.037,0,0,1,.83,2.75,1.28,1.28,0,0,0,1.335,1.893,2.339,2.339,0,0,1,2.446.89A3.315,3.315,0,0,1,59.328,48.838ZM45.573,53.032a.331.331,0,0,0-.5,0l-2.346,2.921a.32.32,0,0,0,.249.52h1.341v3.9H14.75V51.231a6.928,6.928,0,0,0-.581-13.781l2.216-2.758a.32.32,0,0,0-.249-.521H14.751V24.559H34.569a5.424,5.424,0,0,0,5.1-2.866,5.845,5.845,0,0,0-.538-5.984,4.767,4.767,0,0,0-3.011-1.89,4.643,4.643,0,0,0-2.254-4.257,5.3,5.3,0,0,0-5.812-.1,6.974,6.974,0,0,0-2.3-2.179,8.788,8.788,0,0,0-8.828.125,6.763,6.763,0,0,0-3.186,4.822,5.687,5.687,0,0,0-5.191,1.533,7.482,7.482,0,0,0-1.567,7.755,4.742,4.742,0,0,0,4.571,3.037H12.83v9.612H11.445a.32.32,0,0,0-.249.521l2.22,2.763A6.868,6.868,0,0,0,8.074,40.46l-.65-.38a.32.32,0,0,0-.481.278l.01,3.389a.305.305,0,0,0,.159.275.356.356,0,0,0,.318,0l2.958-1.653a.321.321,0,0,0,.005-.556l-.656-.383A5.005,5.005,0,1,1,8.9,45.491l-1.872.428a6.89,6.89,0,0,0,5.8,5.316v10.1a.961.961,0,0,0,.96.96H45.279a.961.961,0,0,0,.96-.96V56.474h1.432a.32.32,0,0,0,.249-.521ZM9.349,20.543a4.929,4.929,0,0,1,1.008-4.963,3.009,3.009,0,0,1,2.2-.9,5.016,5.016,0,0,1,1.916.428,1.28,1.28,0,0,0,1.768-1.287,4.277,4.277,0,0,1,2.043-4.239,6.224,6.224,0,0,1,6.162-.1A4.813,4.813,0,0,1,26.679,14.3a1.28,1.28,0,0,0,2.556.157,9.329,9.329,0,0,0-.172-2.532,2.683,2.683,0,0,1,3.4-.225,2.037,2.037,0,0,1,.83,2.75,1.28,1.28,0,0,0,1.335,1.893,2.341,2.341,0,0,1,2.446.89,3.319,3.319,0,0,1,.3,3.305A2.889,2.889,0,0,1,34.567,22H11.551A2.2,2.2,0,0,1,9.349,20.543ZM7.59,43.2l-.006-2.285,2,1.17Zm7.879-8.39L13.79,36.9,12.112,34.81ZM43.644,55.833l1.679-2.09L47,55.833ZM14.11,41.526v2.521h3.305a.32.32,0,1,1,0,.64H13.47V41.526a.32.32,0,0,1,.64,0Z" transform="translate(-6.5 -6.159)" fill="#fff"/>
</svg>
