<svg xmlns="http://www.w3.org/2000/svg" width="510.165" height="510.037" viewBox="0 0 510.165 510.037">
  <g id="Group_2746" data-name="Group 2746" transform="translate(-401.506 -153.305)">
    <path id="Path_367" data-name="Path 367" d="M589.412,359.347a23.765,23.765,0,0,1-23.723-23.723v-7.57a78.442,78.442,0,0,0,31.633-62.833V240.733a55.419,55.419,0,0,0-55.356-55.356H526.146A55.417,55.417,0,0,0,470.8,240.733v24.505a78.426,78.426,0,0,0,31.633,62.824v7.57a23.753,23.753,0,0,1-23.723,23.723,39.579,39.579,0,0,0-39.535,39.535V414.7a7.9,7.9,0,0,0,7.9,7.911h173.97a7.9,7.9,0,0,0,7.9-7.911h0V398.891A39.581,39.581,0,0,0,589.412,359.347ZM526.154,201.2h15.821a39.587,39.587,0,0,1,39.535,39.544v15.2a31.385,31.385,0,0,1-22.175-24.1l-1.684-8.523a7.75,7.75,0,0,0-8.531-6.116,8.1,8.1,0,0,0-7.128,8.072,31.785,31.785,0,0,1-31.327,31.659l-24.037.272V240.7a39.584,39.584,0,0,1,39.518-39.5Zm-38.948,71.857,23.621-.264a47.414,47.414,0,0,0,39.323-21.869A46.992,46.992,0,0,0,581,272.111a62.652,62.652,0,0,1-37.587,50.873,23.913,23.913,0,0,1-18.688,0A62.686,62.686,0,0,1,487.2,273.047Zm31.276,64.5a39.721,39.721,0,0,0,31.131,0h0c.136-.06.263-.145.408-.2a39.242,39.242,0,0,0,6.227,19.7l-21.962,9.408L512.6,355.622a39.087,39.087,0,0,0,5.435-18.271c.17.051.3.136.434.179Zm-63.488,61.336a23.754,23.754,0,0,1,23.723-23.723,39.254,39.254,0,0,0,22.864-7.4l24.573,12.291v26.734h-71.16Zm158.141,7.9h-71.16V380.382l26.5-11.355a39.221,39.221,0,0,0,20.941,6.141,23.754,23.754,0,0,1,23.723,23.723Z" transform="translate(282.723 240.728)"/>
    <path id="Path_364" data-name="Path 364" d="M410.012,408.481H648.176a8.509,8.509,0,0,0,8.506-8.506V263.881a8.5,8.5,0,0,0-8.506-8.506H554.612V161.811a8.5,8.5,0,0,0-8.506-8.506H410.012a8.5,8.5,0,0,0-8.506,8.506V399.975A8.509,8.509,0,0,0,410.012,408.481Zm51.035-17.012V340.434h34.023v51.035ZM639.67,272.387V391.469H554.612V272.387ZM418.518,170.317H537.6V391.469H512.082V340.434h8.506V323.422H435.53v17.012h8.506v51.035H418.518Z" transform="translate(0 0)"/>
    <rect id="Rectangle_171" data-name="Rectangle 171" width="17" height="17" transform="translate(435.599 187.342)"/>
    <rect id="Rectangle_172" data-name="Rectangle 172" width="17" height="17" transform="translate(469.599 187.342)"/>
    <rect id="Rectangle_173" data-name="Rectangle 173" width="17" height="17" transform="translate(503.599 187.342)"/>
    <rect id="Rectangle_174" data-name="Rectangle 174" width="17" height="17" transform="translate(435.599 221.342)"/>
    <rect id="Rectangle_175" data-name="Rectangle 175" width="17" height="17" transform="translate(469.599 221.342)"/>
    <rect id="Rectangle_176" data-name="Rectangle 176" width="17" height="17" transform="translate(503.599 221.342)"/>
    <rect id="Rectangle_177" data-name="Rectangle 177" width="17" height="17" transform="translate(435.599 255.342)"/>
    <rect id="Rectangle_178" data-name="Rectangle 178" width="17" height="17" transform="translate(469.599 255.342)"/>
    <rect id="Rectangle_179" data-name="Rectangle 179" width="17" height="17" transform="translate(503.599 255.342)"/>
    <rect id="Rectangle_180" data-name="Rectangle 180" width="17" height="17" transform="translate(571.599 289.342)"/>
    <rect id="Rectangle_181" data-name="Rectangle 181" width="17" height="17" transform="translate(605.599 289.342)"/>
    <rect id="Rectangle_182" data-name="Rectangle 182" width="17" height="17" transform="translate(571.599 323.342)"/>
    <rect id="Rectangle_183" data-name="Rectangle 183" width="17" height="17" transform="translate(605.599 323.342)"/>
    <rect id="Rectangle_200" data-name="Rectangle 200" width="17" height="17" transform="translate(571.599 204.342)"/>
    <rect id="Rectangle_201" data-name="Rectangle 201" width="17" height="17" transform="translate(605.599 204.342)"/>
    <rect id="Rectangle_202" data-name="Rectangle 202" width="17" height="17" transform="translate(639.599 204.342)"/>
    <rect id="Rectangle_203" data-name="Rectangle 203" width="17" height="17" transform="translate(673.599 204.342)"/>
    <rect id="Rectangle_204" data-name="Rectangle 204" width="17" height="17" transform="translate(707.599 204.342)"/>
    <rect id="Rectangle_205" data-name="Rectangle 205" width="17" height="17" transform="translate(741.599 204.342)"/>
    <rect id="Rectangle_206" data-name="Rectangle 206" width="17" height="17" transform="translate(775.599 204.342)"/>
    <rect id="Rectangle_207" data-name="Rectangle 207" width="17" height="17" transform="translate(809.599 204.342)"/>
    <rect id="Rectangle_208" data-name="Rectangle 208" width="17" height="17" transform="translate(843.599 204.342)"/>
    <rect id="Rectangle_209" data-name="Rectangle 209" width="17" height="17" transform="translate(843.599 238.342)"/>
    <rect id="Rectangle_210" data-name="Rectangle 210" width="17" height="17" transform="translate(843.599 272.342)"/>
    <rect id="Rectangle_211" data-name="Rectangle 211" width="17" height="17" transform="translate(843.599 306.342)"/>
    <rect id="Rectangle_212" data-name="Rectangle 212" width="17" height="17" transform="translate(843.599 340.342)"/>
    <rect id="Rectangle_213" data-name="Rectangle 213" width="17" height="17" transform="translate(843.599 374.342)"/>
    <rect id="Rectangle_217" data-name="Rectangle 217" width="17" height="17" transform="translate(452.599 425.342)"/>
    <rect id="Rectangle_218" data-name="Rectangle 218" width="17" height="17" transform="translate(452.599 459.342)"/>
    <rect id="Rectangle_219" data-name="Rectangle 219" width="17" height="17" transform="translate(452.599 493.342)"/>
    <rect id="Rectangle_220" data-name="Rectangle 220" width="17" height="17" transform="translate(452.599 527.342)"/>
    <rect id="Rectangle_221" data-name="Rectangle 221" width="17" height="17" transform="translate(452.599 561.342)"/>
    <rect id="Rectangle_222" data-name="Rectangle 222" width="17" height="17" transform="translate(452.599 595.342)"/>
    <rect id="Rectangle_223" data-name="Rectangle 223" width="17" height="17" transform="translate(486.599 595.342)"/>
    <rect id="Rectangle_224" data-name="Rectangle 224" width="17" height="17" transform="translate(520.599 595.342)"/>
    <rect id="Rectangle_225" data-name="Rectangle 225" width="17" height="17" transform="translate(554.599 595.342)"/>
    <rect id="Rectangle_222-2" data-name="Rectangle 222" width="17.012" height="17.012" transform="translate(589.259 595.607)"/>
    <rect id="Rectangle_223-2" data-name="Rectangle 223" width="17.012" height="17.012" transform="translate(623.283 595.607)"/>
    <rect id="Rectangle_224-2" data-name="Rectangle 224" width="17.012" height="17.012" transform="translate(657.306 595.607)"/>
    <rect id="Rectangle_225-2" data-name="Rectangle 225" width="17.012" height="17.012" transform="translate(691.33 595.607)"/>
  </g>
</svg>
