<?xml version="1.0" encoding="utf-8"?>
<!-- Generator: Adobe Illustrator 25.2.3, SVG Export Plug-In . SVG Version: 6.00 Build 0)  -->
<svg version="1.1" id="Layer_1" xmlns="http://www.w3.org/2000/svg" xmlns:xlink="http://www.w3.org/1999/xlink" x="0px" y="0px"
	 viewBox="0 0 64 45.6" style="enable-background:new 0 0 64 45.6;" xml:space="preserve">
<style type="text/css">
	.st0{fill:#FFFFFF;}
	.st1{display:none;}
</style>
<path class="st0" d="M29.2,1.9H12c-2.8,0-5,2.2-5,5v29H3c-0.6,0-1,0.4-1,1c0,3.9,3.1,7,7,7h46c3.9,0,7-3.1,7-7c0-0.6-0.4-1-1-1h-4
	v-29c0-2.8-2.2-5-5-5H34.8 M32,1.9 M9,6.9c0-1.7,1.3-3,3-3h40c1.7,0,3,1.3,3,3v29H9V6.9z M55,41.9H9c-2.4,0-4.4-1.7-4.9-4H8h48h3.9
	C59.4,40.2,57.4,41.9,55,41.9z"/>
<path class="st1" d="M52,5.9H12c-0.6,0-1,0.4-1,1v26c0,0.6,0.4,1,1,1h40c0.6,0,1-0.4,1-1v-26C53,6.4,52.6,5.9,52,5.9z M51,31.9H13
	v-24h38V31.9z"/>
<path class="st0" d="M23,15.2L23,15.2l2.4,10c0,0,0,0.1,0,0.1c-0.3,0.5-0.5,1-0.5,1.7c0,1.7,1.3,3,3,3s3-1.3,3-3
	c0-0.4-0.1-0.7-0.2-1h2.4c-0.1,0.3-0.2,0.6-0.2,1c0,1.7,1.3,3,3,3s3-1.3,3-3c0-0.7-0.2-1.3-0.6-1.8l3-9.9c0.1-0.3,0-0.6-0.2-0.9
	c-0.2-0.3-0.5-0.4-0.8-0.4H24.8L24,10.7c-0.1-0.4-0.5-0.8-1-0.8h-5v2h4.2L23,15.2z M29,26.9c0,0.6-0.4,1-1,1s-1-0.4-1-1s0.4-1,1-1
	S29,26.4,29,26.9z M36,27.9c-0.6,0-1-0.4-1-1s0.4-1,1-1s1,0.4,1,1S36.6,27.9,36,27.9z M39.1,15.9l-2.4,8h-9.5l-1.9-8H39.1z"/>
</svg>
