<svg id="Group_295" data-name="Group 295" xmlns="http://www.w3.org/2000/svg" xmlns:xlink="http://www.w3.org/1999/xlink" width="154.174" height="141" viewBox="0 0 154.174 141">
  <defs>
    <clipPath id="clip-path">
      <rect id="Rectangle_351" data-name="Rectangle 351" width="154.174" height="141" fill="none"/>
    </clipPath>
  </defs>
  <g id="Group_294" data-name="Group 294" clip-path="url(#clip-path)">
    <path id="Path_891" data-name="Path 891" d="M214.8,108.787a8.969,8.969,0,0,1-1.6,2.592,5.228,5.228,0,0,1-2.666,1.613,6.445,6.445,0,0,1-2.247.143,8.541,8.541,0,0,1-3.617-1.394,16.063,16.063,0,0,1-2.882-2.47c-.767-.808-1.484-1.666-2.171-2.526-.436-.557-.868-1.118-1.282-1.686s-.812-1.167-1.209-1.669a.4.4,0,0,1-.1-.153.2.2,0,0,1,0-.118c.031-.077.181-.125.4-.052a3.436,3.436,0,0,1,1.488,1.251,30.734,30.734,0,0,0,5.551,6.335,7.408,7.408,0,0,0,4.645,1.686,4.531,4.531,0,0,0,.7-.049,4.593,4.593,0,0,0,.662-.122,4.18,4.18,0,0,0,1.213-.561,5.061,5.061,0,0,0,1.014-.9,7.545,7.545,0,0,0,.794-1.146,13.32,13.32,0,0,0,1.265-3.261,28.793,28.793,0,0,0,.8-5.317c.084-1.394.059-2.753.017-4.129,0-.3-.021-.6-.035-.9-.031-1.132,0-1.495.226-1.742a1.2,1.2,0,0,1,.146-.167c.171-.111.328.348.4,1.181a39.643,39.643,0,0,1-.108,7.753,21.878,21.878,0,0,1-1.394,5.812Z" transform="translate(-128.374 -61.261)" fill="#221f1f"/>
    <path id="Path_892" data-name="Path 892" d="M175.04,96.865a4.67,4.67,0,0,1-.481-1.613,8.494,8.494,0,0,1,0-1.6,5.76,5.76,0,0,1,.213-1.171,3.3,3.3,0,0,1,.495-.99,2.029,2.029,0,0,1,.93-.7,2.559,2.559,0,0,1,1.111-.136,3.72,3.72,0,0,1,1.028.247,7,7,0,0,1,1.585.875,4.2,4.2,0,0,1,1.526,1.742c.091.244-.132.279-.4.209a1.742,1.742,0,0,1-.847-.491,6.463,6.463,0,0,0-1.571-1.275,4.87,4.87,0,0,0-.906-.4,2.824,2.824,0,0,0-.923-.115,1.188,1.188,0,0,0-.889.516,3.14,3.14,0,0,0-.443,1.129,6.718,6.718,0,0,0-.132,1.432,4.247,4.247,0,0,0,.2,1.394,3.944,3.944,0,0,0,.882,1.488,4.78,4.78,0,0,0,2.314,1.307,7.352,7.352,0,0,0,2.091.146l.46-.024c.575-.052.76,0,.909.206a1.172,1.172,0,0,1,.1.146c.073.171-.157.328-.6.408a6.045,6.045,0,0,1-1.014.108,7.119,7.119,0,0,1-1.045-.017,3.976,3.976,0,0,1-.533-.07c-.178-.035-.348-.059-.537-.1a6.882,6.882,0,0,1-1.045-.366,5,5,0,0,1-2.491-2.268Z" transform="translate(-113.712 -59.06)" fill="#221f1f"/>
    <path id="Path_893" data-name="Path 893" d="M229.452,54.67a9.479,9.479,0,0,1,1.136.547,4.48,4.48,0,0,1,.4.22,7.741,7.741,0,0,1,1.226,1.028c.171.16.348.324.512.477.108.1.223.2.331.307a1.3,1.3,0,0,1,.251.373c.07.174-.7.495-.909.268l-1.115-1.226a3.565,3.565,0,0,0-.836-.592,7.554,7.554,0,0,0-1.017-.516,6.284,6.284,0,0,0-.666-.244,5.757,5.757,0,0,0-1.045-.223,4.74,4.74,0,0,0-.843.045c-.063,0-.122.021-.181.021-.226,0-.3-.049-.348-.272a1.213,1.213,0,0,0-.035-.153.32.32,0,0,1,.251-.348,3.944,3.944,0,0,1,1.655-.024,7.649,7.649,0,0,1,1.233.324Z" transform="translate(-147.458 -35.367)" fill="#221f1f"/>
    <path id="Path_894" data-name="Path 894" d="M195.422,21.833c-3.178.24-6.969-1.829-11.62-2.157-9.7-.7-8.589,9.662-8.62,9.9-2.819-.6-8.436-1.833-10.1-3.418-3.909-16.028,12.491-14.54,13.7-11.15.153-1.467,8.436-20.4,24.645-12.139,6.547,3.324,7.833,17.784-8,18.969" transform="translate(-107.166 -0.513)" fill="#221f1f"/>
    <path id="Path_895" data-name="Path 895" d="M185.124,4.843c-.38.321-.725.7-1.084,1.045A12.128,12.128,0,0,0,183.033,7a24.39,24.39,0,0,0-1.819,2.4,27.687,27.687,0,0,0-1.544,2.585c-.233.446-.449.9-.652,1.352-.052.115-.094.23-.143.348a3.145,3.145,0,0,0-.125.348l-.1.348c-.146.443-.258,1.132-.348,1.463l-.206-.411-.244-.463-.251-.477-.059-.111-.063-.077a.978.978,0,0,0-.129-.139L177.166,14a1.164,1.164,0,0,0-.143-.1c-.1-.063-.188-.139-.3-.2a6.581,6.581,0,0,0-1.394-.571,10.619,10.619,0,0,0-3.059-.376,8.5,8.5,0,0,0-5.889,2.338,6.746,6.746,0,0,0-1.516,2.373,9.846,9.846,0,0,0-.606,2.812c-.035.24,0,.488-.028.728a3.949,3.949,0,0,0,0,.732c.042.488.038.979.125,1.467s.122.976.237,1.456l.146.721v.073l.052.045a2.858,2.858,0,0,0,.261.206,11.9,11.9,0,0,0,2.631,1.233c.93.348,1.889.613,2.85.871s1.937.491,2.913.7l.551.125.167.038a.858.858,0,0,0,0-.164v-.561a6.328,6.328,0,0,1,.031-.77,12.9,12.9,0,0,1,.446-2.693,8.7,8.7,0,0,1,1.122-2.519,6.531,6.531,0,0,1,1.962-1.958,7.386,7.386,0,0,1,2.568-1,11.837,11.837,0,0,1,3.484-.1,24.923,24.923,0,0,1,3.4.592c1.115.265,2.213.589,3.3.882a18.141,18.141,0,0,0,3.275.652c.348.031.582.038.742.059s.23.056.223.1-.094.094-.254.15a3.018,3.018,0,0,1-.7.15,9.45,9.45,0,0,1-2.537-.115c-1.045-.164-2.216-.456-3.467-.78a29.783,29.783,0,0,0-3.338-.7,13.328,13.328,0,0,0-3.321-.111,7.753,7.753,0,0,0-1.582.348,6.418,6.418,0,0,0-1.425.7,6.035,6.035,0,0,0-1.181,1.045,6.971,6.971,0,0,0-.878,1.341,9.978,9.978,0,0,0-.92,3.157A14.12,14.12,0,0,0,175,28.041c0,.167.024.847,0,1.335v.282c0,.021-.059,0-.084,0l-.39-.07c-.261-.049-.512-.087-.784-.15l-.882-.2-.857-.206q-.85-.209-1.7-.439a34.962,34.962,0,0,1-3.376-1.091,13.334,13.334,0,0,1-1.972-.934c-.157-.1-.317-.2-.47-.321l-.258-.213-.171-.143a1.713,1.713,0,0,1-.049-.216l-.23-1.1a17.868,17.868,0,0,1-.31-4.366,9.626,9.626,0,0,1,1.244-4.272,3.247,3.247,0,0,1,.307-.474,5.324,5.324,0,0,1,.348-.46,7.971,7.971,0,0,1,2.655-2.066,10.574,10.574,0,0,1,5.387-.951,10.218,10.218,0,0,1,2.7.557c.22.077.432.174.648.268a5.849,5.849,0,0,1,.62.348c.1.073.2.132.3.213l.16.146a.7.7,0,0,1,.15.216s.017.049.021.028v-.049a.481.481,0,0,1,.028-.094c.007-.031.049-.129.073-.192l.171-.411.213-.474c.3-.627.62-1.24.958-1.843a28.474,28.474,0,0,1,2.314-3.436,22.515,22.515,0,0,1,4.153-4.153c.408-.275.794-.582,1.223-.826.209-.129.418-.261.631-.383l.655-.348.328-.171.348-.146.7-.293.7-.24a6.376,6.376,0,0,1,.7-.213,13.662,13.662,0,0,1,4.443-.467A17.558,17.558,0,0,1,200,.9a22.13,22.13,0,0,1,2.059.84,8.039,8.039,0,0,1,3.523,2.725,10.564,10.564,0,0,1,1.742,8.711,9.66,9.66,0,0,1-1.394,3.136,10.349,10.349,0,0,1-2.38,2.488,12.547,12.547,0,0,1-2.617,1.512,14.325,14.325,0,0,1-3.833,1.045,5.368,5.368,0,0,1-1.767,0,4.007,4.007,0,0,1-.533-.1c-.181-.066.1-.174.749-.307l.554-.1.679-.15c.247-.059.519-.1.8-.174l.9-.237c.24-.052.467-.146.7-.22s.467-.143.7-.237a14.352,14.352,0,0,0,1.341-.6,12.048,12.048,0,0,0,1.272-.728,11.466,11.466,0,0,0,1.157-.892,9.351,9.351,0,0,0,1.871-2.233,9.041,9.041,0,0,0,1.045-2.725A9.825,9.825,0,0,0,206,6.874a8.55,8.55,0,0,0-1.575-2.5,7.04,7.04,0,0,0-1.091-.986l-.3-.213L202.723,3a6.127,6.127,0,0,0-.676-.348L201,2.163l-1.07-.4c-.348-.15-.728-.226-1.091-.348l-.551-.157-.558-.111a13.846,13.846,0,0,0-4.5-.2,13.368,13.368,0,0,0-4.321,1.321,17.009,17.009,0,0,0-3.76,2.592Z" transform="translate(-106.492 0)" fill="#221f1f"/>
    <path id="Path_896" data-name="Path 896" d="M177.941,89.306c-.878-1.432-5.537-3.93-6.3-.348a49.607,49.607,0,0,1-2.017-4.589,26.434,26.434,0,0,0,8.178,3.174c.073.8.167,1.693.143,1.763" transform="translate(-110.518 -54.972)" fill="#221f1f"/>
    <path id="Path_897" data-name="Path 897" d="M169.637,84.2l-.164-.132c-.024-.021-.017,0-.017,0v.164a.545.545,0,0,0,.028.077l.017.052.045.115.1.261c.167.4.348.791.53,1.188l.08.185.035.091.052.136.052.136.031.073a.054.054,0,0,1,.017-.038,1,1,0,0,1,.1-.2l.052-.066a.205.205,0,0,1,.031-.042l.07-.08a2.267,2.267,0,0,1,.31-.3,2.393,2.393,0,0,1,.76-.38,3.083,3.083,0,0,1,.808-.094,5.748,5.748,0,0,1,2.091.516,4.983,4.983,0,0,1,2.2,1.641c.16.282-.07.328-.348.279a2.441,2.441,0,0,1-1.045-.429,6.711,6.711,0,0,0-2.174-1.045,1.955,1.955,0,0,0-2,.348,5.8,5.8,0,0,0-.7,1.927,3.491,3.491,0,0,1-.38-.7l-.408-.836-.348-.714-.181-.519-.3-.7-.348-.868c-.153-.383-.293-.76-.429-1.122l-.2-.544-.1-.272a1.2,1.2,0,0,1-.045-.129v-.066l.777.523c.272.178.547.369.8.509l.38.226c.066.035.125.073.192.1l.132.073c.324.171.655.331.99.481a24.974,24.974,0,0,0,3.136,1.16c.411.118.826.22,1.24.31l1.495.31.1.8c.08.7.045.941-.174,1.112-.049.035-.1.094-.15.1s.045.021,0,0a.272.272,0,0,0-.084-.024h-.042a.267.267,0,0,1-.108-.115,1.822,1.822,0,0,1-.185-.561c-.031-.167-.059-.331-.091-.5a.58.58,0,0,0-.021-.112v-.059h-.15l-.087-.017-.111-.024-.23-.049c-.307-.066-.617-.139-.923-.22q-.927-.244-1.847-.558t-1.742-.659c-.286-.125-.568-.247-.85-.383l-.418-.209-.209-.1Z" transform="translate(-109.378 -53.506)" fill="#221f1f"/>
    <path id="Path_898" data-name="Path 898" d="M176.615,78.719l-.7-3.662-.993-.2-.774-.171c-.516-.115-1.045-.237-1.544-.348-1.024-.254-2.045-.53-3.052-.833a30.859,30.859,0,0,1-2.969-1.045,13.2,13.2,0,0,1-1.394-.679,5.682,5.682,0,0,1-.624-.415l-.15-.139a.531.531,0,0,1-.066-.059l-.1-.1c-.188-.2-.348-.436-.53-.645-.146.3-.317.585-.446.9l-.059.16a.648.648,0,0,0-.042.139,2.531,2.531,0,0,0-.066.282,2.407,2.407,0,0,0,.08,1.167,4.529,4.529,0,0,0,1.24,1.812c.258.247.516.477.794.7l.443.317c.15.1.307.181.46.275a15.428,15.428,0,0,0,1.9.892,38.265,38.265,0,0,0,3.944,1.268c1.335.348,2.669.676,4.031.937.4.073.456-.592.115-.645-1.328-.254-2.662-.571-3.976-.923a38.868,38.868,0,0,1-3.889-1.244,14.9,14.9,0,0,1-1.815-.854c-.139-.084-.289-.16-.422-.251l-.394-.282a9.628,9.628,0,0,1-.749-.655,3.9,3.9,0,0,1-1.07-1.537,1.76,1.76,0,0,1-.063-.861,2.1,2.1,0,0,1,.052-.216.64.64,0,0,1,.031-.108l.021-.052v-.028l.042.038a.834.834,0,0,0,.08.077l.167.132a6.444,6.444,0,0,0,.7.467,13.568,13.568,0,0,0,1.467.714,31.114,31.114,0,0,0,3.031,1.073c1.021.31,2.052.585,3.087.843.519.125,1.045.247,1.558.348l1.348.289.624,3.223c.073.324.721.2.669-.094" transform="translate(-106.252 -45.883)" fill="#232020"/>
    <path id="Path_899" data-name="Path 899" d="M230.125,226.831c-.861.387-1.258-.78-1.861-1.171-1.3-.84-2.5,1.247-3.833-1.216-1.551-6.969-3.443-35.725-4.181-51.6,0-.143,4.01,3.39,6.22,1.341a.108.108,0,0,1,.181.07c.913,17.77,3.707,48.913,4.181,50.412-.035.676.042,1.829-.707,2.167" transform="translate(-143.507 -112.614)" fill="#221f1f"/>
    <path id="Path_900" data-name="Path 900" d="M225.778,180.554l-.213-3.777-.094-1.885-.017-.369v-.066c0-.017,0-.066-.028-.049a.323.323,0,0,1-.056.038h-.028l-.084.035-.122.049a2.913,2.913,0,0,1-.5.139,3.39,3.39,0,0,1-1.007.031,5.98,5.98,0,0,1-1.812-.523,11.527,11.527,0,0,1-1.589-.882l-.1-.066-.073-.052c-.073-.077-.049.028-.049.08l.143,3.164q.181,3.3.348,6.6c.415,7.76.878,15.512,1.477,23.258.265,3.436.589,6.885.976,10.279.247,2.181.53,4.366.93,6.509l.077.4.038.2c0,.063,0,.07.035.1l.192.314c.077.094.15.2.23.286a1.311,1.311,0,0,0,.523.348,1.4,1.4,0,0,0,.655,0c.244-.042.512-.125.819-.167a1.868,1.868,0,0,1,.986.1,1.81,1.81,0,0,1,.432.272,2.806,2.806,0,0,1,.317.348,6.7,6.7,0,0,0,.509.589.658.658,0,0,0,.443.209c.111,0,.185,0,.192.052s-.038.125-.188.2a.771.771,0,0,1-.718-.094,6.707,6.707,0,0,1-.826-.676,1.045,1.045,0,0,0-.951-.23c-.2.042-.422.118-.7.2a2.4,2.4,0,0,1-1.045.094,1.93,1.93,0,0,1-1.045-.554,3.193,3.193,0,0,1-.366-.422,2.145,2.145,0,0,1-.146-.22l-.157-.254-.052-.087a.166.166,0,0,0-.021-.1l-.028-.143-.038-.213-.08-.422-.16-.843-.251-1.676c-.15-1.118-.293-2.237-.415-3.355q-.376-3.362-.655-6.721c-.387-4.484-.7-8.983-.958-13.5-.314-5.408-.7-11.028-1-16.561l-.2-3.833-.2-4.2.129-.415.035-.1c.056.1,0,.024.028.045h.056a.249.249,0,0,1,.164,0,1.251,1.251,0,0,1,.564.213l.293.206.272.181a11.225,11.225,0,0,0,1.477.822,5.377,5.377,0,0,0,1.564.456,2.714,2.714,0,0,0,.774-.024,2.053,2.053,0,0,0,.348-.1l.087-.035.111-.052a1.934,1.934,0,0,0,.3-.2,1.305,1.305,0,0,1,.495-.209.244.244,0,0,1,.23.077,1.05,1.05,0,0,1,.1.2,1.92,1.92,0,0,1,.084.641l.031.554.091,1.791q.307,5.61.7,11.216c.394,5.659.819,11.342,1.307,16.951.383,4.362.822,8.631,1.286,12.93.108.948.213,1.875.321,2.829.1.882.185,1.61.254,2.223.038.3.063.592.1.822a1.95,1.95,0,0,0,.049.328l.031.24v.174a2.4,2.4,0,0,1-.512,1.7.773.773,0,0,1-.477.247c-.091,0-.08-.052,0-.136a1.193,1.193,0,0,0,.251-.491,3.948,3.948,0,0,0,.059-1.125v-.188a1.232,1.232,0,0,0,0-.16V224.1l-.024-.112-.052-.226c-.07-.317-.1-.6-.153-.934-.54-3.85-.937-7.8-1.331-11.819s-.78-8.1-1.094-12.188c-.488-6.066-.93-12.164-1.31-18.258Z" transform="translate(-142.784 -112.062)" fill="#221f1f"/>
    <path id="Path_901" data-name="Path 901" d="M237.609,150.055l-.031,1.76c0,.213.021.425.017.638,0,.756-.031,1.509-.028,2.265,0,.348.021.669.049,1a5.815,5.815,0,0,1,.052,1.279c-.035.268-.77-.031-.8-.526a18.318,18.318,0,0,1,0-2.624c.038-.53,0-1.077,0-1.613v-2.871c0-.551.021-1.1,0-1.655,0-.425-.052-.843-.077-1.268v-.282c0-.348.063-.46.261-.523a1.214,1.214,0,0,1,.139-.038c.157-.021.275.125.3.376a17.936,17.936,0,0,1,.122,2.317v1.767Z" transform="translate(-154.284 -94.863)" fill="#221f1f"/>
    <path id="Path_902" data-name="Path 902" d="M219.4,147.947v1.829c0,.223.028.443.028.665v2.348c0,.348.028.7.056,1.045a6.269,6.269,0,0,1,.056,1.328c-.038.279-.774-.038-.8-.547a21.488,21.488,0,0,1,0-2.721c.035-.547-.024-1.111-.035-1.669l-.024-1.843-.017-1.132c0-.571,0-1.146-.045-1.714-.024-.443-.091-.871-.136-1.31,0-.1-.024-.192-.031-.289-.017-.348.038-.484.237-.557a.69.69,0,0,1,.136-.045c.157-.024.275.115.324.369a17.265,17.265,0,0,1,.227,2.408c.024.61.035,1.226.052,1.84Z" transform="translate(-142.329 -93.39)" fill="#221f1f"/>
    <path id="Path_903" data-name="Path 903" d="M219.4,144.579l.08,2.091s2.558,3.906,6.108,2.732V145.53s-4.606.495-6.188-.951" transform="translate(-142.953 -94.203)" fill="#221f1f"/>
    <path id="Path_904" data-name="Path 904" d="M146.02,172.659l3.4-4.62c.418-.561.815-1.136,1.244-1.69.376-.491.756-.979,1.153-1.456a16.474,16.474,0,0,1,1.265-1.394,14.326,14.326,0,0,1,2.969-2.317,10.842,10.842,0,0,1,3.136-1.24,9.92,9.92,0,0,1,2.132-.213,7.93,7.93,0,0,1,2.122.348c.429.129.3.321-.1.443a4.547,4.547,0,0,1-.78.129,3.213,3.213,0,0,1-.491.017,4.044,4.044,0,0,1-.544,0,8.838,8.838,0,0,0-3.906.669,12.54,12.54,0,0,0-3.439,2.206c-.321.268-.617.571-.913.875s-.564.638-.836.976c-.544.679-1.066,1.394-1.589,2.091-1.15,1.54-2.282,3.1-3.422,4.655L145.312,175c-1.07,1.443-2.167,2.878-3.272,4.282-.861,1.094-1.69,2.178-2.634,3.2-.209.226-.415.446-.641.662a4.325,4.325,0,0,1-1,.749,1.231,1.231,0,0,1-.324.115.682.682,0,0,1-.268,0,.787.787,0,0,1-.209-.063c-.157-.125.174-.394.749-.92a28.31,28.31,0,0,0,2.463-2.718c.8-.979,1.589-1.99,2.373-3.014,1.16-1.523,2.31-3.073,3.443-4.634Z" transform="translate(-89.218 -104.073)" fill="#221f1f"/>
    <path id="Path_905" data-name="Path 905" d="M109.258,191.648a32.794,32.794,0,0,0,.23,5.432,13.511,13.511,0,0,0,.571,2.6,3.2,3.2,0,0,0,1.456,1.864,2.92,2.92,0,0,0,1.721.216,7.429,7.429,0,0,0,1.815-.53,17.555,17.555,0,0,0,3.021-1.69c.969-.652,1.9-1.373,2.812-2.115,1.819-1.495,3.544-3.112,5.227-4.774,1.488-1.477,2.927-3.021,4.324-4.568,1.8-1.983,3.484-4.059,5.4-5.979.3-.3.488-.383.533-.314s-.031.289-.2.613a15.277,15.277,0,0,1-2.063,2.913A117.208,117.208,0,0,1,122.52,197.08c-1.268,1.073-2.589,2.143-4,3.136a20.554,20.554,0,0,1-2.213,1.348,9.791,9.791,0,0,1-2.46.941,4.978,4.978,0,0,1-1.5.111,3.312,3.312,0,0,1-1.474-.495,3.683,3.683,0,0,1-1.073-1.1,6.141,6.141,0,0,1-.61-1.348,23.456,23.456,0,0,1-.756-5.6,53.341,53.341,0,0,1,.317-6.885c.348-3.453.965-6.889,1.585-10.268q.361-1.97.7-3.913c.223-1.3.456-2.592.61-3.885.035-.282.059-.561.07-.836a3.907,3.907,0,0,0,0-.4,1.36,1.36,0,0,0-.042-.331c0-.038,0-.028-.042-.084l-.091-.136c-.066-.084-.132-.167-.2-.244-.139-.153-.282-.289-.415-.418a5.991,5.991,0,0,1-.666-.7,1.394,1.394,0,0,1-.348-1.084.931.931,0,0,1,.1-.348c.035-.056.08-.038.129.028a1,1,0,0,1,.073.139c.031.056.066.125.1.2a2.511,2.511,0,0,0,.39.519c.185.2.439.408.746.672a5.337,5.337,0,0,1,.676.672,1.832,1.832,0,0,1,.157.2l.077.111c.028.056.059.118.084.178a2.04,2.04,0,0,1,.1.575,12.138,12.138,0,0,1-.129,1.878c-.16,1.216-.38,2.418-.6,3.631-.443,2.422-.916,4.878-1.324,7.317a81.946,81.946,0,0,0-1.223,11Z" transform="translate(-70.645 -107.185)" fill="#221f1f"/>
    <path id="Path_906" data-name="Path 906" d="M135.137,152.526a40.659,40.659,0,0,0-1.017,5.634l-.192,2.091c-.094,1.233-.192,2.474-.258,3.711s-.122,2.484-.132,3.728V171c.056,1.394.153,2.815.1,4.227-.031.878-.868-.206-.92-1.833l-.059-2.167v-2.167c0-.725.017-1.446.042-2.171s.084-1.453.122-2.178c.024-.436.049-.875.07-1.317s.056-.889.08-1.335c.049-.892.087-1.791.188-2.679l.143-1.463c.056-.488.136-.976.2-1.46.118-.976.328-1.941.505-2.909.146-.589.282-1.181.446-1.767a14.64,14.64,0,0,1,.589-1.742,8.035,8.035,0,0,1,1.394-2.439,4.51,4.51,0,0,1,.544-.488,2.808,2.808,0,0,1,.3-.2,2.215,2.215,0,0,1,.348-.178c.446-.181.878-.3,1.261-.474.293-.136.554-.328.585-.533a.723.723,0,0,0-.348-.606,1.683,1.683,0,0,0-1.659-.153c-.118.063-.244.112-.348.181l-.348.226c-.819.659-1.028.958-1.366.993a1.071,1.071,0,0,1-.223.031c-.1,0-.112-.125-.024-.348a3.054,3.054,0,0,1,.2-.373,4.07,4.07,0,0,1,.369-.456,4,4,0,0,1,1.742-1.15,2.38,2.38,0,0,1,2.293.474,1.877,1.877,0,0,1,.415.551,1.648,1.648,0,0,1,.122.39,1.329,1.329,0,0,1-.035.47,1.359,1.359,0,0,1-.449.669,2.544,2.544,0,0,1-.533.348,9.287,9.287,0,0,1-.976.376c-.146.052-.293.1-.4.157a.982.982,0,0,0-.15.08l-.185.122a5.24,5.24,0,0,0-1.523,2.091,17.765,17.765,0,0,0-.906,2.686Z" transform="translate(-86.437 -93.794)" fill="#221f1f"/>
    <path id="Path_907" data-name="Path 907" d="M115.269,149.931a4.6,4.6,0,0,0-.1-1.289c-.035-.164-.1-.317-.139-.477a6.086,6.086,0,0,0-.638-1.617l-.049-.08-.042-.049a.526.526,0,0,0-.115-.094,1.167,1.167,0,0,0-.3-.143c-.279-.091-.634-.094-.847-.15a.509.509,0,0,1-.1-.443.578.578,0,0,1,.571-.411,2.411,2.411,0,0,1,1.247.509c.052.049.1.094.15.146a1.4,1.4,0,0,1,.122.164c.056.087.1.178.15.265a4.028,4.028,0,0,1,.223.544c.146.436.348.854.47,1.3a6.776,6.776,0,0,1,.226,1.509,2.414,2.414,0,0,1-.16,1.021.841.841,0,0,1-.307.369.7.7,0,0,1-.46.1,1.046,1.046,0,0,1-.446-.16,2.28,2.28,0,0,1-.3-.261,4.357,4.357,0,0,1-.666-.92c-.035-.077-.08-.146-.108-.226-.108-.3-.059-.443.153-.526a.866.866,0,0,1,.15-.052.387.387,0,0,1,.4.2c.132.23.282.47.436.7a2.211,2.211,0,0,0,.233.286c.07.073.178.15.146.129,0,0,0,.028.028-.07a1.347,1.347,0,0,0,.035-.261Z" transform="translate(-73.579 -94.593)" fill="#221f1f"/>
    <path id="Path_908" data-name="Path 908" d="M120.593,147.114a6.225,6.225,0,0,0-.24-1.578c-.049-.2-.132-.38-.2-.571a8.717,8.717,0,0,0-.861-1.941,1.4,1.4,0,0,0-.265-.348,1.55,1.55,0,0,0-.348-.22,3.782,3.782,0,0,0-1-.226.39.39,0,0,1-.108-.439.648.648,0,0,1,.7-.4,2.56,2.56,0,0,1,1.394.739,2.987,2.987,0,0,1,.422.624,6.217,6.217,0,0,1,.286.624c.2.505.449,1,.62,1.516a8.827,8.827,0,0,1,.383,1.767,5.277,5.277,0,0,1,.021.575,1.105,1.105,0,0,1-.028.3.926.926,0,0,0-.028.157,1.553,1.553,0,0,1-.056.185.662.662,0,0,1-.652.488q-.14,0-.279-.021a1.843,1.843,0,0,1-.854-.38,2.809,2.809,0,0,1-.819-1.125,2.774,2.774,0,0,1-.1-.282c-.094-.348-.035-.5.178-.589a.767.767,0,0,1,.15-.056c.171-.042.317.08.4.286.247.627.578,1.185,1.017,1.293l.181.042s0,.042.028-.087a2.588,2.588,0,0,0,.017-.348Z" transform="translate(-76.592 -92.118)" fill="#221f1f"/>
    <path id="Path_909" data-name="Path 909" d="M125.679,143.129a7.867,7.867,0,0,0-.282-1.763c-.059-.216-.146-.422-.216-.631a8.786,8.786,0,0,0-.972-2.136,1.516,1.516,0,0,0-.714-.585,3.781,3.781,0,0,0-1.132-.23.348.348,0,0,1-.112-.443.7.7,0,0,1,.742-.408,2.932,2.932,0,0,1,1.537.735,2.441,2.441,0,0,1,.3.348c.066.108.136.213.2.324a6.4,6.4,0,0,1,.348.679c.226.551.509,1.094.7,1.666a9.909,9.909,0,0,1,.425,1.937,5.255,5.255,0,0,1,.038.624,2.691,2.691,0,0,1-.07.666.884.884,0,0,1-.324.54c-.178.129-.408.066-.613.066a1.7,1.7,0,0,1-.93-.456,2.9,2.9,0,0,1-.714-1.345c-.03-.1-.054-.208-.073-.314-.056-.39,0-.512.216-.606a1.175,1.175,0,0,1,.15-.063c.171-.045.321.1.39.348a6.164,6.164,0,0,0,.348,1.045,1.493,1.493,0,0,0,.247.348.9.9,0,0,0,.307.181l.146.035h.035a.538.538,0,0,1,.021-.174,2.609,2.609,0,0,0,0-.4Z" transform="translate(-79.629 -89.216)" fill="#221f1f"/>
    <path id="Path_910" data-name="Path 910" d="M131.207,129.307a6.053,6.053,0,0,0-1.282-1.394c-.185-.15-.387-.268-.578-.4A3.634,3.634,0,0,0,128.3,127a.7.7,0,0,0-.425,0c-.028.021-.038,0-.087.052l-.122.1c-.08.066-.16.132-.24.206a4.285,4.285,0,0,0-.7.854c-.258.4-.422.836-.634,1.24-.066.125-.272.066-.436-.122a.781.781,0,0,1-.129-.822,5.494,5.494,0,0,1,.951-1.394,5.807,5.807,0,0,1,.613-.557,2.707,2.707,0,0,1,.418-.282,1.227,1.227,0,0,1,.578-.1,3.05,3.05,0,0,1,1.073.3,5.306,5.306,0,0,1,.885.495,8.063,8.063,0,0,1,1.585,1.477,3.717,3.717,0,0,1,.39.575,1.921,1.921,0,0,1,.146.348.662.662,0,0,1-.077.544.618.618,0,0,1-.373.219,1.554,1.554,0,0,1-.293.021,3.645,3.645,0,0,1-.516-.031,6.276,6.276,0,0,1-.993-.213,4.756,4.756,0,0,1-1.446-.662,2.686,2.686,0,0,1-.286-.24c-.324-.348-.317-.578-.15-.735a.691.691,0,0,1,.122-.108.271.271,0,0,1,.244,0,.461.461,0,0,1,.118.07.709.709,0,0,1,.129.1,4.318,4.318,0,0,0,2.091.941,3.844,3.844,0,0,0,.443.049,1.488,1.488,0,0,0,.216,0h.125v.042a1.277,1.277,0,0,1,.038.129.322.322,0,0,0,.056.094c0,.017.059.052,0,.024h-.052a.3.3,0,0,0-.108,0h-.139a1.009,1.009,0,0,0-.15-.3Z" transform="translate(-81.75 -82.203)" fill="#221f1f"/>
    <path id="Path_911" data-name="Path 911" d="M130.313,133.763l.206-.279c.024-.035.024-.077.049-.108a3.632,3.632,0,0,0,.261-.348.352.352,0,0,0,.038-.174c0-.077-.042-.157.056-.213s.854.143.84.268a.764.764,0,0,1-.289.516c-.1.08-.1.2-.16.289s-.129.2-.2.293a1.967,1.967,0,0,0-.115.178,1.082,1.082,0,0,0-.136.279.741.741,0,0,0,.031.244.3.3,0,0,1,0,.056c0,.059-.059.063-.279.024l-.153-.028a.512.512,0,0,1-.348-.16.616.616,0,0,1,0-.53,2.694,2.694,0,0,1,.164-.321Z" transform="translate(-84.741 -86.418)" fill="#221f1f"/>
    <path id="Path_912" data-name="Path 912" d="M259.122,176.015c-.833-1.638-1.666-3.272-2.561-4.878-.328-.582-.7-1.143-1.028-1.711a24.491,24.491,0,0,0-1.99-2.854,8.335,8.335,0,0,0-1.2-1.2,4.876,4.876,0,0,0-.7-.456c-.258-.118-.509-.251-.781-.348a11.843,11.843,0,0,0-2.99-.669c-.659-.077-1.324-.118-2-.188a5.787,5.787,0,0,1-2.045-.5c-.429-.3-.171-.394.2-.411a7.543,7.543,0,0,1,1.721-.028,30.033,30.033,0,0,1,4.108.6,9.444,9.444,0,0,1,2.028.742,6.319,6.319,0,0,1,1.742,1.369,27.171,27.171,0,0,1,3,4.16c.951,1.6,1.815,3.247,2.666,4.878l1.568,3.042c.794,1.526,1.6,3.063,2.477,4.53a22.53,22.53,0,0,0,2.282,3.167c.181.216.38.4.575.606.366.348.617.582.78.749a1.137,1.137,0,0,1,.293.443,1.406,1.406,0,0,1,.063.213c0,.1-.1.132-.314.084a2.316,2.316,0,0,1-.864-.446,12.59,12.59,0,0,1-2.481-2.787c-.7-1.024-1.348-2.091-1.965-3.2-.906-1.624-1.742-3.282-2.61-4.927Z" transform="translate(-158.727 -106.032)" fill="#221f1f"/>
    <path id="Path_913" data-name="Path 913" d="M293.59,188.343a50.147,50.147,0,0,1-4,8.362,15.925,15.925,0,0,1-2.091,2.728,9.362,9.362,0,0,1-1.192.993,6.265,6.265,0,0,1-1.394.721,4.567,4.567,0,0,1-1.592.233,4.726,4.726,0,0,1-.8-.094c-.251-.066-.5-.118-.746-.2a9.837,9.837,0,0,1-2.721-1.394,15.614,15.614,0,0,1-2.24-2.014,38.009,38.009,0,0,1-3.247-4.164l-1.9-2.756a26.819,26.819,0,0,0-1.986-2.613c-.456-.474-.268-.592.314-.331a6.483,6.483,0,0,1,2.2,2.091c1.317,1.889,2.5,3.812,3.868,5.575a21.577,21.577,0,0,0,2.213,2.491,14.567,14.567,0,0,0,1.261,1.063,10.258,10.258,0,0,0,1.394.857,7.24,7.24,0,0,0,1.854.634,3.7,3.7,0,0,0,1.875-.146,7.506,7.506,0,0,0,3.091-2.47,23.218,23.218,0,0,0,2.439-3.833c.7-1.359,1.335-2.76,1.923-4.181.725-1.742,1.394-3.523,2.021-5.31.958-2.707,1.868-5.446,2.787-8.157.7-2.091,1.366-4.181,2.23-6.23.192-.446.38-.889.61-1.331.854-1.638,1.474-2.052,1.923-2.112a.961.961,0,0,1,.3,0c.115.042.017.16-.171.387a8.784,8.784,0,0,0-.8,1.143,19.519,19.519,0,0,0-1.247,2.62c-.369.916-.714,1.864-1.045,2.819-.672,1.916-1.317,3.882-1.972,5.85-.972,2.927-1.969,5.868-3.08,8.77Z" transform="translate(-175.55 -108.645)" fill="#221f1f"/>
    <path id="Path_914" data-name="Path 914" d="M327.289,129.266a41.074,41.074,0,0,0-5.721,6.9c-.62.906-1.2,1.843-1.787,2.77-2.073,3.282-3.979,6.673-5.829,10.1-.822,1.523-1.617,3.066-2.411,4.589-.512.976-1.021,1.958-1.568,2.927-.275.481-.561.962-.875,1.429a6.348,6.348,0,0,1-1.112,1.335,1.357,1.357,0,0,1-.226.146.775.775,0,0,1-.213.056c-.136,0-.185-.035-.178-.073a.532.532,0,0,1,.129-.167l.087-.129.1-.171c.265-.5.662-1.46,1.293-2.544,1.112-1.923,2.15-3.923,3.22-5.9s2.157-3.969,3.3-5.923c1.369-2.348,2.749-4.822,4.261-7.164a53.418,53.418,0,0,1,5.547-7.345,18.993,18.993,0,0,1,4.4-3.631,9.522,9.522,0,0,1,2.024-.84,19.865,19.865,0,0,1,2.091-.484,17.077,17.077,0,0,1,2.146-.24,8.527,8.527,0,0,1,2.181.136,3.154,3.154,0,0,1,.436.125,2.582,2.582,0,0,1,.481.23c.289.2.641.432.53.791a1.258,1.258,0,0,1-.861.557c-.2.056-.324.087-.46.118l-.394.059c-1.073.22-2.132.4-3.167.659-.456.112-.9.244-1.338.39a9.846,9.846,0,0,0-1.645.7,4.556,4.556,0,0,1-.732.348c-.094.028-.2.087-.275.1s-.118-.143.077-.453a3.275,3.275,0,0,1,1.233-1.017,22.8,22.8,0,0,1,5.833-1.589l.348-.077.16-.042v-.017a.025.025,0,0,0-.017,0l-.07-.024a2.618,2.618,0,0,0-.272-.077,9.193,9.193,0,0,0-2.861-.063,18.906,18.906,0,0,0-2.188.373,12.744,12.744,0,0,0-2.091.648,13.334,13.334,0,0,0-3.6,2.491Z" transform="translate(-200.27 -81.371)" fill="#221f1f"/>
    <path id="Path_915" data-name="Path 915" d="M363.571,154.144a4.285,4.285,0,0,0,1.188.146,2.789,2.789,0,0,0,1.118-.22l.087-.045a.159.159,0,0,0,.042-.042c.035-.024.017-.073,0-.1a2.133,2.133,0,0,0-.418-.415c-.206-.174-.429-.348-.655-.505a15.157,15.157,0,0,0-1.432-.9,6.187,6.187,0,0,0-.669-.324,2.434,2.434,0,0,0-.662-.188c-.293-.042-.61-.028-.958-.059a1.955,1.955,0,0,1-1.045-.348c-.192-.153,0-.3.223-.394a1.714,1.714,0,0,1,.815-.171c.275.035.62.038.993.094a3.569,3.569,0,0,1,1.094.348,11.5,11.5,0,0,1,1.763,1.08c.331.244.676.481,1.017.749.084.066.171.136.254.209l.125.111c.045.042.07.07.143.143a.905.905,0,0,1,.314.868,1.023,1.023,0,0,1-.331.4,1.36,1.36,0,0,1-.22.16l-.192.1a3.134,3.134,0,0,1-.728.213,4.791,4.791,0,0,1-1.446.024,5.327,5.327,0,0,1-1.679-.509,3.586,3.586,0,0,1-.449-.254c-.073-.049-.15-.091-.216-.143l-.171-.136a.189.189,0,0,0-.2-.038,2.14,2.14,0,0,0-.348.077c-.254.059-.512.118-.774.16a4.648,4.648,0,0,1-2.052-.045,3.55,3.55,0,0,1-.443-.157c-.526-.265-.627-.46-.575-.7a1.013,1.013,0,0,1,.042-.164c.08-.164.324-.125.631,0a4.439,4.439,0,0,0,3.091.063,3.448,3.448,0,0,1,.432-.091.881.881,0,0,1,.317,0,1.1,1.1,0,0,1,.282.132l.251.192a1.752,1.752,0,0,0,.188.122,3.081,3.081,0,0,0,.394.22,3.99,3.99,0,0,0,.854.3Z" transform="translate(-232.657 -98.109)" fill="#221f1f"/>
    <path id="Path_916" data-name="Path 916" d="M381.13,145.25a1.2,1.2,0,0,0,.118.108v.017h0c0,.021.115-.021.226-.122a3.4,3.4,0,0,0,.645-.833c.139-.24.247-.5.366-.756a10.938,10.938,0,0,0,.554-1.394,2.981,2.981,0,0,0,.084-.348.4.4,0,0,0,0-.125.317.317,0,0,0,0-.125,1.281,1.281,0,0,0-.3-.547,5.608,5.608,0,0,0-.99-.878,4.778,4.778,0,0,1-1.345-1.233c-.108-.178.1-.268.348-.286a1.14,1.14,0,0,1,.8.22c.422.366.909.721,1.373,1.164a3.622,3.622,0,0,1,.662.794,1.855,1.855,0,0,1,.226.561,1.394,1.394,0,0,1,0,.641c-.1.4-.226.749-.348,1.115a9.463,9.463,0,0,1-.439,1.045,6.642,6.642,0,0,1-.662,1.1,2.785,2.785,0,0,1-.474.505,1.066,1.066,0,0,1-.8.275.971.971,0,0,1-.488-.237,1.249,1.249,0,0,1-.31-.373,1.4,1.4,0,0,1-.118-.92,3.763,3.763,0,0,1,.467-1.129l.293-.495.143-.24.052-.091.035-.07a.35.35,0,0,0,.038-.15c0-.056-.077-.07-.115-.1l-.073-.031-.091-.045-.268-.146a3.381,3.381,0,0,1-.53-.348,1.841,1.841,0,0,1-.317-.321.956.956,0,0,1-.233-.589.317.317,0,0,1,.178-.3.58.58,0,0,1,.146-.077c.178-.035.3.132.436.321a1.986,1.986,0,0,0,.526.463c.108.073.226.143.348.213l.2.108c.129.073.261.157.39.237l.111.1.08.115a.618.618,0,0,1,.08.279,1.193,1.193,0,0,1-.157.6c-.122.244-.157.286-.22.4l-.174.293a5.03,5.03,0,0,0-.474.965,1.1,1.1,0,0,0-.063.387.348.348,0,0,0,.094.23Z" transform="translate(-247.373 -90.385)" fill="#221f1f"/>
    <path id="Path_917" data-name="Path 917" d="M388.432,151.9l.035-.028.084-.125c.052-.091.108-.185.157-.286a5.76,5.76,0,0,0,.275-.631c.063-.16.1-.331.153-.495.1-.286.192-.582.279-.878a2.791,2.791,0,0,0,.129-.826.756.756,0,0,0-.233-.557,1.481,1.481,0,0,0-.735-.167c-.091,0-.143-.22-.084-.446a.547.547,0,0,1,.582-.425,1.436,1.436,0,0,1,1.227,1.045,2.32,2.32,0,0,1-.063,1.331c-.15.456-.226.892-.369,1.338a7.372,7.372,0,0,1-.62,1.422,2.172,2.172,0,0,1-.383.481.745.745,0,0,1-.578.206.867.867,0,0,1-.652-.634,2.272,2.272,0,0,1-.059-.815,7.833,7.833,0,0,1,.129-1.111c.017-.08.031-.16.056-.24.094-.3.2-.369.429-.328a1.1,1.1,0,0,1,.153.035.348.348,0,0,1,.213.411c-.042.293-.084.582-.122.875-.017.143-.035.286-.042.422a2.33,2.33,0,0,0,0,.348v.035h0Z" transform="translate(-252.522 -95.801)" fill="#221f1f"/>
    <path id="Path_918" data-name="Path 918" d="M335.448,184.611c-.279-.049-.55-.111-.822-.174a5.12,5.12,0,0,1-.8-.251,6.049,6.049,0,0,1-.585-.192,7.877,7.877,0,0,1-1.8-1.174c-.23-.216-.5-.39-.721-.61a4.182,4.182,0,0,1-.456-.4,1.663,1.663,0,0,1-.324-.512c-.049-.122.22-.286.526-.39s.641-.157.763,0c.46.5.923.972,1.449,1.47a2.582,2.582,0,0,0,.547.348c.206.08.408.167.613.244a6.262,6.262,0,0,0,.7.237l.348.1.366.077a7.191,7.191,0,0,0,.913.132,6.59,6.59,0,0,0,1.411,0,2.486,2.486,0,0,0,.53-.122c.174-.049.348-.112.516-.174.077-.024.146-.059.223-.08.282-.084.39-.024.53.279a2.062,2.062,0,0,1,.091.2.46.46,0,0,1-.2.589,4.833,4.833,0,0,1-2.125.533,9.783,9.783,0,0,1-1.686-.073Z" transform="translate(-214.966 -117.806)" fill="#221f1f"/>
    <path id="Path_919" data-name="Path 919" d="M118.023,200.092a10.682,10.682,0,0,1-1.686.645c-.209.059-.408.15-.62.2a10.606,10.606,0,0,1-2.272.22H112.42a3.622,3.622,0,0,1-.7-.063,1.251,1.251,0,0,1-.7-.387c-.132-.157.146-.331.4-.523s.439-.425.585-.387a6.16,6.16,0,0,0,1,.136c.348.028.753.049,1.153.07a4.778,4.778,0,0,0,1.422-.265,10.091,10.091,0,0,0,1.516-.526,6.725,6.725,0,0,0,.875-.46,5.036,5.036,0,0,0,1.15-.944,3.837,3.837,0,0,0,.54-.983c.028-.077.042-.157.077-.23.118-.272.216-.328.547-.265a2.206,2.206,0,0,1,.223.042.446.446,0,0,1,.353.523c0,.007,0,.014,0,.021a3.977,3.977,0,0,1-1.286,2.136,7.4,7.4,0,0,1-1.537,1.07Z" transform="translate(-72.319 -127.903)" fill="#221f1f"/>
    <path id="Path_920" data-name="Path 920" d="M189.712,241.378l-.366-5.275c-.045-.641-.111-1.282-.15-1.923q-.2-3.4-.3-6.8c-.024-1.007-.066-2.021-.08-3.024v-1.941a6.62,6.62,0,0,1,.348-1.976c.2-.432.348-.223.432.143a5.426,5.426,0,0,1,.157,1.662c-.084,1.265-.07,2.564-.056,3.864s.045,2.613.066,3.927c.028,1.575.185,3.209.293,4.815l.376,5.307c.084,1.091.171,2.181.254,3.268.132,1.648.254,3.3.4,4.941.129,1.272.258,2.519.387,3.774.024.279.059.551.077.833.063,1.045,0,1.394-.23,1.613a.968.968,0,0,1-.157.143c-.178.087-.3-.324-.369-1.07-.237-2.223-.477-4.589-.679-6.969-.146-1.767-.293-3.54-.443-5.31Z" transform="translate(-123.028 -143.471)" fill="#221f1f"/>
    <path id="Path_921" data-name="Path 921" d="M271.536,249.7l-.582-5.495c-.07-.669-.164-1.335-.23-2-.23-2.359-.443-4.718-.62-7.084-.087-1.045-.171-2.091-.258-3.136-.045-.672-.1-1.345-.118-2.021a8.383,8.383,0,0,1,.146-2.07c.136-.467.314-.286.446.08a5.13,5.13,0,0,1,.324,1.742c.021,1.338.115,2.7.2,4.056s.178,2.725.272,4.1c.1,1.641.331,3.341.509,5.017l.6,5.53.376,3.4c.2,1.718.39,3.446.582,5.15.157,1.324.348,2.62.509,3.937.031.289.07.571.094.868.084,1.094.021,1.467-.23,1.7a.914.914,0,0,1-.164.136c-.181.056-.258-.348-.348-1.112-.286-2.335-.585-4.784-.885-7.247l-.638-5.533Z" transform="translate(-175.737 -148.307)" fill="#221f1f"/>
    <path id="Path_922" data-name="Path 922" d="M204.981,181.092a2.3,2.3,0,0,0-.314-.927c-.192-.307-.443-.652-.669-.976-.463-.659-.934-1.324-1.394-2-.328-.5-.669-.99-.969-1.512a12.365,12.365,0,0,1-.7-1.446,4.525,4.525,0,0,1-.247-.815,2.532,2.532,0,0,1-.042-.47,1.729,1.729,0,0,1,.031-.261.921.921,0,0,1,.07-.237,3.837,3.837,0,0,1,.206-.38c.066-.122.139-.226.209-.348l.422-.659.861-1.3c.512-.767,1.007-1.551,1.484-2.328.606-1,1.2-2.028,1.819-2.99.188-.3.348-.174.4.2a2.728,2.728,0,0,1-.425,1.575c-1.244,2.07-2.624,4.042-3.962,6.021-.1.146-.188.3-.265.436a.52.52,0,0,0-.091.348,2.719,2.719,0,0,0,.244.927,14.187,14.187,0,0,0,1.045,1.9c.425.7.878,1.348,1.341,2.014l.7.993.348.5c.118.167.233.348.348.54a3.31,3.31,0,0,1,.38,1.592,6.362,6.362,0,0,1-.216,1.554c-.188.756-.46,1.474-.7,2.188a8.117,8.117,0,0,0-.286,1.063,1.805,1.805,0,0,0,.031.979,1.011,1.011,0,0,0,.077.15c.031.049.084.1.122.157.084.111.181.213.272.314a6.849,6.849,0,0,0,.624.561c.436.348.913.7,1.362,1.1a4.765,4.765,0,0,1,.564.585,2.356,2.356,0,0,1,.505.99.62.62,0,0,1-.077.523.8.8,0,0,1-.115.164c-.077.059-.171,0-.268-.139-.049-.07-.1-.16-.167-.261s-.129-.22-.213-.348a10.317,10.317,0,0,0-2.206-2.031,7.8,7.8,0,0,1-.634-.6,3.99,3.99,0,0,1-.293-.348l-.143-.185a1.762,1.762,0,0,1-.15-.272,2.2,2.2,0,0,1-.153-1.077,5.427,5.427,0,0,1,.16-.9c.223-.836.519-1.589.739-2.345a5.574,5.574,0,0,0,.293-2.181Z" transform="translate(-130.736 -107.032)" fill="#221f1f"/>
    <path id="Path_923" data-name="Path 923" d="M244.687,187.682c-.164-.279-.324-.564-.477-.864a4.846,4.846,0,0,1-.216-.484,1.647,1.647,0,0,1-.129-.624,2.276,2.276,0,0,1,.3-1.143,6.377,6.377,0,0,1,.578-.85c.293-.376.568-.739.787-1.087a1.3,1.3,0,0,0,.261-.871,1.589,1.589,0,0,0-.063-.226c-.028-.087-.063-.178-.1-.272-.07-.185-.15-.369-.226-.554-.324-.739-.676-1.477-1.045-2.206-.324-.648-.679-1.282-1.045-1.9-.47-.791-.979-1.571-1.394-2.366-.132-.247.059-.348.369-.261a1.857,1.857,0,0,1,1.017.833,39.64,39.64,0,0,1,2.606,5.1c.115.268.226.537.348.808a6.39,6.39,0,0,1,.328.906,1.908,1.908,0,0,1-.15,1.087,4.846,4.846,0,0,1-.5.819,11.254,11.254,0,0,0-1.08,1.505,1.266,1.266,0,0,0-.164.739,2.594,2.594,0,0,0,.307.777c.348.676.784,1.348,1.188,2.028a17.527,17.527,0,0,1,.878,1.6,4.3,4.3,0,0,1,.324.9,1.668,1.668,0,0,1-.146,1.017,6.025,6.025,0,0,1-.777,1.22c-.289.366-.592.714-.9,1.045l-.39.446c-.491.551-.641.679-.909.7a1.878,1.878,0,0,1-.188,0c-.192,0-.153-.4.2-.875.505-.7,1.091-1.289,1.592-1.92a4.621,4.621,0,0,0,.617-.941l.049-.111.028-.1a.812.812,0,0,0,.035-.185.528.528,0,0,0-.021-.174c-.021-.07-.042-.153-.077-.24a11.222,11.222,0,0,0-.826-1.61l-.993-1.641Z" transform="translate(-157.599 -113.334)" fill="#221f1f"/>
    <path id="Path_924" data-name="Path 924" d="M415.785,111.023a32.012,32.012,0,0,0,.714-8.8,25.73,25.73,0,0,0-.408-3.2,14.925,14.925,0,0,0-1.9-5.258,6.9,6.9,0,0,0-1.864-2,5.248,5.248,0,0,0-2.533-.923,3.8,3.8,0,0,0-1.181.056,2.925,2.925,0,0,0-1.045.484,5.146,5.146,0,0,0-1.495,1.868,12.473,12.473,0,0,0-1.01,3.014,23.328,23.328,0,0,0-.456,3.174c-.042.662-.258.585-.456,0a6.327,6.327,0,0,1-.07-2.972,14.061,14.061,0,0,1,1.045-3.31,7.731,7.731,0,0,1,.951-1.526,4.72,4.72,0,0,1,1.436-1.213,3.739,3.739,0,0,1,1.878-.432,6.172,6.172,0,0,1,1.791.3,6.427,6.427,0,0,1,2.93,2.038,12.2,12.2,0,0,1,2.021,3.7,20.494,20.494,0,0,1,.976,4.091,32.018,32.018,0,0,1-.15,9.126,27.264,27.264,0,0,1-1.394,5.446,14.191,14.191,0,0,1-2.056,3.763,6.89,6.89,0,0,1-1.6,1.484,3.9,3.9,0,0,1-2.091.7,3.6,3.6,0,0,1-1.672-.432,5.348,5.348,0,0,1-1.345-1.028,8.944,8.944,0,0,1-1.78-2.787,9.481,9.481,0,0,1-.47-1.394,5.867,5.867,0,0,1-.188-1.951,1.513,1.513,0,0,1,.268-.85,1.365,1.365,0,0,1,.206-.213c.226-.1.08.571.265,1.784a9.525,9.525,0,0,0,.812,2.641,8.147,8.147,0,0,0,1.561,2.289,3.4,3.4,0,0,0,2.261,1.115,3.485,3.485,0,0,0,2.324-1.045,10.45,10.45,0,0,0,2.355-3.544,22.374,22.374,0,0,0,1.335-4.216Z" transform="translate(-263.191 -58.636)" fill="#221f1f"/>
    <path id="Path_925" data-name="Path 925" d="M414.217,123.593a11.431,11.431,0,0,0,.31-3.16,9.671,9.671,0,0,0-.143-1.146,5.426,5.426,0,0,0-.627-1.868,1.927,1.927,0,0,0-1.446-1.01.882.882,0,0,0-.7.157,1.665,1.665,0,0,0-.488.631,8.292,8.292,0,0,0-.526,2.2c-.035.233-.247.213-.453,0a1.394,1.394,0,0,1-.282-1.164,5.2,5.2,0,0,1,.415-1.31,2.438,2.438,0,0,1,1.045-1.16,1.745,1.745,0,0,1,.422-.153,2.371,2.371,0,0,1,.436-.038l.38.042c.125.028.251.066.373.1a2.617,2.617,0,0,1,1.192.882,6.381,6.381,0,0,1,1.146,3.024,12.041,12.041,0,0,1-.1,3.432,10.523,10.523,0,0,1-.554,2.045,5.439,5.439,0,0,1-.794,1.429,2.878,2.878,0,0,1-.634.578,1.64,1.64,0,0,1-.861.279,1.809,1.809,0,0,1-1.244-.571,3.488,3.488,0,0,1-.735-1.073,3.559,3.559,0,0,1-.2-.54,1.64,1.64,0,0,1-.045-.781.411.411,0,0,1,.254-.321.549.549,0,0,1,.164-.059c.091,0,.157.066.2.171.021.049.042.115.066.192s.042.167.063.265a3.378,3.378,0,0,0,.868,1.6.766.766,0,0,0,1.209,0,3.547,3.547,0,0,0,.784-1.181,7.914,7.914,0,0,0,.484-1.488Z" transform="translate(-267.034 -75.301)" fill="#221f1f"/>
    <path id="Path_926" data-name="Path 926" d="M414.889,130.856a1.171,1.171,0,0,1-.864,1.084c-1.178.279-1.418-1.864-.606-2.516.725-.582,1.456.512,1.47,1.394Z" transform="translate(-269.059 -84.222)" fill="#221f1f"/>
    <path id="Path_927" data-name="Path 927" d="M160.941,332.629H153.53v6.453c0,.15.923.15.916,0v-5.537h6.495c.118,0,.118-.92,0-.916" transform="translate(-100.035 -216.729)" fill="#232020"/>
    <path id="Path_928" data-name="Path 928" d="M196.934,333.545h6.495v5.537c0,.15.923.15.916,0v-6.453h-7.411c-.118,0-.118.92,0,.916" transform="translate(-128.257 -216.729)" fill="#232020"/>
    <path id="Path_929" data-name="Path 929" d="M159.728,387.225h-6.5v-5.537c0-.15-.923-.15-.916,0v6.453h7.411c.125,0,.125-.92.007-.916" transform="translate(-99.24 -248.622)" fill="#232020"/>
    <path id="Path_930" data-name="Path 930" d="M196.754,388.142h7.411v-6.453c0-.15-.923-.15-.916,0v5.537h-6.495c-.132,0-.132.92,0,.916" transform="translate(-128.133 -248.622)" fill="#232020"/>
    <path id="Path_931" data-name="Path 931" d="M184.92,335.251v-7.244a1.79,1.79,0,0,0-.92,0v7.244a2.155,2.155,0,0,0,.92,0" transform="translate(-119.888 -213.678)" fill="#232020"/>
    <path id="Path_932" data-name="Path 932" d="M184.92,390.863v-7.251a1.717,1.717,0,0,0-.92,0v7.24a2.155,2.155,0,0,0,.92.01" transform="translate(-119.888 -249.907)" fill="#232020"/>
    <path id="Path_933" data-name="Path 933" d="M148.362,366.125h6.9a1.777,1.777,0,0,0,0-.916h-6.9a2.255,2.255,0,0,0,0,.916" transform="translate(-96.637 -237.957)" fill="#232020"/>
    <path id="Path_934" data-name="Path 934" d="M202.772,366.125h7.244a1.705,1.705,0,0,0,0-.916h-7.244a2.255,2.255,0,0,0,0,.916" transform="translate(-132.088 -237.957)" fill="#232020"/>
    <path id="Path_935" data-name="Path 935" d="M184.1,361.723a2.605,2.605,0,1,1-4.07-2.15,2.663,2.663,0,0,1,4.07,2.15" transform="translate(-116.573 -234.008)" fill="#221f1f"/>
    <path id="Path_936" data-name="Path 936" d="M.99,222.847V220.1c0-.348-.035-.666-.038-1,0-1.174,0-2.352-.059-3.526a15.381,15.381,0,0,0-.118-1.558,13.166,13.166,0,0,1-.164-1.99c0-.418.868.024.948.794a32.279,32.279,0,0,1,.157,4.108c-.021.826.056,1.679.073,2.519.017.927.021,1.85.024,2.787v4.286c.021.662.087,1.314.132,1.969,0,.146.028.286.035.432.021.54-.035.7-.258.829a1.065,1.065,0,0,1-.15.08c-.174.052-.317-.164-.373-.561a31.007,31.007,0,0,1-.226-3.645c0-.92-.017-1.847-.024-2.787Z" transform="translate(-0.397 -138.045)" fill="#221f1f"/>
    <path id="Path_937" data-name="Path 937" d="M21.319,262.42c-1.216-.049-2.439-.1-3.645-.125H16.343c-1.561-.042-3.136-.084-4.686-.08-.7,0-1.394.031-2.091.066a25.907,25.907,0,0,1-2.652.108c-.551-.028.1-.871,1.125-.93a51.754,51.754,0,0,1,5.453-.017c1.091.056,2.227.017,3.345.035,1.226.024,2.439.063,3.679.1l2.265.077c1.143.035,2.289.087,3.425.1.882,0,1.742-.028,2.617-.049H29.4c.7,0,.944.063,1.091.289a.828.828,0,0,1,.1.153c.066.174-.23.31-.756.348-1.561.118-3.206.1-4.854.066l-3.679-.1Z" transform="translate(-4.374 -170.304)" fill="#221f1f"/>
    <path id="Path_938" data-name="Path 938" d="M17.787,209.89c-1.244-.077-2.491-.15-3.739-.206-.456-.021-.909,0-1.366-.035-1.6-.073-3.206-.143-4.808-.164-.7,0-1.425.017-2.132.042-.906.045-1.808.139-2.718.094-.568-.028.1-.868,1.16-.927a50.159,50.159,0,0,1,5.606.049c1.118.073,2.289.056,3.436.1,1.258.045,2.519.112,3.777.178l2.324.129c1.171.059,2.348.136,3.512.171.906.031,1.794,0,2.69,0h.589c.735,0,.969.077,1.118.307a.958.958,0,0,1,.1.157c.066.174-.24.307-.78.348-1.606.091-3.3.038-4.99-.031l-3.774-.181Z" transform="translate(-1.835 -135.942)" fill="#221f1f"/>
    <path id="Path_939" data-name="Path 939" d="M74.449,221.709c-.031.822-.063,1.648-.08,2.474v.9c-.028,1.063-.059,2.125-.066,3.188,0,.47,0,.944.045,1.394a10.412,10.412,0,0,1,.052,1.8c-.045.376-.868-.07-.9-.763a31.351,31.351,0,0,1,.035-3.7c.052-.742,0-1.516,0-2.275,0-.833.031-1.669.056-2.5l.052-1.544c.021-.777.066-1.557.073-2.328,0-.6-.028-1.192-.038-1.787v-.39c0-.491.077-.645.3-.735a1.414,1.414,0,0,1,.157-.063c.174-.035.307.171.348.53a30.138,30.138,0,0,1,.056,3.286c-.021.829-.045,1.662-.066,2.491Z" transform="translate(-47.863 -140.333)" fill="#221f1f"/>
    <path id="Path_940" data-name="Path 940" d="M16.709,240.474l-.439-8.585h1.355l.348,8.585Z" transform="translate(-10.601 -151.091)" fill="#221f1f"/>
    <path id="Path_941" data-name="Path 941" d="M31.114,240.261l-.094-8.582h1.359v8.582Z" transform="translate(-20.212 -150.954)" fill="#221f1f"/>
    <path id="Path_942" data-name="Path 942" d="M45.121,241.564l-.091-7.885h1.355v7.885Z" transform="translate(-29.34 -152.257)" fill="#221f1f"/>
    <path id="Path_943" data-name="Path 943" d="M23.661,245.687l-.091-5.8h1.355v5.8Z" transform="translate(-15.357 -156.303)" fill="#221f1f"/>
    <path id="Path_944" data-name="Path 944" d="M37.871,245.687l-.091-5.8h1.355v5.8Z" transform="translate(-24.616 -156.303)" fill="#221f1f"/>
    <path id="Path_945" data-name="Path 945" d="M51.814,246.339l-.094-5.45h1.359v5.45Z" transform="translate(-33.699 -156.955)" fill="#221f1f"/>
    <path id="Path_946" data-name="Path 946" d="M58.094,249.6,58,245.889h1.01V249.6Z" transform="translate(-37.791 -160.213)" fill="#221f1f"/>
    <path id="Path_947" data-name="Path 947" d="M36.38,279.6V276.35a4.063,4.063,0,0,0-.92,0V279.6a4.5,4.5,0,0,0,.92,0" transform="translate(-23.104 -180.043)" fill="#232020"/>
    <path id="Path_948" data-name="Path 948" d="M417.336,200.386v-3.251a3.667,3.667,0,0,0-.916,0v3.251a5.034,5.034,0,0,0,.916,0" transform="translate(-271.325 -128.428)" fill="#232020"/>
    <path id="Path_949" data-name="Path 949" d="M417.336,224.94v-3.265a3.667,3.667,0,0,0-.916,0v3.251a5.033,5.033,0,0,0,.916.014" transform="translate(-271.325 -144.417)" fill="#232020"/>
    <path id="Path_950" data-name="Path 950" d="M417.45,248.93v-3.254a3.692,3.692,0,0,0-.92,0v3.251a5.071,5.071,0,0,0,.92,0" transform="translate(-271.396 -160.055)" fill="#232020"/>
    <path id="Path_951" data-name="Path 951" d="M344.07,280.276v-3.251a3.694,3.694,0,0,0-.92,0v3.251a4.507,4.507,0,0,0,.92,0" transform="translate(-223.584 -180.481)" fill="#232020"/>
    <path id="Path_952" data-name="Path 952" d="M344.07,302.6v-3.251a3.7,3.7,0,0,0-.92,0V302.6a5.066,5.066,0,0,0,.92,0" transform="translate(-223.584 -195.024)" fill="#232020"/>
    <path id="Path_953" data-name="Path 953" d="M344.07,325.306v-3.251a3.694,3.694,0,0,0-.92,0v3.251a4.5,4.5,0,0,0,.92,0" transform="translate(-223.584 -209.821)" fill="#232020"/>
    <path id="Path_954" data-name="Path 954" d="M36.38,299.919v-3.244a3.694,3.694,0,0,0-.92,0v3.251a5.069,5.069,0,0,0,.92-.007" transform="translate(-23.104 -193.284)" fill="#232020"/>
    <path id="Path_955" data-name="Path 955" d="M36.38,319.912v-3.237a3.694,3.694,0,0,0-.92,0v3.251a5.073,5.073,0,0,0,.92-.014" transform="translate(-23.104 -206.316)" fill="#232020"/>
    <path id="Path_956" data-name="Path 956" d="M114.97,347.6V344.35a4.063,4.063,0,0,0-.92,0V347.6a4.511,4.511,0,0,0,.92,0" transform="translate(-74.311 -224.349)" fill="#232020"/>
    <path id="Path_957" data-name="Path 957" d="M42.208,333.819h3.251a3.869,3.869,0,0,0,0-.92H42.208a4.718,4.718,0,0,0,0,.92" transform="translate(-27.487 -216.905)" fill="#232020"/>
    <path id="Path_958" data-name="Path 958" d="M119.47,362.769h3.251a3.694,3.694,0,0,0,0-.92H119.47a5.009,5.009,0,0,0,0,.92" transform="translate(-77.829 -235.768)" fill="#232020"/>
    <path id="Path_959" data-name="Path 959" d="M62.581,333.839h3.251a3.694,3.694,0,0,0,0-.92H62.581a5.071,5.071,0,0,0,0,.92" transform="translate(-40.762 -216.918)" fill="#232020"/>
    <path id="Path_960" data-name="Path 960" d="M397.55,265.319H400.8a3.7,3.7,0,0,0,0-.92H397.55a5,5,0,0,0,0,.92" transform="translate(-259.016 -172.273)" fill="#232020"/>
    <path id="Path_961" data-name="Path 961" d="M375.081,265.345h3.251a3.666,3.666,0,0,0,0-.916h-3.251a5.089,5.089,0,0,0,0,.916" transform="translate(-244.376 -172.293)" fill="#232020"/>
    <path id="Path_962" data-name="Path 962" d="M352.771,265.315h3.251a3.666,3.666,0,0,0,0-.916h-3.251a5.028,5.028,0,0,0,0,.916" transform="translate(-229.839 -172.273)" fill="#232020"/>
    <path id="Path_963" data-name="Path 963" d="M322.388,338.239h3.251a3.871,3.871,0,0,0,0-.92h-3.251a4.722,4.722,0,0,0,0,.92" transform="translate(-210.042 -219.785)" fill="#232020"/>
    <path id="Path_964" data-name="Path 964" d="M82.114,333.855h3.251a3.667,3.667,0,0,0,0-.916H82.114a5.477,5.477,0,0,0,0,.916" transform="translate(-53.49 -216.931)" fill="#232020"/>
    <path id="Path_965" data-name="Path 965" d="M101.528,333.859h3.251a3.694,3.694,0,0,0,0-.92h-3.251a4.718,4.718,0,0,0,0,.92" transform="translate(-66.137 -216.931)" fill="#232020"/>
    <path id="Path_966" data-name="Path 966" d="M.188,226.14l.021-2.328v-.847c0-.993.021-1.986,0-2.979,0-.443-.038-.885-.08-1.321C.084,218.108,0,217.547,0,216.986c0-.348.484.045.547.7a29.671,29.671,0,0,1,.115,3.484v5.906c0,.728.035,1.456.094,2.174.042.557.125,1.1.2,1.648.017.122.035.24.056.348.059.453.042.6-.07.7a.4.4,0,0,1-.077.077c-.091.056-.188-.122-.254-.453a21.371,21.371,0,0,1-.348-3.08c-.045-.784-.056-1.571-.07-2.355Z" transform="translate(0 -141.296)" fill="#221f1f"/>
    <path id="Path_967" data-name="Path 967" d="M22.233,263.474l-3.275-.164-1.192-.038c-1.394-.059-2.8-.1-4.206-.094l-.934.017-.927.056c-.787.056-1.575.16-2.362.216-.491.035.063-.495.99-.6a34.373,34.373,0,0,1,4.906-.112c.979.042,2,.038,3,.077l3.3.15,2.028.1c1.024.045,2.056.091,3.073.108.791,0,1.564,0,2.345-.035l.512-.017c.641-.021.847,0,.99.129a.766.766,0,0,1,.094.084c.063.094-.2.178-.669.216a42.321,42.321,0,0,1-4.369.052c-1.1-.028-2.206-.08-3.307-.129Z" transform="translate(-5.965 -171.174)" fill="#221f1f"/>
    <path id="Path_968" data-name="Path 968" d="M232.02,120.461s2.714-.662,3.209.512c.383.9-.944,2.091-1.077,2.091s-1.143.38-2.132-2.6" transform="translate(-151.176 -78.367)" fill="#221f1f"/>
    <path id="Path_969" data-name="Path 969" d="M233.534,120.732a6.208,6.208,0,0,1,0,.8,1.811,1.811,0,0,1-.244.882,1.02,1.02,0,0,1-.429.348.874.874,0,0,1-.268.08.942.942,0,0,1-.258.017,1.1,1.1,0,0,1-.244-.017.839.839,0,0,1-.226-.042,2.371,2.371,0,0,1-.436-.146,2.652,2.652,0,0,1-1.251-1.321,7.344,7.344,0,0,1-.544-1.575c-.115-.613,1.045-.774,1.132-.22a6.627,6.627,0,0,0,.331,1.394,1.941,1.941,0,0,0,.7.986,1.733,1.733,0,0,0,.279.139,1.253,1.253,0,0,0,.15.049.561.561,0,0,0,.139.031.414.414,0,0,0,.4-.1,1.249,1.249,0,0,0,.23-.575,6.114,6.114,0,0,0,.084-.739c.045-.139.425-.143.453,0" transform="translate(-149.617 -77.67)" fill="#221f1f"/>
    <path id="Path_970" data-name="Path 970" d="M234.255,100.182h.213a.067.067,0,0,0,.066-.038.143.143,0,0,0,0-.049.325.325,0,0,0-.017-.115,1.035,1.035,0,0,0-.07-.157,1.707,1.707,0,0,1-.1-.171,5.085,5.085,0,0,0-1.136-1.178,3.987,3.987,0,0,0-.648-.4,4.588,4.588,0,0,1-.847-.453c-.077-.063,0-.261.174-.422a.579.579,0,0,1,.6-.174,5.7,5.7,0,0,1,1.742,1.282,6.644,6.644,0,0,1,.909,1.045.954.954,0,0,1,.1.216,1.127,1.127,0,0,1,.08.233c0,.087.031.178.038.279l-.035.307a.777.777,0,0,1-.258.4,1.045,1.045,0,0,1-.432.188,2.889,2.889,0,0,1-.965-.049c-.443-.08-.864-.213-1.282-.314a9.611,9.611,0,0,0-.976-.153.677.677,0,0,1-.206-.021c-.251-.038-.279-.091-.324-.317a.8.8,0,0,0-.042-.15c-.063-.171.122-.331.348-.348a6.878,6.878,0,0,1,1.836.289,6.494,6.494,0,0,0,1.227.226Z" transform="translate(-150.397 -63.203)" fill="#221f1f"/>
    <path id="Path_971" data-name="Path 971" d="M203.794,202.165a10.411,10.411,0,0,0,.76-3.136,2.817,2.817,0,0,0-.216-1.08,2.635,2.635,0,0,0-.23-.425l-.3-.443-.606-.892c-.415-.592-.822-1.188-1.216-1.794-.348-.537-.7-1.077-1.028-1.631a10.076,10.076,0,0,1-.571-1.111,3.238,3.238,0,0,1-.2-.613,1.651,1.651,0,0,1-.031-.7c.087-.317.2-.174.3.035a6.955,6.955,0,0,1,.446.9,14.254,14.254,0,0,0,1.129,2.132c.429.7.885,1.394,1.341,2.091.275.422.575.833.875,1.251.153.216.3.4.453.659a2.791,2.791,0,0,1,.31.781,4.378,4.378,0,0,1,0,1.781,11.879,11.879,0,0,1-.453,1.659c-.22.662-.47,1.31-.627,1.965a1.9,1.9,0,0,0,.063,1.394,5.578,5.578,0,0,0,1.045,1.108,14.207,14.207,0,0,1,1.833,1.62,3.373,3.373,0,0,1,.331.453c.348.624.314.889.213,1.045a.587.587,0,0,1-.08.112c-.049.038-.112,0-.181-.1a1.951,1.951,0,0,1-.1-.2,2.709,2.709,0,0,1-.136-.265,3.715,3.715,0,0,0-.571-.815,7.614,7.614,0,0,0-.774-.714,13.478,13.478,0,0,1-1.742-1.551c-.1-.111-.188-.237-.279-.348a1.524,1.524,0,0,1-.23-.509,2.51,2.51,0,0,1-.017-.99,11.141,11.141,0,0,1,.47-1.693Z" transform="translate(-130.4 -123.9)" fill="#221f1f"/>
    <path id="Path_972" data-name="Path 972" d="M235.56,83.806a1.222,1.222,0,0,0,.206.07l.181.021a1.157,1.157,0,0,0,.394-.045.558.558,0,0,0,.171-.066.435.435,0,0,0,.16-.118.655.655,0,0,0,.136-.589.964.964,0,0,0-.213-.4,1.153,1.153,0,0,0-.307-.268.425.425,0,0,0-.519,0c-.052.042.038.226.1.383a.944.944,0,0,1,.1.348c-.021.035.031-.049.028-.042-.021.031-.021.024,0,0a.27.27,0,0,1,.129.035c.042.017.035.035.049.038a.15.15,0,0,1,.063.028v-.021c-.024-.042,0-.031-.024-.024a.044.044,0,0,1-.042,0,.514.514,0,0,1-.15,0c-.045,0-.094,0-.1-.028a.2.2,0,0,1,0-.178.108.108,0,0,1,.084-.042h.028c0-.045-.028-.056-.024-.1a.02.02,0,0,1,0-.021.1.1,0,0,1-.024.035.284.284,0,0,1-.045.042c-.014.007,0,0,.035-.021l.108-.063.125-.056a.234.234,0,0,0,.146-.348.578.578,0,0,0-.188-.15.6.6,0,0,0-.251-.049.607.607,0,0,0-.213.038.548.548,0,0,0-.164.084.889.889,0,0,0-.348.495.864.864,0,0,0,.024.551.839.839,0,0,0,.167.261,1.1,1.1,0,0,0,.216.157Z" transform="translate(-153.22 -53.545)" fill="#221f1f"/>
    <path id="Path_973" data-name="Path 973" d="M220.808,85.3a1.339,1.339,0,0,0,.209.07l.178.021a1.078,1.078,0,0,0,.4-.042.884.884,0,0,0,.171-.066.412.412,0,0,0,.16-.122.658.658,0,0,0,.136-.585.943.943,0,0,0-.23-.4,1.116,1.116,0,0,0-.31-.268.425.425,0,0,0-.519,0c-.049.038.038.223.108.38a1.157,1.157,0,0,1,.1.348c-.021.038.031-.049.024-.038-.017.031-.017.024,0,.021a.311.311,0,0,1,.132.031c.042.017.035.038.049.038a.179.179,0,0,1,.063.028V84.7c-.024-.042,0-.035-.024-.028s-.017,0-.042,0a.673.673,0,0,1-.15,0,.351.351,0,0,1-.1-.028c-.035,0-.049-.108,0-.178a.1.1,0,0,1,.084-.042h.031a.258.258,0,0,1-.028-.1V84.3a.059.059,0,0,1-.024.035.27.27,0,0,1-.045.045c-.014.007,0,0,.035-.024a.982.982,0,0,1,.108-.059l.125-.059a.229.229,0,0,0,.143-.348.5.5,0,0,0-.185-.15.552.552,0,0,0-.251-.052.645.645,0,0,0-.216.042.6.6,0,0,0-.164.08.9.9,0,0,0-.348.5.864.864,0,0,0,.024.551.834.834,0,0,0,.164.258,1.14,1.14,0,0,0,.219.16Z" transform="translate(-143.596 -54.528)" fill="#221f1f"/>
    <path id="Path_974" data-name="Path 974" d="M233.782,79.255c.084.164.153.272.188.216s.063,0,.094,0c.2-.028.39-.084.578-.112a1.74,1.74,0,0,1,.233,0,1.435,1.435,0,0,1,.348.07,1.066,1.066,0,0,1,.174.042,1.442,1.442,0,0,1,.289.22c.042.049.1.077.15.132s.017.049.031.07,0,0,.035,0a1.2,1.2,0,0,0,.348-.23c.1-.087.16-.16.139-.185a2.75,2.75,0,0,0-.307-.348c-.049-.038-.077-.1-.136-.136a1.091,1.091,0,0,0-.268-.143,2.7,2.7,0,0,0-.425-.129,2.9,2.9,0,0,0-.484-.063h-.15a3.628,3.628,0,0,0-.446.059,2.222,2.222,0,0,0-.429.146.062.062,0,0,0-.028.021.974.974,0,0,0,.063.369" transform="translate(-152.282 -51.251)" fill="#221f1f"/>
    <path id="Path_975" data-name="Path 975" d="M218.641,80.7c.052-.146.059-.254,0-.247s-.063-.045-.1-.059a1.776,1.776,0,0,0-.721-.167,2.512,2.512,0,0,0-.324,0,1.657,1.657,0,0,0-.537.139,1.854,1.854,0,0,0-.244.167,1.288,1.288,0,0,0-.425.46,1.175,1.175,0,0,0-.087.324.787.787,0,0,1-.035.122.049.049,0,0,0,.017.052.817.817,0,0,0,.425.035c.136,0,.226,0,.226-.035a.481.481,0,0,1,.063-.233c.024-.028.059-.045.08-.073a1.284,1.284,0,0,1,.112-.139.928.928,0,0,1,.226-.167,1.18,1.18,0,0,1,.328-.08h.108a1.355,1.355,0,0,1,.348,0,1.144,1.144,0,0,1,.348.108.021.021,0,0,0,.024,0c.014,0,.031,0,.164-.206" transform="translate(-140.848 -52.271)" fill="#221f1f"/>
    <path id="Path_976" data-name="Path 976" d="M215.563,74.06c.028-.115.017-.2-.028-.22a3.3,3.3,0,0,0-.408-.174,1.588,1.588,0,0,0-.348-.1,1.133,1.133,0,0,0-.4.049h-.025c-.118-.07-.209.035-.3.059a.986.986,0,0,0-.369.164,1.339,1.339,0,0,0-.206.192.039.039,0,0,1-.06,0,.1.1,0,0,0-.129,0c-.062.052-.115.115-.177.167a3.429,3.429,0,0,0-.3.3,2.357,2.357,0,0,0-.16.216c-.08.1-.15.206-.219.314v.077a.268.268,0,0,1-.021.087.349.349,0,0,0-.035.059,1.019,1.019,0,0,0,.129.129.871.871,0,0,0,.206.118c.129.056.188.063.2.042a.25.25,0,0,1,.045-.063,1.206,1.206,0,0,1,.136-.1v-.024c.049-.066.094-.136.143-.206s.052-.108.087-.153.063-.059.091-.094.056-.084.091-.122.059-.087.115-.1.094-.07.139-.1.046,0,.059,0a.491.491,0,0,0,.077-.073.832.832,0,0,1,.153-.139.457.457,0,0,1,.174-.042c.059-.024.118-.028.174-.049s.126.021.185,0h.063a.709.709,0,0,1,.188,0,.9.9,0,0,1,.188.021.412.412,0,0,1,.129.024c.034,0,.055.056.083.077s.035,0,.053,0a1.818,1.818,0,0,0,.279-.338" transform="translate(-138.375 -47.931)" fill="#221f1f"/>
    <path id="Path_977" data-name="Path 977" d="M232.128,74.238c.038.094.087.153.139.15a2.5,2.5,0,0,0,.425-.052,2.69,2.69,0,0,0,.331-.08,1.731,1.731,0,0,0,.307-.188h.017c.125.035.16-.087.244-.118a1.4,1.4,0,0,0,.292-.181c.063-.045.118-.111.178-.16s.021-.028.053,0a.081.081,0,0,0,.111,0,.551.551,0,0,1,.157-.087,1.291,1.291,0,0,1,.272-.07c.052,0,.1-.024.153,0a1.486,1.486,0,0,1,.227.049.276.276,0,0,1,.059-.031.21.21,0,0,1,.066,0,.335.335,0,0,1,.049.024.824.824,0,0,0,.111-.125,1.006,1.006,0,0,0,.129-.226c.052-.125.042-.171.017-.192a.664.664,0,0,1-.083-.049,1.266,1.266,0,0,0-.164-.132h-.031l-.168-.049h-.178a1.143,1.143,0,0,0-.244.031,1,1,0,0,0-.182.024,1.328,1.328,0,0,0-.188.077.756.756,0,0,1-.192.073.839.839,0,0,0-.2.084h-.066a.806.806,0,0,0-.111.077,1.715,1.715,0,0,1-.189.171,1.176,1.176,0,0,1-.2.091,1.321,1.321,0,0,0-.192.122c-.059.052-.146.052-.209.091l-.062.045c-.059.042-.125.063-.189.1s-.118.049-.177.084a.287.287,0,0,1-.126.052.6.6,0,0,1-.111,0,.07.07,0,0,0-.049.021,1.22,1.22,0,0,0-.028.373" transform="translate(-151.244 -47.381)" fill="#221f1f"/>
    <path id="Path_978" data-name="Path 978" d="M245.93,74.376a29.849,29.849,0,0,0-2.72-13.057" transform="translate(-158.467 -39.953)" fill="none" stroke="#232020" stroke-width="2"/>
  </g>
</svg>
