<svg xmlns="http://www.w3.org/2000/svg" xmlns:xlink="http://www.w3.org/1999/xlink" width="183.955" height="142.167" viewBox="0 0 183.955 142.167">
  <defs>
    <clipPath id="clip-path">
      <rect id="Rectangle_348" data-name="Rectangle 348" width="46.92" height="38.574" fill="none"/>
    </clipPath>
  </defs>
  <g id="Group_292" data-name="Group 292" transform="translate(-1706.595 -4138.314)">
    <g id="_79.Login" data-name="79.Login" transform="translate(1706.595 4180.864)">
      <path id="Path_779" data-name="Path 779" d="M229.338,333c-.17,0,2.243,1.156,2.243,1.156l9.142-.119c.17,0-2.44-1.033-2.44-1.033Z" transform="translate(-136.964 -255.216)" fill="#221f1f" opacity="0.25"/>
      <g id="Group_286" data-name="Group 286" transform="translate(24.927 2.522)" opacity="0.25">
        <path id="Path_780" data-name="Path 780" d="M282.053,140.4l7.257,32.778c1.2,5.465,2.359,10.976,3.226,16.533.212,1.387.428,2.775.621,4.166l.651,4.7.143,1.041.035.258v.062h-.721l-1.927.031-2.1.031-4.2.062-33.568.385-16.788.17-8.394.062-4.2.023h-4.513l-.451-.116a1.022,1.022,0,0,1-.385-.266,2.474,2.474,0,0,1-.5-.848c-.081-.185-.1-.243-.135-.339l-.092-.262-.166-.516c-.2-.686-.385-1.357-.555-2.027-.339-1.345-.644-2.7-.94-4.023-.586-2.7-1.125-5.365-1.649-8.051q-1.542-8.066-2.921-16.152c-.913-5.4-1.777-10.791-2.528-16.221-.366-2.721-.728-5.43-.94-8.213-.027-.347-.046-.7-.062-1.056v-1.141a3.241,3.241,0,0,1,.173-.979,1.264,1.264,0,0,1,.239-.4c.023-.031.066-.05.085-.081l.112-.05.22-.092c.289-.123.605-.266.875-.385l.543-.1c1.441-.266,2.806-.385,4.185-.5,5.5-.428,10.961-.582,16.429-.736s10.934-.22,16.4-.281q16.395-.181,32.785-.108c3.056,0,3.045,2.2,0,2.177q-16.375-.05-32.759.1c-5.457.062-10.914.146-16.368.285s-10.911.308-16.306.728c-1.341.112-2.7.239-3.946.47l-.459.089h-.035v.952c0,.324.031.655.054.987.2,2.667.563,5.376.925,8.07.748,5.4,1.611,10.791,2.517,16.156s1.877,10.749,2.917,16.1c.52,2.675,1.056,5.345,1.638,8,.293,1.326.594,2.652.925,3.954.166.651.335,1.3.528,1.927l.146.459.073.22.054.139h3.877l4.193-.019,8.39-.066,16.78-.166,33.564-.385,6.478-.1-.5-3.611c-.193-1.384-.385-2.759-.617-4.135-.856-5.5-2-10.945-3.2-16.41L279.907,140.9C279.406,138.507,281.541,138.041,282.053,140.4Z" transform="translate(-206.25 -137.715)" fill="#232020"/>
      </g>
      <path id="Path_781" data-name="Path 781" d="M84.052,271.682c0,.046.073.027.154-.027a.258.258,0,0,0,.081-.108.358.358,0,0,0,0-.092s-.154-.189-.2-.25a.835.835,0,0,0-.158-.15l-.347-.285a.633.633,0,0,0-.085-.054,1.012,1.012,0,0,1-.281-.193.073.073,0,0,1-.035-.046,1.483,1.483,0,0,0-.289-.243c-.1-.042-.181-.089-.274-.135a.054.054,0,0,0-.042,0c-.046,0-.066,0-.092-.031a1.039,1.039,0,0,0-.112-.062.257.257,0,0,0-.077,0c-.027,0-.054.054-.054.062a.178.178,0,0,1-.039.054v.019a1.079,1.079,0,0,0,.143.258s.262.254.289.285a.123.123,0,0,0,.054.031s.212.208.224.216a.358.358,0,0,0,.15.092h.031a1.919,1.919,0,0,0,.247.181,1.46,1.46,0,0,1,.119.1h.058c.1.081.2.146.289.235,0,.019.15.073.17.1S84.048,271.663,84.052,271.682Z" transform="translate(76.179 -216.498)" fill="#221f1f"/>
      <path id="Path_782" data-name="Path 782" d="M83.183,271.617c-.042,0-.023.062.035.143a.327.327,0,0,0,.108.081h.085s.17-.131.227-.17a.9.9,0,0,0,.135-.135c.077-.1.162-.2.243-.3a.293.293,0,0,0,.046-.073.771.771,0,0,1,.166-.247s0-.027.039-.031a1.114,1.114,0,0,0,.216-.247c.031-.085.069-.162.108-.243v-.039a.089.089,0,0,1,.023-.085.4.4,0,0,0,.05-.1V270.1c0-.023-.054-.05-.062-.05a.208.208,0,0,1-.054-.042h-.019a.949.949,0,0,0-.235.116l-.251.247a.1.1,0,0,0-.027.05s-.185.181-.189.189a.324.324,0,0,0-.081.135c-.008.062,0,0,0,.023a1.689,1.689,0,0,0-.154.216,1.116,1.116,0,0,1-.085.1.054.054,0,0,0,0,.023.077.077,0,0,1,0,.031,3.1,3.1,0,0,1-.2.247.783.783,0,0,1-.085.15A.158.158,0,0,0,83.183,271.617Z" transform="translate(75.437 -216.502)" fill="#221f1f"/>
      <path id="Path_783" data-name="Path 783" d="M84.222,271.54c0,.042.039.062.135.069a.386.386,0,0,0,.131-.035.583.583,0,0,0,.046-.077s0-.227,0-.3a.9.9,0,0,0-.027-.2c-.031-.135-.058-.274-.089-.409a.328.328,0,0,0-.035-.085.96.96,0,0,1-.093-.3v-.054a1.232,1.232,0,0,0-.069-.347c-.05-.085-.085-.17-.127-.254a.045.045,0,0,0-.023-.039.132.132,0,0,1-.054-.073.475.475,0,0,0-.05-.112.253.253,0,0,0-.058-.046h-.077a.114.114,0,0,0-.066.019h-.023a1.187,1.187,0,0,0-.054.274s.046.339.046.385a.135.135,0,0,0,.023.054s.035.277.035.289a.2.2,0,0,0,.062.154c.062.046,0,0,0,.031a1.7,1.7,0,0,0,.077.274.241.241,0,0,0,.031.143v.054a3.258,3.258,0,0,1,.077.335c0,.027.069.143.073.173S84.23,271.525,84.222,271.54Z" transform="translate(75.362 -216.047)" fill="#221f1f"/>
      <path id="Path_784" data-name="Path 784" d="M82.116,271.584c-.035-.023-.062.027-.081.123a.278.278,0,0,0,0,.131.255.255,0,0,0,.062.066s.208.039.274.054a.77.77,0,0,0,.189,0h.385a.326.326,0,0,0,.085,0,.844.844,0,0,1,.293-.042.066.066,0,0,1,.05,0,1.156,1.156,0,0,0,.328,0c.081-.035.166-.054.251-.081h.035a.089.089,0,0,1,.077-.039.6.6,0,0,0,.112-.031.273.273,0,0,0,.05-.046.1.1,0,0,0,0-.081v-.092a1.069,1.069,0,0,0-.243-.1l-.351-.019a.153.153,0,0,0-.058,0h-.266a.3.3,0,0,0-.15.031.046.046,0,0,1-.031,0,1.514,1.514,0,0,0-.262.027h-.189a2.22,2.22,0,0,1-.32,0c-.023,0-.139.046-.166.042S82.131,271.6,82.116,271.584Z" transform="translate(76.304 -217.371)" fill="#221f1f"/>
      <path id="Path_785" data-name="Path 785" d="M96.012,211.242c0,.042.073.027.154-.027a.281.281,0,0,0,.081-.108.338.338,0,0,0,0-.093,2.654,2.654,0,0,0-.2-.251,1,1,0,0,0-.158-.154l-.347-.281a.385.385,0,0,0-.085-.054,1.014,1.014,0,0,1-.281-.193.1.1,0,0,1-.035-.046,1.36,1.36,0,0,0-.289-.243l-.274-.135s0-.019-.042,0-.066,0-.092-.031a.633.633,0,0,0-.112-.062.255.255,0,0,0-.077,0c-.027,0-.054.054-.05.062s-.027.039-.042.054v.019a1.157,1.157,0,0,0,.143.258s.262.25.289.285a.139.139,0,0,0,.058.031l.22.216a.355.355,0,0,0,.15.092.035.035,0,0,1,.031.019,1.811,1.811,0,0,0,.247.177,1.5,1.5,0,0,1,.119.1h.062a3.3,3.3,0,0,1,.285.235,1.048,1.048,0,0,1,.173.1C95.962,211.238,96.008,211.223,96.012,211.242Z" transform="translate(59.61 -179.351)" fill="#221f1f"/>
      <path id="Path_786" data-name="Path 786" d="M95.175,211.167c-.042,0-.023.066.035.146a.158.158,0,0,0,.2.073s.17-.127.224-.166a.772.772,0,0,0,.135-.139l.247-.3a.5.5,0,0,0,.042-.077.874.874,0,0,1,.166-.243s0-.027.042-.031a1.233,1.233,0,0,0,.212-.251c.031-.081.073-.162.108-.243v-.035a.085.085,0,0,1,.023-.085.406.406,0,0,0,.05-.1.208.208,0,0,0,0-.069.093.093,0,0,0-.062-.05c-.023,0-.039-.027-.054-.042h0a1.083,1.083,0,0,0-.235.112s-.224.227-.251.251a.1.1,0,0,0-.027.05s-.185.177-.189.185a.325.325,0,0,0-.081.135.039.039,0,0,1,0,.027,2.18,2.18,0,0,0-.154.216,1.113,1.113,0,0,1-.085.1v.05a3.168,3.168,0,0,1-.2.25c-.019,0-.062.131-.081.15S95.2,211.163,95.175,211.167Z" transform="translate(58.82 -179.349)" fill="#221f1f"/>
      <path id="Path_787" data-name="Path 787" d="M96.156,211.083c0,.042.039.062.135.066a.312.312,0,0,0,.131-.031.645.645,0,0,0,.05-.077v-.3a.705.705,0,0,0-.027-.2c-.031-.135-.058-.274-.089-.409a.42.42,0,0,0-.023-.092.929.929,0,0,1-.092-.3.066.066,0,0,1,0-.054,1.206,1.206,0,0,0-.069-.343c-.05-.085-.085-.173-.127-.258a.038.038,0,0,0-.023-.035c-.023-.008-.042-.046-.054-.073a.416.416,0,0,0-.05-.112.7.7,0,0,0-.058-.046c-.023-.015-.069,0-.077,0h-.089a1.157,1.157,0,0,0-.054.274s.046.339.046.385a.178.178,0,0,0,.027.054s.031.277.035.285,0,.112.058.158,0,.019,0,.031a2.418,2.418,0,0,0,.077.274.852.852,0,0,1,.031.143v.023a.229.229,0,0,1,0,.031,3.24,3.24,0,0,1,.073.335c0,.027.069.139.073.17S96.164,211.064,96.156,211.083Z" transform="translate(58.818 -178.884)" fill="#221f1f"/>
      <path id="Path_788" data-name="Path 788" d="M94.093,211.178c-.039-.023-.066.027-.085.123a.281.281,0,0,0,0,.131l.062.062s.208.042.274.058a.811.811,0,0,0,.193,0h.385a.334.334,0,0,0,.085,0,.841.841,0,0,1,.293-.039.077.077,0,0,1,.05,0,1.04,1.04,0,0,0,.328,0c.081-.035.166-.054.25-.081h.039c.012,0,.05-.039.077-.042a.384.384,0,0,0,.108-.027.2.2,0,0,0,.05-.05v-.17a.917.917,0,0,0-.243-.1h-.351a.085.085,0,0,0-.054,0h-.27a.338.338,0,0,0-.15.031c-.05.031,0,0-.031,0a2.027,2.027,0,0,0-.262.031h-.189a2.975,2.975,0,0,1-.32,0c-.023,0-.139.046-.166.042S94.1,211.189,94.093,211.178Z" transform="translate(59.721 -180.258)" fill="#221f1f"/>
      <path id="Path_789" data-name="Path 789" d="M187.4,173.762c0,.046.073.027.154-.027a.258.258,0,0,0,.081-.108.668.668,0,0,0,0-.092s-.154-.189-.2-.251a1.022,1.022,0,0,0-.162-.154l-.343-.281a.631.631,0,0,0-.085-.054,1.014,1.014,0,0,1-.281-.193.093.093,0,0,1-.039-.046,1.357,1.357,0,0,0-.285-.243c-.1-.042-.185-.089-.274-.135a.032.032,0,0,0-.042,0c-.019.019-.066,0-.092-.031a.816.816,0,0,0-.116-.062.247.247,0,0,0-.077,0c-.023,0-.05.054-.05.062a.147.147,0,0,1-.042.054h0a1.333,1.333,0,0,0,.143.258s.266.254.293.285a.123.123,0,0,0,.054.031l.22.216a.33.33,0,0,0,.154.092h.031a1.927,1.927,0,0,0,.247.181,1.448,1.448,0,0,1,.119.1h.027a.078.078,0,0,1,.031,0,3.292,3.292,0,0,1,.285.235c0,.019.154.073.173.1S187.392,173.742,187.4,173.762Z" transform="translate(-66.995 -156.315)" fill="#221f1f"/>
      <path id="Path_790" data-name="Path 790" d="M186.542,173.7c-.042,0-.023.062.035.143a.32.32,0,0,0,.1.081h.089s.17-.131.224-.17a.639.639,0,0,0,.135-.135l.247-.3a.293.293,0,0,0,.046-.073.77.77,0,0,1,.166-.247s0-.027.039-.031a1.01,1.01,0,0,0,.212-.247c.035-.085.073-.162.112-.243v-.039a.124.124,0,0,1,.023-.085.608.608,0,0,0,.05-.1.147.147,0,0,0,0-.069c0-.023-.05-.05-.058-.05a.209.209,0,0,1-.054-.042h0a.971.971,0,0,0-.239.116s-.22.224-.247.247a.1.1,0,0,0-.027.05l-.193.189a.263.263,0,0,0-.077.131c0,.058,0,.019,0,.027a1.691,1.691,0,0,0-.154.216c-.027.039-.058.069-.085.1v.054a3.006,3.006,0,0,1-.2.247.738.738,0,0,1-.081.15C186.581,173.635,186.558,173.693,186.542,173.7Z" transform="translate(-67.76 -156.32)" fill="#221f1f"/>
      <path id="Path_791" data-name="Path 791" d="M187.562,173.62c0,.042.035.062.135.069a.336.336,0,0,0,.127-.035.642.642,0,0,0,.05-.077v-.3a.9.9,0,0,0-.027-.2c-.031-.135-.058-.274-.089-.408a.327.327,0,0,0-.035-.085,1.118,1.118,0,0,1-.1-.3v-.054a1.109,1.109,0,0,0-.069-.347c-.046-.085-.085-.17-.127-.254,0,0,0-.031-.019-.039a.136.136,0,0,1-.054-.073.855.855,0,0,0-.05-.112.251.251,0,0,0-.058-.046h-.077a.114.114,0,0,0-.066.019h-.023a1.013,1.013,0,0,0-.054.274s.046.339.046.385a.135.135,0,0,0,.023.054s.031.277.035.285a.308.308,0,0,0,.062.158v.031a1.379,1.379,0,0,0,.077.274.63.63,0,0,0,.031.143v.054a3.242,3.242,0,0,1,.077.335c0,.027.069.139.069.173S187.566,173.6,187.562,173.62Z" transform="translate(-67.805 -155.865)" fill="#221f1f"/>
      <path id="Path_792" data-name="Path 792" d="M185.429,173.643c-.035-.023-.062.027-.081.123a.158.158,0,0,0,.073.2s.2.039.274.054a.77.77,0,0,0,.189,0h.385a.242.242,0,0,0,.085-.019.941.941,0,0,1,.293-.039h.046a1.156,1.156,0,0,0,.328,0c.085-.035.17-.054.254-.081h.035c.008,0,.05-.035.077-.039a.5.5,0,0,0,.108-.031c.019,0,.035-.031.054-.05s0-.069,0-.077v-.069a.05.05,0,0,0,0-.023,1,1,0,0,0-.243-.1l-.351-.019h-.32a.329.329,0,0,0-.15.031.05.05,0,0,1-.031,0,1.471,1.471,0,0,0-.262.027H186a2.225,2.225,0,0,1-.32,0c-.023,0-.139.046-.166.042S185.445,173.674,185.429,173.643Z" transform="translate(-66.837 -157.168)" fill="#221f1f"/>
      <g id="Group_287" data-name="Group 287" transform="translate(136.339 41.572)" opacity="0.6">
        <path id="Path_793" data-name="Path 793" d="M142.445,240.56c0,.031.042.019.1,0a.169.169,0,0,0,.046-.066.3.3,0,0,0,0-.058s-.1-.119-.131-.158a.6.6,0,0,0-.1-.1l-.224-.185-.054-.035a.77.77,0,0,1-.181-.123.065.065,0,0,1-.023-.031,1.051,1.051,0,0,0-.185-.158l-.177-.089h-.023a.075.075,0,0,1-.062-.019.456.456,0,0,0-.073-.042H141.3a.281.281,0,0,0-.031.035.037.037,0,0,1-.027.035h0a.815.815,0,0,0,.1.162l.189.181a.041.041,0,0,1,.035.023l.143.135c.031.023.054.054.1.062a1.1,1.1,0,0,0,.158.116l.081.066h.019a1.747,1.747,0,0,1,.185.15.884.884,0,0,1,.112.062C142.376,240.541,142.441,240.548,142.445,240.56Z" transform="translate(-141.215 -239.323)" fill="#221f1f"/>
        <path id="Path_794" data-name="Path 794" d="M141.946,240.537c-.023,0,0,.039.019.089s.054.05.066.046h.046s.108-.085.143-.108a.921.921,0,0,0,.085-.089l.158-.193a.22.22,0,0,0,.031-.05.524.524,0,0,1,.108-.158.038.038,0,0,1,.023,0,.682.682,0,0,0,.139-.158,1.445,1.445,0,0,1,.073-.158.023.023,0,0,0,0-.023.042.042,0,0,1,0-.05l.035-.066a.155.155,0,0,0,0-.042s-.031-.035-.039-.031-.023,0-.031-.027h0a.8.8,0,0,0-.15.077s-.139.146-.158.158a.286.286,0,0,0,0,.035l-.119.119a.185.185,0,0,0-.05.089h0a1.161,1.161,0,0,0-.1.139c0,.023-.039.042-.054.066h0v.019a.638.638,0,0,1-.131.158c-.05.046-.039.085-.054.1S141.957,240.534,141.946,240.537Z" transform="translate(-141.764 -239.335)" fill="#221f1f"/>
        <path id="Path_795" data-name="Path 795" d="M142.492,240.481c0,.027.023.039.081.042a.142.142,0,0,0,.077,0,.221.221,0,0,0,.031-.05v-.193a.77.77,0,0,0,0-.131c-.023-.085-.039-.173-.058-.262a.228.228,0,0,0-.023-.054.637.637,0,0,1-.058-.2.054.054,0,0,1,0-.035.74.74,0,0,0-.042-.224c-.031-.054-.054-.112-.081-.166s0-.019,0-.023a.484.484,0,0,1-.035-.05.543.543,0,0,0-.031-.069.131.131,0,0,0-.035-.031h-.085a.77.77,0,0,0-.031.173s.031.22.035.243a.126.126,0,0,1,0,.039c0,.015.023.177.027.181a.185.185,0,0,0,.035.1.027.027,0,0,1,0,.023,1.469,1.469,0,0,0,.05.173.386.386,0,0,1,.019.092h0v.019a2.151,2.151,0,0,1,.046.216.657.657,0,0,1,.046.112C142.461,240.431,142.5,240.47,142.492,240.481Z" transform="translate(-141.678 -239.04)" fill="#221f1f"/>
        <path id="Path_796" data-name="Path 796" d="M141.176,240.577c-.023,0-.042,0-.054.073a.177.177,0,0,0,0,.081l.039.035a1.61,1.61,0,0,0,.177.035.444.444,0,0,0,.123,0h.3a.52.52,0,0,1,.189-.027.05.05,0,0,1,.031,0,.794.794,0,0,0,.212,0l.162-.046h.023a.049.049,0,0,0,.05-.023.235.235,0,0,0,.069,0,.108.108,0,0,0,.035-.027.069.069,0,0,0,0-.05v-.039h0a.558.558,0,0,0-.154-.058h-.436a.212.212,0,0,0-.1,0h-.019a1.268,1.268,0,0,0-.17,0h-.123a1.781,1.781,0,0,1-.2,0,.884.884,0,0,1-.108.027S141.184,240.585,141.176,240.577Z" transform="translate(-141.118 -239.953)" fill="#221f1f"/>
      </g>
      <g id="Group_288" data-name="Group 288" transform="translate(131.507 94.437)" opacity="0.6">
        <path id="Path_797" data-name="Path 797" d="M154.989,377.774c0,.031.046,0,.1,0s.05-.054.046-.066a.3.3,0,0,0,0-.058s-.1-.119-.131-.158a.49.49,0,0,0-.1-.1l-.231-.189-.054-.035a.94.94,0,0,1-.181-.123.066.066,0,0,1-.023-.031.807.807,0,0,0-.185-.154c-.062-.027-.116-.062-.173-.092s0,0-.027,0-.042,0-.058-.019a.457.457,0,0,0-.073-.042h-.05a.279.279,0,0,0-.031.035.038.038,0,0,1-.023.035h0a1.049,1.049,0,0,0,.1.162l.189.181a.041.041,0,0,1,.035.023,1.472,1.472,0,0,0,.143.135.243.243,0,0,0,.1.062h0a.924.924,0,0,0,.158.116l.077.066h.023a2.2,2.2,0,0,1,.181.15.885.885,0,0,1,.112.062C154.915,377.751,154.985,377.762,154.989,377.774Z" transform="translate(-153.758 -376.517)" fill="#221f1f"/>
        <path id="Path_798" data-name="Path 798" d="M154.468,377.733c-.027,0,0,.039.019.089a.177.177,0,0,0,.062.05h.054s.108-.085.143-.108a.459.459,0,0,0,.085-.089l.162-.193a.209.209,0,0,0,.027-.05.716.716,0,0,1,.108-.158.05.05,0,0,1,.027-.019.77.77,0,0,0,.135-.158c.023-.054.05-.1.073-.154s0,0,0-.027v-.05a.27.27,0,0,0,.035-.066.154.154,0,0,0,0-.042.281.281,0,0,0-.035-.031.037.037,0,0,1-.035-.027h0a.67.67,0,0,0-.146.077s-.143.146-.162.158a.1.1,0,0,0,0,.035l-.123.119a.185.185,0,0,0-.05.089h0s-.066.092-.1.139a.806.806,0,0,1-.054.066h0v.019a1.677,1.677,0,0,1-.131.158s-.039.085-.05.1S154.479,377.729,154.468,377.733Z" transform="translate(-154.282 -376.511)" fill="#221f1f"/>
        <path id="Path_799" data-name="Path 799" d="M155.054,377.671c0,.027.023.039.081.042a.166.166,0,0,0,.081-.019.207.207,0,0,0,.027-.05s0-.143,0-.193a.539.539,0,0,0-.019-.131l-.058-.262a.226.226,0,0,0-.019-.054.643.643,0,0,1-.062-.2.039.039,0,0,1,0-.035.887.887,0,0,0-.046-.224,1.6,1.6,0,0,1-.077-.166v-.023a.488.488,0,0,1-.035-.05.274.274,0,0,0-.031-.069.07.07,0,0,0-.035-.031h-.085a.774.774,0,0,0-.027.173s.031.22.031.243a.069.069,0,0,0,0,.039s.019.177.023.181,0,.073.039.1,0,0,0,.023a1.442,1.442,0,0,0,.046.173.815.815,0,0,1,.023.092h0a2.175,2.175,0,0,1,.05.216c0,.019.042.092.046.112S155.058,377.671,155.054,377.671Z" transform="translate(-154.24 -376.21)" fill="#221f1f"/>
        <path id="Path_800" data-name="Path 800" d="M153.713,377.774c-.023,0-.039,0-.054.073a.177.177,0,0,0,0,.081l.039.035.177.035a.447.447,0,0,0,.123,0h.3a.536.536,0,0,1,.189-.027.043.043,0,0,1,.031,0,.77.77,0,0,0,.212,0l.162-.046h.023s.035-.019.05-.023a.236.236,0,0,0,.069-.019.108.108,0,0,0,.035-.027.046.046,0,0,0,0-.046v-.042h0a.639.639,0,0,0-.158-.058h-.432a.185.185,0,0,0-.1.019h-.019a1.341,1.341,0,0,0-.17.019h-.1a1.854,1.854,0,0,1-.2,0c-.019,0-.092.031-.108.027S153.724,377.782,153.713,377.774Z" transform="translate(-153.654 -377.131)" fill="#221f1f"/>
      </g>
      <path id="Path_801" data-name="Path 801" d="M160.531,228.676c0,.027.046,0,.1,0a.17.17,0,0,0,.046-.066.262.262,0,0,0,0-.058s-.1-.119-.131-.158a.851.851,0,0,0-.1-.1c-.077-.058-.15-.119-.224-.181a.259.259,0,0,0-.054-.035.666.666,0,0,1-.181-.127s-.019,0-.023-.027a1.053,1.053,0,0,0-.185-.158c-.062-.027-.116-.058-.173-.089s0,0-.027,0a.071.071,0,0,1-.062-.019l-.073-.039h-.046c-.015,0-.031.031-.031.035a.038.038,0,0,1-.023.035h0a.937.937,0,0,0,.1.162l.189.181h.035l.143.139c.031.023.054.054.1.062.05.042.1.077.158.116s.054.042.081.062h0c.062.054.131.092.185.15s.1.05.112.066S160.527,228.664,160.531,228.676Z" transform="translate(-29.933 -190.449)" fill="#221f1f"/>
      <path id="Path_802" data-name="Path 802" d="M160.058,228.613c-.027,0,0,.042,0,.092a.228.228,0,0,0,.066.046h.054l.143-.112a.308.308,0,0,0,.085-.089c.054-.066.108-.127.158-.193a.193.193,0,0,0,.031-.046.574.574,0,0,1,.108-.158l.023-.019a.628.628,0,0,0,.139-.162,1.131,1.131,0,0,1,.073-.154V227.8a.054.054,0,0,1,0-.054l.035-.062a.186.186,0,0,0,0-.046s-.031-.031-.039-.031,0,0-.031-.023h0a.8.8,0,0,0-.15.077s-.139.146-.158.162a.216.216,0,0,0,0,.031l-.119.123a.177.177,0,0,0-.05.085v.019a.871.871,0,0,0-.1.135.479.479,0,0,1-.054.069h0c-.046.05-.081.112-.131.158s-.039.085-.054.1S160.066,228.613,160.058,228.613Z" transform="translate(-30.505 -190.425)" fill="#221f1f"/>
      <path id="Path_803" data-name="Path 803" d="M160.585,228.557c0,.027.023.042.081.046a.185.185,0,0,0,.077-.019l.031-.05v-.193a.715.715,0,0,0,0-.131c-.023-.089-.039-.177-.058-.262a.364.364,0,0,0-.023-.058.682.682,0,0,1-.058-.2.039.039,0,0,1,0-.035.964.964,0,0,0-.046-.224c-.031-.054-.054-.108-.081-.162s0-.019,0-.023a.488.488,0,0,1-.035-.05.3.3,0,0,0-.031-.073.119.119,0,0,0-.035-.027h-.085a.737.737,0,0,0-.031.173l.035.243a.07.07,0,0,0,0,.035s0,.177.023.185a.2.2,0,0,0,.035.1.023.023,0,0,1,0,.019,1.334,1.334,0,0,0,.05.177.813.813,0,0,1,.023.092h0a1.435,1.435,0,0,1,.046.216.968.968,0,0,1,.046.112A.658.658,0,0,1,160.585,228.557Z" transform="translate(-30.403 -190.13)" fill="#221f1f"/>
      <path id="Path_804" data-name="Path 804" d="M159.265,228.646c-.023,0-.039,0-.054.073a.165.165,0,0,0,0,.077.181.181,0,0,0,.039.039,1.789,1.789,0,0,0,.177.031.443.443,0,0,0,.123,0h.3a.62.62,0,0,1,.189-.023.046.046,0,0,1,.031,0,.654.654,0,0,0,.212,0l.162-.05a.027.027,0,0,0,.023,0,.05.05,0,0,1,.05-.023l.069-.019s.023,0,.035-.031a.053.053,0,0,0,0-.046v-.042h0a.559.559,0,0,0-.154-.062h-.435a.173.173,0,0,0-.1.019h-.019a1.268,1.268,0,0,0-.17.019h-.119a1.879,1.879,0,0,1-.208,0,.893.893,0,0,1-.108.023S159.273,228.65,159.265,228.646Z" transform="translate(-29.839 -191.032)" fill="#221f1f"/>
      <path id="Path_805" data-name="Path 805" d="M120.617,366.31c0,.027.046,0,.1,0a.185.185,0,0,0,.05-.065.255.255,0,0,0,0-.058s-.1-.119-.131-.158a.639.639,0,0,0-.1-.1l-.22-.181-.058-.035a.811.811,0,0,1-.177-.123l-.023-.031a.954.954,0,0,0-.189-.158l-.173-.089h-.027a.073.073,0,0,1-.058-.023l-.073-.039h-.05c-.019,0-.031.031-.027.035s0,.023-.027.035h0a1.011,1.011,0,0,0,.092.162s.173.162.189.181a.077.077,0,0,0,.035.019l.146.139c.031.023.054.054.1.062h0a.925.925,0,0,0,.158.116l.077.066h.019c.058.05.127.092.185.146s.1.05.108.066S120.613,366.287,120.617,366.31Z" transform="translate(25.358 -275.037)" fill="#221f1f"/>
      <path id="Path_806" data-name="Path 806" d="M120.164,366.227c-.027,0,0,.039,0,.089a.2.2,0,0,0,.062.046h.058l.139-.108a.643.643,0,0,0,.089-.089c.05-.066.1-.131.158-.193a.209.209,0,0,0,.027-.05.574.574,0,0,1,.108-.158.069.069,0,0,1,.027-.019.7.7,0,0,0,.135-.162c.023-.05.05-.1.073-.154s0,0,0-.023v-.05a.269.269,0,0,0,.035-.066.092.092,0,0,0,0-.046s-.031-.031-.035-.027-.023,0-.035-.027h0a.446.446,0,0,0-.146.077l-.158.158a.062.062,0,0,0,0,.035l-.119.119c0,.027-.05.05-.054.085a.031.031,0,0,1,0,.019.906.906,0,0,0-.1.139l-.058.065h0v.019a1.631,1.631,0,0,1-.127.158.906.906,0,0,1-.054.1C120.176,366.173,120.176,366.223,120.164,366.227Z" transform="translate(24.766 -275.001)" fill="#221f1f"/>
      <path id="Path_807" data-name="Path 807" d="M120.678,366.163c0,.027.023.039.085.042a.15.15,0,0,0,.077-.019.162.162,0,0,0,.027-.05v-.193a.512.512,0,0,0,0-.131l-.058-.262a.336.336,0,0,0-.019-.058.594.594,0,0,1-.062-.193.128.128,0,0,1,0-.039.748.748,0,0,0-.046-.22c-.027-.054-.05-.112-.077-.166s0-.019,0-.023-.027-.031-.031-.05a.545.545,0,0,0-.031-.069.129.129,0,0,0-.035-.031.058.058,0,0,0-.046,0h-.042a.6.6,0,0,0-.031.173s.031.22.031.243v.035c0,.012.023.177.023.185a.132.132,0,0,0,.039.1v.019a.934.934,0,0,0,.05.177v.093h0a2.16,2.16,0,0,0,.046.216c.008.073.046.092.046.112S120.682,366.151,120.678,366.163Z" transform="translate(24.881 -274.698)" fill="#221f1f"/>
      <path id="Path_808" data-name="Path 808" d="M119.334,366.281c-.027,0-.042,0-.054.073a.139.139,0,0,0,0,.081.335.335,0,0,0,.042.035,1.517,1.517,0,0,0,.173.035.449.449,0,0,0,.123,0h.251a.125.125,0,0,0,.054,0,.637.637,0,0,1,.189-.023.058.058,0,0,1,.035,0,.769.769,0,0,0,.208,0c.054-.019.108-.031.166-.046s0,0,.023,0,.031-.019.046-.023a.228.228,0,0,0,.073-.019l.031-.027c.031-.027,0-.046,0-.05v-.039h0a.641.641,0,0,0-.158-.058h-.432a.216.216,0,0,0-.1.019h0a1.2,1.2,0,0,0-.17.019h-.123a1.817,1.817,0,0,1-.2,0,.876.876,0,0,1-.108.027A.355.355,0,0,1,119.334,366.281Z" transform="translate(25.473 -275.633)" fill="#221f1f"/>
      <path id="Path_809" data-name="Path 809" d="M210.883,173.676l-1.877-9.215c-.224-1.125-.443-2.247-.667-3.364l-2.528-11.82c-.385-1.75-.725-3.511-1.06-5.253-.439-2.235-.829-4.494-1.4-6.7-.358-1.372-.96.593-.435,3.164.925,4.559,1.9,9.1,2.956,13.674.636,2.732,1.156,5.607,1.738,8.417q.937,4.625,1.881,9.28c.385,1.9.771,3.808,1.121,5.715.555,2.887,1.11,5.781,1.6,8.668.185,1.118.355,2.228.52,3.334s.3,2.216.455,3.326c.066.489.131.967.193,1.461.247,1.827.385,2.4.728,2.752a1.927,1.927,0,0,0,.224.235c.235.146.3-.624.17-1.973-.385-4.008-1.083-8.19-1.831-12.375-.551-3.106-1.156-6.22-1.754-9.327Z" transform="translate(-100.534 -134.675)" fill="#221f1f"/>
      <path id="Path_810" data-name="Path 810" d="M217.647,190.841c-1.2-5.4-2.208-10.833-3.183-16.279s-1.873-10.914-2.717-16.383c-.617-3.993-1.156-7.993-1.692-11.99-.227-1.765-.447-3.53-.632-5.291-.089-.883-.173-1.765-.243-2.648a25.018,25.018,0,0,1-.1-2.613v-.5a.147.147,0,0,1,.042-.089.535.535,0,0,1,.112-.039,8.484,8.484,0,0,1,1.214-.293c.856-.15,1.73-.274,2.609-.366,1.757-.2,3.53-.347,5.3-.474,7.091-.493,14.209-.771,21.324-.994,6.313-.2,12.668-.324,18.938-.42,8.055-.116,16.144-.143,24.191-.316,5.01-.1-1.353-1.068-10.641-.967q-12.333.135-24.7.447c-8.244.224-16.5.5-24.792,1-2.478.158-4.983.324-7.5.543-1.26.119-2.524.239-3.8.42l-.956.143-.963.2a4.579,4.579,0,0,0-.5.15l-.339.112a.686.686,0,0,0-.3.224,1.068,1.068,0,0,0-.154.351,1.609,1.609,0,0,0-.042.2,1.059,1.059,0,0,1-.023.166,4.767,4.767,0,0,0-.035.513,36.743,36.743,0,0,0,.189,3.877c.112,1.276.247,2.547.385,3.815.289,2.54.624,5.072.975,7.585q1.156,8.294,2.563,16.572c.921,5.507,1.892,11.007,2.956,16.491.432,2.208.879,4.417,1.368,6.613.243,1.1.5,2.2.771,3.3.143.547.293,1.091.462,1.638.089.274.181.547.293.825s.331.829.771.771h3.65l3.561-.023,31.175-.366,23.829-.185,5.218-.042c6.529-.077,8.606-.181,10.02-.478.32-.069.74-.139.925-.2.62-.22-2.043-.351-6.825-.339-14.182.023-29.14.193-44.155.366l-13.639.154-6.829.066-3.411.023h-3.249l-.035-.077c-.089-.2-.17-.435-.247-.671-.154-.474-.289-.967-.42-1.465-.262-.99-.5-2-.725-3.006Z" transform="translate(-185.309 -131.171)" fill="#221f1f"/>
      <path id="Path_811" data-name="Path 811" d="M253.893,199.161l-19.744.355-9.874.173h-.385c-.023,0-.031-.023-.042-.042v-.027l-.046-.1a10.79,10.79,0,0,1-.385-1.114c-.231-.771-.435-1.565-.632-2.359-.385-1.592-.748-3.195-1.091-4.8-1-4.694-1.873-9.415-2.736-14.132q-1.518-8.321-2.84-16.676c-.435-2.786-.852-5.577-1.218-8.367-.185-1.4-.355-2.794-.493-4.189-.069-.7-.131-1.4-.166-2.093-.019-.347-.031-.694-.023-1.029V144.3c0-.023.019-.158.1-.166l.385-.119.5-.1c.335-.073.678-.127,1.025-.173.686-.108,1.384-.177,2.081-.254,1.4-.143,2.8-.254,4.2-.351,2.806-.2,5.623-.335,8.436-.462,7.5-.328,15.03-.509,22.5-.644l28.754-.385c5.962-.1-1.607-.967-12.645-.836-9.249.112-18.48.277-27.748.555-4.625.139-9.249.312-13.9.551-2.312.123-4.625.258-6.964.447-.578.042-1.156.1-1.742.15s-1.156.112-1.746.185-1.156.146-1.75.235c-.293.035-.593.112-.886.17a3.63,3.63,0,0,0-.455.1l-.57.189a.74.74,0,0,0-.4.52,2.822,2.822,0,0,0-.066.343v1.083c.019.555.058,1.106.1,1.653.27,2.956.686,5.908,1.106,8.864s.894,5.954,1.376,8.941c.967,5.974,2.008,11.974,3.137,17.9.62,3.26,1.268,6.513,1.973,9.758.355,1.626.721,3.245,1.156,4.86a23.532,23.532,0,0,0,.74,2.424l.066.154c.023.05.039.1.085.185a1.183,1.183,0,0,0,.289.385.354.354,0,0,0,.212.092.967.967,0,0,0,.239.023h.385l1.241-.019,19.9-.347,24.488-.42,18.557-.312,4.625-.077,2.517-.042h.362v-.046l-.058-.409-.108-.744-.17-1.156c-.443-3.056-.967-6.089-1.5-9.115-1.677-9.4-3.469-18.576-5.33-27.818-.412-2.035-.821-4.027-1.241-6.078-1.592-7.6-2.185-10-2.779-11.562-.139-.358-.3-.836-.385-1.041-.347-.686.185,2.436,1.314,8,1.68,8.259,3.4,16.742,5.064,25.359q1.253,6.463,2.428,13.015c.385,2.185.771,4.374,1.11,6.552.185,1.095.347,2.2.5,3.3l.119.825H293.8l-39.846.647Z" transform="translate(-185.952 -137.086)" fill="#221f1f"/>
      <path id="Path_812" data-name="Path 812" d="M415.542,201.872a5.774,5.774,0,0,0,3.707-.158,11.293,11.293,0,0,1-2.436-.385c-1.707-.64-11.6-60.179-10.1-61.663.32-.324.073-.123.971-.385a2.74,2.74,0,0,0-2.131.713C403.911,141.18,414.486,201.417,415.542,201.872Z" transform="translate(-383.332 -136.155)" fill="#221f1f"/>
      <path id="Path_813" data-name="Path 813" d="M406.162,149.41c-.235-1.7-.459-3.407-.644-5.114-.092-.852-.177-1.7-.235-2.551-.031-.424-.054-.848-.058-1.264v-.605a1.293,1.293,0,0,1,.031-.235c.008-.035,0-.035.027-.042a1.927,1.927,0,0,1,.771-.443,3.8,3.8,0,0,1,.983-.116l-.119-.91c-.158.042-.312.081-.462.112l-.143.027a.843.843,0,0,0-.22.062,1.247,1.247,0,0,0-.347.281,1.121,1.121,0,0,0-.251.644,4.282,4.282,0,0,0-.035.482v.91c.023.6.069,1.187.116,1.777.1,1.156.227,2.347.362,3.515.3,2.5.613,5.01.967,7.477,1.276,8.76,2.748,17.485,4.316,26.207.7,3.854,1.411,7.746,2.166,11.562.385,2.016.805,4.031,1.283,6.043a25.408,25.408,0,0,0,.859,3.01c.023.062.054.127.081.193a1.673,1.673,0,0,0,.12.224.713.713,0,0,0,.2.227.815.815,0,0,0,.274.116,6.293,6.293,0,0,0,.805.17c.52.081,1.037.131,1.542.173l.019-.331c-.031,0-.1-.085-.146-.177l-.042-.073h0l-.054.023a1.149,1.149,0,0,1-.139.046c-.1.031-.2.058-.3.085-.208.05-.42.089-.636.119a6.517,6.517,0,0,1-1.28.073c-.551-.031-.84-.112-.964-.1s-.085.1.154.258a3.191,3.191,0,0,0,1.306.385,6.514,6.514,0,0,0,1.037,0,4.329,4.329,0,0,0,.6-.065l.32-.062a1.763,1.763,0,0,0,.177-.05l.108-.035.077-.039.077-.058h0a.627.627,0,0,0,.065-.081.508.508,0,0,0,.073-.227v-.385l-.412-.066c-.551-.089-1.156-.181-1.761-.316l-.22-.054-.1-.027-.073-.023h0s0,.023-.027-.062a9.7,9.7,0,0,1-.32-.921c-.355-1.191-.644-2.436-.925-3.673s-.543-2.49-.8-3.738c-.513-2.5-1-5.01-1.472-7.515q-1.422-7.538-2.748-15.142c-1.056-6.066-2-12.406-2.852-18.645-.262-1.927-.509-3.854-.721-5.781-.1-.964-.2-1.927-.27-2.894-.039-.482-.066-.964-.077-1.441v-.7a2.806,2.806,0,0,1,.031-.328.473.473,0,0,1,.023-.1.142.142,0,0,1,.035-.062.476.476,0,0,1,.085-.073h.162c.181-.035.355-.077.524-.123l2.547-.69-2.636.023a4.623,4.623,0,0,0-1.2.146,2.559,2.559,0,0,0-.859.428l-.247.193a.747.747,0,0,0-.266.489,3.216,3.216,0,0,0-.05.4c0,.258,0,.509,0,.771,0,.5.039.987.077,1.476.073.979.177,1.95.285,2.917.493,4.239,1.129,8.479,1.777,12.687.994,6.386,2.085,12.784,3.176,19.1.848,4.91,1.665,9.731,2.567,14.576.2,1.068.385,2.112.605,3.187.8,3.981,1.179,5.238,1.642,6.02a1.7,1.7,0,0,0,.347.478h.035a.156.156,0,0,1,.035-.046h0a.24.24,0,0,0,0-.066c-.027-.15-.073-.385-.139-.736-.139-.725-.362-1.85-.644-3.3-.844-4.313-1.634-8.768-2.436-13.281s-1.6-9.1-2.366-13.7c-1.156-6.825-2.266-13.689-3.206-20.557Z" transform="translate(-382.696 -135.448)" fill="#221f1f"/>
      <path id="Path_814" data-name="Path 814" d="M130.81,302.67c.131.582.247,1.777.516,1.966,4.96,3.426,34.2,16.383,34.2,16.383l73.976-.771.443-1.784c-10.132.131-53.712.227-74.462.713Z" transform="translate(-98.214 -236.575)" fill="#221f1f"/>
      <path id="Path_815" data-name="Path 815" d="M130.944,302.553l33.175,15.8,9.18-.173,9.311-.12,18.618-.17,37.927-.262-.717,2.875-56.433.59L168,321.241l-3.5.035h-.536a.684.684,0,0,1-.2-.073l-.127-.054-.2-.092-.8-.355-1.6-.713-6.386-2.883q-6.359-2.891-12.718-5.9c-2.108-1.006-4.216-2.016-6.305-3.083-1.048-.516-2.085-1.068-3.126-1.611l-1.542-.856c-.258-.135-.513-.308-.771-.462l-.385-.239-.189-.119a.956.956,0,0,1-.289-.266.87.87,0,0,1-.123-.208c-.023-.054-.039-.1-.058-.15a2.191,2.191,0,0,1-.066-.254,3.306,3.306,0,0,1-.062-.424,2.967,2.967,0,0,1,0-.632c.046-.331.146-.509.281-.54s.3.108.459.412a3.921,3.921,0,0,1,.227.567l.112.347.058.166.027.066h0l.574.358c.247.146.474.3.732.439l1.538.879c1.033.536,2.054,1.083,3.1,1.6,2.077,1.048,4.182,2.058,6.286,3.06q6.313,3.006,12.695,5.889l6.378,2.879,1.6.713.8.355.274.123h.339l3.5-.035L182,320.031l55.593-.582.173-.69L201.236,319l-18.615.166-9.3.123-9.434.173-33.41-15.928C128.628,302.661,129.1,301.675,130.944,302.553Z" transform="translate(-96.722 -236.293)" fill="#232020"/>
      <path id="Path_816" data-name="Path 816" d="M357.941,320.159l-34.231-16.075c-.385-.177.227-1.507.617-1.314l34.231,16.079C358.87,318.991,358.25,320.309,357.941,320.159Z" transform="translate(-291.203 -236.625)" fill="#232020"/>
      <path id="Path_817" data-name="Path 817" d="M113.76,319.771a11.594,11.594,0,0,0,2.513-.385c.8-.189,1.572-.385,2.347-.628l4.594-1.38c.559-.162,1.118-.308,1.673-.439.274-.062.551-.123.821-.166a2.969,2.969,0,0,1,.732-.058,4.729,4.729,0,0,1,1.318.385c.459.189.917.385,1.376.624l2.763,1.364a48.536,48.536,0,0,0,5.742,2.378,39.069,39.069,0,0,0,5.334,1.4,31.4,31.4,0,0,0,3.5.466,19.245,19.245,0,0,0,3.526-.027c.732-.069.617-.258,0-.451-.308-.1-.744-.193-1.264-.3a15.308,15.308,0,0,0-1.777-.2,34.729,34.729,0,0,1-6.879-1.156,44.708,44.708,0,0,1-6.621-2.413c-1.3-.574-2.582-1.253-3.9-1.927a17.28,17.28,0,0,0-2.077-.925,3.881,3.881,0,0,0-1.237-.231,7.174,7.174,0,0,0-1.179.17c-1.611.366-3.137.863-4.683,1.326s-3.083.933-4.625,1.28a13.4,13.4,0,0,1-1.422.247,4.639,4.639,0,0,1-.686.035.721.721,0,0,1-.4-.1.254.254,0,0,1-.062-.328.8.8,0,0,1,.112-.173,2.472,2.472,0,0,1,.227-.235,7.756,7.756,0,0,1,1.118-.879,31.266,31.266,0,0,1,3.892-2.139,40.851,40.851,0,0,1,4.124-1.692,16.258,16.258,0,0,1,1.63-.478,4.021,4.021,0,0,1,.771-.119,5.031,5.031,0,0,1,.825.046,19.57,19.57,0,0,1,3.3.6l1.449.385c1.831.478,2.463.513,2.91.316a1.744,1.744,0,0,0,.293-.139c.208-.189-.513-.459-1.823-.832a29.176,29.176,0,0,0-6.236-1.372,3.1,3.1,0,0,1-.42-.019h-.208a2.052,2.052,0,0,0-.262,0,5.778,5.778,0,0,0-.9.154c-.555.135-1.083.3-1.607.478-1.041.355-2.062.771-3.083,1.195a40.077,40.077,0,0,0-4.4,2.208,12.183,12.183,0,0,0-2.085,1.5,2.982,2.982,0,0,0-.532.64,1.6,1.6,0,0,0-.22.524,1.292,1.292,0,0,0,0,.543,1.253,1.253,0,0,0,.725.771,2.478,2.478,0,0,0,.516.139l.231.027h.181Z" transform="translate(-1.534 -242.057)" fill="#221f1f"/>
      <path id="Path_818" data-name="Path 818" d="M163.525,308.742c-.027,0-.039-.035-.023-.081a2.269,2.269,0,0,1,.32-.563l.1-.112a.579.579,0,0,1,.119-.119l.3-.266c.2-.173.432-.343.644-.513.9-.671,1.842-1.306,2.8-1.927.705-.439,1.43-.848,2.147-1.268,1.26-.736,2.54-1.453,3.854-2.1a27.3,27.3,0,0,1,4.02-1.669c.3-.073.617-.181.921-.224a6.557,6.557,0,0,1,.929-.092,14.265,14.265,0,0,1,1.927.081c1.619.177,3.2.721,4.879.94.524.062.489-.139.1-.439a5.537,5.537,0,0,0-2.043-.96,19.88,19.88,0,0,0-2.574-.509,15.006,15.006,0,0,0-2.663-.069l-.705.1a4.669,4.669,0,0,0-.667.158,11.065,11.065,0,0,0-1.268.385,24.762,24.762,0,0,0-2.4,1.048c-1.861.917-3.785,1.881-5.607,2.956-.994.6-1.989,1.206-2.952,1.865-.243.158-.482.328-.721.5s-.478.335-.709.52-.47.358-.7.567a3.559,3.559,0,0,0-.659.717,3.757,3.757,0,0,0-.277.528l-.066.166-.05.2a1.056,1.056,0,0,0,0,.385.886.886,0,0,0,.47.605,2.094,2.094,0,0,0,.647.212,4.917,4.917,0,0,0,2.266-.231,25.947,25.947,0,0,0,3.052-1.187c.987-.439,1.962-.89,2.944-1.306a29.6,29.6,0,0,1,4.625-1.569c.343-.081.682-.143,1.029-.2.64-.116,1.06-.17,1.353-.235a1.245,1.245,0,0,0,.613-.289,1.271,1.271,0,0,0,.193-.185c.146-.2-.424-.435-1.468-.385a16.892,16.892,0,0,0-4.513,1.052c-1.464.528-2.894,1.156-4.313,1.8-1.048.462-2.1.937-3.145,1.307a9.029,9.029,0,0,1-1.542.412,2.83,2.83,0,0,1-.69.023,1.969,1.969,0,0,1-.335-.058l-.089-.027h0Z" transform="translate(-57.319 -234.211)" fill="#221f1f"/>
      <path id="Path_819" data-name="Path 819" d="M89.5,345.856c-.582-.385-1.156-.771-1.734-1.156-.208-.143-.385-.312-.605-.455-.732-.5-1.472-1.006-2.162-1.565-.312-.243-.59-.524-.879-.771a10.328,10.328,0,0,0-1.095-1.037c-.127-.092-.251.042-.3.266a.967.967,0,0,0,.166.771,11.1,11.1,0,0,0,1.091,1.156,11.767,11.767,0,0,0,1.264.963c.532.351,1.014.805,1.542,1.183s1.156.809,1.746,1.206l1.079.728c.54.385,1.091.732,1.611,1.122.385.3.771.655,1.129.987.081.073.162.143.251.212.328.239.478.262.694.127.046-.031.1-.058.143-.092.143-.116.1-.339-.089-.586a6.165,6.165,0,0,0-.979-1c-.358-.3-.732-.6-1.118-.875-.57-.412-1.156-.8-1.734-1.2Z" transform="translate(66.747 -260.037)" fill="#221f1f"/>
      <path id="Path_820" data-name="Path 820" d="M66.048,344.516c.312-.308.609-.636.9-.964s.578-.659.859-.994c.208-.243.428-.474.62-.728a30.822,30.822,0,0,0,1.888-2.79l.79-1.268a4.659,4.659,0,0,0,.8-1.765c.031-.208-.2-.247-.486-.177a1.245,1.245,0,0,0-.8.52c-.536,1.075-1.179,2.147-1.808,3.249a14.5,14.5,0,0,1-1.391,1.858c-.266.331-.547.651-.821.983l-.859.948c-.385.366-.728.771-1.129,1.1a15.585,15.585,0,0,1-1.865,1.491,8.069,8.069,0,0,1-.771.462l-.813.385a3.676,3.676,0,0,1-.385.146c-.447.2-.555.328-.543.628a1.7,1.7,0,0,0,0,.2c.039.216.3.285.674.173a8.232,8.232,0,0,0,1.619-.686c.262-.146.509-.312.771-.474a7.843,7.843,0,0,0,.732-.524,12.95,12.95,0,0,0,1.037-.852l.5-.443.478-.466Z" transform="translate(97.027 -256.936)" fill="#221f1f"/>
      <path id="Path_821" data-name="Path 821" d="M71.594,297.132A93.532,93.532,0,0,0,58.078,291c-.428-.146-.852-.308-1.279-.451l-1.295-.412c-.856-.293-1.734-.52-2.609-.748a41.433,41.433,0,0,0-9.485-1.341c-.385,0-.794-.031-1.21,0s-.821.066-1.222.123a18.172,18.172,0,0,0-2.37.524,33.2,33.2,0,0,0-4.5,1.676,60.9,60.9,0,0,0-7.423,4.062,36.479,36.479,0,0,0-4.39,3.191,6.7,6.7,0,0,0-.5.489c-.031.035-.1.108-.158.177l-.158.208a1.183,1.183,0,0,0-.2.435.339.339,0,0,0,.146.385l.185.135a.6.6,0,0,0,.212.119l.251.092.123.046a.124.124,0,0,1,.1.027,3.65,3.65,0,0,0,.385.066,5.419,5.419,0,0,0,2.756-.559c.516-.22.705-.324.674-.385s-.324-.089-.8,0a10.017,10.017,0,0,1-1.865.208,2.9,2.9,0,0,1-.543-.062,1.973,1.973,0,0,1-.27-.073l-.135-.042c-.039,0,0,0-.027-.019s0-.023,0-.031h0l.05-.054a20.084,20.084,0,0,1,2.027-1.684c.725-.536,1.468-1.048,2.22-1.542q2.266-1.484,4.659-2.779a46.572,46.572,0,0,1,4.906-2.312,21.751,21.751,0,0,1,5.16-1.434,9.109,9.109,0,0,1,1.6-.066l1.649.046c.551.042,1.1.1,1.657.158.274.031.551.05.829.089l.825.135a50.051,50.051,0,0,1,6.552,1.507,67.274,67.274,0,0,1,6.937,2.49c2.27.948,4.509,2,6.71,3.122Q72.3,298.6,76.2,300.99c1.973,1.191,3.908,2.455,5.827,3.731s3.827,2.613,5.654,3.973c2.863,2.116,5.573,4.313,8.271,6.552l1.765,1.5c2.212,1.869,2.952,2.428,3.607,2.617a2.694,2.694,0,0,0,.435.12c.343,0-.435-.871-2.019-2.312A161.2,161.2,0,0,0,84.289,305q-3.064-2.127-6.24-4.116t-6.455-3.8Z" transform="translate(82.12 -227.58)" fill="#221f1f"/>
      <path id="Path_822" data-name="Path 822" d="M30.8,349.29c1.542,1.156,3.083,2.366,4.683,3.519.8.574,1.6,1.156,2.455,1.68a14.529,14.529,0,0,0,1.349.771,5.344,5.344,0,0,0,.809.331,2.228,2.228,0,0,0,.59.1,1.36,1.36,0,0,0,.478-.062,1.385,1.385,0,0,0,.308-.146,1.315,1.315,0,0,0,.277-.27,1.26,1.26,0,0,0,.231-.57v-.393a2.7,2.7,0,0,0-.15-.586,2.531,2.531,0,0,0-.251-.478l-.146-.208c-.05-.065-.1-.119-.154-.181a6.4,6.4,0,0,0-1.3-1.071c-.443-.289-.886-.536-1.318-.771s-.871-.459-1.226-.682a42.2,42.2,0,0,1-4.625-3.318,7.385,7.385,0,0,1-1.279-1.418l-.119-.181-.085-.181a1.587,1.587,0,0,1-.123-.339V344.8H31.04a.59.59,0,0,1-.116,0H30.8a.267.267,0,0,1-.077,0,.7.7,0,0,1-.123-.023s-.054-.031-.035,0h0a.139.139,0,0,1,.023.042.2.2,0,0,1,0,.046c0,.019,0,.058,0,.085a.343.343,0,0,1,0,.089v.108a1.129,1.129,0,0,1-.031.258h.054a1.61,1.61,0,0,1,.173.069,13.977,13.977,0,0,1,1.715,1c.578.385,1.156.771,1.734,1.183,1.426.994,2.837,2.023,4.262,3.045l1.31.975c.609.428,1.218.848,1.8,1.21a5.782,5.782,0,0,0,1.457.721,2.947,2.947,0,0,0,.9.089.848.848,0,0,0,.208-.05.971.971,0,0,0,.262-.2,1.156,1.156,0,0,0,.328-.574,1.7,1.7,0,0,0-.15-1.029,4.238,4.238,0,0,0-.651-1.037,9.99,9.99,0,0,0-1.214-1.214c-.239-.212-.493-.42-.771-.624l-.385-.3-.331-.254-1-.725c-.667-.478-1.341-.94-2.012-1.4-1.341-.921-2.7-1.815-3.954-2.8a8.837,8.837,0,0,1-.863-.744,1.542,1.542,0,0,1-.158-.177.575.575,0,0,1-.054-.069v-.019h0a1.047,1.047,0,0,0-.1.042.528.528,0,0,1-.274.042h0l.127.066h0s-.042-.035-.023,0,0,0,0,.031a.239.239,0,0,1,.031.092.586.586,0,0,1,.023.162h0a1.276,1.276,0,0,1,.385.108c.158.069.328.146.5.239.335.177.674.385,1.006.6.913.59,1.807,1.241,2.7,1.9s1.792,1.31,2.675,1.985,1.784,1.333,2.7,1.973c.459.32.921.636,1.4.936a11.079,11.079,0,0,0,1.542.832,3.333,3.333,0,0,0,.6.2,1.839,1.839,0,0,0,.385.042,1.037,1.037,0,0,0,.528-.15.849.849,0,0,0,.131-.108l.062-.062a.771.771,0,0,0,.119-.216.7.7,0,0,0-.046-.5,1.473,1.473,0,0,0-.22-.339,4.477,4.477,0,0,0-.385-.436c-.536-.52-1.083-.975-1.634-1.434-1.095-.913-2.174-1.835-3.3-2.7L38.8,343.166c-.551-.443-1.114-.867-1.669-1.295s-1.1-.875-1.649-1.307c-.686-.536-1-.771-1.048-.671s.162.47.6,1.106a22.921,22.921,0,0,0,2.016,2.428,33.467,33.467,0,0,0,3.3,2.975c.567.451,1.125.91,1.7,1.349l1.723,1.3c.574.428,1.118.894,1.646,1.353.258.227.516.462.728.686a1.7,1.7,0,0,1,.143.158l.054.062h0l.058-.039.181-.1c.066-.035.092-.058.146-.081a.976.976,0,0,1,.146-.062c.05,0,.069-.031.108-.042a.223.223,0,0,1,.158,0h0l-.2-.166h0a.6.6,0,0,1-.077-.274,2.03,2.03,0,0,1,0-.343h-.027l-.131-.035a3.629,3.629,0,0,1-.385-.162,9.2,9.2,0,0,1-.859-.474c-.582-.355-1.156-.771-1.742-1.156-1.156-.825-2.312-1.7-3.469-2.559s-2.312-1.754-3.526-2.594a22.574,22.574,0,0,0-1.927-1.21,6.169,6.169,0,0,0-1.172-.551l-.2-.05q-.12-.025-.243-.039a1.438,1.438,0,0,0-.771.112,1.156,1.156,0,0,0-.451.355,1.126,1.126,0,0,0-.162.266,1.156,1.156,0,0,0-.092.385,1.287,1.287,0,0,0,.023.308,1.4,1.4,0,0,0,.2.489,3.341,3.341,0,0,0,.493.59c.158.146.308.281.462.4.3.25.6.482.906.7l1.827,1.249c1.206.821,2.413,1.622,3.6,2.451l.771.536.385.274.173.127.05.039a5.24,5.24,0,0,1,.443.339,2.262,2.262,0,0,1,.416.439.385.385,0,0,1,.081.289.158.158,0,0,1-.224.119,6.163,6.163,0,0,1-.906-.563l-2.312-1.665c-.925-.678-1.858-1.36-2.8-2.027s-1.892-1.33-2.917-1.927c-.22-.127-.447-.254-.69-.385-.123-.062-.251-.12-.385-.173a2.346,2.346,0,0,0-.52-.143,1.04,1.04,0,0,0-.516.046.8.8,0,0,0-.189.1.939.939,0,0,0-.193.177.771.771,0,0,0-.116.2c0,.039-.031.073-.042.108a.735.735,0,0,0,0,.081.99.99,0,0,0,0,.274.713.713,0,0,0,.027.177l.066.231a1.827,1.827,0,0,0,.166.436,4.176,4.176,0,0,0,.2.385,9.716,9.716,0,0,0,2.15,2.312,28.9,28.9,0,0,0,2.42,1.781l1.21.832.609.385a6.188,6.188,0,0,0,.674.385,18.442,18.442,0,0,1,2.432,1.457,2.486,2.486,0,0,1,.771.848c.042.069.031.131.058.193s0,.054,0,.042a.694.694,0,0,1,.123.023H40.7l.073.031a.062.062,0,0,1,.035,0c.05.039,0,0,0-.046a.385.385,0,0,1-.039-.154.594.594,0,0,1,0-.116h0a.943.943,0,0,1-.189-.035,6.226,6.226,0,0,1-1.191-.567c-.4-.235-.809-.493-1.21-.771-.8-.532-1.592-1.1-2.378-1.68-.963-.713-1.927-1.445-2.879-2.174s-1.927-1.472-2.929-2.177c-.127-.089-.258-.177-.385-.262a2.579,2.579,0,0,0-.235-.131,1.279,1.279,0,0,0-.316-.123,1.78,1.78,0,0,0-.678-.035.859.859,0,0,0-.516.281.821.821,0,0,0-.25.567,1.341,1.341,0,0,0,.208.717,2.616,2.616,0,0,0,.347.455,7.319,7.319,0,0,0,.771.64c.979.744,1.962,1.43,2.944,2.131,1.488,1.06,2.983,2.112,4.432,3.2q.543.412,1.064.832c.17.143.335.285.489.432.073.069.15.146.2.208l.058.073h0l.1-.046a.811.811,0,0,1,.158-.065c.062,0,.066-.023.108,0h0l-.385-.054h.046a.27.27,0,0,0,.066.023.445.445,0,0,1,.077.042h0a.445.445,0,0,1-.031-.081.405.405,0,0,0,0-.069v-.046h-.108a2.7,2.7,0,0,1-.524-.22,11.518,11.518,0,0,1-1.114-.694c-1.472-1.029-2.883-2.193-4.316-3.322-.713-.566-1.434-1.129-2.174-1.676-.385-.274-.748-.54-1.156-.8-.2-.123-.385-.25-.617-.385a3.358,3.358,0,0,0-.744-.3,1.188,1.188,0,0,0-.462,0,.74.74,0,0,0-.516.432.856.856,0,0,0-.042.543,1.664,1.664,0,0,0,.135.358,4.783,4.783,0,0,0,.705.944c.5.536,1.029,1.014,1.542,1.48,1.064.933,2.151,1.811,3.218,2.7a38.153,38.153,0,0,1,3.052,2.725,3.376,3.376,0,0,1,.524.682.28.28,0,0,0,.019.046h0a1.035,1.035,0,0,1,.15-.031c.189-.027.235.046.17,0a.228.228,0,0,1-.054-.069h0c-.027-.05.254.4.135.212h0v-.042a.528.528,0,0,1,0-.162,1.184,1.184,0,0,1,.039-.224V357.6H36.1l-.069-.035a5.591,5.591,0,0,1-.771-.509c-.266-.2-.532-.412-.794-.632-.925-.771-1.8-1.584-2.7-2.409-3.38-3.083-4.59-3.989-5.669-4.239-.235-.05-.582-.143-.7-.046-.027,0,0,.066,0,.027h0a.093.093,0,0,1,0,.027.239.239,0,0,0,0,.069.386.386,0,0,1,0,.066h0v.031a6.762,6.762,0,0,0,.547.574c.567.57,1.488,1.484,2.7,2.632l2.69,2.52c.937.859,1.869,1.719,2.933,2.54a8.131,8.131,0,0,0,.921.609,2.82,2.82,0,0,0,.32.15l.1.039.127.039h.158a1.153,1.153,0,0,0,.22,0,1.129,1.129,0,0,0,.328-.062,1.239,1.239,0,0,0,.193-.089l.108-.069a1.376,1.376,0,0,0,.177-.162,1.322,1.322,0,0,0,.162-.224,1.283,1.283,0,0,0,.119-.894,2.312,2.312,0,0,0-.358-.771c-.123-.177-.243-.32-.362-.462-.243-.277-.486-.52-.732-.771-.979-.929-1.985-1.746-2.991-2.574s-2.016-1.638-2.975-2.478c-.474-.416-.944-.844-1.345-1.272a3.819,3.819,0,0,1-.466-.586c-.023-.035-.035-.062-.031-.062a1.363,1.363,0,0,1-.189.062,1.159,1.159,0,0,1-.154.046,1.006,1.006,0,0,1-.258.031c-.116,0-.139-.042-.092,0l-.077-.073h0a.328.328,0,0,1,.023.05s0,.058,0,.1a1.156,1.156,0,0,1,0,.135,2.312,2.312,0,0,1-.035.385l-.023.108h0a.645.645,0,0,1,.108.042c.092.039.212.1.331.166.243.139.5.3.771.478.513.351,1.029.736,1.542,1.133,1.025.79,2.046,1.622,3.083,2.443.771.613,1.542,1.222,2.382,1.811a14.639,14.639,0,0,0,1.33.859,4.871,4.871,0,0,0,.848.385,2.036,2.036,0,0,0,.744.119,1.411,1.411,0,0,0,.7-.22,1.292,1.292,0,0,0,.335-.312,1.345,1.345,0,0,0,.189-.347,1.576,1.576,0,0,0,.077-.293v-.146a1.415,1.415,0,0,0,0-.254,1.253,1.253,0,0,0-.081-.27,1.61,1.61,0,0,0-.251-.385,3.682,3.682,0,0,0-.343-.385,6.742,6.742,0,0,0-.609-.536c-.385-.331-.794-.636-1.191-.94-.8-.6-1.6-1.179-2.4-1.754-1.6-1.156-3.226-2.27-4.756-3.422-.189-.143-.385-.289-.532-.424l-.1-.089-.066-.069a.924.924,0,0,1-.108-.143v-.031l-.081.031-.112.039-.116.027-.092.023h-.289c-.066-.023-.035-.023,0,.019a.354.354,0,0,1,.054.116.67.67,0,0,1,.05.2c0,.058.027.177.027.262v.112h.089l.119.069.27.177c.189.127.385.266.574.4l1.156.871Z" transform="translate(134.614 -259.44)" fill="#221f1f"/>
      <path id="Path_823" data-name="Path 823" d="M240.977,217.893a5.207,5.207,0,0,1,.355-2.424,6.2,6.2,0,0,1,1.333-2.05,6.975,6.975,0,0,1,4.343-2,6.4,6.4,0,0,1,2.416.262,6.659,6.659,0,0,1,2.17,1.095,5.746,5.746,0,0,1,1.584,1.869,5.951,5.951,0,0,1,.655,2.355,6.478,6.478,0,0,1-1.434,4.563,6.058,6.058,0,0,1-1.892,1.542,6.552,6.552,0,0,1-2.332.694,6.867,6.867,0,0,1-2.424-.154,6.167,6.167,0,0,1-2.193-1.068,6.621,6.621,0,0,1-2.505-4.074c-.085-.455.651-.516.713-.131a5.912,5.912,0,0,0,2.228,3.627,5.469,5.469,0,0,0,1.927.944,6,6,0,0,0,2.166.131,5.5,5.5,0,0,0,3.742-1.969,5.781,5.781,0,0,0,1.268-4.05,5.226,5.226,0,0,0-.574-2.073,4.945,4.945,0,0,0-1.384-1.63,6.074,6.074,0,0,0-4.085-1.21,6.251,6.251,0,0,0-3.873,1.8,4.968,4.968,0,0,0-1.48,3.9C241.72,218.14,241,218.263,240.977,217.893Z" transform="translate(-154.564 -180.476)" fill="#232020"/>
      <path id="Path_824" data-name="Path 824" d="M248.061,168.15a5.18,5.18,0,0,1,.355-2.428,6.167,6.167,0,0,1,1.333-2.046,6.968,6.968,0,0,1,4.34-2.008,6.46,6.46,0,0,1,2.416.266,6.705,6.705,0,0,1,2.174,1.091,5.738,5.738,0,0,1,1.58,1.873,6,6,0,0,1,.659,2.355,6.5,6.5,0,0,1-1.434,4.551,6.166,6.166,0,0,1-1.892,1.542,6.486,6.486,0,0,1-2.335.69,6.775,6.775,0,0,1-2.424-.15,6.212,6.212,0,0,1-2.193-1.068,6.648,6.648,0,0,1-2.505-4.077c-.081-.451.651-.516.713-.131a5.916,5.916,0,0,0,2.231,3.63,5.542,5.542,0,0,0,1.927.94,6.008,6.008,0,0,0,2.162.166,5.5,5.5,0,0,0,3.742-1.969,5.781,5.781,0,0,0,1.272-4.054,5.229,5.229,0,0,0-.578-2.07,5.033,5.033,0,0,0-1.38-1.634,6.1,6.1,0,0,0-4.089-1.206,6.232,6.232,0,0,0-3.881,1.8,4.945,4.945,0,0,0-1.48,3.9C248.8,168.4,248.08,168.516,248.061,168.15Z" transform="translate(-164.377 -149.902)" fill="#232020"/>
      <path id="Path_825" data-name="Path 825" d="M309.4,176.088l-4.374.166-.728-3.137-.158-.694v-.135h.035l1.118-.035,10.749-.428c1.588-.062,3.187-.1,4.763-.131,2.031-.039,4.066-.035,6.089-.181,1.264-.092-.339-.84-2.678-.771-4.143.1-8.286.254-12.46.486-1.249.069-2.524.112-3.8.15l-3.97.119h-.57a1.117,1.117,0,0,0-.266.019l.062.281.227.994.3,1.337.674,2.948,3.214-.112,5.187-.181c2.617-.085,5.245-.181,7.847-.243,2.02-.046,4-.042,6-.062h2.181c-.062-.27-.116-.516-.166-.748s-.089-.362-.123-.52c-.062-.227-.116-.412-.17-.567a1.6,1.6,0,0,0-.347-.617,1.343,1.343,0,0,0-.2-.2c-.1-.058-.15.085-.146.385a5.223,5.223,0,0,0,.042.574,3.3,3.3,0,0,0,.05.385l.062.385v.162h-2.058l-2.613.027c-1.754.031-3.534.073-5.315.119l-8.44.262Z" transform="translate(-253.514 -155.489)" fill="#221f1f"/>
      <path id="Path_826" data-name="Path 826" d="M299.754,230.744l-4.374.17-.728-3.137-.158-.694-.019-.092v-.042h.031l1.118-.035,10.749-.432c1.592-.058,3.191-.1,4.767-.127,2.027-.039,4.062-.039,6.089-.181,1.264-.092-.339-.84-2.678-.771-4.143.1-8.286.254-12.464.486-1.245.069-2.52.112-3.8.15l-3.966.119h-.57a1.083,1.083,0,0,0-.266.023l.062.281.224.994.308,1.337.674,2.948,3.214-.112,5.184-.181c2.621-.085,5.249-.185,7.847-.243,2.019-.046,4-.042,6-.062h2.181c-.062-.27-.116-.52-.17-.748s-.085-.362-.123-.52a5.506,5.506,0,0,0-.17-.567,1.541,1.541,0,0,0-.347-.617,1.179,1.179,0,0,0-.2-.2c-.1-.058-.146.085-.143.385a5.215,5.215,0,0,0,.042.574l.05.385.058.385v.162h-2.054l-2.613.027c-1.757.027-3.534.073-5.318.119l-8.44.262Z" transform="translate(-240.131 -189.084)" fill="#221f1f"/>
      <path id="Path_827" data-name="Path 827" d="M260.89,171.749c0,2.274,3.168,2.062,3.168-.224a1.765,1.765,0,0,0-1.765-1.765C261.318,169.76,260.894,170.774,260.89,171.749Z" transform="translate(-172.454 -154.888)" fill="#221f1f"/>
      <path id="Path_828" data-name="Path 828" d="M260.182,171.211a2.906,2.906,0,0,1,.358-1.407,1.665,1.665,0,0,1,.54-.574,1.5,1.5,0,0,1,.771-.22,2.062,2.062,0,0,1,2.058,1.888,2.312,2.312,0,0,1-.385,1.441,1.95,1.95,0,0,1-1.268.8,1.8,1.8,0,0,1-1.476-.385,1.835,1.835,0,0,1-.613-1.38c0-.143.574-.123.582-.027a1.229,1.229,0,0,0,.409.963,1.214,1.214,0,0,0,1,.243,1.376,1.376,0,0,0,.894-.563,1.781,1.781,0,0,0,.27-1.064,1.488,1.488,0,0,0-.474-.964,1.461,1.461,0,0,0-1-.385.917.917,0,0,0-.821.509,2.312,2.312,0,0,0-.281,1.121C260.76,171.319,260.178,171.319,260.182,171.211Z" transform="translate(-172.031 -154.427)" fill="#232020"/>
      <path id="Path_829" data-name="Path 829" d="M258.139,181.524c-.162-.883.717-2.752,2.181-2.806,1.657-.066,2.4,2.74,2.4,2.74S258.22,182.033,258.139,181.524Z" transform="translate(-170.046 -160.393)" fill="#221f1f"/>
      <path id="Path_830" data-name="Path 830" d="M257.769,180.917c.019-.023.027-.054.042-.073h.035a.486.486,0,0,0,.1.023,2.342,2.342,0,0,0,.251.031h.547c.385,0,.744-.027,1.121-.05s.751-.062,1.125-.1l.771-.085-.039-.108q-.081-.22-.173-.428a5.1,5.1,0,0,0-.439-.794,1.7,1.7,0,0,0-1.318-.871c-1.083,0-1.977,1.33-1.95,2.382,0,.092-.559.243-.578.054a2.509,2.509,0,0,1,.173-1.071,3.542,3.542,0,0,1,.5-.917,2.4,2.4,0,0,1,1.85-1.029,1.827,1.827,0,0,1,1.068.355,2.921,2.921,0,0,1,.728.771,5.78,5.78,0,0,1,.5.886c.066.154.131.308.189.466l.042.119c.027.077.05.154.073.227l.127.451-.909.112-.57.062c-.385.039-.771.073-1.156.1s-.771.046-1.156.05h-.594a3.08,3.08,0,0,1-.312-.035.9.9,0,0,1-.385-.162.116.116,0,0,1-.05-.085.146.146,0,0,1,0-.108.231.231,0,0,1,.224-.081h.1A.193.193,0,0,0,257.769,180.917Z" transform="translate(-169.511 -159.879)" fill="#232020"/>
      <path id="Path_831" data-name="Path 831" d="M252.2,229.415c-.066-.424-.1-.813-.135-1.222l-.039-.609v-.771l.085-.216v-.027c.112.1.031.027.058.05h0l.031-.042.073-.085a.643.643,0,0,1,.266-.05h.216l.59-.023h1.773l.308.023h.081a.973.973,0,0,1,.139.027.713.713,0,0,1,.258.093.69.69,0,0,1,.227.478c.019.131.023.22.031.328v.605a9.149,9.149,0,0,1-.054,1.195v.17a.893.893,0,0,1-.069.274.5.5,0,0,1-.42.3c-.112.023-.154.027-.2.035l-.154.019-.3.031c-.385.031-.79.046-1.191.042a5.568,5.568,0,0,1-.609-.023.933.933,0,0,1-.32-.039,1.211,1.211,0,0,1-.385-.123.208.208,0,0,1-.081-.1.258.258,0,0,1,0-.135.235.235,0,0,1,.2-.154l.073-.019h0s.027,0,.046-.042a.17.17,0,0,0,.031-.042l.05-.077a.357.357,0,0,0,.027-.05h.039l.108.023.258.031c.177,0,.366.019.551.019a9.815,9.815,0,0,0,1.129-.042l.277-.027.216-.027v-.119c.035-.366.05-.748.05-1.125v-.555a2.213,2.213,0,0,0-.023-.254h-.065l-.27-.019H253.36l-.647.031v.416l.039.586c.031.385.069.79.127,1.156C252.932,229.341,252.23,229.565,252.2,229.415Z" transform="translate(-161.147 -189.712)" fill="#232020"/>
      <path id="Path_832" data-name="Path 832" d="M252.167,222.705a5.011,5.011,0,0,1,.328-1.5,2.351,2.351,0,0,1,.439-.713,1.742,1.742,0,0,1,.335-.293,4.015,4.015,0,0,1,.385-.208,1.646,1.646,0,0,1,.91-.112,1.665,1.665,0,0,1,.805.4,3.468,3.468,0,0,1,.863,1.345c.035.077-.671.293-.682.25a2.775,2.775,0,0,0-.663-1.052.844.844,0,0,0-.944-.17c-.725.274-.963,1.222-1.037,2.108A1.7,1.7,0,0,1,252.167,222.705Z" transform="translate(-161.268 -185.677)" fill="#232020"/>
      <path id="Path_833" data-name="Path 833" d="M256.43,228.829V228h.725v.844S256.426,228.836,256.43,228.829Z" transform="translate(-163.832 -190.683)" fill="#232020"/>
      <path id="Path_834" data-name="Path 834" d="M238.283,330.716l3.083,1.226.385.154a.463.463,0,0,1,.262.262.474.474,0,0,1,0,.385.455.455,0,0,1-.277.254.489.489,0,0,1-.17.023h-9.011a1.265,1.265,0,0,1-.254,0,1.42,1.42,0,0,1-.235-.1l-.189-.085-.771-.351-1.542-.694-.385-.173-.193-.089a.482.482,0,0,1-.243-.212.385.385,0,0,1,.247-.567.87.87,0,0,1,.1-.023h2.05l6.671-.035a.22.22,0,1,1,0,.436l-6.583.031h-2.008l.613.277,1.484.671.74.335.185.085.146.066h8.648a2.354,2.354,0,0,0,.57-.023c0-.031,0-.039-.023-.05l-.385-.154-3.083-1.229C238.017,331.1,237.921,330.628,238.283,330.716Z" transform="translate(-138.043 -253.8)" fill="#232020"/>
      <path id="Path_835" data-name="Path 835" d="M244.384,310.613c-.975-.085-1.981-.019-2.96-.027l.066-.239a9.634,9.634,0,0,0,1.191.57c.27.116-.073.019.042.023s.229.006.343,0c.821,0,1.646-.023,2.467.031l-.127.239c-.385-.2-.771-.459-1.156-.628-.32-.135-.031-.331.2-.231.439.189.852.462,1.272.686.2.112.027.251-.131.239-.9-.058-1.846.085-2.736,0a4.516,4.516,0,0,1-1.688-.732c-.135-.089-.1-.243.065-.243,1.021,0,2.07-.058,3.083.031C244.577,310.327,244.731,310.64,244.384,310.613Z" transform="translate(-146.579 -241.254)" fill="#221f1f"/>
      <path id="Path_836" data-name="Path 836" d="M261.761,310.613h-3.033l.05-.2,1.075.563c.1.05.54.347.185.15-.227-.127-.069-.031.162-.046.809-.058,1.63-.042,2.443-.066v.193l-1.206-.674c-.355-.2.2-.2.362-.112l1.206.674c.092.054.208.189,0,.2-.894.023-1.811.116-2.7.073a5.188,5.188,0,0,1-1.908-.832c-.177-.092-.135-.2.054-.2h3.033C261.691,310.332,262.165,310.613,261.761,310.613Z" transform="translate(-170.515 -241.289)" fill="#221f1f"/>
      <path id="Path_837" data-name="Path 837" d="M278.224,310.6h-3.041v-.177l1.064.563c.085.042.57.312.185.146-.281-.116-.027-.031.162-.046.809-.058,1.63-.042,2.44-.065l.019.177-1.206-.678c-.355-.2.208-.177.358-.092l1.218.682c.089.05.212.17,0,.177-.894.023-1.815.119-2.7.073a5.134,5.134,0,0,1-1.908-.836c-.089-.046-.212-.173-.019-.173h3.033C277.966,310.35,278.525,310.6,278.224,310.6Z" transform="translate(-193.257 -241.296)" fill="#221f1f"/>
      <path id="Path_838" data-name="Path 838" d="M294.523,310.594H291.49l.054-.193,1.071.578c.1.046.547.339.185.146-.235-.123-.065-.027.162-.046.809-.054,1.63-.042,2.443-.066v.193l-1.206-.674c-.358-.2.2-.2.358-.112l1.21.678c.089.05.208.185,0,.189-.9.027-1.815.119-2.7.073a5.312,5.312,0,0,1-1.927-.829c-.177-.092-.135-.193.05-.193h3.033C294.45,310.336,294.932,310.594,294.523,310.594Z" transform="translate(-215.896 -241.289)" fill="#221f1f"/>
      <path id="Path_839" data-name="Path 839" d="M311.3,310.618h-3.033l.054-.2L309.4,311c.081.046.509.212.243.158s.158-.035.224-.039c.813-.058,1.63-.046,2.443-.066l-.054.193-1.206-.674c-.293-.166.154-.212.308-.127l1.206.674c.146.081.1.193-.054.2-.883.023-1.8.127-2.679.073a5.227,5.227,0,0,1-1.815-.817c-.146-.077-.1-.2.054-.2h3.014C311.277,310.364,311.639,310.618,311.3,310.618Z" transform="translate(-239.178 -241.313)" fill="#221f1f"/>
      <path id="Path_840" data-name="Path 840" d="M328.592,310.672H326.2a3.1,3.1,0,0,1-.536,0c-.146-.031-.166-.119.023-.081a3.673,3.673,0,0,1,1.187.617c.173.162-.355.031-.154-.031a2.5,2.5,0,0,1,.563,0l1.515-.039a4.157,4.157,0,0,1,.489,0c.173,0,.069.092-.085.031a8.433,8.433,0,0,1-1.044-.582c-.254-.143.358-.073.47,0l1.206.678c.1.054.081.119-.035.123-.894.027-1.815.127-2.7.073a5.208,5.208,0,0,1-1.9-.832c-.089-.046-.216-.158-.027-.158h3.021C328.318,310.43,328.885,310.672,328.592,310.672Z" transform="translate(-263.029 -241.367)" fill="#221f1f"/>
      <path id="Path_841" data-name="Path 841" d="M346.52,310.618h-3.033v-.27l1.075.559c.065.035.47.224.274.17s.181,0,.254-.023c.809-.038,1.626-.042,2.44-.065l-.062.239-1.21-.678c-.293-.162.143-.266.32-.17l1.206.678c.146.081.1.231-.065.239-.871.023-1.765.1-2.636.069a4.924,4.924,0,0,1-1.8-.771c-.139-.073-.224-.266,0-.266h3.033C346.535,310.314,346.859,310.618,346.52,310.618Z" transform="translate(-287.967 -241.282)" fill="#221f1f"/>
      <path id="Path_842" data-name="Path 842" d="M232.727,320.914h-3.033v-.262l1.075.555c.066.035.47.224.274.173s.181-.019.254-.023c.809-.042,1.626-.046,2.44-.069l-.062.235-1.206-.674c-.3-.166.143-.266.316-.166l1.206.674c.146.085.1.227-.062.235-.875.023-1.765.1-2.64.069a4.935,4.935,0,0,1-1.8-.771c-.139-.069-.227-.262,0-.262h3.033C232.734,320.614,233.058,320.914,232.727,320.914Z" transform="translate(-130.32 -247.613)" fill="#221f1f"/>
      <path id="Path_843" data-name="Path 843" d="M249.949,320.893h-3.033l.054-.208,1.079.559c.1.05.543.212.22.146s.112-.039.193-.046c.809-.062,1.634-.042,2.443-.066l-.054.208-1.21-.678c-.355-.2.2-.216.366-.123l1.206.674c.177.1.135.2-.054.208-.883.023-1.8.123-2.678.073a5.146,5.146,0,0,1-1.869-.832c-.181-.092-.135-.208.054-.208H249.7C249.888,320.6,250.362,320.893,249.949,320.893Z" transform="translate(-154.176 -247.595)" fill="#221f1f"/>
      <path id="Path_844" data-name="Path 844" d="M266.485,320.9h-3.029v-.277l1.075.555c.066.035.47.224.274.173s.177-.019.254-.023c.809-.042,1.626-.046,2.44-.069l-.066.251-1.206-.674c-.3-.166.135-.285.32-.181l1.206.674c.15.085.1.243-.066.251-.875.023-1.765.1-2.64.069a4.886,4.886,0,0,1-1.8-.771c-.139-.077-.224-.281,0-.281h3.033C266.508,320.588,266.824,320.9,266.485,320.9Z" transform="translate(-177.094 -247.595)" fill="#221f1f"/>
      <path id="Path_845" data-name="Path 845" d="M282.729,320.879H279.7v-.293l1.075.555c.062.035.47.224.274.173s.177-.019.251-.023c.813-.042,1.63-.046,2.443-.066v.293l-1.206-.678c-.3-.166-.027-.385.212-.254l1.206.674c.139.081.22.289,0,.293-.875.023-1.765.1-2.636.073a4.859,4.859,0,0,1-1.8-.771c-.143-.073-.22-.293,0-.293h3.029C282.763,320.548,283.075,320.879,282.729,320.879Z" transform="translate(-199.607 -247.562)" fill="#221f1f"/>
      <path id="Path_846" data-name="Path 846" d="M299.417,320.891h-3.033l.062-.22,1.071.559c.1.05.543.212.22.146s.116-.039.2-.046c.809-.058,1.63-.042,2.44-.066l-.058.22-1.206-.674c-.358-.2.193-.235.385-.139l1.21.678c.177.1.131.216-.062.22-.883.023-1.8.119-2.678.073a5.175,5.175,0,0,1-1.869-.832c-.181-.092-.131-.22.058-.22h3.033C299.371,320.59,299.83,320.891,299.417,320.891Z" transform="translate(-222.736 -247.589)" fill="#221f1f"/>
      <path id="Path_847" data-name="Path 847" d="M316.831,320.9H313.8l-.019-.177,1.075.555c.085.046.57.316.185.15-.278-.119-.031-.035.162-.046.809-.058,1.63-.046,2.44-.065l.019.177-1.206-.678c-.355-.2.208-.177.358-.092l1.206.674c.092.05.212.173.019.177-.894.027-1.815.123-2.7.077a5.2,5.2,0,0,1-1.908-.836c-.089-.046-.208-.177-.019-.177h3.033C316.573,320.64,317.132,320.9,316.831,320.9Z" transform="translate(-246.74 -247.62)" fill="#221f1f"/>
      <path id="Path_848" data-name="Path 848" d="M334.748,320.966h-2.393a2.766,2.766,0,0,1-.536,0c-.162-.035-.15-.108.023-.085a3.514,3.514,0,0,1,1.191.617c.17.162-.358.031-.154-.031a2.487,2.487,0,0,1,.563,0l1.511-.042a2.642,2.642,0,0,1,.493,0c.173.035.062.092-.089.039a8.2,8.2,0,0,1-1.044-.586c-.254-.143.355-.081.47,0l1.206.674c.1.058.081.131-.035.135-.894.023-1.815.123-2.7.073a5.152,5.152,0,0,1-1.9-.836c-.092-.046-.216-.162-.023-.162h3.029C334.478,320.72,335.045,320.966,334.748,320.966Z" transform="translate(-271.559 -247.692)" fill="#221f1f"/>
      <path id="Path_849" data-name="Path 849" d="M302.558,230.85c1.464,2.7-2.825,1.121-.224,0,.385.274.343.509.409.94" transform="translate(-226.909 -192.434)" fill="#221f1f"/>
      <path id="Path_850" data-name="Path 850" d="M311.458,230.85c1.465,2.7-2.825,1.121-.224,0,.385.274.343.509.409.94" transform="translate(-239.239 -192.434)" fill="#221f1f"/>
      <path id="Path_851" data-name="Path 851" d="M320.117,230.85c1.465,2.7-2.825,1.121-.224,0,.385.274.343.509.409.94" transform="translate(-251.237 -192.434)" fill="#221f1f"/>
      <path id="Path_852" data-name="Path 852" d="M328.268,231.37c1.465,2.7-2.825,1.122-.224,0,.385.274.343.509.409.94" transform="translate(-262.528 -192.754)" fill="#221f1f"/>
      <path id="Path_853" data-name="Path 853" d="M311.7,176.54c1.465,2.7-2.825,1.122-.223,0,.385.274.347.509.412.94" transform="translate(-239.572 -159.055)" fill="#221f1f"/>
      <path id="Path_854" data-name="Path 854" d="M320.348,177.06c1.464,2.7-2.825,1.122-.224,0,.385.27.343.509.409.94" transform="translate(-251.555 -159.375)" fill="#221f1f"/>
      <path id="Path_855" data-name="Path 855" d="M328.544,177.06c1.461,2.7-2.829,1.122-.224,0,.385.27.343.509.409.94" transform="translate(-262.908 -159.375)" fill="#221f1f"/>
      <path id="Path_856" data-name="Path 856" d="M441.086,291.452c-1.476.135-2.952.243-4.428.312-.54.027-1.075.023-1.615.054-1.9.108-3.792.224-5.692.3-.84.035-1.688.05-2.524.073-1.071.019-2.151.05-3.222.112-.335,0-.289.042,0,.089s.805.123,1.426.166c2.193.123,4.382.227,6.59.193,1.322-.027,2.7.042,4.051.058h7.207c1.384-.019,2.775-.1,4.151-.131,1.071-.027,2.12,0,3.176-.073.231,0,.459-.027.694-.05a6.336,6.336,0,0,0,1.333-.239l.123-.035a3.694,3.694,0,0,0-.91-.2,44.7,44.7,0,0,0-5.885-.744,33.918,33.918,0,0,0-4.467.073Z" transform="translate(-423.37 -229.589)" fill="#221f1f"/>
      <path id="Path_857" data-name="Path 857" d="M84.195,294.95c1.029-.127,2.062-.227,3.083-.289.385-.027.752-.019,1.129-.05,1.326-.1,2.652-.208,3.973-.277.59-.031,1.179-.046,1.765-.062.748,0,1.5-.042,2.251-.1.235-.019.2-.046,0-.089a8.085,8.085,0,0,0-.99-.173,44.774,44.774,0,0,0-4.625-.22c-.921,0-1.885-.058-2.829-.077l-3.114-.027H82.911c-.967,0-1.927.085-2.9.112-.748.019-1.476,0-2.216.058a3.009,3.009,0,0,0-.486.05,3.148,3.148,0,0,0-.933.231l-.085.031c-.058.019.189.081.632.2.659.166,1.337.347,2.023.482a18.97,18.97,0,0,0,2.085.289,16.539,16.539,0,0,0,3.118-.054Z" transform="translate(66.189 -230.995)" fill="#221f1f"/>
    </g>
    <g id="Group_291" data-name="Group 291" transform="translate(1818.69 4138.314)">
      <g id="Group_290" data-name="Group 290" clip-path="url(#clip-path)">
        <path id="Path_858" data-name="Path 858" d="M25.3,2.972q1.134.035,2.271.012c.276,0,.55-.032.826-.037.973-.037,1.948-.062,2.921-.149.43-.037.859-.107,1.281-.164.271-.045.542-.092.811-.147a6.16,6.16,0,0,0,.786-.2c.152-.057.162-.015.052.1a1.746,1.746,0,0,1-.659.393,10.45,10.45,0,0,1-1.672.428,17.093,17.093,0,0,1-1.707.187c-.684.045-1.4.117-2.094.157-.769.037-1.54.055-2.311.057-.473,0-.948,0-1.423-.017-.716-.02-1.438-.065-2.152-.114-.555-.04-1.1-.055-1.664-.139a3.274,3.274,0,0,1-.371-.062,1.292,1.292,0,0,1-.465-.211.413.413,0,0,1-.132-.249A.506.506,0,0,1,19.59,2.7c0-.055.06-.08.152-.095a1.129,1.129,0,0,1,.368,0c.9.129,1.908.216,2.918.274.746.045,1.515.07,2.276.082Z" transform="translate(-14.716 -1.698)" fill="#231f20"/>
        <path id="Path_859" data-name="Path 859" d="M31.98,14.516c-.159.746-.358,1.465-.582,2.187l-.219.652-.04.117-.02.06c-.012.015,0,.052-.032.045l-.249.037-.388.05c-.366.045-.729.1-1.095.149l-1.6.249a30.82,30.82,0,0,1-5.734.473c-.856-.045-1.707-.122-2.543-.234a15.292,15.292,0,0,1-3.167-.739c-.316-.124-.249-.172.045-.149a5.32,5.32,0,0,1,.587.065c.241.032.525.065.826.114.537.09,1.077.152,1.617.209s1.082.124,1.625.164a18.923,18.923,0,0,0,3.252,0c1.311-.1,2.664-.363,4-.587.746-.122,1.475-.249,2.222-.343l.114-.012c.022-.022.027-.067.042-.1.047-.149.114-.341.164-.512.1-.353.2-.709.289-1.067a25.739,25.739,0,0,0,.5-2.682,28.374,28.374,0,0,0,.261-4.13,28.152,28.152,0,0,0-.249-3.15c-.025-.229-.072-.453-.1-.684-.085-.861-.09-1.137.065-1.353a.978.978,0,0,1,.092-.139c.1-.1.289.226.45.858A12.955,12.955,0,0,1,32.388,5.5q.109.731.162,1.493a28.707,28.707,0,0,1,.02,3.038,29.716,29.716,0,0,1-.575,4.518Z" transform="translate(-12.097 -2.393)" fill="#231f20"/>
        <path id="Path_860" data-name="Path 860" d="M27.511,63.529c-.746.075-1.508.134-2.267.164-.278,0-.555.027-.833.022a20.986,20.986,0,0,1-2.91-.281c-.426-.065-.856-.129-1.276-.206a11.41,11.41,0,0,1-1.6-.413c-.323-.117.134-.129.746-.042.273.045.55.08.823.119s.547.09.821.127c.55.08,1.1.149,1.657.214a13.564,13.564,0,0,0,2.038.072c.746-.022,1.493-.082,2.251-.162.463-.047.923-.1,1.383-.167.7-.1,1.4-.2,2.092-.316.535-.095,1.057-.216,1.587-.316.117-.022.231-.047.351-.067.44-.052.587-.032.7.07a.491.491,0,0,1,.072.065c.052.07-.114.179-.428.266a24.873,24.873,0,0,1-2.943.57c-.746.112-1.508.209-2.266.294Z" transform="translate(-13.913 -46.763)" fill="#231f20"/>
        <path id="Path_861" data-name="Path 861" d="M18.24,12.224c-.067.679-.152,1.353-.249,2.025-.035.249-.062.5-.1.746-.154.861-.346,1.712-.55,2.56-.087.378-.174.746-.261,1.132a6.639,6.639,0,0,1-.463,1.416c-.067.142-.167.082-.236-.08a1.154,1.154,0,0,1-.055-.689c.2-.96.44-1.916.682-2.891a17.21,17.21,0,0,0,.3-1.811c.095-.667.184-1.336.249-2.005.04-.413.082-.826.1-1.244A16.313,16.313,0,0,0,17.678,9.5a6.151,6.151,0,0,0-.08-.712c-.04-.231-.065-.468-.124-.692-.022-.1-.05-.2-.067-.3-.08-.368-.087-.485.042-.622.022-.03.042-.062.06-.082.05-.062.249.04.373.328a5.593,5.593,0,0,1,.371,1.338c.042.231.047.463.067.7s.025.465.022.7v.52l-.022.517c-.012.346-.04.689-.065,1.032Z" transform="translate(-12.24 -5.32)" fill="#231f20"/>
        <path id="Path_862" data-name="Path 862" d="M80.151,13.646c-.052.674-.134,1.346-.226,2.015l-.1.731c-.149.856-.343,1.7-.565,2.54-.1.371-.2.746-.3,1.112a13.693,13.693,0,0,1-.473,1.391c-.114.284-.134-.132-.022-.682l.162-.726.179-.719q.177-.721.346-1.448c.134-.582.226-1.2.306-1.8.1-.664.167-1.331.221-1.99.027-.413.057-.826.065-1.244.017-.624.022-1.244-.02-1.876-.027-.483-.112-.95-.172-1.423-.012-.1-.037-.2-.05-.308-.037-.391-.015-.517.087-.619a.551.551,0,0,1,.067-.065c.072-.05.174.1.249.383a10.672,10.672,0,0,1,.313,2.682v1.027c0,.343-.03.682-.052,1.025Z" transform="translate(-58.888 -6.403)" fill="#231f20"/>
        <path id="Path_863" data-name="Path 863" d="M128.059.879c.746,0,1.515,0,2.271-.032.276,0,.552-.042.828-.055.97-.055,1.948-.1,2.918-.209.43-.042.858-.122,1.281-.187.269-.047.54-.1.809-.159a6.72,6.72,0,0,0,.784-.211c.154-.057.164-.015.055.1a1.8,1.8,0,0,1-.657.4,10.959,10.959,0,0,1-1.664.46c-.562.1-1.132.172-1.7.219-.684.057-1.391.144-2.092.2-.769.055-1.54.087-2.309.1-.475,0-.95.012-1.426,0-.719,0-1.44-.037-2.157-.072-.557-.03-1.107-.035-1.669-.114a3.276,3.276,0,0,1-.371-.06,1.243,1.243,0,0,1-.47-.206.43.43,0,0,1-.134-.249.627.627,0,0,1-.012-.112c0-.055.062-.082.154-.1a1.251,1.251,0,0,1,.366,0c.9.122,1.908.192,2.921.231.746.027,1.515.04,2.279.037Z" transform="translate(-91.904 0)" fill="#231f20"/>
        <path id="Path_864" data-name="Path 864" d="M134.954,12.4a21.968,21.968,0,0,1-.552,2.239l-.224.679-.04.119-.02.06c0,.022-.037,0-.057.02l-.249.037-.373.047c-.368.05-.746.109-1.107.172-.54.092-1.077.209-1.62.306a29.526,29.526,0,0,1-5.824.662c-.873-.032-1.741-.117-2.592-.226a15.3,15.3,0,0,1-3.234-.769c-.323-.127-.249-.174.042-.149a5.671,5.671,0,0,1,.6.067c.246.032.532.065.841.117.545.092,1.1.154,1.647.211s1.1.124,1.654.164c.276.02.552.035.828.047s.542,0,.816,0c.547-.017,1.1-.062,1.657-.127,1.328-.147,2.7-.463,4.055-.729.746-.144,1.493-.289,2.261-.4l.132-.015c.025,0,.02-.027.03-.04l.017-.055.08-.249c.027-.087.06-.177.082-.266.1-.361.2-.724.276-1.09a24.218,24.218,0,0,0,.445-2.737,30.213,30.213,0,0,0,.154-4.214,31.886,31.886,0,0,0-.311-3.209c-.027-.234-.075-.46-.107-.7-.09-.878-.095-1.162.057-1.378a.909.909,0,0,1,.092-.144c.1-.1.289.231.455.873a13.969,13.969,0,0,1,.286,1.458q.115.746.184,1.493c.08,1.018.107,2.052.087,3.09a30.394,30.394,0,0,1-.458,4.615Z" transform="translate(-89.283 -0.628)" fill="#231f20"/>
        <path id="Path_865" data-name="Path 865" d="M130.408,61.5c-.766.1-1.535.189-2.309.249-.284.012-.565.045-.848.042a19.018,19.018,0,0,1-2.985-.249c-.435-.067-.873-.132-1.3-.209a11.57,11.57,0,0,1-1.632-.42c-.328-.117.137-.127.766-.037.281.045.56.082.841.122s.557.09.836.127c.56.082,1.124.149,1.689.214a12.018,12.018,0,0,0,2.075.05c.764-.04,1.528-.127,2.289-.234q.7-.1,1.408-.214c.707-.122,1.421-.249,2.122-.386.545-.109,1.072-.249,1.615-.356.119-.025.234-.052.356-.072.45-.062.6-.04.714.06a.469.469,0,0,1,.072.065c.052.07-.117.179-.435.269-.945.269-1.958.46-2.985.644-.761.134-1.53.249-2.3.371Z" transform="translate(-91.066 -45.143)" fill="#231f20"/>
        <path id="Path_866" data-name="Path 866" d="M120.995,11.107q-.1,1.037-.249,2.065c-.035.249-.06.5-.1.746-.152.878-.343,1.741-.547,2.612l-.261,1.154a6.814,6.814,0,0,1-.465,1.445c-.07.144-.167.082-.236-.08a1.193,1.193,0,0,1-.052-.7c.2-.978.44-1.955.682-2.951a17.933,17.933,0,0,0,.294-1.846c.095-.682.182-1.363.249-2.047.04-.42.082-.843.1-1.264a17.026,17.026,0,0,0,.027-1.916,6.3,6.3,0,0,0-.08-.726c-.042-.236-.065-.48-.124-.709-.022-.1-.05-.2-.067-.3-.08-.376-.087-.5.04-.632.025-.03.042-.065.062-.085.05-.062.249.042.373.338a5.622,5.622,0,0,1,.371,1.363c.042.249.047.473.067.709s.022.475.022.714v.527l-.015.522c0,.353-.04.7-.065,1.052Z" transform="translate(-89.432 -4.397)" fill="#231f20"/>
        <path id="Path_867" data-name="Path 867" d="M183.74,11.368c-.032.689-.1,1.373-.169,2.057l-.082.746c-.122.876-.291,1.741-.5,2.6-.092.381-.177.764-.274,1.139a11.754,11.754,0,0,1-.465,1.423c-.114.289-.132-.134-.02-.689l.149-.746c.055-.249.119-.5.169-.746.107-.5.207-1,.306-1.493.117-.6.189-1.224.249-1.843.077-.677.127-1.358.164-2.042.017-.42.035-.841.035-1.261,0-.637,0-1.279-.055-1.908-.035-.5-.122-.968-.187-1.448-.015-.107-.04-.209-.052-.316-.04-.4-.017-.527.085-.629a.871.871,0,0,1,.065-.067c.072-.05.177.1.249.391a11.606,11.606,0,0,1,.343,2.722c0,.346.017.694,0,1.042s-.015.694-.027,1.042Z" transform="translate(-136.84 -4.608)" fill="#231f20"/>
        <path id="Path_868" data-name="Path 868" d="M123.7,89.428c.746.08,1.508.142,2.264.182.276.017.552,0,.828.025.975.035,1.95.082,2.926.067.433,0,.866-.04,1.294-.065.274-.022.547-.05.819-.082a6.463,6.463,0,0,0,.8-.137c.157-.042.162,0,.042.107a1.811,1.811,0,0,1-.689.338,10.838,10.838,0,0,1-1.7.3c-.57.045-1.142.067-1.717.057-.687,0-1.4.012-2.1,0-.769-.02-1.54-.06-2.309-.117-.475-.035-.948-.075-1.421-.124-.714-.072-1.43-.172-2.139-.276-.55-.082-1.1-.139-1.649-.271a2.845,2.845,0,0,1-.366-.095,1.292,1.292,0,0,1-.448-.249.424.424,0,0,1-.109-.269.588.588,0,0,1,0-.114c0-.052.067-.075.159-.08a1.119,1.119,0,0,1,.366.032c.883.206,1.883.368,2.886.5.746.1,1.505.184,2.264.249Z" transform="translate(-88.657 -66.572)" fill="#231f20"/>
        <path id="Path_869" data-name="Path 869" d="M131.343,103.258c-.177.694-.391,1.378-.629,2.055-.127.338-.249.674-.4,1l-.294.682s0,.02-.012.025h-.726c-.5.025-1.015.077-1.525.117-1.8.139-3.615.318-5.443.3a12.492,12.492,0,0,1-2.433-.219,30.516,30.516,0,0,1-2.97-.838c-.306-.1-.249-.152.035-.152a8.461,8.461,0,0,1,1.358.169c.51.109,1.022.206,1.528.3a9.289,9.289,0,0,0,1.508.189,29.465,29.465,0,0,0,3.1-.052c1.244-.07,2.552-.249,3.846-.366.353-.03.712-.055,1.07-.072h.221l.02-.045.022-.047.047-.109.1-.249a19.613,19.613,0,0,0,.677-1.99,25.6,25.6,0,0,0,.585-2.53,30.473,30.473,0,0,0,.46-3.906c.047-1.015,0-2.01-.032-3.008-.015-.221-.027-.435-.042-.657,0-.823.017-1.087.189-1.279a.944.944,0,0,1,.107-.124c.112-.09.249.249.366.848a22.413,22.413,0,0,1,.032,5.675,30.354,30.354,0,0,1-.746,4.259Z" transform="translate(-87.672 -69.431)" fill="#231f20"/>
        <path id="Path_870" data-name="Path 870" d="M127.323,151.773q-.993.049-1.99.06c-.249,0-.485.017-.729,0a12.521,12.521,0,0,1-2.555-.261l-1.1-.279c-.465-.122-.923-.271-1.381-.41-.142-.045-.112-.082.022-.1a2.64,2.64,0,0,1,.649.035c.975.152,1.893.5,2.849.57a14.7,14.7,0,0,0,1.789.047c.659,0,1.321-.04,1.99-.077.408-.025.816-.052,1.222-.085.617-.047,1.244-.095,1.848-.159.475-.05.94-.127,1.411-.177.1,0,.207-.027.311-.035.391-.012.52.025.607.134a.47.47,0,0,1,.057.072c.04.075-.114.167-.393.221a22.586,22.586,0,0,1-2.6.318c-.659.055-1.328.095-1.99.137Z" transform="translate(-89.752 -113.266)" fill="#231f20"/>
        <path id="Path_871" data-name="Path 871" d="M115.27,96.03c-.09.5-.184,1-.306,1.493-.042.179-.065.363-.112.54-.162.627-.353,1.244-.532,1.863-.085.271-.142.552-.216.826a5.47,5.47,0,0,1-.333,1.042c-.05.1-.154.057-.249-.067a.747.747,0,0,1-.124-.532,14.316,14.316,0,0,1,.57-2.135,12.167,12.167,0,0,0,.3-1.324c.1-.5.2-.975.294-1.465.055-.3.107-.6.144-.906a10.742,10.742,0,0,0,.112-1.378,7.765,7.765,0,0,0-.109-1.037c-.012-.075-.03-.147-.04-.221-.037-.274-.022-.363.117-.465l.072-.062c.057-.047.234.03.323.249a4.062,4.062,0,0,1,.249,1.01,7.707,7.707,0,0,1,0,1.045c-.025.515-.092,1.027-.167,1.533Z" transform="translate(-85.18 -69.254)" fill="#231f20"/>
        <path id="Path_872" data-name="Path 872" d="M174.563,103.741c-.1.682-.227,1.356-.363,2.03l-.152.746a26.062,26.062,0,0,1-.746,2.543c-.124.371-.249.746-.378,1.11a11.744,11.744,0,0,1-.6,1.371c-.142.279-.119-.144.045-.689l.219-.721c.077-.249.164-.475.236-.716.154-.478.3-.96.448-1.448.172-.58.3-1.2.423-1.809.142-.669.249-1.343.356-2.018.057-.418.114-.836.154-1.244.062-.634.117-1.274.127-1.906,0-.5-.03-.975-.05-1.46,0-.1-.017-.209-.022-.318,0-.4.033-.527.144-.617a.551.551,0,0,1,.072-.062c.077-.042.167.117.219.413a11.554,11.554,0,0,1,.082,2.737q-.03.52-.09,1.037c-.032.346-.077.692-.124,1.035Z" transform="translate(-129.385 -74.014)" fill="#231f20"/>
        <path id="Path_873" data-name="Path 873" d="M14.546,88.218c.746.08,1.508.142,2.264.184.276.015.552,0,.828.022.973.037,1.95.082,2.926.07.433,0,.866-.042,1.291-.067.276-.02.55-.05.821-.082a6.521,6.521,0,0,0,.8-.134c.159-.045.164,0,.045.107a1.81,1.81,0,0,1-.692.336,10.794,10.794,0,0,1-1.7.3q-.858.07-1.717.057c-.686,0-1.4.012-2.1,0-.771-.02-1.54-.06-2.311-.114q-.709-.052-1.418-.124c-.716-.075-1.43-.174-2.14-.279-.552-.082-1.1-.139-1.652-.269a3.444,3.444,0,0,1-.363-.095,1.265,1.265,0,0,1-.448-.249.418.418,0,0,1-.109-.269.561.561,0,0,1,0-.112c.012-.055.07-.075.162-.082a1.2,1.2,0,0,1,.366.032,28.813,28.813,0,0,0,2.886.5c.746.1,1.5.184,2.264.249Z" transform="translate(-6.662 -65.666)" fill="#231f20"/>
        <path id="Path_874" data-name="Path 874" d="M16.325,102.874a21.354,21.354,0,0,1-.761,2.179l-.286.654-.052.117-.025.057c0,.02-.04,0-.057,0l-.249.015-.376.012c-.371.015-.746.037-1.12.065-.545.042-1.09.107-1.639.152a29.545,29.545,0,0,1-5.861.107c-.866-.114-1.719-.279-2.557-.47A15.305,15.305,0,0,1,.2,104.693c-.308-.157-.234-.2.057-.144.147.025.348.067.59.124s.525.114.826.194c.535.144,1.08.249,1.622.368s1.085.226,1.63.318c.274.047.547.087.821.124s.537.065.814.077c.547.032,1.1.04,1.659.03,1.338-.02,2.737-.206,4.107-.343.759-.072,1.52-.144,2.289-.179h.122c.025,0,.022-.025.032-.037l.025-.052.1-.249c.037-.087.077-.172.107-.249.134-.351.266-.7.378-1.06a24.124,24.124,0,0,0,.7-2.687,30.858,30.858,0,0,0,.552-4.18c.062-1.085.037-2.152,0-3.234,0-.236-.032-.468-.04-.7,0-.883.015-1.164.187-1.368a1.051,1.051,0,0,1,.1-.134c.114-.092.266.261.371.913A14.544,14.544,0,0,1,17.4,93.7q.047.746.04,1.515c-.015,1.02-.087,2.052-.2,3.085a30.377,30.377,0,0,1-.893,4.55Z" transform="translate(0 -68.582)" fill="#231f20"/>
        <path id="Path_875" data-name="Path 875" d="M10.9,149.128c-.746.02-1.493.025-2.254,0-.276-.015-.55-.015-.826-.045a19.724,19.724,0,0,1-2.848-.55c-.415-.1-.831-.209-1.244-.323a11.54,11.54,0,0,1-1.537-.56c-.308-.147.144-.117.746.027.266.07.535.129.8.194s.53.139.8.2c.532.129,1.072.249,1.612.366a11.746,11.746,0,0,0,2,.249c.746.04,1.493.032,2.239,0,.46-.015.923-.035,1.381-.062.7-.045,1.4-.09,2.09-.159.537-.055,1.062-.139,1.592-.2.117-.015.231-.032.349-.045.44-.025.584,0,.686.112a.811.811,0,0,1,.067.07c.047.075-.124.172-.44.249a22.71,22.71,0,0,1-2.951.363c-.746.055-1.508.092-2.264.122Z" transform="translate(-1.57 -110.846)" fill="#231f20"/>
        <path id="Path_876" data-name="Path 876" d="M3.061,96.272q-.2,1.027-.45,2.033c-.06.249-.109.5-.177.746q-.351,1.287-.791,2.55-.187.562-.368,1.124a6.952,6.952,0,0,1-.6,1.4c-.082.134-.174.065-.229-.1a1.21,1.21,0,0,1,.015-.7c.294-.955.624-1.906.958-2.873a17.744,17.744,0,0,0,.468-1.811c.159-.669.311-1.338.45-2.013.08-.415.159-.831.224-1.244a17.682,17.682,0,0,0,.206-1.906,6.477,6.477,0,0,0,0-.729c-.02-.249-.02-.483-.057-.716-.012-.1-.03-.2-.04-.308-.042-.383-.037-.5.1-.627.027-.027.047-.06.07-.077.055-.057.236.065.338.373a5.7,5.7,0,0,1,.249,1.391c.017.249,0,.475,0,.712a6.828,6.828,0,0,1-.045.712l-.05.527-.07.522c-.045.351-.107.7-.164,1.042Z" transform="translate(-0.3 -68.359)" fill="#231f20"/>
        <path id="Path_877" data-name="Path 877" d="M66.3,102.5c-.082.682-.192,1.358-.308,2.033l-.129.746c-.182.863-.408,1.714-.667,2.555-.119.371-.231.746-.358,1.112a10.952,10.952,0,0,1-.582,1.376c-.142.276-.119-.147.04-.689l.209-.721c.072-.249.157-.473.224-.716.142-.478.276-.963.41-1.45.157-.585.269-1.2.371-1.814.122-.669.216-1.346.3-2.023.045-.415.092-.833.122-1.244.05-.634.09-1.271.09-1.9,0-.5-.04-.973-.065-1.455,0-.107-.015-.211-.025-.318,0-.4.032-.525.144-.617a.5.5,0,0,1,.072-.06c.075-.042.164.117.219.41a12.39,12.39,0,0,1,.112,2.737c-.015.343-.035.689-.067,1.035s-.062.689-.1,1.032Z" transform="translate(-48.199 -73.097)" fill="#231f20"/>
        <path id="Path_878" data-name="Path 878" d="M95.652,32.538c-.229-.022-.458-.022-.692-.022-.084,0-.167.015-.249.015h-.9a3.055,3.055,0,0,0-.4.05,1.58,1.58,0,0,1-.5.062c-.109,0-.037-.44.157-.483a4.284,4.284,0,0,1,1.057-.085c.216,0,.435-.035.654-.04s.48,0,.721,0l.443.025c.227,0,.451.04.672.057.174.017.346,0,.52.032a.881.881,0,0,1,.114,0c.142.03.179.07.182.187v.077a.179.179,0,0,1-.182.152,6.47,6.47,0,0,1-.906,0c-.226-.015-.455-.035-.684-.04Z" transform="translate(-69.761 -24.064)" fill="#231f20"/>
        <path id="Path_879" data-name="Path 879" d="M109.588,29.4a.866.866,0,0,0,.249-.44.381.381,0,0,0-.037-.147,1.294,1.294,0,0,0-.545-.582,3.436,3.436,0,0,0-.368-.2,1.141,1.141,0,0,1-.473-.306c-.04-.05.042-.129.147-.189s.226-.109.306-.067a3.955,3.955,0,0,1,.945.592,1.717,1.717,0,0,1,.5.632.848.848,0,0,1,0,.5,1.332,1.332,0,0,1-.2.393,2.958,2.958,0,0,1-.333.366c-.174.167-.368.308-.55.453-.144.109-.276.234-.42.341a.665.665,0,0,1-.095.07c-.124.08-.184.072-.269,0a.623.623,0,0,1-.057-.055.187.187,0,0,1,.027-.249,5.023,5.023,0,0,1,.667-.674,4.217,4.217,0,0,0,.485-.448Z" transform="translate(-81.393 -20.627)" fill="#231f20"/>
        <path id="Path_880" data-name="Path 880" d="M87.875,118.3c.249.02.483.047.719.077a1.031,1.031,0,0,1,.261.022c.3.05.6.119.9.182a3.612,3.612,0,0,0,.4.052,1.535,1.535,0,0,1,.5.09c.1.045-.095.43-.291.413a5.8,5.8,0,0,1-1.013-.179,4.088,4.088,0,0,0-.632-.077c-.231-.027-.463-.055-.7-.072-.144,0-.286-.02-.43-.022a5.061,5.061,0,0,0-.647.02,3.481,3.481,0,0,0-.483.112l-.1.03a.176.176,0,0,1-.234-.092.627.627,0,0,1-.037-.07.169.169,0,0,1,.1-.214,2.374,2.374,0,0,1,.948-.276c.249-.015.5,0,.746,0Z" transform="translate(-64.666 -88.858)" fill="#231f20"/>
        <path id="Path_881" data-name="Path 881" d="M81.007,116.674a1.986,1.986,0,0,1-.209-.4,1.032,1.032,0,0,1-.067-.5.869.869,0,0,1,.114-.363,1.853,1.853,0,0,1,.856-.639,4.124,4.124,0,0,0,.376-.194,3.115,3.115,0,0,1,.438-.249c.047-.017.119.072.149.189a.321.321,0,0,1-.085.333,6.784,6.784,0,0,1-.96.483.716.716,0,0,0-.351.381.611.611,0,0,0,.085.5,1.952,1.952,0,0,0,.249.336,3.224,3.224,0,0,0,.5.45,4.782,4.782,0,0,0,.443.264c.032.02.067.032.1.055.117.077.139.127.107.249a.594.594,0,0,1-.022.077c-.032.082-.119.114-.231.087a2.393,2.393,0,0,1-.923-.455,3.29,3.29,0,0,1-.565-.592Z" transform="translate(-60.642 -85.889)" fill="#231f20"/>
        <path id="Path_882" data-name="Path 882" d="M37.633,18.728c.328,0,.657-.015,1-.035.119,0,.236-.03.358-.037.423-.027.846-.055,1.272-.095.187-.02.375-.047.56-.077a3.675,3.675,0,0,1,.719-.082c.154,0,.015.383-.249.445s-.482.092-.729.127a6.224,6.224,0,0,1-.746.045c-.3,0-.6.065-.908.09s-.671.05-1.008.065c-.206,0-.415,0-.622.015h-.943c-.249,0-.483.017-.724,0a1.166,1.166,0,0,1-.161,0c-.2-.032-.249-.087-.281-.184a.344.344,0,0,1-.015-.067c0-.07.08-.119.224-.147.212-.025.425-.037.642-.052h1.632Z" transform="translate(-26.405 -13.824)" fill="#231f20"/>
        <path id="Path_883" data-name="Path 883" d="M44.692,27.494H44.1c-.072,0-.142.02-.214.02-.249,0-.512,0-.769-.015a2.52,2.52,0,0,0-.338.02,1.115,1.115,0,0,1-.435,0c-.09-.022,0-.391.172-.415a3.849,3.849,0,0,1,.866-.04,4.317,4.317,0,0,0,.535-.032L44.51,27l.368-.017a4.618,4.618,0,0,0,.555-.037c.144-.02.281-.065.425-.095.032,0,.062-.017.095-.02.119,0,.159.02.187.154a.2.2,0,0,0,.015.092.2.2,0,0,1-.114.221,2.733,2.733,0,0,1-.746.152c-.194.017-.393.025-.59.04Z" transform="translate(-31.783 -20.157)" fill="#231f20"/>
        <path id="Path_884" data-name="Path 884" d="M140.887,18.323l-1.139.04c-.139,0-.276.025-.415.025-.5,0-.98,0-1.47-.017h-.654a2.355,2.355,0,0,1-.853-.09c-.09-.035-.042-.122.05-.2a.583.583,0,0,1,.159-.1.414.414,0,0,1,.206-.047c.532.02,1.095,0,1.657.03.338.015.687-.027,1.032-.04l1.142-.05.7-.04c.353-.025.709-.045,1.06-.085.271-.032.535-.1.8-.137l.177-.027a.591.591,0,0,1,.249,0,.25.25,0,0,1,.117.109c0,.022.03.042.04.065a.117.117,0,0,1-.037.109.369.369,0,0,1-.174.109,5.435,5.435,0,0,1-.731.182c-.249.037-.5.067-.761.092-.381.035-.764.057-1.147.082Z" transform="translate(-102.396 -13.198)" fill="#231f20"/>
        <path id="Path_885" data-name="Path 885" d="M142.3,27.719h-1.11c-.351,0-.7-.017-1.052-.035h-.463a2.968,2.968,0,0,1-.595-.012c-.124-.02.032-.279.249-.3a9.257,9.257,0,0,1,1.207-.032,6.668,6.668,0,0,0,.746,0h2.082c.2,0,.391-.025.585-.032a1.122,1.122,0,0,1,.129,0c.159,0,.211.035.249.095,0,.015.017.027.022.04s-.05.085-.167.114a7.166,7.166,0,0,1-1.072.167,2.76,2.76,0,0,1-.408.02h-.41Z" transform="translate(-104.444 -20.512)" fill="#231f20"/>
        <path id="Path_886" data-name="Path 886" d="M26.56,105.465c-.331,0-.667.015-1,.012a2.6,2.6,0,0,1-.368,0,9.542,9.542,0,0,1-1.3-.119l-.577-.08-.368-.062a1.466,1.466,0,0,1-.351-.134c-.07-.037-.022-.144.075-.234a.42.42,0,0,1,.358-.142c.453.095.916.147,1.4.226a4.82,4.82,0,0,0,.891.025c.328,0,.659,0,1-.02l.614-.025c.311-.017.627-.017.935-.037.249-.012.478-.05.719-.065a.681.681,0,0,1,.159,0c.2,0,.264.042.3.149,0,.025.02.05.025.075.015.082-.067.149-.209.182-.415.087-.848.139-1.289.194-.328.045-.662.042-1,.067Z" transform="translate(-16.953 -78.656)" fill="#231f20"/>
        <path id="Path_887" data-name="Path 887" d="M26,113.76l-.746-.057h-.274c-.321-.022-.644-.065-.965-.1-.142-.012-.286-.012-.428-.012a1.838,1.838,0,0,1-.547-.032c-.114-.03.042-.388.249-.4a6.18,6.18,0,0,1,1.112.05c.224.032.458.017.687.027l.746.042.465.025c.234.017.47.037.7.04.181,0,.361-.017.54-.02h.119c.147,0,.194.037.222.132a.645.645,0,0,1,.02.065c0,.072-.052.129-.161.154a4.071,4.071,0,0,1-1,.112H26Z" transform="translate(-17.282 -85.005)" fill="#231f20"/>
        <path id="Path_888" data-name="Path 888" d="M29.38,122.966c-.087-.015-.174-.045-.266-.065h-.1a1.92,1.92,0,0,0-.358-.057.5.5,0,0,0-.157.02.294.294,0,0,1-.2.03c-.047-.017-.085-.406,0-.433a.829.829,0,0,1,.468-.012,1.542,1.542,0,0,0,.284,0,1.84,1.84,0,0,1,.308.045l.184.047.276.075c.07.017.144.015.216.027h.05c.055.02.067.05.052.134l-.012.06a.16.16,0,0,1-.1.122,1.18,1.18,0,0,1-.383.047l-.266-.037Z" transform="translate(-21.22 -91.965)" fill="#231f20"/>
        <path id="Path_889" data-name="Path 889" d="M135.873,107.606c.328.042.659.072,1,.092h.366l1.294.065h.575a3.2,3.2,0,0,1,.746,0c.152.025-.042.4-.318.423a9.459,9.459,0,0,1-1.493,0c-.3-.032-.617,0-.928-.017s-.684-.035-1.025-.067c-.211-.02-.42-.045-.632-.07-.318-.04-.634-.1-.948-.152-.249-.045-.5-.065-.734-.112a.6.6,0,0,1-.162-.03c-.2-.057-.249-.112-.249-.249v-.095c.02-.1.124-.159.266-.142.42.045.841.137,1.279.2.323.052.649.1.98.129Z" transform="translate(-100.183 -80.568)" fill="#231f20"/>
        <path id="Path_890" data-name="Path 890" d="M140.9,121.2a4.088,4.088,0,0,0,.5.082h.181a5.3,5.3,0,0,0,.659,0,1.506,1.506,0,0,0,.3-.02,1.393,1.393,0,0,1,.381,0c.08.012-.022.2-.159.219a7.346,7.346,0,0,1-.746.07c-.154,0-.316.04-.478.047a3.834,3.834,0,0,1-.535,0,2.361,2.361,0,0,1-.326-.032c-.164-.022-.324-.057-.485-.075s-.249-.017-.373-.032a.455.455,0,0,1-.082,0c-.1-.02-.127-.052-.132-.142v-.062a.146.146,0,0,1,.132-.132,1.987,1.987,0,0,1,.684,0c.166.022.333.047.5.082Z" transform="translate(-104.87 -90.967)" fill="#231f20"/>
      </g>
    </g>
  </g>
</svg>
