<svg xmlns="http://www.w3.org/2000/svg" width="47.994" height="16" viewBox="0 0 47.994 16">
  <g id="big-bazaar" transform="translate(-4.5 -84.856)">
    <path id="Path_1026" data-name="Path 1026" d="M90.46,94.9h3.525v1.271l-1.593,6.89h1.627v1.645H90.29v-1.376l1.579-6.787H90.476V94.9ZM109.3,99.861h0V99.9a1.207,1.207,0,0,1,.9,1.141l.024,3.674h-1.991l-.026-4.13h-.643l.028,4.13h-1.991l-.072-9.794h3.2a1.442,1.442,0,0,1,1.44,1.434l.016,2.39a1.171,1.171,0,0,1-.88,1.127Zm-1.131-3.678h-.639l.018,2.987h.641Zm-4.491-1.263h0l1.253,9.8h-1.956l-.159-2.071h-.83l-.143,2.063H99.909l.235-2.079h-.872l.265,2.079h-1.96l-.155-2.073h-.83l-.141,2.073H94.51l1.117-9.794H98.29l.8,6.313H100.3l.721-6.313Zm-6.359,6.311h0L97,96.559h-.062l-.279,4.662Zm5.4,0h0l-.329-4.67h-.052l-.283,4.67Zm-18.4-4.9h0v1.942a1.181,1.181,0,0,1-.884,1.133v.038a1.207,1.207,0,0,1,.894,1.143v2.686a1.394,1.394,0,0,1-.1.516l-1.906-2.74v-.916h-.643L79.67,97.272V94.9h3.2a1.444,1.444,0,0,1,1.442,1.436Zm-2.005-.165h-.645v2.547H82.3V96.171Zm7.611,8.539H87.964l-.155-2.073h-.834l-.143,2.073h-1.94L86.017,94.9h2.661l1.237,9.808Zm-2.22-3.493h0l-.309-4.672h-.062l-.287,4.672Z" transform="translate(-60.2 -8.044)" fill="#03334f"/>
    <path id="Path_1027" data-name="Path 1027" d="M14.212,94.866h3.242V98.23H15.435v-2.1h-.643l.022,7.3h.635v-2.649h-.281V99.385h2.3l.016,5.289H14.24a1.438,1.438,0,0,1-1.44-1.436l-.022-6.94A1.432,1.432,0,0,1,14.2,94.862h0Zm-4.182,9.812h2L12,94.864H10.012l.024,9.814ZM9.154,96.3h0v1.944a1.2,1.2,0,0,1-.886,1.133v.038a1.209,1.209,0,0,1,.892,1.143v2.688a1.43,1.43,0,0,1-1.428,1.434H4.52L4.5,94.86H7.71A1.442,1.442,0,0,1,9.15,96.3Zm-1.991,3.8H6.513v3.3h.645l-.01-3.3Zm0-3.965H6.5v2.549h.643V96.135Zm14.962,4.887h0v2.39h-.631l-.012-3.3L19.472,97.24l.028,7.44h3.21a1.426,1.426,0,0,0,1.334-.92l-1.92-2.738Z" transform="translate(0 -8.012)" fill="#eb5e21"/>
    <path id="Path_1028" data-name="Path 1028" d="M236.226,85.5a.556.556,0,0,0-.44.327,2.047,2.047,0,0,1-1.772,1.044c.1-.163.824-.3.408-.9-.159-.233-.155-.311-.137-.362a.255.255,0,0,1-.115-.323.2.2,0,0,1-.1-.255.289.289,0,0,1-.153-.167.723.723,0,0,1,.651.217c.376.309.448.5.7.5s.428-.273.679-.273a.315.315,0,0,1,.271.2Z" transform="translate(-183.732)" fill="#eb5e21"/>
    <path id="Path_1029" data-name="Path 1029" d="M79.57,151.261h.341l.685,1.619.673-1.619h.315a.4.4,0,0,0-.038.129.948.948,0,0,0,0,.2v1.394a1.1,1.1,0,0,0,.014.2.351.351,0,0,0,.038.127h-.382a.458.458,0,0,0,.036-.116,1.485,1.485,0,0,0,.012-.211l.026-1.3-.671,1.649h-.062l-.687-1.637.032,1.277a2.166,2.166,0,0,0,.012.219.313.313,0,0,0,.034.106h-.37a.3.3,0,0,0,.036-.117,1.418,1.418,0,0,0,.012-.2v-1.394a1.216,1.216,0,0,0-.012-.209.309.309,0,0,0-.036-.119Zm3.282,1.394h0a.761.761,0,0,0-.351.08.227.227,0,0,0-.123.2.2.2,0,0,0,.062.149.223.223,0,0,0,.159.058.265.265,0,0,0,.181-.066.2.2,0,0,0,.072-.161v-.253Zm0-.179h0v-.239a.185.185,0,0,0-.052-.147.3.3,0,0,0-.177-.044.584.584,0,0,0-.227.044.534.534,0,0,0-.181.127l-.04-.129a.054.054,0,0,1,0-.024.113.113,0,0,1,0-.026c0-.044.052-.09.153-.133a.938.938,0,0,1,.354-.064.5.5,0,0,1,.329.094.366.366,0,0,1,.11.283v.759a.323.323,0,0,0,.028.149.3.3,0,0,0,.092.108l-.179.088a.121.121,0,0,1-.034.014h-.018a.07.07,0,0,1-.056-.038.4.4,0,0,1-.052-.106.552.552,0,0,1-.169.106.5.5,0,0,1-.2.038.4.4,0,0,1-.283-.1.366.366,0,0,1-.1-.269.4.4,0,0,1,.175-.352,1.041,1.041,0,0,1,.538-.143Zm1.161-1.36h0v1.237a1.214,1.214,0,0,1,0,.147v.014c.241-.277.4-.456.478-.538s.131-.123.155-.123a.07.07,0,0,1,.028.012.16.16,0,0,1,.034.03l.1.123a.5.5,0,0,0-.08.042.518.518,0,0,0-.08.066l-.4.4.434.5a.474.474,0,0,0,.086.082.651.651,0,0,0,.1.064l-.145.141a.1.1,0,0,1-.028.022.123.123,0,0,1-.082-.018.327.327,0,0,1-.056-.062l-.464-.6-.076.07v.217a1.514,1.514,0,0,0,0,.213.728.728,0,0,0,.032.145h-.341a.783.783,0,0,0,.03-.135c0-.074.01-.149.01-.223v-1.456a1.053,1.053,0,0,0-.012-.159.4.4,0,0,0-.032-.116l.3-.1Zm1.251,2.191h0a.536.536,0,0,0,.032-.135,1.673,1.673,0,0,0,.01-.223v-.731a.716.716,0,0,0-.012-.159.374.374,0,0,0-.034-.114l.307-.1v1.107a1.885,1.885,0,0,0,0,.213.681.681,0,0,0,.032.143Zm.163-2.091h0a.141.141,0,0,1,.112.046.147.147,0,0,1,.044.112.153.153,0,0,1-.307,0,.149.149,0,0,1,.151-.155Zm1.032.625h0l.012.155a.689.689,0,0,1,.211-.117.763.763,0,0,1,.249-.038.476.476,0,0,1,.333.1.424.424,0,0,1,.1.315v.7a1.262,1.262,0,0,0,.012.213.573.573,0,0,0,.03.143h-.339a.655.655,0,0,0,.032-.137,2.017,2.017,0,0,0,0-.219v-.631a.293.293,0,0,0-.058-.2.233.233,0,0,0-.179-.056.56.56,0,0,0-.2.038.765.765,0,0,0-.189.116v.727a2.056,2.056,0,0,0,.012.221.536.536,0,0,0,.032.136h-.345a.637.637,0,0,0,.032-.135,2.05,2.05,0,0,0,0-.221v-.731a1.054,1.054,0,0,0-.012-.159.37.37,0,0,0-.032-.114l.281-.1Zm1.715.5h0a.364.364,0,0,0,.07.243.235.235,0,0,0,.2.086.245.245,0,0,0,.2-.086.374.374,0,0,0,.07-.243.366.366,0,0,0-.074-.239.257.257,0,0,0-.2-.084.233.233,0,0,0-.2.084.368.368,0,0,0-.068.239Zm.354.97h0a.633.633,0,0,0-.291.052.155.155,0,0,0-.1.147.167.167,0,0,0,.1.149.612.612,0,0,0,.273.052.552.552,0,0,0,.275-.062.183.183,0,0,0,.108-.155.151.151,0,0,0-.1-.133.566.566,0,0,0-.263-.052Zm.2-1.418h.123a1.5,1.5,0,0,0,.2,0,.42.42,0,0,0,.119-.03l-.028.139a.1.1,0,0,1-.036.07.142.142,0,0,1-.09.018.532.532,0,0,1-.082,0,.232.232,0,0,0-.046,0,.526.526,0,0,1,.046.121.456.456,0,0,1,.016.127.484.484,0,0,1-.118.352.51.51,0,0,1-.352.143.446.446,0,0,0-.2.046.114.114,0,0,0-.06.106c0,.094.1.141.315.147h.038a.747.747,0,0,1,.4.1.3.3,0,0,1,.131.267.35.35,0,0,1-.175.3.759.759,0,0,1-.442.121.842.842,0,0,1-.45-.1.3.3,0,0,1-.155-.277.279.279,0,0,1,.07-.2.41.41,0,0,1,.2-.119.3.3,0,0,1-.114-.094A.271.271,0,0,1,88,153a.255.255,0,0,1,.04-.135.3.3,0,0,1,.112-.1.357.357,0,0,1-.171-.149.48.48,0,0,1-.062-.251.508.508,0,0,1,.139-.374.486.486,0,0,1,.366-.143.836.836,0,0,1,.121.012l.187.038Zm1.721-.631h.4a.386.386,0,0,0-.04.131,1.637,1.637,0,0,0-.012.2v1.394a1.669,1.669,0,0,0,.012.2.412.412,0,0,0,.04.128h-.4a.358.358,0,0,0,.036-.127,1.334,1.334,0,0,0,.01-.2v-1.394a1.419,1.419,0,0,0-.012-.2.4.4,0,0,0-.038-.125Zm1.259.583h0l.012.155a.6.6,0,0,1,.211-.116.749.749,0,0,1,.249-.04.472.472,0,0,1,.331.1.42.42,0,0,1,.1.315v.7a1.873,1.873,0,0,0,.012.211.729.729,0,0,0,.032.146h-.339a.562.562,0,0,0,.03-.139,1.593,1.593,0,0,0,0-.217v-.633a.275.275,0,0,0-.056-.2.241.241,0,0,0-.181-.058.561.561,0,0,0-.2.04.673.673,0,0,0-.2.114v.729a1.613,1.613,0,0,0,.01.219.632.632,0,0,0,.034.137h-.345a.638.638,0,0,0,.032-.135c0-.074.01-.147.01-.221v-.731a1.1,1.1,0,0,0-.012-.161.374.374,0,0,0-.032-.112l.283-.1Zm2.36.347h0a.365.365,0,0,0-.129-.1.4.4,0,0,0-.157-.032.307.307,0,0,0-.261.143.665.665,0,0,0-.1.382.715.715,0,0,0,.094.388.3.3,0,0,0,.255.139.355.355,0,0,0,.169-.042.348.348,0,0,0,.129-.112v-.773Zm.253-1.071h0v1.8a.536.536,0,0,0,.028.185.281.281,0,0,0,.082.125l-.153.086-.032.016h-.018c-.014,0-.032-.014-.05-.042a.482.482,0,0,1-.058-.11.681.681,0,0,1-.2.118.628.628,0,0,1-.217.042.484.484,0,0,1-.4-.211.874.874,0,0,1-.159-.542.838.838,0,0,1,.159-.542.506.506,0,0,1,.42-.2.615.615,0,0,1,.333.1v-.52a.57.57,0,0,0-.012-.116.452.452,0,0,0-.034-.1l.3-.088Zm.613,2.191h0a.532.532,0,0,0,.03-.135,1.64,1.64,0,0,0,0-.221v-.727a1.1,1.1,0,0,0-.012-.161.45.45,0,0,0-.034-.112l.3-.1v1.32a.685.685,0,0,0,.034.143Zm.159-2.091h0a.157.157,0,0,1,.112.046.151.151,0,0,1,.044.114.141.141,0,0,1-.044.106.155.155,0,0,1-.219-.219.147.147,0,0,1,.116-.042Zm1.428,1.444h0a.705.705,0,0,0-.349.08.225.225,0,0,0-.123.2.2.2,0,0,0,.062.149.223.223,0,0,0,.159.058.255.255,0,0,0,.181-.066.2.2,0,0,0,.072-.161v-.263Zm0-.181h0v-.239a.179.179,0,0,0-.052-.145.3.3,0,0,0-.179-.044.625.625,0,0,0-.225.042.552.552,0,0,0-.181.129l-.04-.131v-.05c0-.044.052-.088.153-.131a.864.864,0,0,1,.352-.064.486.486,0,0,1,.329.094.358.358,0,0,1,.108.283v.759a.346.346,0,0,0,.028.147.3.3,0,0,0,.094.108l-.179.09-.034.014h-.018a.07.07,0,0,1-.056-.036.446.446,0,0,1-.052-.108.572.572,0,0,1-.167.108.546.546,0,0,1-.2.036.386.386,0,0,1-.283-.1.358.358,0,0,1-.1-.269.4.4,0,0,1,.173-.352,1.058,1.058,0,0,1,.536-.141Zm2.22.609h0a.681.681,0,0,0,.432-.121.4.4,0,0,0,.155-.341.285.285,0,0,0-.112-.243.526.526,0,0,0-.323-.082.854.854,0,0,0-.1,0l-.129.01-.118.773Zm.51-.9h0a.484.484,0,0,1,.259.159.438.438,0,0,1,.09.275.613.613,0,0,1-.227.5.948.948,0,0,1-.623.187H98.2a.583.583,0,0,0,.058-.129,1.064,1.064,0,0,0,.04-.175l.2-1.3a.439.439,0,0,0,.01-.066.163.163,0,0,0,0-.042.131.131,0,0,0-.038-.106.149.149,0,0,0-.112-.036H98.26l.066-.123a.2.2,0,0,1,.062-.076.15.15,0,0,1,.086-.026.271.271,0,0,1,.145.044.283.283,0,0,1,.1.123.613.613,0,0,1,.2-.131.633.633,0,0,1,.243-.044.514.514,0,0,1,.356.116.4.4,0,0,1,.133.315.522.522,0,0,1-.108.325.579.579,0,0,1-.285.2Zm-.552-.072h.08a.707.707,0,0,0,.436-.123.386.386,0,0,0,.163-.321.211.211,0,0,0-.066-.167.249.249,0,0,0-.177-.06.45.45,0,0,0-.2.048.57.57,0,0,0-.167.141l-.072.478Zm1.573.56h0v.018a.679.679,0,0,0,0,.09.376.376,0,0,0,.076.251.259.259,0,0,0,.211.092.428.428,0,0,0,.2-.046.8.8,0,0,0,.2-.141l-.022.133a.275.275,0,0,1-.135.2.564.564,0,0,1-.3.074.43.43,0,0,1-.345-.147.6.6,0,0,1-.125-.4,1.075,1.075,0,0,1,.062-.372,1.038,1.038,0,0,1,.183-.319.727.727,0,0,1,.233-.185.6.6,0,0,1,.269-.068.343.343,0,0,1,.225.076.235.235,0,0,1,.09.187.468.468,0,0,1-.217.4,1.024,1.024,0,0,1-.583.163Zm.028-.169h0a.749.749,0,0,0,.4-.116.3.3,0,0,0,.153-.241.112.112,0,0,0-.032-.086.12.12,0,0,0-.088-.032.341.341,0,0,0-.247.135.781.781,0,0,0-.177.339Zm1.818-.438h0a.293.293,0,0,0-.141.036.4.4,0,0,0-.129.1.864.864,0,0,0-.155.281,1,1,0,0,0-.058.333.374.374,0,0,0,.062.225.2.2,0,0,0,.165.084.255.255,0,0,0,.167-.062.51.51,0,0,0,.143-.169,1.352,1.352,0,0,0,.11-.287,1.253,1.253,0,0,0,.04-.3.291.291,0,0,0-.052-.185.2.2,0,0,0-.155-.062Zm.163.978h0a.581.581,0,0,1-.2.217.488.488,0,0,1-.267.08.4.4,0,0,1-.317-.141.582.582,0,0,1-.119-.38,1.183,1.183,0,0,1,.177-.615.779.779,0,0,1,.255-.255.6.6,0,0,1,.313-.094.426.426,0,0,1,.179.038.323.323,0,0,1,.123.114.285.285,0,0,1,.052-.09.072.072,0,0,1,.056-.03h.179a2.314,2.314,0,0,0-.163.5,2.453,2.453,0,0,0-.054.526.338.338,0,0,0,.05.2.2.2,0,0,0,.167.064.233.233,0,0,1-.058.117.179.179,0,0,1-.114.04.219.219,0,0,1-.165-.076.462.462,0,0,1-.094-.217Zm2.089-1.175h0l-.151,1a.128.128,0,0,1,0,.042v.1a.133.133,0,0,0,.034.1.187.187,0,0,0,.108.034h.082l-.052.123a.117.117,0,0,1-.052.06.2.2,0,0,1-.094.018.273.273,0,0,1-.173-.052.261.261,0,0,1-.088-.155.56.56,0,0,1-.211.155.645.645,0,0,1-.267.052.358.358,0,0,1-.237-.07.253.253,0,0,1-.08-.2.432.432,0,0,1,0-.072c0-.028.01-.066.016-.114l.09-.6a.368.368,0,0,1,0-.058V152.2a.141.141,0,0,0-.036-.1.171.171,0,0,0-.11-.034l.046-.114a.106.106,0,0,1,.044-.054.117.117,0,0,1,.072-.018.215.215,0,0,1,.171.076.323.323,0,0,1,.068.2.521.521,0,0,1-.016.127l-.01.078-.09.6V153a.213.213,0,0,0,0,.036.1.1,0,0,0,.028.082.141.141,0,0,0,.09.024.418.418,0,0,0,.177-.04.52.52,0,0,0,.153-.108.472.472,0,0,0,.084-.139,1.215,1.215,0,0,0,.058-.255l.072-.48a.048.048,0,0,1,0-.02v-.094a.142.142,0,0,0,0-.04.362.362,0,0,0,0-.046l.287-.052Zm1.028-.418h0l-.052.436h.145l.07-.01-.028.123a.115.115,0,0,1-.038.066.139.139,0,0,1-.08.02h-.1l-.118.781a.131.131,0,0,1-.01.068v.036a.2.2,0,0,0,.042.131.163.163,0,0,0,.125.044.3.3,0,0,0,.072,0,.379.379,0,0,0,.08-.028l-.018.125a.108.108,0,0,1-.058.084.317.317,0,0,1-.149.028.37.37,0,0,1-.257-.08.311.311,0,0,1-.088-.237.764.764,0,0,1,0-.112.889.889,0,0,1,.02-.147l.1-.683a.8.8,0,0,0-.1,0h-.076l.016-.117a.116.116,0,0,1,.03-.07.117.117,0,0,1,.078-.02h.092l.03-.221v-.07a.137.137,0,0,0,0-.052.233.233,0,0,0,0-.04l.289-.052Zm1,.4h0l-.145.968a.2.2,0,0,1-.014.1c-.014.026,0,.044,0,.066a.165.165,0,0,0,.038.119.169.169,0,0,0,.117.04h.068l-.068.127a.131.131,0,0,1-.042.052.179.179,0,0,1-.072.016.289.289,0,0,1-.219-.084.357.357,0,0,1-.078-.239.691.691,0,0,1,0-.086.261.261,0,0,1,.014-.1l.108-.7v-.064a.487.487,0,0,0,0-.056.522.522,0,0,0-.012-.078v-.012l.295-.056Zm-.03-.585h0a.137.137,0,0,1,.141.133h0a.151.151,0,0,1-.052.119.169.169,0,0,1-.123.048.149.149,0,0,1-.108-.038.133.133,0,0,1-.042-.1.157.157,0,0,1,.052-.119.177.177,0,0,1,.129-.05Zm1.372.026h0l-.046.088a.241.241,0,0,0-.06-.04.173.173,0,0,0-.064-.012.119.119,0,0,0-.1.052.3.3,0,0,0-.056.151l-.052.362h.123a.27.27,0,0,0,.06,0l-.012.1a.151.151,0,0,1-.03.082.106.106,0,0,1-.074.022h-.088l-.157,1.03a2.525,2.525,0,0,1-.135.57c-.056.133-.116.2-.181.2h-.231a.763.763,0,0,0,.181-.291,2.458,2.458,0,0,0,.117-.492l.155-1.016h-.046a.333.333,0,0,0-.064,0h-.062l.018-.125a.092.092,0,0,1,.03-.062.111.111,0,0,1,.072-.018h.078l.056-.35a.53.53,0,0,1,.139-.309.384.384,0,0,1,.285-.1.3.3,0,0,1,.129.026.074.074,0,0,1,.048.066.1.1,0,0,1,0,.034.2.2,0,0,1-.018.044Zm1.372.58h0l-.151,1a.151.151,0,0,1,0,.042c0,.052-.01.084-.01.1a.121.121,0,0,0,.034.1.165.165,0,0,0,.11.036h.078l-.052.123a.1.1,0,0,1-.052.058.179.179,0,0,1-.092.018.275.275,0,0,1-.175-.05.267.267,0,0,1-.088-.155.581.581,0,0,1-.211.155.677.677,0,0,1-.267.05.362.362,0,0,1-.237-.068.265.265,0,0,1-.082-.2.325.325,0,0,1,0-.072.332.332,0,0,1,.016-.114l.088-.6V152.2a.121.121,0,0,0-.038-.1.143.143,0,0,0-.108-.034l.046-.114a.12.12,0,0,1,.044-.056.147.147,0,0,1,.072-.018.223.223,0,0,1,.173.076.325.325,0,0,1,.064.2.69.69,0,0,1-.012.127.152.152,0,0,1-.012.078l-.088.6a.212.212,0,0,0,0,.05.108.108,0,0,0,0,.036.1.1,0,0,0,.028.082.141.141,0,0,0,.09.024.418.418,0,0,0,.177-.04A.538.538,0,0,0,108.6,153a.49.49,0,0,0,.084-.137,1.28,1.28,0,0,0,.058-.259l.072-.478v-.02a.812.812,0,0,0,0-.094.131.131,0,0,0,0-.04.319.319,0,0,0,0-.046l.287-.052Zm1.044-.755h0l-.257,1.715a.724.724,0,0,0-.014.1.412.412,0,0,0,0,.07.141.141,0,0,0,.038.112.145.145,0,0,0,.112.036h.07l-.058.119a.106.106,0,0,1-.046.06.167.167,0,0,1-.082.016.287.287,0,0,1-.213-.078.3.3,0,0,1-.078-.219,2.084,2.084,0,0,1,.024-.221V152.8l.215-1.428a.189.189,0,0,1,.01-.078.25.25,0,0,0,0-.048.176.176,0,0,0,0-.034.232.232,0,0,0-.01-.04l.293-.064Z" transform="translate(-60.12 -53.06)" fill="#7d7d7d"/>
  </g>
</svg>
