<svg xmlns="http://www.w3.org/2000/svg" width="45.674" height="48" viewBox="0 0 45.674 48">
  <g id="noun-urban-locations-5501256" transform="translate(-113.23 -30.406)">
    <path id="Path_1012" data-name="Path 1012" d="M118.377,30.406a5.147,5.147,0,0,0-5.147,5.158c0,3.73,3.708,7.141,4.85,8.084l.318.264.318-.259c.2-.156,4.813-3.924,4.813-8.084a5.147,5.147,0,0,0-5.152-5.163Z" transform="translate(0)"/>
    <path id="Path_1013" data-name="Path 1013" d="M409.409,106.01a5.147,5.147,0,0,0-5.141,5.142c0,3.73,3.7,7.141,4.85,8.084l.318.264.318-.259c.194-.156,4.813-3.924,4.813-8.084a5.147,5.147,0,0,0-5.158-5.147Z" transform="translate(-263.03 -68.328)"/>
    <path id="Path_1014" data-name="Path 1014" d="M206.516,258.61a5.141,5.141,0,0,0-5.141,5.141c0,3.724,3.7,7.135,4.85,8.084l.312.264.323-.259c.194-.156,4.807-3.924,4.807-8.084h0a5.141,5.141,0,0,0-5.152-5.147Z" transform="translate(-79.662 -206.243)"/>
    <path id="Path_1015" data-name="Path 1015" d="M485.959,378.95a5.152,5.152,0,0,0-5.141,5.147c0,3.724,3.7,7.135,4.85,8.084l.312.264.323-.259c.194-.156,4.813-3.924,4.813-8.084h0a5.157,5.157,0,0,0-5.158-5.152Z" transform="translate(-332.213 -315.001)"/>
    <path id="Path_1016" data-name="Path 1016" d="M526.02,520.171l.282-.647.647.282-.282.647Z" transform="translate(-373.065 -442.047)"/>
    <path id="Path_1017" data-name="Path 1017" d="M299.836,421.712l-1.347-.577.27-.652,1.326.582Zm-2.695-1.159-1.331-.577.286-.652,1.331.582Zm-2.641-1.159-1.331-.582.28-.647,1.331.582Zm-2.662-1.159-1.331-.582.28-.647,1.331.582Zm-2.662-1.159-1.331-.582.286-.647,1.331.582Zm-2.657-1.159-1.331-.582.28-.647,1.332.6Zm-2.662-1.164-1.331-.582.28-.647,1.331.582Zm-2.662-1.159-1.331-.582.286-.647,1.326.577Zm-2.662-1.159-1.331-.577.28-.647,1.337.576Z" transform="translate(-148.191 -344.161)"/>
    <path id="Path_1018" data-name="Path 1018" d="M252.193,399.531l-1.2-.517,1.029-.8.431.561-.086.065.1.043Z" transform="translate(-124.508 -332.413)"/>
    <path id="Path_1019" data-name="Path 1019" d="M274.331,278.62l-.431-.539,1.175-.911.431.539Zm2.349-1.816-.431-.539,1.2-.927.431.539Zm2.35-1.816-.431-.539,1.176-.927.431.539Zm2.349-1.816-.431-.539,1.175-.911.431.539Zm2.35-1.806-.431-.539,1.159-.938.431.539Zm2.344-1.827-.431-.539,1.169-.911.436.539Zm2.349-1.816-.436-.539,1.175-.911.436.539Z" transform="translate(-145.207 -213.169)"/>
    <path id="Path_1020" data-name="Path 1020" d="M445.184,250.831l-.431-.555.005-.005h-.005l.194-.679,1.353.382Z" transform="translate(-299.619 -198.092)"/>
    <path id="Path_1021" data-name="Path 1021" d="M215.6,185.682l-1.353-.383.194-.679,1.347.377Zm-2.695-.76-1.358-.388.194-.679,1.347.377Zm-2.695-.76-1.347-.383.189-.679,1.347.377Zm-2.695-.76-1.347-.383.189-.679,1.353.383Zm-2.695-.76-1.347-.383.189-.679,1.353.383Zm-2.695-.76-1.347-.383.189-.679,1.353.383Zm-2.695-.76-1.38-.362.194-.679,1.347.383Zm-2.695-.76-1.353-.383.194-.679,1.347.383Zm-2.695-.76-1.353-.383.194-.679,1.347.383Z" transform="translate(-71.818 -133.881)"/>
    <path id="Path_1022" data-name="Path 1022" d="M171.24,173.257l.191-.68.68.191-.191.68Z" transform="translate(-52.427 -128.489)"/>
  </g>
</svg>
