<svg xmlns="http://www.w3.org/2000/svg" xmlns:xlink="http://www.w3.org/1999/xlink" width="600.056" height="585.422" viewBox="0 0 600.056 585.422">
  <defs>
    <clipPath id="clip-path">
      <rect id="Rectangle_366" data-name="Rectangle 366" width="215.867" height="214.758" fill="none"/>
    </clipPath>
    <clipPath id="clip-path-3">
      <rect id="Rectangle_368" data-name="Rectangle 368" width="179.272" height="182.239" fill="none"/>
    </clipPath>
    <clipPath id="clip-path-4">
      <rect id="Rectangle_369" data-name="Rectangle 369" width="253.941" height="236.285" fill="none"/>
    </clipPath>
  </defs>
  <g id="Group_375" data-name="Group 375" transform="translate(-1608.885 -4581.499)">
    <g id="Group_335" data-name="Group 335" transform="translate(1715.826 4581.499)">
      <g id="Group_332" data-name="Group 332">
        <g id="Group_331" data-name="Group 331" clip-path="url(#clip-path)">
          <circle id="Ellipse_121" data-name="Ellipse 121" cx="73.232" cy="73.232" r="73.232" transform="translate(34.702 34.62)" fill="none" stroke="#31ea00" stroke-width="12.832"/>
          <path id="Path_995" data-name="Path 995" d="M214.818,107.544c0,5-7.511,9.408-8.2,14.218-.7,4.929,5.259,11.265,3.886,15.945-1.4,4.761-9.846,6.872-11.881,11.321-2.057,4.5,1.865,12.267-.791,16.392-2.672,4.149-11.373,3.793-14.594,7.506s-1.643,12.283-5.365,15.51-11.963.442-16.112,3.114c-4.125,2.655-5.008,11.32-9.507,13.378-4.448,2.036-11.574-2.957-16.335-1.561-4.679,1.371-7.977,9.432-12.907,10.135-4.81.686-10.233-6.115-15.232-6.115s-10.423,6.8-15.233,6.115c-4.929-.7-8.228-8.763-12.907-10.135-4.762-1.4-11.888,3.6-16.337,1.56-4.5-2.057-5.382-10.722-9.507-13.378-4.149-2.672-12.4.107-16.112-3.115s-2.138-11.787-5.365-15.509-11.922-3.358-14.594-7.507c-2.655-4.124,1.267-11.893-.79-16.391-2.036-4.45-10.486-6.561-11.881-11.321-1.371-4.679,4.589-11.015,3.886-15.945-.685-4.809-8.2-9.217-8.2-14.217s7.511-9.408,8.2-14.218C9.647,88.4,3.687,82.06,5.058,77.38c1.4-4.761,9.847-6.872,11.881-11.321,2.058-4.5-1.864-12.267.791-16.392,2.672-4.149,11.373-3.793,14.6-7.506s1.643-12.283,5.363-15.51,11.964-.442,16.113-3.114c4.124-2.655,5.007-11.32,9.506-13.378,4.45-2.036,11.575,2.957,16.335,1.561,4.68-1.371,7.978-9.432,12.908-10.135C97.36.9,102.784,7.7,107.784,7.7" transform="translate(0.151 0.309)" fill="none" stroke="#fff" stroke-width="1.497"/>
          <text id="_" data-name=" " transform="translate(122.81 7.098) rotate(12.598)" fill="#fff" font-size="8" font-family="MyriadPro-Regular, Myriad Pro"><tspan x="0" y="0"> </tspan></text>
          <text id="_2" data-name=" " transform="translate(125.846 7.776) rotate(14.212)" fill="#fff" font-size="8" font-family="MyriadPro-Regular, Myriad Pro"><tspan x="0" y="0"> </tspan></text>
          <text id="_3" data-name=" " transform="translate(128.89 8.549) rotate(15.842)" fill="#fff" font-size="8" font-family="MyriadPro-Regular, Myriad Pro"><tspan x="0" y="0"> </tspan></text>
          <text id="_4" data-name=" " transform="matrix(0.954, 0.3, -0.3, 0.954, 131.882, 9.399)" fill="#fff" font-size="8" font-family="MyriadPro-Regular, Myriad Pro"><tspan x="0" y="0"> </tspan></text>
        </g>
      </g>
      <text id="_5" data-name=" " transform="translate(134.858 10.336) rotate(19.075)" fill="#fff" font-size="8" font-family="MyriadPro-Regular, Myriad Pro"><tspan x="0" y="0"> </tspan></text>
      <text id="M" transform="translate(136.769 14.016) rotate(22.948)" fill="#fff" font-size="12" font-family="MyriadPro-Regular, Myriad Pro"><tspan x="0" y="0">M</tspan></text>
      <text id="_6" data-name=" " transform="matrix(0.892, 0.451, -0.451, 0.892, 148.701, 15.974)" fill="#fff" font-size="8" font-family="MyriadPro-Regular, Myriad Pro"><tspan x="0" y="0"> </tspan></text>
      <text id="_7" data-name=" " transform="matrix(0.879, 0.476, -0.476, 0.879, 151.486, 17.383)" fill="#fff" font-size="8" font-family="MyriadPro-Regular, Myriad Pro"><tspan x="0" y="0"> </tspan></text>
      <text id="E" transform="translate(152.255 22.293) rotate(31.121)" fill="#fff" font-size="13" font-family="MyriadPro-Regular, Myriad Pro"><tspan x="0" y="0">E</tspan></text>
      <text id="_8" data-name=" " transform="matrix(0.831, 0.556, -0.556, 0.831, 160.445, 22.621)" fill="#fff" font-size="8" font-family="MyriadPro-Regular, Myriad Pro"><tspan x="0" y="0"> </tspan></text>
      <text id="_9" data-name=" " transform="translate(163.057 24.371) rotate(35.389)" fill="#fff" font-size="8" font-family="MyriadPro-Regular, Myriad Pro"><tspan x="0" y="0"> </tspan></text>
      <text id="A" transform="translate(163.195 29.276) rotate(38.488)" fill="#fff" font-size="13" font-family="MyriadPro-Regular, Myriad Pro"><tspan x="0" y="0">A</tspan></text>
      <text id="_10" data-name=" " transform="matrix(0.748, 0.664, -0.664, 0.748, 172.652, 31.791)" fill="#fff" font-size="8" font-family="MyriadPro-Regular, Myriad Pro"><tspan x="0" y="0"> </tspan></text>
      <text id="_11" data-name=" " transform="translate(174.965 33.844) rotate(43.181)" fill="#fff" font-size="8" font-family="MyriadPro-Regular, Myriad Pro"><tspan x="0" y="0"> </tspan></text>
      <text id="S" transform="translate(174.446 38.775) rotate(45.839)" fill="#fff" font-size="13" font-family="MyriadPro-Regular, Myriad Pro"><tspan x="0" y="0">S</tspan></text>
      <text id="_12" data-name=" " transform="translate(182.315 41.209) rotate(48.497)" fill="#fff" font-size="8" font-family="MyriadPro-Regular, Myriad Pro"><tspan x="0" y="0"> </tspan></text>
      <text id="_13" data-name=" " transform="matrix(0.642, 0.767, -0.767, 0.642, 184.365, 43.527)" fill="#fff" font-size="8" font-family="MyriadPro-Regular, Myriad Pro"><tspan x="0" y="0"> </tspan></text>
      <text id="U" transform="translate(183.283 48.325) rotate(53.32)" fill="#fff" font-size="13" font-family="MyriadPro-Regular, Myriad Pro"><tspan x="0" y="0">U</tspan></text>
      <text id="_14" data-name=" " transform="matrix(0.551, 0.834, -0.834, 0.551, 192.058, 53.564)" fill="#fff" font-size="8" font-family="MyriadPro-Regular, Myriad Pro"><tspan x="0" y="0"> </tspan></text>
      <text id="_15" data-name=" " transform="matrix(0.527, 0.85, -0.85, 0.527, 193.793, 56.193)" fill="#fff" font-size="8" font-family="MyriadPro-Regular, Myriad Pro"><tspan x="0" y="0"> </tspan></text>
      <text id="R" transform="matrix(0.485, 0.875, -0.875, 0.485, 192.013, 60.793)" fill="#fff" font-size="13" font-family="MyriadPro-Regular, Myriad Pro"><tspan x="0" y="0">R</tspan></text>
      <text id="_16" data-name=" " transform="translate(199.275 65.774) rotate(63.841)" fill="#fff" font-size="8" font-family="MyriadPro-Regular, Myriad Pro"><tspan x="0" y="0"> </tspan></text>
      <text id="_17" data-name=" " transform="matrix(0.415, 0.91, -0.91, 0.415, 200.658, 68.585)" fill="#fff" font-size="8" font-family="MyriadPro-Regular, Myriad Pro"><tspan x="0" y="0"> </tspan></text>
      <text id="E-2" data-name="E" transform="translate(198.299 72.936) rotate(68.126)" fill="#fff" font-size="13" font-family="MyriadPro-Regular, Myriad Pro"><tspan x="0" y="0">E</tspan></text>
      <text id="_18" data-name=" " transform="translate(204.639 78.123) rotate(70.789)" fill="#fff" font-size="8" font-family="MyriadPro-Regular, Myriad Pro"><tspan x="0" y="0"> </tspan></text>
      <g id="Group_334" data-name="Group 334">
        <g id="Group_333" data-name="Group 333" clip-path="url(#clip-path)">
          <text id="_19" data-name=" " transform="translate(205.668 81.074) rotate(72.403)" fill="#fff" font-size="8" font-family="MyriadPro-Regular, Myriad Pro"><tspan x="0" y="0"> </tspan></text>
        </g>
      </g>
    </g>
    <g id="Group_338" data-name="Group 338" transform="translate(1859.362 5016.571) rotate(123)">
      <g id="Group_337" data-name="Group 337">
        <g id="Group_336" data-name="Group 336" clip-path="url(#clip-path-3)">
          <circle id="Ellipse_122" data-name="Ellipse 122" cx="60.978" cy="60.978" r="60.978" transform="translate(26.467 30.013)" fill="none" stroke="#fff" stroke-width="16"/>
          <path id="Path_996" data-name="Path 996" d="M91.359,4.3A3.914,3.914,0,1,1,87.446.392,3.913,3.913,0,0,1,91.359,4.3Z" fill="none" stroke="#fff" stroke-width="0.785"/>
          <path id="Path_997" data-name="Path 997" d="M142.281,20.094a3.914,3.914,0,1,1-3.913-3.913A3.913,3.913,0,0,1,142.281,20.094Z" fill="none" stroke="#fff" stroke-width="0.785"/>
          <path id="Path_998" data-name="Path 998" d="M173.345,63.556a3.913,3.913,0,1,1-3.913-3.913A3.913,3.913,0,0,1,173.345,63.556Z" fill="none" stroke="#fff" stroke-width="0.785"/>
          <path id="Path_999" data-name="Path 999" d="M40.483,20.094a3.914,3.914,0,1,1-3.913-3.913A3.913,3.913,0,0,1,40.483,20.094Z" fill="none" stroke="#fff" stroke-width="0.785"/>
          <path id="Path_1000" data-name="Path 1000" d="M9.09,63.556a3.914,3.914,0,1,1-3.913-3.913A3.913,3.913,0,0,1,9.09,63.556Z" fill="none" stroke="#fff" stroke-width="0.785"/>
          <path id="Path_1001" data-name="Path 1001" d="M8.219,117.751a3.914,3.914,0,1,1-3.913-3.912A3.913,3.913,0,0,1,8.219,117.751Z" fill="none" stroke="#fff" stroke-width="0.785"/>
          <path id="Path_1002" data-name="Path 1002" d="M40.483,160.894a3.914,3.914,0,1,1-3.913-3.913A3.913,3.913,0,0,1,40.483,160.894Z" fill="none" stroke="#fff" stroke-width="0.785"/>
          <path id="Path_1003" data-name="Path 1003" d="M91.359,177.933a3.914,3.914,0,1,1-3.913-3.913A3.913,3.913,0,0,1,91.359,177.933Z" fill="none" stroke="#fff" stroke-width="0.785"/>
          <path id="Path_1004" data-name="Path 1004" d="M61.994,173.536a1.441,1.441,0,1,1-1.441-1.441,1.441,1.441,0,0,1,1.441,1.441" fill="#fff"/>
          <path id="Path_1005" data-name="Path 1005" d="M121.206,173.89a1.441,1.441,0,1,1-1.441-1.441,1.441,1.441,0,0,1,1.441,1.441" fill="#fff"/>
          <path id="Path_1006" data-name="Path 1006" d="M19.168,142.263a1.441,1.441,0,1,1-1.441-1.441,1.441,1.441,0,0,1,1.441,1.441" fill="#fff"/>
          <path id="Path_1007" data-name="Path 1007" d="M19.168,39.168a1.441,1.441,0,1,1-1.441-1.441,1.441,1.441,0,0,1,1.441,1.441" fill="#fff"/>
          <path id="Path_1008" data-name="Path 1008" d="M61.994,8.377a1.441,1.441,0,1,1-1.441-1.441,1.441,1.441,0,0,1,1.441,1.441" fill="#fff"/>
          <path id="Path_1009" data-name="Path 1009" d="M115.739,8.377A1.441,1.441,0,1,1,114.3,6.936a1.441,1.441,0,0,1,1.441,1.441" fill="#fff"/>
          <path id="Path_1010" data-name="Path 1010" d="M159.432,39.168a1.441,1.441,0,1,1-1.441-1.441,1.441,1.441,0,0,1,1.441,1.441" fill="#fff"/>
          <path id="Path_1011" data-name="Path 1011" d="M176.962,92.861a1.441,1.441,0,1,1-1.441-1.441,1.441,1.441,0,0,1,1.441,1.441" fill="#fff"/>
          <text id="P" transform="translate(169.811 118.023) rotate(110.287)" fill="#fff" font-size="12" font-family="MyriadPro-Regular, Myriad Pro"><tspan x="0" y="0">P</tspan></text>
        </g>
      </g>
      <text id="_20" data-name=" " transform="translate(167.577 123.927) rotate(113.212)" fill="#fff" font-size="12" font-family="MyriadPro-Regular, Myriad Pro"><tspan x="0" y="0"> </tspan></text>
      <text id="_21" data-name=" " transform="matrix(-0.42, 0.907, -0.907, -0.42, 166.605, 126.195)" fill="#fff" font-size="12" font-family="MyriadPro-Regular, Myriad Pro"><tspan x="0" y="0"> </tspan></text>
      <text id="L" transform="matrix(-0.462, 0.887, -0.887, -0.462, 165.612, 128.43)" fill="#fff" font-size="12" font-family="MyriadPro-Regular, Myriad Pro"><tspan x="0" y="0">L</tspan></text>
      <text id="_22" data-name=" " transform="translate(163.003 133.368) rotate(120.181)" fill="#fff" font-size="12" font-family="MyriadPro-Regular, Myriad Pro"><tspan x="0" y="0"> </tspan></text>
      <text id="_23" data-name=" " transform="matrix(-0.527, 0.85, -0.85, -0.527, 161.755, 135.514)" fill="#fff" font-size="12" font-family="MyriadPro-Regular, Myriad Pro"><tspan x="0" y="0"> </tspan></text>
      <text id="A-2" data-name="A" transform="matrix(-0.574, 0.819, -0.819, -0.574, 160.533, 137.613)" fill="#fff" font-size="12" font-family="MyriadPro-Regular, Myriad Pro"><tspan x="0" y="0">A</tspan></text>
      <text id="_24" data-name=" " transform="matrix(-0.618, 0.786, -0.786, -0.618, 156.325, 143.511)" fill="#fff" font-size="12" font-family="MyriadPro-Regular, Myriad Pro"><tspan x="0" y="0"> </tspan></text>
      <text id="_25" data-name=" " transform="matrix(-0.641, 0.768, -0.768, -0.641, 154.797, 145.454)" fill="#fff" font-size="12" font-family="MyriadPro-Regular, Myriad Pro"><tspan x="0" y="0"> </tspan></text>
      <text id="N" transform="matrix(-0.685, 0.729, -0.729, -0.685, 153.283, 147.395)" fill="#fff" font-size="12" font-family="MyriadPro-Regular, Myriad Pro"><tspan x="0" y="0">N</tspan></text>
      <text id="_26" data-name=" " transform="matrix(-0.726, 0.688, -0.688, -0.726, 147.909, 153.008)" fill="#fff" font-size="12" font-family="MyriadPro-Regular, Myriad Pro"><tspan x="0" y="0"> </tspan></text>
      <text id="_27" data-name=" " transform="translate(146.119 154.707) rotate(138.181)" fill="#fff" font-size="12" font-family="MyriadPro-Regular, Myriad Pro"><tspan x="0" y="0"> </tspan></text>
    </g>
    <g id="Group_341" data-name="Group 341" transform="translate(1955 4785)">
      <g id="Group_340" data-name="Group 340">
        <g id="Group_339" data-name="Group 339" clip-path="url(#clip-path-4)">
          <circle id="Ellipse_123" data-name="Ellipse 123" cx="78.286" cy="78.286" r="78.286" transform="translate(57.573 39.856)" fill="none" stroke="#fff" stroke-width="23"/>
          <line id="Line_90" data-name="Line 90" x1="3.649" y2="12.158" transform="translate(167.487 5.82)" fill="none" stroke="#fff" stroke-width="1"/>
          <line id="Line_91" data-name="Line 91" x1="12.158" y1="3.649" transform="translate(163.232 10.075)" fill="none" stroke="#fff" stroke-width="1"/>
          <line id="Line_92" data-name="Line 92" y2="12.693" transform="translate(133.164 -0.001)" fill="none" stroke="#fff" stroke-width="1"/>
          <line id="Line_93" data-name="Line 93" x1="12.693" transform="translate(126.818 6.346)" fill="none" stroke="#fff" stroke-width="1"/>
          <line id="Line_94" data-name="Line 94" x2="4.796" y2="11.752" transform="translate(90.065 6.732)" fill="none" stroke="#fff" stroke-width="1"/>
          <line id="Line_95" data-name="Line 95" x1="11.752" y2="4.796" transform="translate(86.587 10.209)" fill="none" stroke="#fff" stroke-width="1"/>
          <line id="Line_96" data-name="Line 96" x1="6.948" y2="10.624" transform="translate(199.137 23.38)" fill="none" stroke="#fff" stroke-width="1"/>
          <line id="Line_97" data-name="Line 97" x1="10.624" y1="6.948" transform="translate(197.299 25.218)" fill="none" stroke="#fff" stroke-width="1"/>
          <line id="Line_98" data-name="Line 98" x1="10.291" y2="7.431" transform="translate(222.367 50.592)" fill="none" stroke="#fff" stroke-width="1"/>
          <line id="Line_99" data-name="Line 99" x1="7.431" y1="10.291" transform="translate(223.797 49.162)" fill="none" stroke="#fff" stroke-width="1"/>
          <line id="Line_100" data-name="Line 100" x1="12.214" y2="3.456" transform="translate(237.205 87.019)" fill="none" stroke="#fff" stroke-width="1"/>
          <line id="Line_101" data-name="Line 101" x1="3.456" y1="12.214" transform="translate(241.584 82.639)" fill="none" stroke="#fff" stroke-width="1"/>
          <line id="Line_102" data-name="Line 102" x1="12.691" y1="0.29" transform="translate(241.236 125.318)" fill="none" stroke="#fff" stroke-width="1"/>
          <line id="Line_103" data-name="Line 103" y1="12.691" x2="0.29" transform="translate(247.436 119.117)" fill="none" stroke="#fff" stroke-width="1"/>
          <line id="Line_104" data-name="Line 104" x1="11.72" y1="4.876" transform="translate(233.183 159.456)" fill="none" stroke="#fff" stroke-width="1"/>
          <line id="Line_105" data-name="Line 105" y1="11.72" x2="4.876" transform="translate(236.605 156.034)" fill="none" stroke="#fff" stroke-width="1"/>
          <line id="Line_106" data-name="Line 106" x1="9.526" y1="8.389" transform="translate(215.21 188.154)" fill="none" stroke="#fff" stroke-width="1"/>
          <line id="Line_107" data-name="Line 107" y1="9.526" x2="8.389" transform="translate(215.779 187.586)" fill="none" stroke="#fff" stroke-width="1"/>
          <line id="Line_108" data-name="Line 108" x1="6.349" y1="10.992" transform="translate(189.191 209.622)" fill="none" stroke="#fff" stroke-width="1"/>
          <line id="Line_109" data-name="Line 109" y1="6.349" x2="10.992" transform="translate(186.869 211.944)" fill="none" stroke="#fff" stroke-width="1"/>
          <line id="Line_110" data-name="Line 110" y1="12.523" x2="2.076" transform="translate(120.457 223.657)" fill="none" stroke="#fff" stroke-width="1"/>
          <line id="Line_111" data-name="Line 111" x2="12.523" y2="2.076" transform="translate(115.233 228.881)" fill="none" stroke="#fff" stroke-width="1"/>
          <line id="Line_112" data-name="Line 112" y1="11.442" x2="5.497" transform="translate(83.738 213.951)" fill="none" stroke="#fff" stroke-width="1"/>
          <line id="Line_113" data-name="Line 113" x2="11.442" y2="5.497" transform="translate(80.766 216.923)" fill="none" stroke="#fff" stroke-width="1"/>
          <line id="Line_114" data-name="Line 114" x1="2.926" y1="12.352" transform="translate(156.748 222.319)" fill="none" stroke="#fff" stroke-width="1"/>
          <line id="Line_115" data-name="Line 115" y1="2.926" x2="12.352" transform="translate(152.035 227.032)" fill="none" stroke="#fff" stroke-width="1"/>
          <line id="Line_116" data-name="Line 116" y1="9.376" x2="8.557" transform="translate(52.323 193.068)" fill="none" stroke="#fff" stroke-width="1"/>
          <line id="Line_117" data-name="Line 117" x2="9.376" y2="8.557" transform="translate(51.914 193.478)" fill="none" stroke="#fff" stroke-width="1"/>
          <line id="Line_118" data-name="Line 118" y1="6.051" x2="11.159" transform="translate(29.391 164.561)" fill="none" stroke="#fff" stroke-width="1"/>
          <line id="Line_119" data-name="Line 119" x2="6.051" y2="11.159" transform="translate(31.945 162.007)" fill="none" stroke="#fff" stroke-width="1"/>
        </g>
      </g>
      <text id="O" transform="matrix(-0.049, -0.999, 0.999, -0.049, 25.651, 129.907)" fill="#fff" font-size="14" font-family="MyriadPro-Regular, Myriad Pro"><tspan x="0" y="0">O</tspan></text>
      <text id="_28" data-name=" " transform="translate(23.244 119.398) rotate(-89.347)" fill="#fff" font-size="12" font-family="MyriadPro-Regular, Myriad Pro"><tspan x="0" y="0"> </tspan></text>
      <text id="_29" data-name=" " transform="translate(23.28 116.121) rotate(-87.703)" fill="#fff" font-size="12" font-family="MyriadPro-Regular, Myriad Pro"><tspan x="0" y="0"> </tspan></text>
      <text id="P-2" data-name="P" transform="translate(25.341 113.052) rotate(-84.832)" fill="#fff" font-size="14" font-family="MyriadPro-Regular, Myriad Pro"><tspan x="0" y="0">P</tspan></text>
      <text id="_30" data-name=" " transform="translate(24.146 104.73) rotate(-81.953)" fill="#fff" font-size="12" font-family="MyriadPro-Regular, Myriad Pro"><tspan x="0" y="0"> </tspan></text>
      <text id="_31" data-name=" " transform="translate(24.607 101.479) rotate(-80.299)" fill="#fff" font-size="12" font-family="MyriadPro-Regular, Myriad Pro"><tspan x="0" y="0"> </tspan></text>
      <text id="T" transform="matrix(0.21, -0.978, 0.978, 0.21, 25.966, 99.097)" fill="#fff" font-size="13" font-family="MyriadPro-Regular, Myriad Pro"><tspan x="0" y="0">T</tspan></text>
      <text id="_32" data-name=" " transform="translate(26.649 91.409) rotate(-75.124)" fill="#fff" font-size="12" font-family="MyriadPro-Regular, Myriad Pro"><tspan x="0" y="0"> </tspan></text>
      <text id="_33" data-name=" " transform="translate(27.487 88.253) rotate(-73.481)" fill="#fff" font-size="12" font-family="MyriadPro-Regular, Myriad Pro"><tspan x="0" y="0"> </tspan></text>
      <text id="I" transform="translate(28.414 85.116) rotate(-71.734)" fill="#fff" font-size="12" font-family="MyriadPro-Regular, Myriad Pro"><tspan x="0" y="0">I</tspan></text>
      <text id="_34" data-name=" " transform="translate(29.57 81.624) rotate(-69.993)" fill="#fff" font-size="12" font-family="MyriadPro-Regular, Myriad Pro"><tspan x="0" y="0"> </tspan></text>
      <text id="_35" data-name=" " transform="translate(30.697 78.532) rotate(-68.344)" fill="#fff" font-size="12" font-family="MyriadPro-Regular, Myriad Pro"><tspan x="0" y="0"> </tspan></text>
      <text id="M-2" data-name="M" transform="translate(33.562 76.303) rotate(-64.435)" fill="#fff" font-size="14" font-family="MyriadPro-Regular, Myriad Pro"><tspan x="0" y="0">M</tspan></text>
      <text id="_36" data-name=" " transform="translate(37.249 64.323) rotate(-60.526)" fill="#fff" font-size="12" font-family="MyriadPro-Regular, Myriad Pro"><tspan x="0" y="0"> </tspan></text>
      <text id="_37" data-name=" " transform="translate(38.846 61.494) rotate(-58.912)" fill="#fff" font-size="12" font-family="MyriadPro-Regular, Myriad Pro"><tspan x="0" y="0"> </tspan></text>
      <text id="I-2" data-name="I" transform="translate(40.522 58.708) rotate(-57.189)" fill="#fff" font-size="12" font-family="MyriadPro-Regular, Myriad Pro"><tspan x="0" y="0">I</tspan></text>
      <text id="_38" data-name=" " transform="translate(42.525 55.611) rotate(-55.459)" fill="#fff" font-size="12" font-family="MyriadPro-Regular, Myriad Pro"><tspan x="0" y="0"> </tspan></text>
      <text id="_39" data-name=" " transform="translate(44.376 52.922) rotate(-53.835)" fill="#fff" font-size="12" font-family="MyriadPro-Regular, Myriad Pro"><tspan x="0" y="0"> </tspan></text>
      <text id="Z" transform="matrix(0.631, -0.776, 0.776, 0.631, 47.02, 50.878)" fill="#fff" font-size="13" font-family="MyriadPro-Regular, Myriad Pro"><tspan x="0" y="0">Z</tspan></text>
      <text id="_40" data-name=" " transform="translate(51.663 43.685) rotate(-47.985)" fill="#fff" font-size="12" font-family="MyriadPro-Regular, Myriad Pro"><tspan x="0" y="0"> </tspan></text>
      <text id="_41" data-name=" " transform="matrix(0.69, -0.724, 0.724, 0.69, 53.853, 41.257)" fill="#fff" font-size="12" font-family="MyriadPro-Regular, Myriad Pro"><tspan x="0" y="0"> </tspan></text>
      <text id="E-3" data-name="E" transform="translate(57.449 40.304) rotate(-43.658)" fill="#fff" font-size="14" font-family="MyriadPro-Regular, Myriad Pro"><tspan x="0" y="0">E</tspan></text>
    </g>
  </g>
</svg>
