<svg xmlns="http://www.w3.org/2000/svg" xmlns:xlink="http://www.w3.org/1999/xlink" width="584" height="350" viewBox="0 0 584 350">
  <defs>
    <clipPath id="clip-path">
      <rect id="Rectangle_224" data-name="Rectangle 224" width="584" height="350" transform="translate(614 921)" fill="#fff" stroke="#707070" stroke-width="1"/>
    </clipPath>
  </defs>
  <g id="Mask_Group_33" data-name="Mask Group 33" transform="translate(-614 -921)" clip-path="url(#clip-path)">
    <g id="Group_550" data-name="Group 550" transform="translate(-12820.56 -7673.915)">
      <g id="Cube_1_" transform="translate(13799.776 8703.541)">
        <g id="Group_160" data-name="Group 160" transform="translate(0 0)">
          <rect id="Rectangle_154" data-name="Rectangle 154" width="20.278" height="270.016" transform="translate(1.137 1.137)" fill="#fff" stroke="#000" stroke-width="1"/>
          <path id="Path_45" data-name="Path 45" d="M3599.552,2470.291H3577V2198h22.552Zm-22.13-7.692h21.708V2205.692h-21.708Z" transform="translate(-3577 -2198)" fill="#25383f" stroke="#000" stroke-width="1"/>
        </g>
      </g>
      <g id="Cube_1_2" data-name="Cube_1_" transform="translate(13486.438 8894.882)">
        <g id="Group_160-2" data-name="Group 160" transform="translate(0 0)">
          <rect id="Rectangle_154-2" data-name="Rectangle 154" width="119.151" height="78.221" transform="translate(1.137 1.137)" fill="#fff"/>
          <path id="Path_45-2" data-name="Path 45" d="M3698.425,2278.5H3577V2198h121.424Zm-119.15-2.274h116.876v-75.948H3579.274Z" transform="translate(-3577 -2198)" fill="#25383f"/>
        </g>
      </g>
      <g id="Woman_4_" transform="translate(13531.877 8740.914)">
        <g id="Group_161" data-name="Group 161" transform="translate(87.176 208.086)">
          <path id="Path_46" data-name="Path 46" d="M3869.332,2328.052c1.637,1.091,5.957,2.592,17.19,2.592,0,0,10.915,1.819,14.553-3.638l-3.184-9.551-25.467-.454-3.684,9.05A1.649,1.649,0,0,0,3869.332,2328.052Z" transform="translate(-3868.607 -2317)" fill="#25383f"/>
        </g>
        <g id="Group_162" data-name="Group 162" transform="translate(148.294 169.43)">
          <path id="Path_47" data-name="Path 47" d="M4004.82,2255.648s5.184,2.865,15.007-3.638c3.593-2.41,10.915-8.186,10.46-13.643l-9.55-6.367L4003,2243.369Z" transform="translate(-4003 -2232)" fill="#25383f"/>
        </g>
        <g id="Group_165" data-name="Group 165" transform="translate(13.13 0)">
          <g id="Group_163" data-name="Group 163" transform="translate(15.604 13.216)">
            <path id="Path_48" data-name="Path 48" d="M3759.827,1932.43V1915.1s14.689,1.455,3.684-23.6l-20.51,6.549,2.911,15.053-2.365,18.418Z" transform="translate(-3741.681 -1890.136)" fill="#fff"/>
            <path id="Path_49" data-name="Path 49" d="M3759.383,1931.977l-18.691-1.092,2.5-19.419-3.093-15.826,22.466-7.14.409.955c4.594,10.46,5.412,17.827,2.411,21.966a7.908,7.908,0,0,1-6,3.184Zm-16.144-3.183,13.87.818v-17.372l1.228.136a6.092,6.092,0,0,0,5.184-2.274c1.637-2.32,2.547-7.413-2.274-18.782l-18.6,5.912,2.774,14.234Z" transform="translate(-3740.1 -1888.5)" fill="#25383f"/>
          </g>
          <g id="Group_164" data-name="Group 164">
            <path id="Path_50" data-name="Path 50" d="M3732.853,1883.661s-1.956-3.82-4.365-1.319c-1.047,1.046-1.092,4,2.637,5.321,0,0,.591,6.685-6.139,7.367,0,0-8.459-8.5-5.594-18.146,0,0-11.6,2.911-13.506-7.64-.592-3.183,1.455-9.187,8.413-9.778,3.456-.273,9.732,1.41,9.868,9.687,0,0,14.553-8.231,21.1,6.912C3745.268,1876.021,3740.038,1883.388,3732.853,1883.661Z" transform="translate(-3705.789 -1859.44)" fill="#25383f"/>
          </g>
        </g>
        <g id="Group_166" data-name="Group 166" transform="translate(3.676 112.447)">
          <path id="Path_51" data-name="Path 51" d="M3685,2119.116s0,11.369,39.564,3.184a20.672,20.672,0,0,0,14.235-15.6l-47.434,5.821Z" transform="translate(-3685 -2106.7)" fill="#fff" stroke="#000" stroke-width="1"/>
        </g>
        <g id="Group_167" data-name="Group 167" transform="translate(90.22 209.086)">
          <path id="Path_52" data-name="Path 52" d="M3893.381,2321.9s3.547,13.143,11.915,14.6c10.459,1.819,13.461,7.367,13.734,8.64H3878.1l2.865-22.784Z" transform="translate(-3876.827 -2320.672)" fill="#fff"/>
          <path id="Path_53" data-name="Path 53" d="M3918.913,2344.8H3875.3l3.139-25.058,14.279-.546.228.864c.045.136,3.456,12.461,11.005,13.78,10.778,1.864,14.28,7.685,14.644,9.55Zm-41.066-2.274h37.837c-1.319-1.956-4.821-5.139-12.143-6.412-7.777-1.319-11.551-11.46-12.552-14.553l-10.6.409Z" transform="translate(-3875.3 -2319.2)" fill="#25383f"/>
        </g>
        <g id="Group_168" data-name="Group 168" transform="translate(153.251 172.568)">
          <path id="Path_54" data-name="Path 54" d="M4028.906,2241.9s9.687,9.141,18.782,5.548c9.914-3.911,15.326-1.183,16.236-.228l-34.29,22.33-12.234-22.33Z" transform="translate(-4015.809 -2240.536)" fill="#fff"/>
          <path id="Path_55" data-name="Path 55" d="M4027.316,2269.552l-13.416-24.467,13.325-6.185.545.546c.092.091,9.278,8.6,17.6,5.321,10.277-4.048,16.189-1.274,17.463.045l.955,1Zm-10.278-23.421,11.051,20.192,31.744-20.647c-2.138-.819-6.731-1.455-13.644,1.228-8.458,3.32-17.1-3.32-19.374-5.275Z" transform="translate(-4013.9 -2238.9)" fill="#25383f"/>
        </g>
        <g id="Group_171" data-name="Group 171" transform="translate(7.839 114.175)">
          <g id="Group_169" data-name="Group 169" transform="translate(1.144 1.137)">
            <path id="Path_56" data-name="Path 56" d="M3697.548,2113s-6.321,33.38,14.962,37.337c21.283,4,67.125-6.958,67.125-6.958L3776,2213.823s7.685-4.457,15.872-4a33.585,33.585,0,0,1,14.371,4l9.323-100.732Z" transform="translate(-3696.67 -2113)" fill="#dee6e9"/>
          </g>
          <g id="Group_170" data-name="Group 170">
            <path id="Path_57" data-name="Path 57" d="M3773.4,2214.507l.092-2.092,3.547-68.944c-8.186,1.865-46.751,10.278-66.124,6.64a17.75,17.75,0,0,1-11.779-7.64c-7.686-11.278-4.229-30.242-4.048-31.061l.182-.91,120.2.136-9.6,103.779-1.546-.955a32.455,32.455,0,0,0-13.825-3.82c-7.731-.454-15.144,3.775-15.235,3.82Zm15.917-7.185a12,12,0,0,1,1.274.045,36.635,36.635,0,0,1,13.325,3.32l9.05-97.776-115.785-.136c-.591,3.911-2.364,19.282,3.865,28.423a15.61,15.61,0,0,0,10.323,6.686c20.783,3.911,66.215-6.868,66.67-6.958l1.5-.364-3.593,70.035A32.426,32.426,0,0,1,3789.313,2207.321Z" transform="translate(-3694.154 -2110.5)" fill="#25383f"/>
          </g>
        </g>
        <g id="Group_172" data-name="Group 172" transform="translate(0 43.504)">
          <path id="Path_58" data-name="Path 58" d="M3708.652,1955.1s-13.324,4.275-20.283,7.231c0,0-6.639,2.956-8.549,16.508,0,0-8.459,36.7,3.5,41.7l-2.729,15.917a67.92,67.92,0,0,1,26.377-7.276c6.913-.409,28.014-1.546,28.014-1.546l-.637-33.38,14.689,15.6,6.366-14.1-17.054-27.878a18.775,18.775,0,0,0-5.912-6.049l-8.731-5.548C3723.66,1956.237,3717.794,1963.877,3708.652,1955.1Z" transform="translate(-3676.917 -1955.1)" fill="#25383f"/>
        </g>
        <g id="Group_173" data-name="Group 173" transform="translate(5.859 78.43)">
          <path id="Path_59" data-name="Path 59" d="M3718.679,2065.6c-11.779,0-23.6-.5-28.878-2.274l.728-2.137c10.778,3.593,52.026,1.637,58.256,1.319l2.364-7.64-50.3-7.595,1.956-15.371,2.274.273-1.683,13.188,50.752,7.686-3.638,11.642-.773.045C3748.6,2064.78,3733.686,2065.6,3718.679,2065.6Z" transform="translate(-3689.801 -2031.9)" fill="#fff"/>
        </g>
        <g id="Group_174" data-name="Group 174" transform="translate(21.367 111.31)">
          <path id="Path_60" data-name="Path 60" d="M3778.337,2109.339H3723.9V2104.2h54.437Zm-52.163-2.273h49.889v-.591h-49.889Z" transform="translate(-3723.9 -2104.2)" fill="#fff"/>
        </g>
        <g id="Group_175" data-name="Group 175" transform="translate(47.289 79.749)">
          <path id="Path_61" data-name="Path 61" d="M3855.39,2037.3h-54.209l-16.281,34.563h54.209Z" transform="translate(-3783.081 -2036.163)" fill="#fff"/>
          <path id="Path_62" data-name="Path 62" d="M3837.656,2071.637H3780.9l17.373-36.837h56.755Zm-53.163-2.274H3836.2l15.235-32.289h-51.708Z" transform="translate(-3780.9 -2034.8)" fill="#25383f"/>
        </g>
        <g id="Group_178" data-name="Group 178" transform="translate(54.293 96.13)">
          <g id="Group_176" data-name="Group 176" transform="translate(7.231 1.16)">
            <path id="Path_63" data-name="Path 63" d="M3880.735,2079.434l43.34,70.9s-4.457-.818-12.415,4.275c-6.367,4.093-10.915,12.734-10.915,12.734s-37.428-52.117-51.116-75.947l-37.428.045,53.845-17.463A12.665,12.665,0,0,1,3880.735,2079.434Z" transform="translate(-3812.2 -2073.373)" fill="#dee6e9"/>
          </g>
          <g id="Group_177" data-name="Group 177">
            <path id="Path_64" data-name="Path 64" d="M3892.258,2168.088l-1.092-1.5c-.364-.5-37.018-51.616-50.844-75.447l-44.022.046,60.713-19.692a13.747,13.747,0,0,1,16.008,5.912l44.7,73.082-2.5-.455c-.046,0-4.184-.637-11.6,4.093-6.049,3.866-10.46,12.233-10.506,12.324Zm-50.571-79.221.318.591c12.234,21.284,43.886,65.851,50.025,74.4,1.637-2.729,5.457-8.414,10.414-11.6,5.048-3.229,8.823-4.184,11.006-4.457l-42.294-69.171a11.5,11.5,0,0,0-13.371-4.957l-46.932,15.235Z" transform="translate(-3796.3 -2070.821)" fill="#25383f"/>
          </g>
        </g>
        <g id="Group_179" data-name="Group 179" transform="translate(56.367 69.797)">
          <rect id="Rectangle_155" data-name="Rectangle 155" width="13.188" height="2.274" transform="translate(0 13.188) rotate(-89.642)" fill="#fff"/>
        </g>
        <g id="Group_180" data-name="Group 180" transform="translate(83.405 94.019)">
          <ellipse id="Ellipse_5" data-name="Ellipse 5" cx="3.866" cy="2.956" rx="3.866" ry="2.956" transform="matrix(0.39, -0.921, 0.921, 0.39, 0, 7.12)" fill="#25383f"/>
        </g>
      </g>
      <g id="Group_193" data-name="Group 193" transform="translate(13681.989 8631.796)">
        <rect id="Rectangle_156" data-name="Rectangle 156" width="256.492" height="182.819" rx="7" transform="translate(1.137 1.137)" fill="#fff"/>
        <path id="Path_78" data-name="Path 78" d="M4265.266,1804.593H4006.5V1619.5h258.765Zm-256.491-2.274h254.218V1621.774H4008.775Z" transform="translate(-4006.501 -1619.5)" fill="#25383f"/>
      </g>
      <g id="Group_196" data-name="Group 196" transform="translate(13788.18 8666.768)">
        <g id="Group_194" data-name="Group 194" transform="translate(0.914 2.409)">
          <rect id="Rectangle_157" data-name="Rectangle 157" width="46" height="45" transform="translate(0.466 0.24)"/>
        </g>
        <g id="Group_195" data-name="Group 195" transform="translate(0 0)">
          <path id="Path_79" data-name="Path 79" d="M4289.161,1745.061H4240.5V1696.4h48.661Zm-46.387-2.274h44.114v-44.113h-44.114Z" transform="translate(-4240.5 -1696.4)" fill="none"/>
        </g>
      </g>
      <g id="Group_198" data-name="Group 198" transform="translate(13792.682 8675.362)">
        <g id="Group_197" data-name="Group 197" transform="translate(0 0)">
          <path id="Path_80" data-name="Path 80" d="M4290.011,1746.816H4250.4l19.828-31.516Zm-31.062-4.73h22.511l-11.232-17.873Z" transform="translate(-4250.4 -1715.3)" fill="#fff"/>
        </g>
      </g>
      <g id="Group_200" data-name="Group 200" transform="translate(13855.957 8669.177)">
        <rect id="Rectangle_158" data-name="Rectangle 158" width="47" height="45" transform="translate(-0.397 0.239)" fill="#25383f"/>
      </g>
      <g id="Group_203" data-name="Group 203" transform="translate(13861.308 8653.079)">
        <g id="Group_201" data-name="Group 201" transform="translate(1.641 1.533)">
          <rect id="Rectangle_159" data-name="Rectangle 159" width="46.387" height="46.387" transform="translate(0 36.33) rotate(-51.553)" fill="#9d262a"/>
        </g>
        <g id="Group_202" data-name="Group 202" transform="translate(0 0)">
          <path id="Path_81" data-name="Path 81" d="M4439.411,1734.652l-38.11-30.242,30.242-38.11,38.109,30.242Zm-34.927-30.606L4439,1731.469l27.422-34.517-34.518-27.423Z" transform="translate(-4401.301 -1666.3)" fill="#9d262a"/>
        </g>
      </g>
      <g id="Group_205" data-name="Group 205" transform="translate(13879.197 8670.968)">
        <g id="Group_204" data-name="Group 204" transform="translate(0 0)">
          <path id="Path_82" data-name="Path 82" d="M4446.806,1734.681a16.282,16.282,0,1,1,22.875-2.638A16.275,16.275,0,0,1,4446.806,1734.681Zm17.282-21.829a11.556,11.556,0,1,0,1.864,16.235A11.561,11.561,0,0,0,4464.088,1712.852Z" transform="translate(-4440.639 -1705.638)" fill="#fff"/>
        </g>
      </g>
      <g id="Group_209" data-name="Group 209" transform="translate(13788.18 8732.118)">
        <g id="Group_207" data-name="Group 207" transform="translate(1.137 1.182)">
          <rect id="Rectangle_160" data-name="Rectangle 160" width="46.387" height="46.387"/>
        </g>
        <g id="Group_208" data-name="Group 208" transform="translate(0 0)">
          <path id="Path_83" data-name="Path 83" d="M4289.161,1888.761H4240.5V1840.1h48.661Zm-46.387-2.274h44.114v-44.113h-44.114Z" transform="translate(-4240.5 -1840.1)" fill="#25383f"/>
        </g>
      </g>
      <g id="Group_214" data-name="Group 214" transform="translate(13854.94 8732.074)">
        <g id="Group_212" data-name="Group 212" transform="translate(1.137 1.137)">
          <rect id="Rectangle_161" data-name="Rectangle 161" width="46.387" height="46.387"/>
        </g>
        <g id="Group_213" data-name="Group 213" transform="translate(0 0)">
          <path id="Path_85" data-name="Path 85" d="M4435.961,1888.661H4387.3V1840h48.66Zm-46.387-2.274h44.113v-44.113h-44.113Z" transform="translate(-4387.301 -1840)" fill="none"/>
        </g>
      </g>
      <g id="Group_216" data-name="Group 216" transform="translate(13863.897 8740.805)">
        <g id="Group_215" data-name="Group 215" transform="translate(0 0)">
          <path id="Path_86" data-name="Path 86" d="M4437.743,1890.443H4407V1859.2h30.743Zm-26.013-4.73h21.282V1863.93H4411.73Z" transform="translate(-4407 -1859.2)" fill="#fff"/>
        </g>
      </g>
      <g id="Group_221" data-name="Group 221" transform="translate(13717.689 8666.813)">
        <path id="Path_91" data-name="Path 91" d="M4125.748,1810.193h-8.186v-2.274h8.186Zm-16.372,0h-8.186v-2.274h8.186Zm-16.372,0h-7.5v-2.956h2.274v.682H4093Zm37.064-6.14h-2.273v-8.186h2.273Zm-42.294-5H4085.5v-8.186h2.274Zm42.294-11.369h-2.273V1779.5h2.273Zm-42.294-5H4085.5v-8.186h2.274Zm42.294-11.369h-2.273v-8.186h2.273Zm-42.294-5H4085.5v-8.186h2.274Zm42.294-11.369h-2.273v-8.186h2.273Zm-42.294-5H4085.5v-8.186h2.274Zm42.294-11.369h-2.273v-8.186h2.273Zm-42.294-5H4085.5v-8.186h2.274Zm42.294-11.37h-2.273v-8.186h2.273Zm-42.294-5H4085.5v-8.186h2.274Zm42.294-11.369h-2.273v-8.186h2.273Zm-42.294-5H4085.5v-4.32h6.14v2.274h-3.866Zm36.609-2.047H4116.2V1696.5h8.186Zm-16.372,0h-8.186V1696.5h8.186Z" transform="translate(-4085.5 -1696.5)" fill="#25383f"/>
      </g>
      <g id="Element_3_" transform="translate(13447.509 8686.141)">
        <g id="Group_222" data-name="Group 222" transform="translate(0 0)">
          <rect id="Rectangle_162" data-name="Rectangle 162" width="39.474" height="39.474" fill="#9d262a"/>
        </g>
        <g id="Group_223" data-name="Group 223" transform="translate(12.006 12.597)">
          <rect id="Rectangle_163" data-name="Rectangle 163" width="39.474" height="39.474" transform="translate(1.137 1.137)" fill="#fff"/>
          <path id="Path_92" data-name="Path 92" d="M3559.549,1808.448H3517.8V1766.7h41.748Zm-39.474-2.274h37.2v-37.2h-37.2Z" transform="translate(-3517.801 -1766.7)" fill="#25383f"/>
        </g>
      </g>
      <g id="Elements_2_" transform="translate(13591.035 8619.418)">
        <g id="Group_224" data-name="Group 224" transform="translate(27.012 0)">
          <ellipse id="Ellipse_6" data-name="Ellipse 6" cx="10.5" cy="10" rx="10.5" ry="10" transform="translate(-0.487 -0.003)" fill="#9d262a"/>
        </g>
        <g id="Group_225" data-name="Group 225" transform="translate(0 18.063)">
          <rect id="Rectangle_164" data-name="Rectangle 164" width="54.573" height="18.646" transform="translate(1.137 1.137)" fill="#fff"/>
          <path id="Path_93" data-name="Path 93" d="M3863.847,1652.92H3807V1632h56.847Zm-54.573-2.274h52.3v-16.372h-52.3Z" transform="translate(-3807 -1632)" fill="#25383f"/>
        </g>
      </g>
      <g id="Underline_5_" transform="translate(13434.56 8972.397)">
        <g id="Group_229" data-name="Group 229" transform="translate(0 0)">
          <rect id="Rectangle_166" data-name="Rectangle 166" width="594" height="3" transform="translate(0 0.018)" fill="#25383f"/>
        </g>
      </g>
    </g>
  </g>
</svg>
