<svg xmlns="http://www.w3.org/2000/svg" width="53.343" height="53.314" viewBox="0 0 53.343 53.314">
  <path id="noun-call-center-4805520" d="M76.129,9.447l-3.382,3.382a9.247,9.247,0,0,0-1.493,11.11A89.726,89.726,0,0,0,83.5,39.355,85.142,85.142,0,0,0,98.969,51.561,9.247,9.247,0,0,0,110.053,50.2c.449-.423,2.867-2.787,3.448-3.369h0a5.2,5.2,0,0,0,0-7.319l-3.831-3.844a5.179,5.179,0,0,0-5.694-1.1l-3.9,1.665a7.465,7.465,0,0,1-3.818-1.44,31.288,31.288,0,0,1-4.319-3.778A31.119,31.119,0,0,1,88.176,26.7a7.278,7.278,0,0,1-1.453-3.818l1.678-3.9a5.179,5.179,0,0,0-1.1-5.694L83.461,9.46h0a5.165,5.165,0,0,0-7.318,0Zm-1,4.743,8.957,8.97a9.245,9.245,0,0,0,1.255,3.963,27.754,27.754,0,0,0,4.729,5.733A28.284,28.284,0,0,0,95.812,37.6a9.254,9.254,0,0,0,3.963,1.242l8.93,8.943-.489.462a6.527,6.527,0,0,1-7.834,1.07A82.166,82.166,0,0,1,85.4,37.506,86.541,86.541,0,0,1,73.513,22.578a6.605,6.605,0,0,1,1.07-7.926l.515-.515Zm35.5,31.7-7.926-7.926,2.312-.978a2.537,2.537,0,0,1,2.788.529l3.831,3.844h0a2.51,2.51,0,0,1,.687,1.783,2.536,2.536,0,0,1-.687,1.77l-1,1ZM122.88,3.965A3.963,3.963,0,0,0,118.917,0H97.78a3.963,3.963,0,0,0-3.963,3.963V25.1a1.3,1.3,0,0,0,2.021,1.1l3.3-2.193h0a1.321,1.321,0,0,1,.74-.224h19.036a3.963,3.963,0,0,0,3.963-3.963Zm-2.642,0V19.817a1.321,1.321,0,0,1-1.321,1.321H99.907A4.041,4.041,0,0,0,97.7,21.8l-1.242.832V3.965a1.321,1.321,0,0,1,1.321-1.321h21.136a1.321,1.321,0,0,1,1.321,1.321ZM84.953,20.28l-7.926-7.926.938-1.044a2.51,2.51,0,0,1,1.823-.74,2.538,2.538,0,0,1,1.8.74l3.831,3.844a2.51,2.51,0,0,1,.541,2.788l-1,2.338Zm16.79-1.783h13.21a1.321,1.321,0,0,0,0-2.642h-13.21a1.321,1.321,0,0,0,0,2.642Zm0-5.284h6.605a1.321,1.321,0,1,0,0-2.642h-6.605a1.321,1.321,0,0,0,0,2.642Zm0-5.284h13.21a1.321,1.321,0,0,0,0-2.642h-13.21a1.321,1.321,0,0,0,0,2.642Z" transform="translate(-69.787 0.248)" stroke="#000" stroke-width="0.5" fill-rule="evenodd"/>
</svg>
