<svg xmlns="http://www.w3.org/2000/svg" width="44.672" height="55.439" viewBox="0 0 44.672 55.439">
  <g id="Group_574" data-name="Group 574" transform="translate(-1489.827 -1490)">
    <path id="Path_172" data-name="Path 172" d="M179.108,57.252a5.069,5.069,0,0,0-5.046,5.046,4.956,4.956,0,0,0,2.154,4.123V62.3a2.831,2.831,0,0,1,5.661,0c0,1.23,0,2.831.061,4.061a5,5,0,0,0-2.831-9.107Zm-12.429-3.63V74.973h7.076a13.327,13.327,0,0,1-.923-2.154v-.246h-3.753V56.021H185.63V68.2a4.991,4.991,0,0,1,2.4,1.477V53.622Zm21.351-2.031H166.678V30.24H188.03Zm-18.951-2.4H185.63V32.64H169.078Zm-4.369,25.72H143.358V53.622h21.351Zm-18.951-2.338H162.31V56.021H145.758Zm18.951-20.982H143.358V30.24h21.351Zm-18.951-2.4H162.31V32.64H145.758ZM178.615,79.4l-2.338-3.015a14.628,14.628,0,0,1-2.092-4l-.985-3.077a1.4,1.4,0,0,1,2.584-1.046l1.661,3.261c.061.061.185.061.185-.061V62.359a1.477,1.477,0,0,1,2.954,0v6.522c.246-.185,6.461.308,6.645,2.338.246,2.338-2.031,8.245-2.031,8.245h-6.584Zm-1.846,1.354v4.923h10.645V80.757Z" transform="translate(1346.469 1459.76)"/>
  </g>
</svg>
