<?xml version="1.0" encoding="utf-8"?>
<!-- Generator: Adobe Illustrator 25.0.1, SVG Export Plug-In . SVG Version: 6.00 Build 0)  -->
<svg version="1.1" id="Mobile-Development" xmlns="http://www.w3.org/2000/svg" xmlns:xlink="http://www.w3.org/1999/xlink" x="0px"
	 y="0px" viewBox="0 0 28.1 25.8" style="enable-background:new 0 0 28.1 25.8;" xml:space="preserve">
<style type="text/css">
	.st0{fill:#FFFFFF;}
	.st1{fill:#FFFFFF;stroke:#FFFFFF;stroke-width:0.5;}
</style>
<g id="location" transform="translate(-17.445 -14.25)">
	<circle id="Ellipse_59" class="st0" cx="31.6" cy="21.5" r="3.1"/>
	<path id="Path_1807" class="st0" d="M35.1,21.6c0-1.9-1.6-3.5-3.5-3.5c-1.9,0-3.5,1.6-3.5,3.5s1.6,3.5,3.5,3.5l0,0
		C33.5,25.1,35.1,23.5,35.1,21.6L35.1,21.6z M31.5,24.4c-1.5,0-2.8-1.2-2.8-2.8c0-1.5,1.2-2.8,2.8-2.8c1.5,0,2.8,1.2,2.8,2.8l0,0
		C34.3,23.1,33.1,24.4,31.5,24.4z"/>
	<path id="Path_1808" class="st1" d="M39.7,30h-4.9l2.8-4.8c1.9-3.3,0.8-7.6-2.5-9.6s-7.6-0.8-9.6,2.5c-1.3,2.2-1.3,4.9,0,7l2.8,4.8
		h-4.9L20,39.5h23.1L39.7,30z M26.2,18.6c1.7-3,5.6-4,8.5-2.2c3,1.7,4,5.6,2.2,8.5l-5.4,9.3l-5.4-9.3C25,22.9,25,20.5,26.2,18.6z
		 M22.3,35.2h2v-0.8h-1.8l1.3-3.6h4.8l2.8,4.9l2.9-5h4.8l1.3,3.7h-1.8v0.7h2l1.3,3.6h-10v-2.1h-0.8v2.1H21L22.3,35.2z"/>
</g>
</svg>
