<svg xmlns="http://www.w3.org/2000/svg" width="62.466" height="54.165" viewBox="0 0 62.466 54.165">
  <g id="Group_90" data-name="Group 90" transform="translate(0.25 0.473)">
    <path id="Path_23" data-name="Path 23" d="M159.666,71.326l.3-.223a14.893,14.893,0,0,0-5.07-1.021,1.245,1.245,0,0,0-.169-.324,1.4,1.4,0,0,0-.264-.264,14.922,14.922,0,0,0,.575-5.151l-.3.223-.182.135-.358.264-3.171,2.326-.845.615-1.163.852-.845.622a11.267,11.267,0,0,1-.338,3.8l-5.165,3.779a25.117,25.117,0,1,0,1.548,2.116L149.37,75.3a12.546,12.546,0,0,1,3.731.825l.831-.608,1.176-.859.615-.453,1.393-1.021.487-.351ZM145.7,92.763a22.423,22.423,0,1,1-5.138-14.257L134.1,83.231a14.519,14.519,0,1,0,1.548,2.115l6.456-4.726A22.3,22.3,0,0,1,145.7,92.763Zm-17.74,0a4.682,4.682,0,1,1-1.833-3.691l-3.6,2.637a1.309,1.309,0,0,0,.778,2.366,1.292,1.292,0,0,0,.778-.257l3.6-2.637a4.743,4.743,0,0,1,.277,1.582Zm.338-5.287a7.307,7.307,0,1,0,1.555,2.116L133.53,86.9a11.87,11.87,0,1,1-1.555-2.116Z" transform="translate(-98.275 -64.342)" stroke="#000" stroke-width="0.5"/>
  </g>
</svg>
