<svg xmlns="http://www.w3.org/2000/svg" width="56.508" height="53.276" viewBox="0 0 56.508 53.276">
  <path id="Path_24" data-name="Path 24" d="M153.5,100.325a.787.787,0,0,1-.788-.793l.013-1.818-44.383.012c-1.541,0-1.661-.926-1.661-1.21V55.093l-1.865-.013a.788.788,0,0,1-.713-1.11l2.785-6.214a.788.788,0,0,1,.719-.466h0a.785.785,0,0,1,.718.47c2.8,6.34,2.8,6.34,2.8,6.57a.785.785,0,0,1-.233.559.686.686,0,0,1-.561.228l-2.076-.013V96.148h.084l44.4-.013.014-2.123a.789.789,0,0,1,1.111-.713l6.214,2.786a.788.788,0,0,1,0,1.44c-6.34,2.8-6.34,2.8-6.571,2.8ZM132.2,54.968c-.469,1.779.455,2.6,2.558,3.795v-5.6a2.77,2.77,0,0,0-2.558,1.8Zm3.619,11.021a2.592,2.592,0,0,0,2.419-2.156c.176-1.536-.609-2.238-2.419-3.269Zm22.487,12.129-6.985-6.985a.556.556,0,0,0-.087-.071,4.17,4.17,0,0,0-.657-.364,2.322,2.322,0,0,0-.646-.08l-.062,0-1.352.154-3.029-2.966c.227-.316.539-.752.691-.977a12.382,12.382,0,0,0,1.988-6.885,12.9,12.9,0,1,0-12.889,12.887h0a12.032,12.032,0,0,0,6.86-1.981c.208-.14.659-.463.981-.694l3.074,3-.15,1.35a.433.433,0,0,0,0,.093,2.389,2.389,0,0,0,.089.537,4.359,4.359,0,0,0,.328.616.592.592,0,0,0,.078.1l7.014,7.014a2.028,2.028,0,0,0,1.463.589,3.185,3.185,0,0,0,2.2-1.008l.576-.576a3.684,3.684,0,0,0,1.01-1.853,2.055,2.055,0,0,0-.491-1.907ZM139.293,63.954a3.4,3.4,0,0,1-3.472,3.1v.727a.531.531,0,0,1-1.062,0v-.74a6.977,6.977,0,0,1-3.593-1.258.53.53,0,1,1,.718-.78,6.076,6.076,0,0,0,2.875.973v-6l-.184-.1c-1.95-1.082-4.157-2.307-3.4-5.178a3.805,3.805,0,0,1,3.584-2.595V51.31a.531.531,0,0,1,1.062,0v.842a7.224,7.224,0,0,1,3.374,1.539.53.53,0,0,1-.656.834,6.27,6.27,0,0,0-2.718-1.3v6.122c2.207,1.211,3.75,2.19,3.473,4.605Zm-22.232.956H112.88V94.07h4.181Zm9.97,9.649H122.85V94.07h4.181ZM137,80.348h-4.181V94.07H137Zm9.97,3.86h-4.181V94.07h4.181Z" transform="translate(-104.033 -47.049)"/>
</svg>
