<svg xmlns="http://www.w3.org/2000/svg" width="51.736" height="56.131" viewBox="0 0 51.736 56.131">
  <path id="Path_167" data-name="Path 167" d="M142.823,12.226l-.83-1.438-3.6,2.079L132.443,2.561l3.462-2-.83-1.438-4.9,2.829.994,1.721c-.794.056-1.51.088-2.168.088a24.915,24.915,0,0,1-6.114-.889,3.873,3.873,0,0,0-.886-.1c-2.561,0-4.273,2.469-4.891,3.532-1.184,2.035-1.562,2.7-1.939,3.355-.331.577-.66,1.153-1.533,2.656l-1.21-.718-7.8,11.78H99.31l-7.545,5.9,0,0h-.008v6.748h3.061v18.64H96.48V36.024h31.663v18.64H129.8V36.024h3.063V29.276h-.008l.008-.011-7.579-5.891h-1.262l2.222-3.587-1.74-1.031.092-.037a6.206,6.206,0,0,1,3.046-.452c.2.018.411.028.622.028a6.123,6.123,0,0,0,4-1.4,6.849,6.849,0,0,1,.842-.633l3.883-2.5.793,1.373ZM131.207,34.363H93.418V30.937h37.788Zm-6.487-9.327,5.455,4.241H94.459l5.423-4.241h3.646l-.738,1.114H101.1v1.661h22.433V26.15h-1.22l.69-1.114Zm-.774-4.683L120.4,26.075l-15.563-.01,8.1-12.235.983.584,1.488,1.014a3.334,3.334,0,0,0,2.163,5.878,3.306,3.306,0,0,0,1.246-.243l3.753-1.521Zm8.265-5.491a8.42,8.42,0,0,0-1.037.78,4.443,4.443,0,0,1-2.905.993c-.16,0-.318-.008-.472-.022a7.812,7.812,0,0,0-3.82.567L118.2,19.521a1.718,1.718,0,0,1-2.181-.923,1.677,1.677,0,0,1,.922-2.181l2.205-.895,5.594-2.562a.829.829,0,0,0,.35-1.206l-.157-.243a2.981,2.981,0,0,0-2.293-1.382c-.1-.009-.191-.012-.285-.012a2.952,2.952,0,0,0-2.214.976,11.211,11.211,0,0,0-1.352,2.037c-.174.309-.354.626-.478.8a9.61,9.61,0,0,1-1.288.579l-1.965-1.339c.888-1.53,1.221-2.111,1.555-2.693.376-.657.753-1.315,1.933-3.345.984-1.694,2.276-2.705,3.454-2.705a2.269,2.269,0,0,1,.507.059A26.6,26.6,0,0,0,129,5.423c.916,0,1.933-.06,3.089-.154l4.072,7.051Zm-11.371-1.94a5.151,5.151,0,0,1,.519-.7,1.317,1.317,0,0,1,1-.443c.046,0,.092,0,.14.006a1.4,1.4,0,0,1,.515.141Z" transform="translate(-91.428 1.217)" stroke="#000" stroke-width="0.5"/>
</svg>
