<?xml version="1.0" standalone="no"?>
<!DOCTYPE svg PUBLIC "-//W3C//DTD SVG 20010904//EN"
 "http://www.w3.org/TR/2001/REC-SVG-20010904/DTD/svg10.dtd">
<svg version="1.0" xmlns="http://www.w3.org/2000/svg"
 width="200.000000pt" height="200.000000pt" viewBox="0 0 200.000000 200.000000"
 preserveAspectRatio="xMidYMid meet">

<g transform="translate(0.000000,200.000000) scale(0.100000,-0.100000)"
fill="#000000" stroke="none">
<path d="M735 1994 c-236 -26 -446 -98 -553 -190 -22 -19 -52 -57 -66 -86
l-26 -52 0 -666 0 -666 26 -53 c58 -116 237 -209 495 -257 131 -25 457 -25
588 0 260 48 436 140 495 258 l26 52 0 614 0 614 88 -3 87 -3 3 51 3 52 -91 3
-91 3 -20 44 -19 44 110 -7 110 -7 0 49 0 49 -164 6 c-156 5 -167 7 -222 35
-76 38 -203 78 -312 98 -85 15 -385 27 -467 18z m406 -104 c36 -5 90 -15 120
-22 l54 -13 -82 -3 -83 -3 0 -49 0 -50 201 0 202 0 35 -37 35 -38 -121 -3
-122 -3 0 -54 0 -55 112 0 112 0 -30 -31 c-66 -70 -274 -144 -469 -168 -399
-49 -861 69 -915 233 -55 168 339 327 765 310 66 -3 149 -9 186 -14z m-892
-485 c164 -104 403 -152 719 -142 261 8 425 46 578 133 43 24 79 44 81 44 3 0
3 -60 1 -132 -3 -122 -5 -136 -27 -167 -54 -76 -211 -146 -416 -187 -125 -25
-433 -25 -560 0 -204 40 -362 111 -416 187 -22 31 -24 45 -27 167 -2 72 0 132
5 132 4 0 32 -16 62 -35z m136 -484 c170 -62 264 -75 520 -75 200 0 243 3 333
22 135 30 258 75 333 123 l61 40 -4 -138 c-3 -124 -5 -141 -25 -170 -52 -72
-196 -140 -383 -180 -101 -22 -140 -25 -315 -25 -175 0 -214 3 -315 25 -187
40 -331 108 -383 180 -20 29 -22 46 -25 170 l-4 138 61 -40 c34 -22 100 -53
146 -70z m-70 -386 c171 -84 396 -122 660 -112 166 7 300 28 414 67 64 21 177
76 219 106 l22 16 0 -126 c0 -150 -13 -187 -86 -236 -145 -101 -366 -153 -639
-153 -271 0 -495 53 -638 152 -71 49 -87 92 -87 240 l0 123 23 -16 c12 -9 63
-37 112 -61z"/>
</g>
</svg>
