<?xml version="1.0" encoding="utf-8"?>
<!-- Generator: Adobe Illustrator 25.0.1, SVG Export Plug-In . SVG Version: 6.00 Build 0)  -->
<svg version="1.1" id="Mobile-Development" xmlns="http://www.w3.org/2000/svg" xmlns:xlink="http://www.w3.org/1999/xlink" x="0px"
	 y="0px" viewBox="0 0 37 25.8" style="enable-background:new 0 0 37 25.8;" xml:space="preserve">
<style type="text/css">
	.st0{fill:#FFFFFF;}
</style>
<g>
	<g>
		<path class="st0" d="M27.6,3.6H9.4c-1.8,0-3.2,1.5-3.2,3.2v10.7c0,1.8,1.5,3.2,3.2,3.2h6.7l-4.5,3.5c-0.3,0.2-0.3,0.6-0.1,0.9
			c0.1,0.2,0.3,0.3,0.5,0.3c0.1,0,0.3,0,0.4-0.1l5.8-4.5l0,0h0.6l5.8,4.5c0.1,0.1,0.3,0.1,0.4,0.1c0.2,0,0.4-0.1,0.5-0.3
			c0.2-0.3,0.2-0.7-0.1-0.9l-4.5-3.5h6.7c1.8,0,3.2-1.5,3.2-3.2V6.9C30.9,5.1,29.4,3.6,27.6,3.6z M29.6,17.6c0,1.1-0.9,1.9-1.9,1.9
			H9.4c-1.1,0-1.9-0.9-1.9-1.9V6.9C7.5,5.8,8.4,5,9.4,5h18.2c1.1,0,1.9,0.9,1.9,1.9v10.7H29.6z"/>
	</g>
	<g>
		<path class="st0" d="M8.3,1.6h20.5c0.4,0,0.6-0.3,0.6-0.6s-0.3-0.6-0.6-0.6H8.3C7.9,0.4,7.7,0.7,7.7,1S7.9,1.6,8.3,1.6z"/>
	</g>
	<g>
		<path class="st0" d="M26.3,7.3h-5c-0.4,0-0.6,0.3-0.6,0.6s0.3,0.6,0.6,0.6h3.4l-2.9,2.9l-1.1-1.1c-0.3-0.3-0.7-0.3-0.9,0l-3.9,4
			L14.6,13c-0.3-0.3-0.7-0.3-0.9,0l-2.8,2.8c-0.3,0.3-0.3,0.6,0,0.9c0.1,0.1,0.3,0.2,0.5,0.2s0.3-0.1,0.5-0.2l2.4-2.4l1.3,1.3
			c0.3,0.3,0.7,0.3,0.9,0l4-4l1.1,1.1c0.3,0.3,0.7,0.3,0.9,0l3.3-3.4v3.4c0,0.4,0.3,0.6,0.6,0.6c0.4,0,0.6-0.3,0.6-0.6V8
			C27,7.6,26.7,7.3,26.3,7.3z"/>
	</g>
</g>
</svg>
