<?xml version="1.0" encoding="utf-8"?>
<!-- Generator: Adobe Illustrator 25.0.1, SVG Export Plug-In . SVG Version: 6.00 Build 0)  -->
<svg version="1.1" id="Mobile-Development" xmlns="http://www.w3.org/2000/svg" xmlns:xlink="http://www.w3.org/1999/xlink" x="0px"
	 y="0px" viewBox="0 0 28.1 25.8" style="enable-background:new 0 0 28.1 25.8;" xml:space="preserve">
<style type="text/css">
	.st0{fill:#FFFFFF;stroke:#FFFFFF;stroke-width:0.4;}
	.st1{fill:#FFFFFF;}
	.st2{fill:#E01F26;stroke:#E01F26;stroke-width:0.4;}
</style>
<g id="cloud" transform="translate(-0.8 -4.7)">
	<path id="Path_1813" class="st0" d="M28,25.2h-1.3V6.5c0-0.7-0.5-1.3-1.2-1.3H3.7C3,5.2,2.5,5.8,2.5,6.5v18.7H1.7
		c-0.2,0-0.4,0.2-0.4,0.4l0,0c0,2.4,1.8,4.3,4.2,4.4h18.8c2.4,0,4.2-2,4.2-4.3l0,0C28.4,25.4,28.2,25.2,28,25.2z M3.3,6.5
		c0-0.2,0.2-0.4,0.4-0.4l0,0h21.7c0.2,0,0.4,0.2,0.4,0.4l0,0v18.7H3.3V6.5z M24.2,29.1H5.5c-1.7,0-3.1-1.3-3.3-3h25.4
		C27.4,27.8,25.9,29.1,24.2,29.1z"/>
	<path id="Path_1814" class="st0" d="M19.6,12.1c-0.4-5.8-9.1-5.7-9.5,0c-1.9-0.1-3.4,1.4-3.5,3.2c-0.1,1.9,1.4,3.4,3.2,3.5h0.1h1.2
		v3.1h-2c-0.2,0-0.4,0.2-0.4,0.4c0,0.2,0.2,0.4,0.4,0.4h2.4c0.2,0,0.4-0.2,0.4-0.4c0,0,0,0,0-0.1V15c0-0.2-0.2-0.4-0.4-0.4
		s-0.4,0.2-0.4,0.4l0,0v3H10c-1.4,0-2.5-1.1-2.5-2.5S8.6,13,10,13c0.1,0,0.2,0,0.4,0c0.1,0,0.3,0,0.4-0.1c0.1-0.1,0.2-0.2,0.2-0.3
		c-0.1-5.3,7.8-5.3,7.8-0.1c0,0.2,0.2,0.4,0.4,0.4c0,0,0,0,0.1,0c1.4,0,2.5,1.1,2.5,2.5l0,0c0,1.4-1.1,2.5-2.5,2.5H18V15
		c0-0.2-0.2-0.4-0.4-0.4c-0.2,0-0.4,0.2-0.4,0.4v7.3c0,0.2,0.2,0.4,0.4,0.4c0,0,0,0,0.1,0h2.4c0.2,0,0.4-0.2,0.4-0.4
		c0-0.2-0.2-0.4-0.4-0.4h-2v-3.1h1.2c1.8,0,3.3-1.5,3.4-3.3C22.6,13.8,21.3,12.3,19.6,12.1z"/>
	<path id="Path_1815" class="st0" d="M14.6,15.2c-0.2,0-0.4,0.2-0.4,0.4c0,0,0,0,0,0.1V23c0,0.2,0.2,0.4,0.4,0.4S15,23.2,15,23v-7.3
		C15,15.4,14.9,15.2,14.6,15.2L14.6,15.2z"/>
	<path id="Rectangle_818" class="st1" d="M2.3,25.9h26l0,0l0,0c0,2.2-1.8,4-4,4H5c-1.5,0-2.8-1.2-2.8-2.8l0,0L2.3,25.9L2.3,25.9z"/>
	<path id="Path_1816" class="st2" d="M16.7,27.3h-3.8c-0.2,0-0.4,0.2-0.4,0.4c0,0.2,0.2,0.4,0.4,0.4l0,0h3.8c0.2,0,0.4-0.2,0.4-0.4
		S16.9,27.3,16.7,27.3z"/>
</g>
</svg>
