<?xml version="1.0" encoding="utf-8"?>
<!-- Generator: Adobe Illustrator 25.0.1, SVG Export Plug-In . SVG Version: 6.00 Build 0)  -->
<svg version="1.1" id="Mobile-Development" xmlns="http://www.w3.org/2000/svg" xmlns:xlink="http://www.w3.org/1999/xlink" x="0px"
	 y="0px" viewBox="0 0 37 25.8" style="enable-background:new 0 0 37 25.8;" xml:space="preserve">
<style type="text/css">
	.st0{fill:#FFFFFF;}
</style>
<g>
	<g>
		<path class="st0" d="M32.3,21.1h-1.8V8.3c0-1.6-1.1-2.9-2.6-3.2V6c1,0.3,1.7,1.2,1.7,2.3v12.8h-7.3c-0.1,0-0.2,0-0.3,0.1
			s-1.2,1.2-1.3,1.3h-4.4c0,0-1.2-1.2-1.3-1.3c0,0-0.2-0.1-0.3-0.1H7.4V8.3c0-1.3,1.1-2.4,2.4-2.4h4.4V5.1H9.8
			C8,5.1,6.5,6.5,6.5,8.3v12.8H4.7c-0.2,0-0.4,0.2-0.4,0.4v1.6c0,0.1,0,0.3,0.2,0.4l2.5,2c0.1,0.1,0.2,0.1,0.3,0.1h22.6
			c0.1,0,0.2,0,0.3-0.1c0.9-0.9,1.5-1.1,2.5-2c0.1-0.1,0.1-0.2,0.1-0.3v-1.6C32.7,21.3,32.5,21.1,32.3,21.1z"/>
	</g>
	<g>
		<path class="st0" d="M16,11.2c0-1.3-1.1-2.3-2.4-2.3s-2.3,1.1-2.3,2.3c0,1.3,1,2.3,2.3,2.3S16,12.5,16,11.2z"/>
	</g>
	<g>
		<path class="st0" d="M9,16.1v2.8c0,0.2,0.2,0.4,0.4,0.4h8.4c0.2,0,0.4-0.2,0.4-0.4v-2.8c0-1.1-0.8-1.9-1.9-1.9h-5.4
			C9.8,14.2,9,15,9,16.1z"/>
	</g>
	<g>
		<path class="st0" d="M27.6,18H21c-0.3,0-0.4,0.2-0.4,0.4c0,0.3,0.2,0.4,0.4,0.4h6.6c0.3,0,0.4-0.2,0.4-0.4S27.8,18,27.6,18z"/>
	</g>
	<g>
		<path class="st0" d="M27.6,15.6H21c-0.3,0-0.4,0.2-0.4,0.4c0,0.3,0.2,0.4,0.4,0.4h6.6c0.3,0,0.4-0.2,0.4-0.4
			C28,15.8,27.8,15.6,27.6,15.6z"/>
	</g>
	<g>
		<path class="st0" d="M20.5,13.6c0,0.3,0.2,0.4,0.4,0.4h6.6c0.3,0,0.4-0.2,0.4-0.4s-0.2-0.4-0.4-0.4h-6.6
			C20.7,13.2,20.5,13.4,20.5,13.6z"/>
	</g>
	<g>
		<path class="st0" d="M15.5,7.7h6.1v1.8c0,0.2,0.1,0.4,0.3,0.4c0.1,0,0.4,0,0.5-0.1l2.4-2.2h1.9c0.2,0,0.4-0.2,0.4-0.4V0.6
			c0-0.3-0.2-0.4-0.4-0.4H15.5c-0.2,0-0.4,0.2-0.4,0.4v6.7C15,7.5,15.3,7.7,15.5,7.7z M21.6,5.3h-1c-0.3,0-0.4-0.2-0.4-0.4
			s0.2-0.4,0.4-0.4h1c0.3,0,0.4,0.2,0.4,0.4C22,5.1,21.8,5.3,21.6,5.3z M24.6,5.3h-1c-0.3,0-0.4-0.2-0.4-0.4s0.2-0.4,0.4-0.4h1
			c0.3,0,0.4,0.2,0.4,0.4C25,5.1,24.9,5.3,24.6,5.3z M17.5,2.2h7.1c0.3,0,0.4,0.2,0.4,0.4S24.8,3,24.6,3h-7.1
			c-0.3,0-0.4-0.2-0.4-0.4S17.3,2.2,17.5,2.2z M17.5,4.4h1c0.3,0,0.4,0.2,0.4,0.4s-0.2,0.4-0.4,0.4h-1c-0.3,0-0.4-0.2-0.4-0.4
			C17,4.6,17.3,4.4,17.5,4.4z"/>
	</g>
</g>
</svg>
