<?xml version="1.0" encoding="utf-8"?>
<!-- Generator: Adobe Illustrator 25.1.0, SVG Export Plug-In . SVG Version: 6.00 Build 0)  -->
<svg version="1.1" id="Layer_1" xmlns="http://www.w3.org/2000/svg" xmlns:xlink="http://www.w3.org/1999/xlink" x="0px" y="0px"
	 viewBox="0 0 520.7 696.3" style="enable-background:new 0 0 520.7 696.3;" xml:space="preserve">
<style type="text/css">
	.st0{display:none;fill:#F0F0F0;}
	.st1{fill:#67C9B8;}
	.st2{fill:#2960D2;}
	.st3{fill:#E3793A;}
	.st4{fill:#0B0B0B;}
	.st5{fill:none;stroke:#F0F0F0;stroke-width:1.3421;stroke-linecap:round;stroke-miterlimit:10;}
	.st6{display:none;}
	.st7{display:inline;fill:#2960D2;}
	.st8{display:inline;fill:#E3793A;}
	.st9{display:inline;fill:#0B0B0B;}
	.st10{display:inline;fill:none;stroke:#F0F0F0;stroke-width:1.3421;stroke-miterlimit:10;}
	.st11{display:inline;}
	.st12{display:inline;fill:#67C9B8;}
	.st13{fill:#F0F0F0;}
	.st14{fill:none;stroke:#231F20;stroke-width:1.3421;stroke-miterlimit:10;}
	.st15{fill:none;stroke:#231F20;stroke-width:1.3421;stroke-miterlimit:10;stroke-dasharray:7.5235,7.5235;}
	.st16{fill:none;stroke:#231F20;stroke-width:1.3421;stroke-miterlimit:10;stroke-dasharray:8.1683,8.1683;}
	.st17{fill:none;stroke:#231F20;stroke-width:1.3421;stroke-miterlimit:10;stroke-dasharray:7.6088,7.6088;}
	.st18{fill:none;stroke:#231F20;stroke-width:1.3421;stroke-miterlimit:10;stroke-dasharray:8.0936,8.0936;}
	.st19{fill:#F0F0F0;stroke:#231F20;stroke-width:1.3421;stroke-linejoin:bevel;stroke-miterlimit:10;}
	.st20{fill:#E3793A;stroke:#231F20;stroke-width:1.3421;stroke-linejoin:bevel;stroke-miterlimit:10;}
	.st21{fill:#FFFFFF;}
	.st22{fill:#FFFFFF;stroke:#231F20;stroke-width:1.3421;stroke-linejoin:bevel;stroke-miterlimit:10;}
	.st23{fill:#E3793A;stroke:#231F20;stroke-width:1.3421;stroke-miterlimit:10;}
	.st24{fill:#F0F0F0;stroke:#231F20;stroke-width:1.3341;stroke-linejoin:bevel;stroke-miterlimit:10;}
	.st25{fill:#67C9B8;stroke:#231F20;stroke-width:1.3341;stroke-miterlimit:10;}
	.st26{fill:#F0F0F0;stroke:#231F20;stroke-width:1.3463;stroke-miterlimit:10;}
	.st27{fill:#F0F0F0;stroke:#231F20;stroke-width:1.3472;stroke-miterlimit:10;}
	.st28{fill:#FFFFFF;stroke:#231F20;stroke-width:1.3421;stroke-miterlimit:10;}
	.st29{fill:#FFFFFF;stroke:#231F20;stroke-width:1.3259;stroke-miterlimit:10;}
	.st30{fill:#F0F0F0;stroke:#231F20;stroke-width:1.3421;stroke-miterlimit:10;}
	.st31{fill:#0B0B0B;stroke:#231F20;stroke-width:1.3421;stroke-miterlimit:10;}
	.st32{fill:#F0F0F0;stroke:#231F20;stroke-width:1.3379;stroke-miterlimit:10;}
	.st33{fill:none;stroke:#231F20;stroke-width:0.6711;stroke-miterlimit:10;}
	.st34{fill:none;stroke:#231F20;stroke-width:0.6711;stroke-miterlimit:10;stroke-dasharray:2.5912,2.5912;}
	.st35{fill:#2960D2;stroke:#231F20;stroke-width:1.3421;stroke-miterlimit:10;}
	.st36{fill:none;stroke:#F0F0F0;stroke-width:1.3337;stroke-miterlimit:10;}
	.st37{fill:#F28E5C;}
	.st38{fill:#E3793A;stroke:#050302;stroke-width:1.3421;stroke-miterlimit:10;}
	.st39{fill:#E05F1E;}
	.st40{display:none;fill:#0B0B0B;}
	.st41{fill:#5793CE;}
	.st42{fill:#D4ECFF;}
	.st43{fill:none;stroke:#050302;stroke-width:1.3421;stroke-miterlimit:10;}
</style>
<circle class="st0" cx="65.8" cy="229.4" r="242.2"/>
<image style="display:none;overflow:visible;" width="1994" height="1680" xlink:href="../../../Screenshot 2021-02-18 at 11.37.09 AM.png"  transform="matrix(0.4426 0 0 0.4426 -279.9198 -57.2199)">
</image>
<g>
	<rect x="30.3" y="151" class="st1" width="10.8" height="11.9"/>
	<rect x="27.6" y="151" class="st2" width="3" height="11.9"/>
	<rect x="41" y="151" class="st3" width="3" height="11.9"/>
	<rect x="15.2" y="135.6" class="st2" width="15.2" height="15.2"/>
</g>
<g>
	<rect x="343.5" y="121.5" class="st2" width="4" height="66.2"/>
	<rect x="347.9" y="121.5" class="st4" width="65.8" height="66.2"/>
	<rect x="414.3" y="121.5" class="st3" width="4" height="66.2"/>
	<g>
		<rect x="332.3" y="105.3" class="st1" width="14.3" height="15.8"/>
		<rect x="328.8" y="105.3" class="st2" width="4" height="15.8"/>
		<rect x="346.6" y="105.3" class="st3" width="4" height="15.8"/>
	</g>
	<line class="st5" x1="364.2" y1="145.6" x2="398.1" y2="145.6"/>
	<line class="st5" x1="364.3" y1="154.5" x2="398.3" y2="154.5"/>
	<line class="st5" x1="364.1" y1="163.6" x2="380.6" y2="163.6"/>
</g>
<g>
	<polygon class="st13" points="185.9,605.6 94.1,553 93.6,471.4 186.4,524.7 	"/>
	<g>
		<polyline class="st14" points="185.9,601.6 185.9,605.6 182.4,603.6 		"/>
		<line class="st15" x1="175.9" y1="599.9" x2="100.8" y2="556.8"/>
		<polyline class="st14" points="97.6,555 94.1,553 94.1,548.9 		"/>
		<line class="st16" x1="94" y1="540.8" x2="93.7" y2="479.5"/>
		<polyline class="st14" points="93.7,475.4 93.6,471.4 97.1,473.4 		"/>
		<line class="st17" x1="103.7" y1="477.2" x2="179.6" y2="520.8"/>
		<polyline class="st14" points="182.9,522.7 186.4,524.7 186.3,528.8 		"/>
		<line class="st18" x1="186.3" y1="536.9" x2="186" y2="597.6"/>
	</g>
</g>
<g>
	<polygon class="st4" points="304.1,516.3 329.1,529.7 235.7,584.8 211.7,584.3 304,531.6 	"/>
	<polygon class="st4" points="213,503.9 119.2,449.1 207.4,394.4 304.8,449 	"/>
	<polygon class="st19" points="212.1,584.4 120.3,531.7 119.8,450.2 212.5,503.5 	"/>
	<polygon class="st20" points="211.7,584.3 304,531.6 304.4,450 211.7,503.4 	"/>
	<polygon class="st4" points="297.2,473.8 289.8,477.7 289.8,466.2 297.3,462.2 	"/>
	<polygon class="st21" points="297.2,490.4 289.8,494.3 289.8,482.8 297.3,478.8 	"/>
	<polygon class="st21" points="297.2,507.3 289.8,511.2 289.8,499.7 297.3,495.7 	"/>
</g>
<g>
	<polygon class="st22" points="148,248.9 57.1,194.9 145.8,143.4 239.8,195.2 	"/>
	<polygon class="st19" points="147.6,489.9 57,439 57.4,195.3 148,248.4 	"/>
	<polygon class="st23" points="148.9,489.9 239.5,439 239.1,195.3 148.5,248.4 	"/>
	<polygon class="st21" points="171.3,270.1 159.7,275.9 159.7,257.7 171.2,251.8 	"/>
</g>
<g>
	<polygon id="top" class="st20" points="261.8,130.8 170.8,183.6 79.7,132.1 171.4,77.3 	"/>
	<path class="st24" d="M169.9,223.6l-89.8-50.4L80,131.6l91,52L171,223C171,223.6,170.4,223.9,169.9,223.6z"/>
	<path class="st25" d="M172.5,223.3l89.4-50.1l0.1-41.6l-91,52l0.1,38.9C171,223.2,171.8,223.6,172.5,223.3z"/>
	<line class="st26" x1="171.5" y1="197.5" x2="262.3" y2="144.2"/>
	<line class="st27" x1="171" y1="210.8" x2="261.9" y2="157.5"/>
	<polygon class="st4" points="240.6,194.7 189.2,224.3 170.8,223.7 231.8,189.9 	"/>
	<ellipse transform="matrix(0.9744 -0.225 0.225 0.9744 -35.3729 24.3025)" class="st4" cx="89" cy="167.4" rx="3" ry="3.6"/>
	<ellipse transform="matrix(0.9744 -0.225 0.225 0.9744 -30.5422 23.7521)" class="st4" cx="89" cy="145.9" rx="3" ry="3.6"/>
	<ellipse transform="matrix(0.9744 -0.225 0.225 0.9744 -32.9575 24.0273)" class="st4" cx="89" cy="156.6" rx="3" ry="3.6"/>
</g>
<g>
	<path class="st4" d="M214.1,101.7l25.9,15.5c0,0-18.9,19.8-83.3,6.2c0,0-25.4-10.9-26.6-22.3"/>
	<circle class="st28" cx="172.2" cy="75.4" r="49.8"/>
	<path class="st4" d="M212.5,45.2c2.5,6,4,12.6,4,19.5c0,27.5-22.3,49.8-49.8,49.8c-16.1,0-30.5-7.7-39.6-19.6
		c7.6,17.8,25.2,30.3,45.8,30.3c27.5,0,49.8-22.3,49.8-49.8C222.7,64,218.9,53.6,212.5,45.2z"/>
	<path class="st3" d="M211.8,44.2c1.6,3.8,2.7,6.5,3.3,10.8c3.8,27.2-15,52.4-42.2,56.2c-21.2,3-41.1-7.6-50.7-25.5
		c8.5,20.5,29.9,33.2,52.8,30c27.1-3.8,46-29,42.2-56.2C216.4,53.4,214.5,49.2,211.8,44.2z"/>
</g>
<g>
	<ellipse class="st4" cx="47.9" cy="599.6" rx="30.9" ry="15.5"/>
	<circle class="st4" cx="38.7" cy="586" r="26.8"/>
	<circle class="st29" cx="34.5" cy="580.3" r="26.8"/>
</g>
<g>
	<polygon class="st21" points="393.3,347.7 239.8,257.8 274.9,237.6 393.6,307 	"/>
	<polygon class="st4" points="393.8,476.6 418,478 472.2,446.7 445.1,433 445.1,447.5 	"/>
	<polygon class="st13" points="239.5,216.1 240.1,256.9 274.3,237.3 	"/>
	<polygon class="st30" points="394.2,306.9 239.4,215.7 289.7,184.8 445.9,275.2 	"/>
	<polygon class="st31" points="285.6,415.2 238.9,388.4 239.2,258 285.9,286.3 	"/>
	<polygon class="st32" points="392.8,476.6 286.5,415.7 286.2,286.5 393.3,348.3 	"/>
	<g>
		<g>
			<line class="st33" x1="446" y1="317.3" x2="446" y2="316"/>
			<line class="st34" x1="446" y1="313.4" x2="446" y2="278.4"/>
			<line class="st33" x1="446" y1="277.1" x2="446" y2="275.7"/>
		</g>
	</g>
	<polygon class="st35" points="445.1,447.5 393.8,476.6 393.8,348.6 445.6,319.5 	"/>
	<line class="st14" x1="420.8" y1="333.3" x2="420.8" y2="461.3"/>
	<line class="st14" x1="433.3" y1="326.3" x2="433.3" y2="454.2"/>
	<line class="st14" x1="407.3" y1="341.2" x2="407.6" y2="468.7"/>
	<line class="st14" x1="393.7" y1="369.4" x2="445.4" y2="339"/>
	<line class="st14" x1="393.9" y1="385.7" x2="445.9" y2="356.2"/>
	<line class="st14" x1="393.5" y1="405.1" x2="445.9" y2="374.3"/>
	<line class="st14" x1="393.9" y1="423.1" x2="445.6" y2="392.3"/>
	<line class="st14" x1="393.3" y1="440.3" x2="445.3" y2="410.2"/>
	<line class="st14" x1="392.8" y1="458.2" x2="445.3" y2="428.3"/>
	<line class="st30" x1="408.8" y1="297.6" x2="445.6" y2="318.8"/>
	<line class="st14" x1="238.9" y1="257.3" x2="275.1" y2="236.8"/>
	<g>
		<g>
			<line class="st33" x1="393.9" y1="306.5" x2="393.9" y2="307.8"/>
			<line class="st34" x1="393.9" y1="310.4" x2="393.9" y2="345.4"/>
			<line class="st33" x1="393.9" y1="346.7" x2="393.9" y2="348"/>
		</g>
	</g>
</g>
<g>
	<path class="st36" d="M212.3,479.8l-45.6-26.4V340.9l45.7,26.5l0.1,112.1C212.6,479.7,212.5,479.8,212.3,479.8z"/>
	<path class="st36" d="M212.9,479.4l45.3-26.2V340.8l-45.7,26.5l0.2,112C212.7,479.4,212.8,479.4,212.9,479.4z"/>
	<polyline class="st36" points="166.5,340.4 213.4,313.7 258.4,340.1 	"/>
</g>
<g>
	<g>
		<polygon class="st37" points="313.4,106.5 324.8,99.7 313.9,86.2 311.1,90.9 		"/>
		<path class="st3" d="M230.6,32.1l18.2-10.5c0,0-0.7,10.4-0.7,10.5c0,0-10.5,3.2-10.5,3.2L230.6,32.1z"/>
		<path class="st38" d="M316.5,72.4c-1.4-0.8-2.7-1.3-3.9-1.5c-1.8-9.6-8.5-19.9-16.5-24.5c-2.4-1.4-4.7-2.1-6.8-2.3
			c-1.1-11.7-9.2-25-19.1-30.7c-5.2-3-9.8-3.3-13.3-1.5l0,0l-0.2,0.1c-0.1,0-0.2,0.1-0.3,0.2l-10.7,6.3l3.6,2.8
			c-3.2,1.4-5.2,5-5.2,10.3c0,9.8,6.9,21.7,15.3,26.6L316.5,99c6.4,3.7,11.5,0.7,11.5-6.7C328.1,85,322.9,76.1,316.5,72.4z"/>
		<path class="st39" d="M244.6,27.3L269.3,13c-4.8-2.5-9.1-2.7-12.3-1l0,0l-0.2,0.1c-0.1,0-0.2,0.1-0.3,0.2l-10.7,6.3l3.6,2.8
			C247.1,22.3,245.4,24.4,244.6,27.3z"/>
		<path class="st37" d="M290.1,69.7l18-10.5c-3.1-5.3-7.3-10-12-12.7c-0.6-0.4-1.2-0.7-1.8-0.9l-22.9,13.4L290.1,69.7z"/>
		<path class="st37" d="M250.8,19.7l8,4.6l14.7-8.6c-1.1-0.8-2.2-1.6-3.3-2.2c-1.8-1-3.5-1.7-5.1-2.2L250.8,19.7z"/>
		<path class="st39" d="M306.1,56l-14.3,8.4l5,5.6l13-7.7C308.7,60.1,307.5,58,306.1,56z"/>
		<path class="st4" d="M305.3,79c-1.4-0.8-2.7-1.3-3.9-1.5c-1.8-9.6-8.5-19.9-16.5-24.5c-2.4-1.4-4.7-2.1-6.8-2.3
			c-1.1-11.7-9.2-25-19.1-30.7c-10.6-6.1-19.2-1.2-19.2,11.1c0,0.4,0,0.8,0,1.3c-7.8-3.6-13.8,0.5-13.8,9.6
			c0,9.8,6.9,21.7,15.3,26.6l64,36.9c6.4,3.7,11.5,0.7,11.5-6.7C316.8,91.6,311.6,82.7,305.3,79z"/>
		<g>
			<path class="st4" d="M239.8,32.5c0-0.4,0-0.8,0-1.3c0,0,0,0,0-0.1c-4.3-1.7-8-0.9-10.3,1.7C232,30.8,235.6,30.5,239.8,32.5z"/>
			<path class="st40" d="M306.2,78.1c-1.4-0.8-2.7-1.3-3.9-1.5c-1.8-9.6-8.5-19.9-16.5-24.5c-2.4-1.4-4.7-2.1-6.8-2.3
				c-1.1-11.7-9.2-25-19.1-30.7c-6.6-3.8-12.4-3.3-15.9,0.5c3.5-3,8.9-3.1,15,0.4c9.9,5.7,18,19,19.1,30.7c2.1,0.2,4.4,0.9,6.8,2.3
				c8,4.6,14.7,14.9,16.5,24.5c1.2,0.2,2.6,0.7,3.9,1.5c6.4,3.7,11.5,12.6,11.5,20c0,2.7-0.7,4.7-1.8,6.1c1.7-1.3,2.8-3.7,2.8-7
				C317.7,90.7,312.6,81.8,306.2,78.1z"/>
		</g>
		<g>
			<path class="st1" d="M238.4,35.4l4.8,2.2l-0.2-5.3c0-0.4,0-0.7,0-1.1c0-4.7,1.4-8.2,4-9.7c2.6-1.5,6.3-1,10.4,1.3
				c8.8,5.1,16.5,17.5,17.5,28.2l0.3,2.7l2.7,0.2c1.7,0.1,3.5,0.8,5.4,1.9c7,4,13.3,13.4,15,22.3l0.4,2.2l2.2,0.4
				c0.9,0.1,1.8,0.5,2.8,1.1c5.4,3.1,9.9,11,9.9,17.2c0,2.3-0.6,4-1.8,4.7c-1.1,0.6-2.9,0.4-4.9-0.8l-64-36.9
				c-7.4-4.3-13.7-15.2-13.7-23.8c0-3.4,1-5.9,2.7-7.1c0.7-0.5,1.6-0.7,2.6-0.7C235.6,34.4,237,34.7,238.4,35.4z"/>
		</g>
	</g>
	<g>
		<polygon class="st41" points="270.3,75.5 272,74.6 270.4,73.4 		"/>
		<polygon class="st41" points="265.3,52.7 266.9,51.9 266.9,52.7 		"/>
		<polygon class="st41" points="275.2,70.2 276.9,69.3 273.6,66.2 		"/>
		<g>
			<path class="st41" d="M271.5,74.6l-8-4.7c-0.4-0.2-0.7-0.8-0.7-1.3l0-9.3l9.5,5.6l0,9.3C272.3,74.6,271.9,74.8,271.5,74.6z"/>
			<path class="st41" d="M266.9,51.9l-8.6,5.6c-0.4,0.2-0.1,1.1,0.5,1.4l8.8,5.2l8.8,5.2c0.6,0.3,0.9-0.2,0.5-0.9l-8.6-15.7
				C267.9,52,267.3,51.6,266.9,51.9z"/>
		</g>
		<g>
			<path class="st42" d="M269.8,75.4l-8-4.7c-0.4-0.2-0.7-0.8-0.7-1.3l0-9.3l9.5,5.6l0,9.3C270.6,75.5,270.2,75.7,269.8,75.4z"/>
			<path class="st42" d="M265.2,52.7l-8.6,5.6c-0.4,0.2-0.1,1.1,0.5,1.4l8.8,5.2l8.8,5.2c0.6,0.3,0.9-0.2,0.5-0.9l-8.6-15.7
				C266.2,52.9,265.5,52.5,265.2,52.7z"/>
		</g>
	</g>
</g>
<g>
	<polygon class="st19" points="161.9,673.6 130.7,656.3 130.6,646.1 162.2,664.2 	"/>
	<polygon class="st4" points="162,673 182.7,674.9 512.4,482.7 493.2,472.2 	"/>
	<polygon class="st23" points="162.2,673.1 493.2,482.3 493.2,472.9 162.3,664.6 	"/>
	<polyline class="st43" points="130.6,646.1 460.9,453.6 492.7,472 	"/>
</g>
</svg>
