<?xml version="1.0" encoding="utf-8"?>
<!-- Generator: Adobe Illustrator 25.0.1, SVG Export Plug-In . SVG Version: 6.00 Build 0)  -->
<svg version="1.1" id="Mobile-Development" xmlns="http://www.w3.org/2000/svg" xmlns:xlink="http://www.w3.org/1999/xlink" x="0px"
	 y="0px" viewBox="0 0 37 25.8" style="enable-background:new 0 0 37 25.8;" xml:space="preserve">
<style type="text/css">
	.st0{fill:#FFFFFF;}
</style>
<g id="Group_973" transform="translate(-873 -83)">
	<path id="Path_1885" class="st0" d="M877.1,103.5h9.5l-1.8,4.6c-0.1,0.2,0.1,0.5,0.3,0.5h0.1h8.5c0.2,0,0.4-0.2,0.4-0.4v-0.1
		l-1.8-4.6h9.1c1,0,1.8-0.8,1.8-1.8v-1.4v-0.1l-1.8-2.5c0-0.1-0.1-0.1-0.2,0l-0.1,0.1v1.5c0,0.3-0.3,0.6-0.6,0.6h-23
		c-0.3,0-0.6-0.3-0.6-0.6V86.9c0-0.3,0.3-0.6,0.6-0.6h14.2c0,0,0.1,0,0.1-0.1c0.5-0.8,1.1-1.5,1.9-2.1c0.1-0.1,0-0.3-0.1-0.3H877
		c-1,0-1.8,0.8-1.8,1.8v16.2C875.3,102.7,876.1,103.5,877.1,103.5C877,103.5,877,103.5,877.1,103.5z"/>
	<path id="Path_1886" class="st0" d="M901.5,97.3c-0.1,0-0.1,0.1-0.2,0.1l0.2,0.3V97.3z"/>
	<path id="Path_1887" class="st0" d="M902.8,85.9c-2.3-2.4-6.2-2.4-8.6-0.1c-1.9,1.8-2.4,4.6-1.2,6.9l-1.1,0.8l-1.6-2.1
		c-0.1-0.2-0.3-0.3-0.5-0.4c-0.2,0-0.4,0-0.6,0.1L884,95c-0.1,0.1-0.2,0.3-0.1,0.5l0.5,0.6c0.1,0.1,0.3,0.2,0.5,0.1l4.5-3.3L891,95
		c0.1,0.1,0.1,0.2,0.3,0.3c0.3,0.2,0.6,0.2,0.9,0l1.8-1.2c0.1,0.1,0.1,0.1,0.2,0.2c2,2.2,5.4,2.6,7.8,0.9l2.8,4
		c0.5,0.7,1.5,0.9,2.2,0.4s0.9-1.5,0.4-2.2c-0.1-0.1-0.2-0.2-0.3-0.3l-3.8-3.1c1.5-1.9,1.8-4.6,0.5-6.8l1.3-0.9c0.1,0,0.1,0,0.2,0
		l0.8,1.1c0,0.1,0.1,0.1,0.2,0c0,0,0.1,0,0.1-0.1l0.6-3.4c0-0.1,0-0.1-0.1-0.1l-3.3-0.6c-0.1,0-0.1,0-0.2,0.1v0.1l0.9,1.4
		c0,0.1,0,0.1,0,0.2L902.8,85.9z M902.1,92.9c-1.5,2-4.4,2.4-6.5,0.9c-2-1.5-2.4-4.4-0.9-6.5c1.5-2,4.4-2.4,6.5-0.9
		c0.1,0.1,0.2,0.2,0.3,0.3l-6.5,4.6c0,0-0.1,0.1,0,0.1c0.1,0.5,0.4,0.9,0.8,1.1h0.1l0,0l6.6-4.6C903.4,89.5,903.2,91.5,902.1,92.9z"
		/>
</g>
</svg>
