<svg xmlns="http://www.w3.org/2000/svg" width="16.288" height="20.006" viewBox="0 0 16.288 20.006">
  <path id="Apple_logo_black" d="M15.768,6.821A4.531,4.531,0,0,0,13.6,10.632a4.411,4.411,0,0,0,2.685,4.046,10.492,10.492,0,0,1-1.375,2.839c-.856,1.232-1.751,2.463-3.111,2.463s-1.711-.79-3.281-.79c-1.531,0-2.075.816-3.319.816s-2.113-1.14-3.111-2.541A12.255,12.255,0,0,1,0,10.84c0-3.89,2.529-5.952,5.018-5.952,1.323,0,2.425.868,3.255.868.79,0,2.023-.92,3.527-.92a4.717,4.717,0,0,1,3.968,1.985ZM11.086,3.189A4.467,4.467,0,0,0,12.149.4a1.921,1.921,0,0,0-.038-.4A4.475,4.475,0,0,0,9.168,1.517a4.35,4.35,0,0,0-1.1,2.711A1.837,1.837,0,0,0,8.1,4.59a1.566,1.566,0,0,0,.272.026,3.878,3.878,0,0,0,2.711-1.427Z"/>
</svg>
