<svg xmlns="http://www.w3.org/2000/svg" width="90.151" height="129" viewBox="0 0 90.151 129"><defs><style>.a{opacity:0.484;}.b{fill:none;stroke:#fff;}</style></defs><g class="a" transform="translate(0.5 0.5)"><path class="b" d="M115.681,94.141,79.591,130.494a8.371,8.371,0,0,1-3.484,2.12c-.276.085-.552.151-.828.215a8.693,8.693,0,0,1-1.7.172,8.1,8.1,0,0,1-3.93-.986,7.59,7.59,0,0,1-.722-.429,7.006,7.006,0,0,1-.7-.514,4.122,4.122,0,0,1-.637-.578L31.5,94.143a8.626,8.626,0,0,1,0-12.116,8.467,8.467,0,0,1,12.023,0l21.56,21.751V13.562a8.5,8.5,0,1,1,16.993,0v90.212l21.581-21.751a8.467,8.467,0,0,1,12.023,0A8.629,8.629,0,0,1,115.681,94.141Z" transform="translate(-29.015 -5)"/></g></svg>