<svg xmlns="http://www.w3.org/2000/svg" width="45.141" height="48.401" viewBox="0 0 45.141 48.401">
  <g id="advance_data_visualization" data-name="advance data visualization" transform="translate(-112.731 -11.11)">
    <g id="Group_11432" data-name="Group 11432" transform="translate(146.233 46.137)">
      <path id="Path_19382" data-name="Path 19382" d="M139.7,44.784h-.174a5.617,5.617,0,0,1-3.985-1.8,5.675,5.675,0,0,1-1.55-4.1h0a5.719,5.719,0,1,1,5.709,5.9Zm-4.934-5.867.775.016a4.159,4.159,0,0,0,4.032,4.285,4.049,4.049,0,0,0,2.973-1.123,4.162,4.162,0,0,0-2.72-7.2,4.205,4.205,0,0,0-4.285,4.032Z" transform="translate(-133.99 -33.334)" stroke="#fff" stroke-width="0.4"/>
    </g>
    <g id="Group_11433" data-name="Group 11433" transform="translate(112.931 34.672)">
      <path id="Path_19383" data-name="Path 19383" d="M116.918,34.04h-.127a3.977,3.977,0,0,1-3.859-4.1h0a3.984,3.984,0,1,1,3.985,4.1ZM114.5,29.992a2.424,2.424,0,0,0,2.356,2.5,2.455,2.455,0,0,0,2.5-2.356,2.428,2.428,0,1,0-4.855-.142Z" transform="translate(-112.931 -26.084)" stroke="#fff" stroke-width="0.4"/>
    </g>
    <g id="Group_11434" data-name="Group 11434" transform="translate(137.22 11.459)">
      <path id="Path_19384" data-name="Path 19384" d="M132.278,19.359h-.127a3.983,3.983,0,0,1-2.609-6.879,4.053,4.053,0,0,1,2.846-1.075,3.978,3.978,0,0,1-.111,7.954Zm0-6.4a2.427,2.427,0,0,0-1.66.664,2.376,2.376,0,0,0-.759,1.692h0a2.428,2.428,0,1,0,2.5-2.356Zm-3.21,2.325Z" transform="translate(-128.291 -11.405)" stroke="#fff" stroke-width="0.4"/>
    </g>
    <g id="Group_11435" data-name="Group 11435" transform="translate(117.212 11.311)">
      <path id="Path_19385" data-name="Path 19385" d="M120.372,20.774h-.237a5.068,5.068,0,1,1,.237,0Zm0-7.907a3.139,3.139,0,0,0-2.135.822,3.182,3.182,0,0,0,1.977,5.535,3.234,3.234,0,0,0,2.293-.822h0a3.182,3.182,0,0,0-1.977-5.535Z" transform="translate(-115.638 -11.311)" stroke="#fff" stroke-width="0.4"/>
    </g>
    <g id="Group_11436" data-name="Group 11436" transform="translate(124.932 49.839)">
      <path id="Path_19386" data-name="Path 19386" d="M125.251,45.147h-.142a4.7,4.7,0,0,1-3.305-1.486,4.633,4.633,0,0,1-1.281-3.384,4.738,4.738,0,1,1,4.728,4.871Zm0-7.907a3.18,3.18,0,0,0-3.179,3.084h0a3.187,3.187,0,0,0,3.084,3.273,3.18,3.18,0,1,0,.19-6.357Zm-3.969,3.052Z" transform="translate(-120.52 -35.675)" stroke="#fff" stroke-width="0.4"/>
    </g>
    <g id="Group_11437" data-name="Group 11437" transform="translate(118.457 16.873)">
      <path id="Path_19387" data-name="Path 19387" d="M117.211,35.159a.8.8,0,0,1-.569-.237.778.778,0,0,1,.032-1.107l19.656-18.771a.783.783,0,1,1,1.075,1.139L117.748,34.954A.792.792,0,0,1,117.211,35.159Z" transform="translate(-116.426 -14.829)" stroke="#fff" stroke-width="0.4"/>
    </g>
    <g id="Group_11438" data-name="Group 11438" transform="translate(119.134 39.009)">
      <path id="Path_19388" data-name="Path 19388" d="M145.047,40.732a.739.739,0,0,1-.269-.047L117.357,30.326a.776.776,0,0,1,.538-1.455l27.421,10.358a.792.792,0,0,1,.459,1A.765.765,0,0,1,145.047,40.732Z" transform="translate(-116.853 -28.826)" stroke="#fff" stroke-width="0.4"/>
    </g>
    <g id="Group_11439" data-name="Group 11439" transform="translate(141.331 17.735)">
      <path id="Path_19389" data-name="Path 19389" d="M140.112,45.548a.778.778,0,0,1-.743-.553l-8.444-28.622a.776.776,0,0,1,1.486-.443l8.444,28.622a.773.773,0,0,1-.522.965A1.241,1.241,0,0,1,140.112,45.548Z" transform="translate(-130.89 -15.373)" stroke="#fff" stroke-width="0.4"/>
    </g>
    <g id="Group_11440" data-name="Group 11440" transform="translate(123.847 18.184)">
      <path id="Path_19390" data-name="Path 19390" d="M126.583,23.829a.735.735,0,0,1-.569-.253l-5.978-6.61a.783.783,0,0,1,1.154-1.06l5.977,6.61a.793.793,0,0,1-.047,1.107A.852.852,0,0,1,126.583,23.829Z" transform="translate(-119.834 -15.657)" stroke="#fff" stroke-width="0.4"/>
    </g>
    <g id="Group_11441" data-name="Group 11441" transform="translate(130.45 44.246)">
      <path id="Path_19391" data-name="Path 19391" d="M124.788,39.613a.754.754,0,0,1-.316-.063.776.776,0,0,1-.4-1.028l2.593-5.914a.764.764,0,0,1,1.028-.4.776.776,0,0,1,.4,1.028L125.5,39.154A.779.779,0,0,1,124.788,39.613Z" transform="translate(-124.009 -32.138)" stroke="#fff" stroke-width="0.4"/>
    </g>
  </g>
</svg>
