<svg xmlns="http://www.w3.org/2000/svg" width="16.039" height="19.7" viewBox="0 0 16.039 19.7">
  <path id="App_Store" data-name="App Store" d="M15.527,6.716A4.462,4.462,0,0,0,13.4,10.47a4.344,4.344,0,0,0,2.644,3.984,10.332,10.332,0,0,1-1.354,2.8c-.843,1.214-1.724,2.425-3.064,2.425S9.938,18.9,8.391,18.9c-1.507,0-2.043.8-3.269.8s-2.081-1.123-3.064-2.5A12.067,12.067,0,0,1,0,10.675c0-3.83,2.49-5.861,4.941-5.861,1.3,0,2.388.855,3.206.855.778,0,1.992-.906,3.473-.906a4.645,4.645,0,0,1,3.907,1.954ZM10.917,3.14A4.4,4.4,0,0,0,11.963.4a1.891,1.891,0,0,0-.037-.4,4.407,4.407,0,0,0-2.9,1.493,4.283,4.283,0,0,0-1.086,2.67,1.809,1.809,0,0,0,.037.357,1.542,1.542,0,0,0,.268.026,3.818,3.818,0,0,0,2.67-1.4Z" fill="#fff"/>
</svg>
