<svg xmlns="http://www.w3.org/2000/svg" width="19.194" height="20.393" viewBox="0 0 19.194 20.393">
  <path id="Appointment" d="M19.595,4.2H18.4V3.6a.6.6,0,1,0-1.2,0v.6H10V3.6a.6.6,0,1,0-1.2,0v.6H7.6A3.6,3.6,0,0,0,4,7.8v12a3.6,3.6,0,0,0,3.6,3.6h12a3.6,3.6,0,0,0,3.6-3.6V7.8a3.6,3.6,0,0,0-3.6-3.6Zm2.4,15.595a2.4,2.4,0,0,1-2.4,2.4H7.6a2.4,2.4,0,0,1-2.4-2.4V10.2H21.994Zm0-10.8H5.2V7.8A2.4,2.4,0,0,1,7.6,5.4H8.8V6A.6.6,0,1,0,10,6V5.4h7.2V6a.6.6,0,1,0,1.2,0V5.4h1.2a2.4,2.4,0,0,1,2.4,2.4Zm-2.4,7.2a2.4,2.4,0,1,1-2.4-2.4A2.4,2.4,0,0,1,19.595,16.2Z" transform="translate(-4 -3)" fill="#fff"/>
</svg>
