<svg xmlns="http://www.w3.org/2000/svg" width="150" height="177.487" viewBox="0 0 150 177.487">
  <g id="Asset_managers" data-name="Asset managers" transform="translate(45.089 1.324)">
    <path id="Path_19606" data-name="Path 19606" d="M-17.841,70.681c0,4.055-5.271,30.4-6.955,30.385-12.882-.156-12.842-5.312-12.842-5.312A105.866,105.866,0,0,0-25.766,65.609C-24.721,67.759-21.245,70.681-17.841,70.681Z" transform="translate(0.8 7.184)" fill="#221f1f"/>
    <path id="Path_19607" data-name="Path 19607" d="M-33.381,89.122c-1,2.035-2.059,4.042-3.228,5.986l-.443.73-.052.087v.144a1.424,1.424,0,0,0,.043.167,3.493,3.493,0,0,0,.775,1.293,6.956,6.956,0,0,0,2.625,1.748A19.408,19.408,0,0,0-29,100.439l2.078.212,2.035.092a.122.122,0,0,0,.107-.048.8.8,0,0,0,.072-.1,1.316,1.316,0,0,0,.092-.152,7.435,7.435,0,0,0,.331-.7,15.764,15.764,0,0,0,.551-1.52c.339-1.034.642-2.084.929-3.137.575-2.111,1.09-4.238,1.6-6.385.57-2.506,1.077-5.041,1.544-7.546q.443-2.418.83-4.848c.259-1.617.527-3.241.714-4.845.052-.5.107-.706.2-.7s.195.264.267.711a15.233,15.233,0,0,1-.155,4.389c-.535,3.32-1.174,6.616-1.876,9.905s-1.48,6.569-2.4,9.832c-.287.99-.578,2-.909,2.993-.168.5-.343,1-.55,1.5a7.2,7.2,0,0,1-.355.754c-.037.064-.08.132-.12.2-.021.034-.044.068-.069.1s-.068.087-.1.124a.863.863,0,0,1-.256.2.35.35,0,0,1-.152.052.432.432,0,0,1-.159.023l-1.6-.06a6.436,6.436,0,0,1-.774-.031l-.774-.076a26.512,26.512,0,0,1-3.068-.438l-.846-.2-.423-.1c-.14-.04-.276-.087-.4-.136l-.829-.271c-.271-.107-.539-.231-.8-.347a7.513,7.513,0,0,1-2.845-2.127,4.152,4.152,0,0,1-.475-.8,2.356,2.356,0,0,1-.176-.435,1.633,1.633,0,0,1-.12-.215,1.639,1.639,0,0,1-.048-.271v-.251a.345.345,0,0,1,.035-.076c.044-.087.128-.219.152-.259l.219-.363.44-.726c.567-.978,1.122-1.963,1.648-2.965,1.3-2.466,2.486-4.992,3.592-7.557a107.552,107.552,0,0,0,4.313-11.9c.164-.53.3-1.065.443-1.6s.288-1.061.4-1.6.259-1.062.363-1.6L-26.086,66l.127-.622.064-.316.035-.156c0-.048.029-.051.04-.075l.311.559.343.586a5.049,5.049,0,0,0,.355.532l.156.2a1.382,1.382,0,0,0,.123.144,10.4,10.4,0,0,0,1.057,1.061,12.115,12.115,0,0,0,1.664,1.2,11.669,11.669,0,0,0,2.463,1.11l.4.127.308.1c.187.072.334.132.471.192a3.437,3.437,0,0,1,.371.175c.127.092-.08.164-.587.2a6.253,6.253,0,0,1-2.267-.435,10.887,10.887,0,0,1-3.061-1.776,10.443,10.443,0,0,1-1.317-1.245c-.1-.116-.208-.224-.3-.351l-.037-.04h0c0-.024-.032-.04-.04-.056a.472.472,0,0,0,0,.112l-.115.547-.161.674c-.107.446-.219.9-.327,1.349s-.244.894-.363,1.344c-.5,1.792-1.057,3.592-1.668,5.356-.739,2.158-1.552,4.3-2.426,6.413s-1.8,4.206-2.794,6.265Z" transform="translate(0.768 7.1)" fill="#221f1f"/>
    <path id="Path_19608" data-name="Path 19608" d="M-16.8,21.191c1.018.659,2.224,2,3.572,1.473,1.169-.463.354-1.9.107-2.73-.076-.251-.942,0-.87.231.112.359.843,1.859.447,2.17s-2.067-1.217-2.443-1.464c-.227-.148-.989.2-.8.319Z" transform="translate(3.034 2.27)" fill="#221f1f"/>
    <path id="Path_19609" data-name="Path 19609" d="M58.888,20.912c-.478.276-1.6,1.441-2.206.961-.467-.4-.1-1.34.048-1.783s-.7-.512-.834-.121c-.264.755-.627,1.956.215,2.487,1.146.722,2.259-.467,3.172-.994.507-.291.044-.8-.4-.55Z" transform="translate(10.805 2.258)" fill="#221f1f"/>
    <path id="Path_19610" data-name="Path 19610" d="M54.522,20.494c-.239.32-.85,1.2-1.313.8a1.842,1.842,0,0,1-.215-1.68c.143-.443-.711-.471-.83-.1-.235.731-.239,2.028.575,2.426.973.475,2-.458,2.51-1.165.327-.443-.491-.579-.726-.256Z" transform="translate(10.423 2.209)" fill="#221f1f"/>
    <path id="Path_19611" data-name="Path 19611" d="M-11.32,19.7c.558.974,1.237,2.247,2.578,1.724,1.053-.4.829-1.62.634-2.5-.072-.323-.942-.1-.87.231s.439,1.64-.052,1.851c-.575.251-1.284-1.3-1.488-1.652-.152-.264-.993,0-.8.347Z" transform="translate(3.621 2.156)" fill="#221f1f"/>
    <path id="Path_19612" data-name="Path 19612" d="M-27.461,20.233a3.759,3.759,0,0,0,.135,1.5,3.137,3.137,0,0,0,.22.495,2.719,2.719,0,0,0,1.369,1.317,2.808,2.808,0,0,0,.869.212c.4.035.771-.02,1.169.04.12,0,.132.239.04.463a.677.677,0,0,1-.566.447,3.833,3.833,0,0,1-2.65-.926A4.305,4.305,0,0,1-27.951,22.4a4.51,4.51,0,0,1-.368-1.816,4.375,4.375,0,0,1,.148-1.129,3.171,3.171,0,0,1,.347-.8,2.906,2.906,0,0,1,.582-.654,3.291,3.291,0,0,1,1.2-.671,2,2,0,0,1,.311-.068c.4-.024.555.1.564.331a.81.81,0,0,1,0,.164.4.4,0,0,1-.363.307,2.63,2.63,0,0,0-1.461.886,2.535,2.535,0,0,0-.44,1.293Z" transform="translate(1.8 1.995)" fill="#221f1f"/>
    <path id="Path_19613" data-name="Path 19613" d="M-26.017,19.673a4.561,4.561,0,0,1,3.691,1.875,8.117,8.117,0,0,0-.563-4.245C-20.605,17.346.848,19.213.819,4.931c0,0,.188-6.236-3.168-5.24C-4.025.191-6.7,2.565-6.7,2.565S-6.128-.947-7.84-.9c-1.824.052-5.3,4.286-6.556,3.934C-16.663,2.393-28.363.641-31.364,6.548c-1.689,3.34-3.448,8.08,3.939,15.032A2.366,2.366,0,0,1-26.017,19.673Z" transform="translate(1.314 0.046)" fill="#221f1f"/>
    <path id="Path_19614" data-name="Path 19614" d="M-13.388,2.219c.682-.439,1.349-1,2.031-1.545a17.2,17.2,0,0,1,2.2-1.564,2.849,2.849,0,0,1,1.508-.435,1.391,1.391,0,0,1,.895.4A1.9,1.9,0,0,1-6.3-.182a4.444,4.444,0,0,1,.219,1.441v.3h0l.024-.02.043-.035.1-.076.4-.3L-5,.754a11.472,11.472,0,0,1,2.247-1.3A2.908,2.908,0,0,1-1.116-.737a2.172,2.172,0,0,1,.8.367A2.809,2.809,0,0,1,.265.236a6.41,6.41,0,0,1,.941,2.849,12.7,12.7,0,0,1,.072,2.553l-.035.639a4.471,4.471,0,0,1-.092.634l-.1.634c-.049.207-.109.4-.161.622a10.016,10.016,0,0,1-2.5,4.446A13.782,13.782,0,0,1-5.8,15.469a23.231,23.231,0,0,1-4.788,1.5,44.057,44.057,0,0,1-8.811.8c-.579,0-1.157,0-1.736-.024l-.834-.028a2.537,2.537,0,0,0-.343,0c.032.072.068.144.1.216a.761.761,0,0,1,.04.115l.084.283a8.773,8.773,0,0,1,.208,1.149c0,.192.035.4.04.578s0,.519,0,.8a6.948,6.948,0,0,1-.076.83l-.055.4a.418.418,0,0,1-.029.192l-.055.084-.478-.543-.251-.28a2.747,2.747,0,0,0-.244-.251l-.236-.211-.12-.107-.08-.06c-.1-.076-.2-.156-.316-.224a4.245,4.245,0,0,0-1.424-.595c-.463-.1-.694-.12-.751-.192s.107-.167.447-.231a3.3,3.3,0,0,1,1.536.144,4.787,4.787,0,0,1,1.014.483c.195.112.187.075.2.064a.294.294,0,0,0,0-.076h0v-.112a7.438,7.438,0,0,0-.156-1.309c-.023-.1-.043-.211-.075-.314l-.044-.156-.028-.1a1.478,1.478,0,0,0-.068-.176c-.188-.463-.4-.914-.591-1.361l2.167.08,1.241.041q1.244.032,2.486,0a43.44,43.44,0,0,0,4.944-.372,21.05,21.05,0,0,0,9.231-3.156A10.26,10.26,0,0,0-1.26,11.007,8.716,8.716,0,0,0,.153,7.95,11.835,11.835,0,0,0,.464,6.27L.5,5.4l.02-.435V4.542A9.155,9.155,0,0,0-.087,1.234,1.786,1.786,0,0,0-1.284.069a1.88,1.88,0,0,0-.858.068,5.5,5.5,0,0,0-.9.4,23.724,23.724,0,0,0-4.043,3c.08-.543.18-1.125.22-1.6V.878C-6.911.344-7.078-.231-7.41-.383a1.75,1.75,0,0,0-1.356.316,12.637,12.637,0,0,0-1.476.914c-.627.487-1.237,1-1.88,1.489a10.445,10.445,0,0,1-1.013.7,3.613,3.613,0,0,1-.6.283A1.4,1.4,0,0,1-14.1,3.4a.783.783,0,0,1-.216,0H-14.5a26.253,26.253,0,0,0-4.668-.678,27.384,27.384,0,0,0-3.592,0,17.4,17.4,0,0,0-3.516.523,10.542,10.542,0,0,0-1.66.6,7.248,7.248,0,0,0-1.5.9,6.818,6.818,0,0,0-.654.57,6.749,6.749,0,0,0-.551.667,6.1,6.1,0,0,0-.451.73c-.127.271-.267.535-.4.8a11.415,11.415,0,0,0-.866,2.573,8.873,8.873,0,0,0-.107,2.662,11.3,11.3,0,0,0,2.063,4.912A21.594,21.594,0,0,0-28.9,19.5c.288.319.539.619.8.861l.327.332.1.111.072.081.035.043h0a.748.748,0,0,1,.06-.159.655.655,0,0,1,.056-.087.883.883,0,0,0,.052-.089l.072-.1a2.017,2.017,0,0,1,.295-.328,1.423,1.423,0,0,1,.559-.314,1.316,1.316,0,0,1,.458-.072c.128,0,.032.115-.192.311a2.373,2.373,0,0,0-.375.4,1.886,1.886,0,0,0-.187.311l-.044.092-.055.127a2.514,2.514,0,0,0-.115.427,1.51,1.51,0,0,0-.352.319v.029h-.423l-.275-.268-.582-.563c-.148-.147-.312-.283-.452-.443-.283-.311-.57-.622-.854-.938s-.538-.667-.8-1a10.966,10.966,0,0,1-.742-1.061A11.054,11.054,0,0,1-33.3,12.547a10.418,10.418,0,0,1,1.033-5.3c.092-.208.188-.4.283-.607s.2-.4.32-.61l.179-.311.207-.292a4.634,4.634,0,0,1,.455-.554,7.729,7.729,0,0,1,2.239-1.632,12.879,12.879,0,0,1,1.9-.746,17.9,17.9,0,0,1,1.971-.44,24.193,24.193,0,0,1,3.991-.271,33.026,33.026,0,0,1,3.954.291c.654.092,1.306.2,1.963.34.164.04.328.071.5.12h.115v.052h0c.024-.069,0-.04,0-.044a.636.636,0,0,0,.092,0A2.606,2.606,0,0,0-13.4,2.2Z" transform="translate(1.262 0)" fill="#221f1f"/>
    <path id="Path_19615" data-name="Path 19615" d="M57.089,3.749C58.98,5.158,67.6-1.722,74.587,5.29c2.65,2.653,3.572,8.492-3.108,16.129,0,0,0-1.835-1.2-2.25a4.484,4.484,0,0,0-3.491,2.222,8.146,8.146,0,0,1,.147-4.282c-2.219.259-23.265,5.671-24.681-9.138C41.309-1.866,53.5,1.072,57.089,3.749Z" transform="translate(9.369 0.266)" fill="#221f1f"/>
    <path id="Path_19616" data-name="Path 19616" d="M55.144,17.616a36.24,36.24,0,0,0,5.882-.168q1.472-.146,2.941-.4l1.468-.247,1.094-.188.642-.1.323-.048a1.8,1.8,0,0,1,.3-.032l-.227.674c-.072.227-.161.471-.22.682l-.123.57-.044.34c-.02.227-.035.458-.035.69v.427a1.321,1.321,0,0,0,0,.187c0,.044,0,.176.06.076a1.641,1.641,0,0,1,.155-.184l.044-.04.072-.064a.741.741,0,0,1,.107-.087,4.823,4.823,0,0,1,.443-.319,4.923,4.923,0,0,1,1.52-.651,2.195,2.195,0,0,0,.276-.052h.14l.2-.023h.2a4.275,4.275,0,0,1,.475.231,1.8,1.8,0,0,1,.331.264,2.285,2.285,0,0,1,.5.615.974.974,0,0,1,.109.262,1.28,1.28,0,0,1,.023.172v.072l.064-.075L72,20.05l.283-.327.582-.815c.2-.275.4-.543.587-.834l.555-.858c.176-.291.328-.59.495-.889l.244-.443.211-.463c.127-.311.295-.611.4-.93a11.159,11.159,0,0,0,.818-3.911,7.445,7.445,0,0,0-.938-3.79,6.416,6.416,0,0,0-1.285-1.552,10.878,10.878,0,0,0-1.637-1.261,10.067,10.067,0,0,0-1.844-.89,10.274,10.274,0,0,0-2-.471,14.133,14.133,0,0,0-5.248.455c-.866.211-1.727.471-2.6.731-.435.127-.878.251-1.33.362a6.118,6.118,0,0,1-1.444.2,1.313,1.313,0,0,1-.731-.2c-.143-.116-.175-.192-.131-.228a.534.534,0,0,1,.291-.04l.247-.028.3-.075c.874-.256,2.394-1.122,4.466-1.689a16.445,16.445,0,0,1,5.778-.662,10.677,10.677,0,0,1,5.5,2.071,6.069,6.069,0,0,1,.579.46,6.384,6.384,0,0,1,.55.487,8.181,8.181,0,0,1,1.018,1.117A7.314,7.314,0,0,1,76.993,8.33a5.278,5.278,0,0,1,.14.742,4.689,4.689,0,0,1,.08.746c0,.247.024.495.024.746l-.049.739a4.98,4.98,0,0,1-.092.734c-.043.244-.075.486-.127.726l-.187.706a5.314,5.314,0,0,1-.22.7c-.135.355-.247.726-.4,1.077l-.5,1.05c-.371.674-.722,1.361-1.153,2s-.875,1.269-1.325,1.9c-.084.123-.307.4-.491.61l-.563.687-.563.687-.283.343c-.076.083-.116.083-.231.192-.02-.5-.044-1.042-.08-1.485a3.206,3.206,0,0,0-.1-.587c-.023-.083-.051-.147-.08-.223l-.04-.1-.028-.052a1.257,1.257,0,0,0-.259-.368.764.764,0,0,0-.156-.123.337.337,0,0,0-.1-.049h-.12a.983.983,0,0,0-.236.044,3.172,3.172,0,0,0-.467.136,4.019,4.019,0,0,0-.869.443c-.112.08-.224.159-.331.247l-.084.076a1.231,1.231,0,0,0-.14.123,2.516,2.516,0,0,0-.271.3c-.348.4-.746.962-1.057,1.389l-.06-.092-.032-.048v-.075l-.1-.4c-.06-.267-.12-.535-.171-.8s-.084-.591-.112-.89l-.024-.427v-.3a8.506,8.506,0,0,1,.092-1.2,2.332,2.332,0,0,1,.124-.495.081.081,0,0,0,0-.023h-.176l-.207.035-1.007.176c-.722.12-1.444.235-2.17.331-1.453.2-2.917.343-4.389.4a24.187,24.187,0,0,1-9.3-1.2,12.368,12.368,0,0,1-3.18-1.688,9.332,9.332,0,0,1-2.394-2.7,6.575,6.575,0,0,1-.427-.8,5.971,5.971,0,0,1-.359-.829c-.1-.283-.208-.567-.3-.85l-.212-.874a6.61,6.61,0,0,1-.159-.883c-.037-.3-.092-.59-.116-.889s-.043-.595-.048-.9a6.135,6.135,0,0,1,.04-.9,6.052,6.052,0,0,1,.83-2.7,5.184,5.184,0,0,1,2.118-1.9A7.877,7.877,0,0,1,47.614.84a13.221,13.221,0,0,1,2.761.043,17.824,17.824,0,0,1,2.375.44,12.432,12.432,0,0,1,2.957,1.145,3.073,3.073,0,0,1,1.117.946,2.158,2.158,0,0,1,.236.4c.075.351-.9-.279-2.874-.969a17.956,17.956,0,0,0-4.581-.962,8.3,8.3,0,0,0-4.446.739A3.933,3.933,0,0,0,43.631,4.06a4.972,4.972,0,0,0-.639,2.091,8.93,8.93,0,0,0,.08,2.343,8.148,8.148,0,0,0,.216,1.2l.144.578c.043.2.127.375.187.563a8.726,8.726,0,0,0,1.732,2.958A9.651,9.651,0,0,0,48.145,15.9a17.518,17.518,0,0,0,7.012,1.676Z" transform="translate(9.338 0.227)" fill="#221f1f"/>
    <path id="Path_19617" data-name="Path 19617" d="M-4.727,31.083A8.281,8.281,0,0,1-5.8,34.4a4.854,4.854,0,0,1-2.814,2.15l-.627.164-.622.1a8.281,8.281,0,0,1-1.261.068,8.065,8.065,0,0,1-4.19-1.337,13.653,13.653,0,0,1-3.145-2.965c-.8-.989-1.524-2.031-2.218-3.068-.895-1.333-1.768-2.673-2.578-4.034-.519-.85.9-.288,1.891,1.281.881,1.38,1.724,2.757,2.65,4.069a17.767,17.767,0,0,0,3.153,3.552,7.214,7.214,0,0,0,2.486,1.352,7.316,7.316,0,0,0,2.837.28,7.245,7.245,0,0,0,.8-.1,4.576,4.576,0,0,0,.746-.192,4.1,4.1,0,0,0,1.317-.739A4.246,4.246,0,0,0-6.4,33.809a6.89,6.89,0,0,0,.584-1.465,13.933,13.933,0,0,0,.4-3.959,46.636,46.636,0,0,0-.619-6.1c-.239-1.572-.555-3.1-.742-4.682-.04-.351-.084-.694-.1-1.049a4.825,4.825,0,0,1,.1-1.433,1.776,1.776,0,0,1,.152-.371.788.788,0,0,1,.208-.211.93.93,0,0,1,.2-.128c.211-.023.123.44.14,1.329a34.091,34.091,0,0,0,.491,4.175c.236,1.436.478,2.906.67,4.389a28.023,28.023,0,0,1,.216,6.76Z" transform="translate(2.331 1.688)" fill="#221f1f"/>
    <path id="Path_19618" data-name="Path 19618" d="M-9.162,34.233c-.3,2.426-2.749,3.384-4.921,2.662a5.9,5.9,0,0,1-3.763-4.949S-14.379,36.383-9.162,34.233Z" transform="translate(2.924 3.571)" fill="#221f1f"/>
    <path id="Path_19619" data-name="Path 19619" d="M-16.7,33.777V33.75l-.049-.055-.023-.037h0a.178.178,0,0,0,0,.076.615.615,0,0,0,.023.127.1.1,0,0,0,.029.08,3.04,3.04,0,0,0,.167.328,5.325,5.325,0,0,0,.682.941,4.97,4.97,0,0,0,1.6,1.261,4.161,4.161,0,0,0,2,.4A3.071,3.071,0,0,0-10.6,36.3a2.626,2.626,0,0,0,.743-.829,4.211,4.211,0,0,0,.431-1.038c.072-.228.287-.187.458.072a1.312,1.312,0,0,1,0,1.3,3.681,3.681,0,0,1-2.342,1.776,4.593,4.593,0,0,1-2.829-.2,6.23,6.23,0,0,1-2.685-2.019,6.113,6.113,0,0,1-.5-.778c-.08-.144-.12-.236-.236-.478s-.163-.423-.243-.635a5.82,5.82,0,0,1-.161-.591l-.1-.538-.08-.547-.035-.287v-.176h0a.068.068,0,0,0,.072-.04.245.245,0,0,0,.063-.132c.463.555.843,1,1.2,1.365l.478.423a2.714,2.714,0,0,0,.244.19l.164.121a6.888,6.888,0,0,0,2.84,1.249,5.763,5.763,0,0,0,2.351-.1c.167-.044.331-.1.5-.132.615-.2.8-.227,1.041-.055a1.024,1.024,0,0,1,.147.111c.132.141-.08.368-.563.587l-.267.12-.283.089-.579.163a5.769,5.769,0,0,1-.6.092,3.5,3.5,0,0,1-.618.048,6.972,6.972,0,0,1-2.47-.4,8.232,8.232,0,0,1-1.672-.838c-.132-.075-.251-.175-.379-.264l-.089-.063h0l-.035-.044Z" transform="translate(2.889 3.487)" fill="#221f1f"/>
    <path id="Path_19620" data-name="Path 19620" d="M54.583,34.762c.687,2.343,3.264,2.889,5.287,1.82A5.666,5.666,0,0,0,63,31.4,8.035,8.035,0,0,1,54.583,34.762Z" transform="translate(10.697 3.512)" fill="#221f1f"/>
    <path id="Path_19621" data-name="Path 19621" d="M62.9,30.753l.587-.861v2.359a2.642,2.642,0,0,1-.04.3l-.049.3a1.64,1.64,0,0,1-.08.323,5.206,5.206,0,0,1-.2.642,3.758,3.758,0,0,1-.176.4,5.7,5.7,0,0,1-.706,1.149,6.565,6.565,0,0,1-1.787,1.517,5.1,5.1,0,0,1-2.239.7,4.3,4.3,0,0,1-2.071-.347,3,3,0,0,1-1.756-2.015c-.072-.279.159-.288.435-.156a2.513,2.513,0,0,1,.826.659,2.792,2.792,0,0,0,1.795.978,4.148,4.148,0,0,0,2.215-.308,5.173,5.173,0,0,0,2.179-1.9,5.331,5.331,0,0,0,.591-1.157,2.3,2.3,0,0,0,.083-.368,1.617,1.617,0,0,0,.02-.207v-.147h0l-.028.035-.1.127c-.08.089-.167.18-.264.271l-.155.144-.3.256a8.8,8.8,0,0,1-2.9,1.6,10.134,10.134,0,0,1-1.238.328c-.212.044-.423.055-.634.084l-.319.04H55.7c-.7-.072-.91-.188-1.01-.432a.884.884,0,0,1-.06-.167c-.024-.179.275-.279.746-.247a10.435,10.435,0,0,0,1.053,0,3.94,3.94,0,0,0,.523-.052,4.675,4.675,0,0,0,.527-.072,8.2,8.2,0,0,0,2.023-.659,8.459,8.459,0,0,0,1.364-.849c.111-.079.218-.163.32-.251l.152-.132.04-.037a.848.848,0,0,0,.087-.08c.052-.048.1-.107.156-.159l.61-.654.694-.993Z" transform="translate(10.674 3.35)" fill="#221f1f"/>
    <path id="Path_19622" data-name="Path 19622" d="M14.353,74.854c-.679,1.384-.843,6.731-.843,6.731C9.991,80.153-23.326,76.058-26.762,68.7c-3.563-7.637-1.465-34.039,9.326-31.621,0,0-1.1,5.531-.8,8.02,0,0,.654-.854,1.54-1.891-.043.279-2.837,19.338-.494,22.065C-14.224,68.7,11.3,74,14.353,74.854Z" transform="translate(1.795 4.104)" fill="#221f1f"/>
    <path id="Path_19623" data-name="Path 19623" d="M-18.76,43.463c.052-1.129.176-2.184.323-3.261.076-.538.156-1.069.248-1.6l.14-.8.043-.239v-.052h-.235c-.08,0-.159-.024-.24-.024a5.169,5.169,0,0,0-.961.037,4.987,4.987,0,0,0-1.812.615A8.35,8.35,0,0,0-24.02,40.98a24.365,24.365,0,0,0-2.889,7.741,47.7,47.7,0,0,0-.961,8.38,40.7,40.7,0,0,0,.4,7.415,17.689,17.689,0,0,0,.886,3.552,5.227,5.227,0,0,0,.363.8c.072.124.152.244.231.36a3.13,3.13,0,0,0,.276.339,7.937,7.937,0,0,0,1.337,1.2,19.312,19.312,0,0,0,3.192,1.812,32.509,32.509,0,0,0,3.452,1.4c2.343.842,4.742,1.544,7.156,2.178,4.285,1.126,8.659,2.028,12.986,2.861L8.02,80.064c.938.175,1.871.354,2.794.546.467.1.938.2,1.4.308.231.052.475.115.7.175a2.508,2.508,0,0,1,.268.084c.011-.089.018-.178.02-.267l.04-.654c.028-.467.063-.935.1-1.4a27.9,27.9,0,0,1,.4-2.794c.043-.2.092-.375.132-.523a3.17,3.17,0,0,1,.135-.371c.1-.2.179-.3.219-.308a2.525,2.525,0,0,1,0,.846c-.032.551-.06,1.378-.08,2.4,0,.51,0,1.069-.023,1.672,0,.837-.032,1.735-.052,2.673l-.874-.307L12.758,82l-.251-.064-.918-.211c-2.794-.6-5.663-1.108-8.5-1.668s-5.683-1.133-8.516-1.779-5.658-1.349-8.456-2.184a52.982,52.982,0,0,1-8.229-3.1,20.609,20.609,0,0,1-2.326-1.338,9.008,9.008,0,0,1-2.071-1.839,4.936,4.936,0,0,1-.714-1.245c-.172-.427-.323-.863-.452-1.3a22.162,22.162,0,0,1-.582-2.665,44.829,44.829,0,0,1-.219-10.819,45.337,45.337,0,0,1,.838-5.536A29.939,29.939,0,0,1-25.954,42.9a13.18,13.18,0,0,1,3.192-4.685,7.561,7.561,0,0,1,1.2-.842,6.087,6.087,0,0,1,1.361-.547,5.765,5.765,0,0,1,1.456-.187,5.348,5.348,0,0,1,.73.048,5.029,5.029,0,0,1,.5.075c.176.037.355.064.527.1l-.188.978-.115.654c-.256,1.5-.471,3.016-.575,4.526l-.028.518v.771l.043-.052,1.66-2.02-.295,2-.224,1.676-.319,2.621a106.531,106.531,0,0,0-.778,10.918,26.7,26.7,0,0,0,.092,2.714,8.262,8.262,0,0,0,.538,2.582,2.212,2.212,0,0,0,.834.894A9.306,9.306,0,0,0-15.2,66.3a26.42,26.42,0,0,0,2.478,1.061c2.63.982,5.315,1.761,7.98,2.486s5.379,1.39,8.089,2.035l3.572.826c4.469,1.038,5.882,1.413,6.783,1.872a5.255,5.255,0,0,1,.595.314c.184.14-.176.12-.993,0s-2.112-.379-3.752-.734c-4.877-1.057-9.876-2.2-14.9-3.591-2.51-.7-5.033-1.441-7.526-2.363a21.816,21.816,0,0,1-3.687-1.7,4.389,4.389,0,0,1-.447-.308,2.857,2.857,0,0,1-.438-.379,2.2,2.2,0,0,1-.4-.5,4.755,4.755,0,0,1-.251-.538,9.071,9.071,0,0,1-.434-2.071,35.9,35.9,0,0,1-.121-4.941c.052-1.637.161-3.264.3-4.892s.307-3.244.495-4.864l.3-2.426.048-.4v-.075l.4-.5.212-.259.083-.1-.159.192-.63.775-.156.192-.147.163-.291.323-.3.319-.147.164s-.029.044-.029.024v-.176l-.08-.921c-.02-.3-.055-.591-.06-.9v-.942Z" transform="translate(1.758 4.074)" fill="#221f1f"/>
    <path id="Path_19624" data-name="Path 19624" d="M2.447,72.176C.4,71.7-8.328,69.292-10.722,68.518c-.231-6.011-.647-13.313-.219-25L-7.957,38.6C-4.086,37.5-.378,55.652,2.447,72.176Z" transform="translate(3.645 4.279)" fill="#221f1f"/>
    <path id="Path_19625" data-name="Path 19625" d="M-5.206,42a10.347,10.347,0,0,0-1.257-2.164,2.269,2.269,0,0,0-.8-.682.855.855,0,0,0-.2-.064H-7.6a.042.042,0,0,0-.04,0l-.112.184-2.714,4.389-.064,1.6c-.055,1.493-.072,2.989-.1,4.481-.124,5.263-.064,10.531.127,15.8l.064,1.756.031.834v.109a.131.131,0,0,0,0,.051h.064l.259.08c1.114.336,2.239.654,3.356.967,2.874.8,5.778,1.536,8.636,2.366.886.247.722.431-.1.451a15.658,15.658,0,0,1-3.939-.6q-2.206-.6-4.389-1.226l-2.2-.638-1.1-.331-.575-.128-.471-.152L-11.1,69l-.12-.04V68.83q-.076-2.453-.152-4.912-.06-2.3-.072-4.605c-.02-3.679-.06-7.51.032-11.273l.068-2.255.087-2.346,2.119-3.448.515-.842.259-.4.084-.14c.035-.055.068-.112.1-.164.048-.14.2-.123.323-.155a2.49,2.49,0,0,1,.374-.024,1.475,1.475,0,0,1,.3.052,1.831,1.831,0,0,1,.543.239,3.584,3.584,0,0,1,.8.726,13.3,13.3,0,0,1,1.851,3.436c.475,1.2.878,2.394,1.249,3.631,1.11,3.7,1.948,7.491,2.749,11.234.619,2.909,1.226,5.763,1.792,8.647.124.634.244,1.258.368,1.9.439,2.394.507,3.148.371,3.7a1.951,1.951,0,0,1-.092.362c-.135.26-.443-.69-.8-2.422C.6,64.629-.433,59.193-1.675,53.791c-.463-2-.958-3.991-1.52-5.986a42.712,42.712,0,0,0-2-5.782Z" transform="translate(3.608 4.249)" fill="#221f1f"/>
    <path id="Path_19626" data-name="Path 19626" d="M-13.176,42.285l-.3-1.253-.156-.6-.072-.316-.028-.135v-.112c0-.024-.032-.028-.055-.024l-.069.02a2.455,2.455,0,0,0-.478.291c-.208.152-.4.32-.615.492a13.682,13.682,0,0,0-1.142,1.125,9.816,9.816,0,0,0-.874,1.129c-.343.5-.622,1.041-1,1.52-.231.311-.734-.519-.336-1.162A12.612,12.612,0,0,1-15.763,40.3c.3-.256.6-.523.926-.8l.251-.187.132-.092.164-.1a1.492,1.492,0,0,1,.863-.251h.179a.538.538,0,0,1,.143.052l.336,1.453.271,1.121c.128.507.259,1.014.4,1.517.111.379.227.757.359,1.129l.1.267a1.043,1.043,0,0,0,.064.159,1.763,1.763,0,0,0,.152.3l.04.049s.023.052.035,0l.064-.128.112-.235.048-.109a.351.351,0,0,1,.024-.055l.051-.1.212-.4c.06-.12.116-.239.18-.359.247-.435.379-.544.63-.515a.741.741,0,0,1,.172,0c.175.048.192.3.048.638-.112.251-.227.5-.351.754l-.192.375-.379.671a4.233,4.233,0,0,1-.427.618l-.216.276c-.035.092-.071,0-.107-.052l-.112-.156-.419-.518-.368-.746-.14-.368c-.043-.1-.075-.207-.112-.314-.072-.208-.14-.4-.2-.627-.131-.4-.247-.834-.362-1.253Z" transform="translate(2.859 4.314)" fill="#221f1f"/>
    <path id="Path_19627" data-name="Path 19627" d="M6.026,94.349s-4.389.719-6.883-.271c0,0-1.632-10.072-2.794-19.178,2.143.363,4.306.737,6.461,1.2C4.231,84.752,5.344,92.131,6.026,94.349Z" transform="translate(4.447 8.181)" fill="#221f1f"/>
    <path id="Path_19628" data-name="Path 19628" d="M1.307,76.394l-3.844-.757-.239-.049-.147-.028-.092-.023s-.04-.02-.037,0v.14l.236,1.936.4,2.837c.423,3.336.863,6.676,1.341,10,.112.737.224,1.48.339,2.218l.176,1.077.024.128a.285.285,0,0,0,.115.043l.2.068.259.061a11.623,11.623,0,0,0,2.762.239c.938,0,1.879-.069,2.814-.14.578-.052.546.175.072.454a5.532,5.532,0,0,1-2.527.619A13.959,13.959,0,0,1,.133,95c-.259-.054-.514-.121-.766-.2l-.674-.231a4.871,4.871,0,0,1-.132-.7l-.215-1.444q-.4-2.9-.771-5.815c-.276-2.334-.662-4.745-.97-7.127L-3.9,75.4l-.1-.8v-.1h.084l.195.037.4.075,1.2.231,1.948.4,2.394.467.73.14.112.024c.028,0,.1,0,.084.044l.035.227.069.4.187,1.2c.379,2.427.746,4.873,1.149,7.275.316,1.871.679,3.7,1.05,5.531q.131.6.255,1.2c.316,1.5.4,1.975.251,2.351a1.384,1.384,0,0,1-.087.255c-.124.2-.463-.4-.75-1.492-.83-3.277-1.39-6.785-1.964-10.276l-.622-3.911-.307-1.959v-.109H2.336l-.969-.183Z" transform="translate(4.41 8.138)" fill="#221f1f"/>
    <path id="Path_19629" data-name="Path 19629" d="M-4.291,64.671v.85c0,.1.037.2.037.308a8.78,8.78,0,0,0,.048,1.117,2.886,2.886,0,0,0,.1.483A1.229,1.229,0,0,1-4,68.052c-.031.14-.869.14-.926-.1a4.059,4.059,0,0,1-.1-1.318,4.591,4.591,0,0,0-.072-.8c-.02-.3-.031-.6-.031-.9v-.555c0-.283.031-.567.043-.85,0-.223-.02-.451,0-.69a1.277,1.277,0,0,1,0-.159c.048-.2.144-.236.36-.172a1.172,1.172,0,0,1,.151.043.4.4,0,0,1,.276.3,6.406,6.406,0,0,1,0,1.01v.818Z" transform="translate(4.289 6.848)" fill="#221f1f"/>
    <path id="Path_19630" data-name="Path 19630" d="M-14.6,82.758a8.631,8.631,0,0,1-1-.044c-.328-.037-.651-.1-.974-.156-.231-.055-.466-.087-.7-.143a14.66,14.66,0,0,1-2.3-.942c-.323-.167-.654-.316-.978-.475a4.589,4.589,0,0,1-1.2-.71c-.211-.2.543-.7.974-.447.8.443,1.564.874,2.37,1.3a6.89,6.89,0,0,0,1.572.51l.443.1.447.072a7.024,7.024,0,0,0,.9.092,5.23,5.23,0,0,0,.559,0,3.217,3.217,0,0,0,.555-.048A4.939,4.939,0,0,0-13.1,81.7l.4-.12c.132-.048.255-.115.4-.172a5.26,5.26,0,0,0,1.065-.722l.2-.2c.268-.231.4-.256.6-.132a.9.9,0,0,1,.143.08c.144.107.124.311-.068.53a4.94,4.94,0,0,1-2.222,1.461,5.342,5.342,0,0,1-1,.247c-.168.029-.336.061-.5.081l-.512.028Z" transform="translate(2.501 8.703)" fill="#221f1f"/>
    <path id="Path_19631" data-name="Path 19631" d="M-6.419,99.837c-1.9,1.887-8.173.595-8.173.595C-12.684,97.51-10.43,75.562-11,72.82c1.948.4,3.784,1.105,5.759,1.441C-5.793,80.546-4.132,97.562-6.419,99.837Z" transform="translate(3.273 7.958)" fill="#221f1f"/>
    <path id="Path_19632" data-name="Path 19632" d="M-5.983,74.688c-.883-.195-1.736-.446-2.575-.69l-1.257-.36-.471-.127a.676.676,0,0,0-.1-.024.887.887,0,0,1,0,.109v.563c0,.439,0,.869-.024,1.3-.031.863-.087,1.724-.147,2.582-.092,1.269-.179,2.534-.307,3.795-.46,4.446-1.042,8.875-1.868,13.272-.179.922-.363,1.844-.582,2.762-.112.46-.231.918-.371,1.373l-.112.339c-.04.107-.084.251-.1.3l-.08.192-.075.144c0,.028.092.023.132.035l.67.1c.307.041.619.072.93.1.618.056,1.24.087,1.859.1a13.321,13.321,0,0,0,1.832-.109,5.06,5.06,0,0,0,1.684-.491c.3-.172.431-.247.495-.175s0,.279-.239.563a3.161,3.161,0,0,1-1.266.8,6.407,6.407,0,0,1-2.011.343,19.211,19.211,0,0,1-2.354-.1c-.389-.04-.776-.089-1.162-.144l-.288-.044-.518-.087c-.371-.068-.731-.147-1.09-.219l.336-.615.264-.551.068-.135a.773.773,0,0,0,.048-.107l.052-.152.107-.3c.132-.42.248-.843.36-1.273.219-.866.4-1.747.582-2.633q.523-2.658.941-5.359c.487-3.061.8-6.273,1.086-9.43.107-1.237.2-2.478.275-3.72q.053-.925.072-1.855V73.563l-.04-.4c-.024-.255-.06-.5-.1-.754.359.06.762.164,1.137.251l.423.1.367.1,1.445.4c.515.147,1.025.295,1.54.423.259.063.518.123.774.175l.587.116.147.028h.064v.075l-.024.288-.04.555-.02.4c0,.264-.024.53-.032.8,0,.535-.023,1.07-.028,1.6,0,3.249.084,6.521.147,9.753.049,2.514.128,4.981,0,7.482-.028.55-.055,1.09-.115,1.649a8.366,8.366,0,0,1-.467,2.183,2.7,2.7,0,0,1-.291.547,1.46,1.46,0,0,1-.319.3,1.34,1.34,0,0,1-.308.135c-.123,0-.063-.152.044-.458a9.245,9.245,0,0,0,.355-1.557,48.019,48.019,0,0,0,.3-6.711c0-2.3-.076-4.641-.128-6.992-.043-1.744-.08-3.5-.092-5.252,0-.877,0-1.76.024-2.645,0-.438.032-.89.055-1.324v-.132l-.207-.044Z" transform="translate(3.188 7.913)" fill="#221f1f"/>
    <path id="Path_19633" data-name="Path 19633" d="M-26.14,147.744l-1.154,6.121-.6,3.062-.328,1.531c-.055.256-.115.512-.183.771-.032.132-.069.259-.112.4a1.679,1.679,0,0,1-.132.323.444.444,0,0,1-.112.128c-.024.051-.084.068-.127.1l-.336.14a1.481,1.481,0,0,1-.256.1l-.515.132a7.4,7.4,0,0,1-1.025.1,10.95,10.95,0,0,1-2-.14,19.544,19.544,0,0,1-1.916-.4c-.314-.084-.63-.176-.941-.276l-.231-.075-.172-.056-.2-.072-.2-.072a1.449,1.449,0,0,1-.08-.167l-.068-.179v-.2a5.592,5.592,0,0,1,0-.578l.023-.467.064-.926.164-1.831q.173-1.832.4-3.652c.962-8.575,2.135-17.111,3.277-25.651.495-3.79,1-7.6,1.488-11.361.627-4.837,1.221-9.692,1.968-14.509.471-3,.762.929,0,6.492-1.313,9.865-2.658,19.721-4.035,29.657-.8,5.943-1.56,12.147-2.215,18.241-.1,1.01-.2,2-.283,3.021l-.035.751v.627c0,.04,0,.1.055.1l.2.072c.235.076.474.148.714.216a16.339,16.339,0,0,0,2.917.575,9.007,9.007,0,0,0,1.456.024,5.923,5.923,0,0,0,.7-.112c.112-.032.228-.052.336-.092l.251-.1c.04,0,.055-.035.068-.068v-.048l.028-.1c.044-.156.089-.316.124-.475l.224-.973.4-1.975.763-3.959,2.262-12.255c1.133-6.19,2.291-12.408,3.456-18.541.909-4.788,1.776-9.453,2.793-14.15.224-1.038.444-2.046.7-3.088.933-3.847,1.456-5.048,2.014-5.746a1.97,1.97,0,0,1,.4-.42c.179-.087.043.156-.164.826s-.51,1.736-.866,3.129c-1.033,4.138-1.884,8.463-2.754,12.841s-1.7,8.832-2.5,13.3c-1.2,6.633-2.438,13.3-3.66,19.953Z" transform="translate(0.887 10.626)" fill="#221f1f"/>
    <path id="Path_19634" data-name="Path 19634" d="M-15.686,149.009l.427,4.789c.155,1.6.3,3.192.518,4.753a2.3,2.3,0,0,0,.044.259.388.388,0,0,0,.052.175.785.785,0,0,0,.247.3,1.734,1.734,0,0,0,.87.3,6.931,6.931,0,0,0,2.222-.219c.375-.092.751-.2,1.122-.319l.55-.192.168-.064c.023,0,.048,0,.043-.035l.172-1.01c.076-.4.1-.8.156-1.2.279-2.3.4-4.641.55-6.967.467-8.225.679-16.469.838-24.714.063-3.655.1-7.334.1-10.966,0-4.665-.032-9.35.06-14.011.06-2.909.886.778.877,6.158,0,9.533-.132,19.059-.463,28.664-.207,5.743-.351,11.724-.75,17.6-.124,1.617-.256,3.229-.46,4.845-.035.4-.123.8-.183,1.2l-.116.691-.044.239v.055l-.055.024-.115.044-.4.163a15.252,15.252,0,0,1-2.394.683,8.723,8.723,0,0,1-1.257.147,3.844,3.844,0,0,1-1.318-.156,1.846,1.846,0,0,1-1.128-.889,1.075,1.075,0,0,1-.132-.36c-.037-.14-.04-.223-.06-.331q-.048-.311-.084-.61c-.2-1.617-.351-3.22-.507-4.832-.367-3.963-.694-7.93-1.01-11.9-.478-5.986-.9-12.04-1.312-18.005-.316-4.642-.647-9.179-.886-13.78-.048-1.01-.1-2-.14-3.021-.136-3.787-.044-5,.2-5.81a4.285,4.285,0,0,1,.167-.532c.192-.354.259,1.2.368,3.935.164,4.094.4,8.3.69,12.57s.567,8.591.883,12.925c.466,6.437.961,12.906,1.524,19.35Z" transform="translate(2.742 10.754)" fill="#221f1f"/>
    <path id="Path_19635" data-name="Path 19635" d="M-30.547,154.223c.495,2.59-9.509,4.37-13.472,2.59s9.661-3.257,9.661-3.257A7.21,7.21,0,0,0-30.547,154.223Z" transform="translate(0.037 16.622)" fill="#221f1f"/>
    <path id="Path_19636" data-name="Path 19636" d="M-42.07,155.415c-.367.092-.734.188-1.085.3-.176.06-.348.12-.51.187-.084.035-.159.068-.236.107l-.1.056-.055.032a.126.126,0,0,0-.068.075.116.116,0,0,0,.06.092h0l.052.028a.511.511,0,0,0,.107.06c.076.041.155.079.235.112a5.37,5.37,0,0,0,.507.192,9.948,9.948,0,0,0,1.6.331,20,20,0,0,0,5.878-.112,13.777,13.777,0,0,0,2.53-.665,7.757,7.757,0,0,0,1.456-.723,1.9,1.9,0,0,0,.894-1.021c0-.216.228-.328.464.023a1.076,1.076,0,0,1,.087.351,1.208,1.208,0,0,1-.084.46,1.828,1.828,0,0,1-.662.842,7.154,7.154,0,0,1-1.68.85,13.734,13.734,0,0,1-1.741.507,18.928,18.928,0,0,1-3.547.426,20.719,20.719,0,0,1-4.389-.212,9.109,9.109,0,0,1-1.2-.311,5.8,5.8,0,0,1-.582-.231,2.413,2.413,0,0,1-.638-.4.755.755,0,0,1-.28-.8,1.236,1.236,0,0,1,.584-.639,5.955,5.955,0,0,1,1.157-.475,25.28,25.28,0,0,1,2.861-.666c1.452-.268,2.912-.467,4.357-.671l1.8-.264.14.064.116.048.184.069.371.123c.251.076.5.132.757.184a6.617,6.617,0,0,0,.691.1c.431.044.71.056.91.087a.776.776,0,0,1,.431.2,1,1,0,0,1,.147.135c.12.152-.247.4-.978.423a6.454,6.454,0,0,1-1.544-.14,7.217,7.217,0,0,1-.763-.2c-.127-.04-.251-.08-.375-.127l-.192-.076h-.04l-3.064.44c-1.54.235-3.093.475-4.585.842Z" transform="translate(0 16.591)" fill="#221f1f"/>
    <path id="Path_19637" data-name="Path 19637" d="M-14.16,154.194s.935,5.188,9.85,4.893-6.469-5.407-6.122-5.531A5.484,5.484,0,0,1-14.16,154.194Z" transform="translate(3.319 16.622)" fill="#221f1f"/>
    <path id="Path_19638" data-name="Path 19638" d="M-3.369,156.1c.332.183.663.379.99.59a5.215,5.215,0,0,1,.955.774,1.876,1.876,0,0,1,.267.359,1.067,1.067,0,0,1,.132.464.909.909,0,0,1-.46.8,1.447,1.447,0,0,1-.211.116,1.807,1.807,0,0,1-.172.072c-.107.035-.211.063-.311.092-.2.048-.4.08-.595.107a11.771,11.771,0,0,1-1.663.115,14.657,14.657,0,0,1-5.727-.973,8.808,8.808,0,0,1-2.27-1.289l-.331-.267-.3-.3a6.066,6.066,0,0,1-.563-.642,4.446,4.446,0,0,1-.739-1.549c-.037-.179,0-.279.092-.291a.7.7,0,0,1,.351.152,4.06,4.06,0,0,1,.958,1,6.459,6.459,0,0,0,2.235,1.971,10.534,10.534,0,0,0,2.941,1.082,11.828,11.828,0,0,0,1.943.259c.662,0,1.333.024,2,0a10.2,10.2,0,0,0,1.07-.092,4.6,4.6,0,0,0,.5-.1l.215-.076a.406.406,0,0,0,.1-.052.162.162,0,0,0,.063-.195.321.321,0,0,0-.055-.1,1.157,1.157,0,0,0-.144-.159,5.7,5.7,0,0,0-.834-.63,21.664,21.664,0,0,0-2.394-1.266c-1.253-.582-2.535-1.125-3.819-1.62l-.8-.3-.371-.14a.585.585,0,0,1-.092-.044.921.921,0,0,1-.08.048,2.511,2.511,0,0,1-.3.156c-.12.06-.243.112-.367.164a6.051,6.051,0,0,1-.759.244,6.27,6.27,0,0,1-.73.135c-.93.072-1.226-.075-1.381-.316a.717.717,0,0,1-.1-.172c-.049-.192.314-.251.906-.291a6.119,6.119,0,0,0,1.232-.219c.2-.055.4-.132.595-.207l.283-.128.14-.071.1-.056.144-.08.219.431v.024h0v-.555h0v.555h0c0,.028.049.04.076.055h.063l.06-.135c.2-.543.22-.3.264-.323l.084.032.176.072.722.279,1.473.578a44.237,44.237,0,0,1,4.118,1.884Z" transform="translate(3.295 16.57)" fill="#221f1f"/>
    <path id="Path_19639" data-name="Path 19639" d="M2.591,92.555a6.163,6.163,0,0,0,.571,2.989A6.632,6.632,0,0,1,3.868,97.9c0,.579-.1,2.127-.75,1.07-.1-.167-.8.128-.754.2.674,1.094,1.884.547,2.167-.555.555-2.158-1.381-4.054-1.2-6.261,0-.068-.735,0-.755.2Z" transform="translate(5.093 10.051)" fill="#221f1f"/>
    <path id="Path_19640" data-name="Path 19640" d="M2.525,98.4a1.541,1.541,0,0,1-.2.862c-.023.032-.1.1-.1.116.055-.089.111.028-.02-.032a.913.913,0,0,1-.587-.834c0-.211-.759-.072-.751.2A1.113,1.113,0,0,0,2.01,99.761c.914,0,1.257-.754,1.269-1.56,0-.2-.751-.072-.754.2Z" transform="translate(4.932 10.671)" fill="#221f1f"/>
    <path id="Path_19641" data-name="Path 19641" d="M1.011,98.687a1.589,1.589,0,0,1,0,.308,1.918,1.918,0,0,1-.068.307c-.04.12-.136.216-.176.323-.043.044-.035.044,0,0s.069-.028,0-.043a1.124,1.124,0,0,0-.1-.076A.969.969,0,0,1,.485,99.3a1.426,1.426,0,0,1-.2-.746c0-.2-.759-.06-.751.2.02.77.555,1.441,1.381,1.2A1.331,1.331,0,0,0,1.745,98.5c0-.207-.77-.06-.75.2Z" transform="translate(4.79 10.703)" fill="#221f1f"/>
    <path id="Path_19642" data-name="Path 19642" d="M-3.33,98.087a2.756,2.756,0,0,1,.2-.288,1.13,1.13,0,0,1,.291-.251,2.724,2.724,0,0,1,.543-.247,8.084,8.084,0,0,1,.994-.256l.334-.075.168-.037h.087c.072,0,.08-.043.107-.107.049-.192.092-.4.132-.59.08-.4.156-.8.22-1.2a10.207,10.207,0,0,0,.107-1.089A7.972,7.972,0,0,1-.029,92.58c0-.072.083,0,.159-.049a.268.268,0,0,1,.3.04.8.8,0,0,1,.4.667,15.374,15.374,0,0,1-.452,2.874c-.063.247-.112.5-.159.762a3.689,3.689,0,0,1-.135.547.384.384,0,0,1-.08.124l-.056.04h-.02l.024.028H-.078a.742.742,0,0,1-.291.087l-.192.04-.111.02c-.312.056-.623.116-.922.2a2.909,2.909,0,0,0-.8.3,1.348,1.348,0,0,0-.374.85,5.463,5.463,0,0,0,.075,1.724,8.557,8.557,0,0,0,.4,1.3c.032.092.08.179.109.275.123.348.107.472-.08.623-.04.038-.081.073-.124.107-.147.1-.351,0-.487-.264a7.349,7.349,0,0,1-.742-2.566,4.074,4.074,0,0,1,.276-2.231Z" transform="translate(4.446 10.07)" fill="#221f1f"/>
    <path id="Path_19643" data-name="Path 19643" d="M6.383,98.652a4.913,4.913,0,0,0-.06-.946,1.852,1.852,0,0,0-.109-.276.843.843,0,0,0-.083-.192A.323.323,0,0,0,6,97.132a2.276,2.276,0,0,0-.558-.2,2.535,2.535,0,0,0-.571-.044,1.885,1.885,0,0,1-.739-.02c-.155-.051,0-.886.332-.889a3.581,3.581,0,0,1,1.668.331,2.234,2.234,0,0,1,.575.355,2.073,2.073,0,0,1,.2.267c.049.09.092.182.132.276a4.068,4.068,0,0,1,.179,1.141v.674c0,.336-.037.671-.04,1,0,.259.032.515.043.774a1.168,1.168,0,0,1,0,.176c0,.211-.083.287-.314.287H6.747A.368.368,0,0,1,6.414,101a5.576,5.576,0,0,1-.071-1.344c0-.336.028-.674,0-1Z" transform="translate(5.276 10.443)" fill="#221f1f"/>
    <path id="Path_19644" data-name="Path 19644" d="M13.375,100.036c-1.994.4-18.983,2.518-18.983,2.518l.6,14.641a57.334,57.334,0,0,0,19.738-2.733C13.667,106.856,13.795,100.04,13.375,100.036Zm-7.239,6.855c-.618.176-2.6.674-3.172.36-.634-.348-.4-1.229,0-1.577.582-.483,3.192-.575,3.192-.127A7.571,7.571,0,0,1,6.136,106.891Z" transform="translate(4.237 10.878)" fill="#221f1f"/>
    <path id="Path_19645" data-name="Path 19645" d="M3.033,117.4q-2.621.231-5.248.259H-3.531l-1.6-.037h-.255V117.3l-.024-.563v-.654l-.043-1.3-.156-3.807-.279-8.664,5.268-.634c1.971-.235,3.95-.495,5.9-.762,2.506-.348,5.024-.722,7.522-1.025.762-.109.714.1.08.4a12.667,12.667,0,0,1-3.272.85c-2.515.347-5.033.665-7.554.973l-3.791.443-1.9.212-.949.1-.479.052h-.115v1.1l.035,1.2c.032.8.06,1.6.092,2.394l.192,4.789.1,2.629.044,1.313v.491c-.032.124.1.076.172.092,1.7.048,3.476.024,5.208-.075a59.459,59.459,0,0,0,6.4-.694c1.6-.264,3.192-.591,4.789-1.01.4-.1.8-.212,1.173-.331s.774-.236,1.157-.368l.2-.068c.052-.02.132-.024.1-.1l-.064-.475-.155-1.2c-.3-2.51-.543-4.976-.726-7.463-.04-.55-.08-1.085-.12-1.636a10.784,10.784,0,0,1,0-3.133.636.636,0,0,0,.02-.316c-.02-.035-.06-.055-.037-.072a.173.173,0,0,1,.164.052,1,1,0,0,1,.211.4,9.037,9.037,0,0,1,.279,1.712c.2,2.227.351,4.5.571,6.8q.163,1.727.371,3.468l.107.869.14,1.042.06.435v.055s-.032,0-.043.02l-.1.037-.211.072-.642.215c-.28.1-.567.192-.85.276a52.874,52.874,0,0,1-10.431,1.975Z" transform="translate(4.208 10.859)" fill="#221f1f"/>
    <path id="Path_19646" data-name="Path 19646" d="M3.128,105.355a2.384,2.384,0,0,0-.595.14.6.6,0,0,0-.291.328.786.786,0,0,0-.052.347.356.356,0,0,0,.08.224.326.326,0,0,0,.1.087l.049.028.08.024a3.026,3.026,0,0,0,.866.035,4.725,4.725,0,0,0,.822-.159,5.155,5.155,0,0,1,1.042-.239c.227,0,.152.762-.271.87a5.861,5.861,0,0,1-2.335.207,2.8,2.8,0,0,1-.423-.1,1.18,1.18,0,0,1-.423-.271,1.117,1.117,0,0,1-.307-.9,1.555,1.555,0,0,1,.379-.861,1.112,1.112,0,0,1,.4-.3,2.639,2.639,0,0,1,.4-.135,5.794,5.794,0,0,1,.966-.127,6.4,6.4,0,0,1,1.476.068,1.077,1.077,0,0,1,.4.147.437.437,0,0,1,.184.339c.023.192.043.4.063.571a.8.8,0,0,0,.024.239c0,.3-.056.4-.264.458-.044,0-.112.037-.127,0s0,.024,0,0a.041.041,0,0,0-.04-.035c-.164-.035-.132-.024-.176-.055a.42.42,0,0,1-.107-.224c-.024-.144-.048-.291-.068-.44l-.029-.223a.7.7,0,0,0,0-.1h0a.027.027,0,0,0-.031,0H4.537a7.07,7.07,0,0,0-1.385.068Z" transform="translate(4.995 11.362)" fill="#221f1f"/>
    <path id="Path_19647" data-name="Path 19647" d="M16.844,72.807l-1.029-.259c-.121-.028-.081-.028-.112-.032l-.128.029c-.123.043-.279.123-.443.2a3.337,3.337,0,0,1-.826.323,1.745,1.745,0,0,1-.889-.06,1.369,1.369,0,0,1-.726-.591,1.237,1.237,0,0,1-.092-.184l-.02-.068v-.152c0-.055-.024-.028-.044-.02l-.063.024-.144.052h-.04l-.069.028-.135.064-.276.132-.538.271a7.386,7.386,0,0,1-1.4.65c-.311.087-.3-.83.231-1.093s.95-.455,1.437-.659l.363-.156c.172-.068.446-.2.647-.267h.426s-.072.164-.035.087h.023l.04.02c.044.037.136.04.18.136a1.053,1.053,0,0,1,.087.359.99.99,0,0,0,.055.2l.032.084a.543.543,0,0,0,.076.123.508.508,0,0,0,.235.152,1.128,1.128,0,0,0,.7-.052c.291-.1.57-.282.981-.431a1.194,1.194,0,0,1,.4-.063,1.408,1.408,0,0,1,.2.028l.127.032.518.123,1.281.311c.647.156,1.3.336,1.94.515a15.641,15.641,0,0,1,1.508.455,2.866,2.866,0,0,1,.327.144c.4.215.484.379.4.607a.85.85,0,0,1-.052.155c-.1.156-.3.156-.55.052a22.729,22.729,0,0,0-2.535-.8c-.67-.172-1.361-.339-2.051-.495Z" transform="translate(5.876 7.766)" fill="#221f1f"/>
    <path id="Path_19648" data-name="Path 19648" d="M15.622,73.8c1.325,1.03,3.456,1.142,5.041,1.266.447.035.443-.662,0-.7a14.5,14.5,0,0,1-3.591-.638,5.365,5.365,0,0,1-.751-.312c-.044-.023-.328-.215-.2-.111-.351-.272-.849.219-.494.494Z" transform="translate(6.504 8.001)" fill="#221f1f"/>
    <path id="Path_19649" data-name="Path 19649" d="M16.052,75.577a11.251,11.251,0,0,0,4.143.718.351.351,0,0,0,0-.7A10.67,10.67,0,0,1,16.24,74.9C15.817,74.746,15.633,75.42,16.052,75.577Z" transform="translate(6.537 8.178)" fill="#221f1f"/>
    <path id="Path_19650" data-name="Path 19650" d="M16.374,77.494a7,7,0,0,0,3.591-.586c.4-.2.049-.8-.351-.6a6.388,6.388,0,0,1-3.228.492c-.447-.032-.447.67,0,.7Z" transform="translate(6.562 8.327)" fill="#221f1f"/>
    <path id="Path_19651" data-name="Path 19651" d="M11.321,76.736c.1-.192.2-.379.316-.558a4.991,4.991,0,0,1,.339-.5c.1-.1.194-.2.283-.308.1-.156.132.092-.032-.064a1.827,1.827,0,0,1,.216.176,1,1,0,0,1,.212.567,1.891,1.891,0,0,1-.056.65.351.351,0,0,0,.674.187,2.52,2.52,0,0,0,.04-1.121c-.087-.463-.471-1.146-1.018-1.134-.451,0-.8.492-1.013.818a7.622,7.622,0,0,0-.567.938c-.2.4.4.75.607.351Z" transform="translate(5.985 8.152)" fill="#221f1f"/>
    <path id="Path_19652" data-name="Path 19652" d="M13.213,75.994c.135-.192.4-.4.622-.283a.962.962,0,0,1,.375.607,2.166,2.166,0,0,1,.055.579,1.866,1.866,0,0,1,0,.223v.032c-.072.44.6.627.674.184a2.564,2.564,0,0,0-.259-1.736,1.224,1.224,0,0,0-.91-.634,1.4,1.4,0,0,0-1.145.679c-.255.371.351.722.6.351Z" transform="translate(6.188 8.188)" fill="#221f1f"/>
    <path id="Path_19653" data-name="Path 19653" d="M14.727,77.32a1.544,1.544,0,0,1,.622-.551c.14-.075.438-.243.595-.135.224.152.115.635.052.85a.351.351,0,0,0,.674.183c.167-.563.159-1.361-.435-1.672-.719-.4-1.76.4-2.112.974a.349.349,0,0,0,.6.351Z" transform="translate(6.35 8.287)" fill="#221f1f"/>
    <path id="Path_19654" data-name="Path 19654" d="M25.012,74.422a17.944,17.944,0,0,1-3.321-.127.351.351,0,0,0-.183.674,18.947,18.947,0,0,0,3.5.152C25.458,75.153,25.458,74.454,25.012,74.422Z" transform="translate(7.123 8.115)" fill="#221f1f"/>
    <path id="Path_19655" data-name="Path 19655" d="M59.211,79.295a19.838,19.838,0,0,1-2.043.271c-.248.02-.5.055-.751.063a10.48,10.48,0,0,1-2.653-.267,5.711,5.711,0,0,1-1.166-.4,2.089,2.089,0,0,1-.687-.51,1.165,1.165,0,0,1-.295-.858c0-.195.235-.14.458-.04l.32.14.127.06a.32.32,0,0,1,.087.076,2.087,2.087,0,0,0,.926.575,9.536,9.536,0,0,0,1.333.343,7.488,7.488,0,0,0,1.767.023,17.12,17.12,0,0,0,1.96-.223c.4-.064.8-.152,1.2-.248a12.793,12.793,0,0,0,1.764-.558,9.908,9.908,0,0,0,1.249-.674c.087-.056.167-.116.259-.164.336-.192.463-.2.65-.044a1.092,1.092,0,0,1,.128.109c.12.135.048.339-.188.526a8.313,8.313,0,0,1-2.434,1.253,16.577,16.577,0,0,1-2,.55Z" transform="translate(10.379 8.379)" fill="#221f1f"/>
    <path id="Path_19656" data-name="Path 19656" d="M50.035,73.53a68.5,68.5,0,0,1-25.383,3.228,20.688,20.688,0,0,1,.367-4.944c13.528-2.02,25.715-7.982,27.634-12.036C53.835,57.288,50.575,73.33,50.035,73.53Z" transform="translate(7.483 6.53)" fill="#221f1f"/>
    <path id="Path_19657" data-name="Path 19657" d="M40.544,68.28A72.856,72.856,0,0,1,29.3,71.52c-.7.144-1.4.283-2.1.4-.347.063-.7.131-1.049.183l-.527.084-.127.02h-.06l-.029.167-.075.455c-.048.3-.087.607-.127.91-.072.61-.124,1.2-.141,1.824v.809c0,.024.04,0,.06,0l.251.024c.619.052,1.238.075,1.856.1a63.344,63.344,0,0,0,7.435-.184,64.969,64.969,0,0,0,6.573-.834,77.926,77.926,0,0,0,8.172-2.028c.838-.243.8,0,.164.435a8.3,8.3,0,0,1-1.389.746c-.3.127-.627.259-.978.4a10.441,10.441,0,0,1-1.129.334,66.091,66.091,0,0,1-17.3,2l-1.318-.032-1.329-.06-1.6-.112h-.2v-.351c0-.179-.024-.4-.028-.547v-.69a22.071,22.071,0,0,1,.235-2.714l.1-.682.1-.55c0-.04,0-.107.04-.124l.135-.023.28-.044.762-.12.654-.1a73.025,73.025,0,0,0,11.3-2.841,58.1,58.1,0,0,0,6.648-2.693,34.6,34.6,0,0,0,4.645-2.7,15.577,15.577,0,0,0,2.071-1.7c.081-.08.176-.192.264-.283l.132-.148a1.239,1.239,0,0,0,.14-.175,5.859,5.859,0,0,1,.591-.8l.4-.423c.048-.048.068-.12.168-.135.1.06.1.152.131.227a2.53,2.53,0,0,1,.072.455,4.671,4.671,0,0,1-.023.647c-.049.466-.132,1.049-.176,1.352-.1.691-.216,1.381-.331,2.067q-.347,2.055-.751,4.1c-.123.6-.235,1.2-.371,1.8-.5,2.239-.777,2.944-1.16,3.344-.089.087-.2.219-.283.224s0,.032,0,0a.126.126,0,0,0-.048-.069c-.024,0,0-.023-.021-.031a2.7,2.7,0,0,1,.049-.4c.068-.4.195-1.033.367-1.844.512-2.418.986-4.92,1.428-7.458.109-.634.216-1.273.312-1.908L52.2,61.6V61.56h0l-.109.116-.1.115c-.032.037-.116.112-.172.168-.244.247-.5.471-.763.694a27.931,27.931,0,0,1-5.035,3.232A55.778,55.778,0,0,1,40.6,68.308Z" transform="translate(7.448 6.508)" fill="#221f1f"/>
    <path id="Path_19658" data-name="Path 19658" d="M44.445,106.482c-.055,2.866,7.43-1.2,7.43-1.2.8-3.767,2.527-65.88,1.844-65.306C51,42.258,51.648,55.207,48.607,70.168A237.967,237.967,0,0,0,44.445,106.482Z" transform="translate(9.609 4.432)" fill="#221f1f"/>
    <path id="Path_19659" data-name="Path 19659" d="M50.6,52.008c.192-1.787.375-3.591.615-5.375.12-.9.256-1.8.431-2.694.089-.446.184-.9.3-1.344.056-.224.12-.447.2-.671.035-.112.068-.224.112-.334l.087-.231a2.538,2.538,0,0,1,.116-.283,3.371,3.371,0,0,1,1.121-1.48l.268-.04c.107.023.127.071.187.123a.98.98,0,0,1,.256.647c.035.363.048.8.055,1.2v2.187c0,1.8-.028,3.592-.06,5.4-.043,2.625-.075,5.248-.14,7.87q-.35,13.868-.9,27.726c-.161,4.1-.32,8.224-.479,12.291-.064,1.4-.132,2.793-.195,4.19l-.128,2.1-.083,1.054-.052.53-.04.295a3.661,3.661,0,0,1-.076.4l-.558.3-.4.207c-.275.14-.555.271-.834.4q-.842.4-1.712.714a13.5,13.5,0,0,1-1.8.547,6.276,6.276,0,0,1-.953.136,2.486,2.486,0,0,1-1.038-.14,1.422,1.422,0,0,1-.319-.188,1.236,1.236,0,0,1-.208-.259,1.118,1.118,0,0,1-.14-.447c0-.224.044-.314.089-.3s.087.132.171.3a.77.77,0,0,0,.559.451,5.243,5.243,0,0,0,2.586-.575c1.062-.419,2.3-1.025,3.615-1.7l.116-.06h0l.02-.172.052-.479.08-.973.132-1.963.211-3.939q.179-3.95.354-7.9.321-7.906.643-15.867c.255-6.432.4-13.133.53-19.717.072-3.615.147-7.24.147-10.855V41.266a.8.8,0,0,0-.023-.136c-.037,0-.064.056-.1.08a1.621,1.621,0,0,0-.156.224,2.09,2.09,0,0,0-.12.251l-.064.159c-.04.1-.072.208-.1.311a32.2,32.2,0,0,0-.99,5.272c-.563,4.417-.918,8.891-1.525,13.28-.435,3.352-.99,6.7-1.668,10.017s-1.226,6.641-1.716,9.936c-.739,5.152-1.245,10.232-1.632,15.36-.075,1.129-.147,2.235-.227,3.376-.268,4.222-.355,5.563-.622,6.465a5.794,5.794,0,0,1-.172.595c-.184.4-.3-1.337-.172-4.441a214.725,214.725,0,0,1,3.153-28.537l1.029-5.335q.5-2.661.878-5.347c.519-3.591.9-7.183,1.269-10.774Z" transform="translate(9.583 4.387)" fill="#221f1f"/>
    <path id="Path_19660" data-name="Path 19660" d="M20.677,70.72c-.95-.152-1.9-.316-2.837-.483l-.938-.152a2.271,2.271,0,0,0-.714.212,7.3,7.3,0,0,0-.774.4c-.256.152-.5.316-.743.487-.12.087-.239.179-.351.271l-.259.215a.829.829,0,0,0-.236.316.1.1,0,0,0,.063.126.084.084,0,0,0,.037.006,1.211,1.211,0,0,0,.2,0,1.062,1.062,0,0,0,.231-.06l.183-.064c.072-.032.144-.055.208-.092a2.276,2.276,0,0,0,.7-.495c.116-.12.316-.023.4.264a1,1,0,0,1-.558,1.018,3.2,3.2,0,0,1-.595.236,3.729,3.729,0,0,1-.982.144,1.112,1.112,0,0,1-.734-.211.793.793,0,0,1-.2-.3.783.783,0,0,1-.037-.343,1.489,1.489,0,0,1,.368-.737,4.682,4.682,0,0,1,.622-.6,7.439,7.439,0,0,1,.926-.634c.4-.227.774-.458,1.2-.667a3.993,3.993,0,0,1,.687-.264,1.034,1.034,0,0,1,.2-.043,1.589,1.589,0,0,1,.251,0l.359.06c.942.172,1.888.336,2.834.483.582.092,1.165.179,1.752.251.883.116,1.776.224,2.658.267a15.415,15.415,0,0,0,2.023-.048,3.9,3.9,0,0,0,.435-.048,3.031,3.031,0,0,1,.567,0,.459.459,0,0,1,.291.187,1.171,1.171,0,0,1,.107.14c.1.161-.111.343-.546.455a14.238,14.238,0,0,1-3.887.092c-.97-.083-1.932-.207-2.893-.339Z" transform="translate(6.206 7.576)" fill="#221f1f"/>
    <path id="Path_19661" data-name="Path 19661" d="M92.05,97.8c-1.6.619-6.537,0-6.537,0-.219-5.7-8.149-24.518-12.1-33.553.279,10.978,6.449,37.193,6.449,37.193-2.155-.052-14.406,4.673-14.406,4.673-3.591-2.315-3.894-54.093-.251-69.716C77.772,33.638,90.162,87.292,92.05,97.8Z" transform="translate(11.56 4.038)" fill="#221f1f"/>
    <path id="Path_19662" data-name="Path 19662" d="M63.538,58.064q-.42,8.959-.4,17.934c0,5.985.14,11.971.535,17.921.14,2.087.323,4.167.59,6.23.141,1.03.3,2.059.515,3.061a13.191,13.191,0,0,0,.4,1.468,5.5,5.5,0,0,0,.267.667,2.314,2.314,0,0,0,.124.216.142.142,0,0,0,.068.06l.239-.092c3.615-1.345,7.228-2.678,10.938-3.791.467-.132.935-.271,1.413-.4.236-.064.475-.116.726-.159l.3-.06h.167v-.052l-.023-.112-.144-.631-.316-1.409q-.623-2.82-1.217-5.646-1.2-5.656-2.23-11.341c-.687-3.791-1.318-7.582-1.788-11.425-.107-.846-.207-1.7-.279-2.553l-.08-.85c-.037-.327-.049-.622-.069-.933l-.1-1.884-.048-.946-.029-.471v-.184a.141.141,0,0,1,0,.043l.1.216.754,1.7.762,1.748.639,1.476c1.349,3.145,2.67,6.293,3.939,9.438,1.628,4.043,3.225,8.113,4.609,12.264a52.619,52.619,0,0,1,1.756,6.345c.043.275.12.538.14.822l.072.687v.087c0,.024.048,0,.072.02l.231.028.8.08a30.994,30.994,0,0,0,3.221.152,10.776,10.776,0,0,0,1.424-.092c.291-.035.4-.051.4,0s-.144.156-.443.264a5.889,5.889,0,0,1-1.329.291,17.776,17.776,0,0,1-2.087.124c-.4,0-.834,0-1.286-.02l-.694-.032h-.179l-.283-.023-.319-.029h-.164c-.052,0-.124,0-.112-.068-.048-.351-.1-.71-.143-1.073a5.7,5.7,0,0,0-.136-.746c-.124-.507-.216-1.034-.379-1.577-.283-1.081-.634-2.227-1-3.416-1.338-4.21-2.918-8.379-4.55-12.49-.817-2.064-1.66-4.118-2.509-6.173l-2.127-5.148c0-.032-.052-.168-.044-.072v.323l.076.826c.115,1.1.255,2.2.4,3.3s.3,2.207.475,3.3c.678,4.389,1.484,8.779,2.342,13.193.443,2.274.918,4.561,1.409,6.855.251,1.149.5,2.3.759,3.456l.4,1.727.3,1.293c.023.04-.024.035-.052.04h-.279l-.371.035H79.5a1.684,1.684,0,0,0-.172.029l-.211.043a35.049,35.049,0,0,0-3.387.935c-1.129.351-2.251.742-3.373,1.137s-2.238.8-3.355,1.2l-1.672.622-1.9.719a2.867,2.867,0,0,1-.339-.3,3.363,3.363,0,0,1-.279-.348l-.156-.279-.124-.279a9.345,9.345,0,0,1-.363-1.114c-.195-.742-.339-1.484-.463-2.222-.486-3.005-.722-6.022-.918-9.038s-.3-6.034-.4-9.051q-.216-9.054,0-18.113c.2-7.431.539-14.861,1.376-22.252.164-1.4.352-2.794.584-4.19q.171-1.046.4-2.087l.112-.518.08-.355.044-.192c0-.024,0-.08.035-.076h.1l.691-.1h.558a5.538,5.538,0,0,1,2.127.571A8.236,8.236,0,0,1,70.3,37.8a17.641,17.641,0,0,1,2.866,3.165,47.884,47.884,0,0,1,4.262,7.346c1.2,2.538,2.3,5.124,3.308,7.73,1.565,4.054,2.945,8.129,4.23,12.219s2.458,8.2,3.56,12.37c.483,1.828.95,3.62,1.4,5.471,1.66,6.872,2,9.1,2.078,10.635,0,.348.049.8.032,1.01-.055.7-.674-2.107-1.871-7.127-1.776-7.447-3.807-15.049-6.189-22.655-1.2-3.8-2.483-7.6-3.923-11.353a90.944,90.944,0,0,0-4.96-10.994,38.692,38.692,0,0,0-2.346-3.787,18.011,18.011,0,0,0-2.89-3.277,5.786,5.786,0,0,0-3.683-1.632h-.247a.774.774,0,0,0-.124,0h-.084l-.08.355-.107.55c-.147.731-.276,1.468-.4,2.207-.46,2.965-.766,5.966-1.018,8.967s-.423,6.017-.564,9.03Z" transform="translate(11.523 4.01)" fill="#221f1f"/>
    <path id="Path_19663" data-name="Path 19663" d="M62.046,40.735a17.558,17.558,0,0,1-2.274,1.736,10.485,10.485,0,0,1-.915.535,6.282,6.282,0,0,1-1.819.57,3.724,3.724,0,0,1-1.931-.228,4.531,4.531,0,0,1-1.421-.937,5.377,5.377,0,0,1-1.246-1.681c-.175-.4.8-.343,1.221.248a5.254,5.254,0,0,0,1.269,1.312,2.944,2.944,0,0,0,1.649.519,4.653,4.653,0,0,0,2.218-.722,14.051,14.051,0,0,0,2.224-1.572c.431-.368.849-.754,1.252-1.149.607-.619,1.2-1.241,1.752-1.911l.308-.4a2.508,2.508,0,0,1,.187-.219,2.025,2.025,0,0,1,.231-.192,3.482,3.482,0,0,1,1-.451c.152-.044.3-.087.447-.12.558-.109.737-.06.881.147a.84.84,0,0,1,.092.147c.075.168-.132.336-.51.44a5.006,5.006,0,0,0-1.48.575,1.165,1.165,0,0,0-.1.092l-.1.127-.295.368c-.2.243-.4.491-.619.725a26.738,26.738,0,0,1-2,2.044Z" transform="translate(10.465 4.008)" fill="#221f1f"/>
    <path id="Path_19664" data-name="Path 19664" d="M84.412,92.2c.938,1.792-.323,4.242.506,5.986.719,1.528,1.545-.8,1.792-1.449h-.674a11.775,11.775,0,0,1,.375,4.761c-.084.443.591.63.674.187a12.852,12.852,0,0,0-.375-5.136c-.083-.363-.558-.3-.674,0-.071.187-.4,1.4-.63,1.421.328-.028.127-.167.12-.455-.02-.734-.048-1.468-.06-2.2a8.148,8.148,0,0,0-.451-3.48c-.212-.4-.8-.043-.6.352Z" transform="translate(13.894 9.98)" fill="#221f1f"/>
    <path id="Path_19665" data-name="Path 19665" d="M87.014,96.305a10.869,10.869,0,0,1,.463,4.76c-.107.44.567.627.671.188a11.543,11.543,0,0,0-.46-5.137C87.585,95.683,86.91,95.866,87.014,96.305Z" transform="translate(14.177 10.431)" fill="#221f1f"/>
    <path id="Path_19666" data-name="Path 19666" d="M88.39,96.306a11.684,11.684,0,0,1,.135,4.337.348.348,0,1,0,.671.184,12.342,12.342,0,0,0-.132-4.709C89,95.675,88.331,95.863,88.39,96.306Z" transform="translate(14.325 10.431)" fill="#221f1f"/>
    <path id="Path_19667" data-name="Path 19667" d="M89.33,95.763a4.812,4.812,0,0,1,.028,3.955c-.216.4.4.75.6.355a5.318,5.318,0,0,0-.028-4.665c-.179-.4-.778-.056-.6.354Z" transform="translate(14.423 10.363)" fill="#221f1f"/>
    <path id="Path_19668" data-name="Path 19668" d="M71.443,147.062l1.732,10.064.431,2.518.1.627.032.187c0,.028,0,.037.035.044l.187.1a2.677,2.677,0,0,0,.26.091,1.91,1.91,0,0,0,.259.084l.275.048a4.8,4.8,0,0,0,2.287-.291,8.52,8.52,0,0,0,1.114-.478c.179-.092.359-.192.535-.3l.259-.159.152-.1c.044,0,.024-.06.028-.1v-1.392c0-.619-.02-1.238-.048-1.86-.052-1.237-.08-2.474-.144-3.711-.359-8.736-1.025-17.459-1.827-26.171-.368-3.862-.774-7.746-1.241-11.573-.587-4.912-1.273-9.833-1.9-14.733-.2-1.533.052-1.361.455-.1a40.758,40.758,0,0,1,1.324,6.449c1.325,10.036,2.331,20.1,3.045,30.276.423,6.085.894,12.419,1.1,18.66.028.858.055,1.715.068,2.573l.02,1.289v.615c0,.084.029.192-.072.228l-.215.152-.192.132-.283.175a9.553,9.553,0,0,1-2.446,1.07,6.362,6.362,0,0,1-1.353.207,4.189,4.189,0,0,1-1.384-.195l-.34-.12-.331-.176-.227-.124-.112-.063A.376.376,0,0,1,73,160.9l-.076-.443-.215-1.266-.435-2.538-.89-5.048q-1.1-6.229-2.187-12.466c-1.125-6.293-2.255-12.61-3.447-18.839-.93-4.845-1.908-9.577-2.933-14.339-.236-1.045-.463-2.071-.7-3.125a43.622,43.622,0,0,1-1.2-6.013c0-.2-.06-.46-.052-.587,0-.219.212.043.5.734a26.955,26.955,0,0,1,.986,3.217c1.057,4.241,2,8.627,2.878,13.081s1.755,8.978,2.6,13.516c1.249,6.736,2.455,13.516,3.648,20.284Z" transform="translate(11.371 10.462)" fill="#221f1f"/>
    <path id="Path_19669" data-name="Path 19669" d="M56.962,147.417l-1.544,13.189-.539.375a4.255,4.255,0,0,1-.4.223,2.992,2.992,0,0,1-.427.176,3.255,3.255,0,0,1-.431.14,8.382,8.382,0,0,1-1.736.283,13.175,13.175,0,0,1-1.724,0,7.658,7.658,0,0,1-.854-.064l-.443-.048-.722-.112c-.028,0-.072,0-.087-.023v-.292l-.024-.4L48,160.35l-.044-.906c-.032-.6-.04-1.2-.06-1.807-.048-1.2-.04-2.4-.055-3.592,0-8.475.339-16.932.665-25.388.148-3.755.292-7.526.44-11.249.184-4.789.343-9.577.667-14.366.2-2.976.834.843.586,6.349-.431,9.764-.874,19.522-1.257,29.363-.227,5.885-.314,12.019-.235,18.033.028.922.035,1.848.083,2.769l.056,1.217c-.028.116.1.084.172.1.195.028.443.052.662.072a13,13,0,0,0,2.7-.028,6.561,6.561,0,0,0,1.286-.28,3.357,3.357,0,0,0,.59-.247,1.194,1.194,0,0,0,.267-.156l.148-.1.993-8.556,1.4-12.155c.726-6.133,1.456-12.3,2.175-18.388.547-4.74,1.082-9.382,1.624-14.066.123-1.03.247-2.04.375-3.082.5-3.847.765-5.067,1.148-5.85a1.842,1.842,0,0,1,.288-.486h.04c.008,0-.035-.056,0,0l.028.035h0v.048a4.594,4.594,0,0,1-.052.723c-.063.694-.183,1.792-.359,3.192-.982,8.38-2.015,17.187-3.053,26.042-.766,6.581-1.54,13.188-2.311,19.785Z" transform="translate(9.974 10.61)" fill="#221f1f"/>
    <path id="Path_19670" data-name="Path 19670" d="M49.433,155.023s-14.015,1.835-9.913,2.633C50.693,159.887,55.315,155.2,53.6,155.2S50.458,156.021,49.433,155.023Z" transform="translate(9 16.78)" fill="#221f1f"/>
    <path id="Path_19671" data-name="Path 19671" d="M47.2,158.753a25.744,25.744,0,0,1-4.964-.184c-.3-.044-.595-.072-.894-.116l-.447-.068-.219-.035a2.128,2.128,0,0,1-.251-.044l-1.1-.247-.267-.064-.231-.1a1.055,1.055,0,0,1-.3-.251.478.478,0,0,1-.092-.164.362.362,0,0,1,0-.227.751.751,0,0,1,.224-.316,2.623,2.623,0,0,1,.981-.474c.2-.061.4-.116.559-.152l.4-.092.778-.164c.515-.1,1.033-.2,1.548-.283l2.749-.475a31.4,31.4,0,0,1,3.52-.506c.737-.037-.08.894-1.421,1.1-2.374.371-4.765.69-7.116,1.141l-.4.08c-.056.011-.113.024-.168.04a.7.7,0,0,0-.167.072c-.023,0-.055.037-.055.069s.035.043.06.055a.811.811,0,0,0,.172.052l.3.055.327.06.547.089a27.089,27.089,0,0,0,4.825.367,18.7,18.7,0,0,0,2.961-.283,14.13,14.13,0,0,0,2.171-.566,7.325,7.325,0,0,0,1.956-1.007,1.934,1.934,0,0,0,.514-.555c.02-.035.024-.08.029-.071h.08a.1.1,0,0,0-.032.023l-.028.052c-.029.052,0,0-.024,0h-.259a13.937,13.937,0,0,0-1.684.276,6.241,6.241,0,0,1-.8.115,1.891,1.891,0,0,1-1.149-.235.593.593,0,0,1-.319-.46.925.925,0,0,1,0-.207c.076-.2.4.023.93.075.846.064,1.9-.4,3.084-.419h.112a1.562,1.562,0,0,1,.176,0h.1l.124.04a.7.7,0,0,1,.268.155.757.757,0,0,1,.251.656.658.658,0,0,1-.052.235.842.842,0,0,1-.08.176,2.744,2.744,0,0,1-.7.774,7.523,7.523,0,0,1-1.548.9,15.611,15.611,0,0,1-4.956,1.129Z" transform="translate(8.962 16.745)" fill="#221f1f"/>
    <path id="Path_19672" data-name="Path 19672" d="M78.619,154.457c.57,4.37-9.881,4.828-13.444,3.87s8.855-3.056,8.855-3.056S77.358,155.941,78.619,154.457Z" transform="translate(11.765 16.719)" fill="#221f1f"/>
    <path id="Path_19673" data-name="Path 19673" d="M67.114,157.293c-.375.1-.751.2-1.11.323l-.4.144a.311.311,0,0,0-.1.04c-.032,0-.064.06-.028.083a.212.212,0,0,0,.1.052l.08.024.251.055c.184.04.375.069.563.1.555.087,1.122.116,1.684.156a22.987,22.987,0,0,0,5.986-.336,9.128,9.128,0,0,0,2.474-.866,2.908,2.908,0,0,0,1.752-2.354c0-.311.231-.336.463-.024a1.257,1.257,0,0,1,.224.731,1.5,1.5,0,0,1-.075.518,2.267,2.267,0,0,1-.1.271c-.044.084-.1.167-.152.256a4.4,4.4,0,0,1-1.525,1.312,8.407,8.407,0,0,1-1.744.7,15.537,15.537,0,0,1-3.591.575,32.685,32.685,0,0,1-4.418,0c-.4-.037-.8-.089-1.2-.152-.2-.037-.4-.072-.607-.116l-.163-.035-.224-.064a2.776,2.776,0,0,1-.431-.135.95.95,0,0,1-.555-.492.456.456,0,0,1,.032-.367,1.036,1.036,0,0,1,.235-.283,2.824,2.824,0,0,1,.742-.42c.24-.1.4-.152.607-.219.958-.3,1.92-.526,2.881-.742,1.461-.323,2.933-.587,4.389-.866l.906-.176c.18.032.24.037.352.052l.311.028c.2,0,.4.024.615.024a7.477,7.477,0,0,0,1.2-.084,6.129,6.129,0,0,0,.674-.155,7.129,7.129,0,0,0,.8-.311.993.993,0,0,1,.446-.076,1.634,1.634,0,0,1,.208,0c.1.024.111.128,0,.311a.927.927,0,0,1-.231.3,2.035,2.035,0,0,1-.188.164c-.072.048-.152.1-.235.143a4.888,4.888,0,0,1-2.015.532,8.953,8.953,0,0,1-1.034,0c-.172,0-.343-.024-.515-.04l-.423-.052-2.287.439c-1.556.308-3.12.619-4.636,1.025Z" transform="translate(11.735 16.72)" fill="#221f1f"/>
    <path id="Path_19674" data-name="Path 19674" d="M-4.841,116.953a4.693,4.693,0,0,1-1.971.463c-.2-2.521.044-11.464-.331-13.967,0,0,1.253-.89,1.7-1.157C-5.355,102.26-4.841,116.953-4.841,116.953Z" transform="translate(4.073 11.121)" fill="#221f1f"/>
    <path id="Path_19675" data-name="Path 19675" d="M-5.762,104.28l-.04-1.2v-.124h0l-.037.02h.089l-.061.032-.12.052c-.159.072-.327.135-.51.207a2.851,2.851,0,0,1-.319.064l-.2.052-.1.032h-.028l.4-.06h0v.02l.032.339c.028.227.035.443.052.667.035.615.068,1.225.08,1.835,0,2.152-.035,4.291-.06,6.434,0,.949,0,1.9.032,2.841,0,.3.02.606.04.906l.023.423v.184c0,.02,0,0,.032,0h.28l.211-.029a4.029,4.029,0,0,0,.8-.195c.323-.124.4.055.168.367a1.569,1.569,0,0,1-.595.463,2.577,2.577,0,0,1-.452.236l-.127.028a2.292,2.292,0,0,0-.227.037c-.164.023-.336.04-.507.055h-.343a.436.436,0,0,1,0-.107l-.032-.46-.028-.455v-.262c0-.311-.024-.627-.028-.938v-1.864q0-1.864.092-3.727c.052-1.488,0-3.041-.029-4.558-.02-.615-.04-1.237-.1-1.832l-.024-.224a.051.051,0,0,1,.024-.052l.048-.04.1-.087.4-.351c.135-.115.279-.227.423-.339l.107-.08.2-.144.4-.288.327-.071.084-.02h.04c-.024.043.06-.1-.055.1h0c.031.035.06.072.1.112a.448.448,0,0,1,.1.155v.251l.024.443q.048,1.545.1,3.1c.052,1.564.089,3.133.156,4.685.052,1.2.147,2.394.224,3.591,0,.264.035.518.055.8.044.981,0,1.3-.184,1.513a.94.94,0,0,1-.131.143c-.152.1-.292-.295-.363-1.013-.208-2.123-.312-4.369-.4-6.624-.055-1.672-.115-3.356-.175-5.033Z" transform="translate(4.045 11.096)" fill="#221f1f"/>
    <path id="Path_19676" data-name="Path 19676" d="M2.036,116.772c1.141-.087,2.279-.216,3.412-.4.4-.063.822-.155,1.234-.227,1.452-.259,2.9-.57,4.325-.958.634-.172,1.261-.375,1.876-.595l.471-.172.42-.164.1-.087.148-.12.295-.239c.2-.156.4-.308.615-.447.44-.291.375.687-.371,1.3l-.4.316-.647.227-.567.188c-.4.12-.766.235-1.149.342q-1.156.324-2.339.559c-1.025.2-2.075.471-3.124.659q-1.736.3-3.488.474c-.719.072-1.436.124-2.155.161-1.094.055-2.191.06-3.277.028a21.323,21.323,0,0,1-2.521-.164c-.188-.028-.372-.052-.564-.1a1.771,1.771,0,0,1-.745-.339.616.616,0,0,1-.168-.26.265.265,0,0,1,.064-.267.191.191,0,0,1,.172-.044.229.229,0,0,1,.08.08s.028.037.024.024h.02s.063-.048.063-.04.032,0,.06,0l.248.072a12.155,12.155,0,0,0,2.135.276c.75.048,1.516.068,2.287.068,1.145,0,2.3-.052,3.447-.156Z" transform="translate(4.132 12.303)" fill="#221f1f"/>
    <path id="Path_19677" data-name="Path 19677" d="M70.4,57.086a36.866,36.866,0,0,1,2.535,5.735" transform="translate(12.395 6.269)" fill="none" stroke="#221f1f" stroke-linecap="round" stroke-linejoin="round" stroke-width="0.721"/>
    <path id="Path_19678" data-name="Path 19678" d="M57.282,45.336c-.314,1.761,1.074,2.023,1.174.543C58.544,44.6,57.494,44.147,57.282,45.336Z" transform="translate(10.982 4.934)" fill="#221f1f"/>
    <path id="Path_19679" data-name="Path 19679" d="M56.9,48.666c-.316,1.76,1.073,2.023,1.177.547C58.15,47.936,57.1,47.477,56.9,48.666Z" transform="translate(10.941 5.291)" fill="#221f1f"/>
    <path id="Path_19680" data-name="Path 19680" d="M-18.884,18.664c0-.674.032-.822.135-.869a7.16,7.16,0,0,1,1.018-.4c.308-.087.631-.111.946-.175q.827-.183,1.669-.283A2.8,2.8,0,0,0-14.6,16.9a2.786,2.786,0,0,1,.523-.04c.028,0,.063-.023.087,0a.835.835,0,0,1-.028.595.225.225,0,0,1-.048.132c-.124,0-.224.4-.336.371a1.707,1.707,0,0,0-.622.152.69.69,0,0,1-.256.028c-.115,0-.231-.035-.347-.04a10.27,10.27,0,0,0-1.572.316c-.691.179-1.369.375-1.421.371A.834.834,0,0,1-18.884,18.664Z" transform="translate(2.812 1.951)" fill="#221f1f"/>
    <path id="Path_19681" data-name="Path 19681" d="M-11.246,17.047c-.132-.654-.107-.8-.055-.838a2.358,2.358,0,0,1,.563-.291c.167-.055.355-.044.53-.084.3-.068.595-.147.906-.215a1.23,1.23,0,0,0,.283-.052c.1-.024.184-.064.323-.092.024,0,.055-.032.08,0a1.657,1.657,0,0,1,0,.6.63.63,0,0,1-.024.135c-.06,0-.068.4-.12.4a1.747,1.747,0,0,0-.319.179.242.242,0,0,1-.144.032c-.068,0-.14-.04-.207-.044-.179-.024-1.62.4-1.66.4S-11.174,17.111-11.246,17.047Z" transform="translate(3.622 1.801)" fill="#221f1f"/>
    <path id="Path_19682" data-name="Path 19682" d="M-11.243,19.962a11.643,11.643,0,0,1,2.394,3.487c.072.188.216.5.049.671s-.723,0-.918,0a3.9,3.9,0,0,1-1.533-.483c-.3-.2-1.07.215-.674.486.83.559,3.372,1.226,3.991.056.343-.654-.328-1.6-.651-2.127A15.915,15.915,0,0,0-10.429,19.6c-.255-.276-1.077.068-.8.371Z" transform="translate(3.547 2.235)" fill="#221f1f"/>
    <path id="Path_19683" data-name="Path 19683" d="M-12.325,27.881c.3-.331.4-.4.446-.368l.575.176a4.255,4.255,0,0,0,.46.159,1.293,1.293,0,0,0,.746-.06.527.527,0,0,0,.311-.259s0-.028.023-.02a.9.9,0,0,1,.308.259c0,.028.055.068.048.075s.084.288,0,.343c-.144.089-.251.248-.4.336a.484.484,0,0,1-.2.072h-.271a3.058,3.058,0,0,1-1.122-.144,3.532,3.532,0,0,1-.869-.4C-12.3,28.025-12.3,27.961-12.325,27.881Z" transform="translate(3.516 3.094)" fill="#221f1f"/>
    <path id="Path_19684" data-name="Path 19684" d="M50.992,28.943a14.911,14.911,0,0,0,.4,2.271,8.2,8.2,0,0,0,.818,2.1,5.027,5.027,0,0,0,1.444,1.628,4.743,4.743,0,0,0,2.02.8,6.949,6.949,0,0,0,.817.052l.83-.028a6.316,6.316,0,0,0,.818-.121c.135-.028.271-.04.4-.075l.4-.12.347-.1.176-.052.163-.075.663-.3c.215-.112.4-.256.622-.38.1-.068.212-.124.307-.195l.288-.231a5.977,5.977,0,0,0,.555-.475l.518-.527c.168-.179.311-.4.467-.57l.231-.291.2-.308A15.275,15.275,0,0,0,65.662,26.4c.068-.439.167-.877.2-1.32l.083-.83c-.023-.112.1-.1.172-.127l.251-.06.363-.089a4.886,4.886,0,0,0,2.215-1.24,3.629,3.629,0,0,0,1.094-2.89,2.313,2.313,0,0,0-.2-.722,1.718,1.718,0,0,0-.463-.535,1.563,1.563,0,0,0-1.389-.167c-.312.1-.467.127-.495.052s.083-.239.354-.431a1.859,1.859,0,0,1,1.393-.312,1.833,1.833,0,0,1,.938.495,2.431,2.431,0,0,1,.368.463,2.519,2.519,0,0,1,.227.555,4.222,4.222,0,0,1-1,3.747,5.069,5.069,0,0,1-1.528,1.2l-.435.212c-.147.06-.3.109-.451.161a3.128,3.128,0,0,1-.455.14l-.227.055h0l-.044.4c-.028.3-.084.6-.136.9a17.961,17.961,0,0,1-.4,1.772A15.449,15.449,0,0,1,64.748,31.2a11.514,11.514,0,0,1-2.794,3.452,8.146,8.146,0,0,1-4.138,1.776,8.7,8.7,0,0,1-2.486-.035,5.023,5.023,0,0,1-2.307-1.022,5.94,5.94,0,0,1-1.569-1.956,10.236,10.236,0,0,1-.829-2.314,23.254,23.254,0,0,1-.447-5.934c.044-1.5.179-2.989.34-4.474.083-.737.163-1.476.247-2.215l.052-.55.068-.746v-.044h.339l.4.029c.192.02.379.04.567.072a7.009,7.009,0,0,1,1.7.471,3.55,3.55,0,0,1,1.469,1.07,1.786,1.786,0,0,1,.314.938,3.042,3.042,0,0,1-.1.921,6.637,6.637,0,0,1-.662,1.644,11.869,11.869,0,0,1-.8,1.3,7.9,7.9,0,0,1-1.369,1.508,1.525,1.525,0,0,1-.858.4c-.107,0-.251,0-.295-.048s0-.072.02-.107a2.608,2.608,0,0,1,.215-.2,13.375,13.375,0,0,0,2.627-3.591,5.107,5.107,0,0,0,.458-1.356,1.753,1.753,0,0,0,0-.627.9.9,0,0,0-.227-.467,4.4,4.4,0,0,0-2.547-1.153c-.123,0-.247-.04-.371-.052l-.187-.02h-.024l-.075.766-.084.8a45.073,45.073,0,0,0-.363,9.461Z" transform="translate(10.221 1.981)" fill="#221f1f"/>
    <path id="Path_19685" data-name="Path 19685" d="M52.486,28.076c-.069,0-.049-.1.04-.219a.733.733,0,0,1,.159-.132l.12-.024a2.282,2.282,0,0,0,.3.1.934.934,0,0,1,.187.064,1.1,1.1,0,0,0,.368.08.261.261,0,0,1,.083,0,.4.4,0,0,0,.3,0,.046.046,0,0,0,.044-.037c.008-.035.08-.051.152-.092a.642.642,0,0,1,.172-.075,1.235,1.235,0,0,0,.311-.1.031.031,0,0,1,.048,0c.028.023.08,0,.109-.024a.685.685,0,0,1,.131-.072.328.328,0,0,1,.1,0c.032,0,.084.075.084.087s.048.052.075.076l.024.028a1.091,1.091,0,0,1-.14.359.362.362,0,0,1-.052.056l-.127.115a2.312,2.312,0,0,1-.228.188.11.11,0,0,0-.083.028.954.954,0,0,1-.184.115l-.2.1a.4.4,0,0,1-.264.023h-.052a1.143,1.143,0,0,1-.451,0A2.27,2.27,0,0,1,53.3,28.7H53.26a.276.276,0,0,0-.048-.024,3.147,3.147,0,0,1-.483-.216c-.044,0-.156-.179-.2-.2S52.514,28.076,52.486,28.076Z" transform="translate(10.468 3.099)" fill="#221f1f"/>
    <path id="Path_19686" data-name="Path 19686" d="M55.992,18.466c0-.455.144-.567.271-.6a6.082,6.082,0,0,1,1.317-.2,7.589,7.589,0,0,1,1.154.081,4.881,4.881,0,0,1,1.951.61,2.843,2.843,0,0,1,.507.4c.075.072.159.136.231.211l.2.244c.02.028.055.052.06.087,0,.1-.156.211-.32.24-.035,0-.091.023-.1,0-.092-.112-.354-.04-.4-.144a1.809,1.809,0,0,0-.271-.224c-.1-.06-.219-.1-.319-.152s-.172-.08-.251-.132-.1-.072-.152-.107L59.7,18.7a1.917,1.917,0,0,1-.224-.084l-.4-.1a7.084,7.084,0,0,0-1.154-.1,11.237,11.237,0,0,0-1.648.124A.991.991,0,0,1,55.992,18.466Z" transform="translate(10.848 2.039)" fill="#221f1f"/>
  </g>
</svg>
