<svg xmlns="http://www.w3.org/2000/svg" width="69.867" height="45.759" viewBox="0 0 69.867 45.759">
  <g id="Assest_Management" data-name="Assest Management" transform="translate(-83.222 -18.837)">
    <g id="Group_11400" data-name="Group 11400" transform="translate(83.772 19.392)">
      <path id="Path_19299" data-name="Path 19299" d="M113.495,35.1a1.148,1.148,0,0,0-.487-.567l-13.763-7.8a1.142,1.142,0,0,0-1.13,0l-13.762,7.8a1.185,1.185,0,0,0-.581,1V49.5a1.148,1.148,0,0,0,.581,1l13.762,7.8a1.168,1.168,0,0,0,1.13,0l13.763-7.8a1.148,1.148,0,0,0,.581-1V35.532A.953.953,0,0,0,113.495,35.1ZM98.68,29.045l11.44,6.487L98.68,42.019,87.242,35.532ZM86.064,37.5,97.525,44V55.334l-11.46-6.5ZM99.817,55.345V44.01L111.3,37.5V48.834Z" transform="translate(-83.772 -18.342)" stroke="#fff" stroke-width="1.1"/>
      <path id="Path_19300" data-name="Path 19300" d="M149.221,43.051,108.543,19.544a1.153,1.153,0,0,0-1.566.419l-4.286,7.426a1.146,1.146,0,1,0,1.985,1.146L108.39,22.1l38.694,22.361L137.357,61.33,114.84,48.323a1.147,1.147,0,0,0-1.146,1.986l23.51,13.58a1.153,1.153,0,0,0,1.565-.419l10.871-18.852A1.145,1.145,0,0,0,149.221,43.051Z" transform="translate(-81.031 -19.392)" stroke="#fff" stroke-width="1.1"/>
      <path id="Path_19301" data-name="Path 19301" d="M128.025,37.742c-1.576-6.213-9.641-6.656-12.657-1.311-4.514,8.6,6.827,14.934,11.86,6.845h0A7.327,7.327,0,0,0,128.025,37.742Zm-6.5,6.937c-6.382.493-6.371-8.725-.491-9.651C127.483,34.537,127.44,43.781,121.522,44.679Z" transform="translate(-79.309 -17.444)" stroke="#fff" stroke-width="1.1"/>
      <path id="Path_19302" data-name="Path 19302" d="M117.021,30.128a1.146,1.146,0,0,0-.419-1.566l-4.844-2.8a1.161,1.161,0,0,0-1.7.8,3.4,3.4,0,0,1-3.566,2.638,1.146,1.146,0,0,0,.079,2.29,5.824,5.824,0,0,0,5.228-3.061l3.66,2.113A1.146,1.146,0,0,0,117.021,30.128Z" transform="translate(-80.614 -18.484)" stroke="#fff" stroke-width="1.1"/>
      <path id="Path_19303" data-name="Path 19303" d="M129.415,50.912,125.756,48.8a1.147,1.147,0,0,0-1.146,1.986l4.843,2.8a1.162,1.162,0,0,0,1.7-.8,3.4,3.4,0,0,1,3.565-2.639,1.147,1.147,0,0,0,.954-.572l1.088-1.885a1.145,1.145,0,0,0,.019-1.112c-1.423-2.673.3-4.24.493-4.4a1.155,1.155,0,0,0-.149-1.883l-4.843-2.8a1.147,1.147,0,0,0-1.146,1.986l3.659,2.113a5.729,5.729,0,0,0-.321,5.475l-.484.838A5.719,5.719,0,0,0,129.415,50.912Z" transform="translate(-77.891 -16.773)" stroke="#fff" stroke-width="1.1"/>
    </g>
  </g>
</svg>
