<svg xmlns="http://www.w3.org/2000/svg" width="455.417" height="280.25" viewBox="0 0 455.417 280.25">
  <g id="Brand-Manager-Header-Illus" transform="translate(-1370.954 -223.602)">
    <g id="Lines" transform="translate(1384.177 227.729)">
      <path id="Path_19152" data-name="Path 19152" d="M2718,543.606l35.951,126.029" transform="translate(-2365.332 -495.508)" fill="none" stroke="#ffff40" stroke-width="2" stroke-dasharray="3 3"/>
      <path id="Path_19153" data-name="Path 19153" d="M2728.7,532.337s-34.312.6-122.608,45.536" transform="translate(-2425.138 -501.531)" fill="none" stroke="#ffff40" stroke-width="2" stroke-dasharray="3 3"/>
      <path id="Path_19155" data-name="Path 19155" d="M2680.324,508.538s-76.76,89.123-63.061,201.632" transform="translate(-2350.473 -457.992)" fill="none" stroke="#ffff40" stroke-width="2" stroke-dasharray="3 3"/>
      <path id="Path_19154" data-name="Path 19154" d="M2789.555,557.066s-137.745-59.126-302.07,18.86" transform="translate(-2487.485 -535.597)" fill="none" stroke="#ffff40" stroke-width="2" stroke-dasharray="3 3"/>
    </g>
    <g id="locator" transform="translate(1594.75 444.844)">
      <g id="Group_11355" data-name="Group 11355" transform="translate(0 9.83)">
        <ellipse id="Oval" cx="26.688" cy="12.318" rx="26.688" ry="12.318" transform="translate(26.688 14.371)" fill="none" stroke="#818384" stroke-width="0.5" opacity="0.5"/>
        <ellipse id="Oval_Copy" data-name="Oval Copy" cx="39.849" cy="18.264" rx="39.849" ry="18.264" transform="translate(13.701 7.572)" fill="none" stroke="#818384" stroke-width="0.5" opacity="0.5"/>
        <ellipse id="Oval_Copy_2" data-name="Oval Copy 2" cx="53.376" cy="24.464" rx="53.376" ry="24.464" transform="translate(0 0)" fill="none" stroke="#818384" stroke-width="0.5" opacity="0.5"/>
        <ellipse id="Oval-2" data-name="Oval" cx="13.344" cy="6.159" rx="13.344" ry="6.159" transform="translate(41.059 20.529)" fill="#818384" opacity="0.3"/>
      </g>
      <path id="Path_1590" data-name="Path 1590" d="M216.011,56.081c-6.372,0-11.611,4.969-11.611,12.058a12.99,12.99,0,0,0,1.8,6.489l9.03,16.7a.893.893,0,0,0,1.563,0l9.03-16.705a12.991,12.991,0,0,0,1.8-6.489c0-7.088-5.239-12.058-11.611-12.058Zm0,6.252a5.359,5.359,0,1,1-5.359,5.359A5.359,5.359,0,0,1,216.011,62.333Z" transform="translate(-160.837 -56.08)" fill="#535353"/>
    </g>
    <g id="locator-2" data-name="locator" transform="translate(1370.954 229.5)">
      <path id="Path_1590-2" data-name="Path 1590" d="M217.343,56.081c-7.1,0-12.943,5.539-12.943,13.441a14.481,14.481,0,0,0,2.007,7.234l10.066,18.621a1,1,0,0,0,1.742,0L228.28,76.755a14.481,14.481,0,0,0,2.007-7.234c0-7.9-5.84-13.441-12.943-13.441Zm0,6.969a5.974,5.974,0,1,1-5.974,5.974A5.974,5.974,0,0,1,217.343,63.05Z" transform="translate(-204.4 -56.08)" fill="#535353"/>
    </g>
    <g id="locator-3" data-name="locator" transform="translate(1508.693 269.884)">
      <g id="Group_11355-2" data-name="Group 11355" transform="translate(0 9.912)">
        <ellipse id="Oval-3" data-name="Oval" cx="26.913" cy="12.421" rx="26.913" ry="12.421" transform="translate(26.913 14.491)" fill="none" stroke="#818384" stroke-width="0.5" opacity="0.5"/>
        <ellipse id="Oval_Copy-2" data-name="Oval Copy" cx="40.184" cy="18.418" rx="40.184" ry="18.418" transform="translate(13.817 7.635)" fill="none" stroke="#818384" stroke-width="0.5" opacity="0.5"/>
        <ellipse id="Oval_Copy_2-2" data-name="Oval Copy 2" cx="53.825" cy="24.67" rx="53.825" ry="24.67" transform="translate(0 0)" fill="none" stroke="#818384" stroke-width="0.5" opacity="0.5"/>
        <ellipse id="Oval-4" data-name="Oval" cx="13.456" cy="6.211" rx="13.456" ry="6.211" transform="translate(41.404 20.702)" fill="#818384" opacity="0.3"/>
      </g>
      <path id="Path_1590-3" data-name="Path 1590" d="M216.109,56.081c-6.426,0-11.709,5.011-11.709,12.159a13.1,13.1,0,0,0,1.815,6.544l9.106,16.845a.9.9,0,0,0,1.576,0L226,74.783a13.1,13.1,0,0,0,1.815-6.544c0-7.148-5.283-12.159-11.709-12.159Zm0,6.3a5.4,5.4,0,1,1-5.4,5.4A5.4,5.4,0,0,1,216.109,62.385Z" transform="translate(-160.471 -56.08)" fill="#535353"/>
    </g>
    <g id="locator-4" data-name="locator" transform="translate(1717.052 367.11)">
      <g id="Group_11355-3" data-name="Group 11355" transform="translate(0 10.043)">
        <ellipse id="Oval-5" data-name="Oval" cx="27.267" cy="12.585" rx="27.267" ry="12.585" transform="translate(27.267 14.682)" fill="none" stroke="#818384" stroke-width="0.5" opacity="0.5"/>
        <ellipse id="Oval_Copy-3" data-name="Oval Copy" cx="40.713" cy="18.66" rx="40.713" ry="18.66" transform="translate(13.999 7.736)" fill="none" stroke="#818384" stroke-width="0.5" opacity="0.5"/>
        <ellipse id="Oval_Copy_2-3" data-name="Oval Copy 2" cx="54.535" cy="24.995" rx="54.535" ry="24.995" transform="translate(0 0)" fill="none" stroke="#818384" stroke-width="0.5" opacity="0.5"/>
        <ellipse id="Oval-6" data-name="Oval" cx="13.634" cy="6.292" rx="13.634" ry="6.292" transform="translate(41.95 20.975)" fill="#818384" opacity="0.3"/>
      </g>
      <path id="Path_1590-4" data-name="Path 1590" d="M216.263,56.081c-6.511,0-11.863,5.077-11.863,12.319a13.273,13.273,0,0,0,1.839,6.63L215.465,92.1a.913.913,0,0,0,1.6,0l9.226-17.068a13.273,13.273,0,0,0,1.839-6.63c0-7.242-5.352-12.319-11.863-12.319Zm0,6.388a5.475,5.475,0,1,1-5.475,5.475A5.475,5.475,0,0,1,216.263,62.468Z" transform="translate(-159.892 -56.08)" fill="#535353"/>
    </g>
    <g id="brand" transform="translate(1683.185 224)">
      <g id="Rectangle_5700" data-name="Rectangle 5700" transform="translate(-0.23 -0.398)" fill="#434343" stroke="#707070" stroke-width="1">
        <rect width="75" height="54" stroke="none"/>
        <rect x="0.5" y="0.5" width="74" height="53" fill="none"/>
      </g>
      <g id="Brand_Manager-White" data-name="Brand Manager-White" transform="translate(17.851 13.052)">
        <path id="Path_633" data-name="Path 633" d="M12.041,69.5V98.012H5.8V72.888A3.385,3.385,0,0,1,9.188,69.5Z" transform="translate(-5.8 -69.5)" fill="none" stroke="#fff" stroke-width="0.5"/>
        <rect id="Rectangle_216" data-name="Rectangle 216" width="28.466" height="6.241" transform="translate(8.007 28.529) rotate(-90)" fill="none" stroke="#fff" stroke-width="0.5"/>
        <rect id="Rectangle_217" data-name="Rectangle 217" width="28.413" height="6.241" transform="translate(16.017 28.51) rotate(-90)" fill="none" stroke="#fff" stroke-width="0.5"/>
        <rect id="Rectangle_218" data-name="Rectangle 218" width="28.489" height="6.241" transform="translate(24.024 28.51) rotate(-90)" fill="none" stroke="#fff" stroke-width="0.5"/>
        <path id="Path_634" data-name="Path 634" d="M430.841,76.282v23.854H424.6V71.8h1.759A4.488,4.488,0,0,1,430.841,76.282Z" transform="translate(-392.57 -71.624)" fill="none" stroke="#fff" stroke-width="0.5"/>
      </g>
    </g>
  </g>
</svg>
