<svg xmlns="http://www.w3.org/2000/svg" width="162.691" height="159.228" viewBox="0 0 162.691 159.228">
  <g id="Buisness" transform="translate(32.717 1.597)">
    <path id="Path_19758" data-name="Path 19758" d="M105.478,80.757c0-.074.106-.039.243.06a.652.652,0,0,1,.147.179,1.1,1.1,0,0,1,.021.14c0,.025-.109.267-.077.32s0,.028,0,.035.028.021-.035,0a.855.855,0,0,0-.123-.032h-.074c-.066.018.063,0,.193-.235V81.2h.021c.029-.07-.038.1-.031.084h0V81.3a.025.025,0,0,0,0-.017c0-.023,0-.045,0-.067a.034.034,0,0,0,.049,0,.26.26,0,0,0,.091-.077.047.047,0,0,0,0-.057c-.021-.042.186-.284.236-.312a3,3,0,0,0,.351-.193c.017,0,.021-.035.063-.021a.114.114,0,0,0,.144-.042.381.381,0,0,1,.168-.1.239.239,0,0,1,.158.021.287.287,0,0,1,.116.13c0,.049.067.081.1.116l.035.042a.982.982,0,0,1,.032.421l-.263.464c0,.028-.05.035-.081.049s-.063.1-.134.189a1.421,1.421,0,0,1-.161.193c-.088.06-.158.155-.306.144a.124.124,0,0,0-.07.029.965.965,0,0,1-.741.063,1.074,1.074,0,0,1-.351-.151.238.238,0,0,1-.049-.056.93.93,0,0,0-.063-.074.7.7,0,0,1-.218-.569,1.055,1.055,0,0,1,.151-.421c.032-.06.235-.179.263-.211S105.475,80.781,105.478,80.757Z" fill="#231f20"/>
    <path id="Path_19759" data-name="Path 19759" d="M100.257,68.373c-.042-.043.046-.081.207-.092a1.1,1.1,0,0,1,.229,0l.115.049a1.852,1.852,0,0,0,.165.183.36.36,0,0,1,.085.126,1.289,1.289,0,0,0,.137.253.077.077,0,0,1,0,.063.13.13,0,0,0,.045.162h.06s-.028.039-.035.046a.255.255,0,0,0-.056.066.6.6,0,0,0-.039.081.066.066,0,0,0,0,.028.086.086,0,0,0,0,.032h0c0-.028,0,0-.028-.092a.252.252,0,0,0-.053-.077h.057c.035,0,.07.039.087.028a.173.173,0,0,1,.109-.021.262.262,0,0,1,.109.018.284.284,0,0,1,.109.063c0,.028.06.042.091.06h.032a.838.838,0,0,1,.066.2.4.4,0,0,1-.017.218l-.049.074a.47.47,0,0,1-.06.066l-.112.081a.667.667,0,0,1-.13.067,1,1,0,0,1-.155.039.715.715,0,0,1-.2,0,.33.33,0,0,1-.144-.064,1.378,1.378,0,0,1-.271-.13,1.221,1.221,0,0,1-.182-.147c-.035-.063-.116-.116-.085-.211V69.5a.71.71,0,0,1-.1-.309.975.975,0,0,0-.046-.151.171.171,0,0,1,0-.032v-.039c-.035-.115-.021-.238-.063-.351a1.936,1.936,0,0,0,.049-.2C100.18,68.383,100.275,68.39,100.257,68.373Z" fill="#231f20"/>
    <path id="Path_19760" data-name="Path 19760" d="M94.516,76.764c0-.049.067,0,.137.13a1.015,1.015,0,0,1,.07.183v.109c0,.028-.077.126-.091.172a.2.2,0,0,1-.07.088,1.046,1.046,0,0,0-.151.154.059.059,0,0,1-.042.021.116.116,0,0,0-.1.1v.112a.163.163,0,0,0-.053.021l-.045.039v.021c0,.021-.039.038-.043.052a.209.209,0,0,1-.021.081l-.042.077A.151.151,0,0,1,94,78.18c-.025,0-.039.031-.056.049l-.021.017a.533.533,0,0,1-.169,0,.283.283,0,0,1-.154-.077.668.668,0,0,1-.1-.193.944.944,0,0,1-.035-.242.137.137,0,0,1,.024-.071.617.617,0,0,1,.025-.161.758.758,0,0,1,.042-.148c.032-.049.042-.108.116-.123a.031.031,0,0,0,.025-.021.648.648,0,0,1,.186-.179.657.657,0,0,0,.091-.084h.053c.07-.067.165-.1.231-.168s.137,0,.158-.032S94.516,76.782,94.516,76.764Z" fill="#231f20"/>
    <path id="Path_19761" data-name="Path 19761" d="M91.784,60.226c.057,0,.064.074,0,.186a.455.455,0,0,1-.1.134L91.6,60.6a.58.58,0,0,0-.214.039.229.229,0,0,0-.085.056h0v-.021a.275.275,0,0,0-.021-.042l.025.021.042.017-.091-.038h.021c.038,0,.158-.05.119-.025s0,.028.046.046,0,.017.038,0,.2.112.218.147a1.206,1.206,0,0,0,.13.246s.025,0,0,.046a.083.083,0,0,0,.028.108.443.443,0,0,1,.07.116.285.285,0,0,1,0,.109.358.358,0,0,1-.087.123c-.036.018-.053.067-.078.1l-.028.039a1.163,1.163,0,0,1-.351.063l-.172-.084-.2-.1c-.024,0-.031-.039-.042-.064l-.147-.1a1.157,1.157,0,0,1-.155-.133c-.042-.067-.123-.134-.109-.253a.085.085,0,0,0-.021-.063.668.668,0,0,1,.06-.625.921.921,0,0,1,.2-.236.167.167,0,0,1,.052-.021l.067-.024a.969.969,0,0,1,.558-.053,1.391,1.391,0,0,1,.222.119C91.735,60.121,91.763,60.23,91.784,60.226Z" fill="#231f20"/>
    <path id="Path_19762" data-name="Path 19762" d="M76.289,64.219c-.053,0,0-.057.091-.193a.91.91,0,0,1,.162-.166.5.5,0,0,1,.126-.035,1.268,1.268,0,0,1,.295.169.453.453,0,0,1,.144.175,2.389,2.389,0,0,1,.176.418.191.191,0,0,1,0,.106,1.148,1.148,0,0,0,0,.351.09.09,0,0,0,.021.067.352.352,0,0,1,0,.231.614.614,0,0,1-.1.243c-.057.049-.109.1-.162.14a1.5,1.5,0,0,1-.179.1c-.018,0-.028.024-.06,0a.11.11,0,0,0-.123,0,.293.293,0,0,1-.144,0c-.024,0-.056-.035-.084-.056a.338.338,0,0,1-.046-.137.339.339,0,0,0-.035-.12v-.042a.453.453,0,0,1,.021-.133.357.357,0,0,0,0-.113c.021,0,0-.094,0-.108s0,0,.025,0-.039-.106-.039-.113-.021-.049.043-.081,0,0,0-.017a.62.62,0,0,1,0-.172.273.273,0,0,0-.032-.088V64.6c-.035-.066-.039-.151-.1-.2s0-.119-.021-.126S76.31,64.215,76.289,64.219Z" fill="#231f20"/>
    <path id="Path_19763" data-name="Path 19763" d="M70.028,51.88c-.017-.056.071,0,.208.1a1.926,1.926,0,0,1,.175.186l.074.109a.321.321,0,0,0,.06.154.157.157,0,0,1,.031.042l.021.018h-.021c-.052.021-.045.046-.017.056s0,0,.028,0a.049.049,0,0,1,.066.021.047.047,0,0,1,0,.035.377.377,0,0,0-.021.176v.035c0,.035-.018.067,0,.081a.173.173,0,0,1,.025.07c0,.032,0,.063,0,.1a.593.593,0,0,1-.067.133.522.522,0,0,0-.063.116l-.021.042a.674.674,0,0,1-.285.095,2.155,2.155,0,0,1-.316-.137c-.021,0-.021-.032-.024-.053a1.211,1.211,0,0,1-.211-.2c-.021-.052-.074-.1-.028-.179a.05.05,0,0,0,0-.038.549.549,0,0,1-.025-.313v-.161c0-.057,0-.018.021-.025a.113.113,0,0,0,.021-.035,2,2,0,0,1,.123-.334c0-.031.144-.077.151-.1S70.035,51.9,70.028,51.88Z" fill="#231f20"/>
    <path id="Path_19764" data-name="Path 19764" d="M83.55,32.361a17.428,17.428,0,0,0-7.373.776,3.752,3.752,0,0,1-.351-2.746,22.315,22.315,0,0,1,4.241.095C80.078,30.468,83.143,31.388,83.55,32.361Z" fill="#231f20"/>
    <path id="Path_19765" data-name="Path 19765" d="M49.835,34.861l.046-3.835v-1.4l.1-4.916c.021-.727,0-1.461,0-2.184a16.691,16.691,0,0,1,.112-2.809c.046-.288.19-.242.352,0a2.491,2.491,0,0,1,.351,1.236c0,1.889,0,3.782-.12,5.695-.059,1.141-.017,2.332-.021,3.512l-.028,3.862v5.969c.021.927.084,1.833.127,2.746,0,.2.028.4.031.6.028.755-.049.994-.26,1.155a.722.722,0,0,1-.137.109c-.147.07-.309-.235-.351-.786-.151-1.633-.193-3.354-.21-5.085V34.868Z" fill="#231f20"/>
    <path id="Path_19766" data-name="Path 19766" d="M57.581,47.168H55.99c-.193,0-.386.024-.579.024H53.36c-.3,0-.6.025-.9.053a4.759,4.759,0,0,1-1.162.046c-.243-.035.035-.7.474-.748a17.143,17.143,0,0,1,2.366-.035c.478.028.969-.035,1.458-.046l1.6-.032h.987c.5,0,1,0,1.5-.031.386-.025.762-.088,1.144-.113.085,0,.169-.021.253-.024.316,0,.418.053.481.249a.717.717,0,0,0,.042.137c.025.151-.105.278-.33.327-.333.073-.677.126-1.028.168s-.7.042-1.054.049l-1.6.025Z" fill="#231f20"/>
    <path id="Path_19767" data-name="Path 19767" d="M-5.046,55.886a3.766,3.766,0,0,0-.7-.382c-.091-.032-.189-.06-.284-.085a3.491,3.491,0,0,0-1.054-.175,1.734,1.734,0,0,0-.467.081,2.692,2.692,0,0,1-.582.175c-.067,0-.127-.14-.13-.3a.4.4,0,0,1,.172-.4,2.668,2.668,0,0,1,1.453-.133,3.014,3.014,0,0,0,.432.07c.144.032.292.046.432.088A4.536,4.536,0,0,1-4.9,55.2c.172.091.33.207.492.312a6.814,6.814,0,0,1,.667.569l.256.225a1.753,1.753,0,0,1,.249.238c.036.039.07.078.1.12.1.168.088.249-.052.351-.036.025-.064.053-.1.074a.305.305,0,0,1-.351,0,10.307,10.307,0,0,1-.783-.7,4.844,4.844,0,0,0-.635-.488Z" fill="#231f20"/>
    <path id="Path_19768" data-name="Path 19768" d="M-4.913,98.183c-.414,0-.829.05-1.243.028h-.622l-.618-.045c-.147,0-.3-.018-.449-.025a3.823,3.823,0,0,1-.449-.056,14.239,14.239,0,0,1-1.556-.327,13.961,13.961,0,0,1-1.5-.53c-.439-.161-.853-.393-1.278-.583l-.78-.449a5.788,5.788,0,0,1-.674-.6c-.13-.137-.021-.221.193-.242a1.387,1.387,0,0,1,.808.168,16.485,16.485,0,0,0,3.1,1.4,9.257,9.257,0,0,0,2.106.383c.39.031.783.056,1.177.07a8.985,8.985,0,0,0,1.183-.021l.73-.053.724-.1c.351-.046.723-.137,1.088-.2a9.979,9.979,0,0,0,1.054-.3c.263-.106.523-.218.776-.334s.5-.27.741-.4c.108-.059.21-.123.319-.179.411-.2.572-.21.769-.074.042.032.1.06.13.092.119.112.021.33-.26.565l-.316.263a3.507,3.507,0,0,1-.351.215,7.881,7.881,0,0,1-.737.379c-.257.105-.517.21-.78.312s-.537.165-.808.246c-.4.119-.818.19-1.228.274a10.1,10.1,0,0,1-1.25.151Z" fill="#231f20"/>
    <path id="Path_19769" data-name="Path 19769" d="M-19.281,31.658a3.726,3.726,0,0,1-1.215-.927,3.913,3.913,0,0,1-.723-1.3,5.307,5.307,0,0,1-.246-1.026,3.837,3.837,0,0,1,.235-1.843,3.936,3.936,0,0,1,1.053-1.492,4.277,4.277,0,0,1,1.373-.822,2.906,2.906,0,0,1,2.026-.116c.2.074.127.2-.066.334a2.128,2.128,0,0,1-.352.189,1.15,1.15,0,0,1-.438.113,3.625,3.625,0,0,0-2.757,1.755,2.876,2.876,0,0,0-.217,2.086,3.154,3.154,0,0,0,1.225,2A3.482,3.482,0,0,0-18,31.153a7.274,7.274,0,0,0,2.374,0,15.755,15.755,0,0,0,1.8-.464c.133-.038.26-.084.393-.119.506-.1.7-.077.843.1a.75.75,0,0,1,.1.116c.084.133-.085.312-.432.484a5.789,5.789,0,0,1-.8.351,7.57,7.57,0,0,1-.857.264,10.737,10.737,0,0,1-1.837.277,6.208,6.208,0,0,1-2.879-.449Z" fill="#231f20"/>
    <path id="Path_19770" data-name="Path 19770" d="M-3.01,37.442A12.707,12.707,0,0,0-1.957,32.9c.043-.579,0-1.162,0-1.755a49.146,49.146,0,0,0-.523-6.2c-.123-.917-.284-1.837-.439-2.749-.094-.587-.207-1.173-.252-1.756a5.711,5.711,0,0,1,.059-1.84c.141-.407.236-.26.3.049a14.815,14.815,0,0,1,.351,1.5c.376,2.332.871,4.727,1.088,7.174.127,1.461.309,2.988.313,4.5a15.806,15.806,0,0,1-.7,4.968,10.5,10.5,0,0,1-1.4,2.809,9.315,9.315,0,0,1-3.62,2.982,15.659,15.659,0,0,1-3.4,1.172c-.256.057-.513.113-.779.148a3.214,3.214,0,0,1-1.054,0,.76.76,0,0,1-.463-.3,1.129,1.129,0,0,1-.13-.186c-.042-.1.038-.19.207-.274a2.413,2.413,0,0,1,.762-.218,18.8,18.8,0,0,0,2.97-.7,10.487,10.487,0,0,0,2.764-1.3,7.981,7.981,0,0,0,2.844-3.486Z" fill="#231f20"/>
    <path id="Path_19771" data-name="Path 19771" d="M.414,26.827A4.348,4.348,0,0,0,.14,25.71c-.053-.137-.13-.263-.19-.4a13.138,13.138,0,0,0-.7-1.454,5.775,5.775,0,0,0-.4-.6,2.7,2.7,0,0,1-.509-.811c-.032-.12.144-.169.351-.19a.591.591,0,0,1,.523.127A7.8,7.8,0,0,1,.235,24c.161.351.41.685.593,1.053a6.543,6.543,0,0,1,.5,1.264,3.416,3.416,0,0,1,.126.882A1.577,1.577,0,0,1,.817,28.5a3,3,0,0,1-.969.5,2.333,2.333,0,0,1-.224.07c-.278.039-.369-.035-.429-.33,0-.067-.028-.133-.035-.2a.469.469,0,0,1,.232-.491c.235-.1.449-.2.618-.281a.845.845,0,0,0,.3-.225A.718.718,0,0,0,.4,27.294a1.434,1.434,0,0,0,0-.453Z" fill="#231f20"/>
    <path id="Path_19772" data-name="Path 19772" d="M-13.028,19.843c-.252,1.931,2.107,5.762-.607,7.065-2.065.983-4.129-1.472-4.94-2.458A3.558,3.558,0,0,0-20.8,29.281a3.863,3.863,0,0,0,3.554,2.581c-.046.134-.52,6.482-4.484,8.051a5.337,5.337,0,0,1-6.608-2.542c-3.052-6.464,2.458-12.556,1.4-14.175a27.451,27.451,0,0,1-3.325-6.355,8.97,8.97,0,0,1-.225-5.211c.552-1.847,3.385-6.44,12.033-3.947a16.619,16.619,0,0,1,8.076-8.03C-5.671-2.359-.12-1.327.989,4.569,2.078,10.4-5.053,17.827-13.028,19.843Z" fill="#231f20"/>
    <path id="Path_19773" data-name="Path 19773" d="M-21.107,7.782a10.94,10.94,0,0,0-4.7.186,7.287,7.287,0,0,0-2.051,1.015A6.172,6.172,0,0,0-29.4,10.647a6.352,6.352,0,0,0-.7,4.456,14.583,14.583,0,0,0,1.619,4.512c.558,1.053,1.2,2.082,1.861,3.1l.126.2a1.432,1.432,0,0,1,.155.351,1.539,1.539,0,0,1,.056.351,1.693,1.693,0,0,1,0,.3,4.54,4.54,0,0,1-.211,1.018c-.193.618-.432,1.184-.657,1.756a18.469,18.469,0,0,0-1.615,6.039,9.428,9.428,0,0,0,.327,3.041,9.594,9.594,0,0,0,.53,1.44,4.264,4.264,0,0,0,.839,1.18,4.884,4.884,0,0,0,5.467,1.021,5.4,5.4,0,0,0,2.181-2.005,10.708,10.708,0,0,0,1.26-2.833l.158-.573.134-.579.112-.583.07-.435.025-.193c-.042-.025-.126,0-.19-.028l-.119-.018a1.1,1.1,0,0,1-.267-.06,4.4,4.4,0,0,1-.534-.179,4.021,4.021,0,0,1-.972-.565A4.31,4.31,0,0,1-21.079,29.6a4.417,4.417,0,0,1-.351-2.177,3.8,3.8,0,0,1,.857-2.089,4.449,4.449,0,0,1,.856-.765l.243-.151.126-.071.151-.073a8.043,8.043,0,0,1,.751-.292,15.041,15.041,0,0,0,1.208,1.352,6.7,6.7,0,0,0,1.156.913,2.975,2.975,0,0,0,1.281.46,1.949,1.949,0,0,0,1.226-.316,1.7,1.7,0,0,0,.741-.976,3.654,3.654,0,0,0,.066-1.405c-.105-.983-.414-1.98-.576-3.054-.116-.794.053-1.191.144-1.142a5.043,5.043,0,0,1,.4,1.026,26.073,26.073,0,0,1,.92,2.535,5.1,5.1,0,0,1,.183,1.984,2.879,2.879,0,0,1-.436,1.183,2.855,2.855,0,0,1-1.011.9,3.094,3.094,0,0,1-1.9.351,4.224,4.224,0,0,1-1.7-.653,8.1,8.1,0,0,1-1.3-1.053q-.291-.288-.558-.59l-.169-.19c-.021-.028,0,0,0-.021h0l-.052.021a3.24,3.24,0,0,0-.439.281,2.821,2.821,0,0,0-.7.751,2.788,2.788,0,0,0-.38,1.974,3.711,3.711,0,0,0,.931,1.906,3.051,3.051,0,0,0,.843.622,3.382,3.382,0,0,0,.488.2c.087.025.172.05.259.067a1.885,1.885,0,0,0,.257.042l.319.028.327.45.3.467-.046.376q-.007.093-.024.186l-.018.112c-.024.137-.046.27-.074.4-.052.27-.108.537-.172.8-.126.534-.288,1.053-.463,1.583a10.281,10.281,0,0,1-1.584,2.964A6.006,6.006,0,0,1-21.8,40.542a5.77,5.77,0,0,1-3.465,0,6.2,6.2,0,0,1-2.146-1.194,5.959,5.959,0,0,1-.453-.432c-.137-.154-.274-.316-.4-.481a5.428,5.428,0,0,1-.608-1.092,10.368,10.368,0,0,1-.853-4.7A16.194,16.194,0,0,1-28.73,28c.256-.737.551-1.461.832-2.17.137-.351.277-.7.39-1.053a4.237,4.237,0,0,0,.228-.987.662.662,0,0,0-.056-.351l-.351-.534c-.228-.351-.453-.7-.674-1.078-.443-.726-.864-1.471-1.25-2.24a14.171,14.171,0,0,1-1.577-4.94,8.518,8.518,0,0,1,.151-2.655,6.265,6.265,0,0,1,1.148-2.423,7.5,7.5,0,0,1,4.445-2.745l.4-.1.4-.049c.266-.028.533-.077.8-.088a13.862,13.862,0,0,1,1.605.021l.8.064c.26.038.523.087.783.13s.523.084.783.14l.769.193.284.074c.056,0,.13.045.176.031l.253-.453c.263-.456.533-.909.825-1.348a19.1,19.1,0,0,1,1.956-2.489,15.089,15.089,0,0,1,3.778-2.96,14.774,14.774,0,0,1,2.2-.98A11.851,11.851,0,0,1-7.273-1.52a9.593,9.593,0,0,1,2.43,0,8,8,0,0,1,2.342.7A6.709,6.709,0,0,1,.765,2.7a9.317,9.317,0,0,1,.316.885l.228.91a7.511,7.511,0,0,1,.105,1.882,10.14,10.14,0,0,1-1,3.567,15.849,15.849,0,0,1-1.984,3.1,20.543,20.543,0,0,1-2.553,2.623A22.08,22.08,0,0,1-6.693,17.6a17.386,17.386,0,0,1-3.828,1.882,5.458,5.458,0,0,1-1.875.351,4,4,0,0,1-.589-.032c-.208-.056.066-.224.7-.5s1.675-.7,2.928-1.334a22.848,22.848,0,0,0,5.2-3.655,18.764,18.764,0,0,0,2.142-2.374A13.957,13.957,0,0,0-.376,9.214,8.842,8.842,0,0,0,.407,6.219a6.82,6.82,0,0,0-.088-1.51A9.38,9.38,0,0,0-.138,3.217,5.9,5.9,0,0,0-1.869.759,5.986,5.986,0,0,0-4.615-.466a9.492,9.492,0,0,0-4.631.421,13.545,13.545,0,0,0-4.175,2.356,16.207,16.207,0,0,0-3.223,3.62c-.232.351-.446.7-.653,1.054-.1.179-.211.351-.309.533l-.281.524-.148.27-.073.137s0,.028-.022.024h-.038l-.077-.021-1.661-.414a5.1,5.1,0,0,0-.6-.123l-.6-.133Z" fill="#231f20"/>
    <path id="Path_19774" data-name="Path 19774" d="M15.976,36.746c-1.668,1.033-3.329,2.068-4.916,3.192-.583.407-1.138.85-1.7,1.282a60.461,60.461,0,0,0-5.618,5.017L1.355,48.611a26.659,26.659,0,0,1-3.238,2.851c-.351.26-.442.067-.274-.326A4.967,4.967,0,0,1-1,49.6c2.107-1.96,4.14-4.052,6.32-6.04,1.3-1.187,2.669-2.458,4.119-3.543,1.594-1.2,3.259-2.3,4.916-3.356.506-.327,1.053-.65,1.527-.977a11.681,11.681,0,0,0,1.38-1.12,34.2,34.2,0,0,0,3.462-4.241,18.115,18.115,0,0,1,2.831-3.238c.122-.1.249-.2.382-.3a3.6,3.6,0,0,1,.411-.271,3.043,3.043,0,0,1,1.254-.453,1.334,1.334,0,0,1,.368,0,1.148,1.148,0,0,1,.415.267c.052.085-.043.169-.225.243-.046.021-.1.035-.158.056s-.123.057-.186.081c-.137.045-.288.126-.464.2a8.754,8.754,0,0,0-2.682,2.391c-.2.239-.4.491-.6.748l-.6.779-1.183,1.591a23.993,23.993,0,0,1-1.935,2.345,12.608,12.608,0,0,1-2.405,1.977Z" fill="#231f20"/>
    <path id="Path_19775" data-name="Path 19775" d="M24.936,27.592c.292-.27.59-.533.91-.783.116-.087.221-.193.351-.277a3.882,3.882,0,0,1,1.482-.632,2.6,2.6,0,0,1,.758,0,1.267,1.267,0,0,1,.843.449c.063.081-.06.186-.218.267a.7.7,0,0,1-.446.109,1.807,1.807,0,0,0-.586-.116,2.286,2.286,0,0,0-.7.092,2.586,2.586,0,0,0-.84.495,10.5,10.5,0,0,0-.87.719c-.176.158-.351.323-.513.492-.249.256-.5.516-.734.79-.182.218-.326.453-.505.681a1.141,1.141,0,0,1-.12.148.433.433,0,0,1-.218.137.326.326,0,0,1-.21-.067l-.085-.053a.256.256,0,0,1-.063-.151.322.322,0,0,1,.039-.221,7.241,7.241,0,0,1,.9-1.211c.256-.295.534-.58.814-.864Z" fill="#231f20"/>
    <path id="Path_19776" data-name="Path 19776" d="M29.786,27.361a2.445,2.445,0,0,0,.463-.727V26.6h0v-.025a.119.119,0,0,0,0-.053.08.08,0,0,0-.091-.049.826.826,0,0,0-.228.07l-.306.148a11.94,11.94,0,0,0-2.173,1.426c-.3.249-.6.505-.882.776-.351.351-.7.7-1.008,1.053-.073.1-.172.07-.2-.112a1.08,1.08,0,0,1,.225-.7,10.587,10.587,0,0,1,1.053-1.186,9.592,9.592,0,0,1,1.25-.977,11.208,11.208,0,0,1,1.682-1.053,2.3,2.3,0,0,1,.277-.1,1.4,1.4,0,0,1,.386-.063.8.8,0,0,1,.394.084.577.577,0,0,1,.256.3,1.133,1.133,0,0,1,.063.189l.018.2a.687.687,0,0,1-.025.207.723.723,0,0,1-.042.158,2.329,2.329,0,0,1-.26.53,6.59,6.59,0,0,1-.86,1.054c-.463.481-.983.892-1.443,1.338a12.976,12.976,0,0,0-.983,1.1c-.071.084-.13.172-.2.252a1.027,1.027,0,0,1-.313.285.44.44,0,0,1-.291,0,.375.375,0,0,1-.141-.042.2.2,0,0,1-.1-.2.616.616,0,0,1,.113-.351,10.3,10.3,0,0,1,1.9-2.078,11.987,11.987,0,0,0,1.436-1.4Z" fill="#231f20"/>
    <path id="Path_19777" data-name="Path 19777" d="M28.743,34.116a9.934,9.934,0,0,1-1.819,1.054c-.221.105-.439.221-.664.316-.79.323-1.562.663-2.321,1.053a10.946,10.946,0,0,0-.969.572c-.4.264-.769.566-1.13.826-.106.084-.183.024-.183-.151a.909.909,0,0,1,.316-.657,12,12,0,0,1,2.591-1.566c.545-.249,1.1-.562,1.64-.825a12.563,12.563,0,0,0,1.714-.941,4.587,4.587,0,0,0,.867-.755l.067-.074.038-.049a.948.948,0,0,0,.074-.1c.046-.067.088-.172.025-.242a.39.39,0,0,0-.243-.084h-.133l-.207.017a5.638,5.638,0,0,0-1.317.39l-.277.116c-.352.13-.439.119-.618-.049-.039-.039-.088-.067-.13-.1-.155-.109-.039-.386.235-.544a4.288,4.288,0,0,1,1.3-.513,5.142,5.142,0,0,1,.72-.116,3.258,3.258,0,0,1,.484,0,1.764,1.764,0,0,1,.608.133.808.808,0,0,1,.488.625.7.7,0,0,1,0,.2.754.754,0,0,1-.046.2.571.571,0,0,1-.1.2l-.133.208a1.32,1.32,0,0,1-.123.182l-.109.123c-.073.084-.147.162-.21.221a5.088,5.088,0,0,1-.422.369Z" fill="#231f20"/>
    <path id="Path_19778" data-name="Path 19778" d="M12.815,53.126q1.977-1.8,3.835-3.725c.449-.471.871-.962,1.3-1.443.352-.418.738-.871,1.082-1.31a6.138,6.138,0,0,0,.843-1.369,3.415,3.415,0,0,0,.256-1.521,9.371,9.371,0,0,0-.26-1.639,8.079,8.079,0,0,0-1.211-2.68,18.718,18.718,0,0,0-1.2-1.478,6.71,6.71,0,0,0-.66-.646,3.188,3.188,0,0,0-.734-.5c-.326-.116-.323-.222.074-.3a1.988,1.988,0,0,1,.818.084,2.784,2.784,0,0,1,.966.572A9.864,9.864,0,0,1,19.3,38.734,8.8,8.8,0,0,1,20.354,40.6a9.473,9.473,0,0,1,.573,2.043,8.47,8.47,0,0,1,.115,1.054,4.412,4.412,0,0,1-.094,1.134,6.378,6.378,0,0,1-1.184,2.359c-.252.352-.5.668-.762,1s-.537.649-.814.962c-1.226,1.355-2.514,2.633-3.828,3.887Q13.142,54.182,11.9,55.3C10.638,56.42,9.325,57.5,7.991,58.53A29,29,0,0,1,4.768,60.8c-.253.151-.51.285-.78.414a2.754,2.754,0,0,1-1.166.306.951.951,0,0,1-.351-.049.88.88,0,0,1-.232-.155,1.272,1.272,0,0,1-.154-.14c-.053-.077.035-.158.2-.27a2.91,2.91,0,0,1,.309-.173l.2-.087a2.415,2.415,0,0,1,.228-.113,10.6,10.6,0,0,0,1.454-.765c.481-.292.959-.611,1.436-.948.952-.674,1.9-1.4,2.83-2.163,1.377-1.131,2.739-2.311,4.049-3.54Z" fill="#231f20"/>
    <path id="Path_19779" data-name="Path 19779" d="M-24.671,65.718c.948-3.111,1.9-6.229,2.911-9.33.372-1.13.73-2.268,1.144-3.388a28.043,28.043,0,0,1,1.222-2.942c.123-.246.25-.485.4-.727a3.528,3.528,0,0,1,.555-.72,1.443,1.443,0,0,1,.228-.176A1.678,1.678,0,0,1-18,48.327a3.379,3.379,0,0,1,.4-.169,6.039,6.039,0,0,1,.8-.242,13.916,13.916,0,0,1,3.217-.323,22,22,0,0,1,3.181.252,18.516,18.516,0,0,1,2.77.643,9.285,9.285,0,0,1,1.342.544,3.876,3.876,0,0,1,1.218.9,3.859,3.859,0,0,1,.284.4c.081.133.165.26.239.393.151.267.295.534.429.8a12.622,12.622,0,0,1,.7,1.682,8.722,8.722,0,0,1,.484,3.62c-.116.766-.256.615-.389,0-.046-.154-.092-.351-.144-.544s-.12-.435-.208-.7c-.154-.492-.351-1.053-.554-1.671A15.5,15.5,0,0,0-5.7,50.8a2.032,2.032,0,0,0-.2-.277,2.323,2.323,0,0,0-.257-.229,3.9,3.9,0,0,0-.663-.4,8.987,8.987,0,0,0-1.577-.6,20.381,20.381,0,0,0-3.448-.636,18.805,18.805,0,0,0-3.511-.046,7.411,7.411,0,0,0-2.016.439,2.371,2.371,0,0,0-.224.1l-.109.049-.049.035a1.548,1.548,0,0,0-.274.32,6.77,6.77,0,0,0-.523.9,39.06,39.06,0,0,0-1.619,4.122c-1.053,3.083-2.019,6.219-2.974,9.354l-1.756,5.79c-.878,2.929-1.787,5.861-2.7,8.754-.72,2.247-1.4,4.463-2.227,6.671-.182.485-.351.959-.572,1.44-.772,1.784-1.25,2.275-1.682,2.483-.09.05-.182.1-.277.137-.116.028-.078-.134.035-.46s.323-.819.6-1.447c.825-1.868,1.513-3.884,2.2-5.927s1.342-4.14,1.991-6.243c.959-3.125,1.9-6.275,2.841-9.421Z" fill="#231f20"/>
    <path id="Path_19780" data-name="Path 19780" d="M.659,77.857C.494,75.6.27,73.352-.043,71.115c-.119-.815-.27-1.626-.407-2.437a42.8,42.8,0,0,0-2.107-8.4c-.119-.294-.249-.582-.376-.877s-.291-.562-.439-.84a4.895,4.895,0,0,0-.512-.779l-.285-.351a2.159,2.159,0,0,0-.3-.3,5.741,5.741,0,0,0-.99-.615,8.64,8.64,0,0,0-1.092-.46,12.089,12.089,0,0,0-2.317-.509c-.495-.059-.45-.193,0-.386a3.538,3.538,0,0,1,2.324-.1,7.443,7.443,0,0,1,2.458,1.148,4.208,4.208,0,0,1,.565.5c.162.19.288.369.432.555a6.037,6.037,0,0,1,.351.569l.176.288.151.294A21.932,21.932,0,0,1-.682,63.33c.481,2,.966,4.077,1.3,6.142.351,2.271.632,4.564.839,6.84.13,1.4.228,2.809.3,4.213.12,2.135.173,4.284.183,6.4,0,1.653.035,3.272-.06,4.915-.028.352-.031.7-.077,1.082-.14,1.352-.351,1.773-.657,2a2.321,2.321,0,0,1-.182.154c-.049.028-.134-.073-.183-.33a1.525,1.525,0,0,1-.024-.467,5.939,5.939,0,0,1,.028-.639q.306-4.468.165-8.95C.9,82.425.8,80.128.607,77.871Z" fill="#231f20"/>
    <path id="Path_19781" data-name="Path 19781" d="M-14.878,92.4a55.663,55.663,0,0,1-.629-7.725c0-.938-.042-1.875-.031-2.809.052-3.308.27-6.6.593-9.884.148-1.458.3-2.922.485-4.361.116-.927.239-1.854.4-2.778q.122-.694.292-1.38a9.072,9.072,0,0,1,.424-1.366.918.918,0,0,1,.176-.3c.053-.056.088-.07.109-.049s.028.07.024.147,0,.172,0,.3c-.031.5-.07,1.405-.224,2.458-.594,3.719-.917,7.5-1.243,11.3-.19,2.279-.208,4.66-.193,7a65.783,65.783,0,0,0,.452,7.672l.166,1.169.2,1.159c.088.383.162.769.256,1.148l.151.569a1.064,1.064,0,0,0,.046.165l.158.1a11.585,11.585,0,0,0,6.672,1.829A14.843,14.843,0,0,0-1.37,95.546c.351-.154.7-.316,1.053-.491,1.331-.636,1.756-.867,2.132-.857a1.6,1.6,0,0,1,.259,0c.106.028.046.151-.151.351A5.551,5.551,0,0,1,.9,95.343,14.423,14.423,0,0,1-3.87,97.306a13.767,13.767,0,0,1-5.365.161,12.242,12.242,0,0,1-3.831-1.331l-.948-.59-.2-.123a1.051,1.051,0,0,1-.074-.224l-.1-.351-.123-.485c-.154-.642-.291-1.289-.4-1.938Z" fill="#231f20"/>
    <path id="Path_19782" data-name="Path 19782" d="M-8.737,103.563a6.189,6.189,0,0,0-.425-1.159c-.059-.148-.14-.291-.2-.442a5.128,5.128,0,0,1-.351-1.756,3.278,3.278,0,0,1,.109-.825,1.547,1.547,0,0,1,.537-.9c.091-.067.207.081.288.263a.663.663,0,0,1,.063.506,2.358,2.358,0,0,0-.26,1.5,3.572,3.572,0,0,0,.352,1.053c.168.4.351.776.526,1.215a2.487,2.487,0,0,1,.2.892,1.221,1.221,0,0,1-.225.734,1.2,1.2,0,0,1-.59.488,1.756,1.756,0,0,1-1.18-.078,1.73,1.73,0,0,1-.221-.1c-.256-.147-.274-.277-.144-.516.032-.053.056-.109.092-.158a.438.438,0,0,1,.47-.186,4.505,4.505,0,0,0,.6.147.363.363,0,0,0,.123,0,.112.112,0,0,0,.084-.038A.427.427,0,0,0-8.737,104a.873.873,0,0,0,0-.425Z" fill="#231f20"/>
    <path id="Path_19783" data-name="Path 19783" d="M-1.693,104.342a7.139,7.139,0,0,1-.144,1.707,3.349,3.349,0,0,1-.186.635,2.3,2.3,0,0,1-.755.934,2.549,2.549,0,0,1-.53.271,1.763,1.763,0,0,1-.594.094,3.338,3.338,0,0,1-.972-.151,2.692,2.692,0,0,1-1.085-.54c-.1-.085,0-.183.147-.246a.849.849,0,0,1,.569-.025,4.529,4.529,0,0,0,1.008.285,2.108,2.108,0,0,0,.463,0,2.065,2.065,0,0,0,.207-.046c.071-.025.151-.056.222-.088a1.4,1.4,0,0,0,.67-.951,4.945,4.945,0,0,0,.141-1.479c0-.319-.028-.642-.06-.965-.053-.492-.105-.99-.183-1.485-.059-.383-.172-.759-.21-1.17a1.522,1.522,0,0,1,0-.27c0-.351.112-.471.351-.485a.834.834,0,0,1,.158,0,.386.386,0,0,1,.319.352c.134.589.243,1.264.351,1.976.071.527.13,1.054.166,1.63Z" fill="#231f20"/>
    <path id="Path_19784" data-name="Path 19784" d="M-8.491,106.4a3.524,3.524,0,0,1-.916-.073,1.861,1.861,0,0,1-.352-.092,1.33,1.33,0,0,1-.814-.979.933.933,0,0,1,.074-.611.641.641,0,0,1,.667-.351c.077,0,.059.143.028.28a.655.655,0,0,1-.053.2c-.017.056-.021.109-.039.119a.071.071,0,0,0-.021.071.291.291,0,0,0,0,.059.6.6,0,0,0,.057.288c.063.151.245.218.421.271a2.164,2.164,0,0,0,.7.084,2.858,2.858,0,0,0,.453-.042,2.589,2.589,0,0,0,.667-.2,1.739,1.739,0,0,0,.408-.305l.073-.074c.1-.07.172-.039.309.021l.092.039c.094.045.137.161.094.33a1.328,1.328,0,0,1-.4.516,1.538,1.538,0,0,1-.545.295,3.793,3.793,0,0,1-.888.179Z" fill="#231f20"/>
    <path id="Path_19785" data-name="Path 19785" d="M-6.054,107.253A4.908,4.908,0,0,1-7,107.33a2.428,2.428,0,0,1-.351-.017,1.591,1.591,0,0,1-.309-.085,1.627,1.627,0,0,1-.291-.133,1.217,1.217,0,0,1-.509-.439.54.54,0,0,1-.074-.351.654.654,0,0,1,.14-.284,1.443,1.443,0,0,1,.534-.4c.063-.028.077,0,.06.085a.824.824,0,0,1-.116.277.776.776,0,0,0-.134.242.165.165,0,0,0,0,.144.712.712,0,0,0,.215.19,1.5,1.5,0,0,0,.646.137,3.222,3.222,0,0,0,.79-.049,4.231,4.231,0,0,0,.495-.116,4.29,4.29,0,0,0,.734-.281,4.612,4.612,0,0,0,.509-.33,1.051,1.051,0,0,1,.116-.07.228.228,0,0,1,.318.054l.008.012c.025.028.049.053.07.081a.253.253,0,0,1-.028.32,1.719,1.719,0,0,1-.439.407,2.254,2.254,0,0,1-.537.281,6.268,6.268,0,0,1-.888.27Z" fill="#231f20"/>
    <path id="Path_19786" data-name="Path 19786" d="M-17.413,94.159c.126,1.405.263,2.809.421,4.193l.19,1.524c.1.9.2,1.794.319,2.686.056.449.12.9.186,1.341l.092.594.024.154v.042h.035l.074-.024.137-.042.3-.088c.2-.056.4-.1.6-.144a9.378,9.378,0,0,1,1.225-.172,14.336,14.336,0,0,1,1.559.031c.506.032,1.008.071,1.514.092.312,0,.284.1.021.245a3.15,3.15,0,0,1-.558.222,2.419,2.419,0,0,1-.819.109c-.53,0-1.053-.036-1.538-.018a9.316,9.316,0,0,0-1.457.218l-.351.091-.179.049-.088.025-.172.059c-.119.036-.242.088-.351.116l-.225-.126-.042-.025h0c-.137.232-.038.064-.07.113h0l-.021-.028-.074-.113-.074-.112-.035-.06v-.091l-.1-.59c-.022-.133-.036-.263-.057-.393l-.1-.79c-.148-1.257-.352-2.55-.531-3.831-.175-1.4-.33-2.809-.474-4.214l-.253-2.605c-.129-1.317-.224-2.644-.351-3.95-.084-1.019-.21-2.016-.245-3.034a6.061,6.061,0,0,1,0-.674v-.815a1.433,1.433,0,0,1,.084-.4c0-.028,0-.038.031-.073s-.028.024-.031.038-.046.018-.067-.024-.021,0,0-.081l.025-.028a.131.131,0,0,1,.084-.021.159.159,0,0,1,.07.031l.035.035a.718.718,0,0,1,.088.1,1.422,1.422,0,0,1,.313.7c.038.452.073.909.112,1.369s.095.913.133,1.376c.078.931.158,1.872.236,2.809.126,1.4.245,2.809.389,4.214Z" fill="#231f20"/>
    <path id="Path_19787" data-name="Path 19787" d="M6.327,100.831V94.886l.045-5.618c0-.828,0-1.661-.021-2.482A21.991,21.991,0,0,1,6.425,83.6c.06-.351.144-.267.249,0a5.475,5.475,0,0,1,.19.572c.028.116.067.246.091.383a4.226,4.226,0,0,1,.035.435c.032,1.078.07,2.153.081,3.234s0,2.16-.035,3.248c-.035,1.3.024,2.655.039,3.982l.017,4.389v4.112c-.183-.025-.351-.042-.548-.056H5.368c-.488,0-.976.031-1.464.059-1.054.067-2.072.183-3.108.271-.224.021-.449.045-.677.063a5.318,5.318,0,0,1-.91,0,1.06,1.06,0,0,1-.418-.165,1.43,1.43,0,0,1-.13-.077c-.042-.042.022-.088.173-.162a2.532,2.532,0,0,1,.7-.217c.92-.173,1.871-.278,2.837-.383s1.952-.137,2.949-.162h.991v-2.3Z" fill="#231f20"/>
    <path id="Path_19788" data-name="Path 19788" d="M3.816,82.172l.6.067h.221c.257.042.513.084.769.115a2.057,2.057,0,0,0,.351,0,1.163,1.163,0,0,1,.436.025c.091.028-.025.425-.19.446a3.291,3.291,0,0,1-.892-.028,3.134,3.134,0,0,0-.548,0c-.2,0-.4-.018-.6-.028H3.6a4.724,4.724,0,0,0-.558,0c-.144.017-.281.06-.421.084a.284.284,0,0,1-.092,0c-.119,0-.158-.049-.193-.179a.663.663,0,0,1-.021-.088.228.228,0,0,1,.106-.242,1.2,1.2,0,0,1,.386-.176,2.7,2.7,0,0,1,.411-.038c.2,0,.407,0,.611.017Z" fill="#231f20"/>
    <path id="Path_19789" data-name="Path 19789" d="M-16.7,82.6h-.815l-.776-.028a2.938,2.938,0,0,0-.351,0,.943.943,0,0,1-.442,0c-.091-.031.039-.481.193-.491a4.23,4.23,0,0,1,.864.017,2.8,2.8,0,0,0,.541-.021h.969a5.009,5.009,0,0,0,.561-.021A3.649,3.649,0,0,1-15.524,82h.1a.157.157,0,0,1,.182.147.457.457,0,0,1,0,.074.182.182,0,0,1-.123.186c-.123.056-.245.113-.372.158a1.466,1.466,0,0,1-.39.046c-.2.017-.393.021-.593.031Z" fill="#231f20"/>
    <path id="Path_19790" data-name="Path 19790" d="M-19.165,97.593c-.127-1.221-.225-2.457-.351-3.665-.043-.446-.109-.889-.151-1.335l-.411-4.712c-.071-.7-.151-1.4-.243-2.082a21.884,21.884,0,0,1-.277-2.654c0-.278.144-.271.351-.06a2.321,2.321,0,0,1,.551,1.123c.134.906.25,1.809.352,2.718s.158,1.819.21,2.739c.06,1.1.228,2.23.351,3.346l.352,3.691.214,2.271c.116,1.145.224,2.3.372,3.427.112.882.27,1.739.421,2.6.035.19.07.372.106.566.119.7.115.92-.025,1.113a.893.893,0,0,1-.091.13c-.056.052-.123,0-.2-.106a1.956,1.956,0,0,1-.232-.586c-.189-.776-.351-1.57-.467-2.381s-.26-1.633-.375-2.458c-.169-1.225-.316-2.458-.467-3.687Z" fill="#231f20"/>
    <path id="Path_19791" data-name="Path 19791" d="M-13.8,105.016l.783-.045c.1,0,.19-.021.285-.025a7.691,7.691,0,0,1,1.018.042l.457.028a1.154,1.154,0,0,1,.582.137c.057.035,0,.134-.077.221a.374.374,0,0,1-.277.162c-.33-.042-.7-.049-1.054-.1a3.508,3.508,0,0,0-.7.025l-.772.049-.474.046c-.239.028-.481.049-.7.094-.182.039-.351.1-.537.141a.462.462,0,0,1-.123.017c-.151,0-.207-.035-.253-.122-.011-.02-.022-.04-.031-.06-.025-.06.024-.141.126-.207a2.186,2.186,0,0,1,.987-.327c.26-.042.52-.067.779-.1Z" fill="#231f20"/>
    <path id="Path_19792" data-name="Path 19792" d="M1.467,104.521c.379,0,.758-.028,1.145-.052.137,0,.274-.039.414-.046.5-.025,1-.042,1.5-.046l.667-.024a3.034,3.034,0,0,1,.85.063c.084.024.066.13,0,.235a.574.574,0,0,1-.373.235A11.855,11.855,0,0,1,4,104.957a7.309,7.309,0,0,0-1.032.116c-.383.042-.769.084-1.155.119l-.7.056L.02,105.3l-.846.081h-.186c-.232-.046-.3-.1-.33-.3a.846.846,0,0,0-.021-.1.351.351,0,0,1,.263-.295,1.528,1.528,0,0,1,.351-.081c.123-.021.243-.032.351-.042.246-.032.492-.021.741-.032.369,0,.748-.017,1.127-.038Z" fill="#231f20"/>
    <path id="Path_19793" data-name="Path 19793" d="M-27.522,90.034c-.562-.218-1.134-.418-1.707-.587a9.651,9.651,0,0,0-1.717-.351,2.668,2.668,0,0,0-.579,0,.957.957,0,0,0-.218.056.2.2,0,0,0-.088.049.119.119,0,0,0-.035.064.241.241,0,0,0,0,.038v.081c.053.162.092.33.158.495a5.355,5.355,0,0,0,.541.959,10.582,10.582,0,0,0,1.542,1.713,18.439,18.439,0,0,0,1.632,1.289c.351.253.738.491,1.113.73s.741.5,1.092.773c.222.172.13.27-.158.288a2.382,2.382,0,0,1-1.232-.281A19.962,19.962,0,0,1-29.5,93.777a12.6,12.6,0,0,1-2-2.04,9.187,9.187,0,0,1-.944-1.531c-.067-.137-.109-.295-.165-.446a1.339,1.339,0,0,1-.1-.573.908.908,0,0,1,.3-.625,1.261,1.261,0,0,1,.558-.28,3.3,3.3,0,0,1,1.053-.05,8.72,8.72,0,0,1,.966.144,16.853,16.853,0,0,1,1.847.516c.741.239,1.464.513,2.18.805,1.085.438,2.139.958,3.16,1.485.805.411,1.612.8,2.381,1.289a5.02,5.02,0,0,1,.506.333,1.8,1.8,0,0,1,.569.6.557.557,0,0,1,.045.453,1.223,1.223,0,0,1-.052.179c-.078.137-.408.056-.829-.2a34.474,34.474,0,0,0-4.136-2.317c-1.1-.516-2.216-1.032-3.361-1.454Z" fill="#231f20"/>
    <path id="Path_19794" data-name="Path 19794" d="M-20.394,117.752c-.4,1.243-2.458,20.327-.478,35.636,9.663,2.486,17.2-.839,17.511-1.756C-1.83,147.12-6.995,110.81-6.63,107.3c0,0-1.45.231-1.935-.555a1.807,1.807,0,0,1-1.931-.5s-4.491-.5-6.914.555a3.19,3.19,0,0,0-.351.176s-1.13-8.779-1.7-12.676c-.278-1.9-5.453-3.381-5.453-3.381-1.861,4.617-4.565,44.189-2.883,62.5.407.569,4.677.643,6.931-.028C-20.872,153.388-22,125.568-20.394,117.752Z" fill="#231f20"/>
    <path id="Path_19795" data-name="Path 19795" d="M-27.382,104.834c.25-2.792.523-5.58.889-8.364.182-1.4.386-2.781.677-4.179.032-.175.078-.351.123-.526l.067-.264.035-.144c.018-.07.049-.151.074-.224l.154-.457.077-.224.039-.113c0-.031.025-.021.042,0l.06.018c.305.087.611.175.916.277a21.379,21.379,0,0,1,2.019.783A10.837,10.837,0,0,1-20.3,92.478a4.308,4.308,0,0,1,.864.8,2.217,2.217,0,0,1,.351.568,1.586,1.586,0,0,1,.1.352c.021.108.028.179.039.27l.548,4.161,1.018,7.7a1.137,1.137,0,0,1,.119-.053l.179-.067.3-.084a5.086,5.086,0,0,1,.6-.144c.2-.046.4-.077.593-.109a20.5,20.5,0,0,1,3.554-.165c.294,0,.589.025.884.046l.439.035.351.031a.5.5,0,0,1,.1,0l.06.06.126.123.06.063.035.025.063.052c.042.036.092.057.134.088a1.249,1.249,0,0,0,.3.116,1.406,1.406,0,0,0,.323.046h.168a1.5,1.5,0,0,0,.257-.049l.319.08c.1.046.169.081.3.13l.091.1.06.038a1.066,1.066,0,0,0,.137.074,2.047,2.047,0,0,0,.351.1c.067,0,.13.017.2.021h.281a7.646,7.646,0,0,0,.867-.1,17.685,17.685,0,0,0,.021,2.37q.063.948.144,1.9c.6,6.745,1.405,13.49,2.047,20.246q.527,5.067.892,10.147c.116,1.693.221,3.392.274,5.092.024.853.046,1.706.021,2.563,0,.428-.035.86-.063,1.289-.021.217-.053.435-.081.653a2.337,2.337,0,0,1-.067.351l-.088.351a.979.979,0,0,1-.284.386,3.072,3.072,0,0,1-.305.229,5.711,5.711,0,0,1-.618.351,12.029,12.029,0,0,1-1.275.544A20.128,20.128,0,0,1-8.172,154a27.533,27.533,0,0,1-10.288.183c-.424-.07-.849-.151-1.271-.242-.21-.042-.418-.092-.628-.141l-.376-.091-.235-.056-.12-.028c-.028,0-.024-.025-.028-.046v-.06l-.305-2.707c-.158-1.7-.3-3.395-.379-5.088-.229-4.354-.253-8.722-.113-13.083s.429-8.718.98-13.044a13.662,13.662,0,0,1,.256-1.464c.1-.32.155-.45.186-.418a1.427,1.427,0,0,1,.021.537c0,.319-.028.769-.045,1.345-.095,2.3-.274,6.51-.485,11.5a143.445,143.445,0,0,0,.45,20.119l.137,1.25.052.488h.025c.8.2,1.619.352,2.437.485a27.561,27.561,0,0,0,4.954.313,24.963,24.963,0,0,0,4.916-.615,18.418,18.418,0,0,0,2.367-.7,10.481,10.481,0,0,0,1.113-.488,4.694,4.694,0,0,0,.495-.288,1.7,1.7,0,0,0,.2-.151.762.762,0,0,0,.064-.063,5.44,5.44,0,0,0,.133-.682l.049-.375.025-.39c.042-.516.042-1.053.052-1.577,0-1.053-.028-2.127-.077-3.2-.1-2.142-.249-4.291-.418-6.44-.411-5.137-.965-10.372-1.534-15.632Q-6,119.2-6.419,115.234c-.134-1.32-.271-2.64-.387-3.964-.056-.66-.112-1.324-.154-1.991-.025-.33-.039-.667-.053-1v-.414a.636.636,0,0,0,0-.151h-.225a3.042,3.042,0,0,1-.67-.1,1.7,1.7,0,0,1-.39-.154,1.37,1.37,0,0,1-.326-.229.274.274,0,0,1-.046-.056l-.07.018h-.267a2.286,2.286,0,0,1-.351,0,2.1,2.1,0,0,1-.682-.183,1.9,1.9,0,0,1-.312-.172l-.14-.109-.067-.056-.035-.028-.046-.049h-.049l-.228-.021c-.759-.06-1.521-.088-2.283-.077a16.546,16.546,0,0,0-2.257.168c-.187.028-.352.056-.548.1a5.139,5.139,0,0,0-.537.134l-.267.074-.351.133c-.3.133-.594.281-.885.425q-.877-6.615-1.756-13.234a2.038,2.038,0,0,0-.811-1.054,7.971,7.971,0,0,0-1.306-.807c-.467-.239-.948-.45-1.44-.643-.246-.094-.5-.186-.744-.274l-.351-.119-.162-.053c-.074-.049-.077.035-.095.088l-.028.081c0,.032,0,.039-.031.1-.06.257-.134.506-.183.766l-.158.779-.137.787c-.175,1.053-.319,2.107-.453,3.16-.892,7.342-1.4,14.747-1.787,22.139-.281,5.618-.478,11.236-.534,16.833s0,11.218.46,16.756l.028.316c-.021.091.081.123.141.154l.119.039a1.2,1.2,0,0,1,.183.042c.123.028.249.049.379.067a13.247,13.247,0,0,0,1.58.1,18.579,18.579,0,0,0,3.16-.242l.386-.074.186-.042.106-.028.1-.028s.039,0,.046-.017v-.281l-.063-1.609q-.058-1.605-.113-3.209c-.14-4.273-.249-8.539-.277-12.823v-2.809c0-.931.021-1.872.031-2.809.162-7.058.527-9.316.934-10.79.1-.351.215-.776.292-.962.126-.32.1.238-.035,1.5-.042.636-.1,1.451-.162,2.427s-.1,2.106-.13,3.406c-.112,3.816-.063,7.689-.024,11.587s.14,7.869.267,11.851l.105,2.991.063,1.735v.442c0,.021-.053.021-.081.032l-.175.049c-.232.063-.478.133-.7.186s-.517.105-.776.151a19.506,19.506,0,0,1-3.1.221,15.02,15.02,0,0,1-1.573-.091,5.545,5.545,0,0,1-.829-.151l-.151-.046c-.059-.021-.112-.049-.172-.073a.982.982,0,0,1-.3-.19c-.08-.081-.186-.158-.2-.277l-.052-.162v-.186l-.13-1.58-.1-1.521c-.056-1.011-.109-2.026-.144-3.04-.08-2.026-.109-4.056-.133-6.089-.046-6.032.105-12.072.351-18.111s.632-12.072,1.148-18.094Z" fill="#231f20"/>
    <path id="Path_19796" data-name="Path 19796" d="M3.542,81.519l.5.052H4.22c.211.036.421.071.632.1a1.882,1.882,0,0,0,.281,0,.965.965,0,0,1,.351.017c.074.025-.021.351-.158.38a2.589,2.589,0,0,1-.73-.025,2.416,2.416,0,0,0-.45,0c-.161,0-.326-.018-.491-.025h-.3a3.532,3.532,0,0,0-.46,0,2.259,2.259,0,0,0-.352.074.5.5,0,0,1-.077,0c-.1,0-.13-.042-.158-.154a.657.657,0,0,1-.017-.074.2.2,0,0,1,.084-.207,1.065,1.065,0,0,1,.65-.183h.505Z" fill="#231f20"/>
    <path id="Path_19797" data-name="Path 19797" d="M-9.067,156.678a22.44,22.44,0,0,0,3.511-.306c.425-.07.836-.189,1.247-.287a9.251,9.251,0,0,0,1.2-.369,3.872,3.872,0,0,0,1.054-.537l-.092.154a.251.251,0,0,0,0-.211c-.038-.056-.08-.087-.221-.143a3.525,3.525,0,0,0-.906-.155c-.667-.039-1.359-.025-2.043,0a8.31,8.31,0,0,1-2.658-.2c-.274-.1-.2-.165.042-.19s.656-.088,1.144-.1c.871-.021,1.756-.137,2.658-.214a6.6,6.6,0,0,1,1.4,0,2.478,2.478,0,0,1,.8.214l.122.064.12.094a.987.987,0,0,1,.2.218.929.929,0,0,1,.126.569,1.644,1.644,0,0,1-.049.27v.1l-.091.081a4.684,4.684,0,0,1-1.482.874,11.579,11.579,0,0,1-1.559.485,21.98,21.98,0,0,1-3.666.5c-.758.042-1.513.049-2.271.028a17.7,17.7,0,0,1-3.424-.435c-.221-.05-.435-.12-.653-.172a3.519,3.519,0,0,1-.646-.232,3.481,3.481,0,0,1-1.24-.762,3.365,3.365,0,0,1-.228-.249c-.067-.1-.13-.2-.193-.3a2.008,2.008,0,0,1-.172-.534,1.5,1.5,0,0,1,0-.379.5.5,0,0,1,.291-.351.745.745,0,0,1,.187-.077.293.293,0,0,1,.256.175.751.751,0,0,1,.084.208,1.145,1.145,0,0,1,.095.252,1.728,1.728,0,0,0,.5.675,3.781,3.781,0,0,0,.86.481,9.482,9.482,0,0,0,2.181.544,20.823,20.823,0,0,0,3.511.2Z" fill="#231f20"/>
    <path id="Path_19798" data-name="Path 19798" d="M-21.732,155.835c.211.046.425.088.646.127s.407.059.614.077h.46a13.2,13.2,0,0,0,1.686-.084c.256-.028.509-.085.762-.13a2.8,2.8,0,0,1,.993-.092c.109,0,.106.2.039.4s-.2.4-.372.436a9.083,9.083,0,0,1-1.97.256c-.414,0-.839.1-1.275.1a6.825,6.825,0,0,1-1.4-.133c-.281-.046-.562-.1-.85-.172a2.845,2.845,0,0,1-.663-.253,1.527,1.527,0,0,1-.562-.541,2.293,2.293,0,0,1-.26-1.092,1.59,1.59,0,0,1,.025-.228c.063-.277.144-.351.319-.376l.109-.021c.109,0,.221.127.267.316.088.281.133.555.217.745a2.07,2.07,0,0,0,.12.21.522.522,0,0,0,.116.123,2.7,2.7,0,0,0,.99.313Z" fill="#231f20"/>
    <path id="Path_19799" data-name="Path 19799" d="M-7.388,22.55c.428-.7,1.453-1.576,2.349-1.4.7.14,1.025-.959.3-1.1a3.728,3.728,0,0,0-3.628,1.931.572.572,0,0,0,.987.576Z" fill="#231f20"/>
    <path id="Path_19800" data-name="Path 19800" d="M-5.619,22.972c-.221.751-.07,3.627,1.349,2.837.618-.351.526-1.194.379-1.756-.127-.488-.415-1.4-1-1.51-.664-.13-.945.885-.281,1.018-.081-.017-.109-.091-.074-.035a1.951,1.951,0,0,1,.112.186,2.853,2.853,0,0,1,.2.534,2,2,0,0,1,.095.478.965.965,0,0,0,0,.228c.017.01.235-.06.116-.074.291.028.259.123.186-.116a2.3,2.3,0,0,1-.085-.533,2.993,2.993,0,0,1,.029-.963.529.529,0,0,0-1.019-.28Z" fill="#231f20"/>
    <path id="Path_19801" data-name="Path 19801" d="M-14.334,70.665c-.14.984-.263,1.974-.351,2.967-.035.352-.039.727-.074,1.089q-.176,1.917-.281,3.845c-.031.569-.038,1.141-.038,1.71a9.658,9.658,0,0,1-.127,2.2c-.049.229-.186.179-.33-.021a1.905,1.905,0,0,1-.214-.4,1.482,1.482,0,0,1-.126-.568,43.443,43.443,0,0,1,.186-4.477c.1-.9.105-1.837.186-2.753.081-1.011.193-2.023.323-3.027.07-.621.179-1.236.26-1.854.147-.934.316-1.868.481-2.791.119-.72.235-1.429.351-2.142.032-.158.063-.309.105-.467.148-.576.281-.738.471-.818a.708.708,0,0,1,.133-.049c.134-.021.186.242.158.677-.144,1.275-.414,2.581-.635,3.908-.165.987-.323,1.977-.453,2.974Z" fill="#231f20"/>
    <path id="Path_19802" data-name="Path 19802" d="M-2.617,34.422a2.16,2.16,0,0,1-.7-.127,1.687,1.687,0,0,1-.242-.063,2.67,2.67,0,0,1-.727-.562,2.2,2.2,0,0,1-.26-.316.531.531,0,0,1-.049-.509c.025-.045,0-.038.025,0a.444.444,0,0,0,.207.106,2.319,2.319,0,0,0,.372.035.575.575,0,0,1,.3.112c.116.088.281.067.425.1l.495.137a2.42,2.42,0,0,0,.316.063,1.365,1.365,0,0,0,.477,0,.548.548,0,0,0,.155-.067l.144-.073a.442.442,0,0,1,.067-.046,1.362,1.362,0,0,0,.147-.116v-.017a.653.653,0,0,0,.049.143.923.923,0,0,1-.084.573,1.189,1.189,0,0,1-.4.421,1.5,1.5,0,0,1-.723.235Z" fill="#231f20"/>
    <path id="Path_19803" data-name="Path 19803" d="M15.909,20.717,15.79,16.7c0-.492-.057-.98-.064-1.468-.028-1.724-.035-3.451-.035-5.183v-2.3c0-.492,0-.984.042-1.475a6.367,6.367,0,0,1,.253-1.489c.12-.316.228-.2.3.074a4.692,4.692,0,0,1,.154,1.281c-.031,1.949,0,3.94,0,5.941,0,1.2.1,2.458.148,3.67l.147,4.048.1,2.493c.049,1.257.1,2.525.147,3.775.046.969.134,1.921.179,2.89,0,.21.025.421.025.635,0,.8-.084,1.054-.327,1.215a.8.8,0,0,1-.165.1c-.179.056-.3-.267-.351-.836-.119-1.689-.217-3.49-.3-5.3q-.078-2.017-.158-4.048Z" fill="#231f20"/>
    <path id="Path_19804" data-name="Path 19804" d="M39.389,3.217c.534,0,1.053,0,1.6.021.27,0,.54.021.825.046h.1l.183.024a1.633,1.633,0,0,1,.351.078.476.476,0,0,1,.27.186v.017h.021l.018.039.035.07c.025.049.053.1.074.148l.168.863a6.185,6.185,0,0,1,.109.7l.155,1.4c.056.924.133,1.851.154,2.77.046,1.054.084,2.107.1,3.182.025,3.736-.073,7.458-.2,11.18-.056,1.653-.092,3.314-.13,4.951-.042,2.106-.056,4.213-.183,6.32-.028.646-.161.572-.323.017a8.577,8.577,0,0,1-.239-1.155,9.451,9.451,0,0,1-.115-1.647c.045-4.3.147-8.595.291-12.925.095-2.587.053-5.267,0-7.925,0-.618-.035-1.239-.06-1.857L42.549,8.8l-.063-.923-.063-.924c-.028-.309-.071-.61-.1-.916s-.06-.614-.12-.909l-.147-.787c0-.119-.123-.119-.2-.13l-.281-.021H41.26c-1.755-.053-3.574,0-5.365.025l-8.149.161c-2.107.042-4.158.116-6.24.1-.46,0-.906,0-1.369-.022a9.177,9.177,0,0,1-1.819-.182,1.846,1.846,0,0,1-.783-.323,1.42,1.42,0,0,1-.225-.176c-.14-.182.558-.239,1.8-.26,1.84.025,3.732,0,5.656-.042l5.847-.119c2.911-.053,5.832-.126,8.778-.151Z" fill="#231f20"/>
    <path id="Path_19805" data-name="Path 19805" d="M36.836,37.578l-2.38.085c-.288,0-.576.045-.868.052-1.018.029-2.05.036-3.065.046a11.976,11.976,0,0,0-1.338.1c-.281.035-.562.084-.843.13s-.565.063-.849.081c-.179,0-.19-.13-.074-.309a1.321,1.321,0,0,1,.7-.506,15.582,15.582,0,0,1,3.582-.235c.7.021,1.443-.06,2.166-.1l2.4-.123,1.475-.073c.744-.039,1.492-.06,2.233-.113.576-.038,1.137-.119,1.706-.161.127,0,.25-.025.376-.032.471,0,.622.042.723.253a1.048,1.048,0,0,1,.067.144c.046.165-.144.3-.481.351-.506.084-1.018.151-1.541.2s-1.054.07-1.591.1l-2.388.116Z" fill="#231f20"/>
    <path id="Path_19806" data-name="Path 19806" d="M36.805,38.112l-2.191.162c-.267.021-.531.059-.8.077-.945.053-1.893.088-2.841.088a12.145,12.145,0,0,0-1.236.073c-.263.025-.523.067-.783.1a6.67,6.67,0,0,1-.79.035c-.165,0-.172-.141-.056-.313a1.17,1.17,0,0,1,.656-.463A17.851,17.851,0,0,1,32.05,37.7a19.474,19.474,0,0,0,1.991-.144l2.2-.193,1.356-.123c.7-.067,1.373-.112,2.054-.186.526-.06,1.053-.155,1.569-.211.116,0,.232-.031.351-.039.436-.024.576.029.675.239a1.264,1.264,0,0,1,.063.141c.045.161-.127.305-.436.368-.46.092-.93.172-1.4.239s-.966.1-1.457.148l-2.195.2Z" fill="#231f20"/>
    <path id="Path_19807" data-name="Path 19807" d="M15.512,20.773l-.088-3.69c0-.449-.049-.9-.052-1.348V10.984c0-.7-.021-1.4-.028-2.107V7.529a10.2,10.2,0,0,1,.112-1.352c.039-.277.176-.228.3.018a2.789,2.789,0,0,1,.281,1.186c.057,1.809.078,3.628.064,5.467,0,1.1.084,2.244.126,3.368l.116,3.715q.035,1.145.077,2.286c.042,1.155.074,2.314.134,3.462.045.888.143,1.755.207,2.64.017.2.038.386.049.583.031.727-.035.959-.263,1.12a.987.987,0,0,1-.155.1c-.172.07-.351-.221-.4-.748-.19-1.562-.281-3.216-.351-4.881q-.07-1.854-.141-3.718Z" fill="#231f20"/>
    <path id="Path_19808" data-name="Path 19808" d="M28.153,23.582a4.84,4.84,0,0,0,.923-.919c.313-.38.615-.776.91-1.177.6-.8,1.162-1.636,1.72-2.458.408-.611.769-1.25,1.152-1.871.449-.738.881-1.489,1.26-2.251a9.785,9.785,0,0,0,.506-1.155,3.128,3.128,0,0,0,.148-.544q0-.06,0-.12v-.07a.226.226,0,0,0-.05-.119v-.021l-.045-.053-.1-.109c-.066-.07-.14-.14-.21-.211-.148-.137-.3-.27-.457-.4a6.505,6.505,0,0,0-1-.671c-.467-.246-1.011-.414-1.313-.218A3.332,3.332,0,0,0,31,11.7c-.2.193-.386.4-.568.614-.471.545-.9,1.138-1.338,1.728S28.2,15.212,27.742,15.8c-.288.352-.421.2-.386-.249a4.372,4.372,0,0,1,.7-1.906c.414-.587.846-1.166,1.313-1.732.232-.284.481-.561.748-.835.141-.137.267-.271.432-.4a3.042,3.042,0,0,1,.253-.2,1.758,1.758,0,0,1,.316-.193l.193-.092c.073-.023.146-.043.221-.059a1.76,1.76,0,0,1,.422-.039,2.62,2.62,0,0,1,.375.039l.33.08a4.87,4.87,0,0,1,1.113.527,7.508,7.508,0,0,1,.941.681c.148.123.288.253.429.39.07.07.14.141.207.214s.112.127.242.278a1.383,1.383,0,0,1,.214.4,1.469,1.469,0,0,1,.029.453,5.663,5.663,0,0,1-.429,1.493c-.182.449-.383.885-.593,1.313q-.627,1.285-1.356,2.5a44.8,44.8,0,0,1-3.55,5.126A4.208,4.208,0,0,1,28.279,24.9a2.166,2.166,0,0,1-1.155.1,3.009,3.009,0,0,1-1.008-.393,5.335,5.335,0,0,1-.632-.446l-.291-.242a2.129,2.129,0,0,1-.3-.32,2.241,2.241,0,0,1-.439-1.619,2.388,2.388,0,0,1,.26-.779c.1-.221.214-.439.323-.653.221-.432.453-.853.7-1.268a22.071,22.071,0,0,1,1.2-1.892,4.056,4.056,0,0,1,.854-.924,2,2,0,0,1,1.4-.312,2.376,2.376,0,0,1,1.145.509,1.907,1.907,0,0,1,.6.871,1.407,1.407,0,0,1,.052.438,3.083,3.083,0,0,1-.091.352,1.47,1.47,0,0,1-.14.259.58.58,0,0,1-.176.151.516.516,0,0,1-.351.092.745.745,0,0,1-.281-.039c-.116-.06-.123-.221-.1-.393a.767.767,0,0,0-.039-.26,1.04,1.04,0,0,0-.045-.109.456.456,0,0,1-.067-.112,1.03,1.03,0,0,0-.351-.4.971.971,0,0,0-.534-.172.634.634,0,0,0-.435.183,4.978,4.978,0,0,0-.545.65,23.315,23.315,0,0,0-1.98,3.388l-.077.165c-.021.053-.056.123-.063.144a.675.675,0,0,0-.057.2.794.794,0,0,0,.021.393,1.143,1.143,0,0,0,.2.4.508.508,0,0,0,.066.081l.028.032.06.049.263.217a2.522,2.522,0,0,0,1.019.517.814.814,0,0,0,.41,0,1.2,1.2,0,0,0,.425-.208Z" fill="#231f20"/>
    <path id="Path_19809" data-name="Path 19809" d="M87.143,36.455A8.549,8.549,0,0,1,87.051,34a11.154,11.154,0,0,1,.5-2.377c.2-.555.4-1.089.643-1.608.85-1.826,1.784-3.582,2.7-5.355.4-.783.794-1.584,1.162-2.374.474-1.021.92-2.057,1.4-3.051.151-.309.288-.214.351.123a3.082,3.082,0,0,1-.246,1.534c-.937,2.125-1.987,4.168-3.086,6.208-.657,1.219-1.254,2.532-1.8,3.821-.077.175-.147.351-.214.53s-.14.351-.193.53a4.182,4.182,0,0,0-.147.537c-.042.186-.092.351-.123.555a8.916,8.916,0,0,0-.151,2.247,6.415,6.415,0,0,0,.727,2.63,7.2,7.2,0,0,0,2.967,2.886A11,11,0,0,0,94.6,41.887c.236.045.464.081.7.123.871.147,1.141.217,1.316.477a1.033,1.033,0,0,1,.116.179c.081.19-.312.351-1.007.3a10.616,10.616,0,0,1-5.987-2.254,7.475,7.475,0,0,1-1.679-1.893,7.268,7.268,0,0,1-.934-2.363Z" fill="#231f20"/>
    <path id="Path_19810" data-name="Path 19810" d="M87.181,26.595a5.724,5.724,0,0,1,.99-.7c.123-.07.236-.162.351-.225.439-.228.892-.407,1.328-.6a4.071,4.071,0,0,0,.554-.3,2.766,2.766,0,0,1,.685-.389c.081-.022.186.147.232.351a.509.509,0,0,1-.116.526,6.84,6.84,0,0,1-1.524.7,4.508,4.508,0,0,0-.878.467,6.125,6.125,0,0,0-.881.59,2.84,2.84,0,0,0-.428.435,1.151,1.151,0,0,0-.26.818,1.259,1.259,0,0,0,.3.6,1.129,1.129,0,0,1,.1.116.272.272,0,0,1,0,.4c-.028.035-.057.077-.088.112a.292.292,0,0,1-.411.018,1.674,1.674,0,0,1-.537-.7,1.78,1.78,0,0,1-.12-1,2.321,2.321,0,0,1,.7-1.232Z" fill="#231f20"/>
    <path id="Path_19811" data-name="Path 19811" d="M103.129,11.082c-.47-.432-5.765-9.554-15.4-6.411A6.953,6.953,0,0,0,83.7,14.832c2.907,5.088,8.427,4.253,12.992,2.974,4.916-1.383,7.458,8.185,7.6,8.1,1.892-1.453,5.028-.912,5.772,1.3,1.162,3.448-2.012,5.046-4.47,5.141-1.109.8-4.88,20.548.509,27.872,3.087,4.193,7.244,5.292,11.237,2.23,3.083-2.367,4.743-7.279,4.747-11.068,0-6.875-5.267-19.565-5.1-23.174.172-3.511.815-7.335-.218-10.755-1.281-4.256-4.954-7.3-9.543-6.83C105.977,10.766,104.348,10.815,103.129,11.082Z" fill="#231f20"/>
    <path id="Path_19812" data-name="Path 19812" d="M112.5,64.858a7.445,7.445,0,0,1-3.529-1.054,10.923,10.923,0,0,1-2.707-2.359A13.42,13.42,0,0,1,105.215,60a12.51,12.51,0,0,1-.811-1.595,17.776,17.776,0,0,1-1.011-3.356,35.3,35.3,0,0,1-.632-6.865,58.883,58.883,0,0,1,.4-6.833c.186-1.654.424-3.3.744-4.94.161-.818.351-1.633.562-2.458a12.674,12.674,0,0,1,.4-1.229l.067-.158c.021-.049.049-.1.1-.2a1.552,1.552,0,0,1,.147-.224,1.976,1.976,0,0,1,.183-.183,1.5,1.5,0,0,1,.509-.1,1.86,1.86,0,0,0,.288-.028,5.887,5.887,0,0,0,1.927-.579A3.424,3.424,0,0,0,109.516,30a2.789,2.789,0,0,0,.352-1.822l-.028-.246-.064-.242a2.615,2.615,0,0,0-.14-.467l-.088-.214-.123-.2a2.593,2.593,0,0,0-.281-.372,3.551,3.551,0,0,0-3.637-.734,2.922,2.922,0,0,0-.453.193.98.98,0,0,0-.176.092.767.767,0,0,1-.19.1l-.351.123-.084.028h-.067c0-.032-.028.07,0-.067h0l-.133-.056c-.1-.035-.158-.172-.214-.309l-.25-.7c-.245-.678-.509-1.345-.8-2A13.921,13.921,0,0,0,100.57,19.5a5.1,5.1,0,0,0-1.612-1.247,3.1,3.1,0,0,0-1.935-.242l-.242.06-.267.066-.53.141c-.351.088-.7.175-1.071.256-.72.151-1.443.292-2.18.372a11.8,11.8,0,0,1-4.435-.2,7.463,7.463,0,0,1-3.455-1.956,8.718,8.718,0,0,1-1.212-1.541,7.407,7.407,0,0,1-.474-.882,9.576,9.576,0,0,1-.351-.937,7.127,7.127,0,0,1,2.019-7.325,7.767,7.767,0,0,1,2.138-1.376l.594-.232c.2-.074.4-.123.6-.186.4-.13.814-.2,1.222-.3A13.417,13.417,0,0,1,91.9,3.751a11.844,11.844,0,0,1,2.507.33,12.519,12.519,0,0,1,4.515,2.177A17.783,17.783,0,0,1,102.431,9.8c.312.41.516.723.639.92s.154.27.126.284a7.344,7.344,0,0,1-1-.973,24.448,24.448,0,0,0-2.57-2.457,14.706,14.706,0,0,0-4.295-2.486,10.822,10.822,0,0,0-4.768-.562,12.292,12.292,0,0,0-2.37.491l-.292.088c-.094.032-.186.07-.277.105-.183.074-.372.137-.551.222l-.523.273a5.228,5.228,0,0,0-.5.32,6.453,6.453,0,0,0-1.665,1.647,6.667,6.667,0,0,0-.962,2.107,6.226,6.226,0,0,0-.13,2.331,6.4,6.4,0,0,0,.7,2.23,7.165,7.165,0,0,0,3.308,3.272,8.622,8.622,0,0,0,2.289.622,12.771,12.771,0,0,0,2.434.024,19.625,19.625,0,0,0,2.458-.372c.407-.077.811-.182,1.215-.277l.607-.162.305-.081c.116-.028.229-.059.352-.077a3.922,3.922,0,0,1,2.735.523,7.026,7.026,0,0,1,1.966,1.833,15.6,15.6,0,0,1,1.6,2.693c.225.471.436.949.632,1.43l.285.726.246.664.038.109a.4.4,0,0,0,.025.056.062.062,0,0,0,.049-.028.66.66,0,0,1,.1-.06l.141-.073a1.549,1.549,0,0,1,.193-.092,4.437,4.437,0,0,1,1.647-.351,4.117,4.117,0,0,1,3.128,1.194c.1.112.193.225.285.351l.231.379c.06.134.116.274.176.408a3.471,3.471,0,0,1,.119.407,4.2,4.2,0,0,1,.127,1.706,3.338,3.338,0,0,1-.674,1.609,4.225,4.225,0,0,1-1.286,1.127,6.327,6.327,0,0,1-1.541.642,7.033,7.033,0,0,1-.811.169,4.043,4.043,0,0,1-.411.049h-.137l-.035.053-.046.091c-.045.1-.087.218-.13.351-.084.232-.158.474-.228.7q-.2.73-.369,1.486a59.871,59.871,0,0,0-1.292,13.483,31.091,31.091,0,0,0,.818,6.671,14.81,14.81,0,0,0,1.138,3.122,9.116,9.116,0,0,0,.874,1.387c.172.214.352.439.517.65l.554.61a8.314,8.314,0,0,0,3.34,2.153,6.01,6.01,0,0,0,1.948.274,6.559,6.559,0,0,0,1.939-.383,4.328,4.328,0,0,0,.463-.19c.151-.073.309-.126.453-.214a9.35,9.35,0,0,0,2.4-1.822,12.6,12.6,0,0,0,2.18-3.434,16.66,16.66,0,0,0,1.384-6.047,27.017,27.017,0,0,0-.78-6.236c-.916-4.132-2.222-8.167-3.35-12.244-.217-.793-.424-1.59-.6-2.4-.08-.4-.182-.8-.231-1.222-.032-.207-.067-.414-.092-.625l-.028-.649c.05-1.654.218-3.259.274-4.867a20.254,20.254,0,0,0-.295-4.716,10.545,10.545,0,0,0-.7-2.219,9.355,9.355,0,0,0-1.159-2,8.66,8.66,0,0,0-3.051-2.577,8.337,8.337,0,0,0-3.03-.829l-.625-.032-.569.021a3.484,3.484,0,0,0-.534.028l-.491.022a16.708,16.708,0,0,1-2.521-.064c-.267-.031-.615-.042-.78-.077-.277-.053.112-.277,1.085-.477.481-.1,1.11-.19,1.847-.278l1.2-.14.7-.056h.755a8.574,8.574,0,0,1,2.278.417,9.023,9.023,0,0,1,1.092.422c.176.084.351.182.52.274l.256.14.246.165a10.128,10.128,0,0,1,3.22,3.4,12.372,12.372,0,0,1,1.524,4.487,24.791,24.791,0,0,1,.123,4.638c-.039.766-.1,1.524-.148,2.279l-.077,1.127-.032.559V28.5a3.33,3.33,0,0,0,.025.5l.081.527c.038.351.133.7.2,1.078s.169.723.257,1.085.186.73.288,1.1c.8,2.917,1.717,5.853,2.51,8.83a60.019,60.019,0,0,1,1.475,6.774c.07.583.144,1.162.19,1.755a12.933,12.933,0,0,1,.035,1.795,16.65,16.65,0,0,1-.53,3.536,15.372,15.372,0,0,1-3.224,6.369c-.2.232-.432.439-.646.657a7.981,7.981,0,0,1-.7.593l-.755.523-.8.457a7.576,7.576,0,0,1-3.638.839Z" fill="#231f20"/>
    <path id="Path_19813" data-name="Path 19813" d="M95.921,45.036a11.019,11.019,0,0,0-1.4.281c-.221.067-.446.137-.66.222a4.107,4.107,0,0,0-.6.28,2.711,2.711,0,0,0-.66.64,3.016,3.016,0,0,0-.621,1.534,2.464,2.464,0,0,0,.066.829,4.039,4.039,0,0,0,.334.818A5.312,5.312,0,0,0,93.4,50.89,11.339,11.339,0,0,0,95.1,52.1c.182.113.1.274-.155.351a1.337,1.337,0,0,1-1.078-.151,6.548,6.548,0,0,1-1.791-1.583,4.212,4.212,0,0,1-.944-2.311,4.025,4.025,0,0,1,1.053-2.847,3.575,3.575,0,0,1,.667-.541,6.835,6.835,0,0,1,.745-.351,9.875,9.875,0,0,1,1.51-.436,17.635,17.635,0,0,1,1.871-.284c.948-.1,1.9-.126,2.827-.19.727-.049,1.432-.147,2.138-.235.158-.017.309-.049.464-.063.582-.042.769,0,.92.246a1.087,1.087,0,0,1,.1.165c.077.189-.148.375-.58.481a24.847,24.847,0,0,1-3.971.418,28.686,28.686,0,0,0-2.939.273Z" fill="#231f20"/>
    <path id="Path_19814" data-name="Path 19814" d="M91.985,54.218c-.952.5-1.882,1.054-2.809,1.651-.334.218-.65.46-.98.681l-3.511,2.388c-.524.351-1.054.719-1.573,1.053-.352.218-.7.432-1.054.622a5.624,5.624,0,0,1-.576.245l-.305.092a1.557,1.557,0,0,1-.32.031c-.274,0-.242-.119-.077-.326a2.661,2.661,0,0,1,.32-.351,2.465,2.465,0,0,1,.491-.323,18.875,18.875,0,0,0,2.026-1.226L85.643,57.4c.822-.541,1.619-1.19,2.458-1.755.909-.639,1.843-1.25,2.809-1.812.6-.351,1.208-.671,1.837-.959a14.312,14.312,0,0,1,2.981-1.025,8.5,8.5,0,0,1,2.457-.228,3.218,3.218,0,0,1,.545.056c.172.035.312.07.425.1a1.293,1.293,0,0,1,.27.137.464.464,0,0,1,.211.351.868.868,0,0,1,.024.19c-.021.2-.323.253-.748.165a8.654,8.654,0,0,0-3.992.372,16.918,16.918,0,0,0-2.932,1.261Z" fill="#231f20"/>
    <path id="Path_19815" data-name="Path 19815" d="M69.326,66.118a40.553,40.553,0,0,1-3.954-9.628,29.142,29.142,0,0,1-.818-3.732,12.179,12.179,0,0,1-.119-1.728,4.154,4.154,0,0,1,.1-.93,1.753,1.753,0,0,1,.221-.548c.1-.137.179-.242.27-.351a9.512,9.512,0,0,1,2.613-2.286,7.535,7.535,0,0,1,1.611-.7,5.115,5.115,0,0,1,1.781-.228,4.278,4.278,0,0,1,1.755.488,4.454,4.454,0,0,1,1.38,1.151,8.225,8.225,0,0,1,1.356,2.753c.295.962.488,1.921.741,2.844a9.542,9.542,0,0,0,1.478,3.266q.537.747,1.1,1.482l.58.726c.189.243.351.506.551.755.453.632.288.643-.309.292a8.37,8.37,0,0,1-2.539-2.251c-.2-.267-.382-.52-.572-.815a8.373,8.373,0,0,1-.509-.906,11.569,11.569,0,0,1-.7-1.9c-.352-1.275-.573-2.528-.963-3.659A5.032,5.032,0,0,0,72.5,47.487a3.26,3.26,0,0,0-1.513-.477,4.381,4.381,0,0,0-1.668.246,7.774,7.774,0,0,0-3.49,2.559l-.165.222a.4.4,0,0,0-.088.151,1.652,1.652,0,0,0-.095.445,7.2,7.2,0,0,0,0,1.1,19.712,19.712,0,0,0,.32,2.283,35.757,35.757,0,0,0,1.327,4.93,39.657,39.657,0,0,0,1.97,4.736,25.879,25.879,0,0,0,3.395,5.285,11.868,11.868,0,0,0,3.628,2.96,6.708,6.708,0,0,0,2.208.667,9.017,9.017,0,0,0,2.321-.042,10.716,10.716,0,0,0,3.389-1.173,17.02,17.02,0,0,0,2.967-2.033q.6-.526,1.172-1.053c.724-.681,1.177-1.159,1.524-1.464a4.946,4.946,0,0,1,.45-.352,2.167,2.167,0,0,1,.375-.175,2.809,2.809,0,0,1,.316-.109c.243-.049-.094.751-1.116,1.865a19.469,19.469,0,0,1-5.422,4.255,11.872,11.872,0,0,1-3.437,1.159,8.919,8.919,0,0,1-3.726-.141,10.489,10.489,0,0,1-4.624-2.91,22.379,22.379,0,0,1-3.2-4.27Z" fill="#231f20"/>
    <path id="Path_19816" data-name="Path 19816" d="M114.035,79.345c-.2-.611-.379-1.225-.554-1.843s-.351-1.233-.52-1.854c-.123-.45-.277-.892-.383-1.348-.4-1.6-.684-3.231-.941-4.86-.112-.723-.224-1.454-.333-2.17-.053-.467-.109-.934-.162-1.4a11.349,11.349,0,0,1,.042-1.4c.028-.292.207-.249.411,0a2.509,2.509,0,0,1,.523,1.183c.243,1.83.555,3.655.85,5.524.1.554.221,1.12.351,1.681s.309,1.124.45,1.686l.505,1.843.545,1.833c.245.745.466,1.5.737,2.237.393,1.12.793,2.251,1.278,3.325q.274.631.6,1.222l.323.593.352.58c.1.168.2.351.305.5.369.635.428.8.292,1.12a2.186,2.186,0,0,1-.092.218c-.063.105-.172.126-.326.059a1.07,1.07,0,0,1-.26-.165,1.533,1.533,0,0,1-.281-.288,19.421,19.421,0,0,1-2.412-4.564c-.243-.6-.478-1.205-.7-1.819S114.2,80,114,79.387Z" fill="#231f20"/>
    <path id="Path_19817" data-name="Path 19817" d="M87.023,86.308c.088-1.134.134-2.275.151-3.423V81.628c.021-1.475,0-2.95-.049-4.432-.021-.67-.035-1.33-.067-1.973a12.491,12.491,0,0,0-.351-2.409c-.067-.238.074-.277.3-.123a1.761,1.761,0,0,1,.625,1.036,14.367,14.367,0,0,1,.27,2.616c0,.432.032.825.056,1.268s.035.864.039,1.295c0,1.054.109,2.107.133,3.161.025,1.165.025,2.328,0,3.511-.021.72-.067,1.439-.109,2.152-.063,1.082-.147,2.16-.137,3.227a18.72,18.72,0,0,0,.232,2.433c.028.176.06.352.088.527.081.66.039.882-.225,1.054a1.405,1.405,0,0,1-.175.122c-.208.1-.425-.151-.573-.646a16.477,16.477,0,0,1-.4-4.67c.039-1.172.13-2.331.183-3.483Z" fill="#231f20"/>
    <path id="Path_19818" data-name="Path 19818" d="M111.851,88.32a42.567,42.567,0,0,0-5.874,1.728c-.7.253-1.4.551-2.107.828-2.458.969-4.894,2.044-7.282,3.206-1.054.52-2.107,1.085-3.125,1.654-1.313.723-2.6,1.531-3.9,2.226-.386.221-.449.077-.228-.312a4.661,4.661,0,0,1,.541-.7,5.027,5.027,0,0,1,.937-.744,62.792,62.792,0,0,1,8.273-4.3c1.71-.741,3.462-1.576,5.239-2.282a52.705,52.705,0,0,1,5.969-2.009,25.709,25.709,0,0,1,3.841-.73,9.6,9.6,0,0,1,3.016.1,5.216,5.216,0,0,1,1.454.552,2.458,2.458,0,0,1,1.131,1.19,1.982,1.982,0,0,1,.017,1.327,3.733,3.733,0,0,1-.579,1.092,7.884,7.884,0,0,1-1.689,1.629,7.348,7.348,0,0,1-.857.562,3.8,3.8,0,0,1-1.292.5,1.151,1.151,0,0,1-.4,0,.775.775,0,0,1-.281-.141.96.96,0,0,1-.2-.175c-.1-.207.288-.407,1.022-.787a10.259,10.259,0,0,0,1.569-1.032,6.88,6.88,0,0,0,1.292-1.31,2.609,2.609,0,0,0,.351-.7.843.843,0,0,0,0-.548,1.107,1.107,0,0,0-.379-.467,3.4,3.4,0,0,0-.737-.414,6.827,6.827,0,0,0-2.753-.351,18.667,18.667,0,0,0-2.985.428Z" fill="#231f20"/>
    <path id="Path_19819" data-name="Path 19819" d="M114.552,87.681c-.179,5.934,11.755,42.336,14.765,53.3-3.6,4.4-8.779,5.741-13.768,5.471-.787-1.479-8.167-18.221-8.61-26.314.7,4.519,1.97,26.11,1.97,27.939-1.938,2.276-13.041,4.547-16.714,1.967-1.854-7.1-2.482-44.064-.818-53.158C91.377,96.884,106.237,87.9,114.552,87.681Z" fill="#231f20"/>
    <path id="Path_19820" data-name="Path 19820" d="M100.022,150.358a27.805,27.805,0,0,0,4.077-.752,20.1,20.1,0,0,0,1.962-.618,9.49,9.49,0,0,0,1.788-.853,3.345,3.345,0,0,0,.351-.267.238.238,0,0,0,.045-.038.026.026,0,0,0,0-.029v-.351l-.021-.526-.1-2.107-.224-4.238c-.323-5.65-.664-11.307-1.148-16.935-.1-1.141-.215-2.286-.373-3.4l1.085-.113.109,1.082c.018.179.032.351.056.541l.095.54.183,1.085.239,1.078c.151.7.351,1.433.53,2.146s.4,1.425.6,2.135c1.025,3.469,2.272,6.885,3.589,10.267.663,1.689,1.348,3.37,2.068,5.035l.551,1.243.26.572.067.134a.081.081,0,0,0,0,.031h.119l.565.021h.668c.445,0,.891-.031,1.334-.063a19,19,0,0,0,2.63-.407,16.8,16.8,0,0,0,2.528-.85,14.741,14.741,0,0,0,2.324-1.261,13.726,13.726,0,0,0,2.047-1.678c.158-.158.32-.309.46-.477l.352-.394c.049-.031.017-.084,0-.13l-.067-.242-.183-.657-.751-2.619-1.552-5.235-5.618-18.536c-1.191-3.947-2.367-7.9-3.469-11.886-.548-1.991-1.085-3.989-1.573-6s-.948-4.024-1.236-6.089c-.176-1.292-.064-1.893.017-1.843a11.935,11.935,0,0,1,.464,1.724c.523,2.106,1.682,5.916,2.946,10.481,1.116,4.048,2.321,8.076,3.511,12.107l3.634,12.089c1.219,4.035,2.458,8.076,3.631,12.132l.874,3.051.5,1.822a.177.177,0,0,1,0,.046l-.031.032-.06.07-.123.137-.235.267-.278.312c-.179.211-.379.4-.575.59a14.965,14.965,0,0,1-5.569,3.438,17.946,17.946,0,0,1-3.838.853c-.327.028-.653.067-.98.088s-.656.038-.987.042-.656,0-.986,0l-.587-.021h-.46s-.035,0-.038-.021l-.042-.085-.085-.175-.172-.351-.066-.148-.053-.109-.2-.446-.4-.881-.769-1.791q-.759-1.8-1.482-3.62c-.959-2.426-1.879-4.877-2.711-7.374a73.1,73.1,0,0,1-2.145-7.559,29.542,29.542,0,0,1-.636-4.214l.941-.1c.351,2.521.513,5.007.7,7.51s.352,5,.513,7.5l.439,7.5.19,3.757.042.941v.962l-.032.032-.13.13a3.457,3.457,0,0,1-.253.246l-.2.165c-.141.1-.281.2-.422.284a8.21,8.21,0,0,1-.87.46,22.121,22.121,0,0,1-5.134,1.531,26.361,26.361,0,0,1-5.274.481,14.516,14.516,0,0,1-2.686-.291,7.813,7.813,0,0,1-1.32-.408,4.552,4.552,0,0,1-.636-.309l-.411-.256s-.042-.018-.045-.035V150.2l-.025-.12-.046-.228-.263-1.331c-.07-.439-.119-.874-.179-1.313-.126-.878-.207-1.756-.288-2.63-.481-5.313-.681-10.646-.822-15.969s-.172-10.639-.112-15.92c.063-4.109.137-8.175.446-12.234l.126-1.524.2-1.524.063-.453.038-.287v-.036l.032-.017.06-.039.126-.077.748-.446,1.32-.762q2.645-1.506,5.38-2.872c1.6-.808,3.195-1.549,4.863-2.265a36.959,36.959,0,0,1,6.787-2.247,12.4,12.4,0,0,1,1.9-.288c.256-.021.485-.035.7-.039a4.416,4.416,0,0,1,.594.049c.333.036.769.06.958.106.323.074-.2.214-1.366.4a42.55,42.55,0,0,0-5.266,1.5,82.575,82.575,0,0,0-9.973,4.442Q95.419,95.357,93,96.754l-.6.351-.3.176-.035.025h0l-.137,1.014L91.83,99l-.06.7-.119,1.4c-.5,7.49-.488,15.159-.4,22.824.091,5.688.26,11.4.639,17.082l.151,2.128.2,2.107c.056.7.158,1.4.249,2.107.049.351.081.7.144,1.053l.2,1.011.032.172v.021h0a1.55,1.55,0,0,0,.2.109,3.167,3.167,0,0,0,.425.19,3.736,3.736,0,0,0,.453.158,10.127,10.127,0,0,0,1.963.351,21.02,21.02,0,0,0,4.136-.084Z" fill="#231f20"/>
    <path id="Path_19821" data-name="Path 19821" d="M127.08,144.638s-7.567,4.045-9.424,7.208c-2.012,3.427,9.424-5.323,9.424-5.323s1.7,2.55,2.237,2.216S127.08,144.638,127.08,144.638Z" fill="#231f20"/>
    <path id="Path_19822" data-name="Path 19822" d="M123.713,149.585c-1.363.931-2.732,1.851-4.189,2.676-.271.151-.534.295-.822.439l-.112.052-.183.078a3.355,3.355,0,0,1-.351.13,1.174,1.174,0,0,1-.622.031.571.571,0,0,1-.21-.116.461.461,0,0,1-.137-.217.841.841,0,0,1,.028-.506,1.508,1.508,0,0,1,.119-.284,1.452,1.452,0,0,1,.141-.229l.288-.421.14-.2.137-.154.274-.306a8.068,8.068,0,0,1,.576-.579,24.778,24.778,0,0,1,2.5-2.012c.772-.541,1.552-1.085,2.335-1.6a25.207,25.207,0,0,1,3.1-1.836c.681-.309.186.762-.98,1.461a51.953,51.953,0,0,0-5.994,4.066,9.914,9.914,0,0,0-.8.73,3.836,3.836,0,0,0-.351.4,3.464,3.464,0,0,0-.316.387l-.225.33a.508.508,0,0,0-.07.168.061.061,0,0,0,.035.074.147.147,0,0,0,.088,0,.805.805,0,0,0,.172-.056l.207-.1.267-.134.534-.291q.526-.306,1.053-.632c.7-.432,1.4-.888,2.068-1.348q1.264-.856,2.5-1.756l1.025-.744,1.208-.9c.141.214.285.425.429.625l.305.415a5.543,5.543,0,0,0,.379.446,1.1,1.1,0,0,0,.351.273.149.149,0,0,0,.106,0,.1.1,0,0,0,.049-.1.766.766,0,0,0-.081-.246,3.076,3.076,0,0,0-.239-.407l-.274-.4-.438-.625c-.548-.79-.7-1.053-.65-1.348a.905.905,0,0,1,.032-.193c.07-.165.41.077.853.639.165.21.33.421.488.639l.239.33.115.168c.043.06.071.1.141.211a9.565,9.565,0,0,1,.7,1.254,1.522,1.522,0,0,1,.179.895.45.45,0,0,1-.147.277.5.5,0,0,1-.186.151.8.8,0,0,1-.183.064,1,1,0,0,1-.72-.2,5.267,5.267,0,0,1-1.011-.99l-.26-.323-.158-.211-.21-.288h-.022l-.452.351-.917.667-1.847,1.321Z" fill="#231f20"/>
    <path id="Path_19823" data-name="Path 19823" d="M101.844,151.878s-9.34,1.952-11.622,4.287c-2.395,2.458,11.155-2.809,11.155-2.809s.309,2.89.913,2.7S101.844,151.878,101.844,151.878Z" fill="#231f20"/>
    <path id="Path_19824" data-name="Path 19824" d="M96.542,155.607c-1.58.509-3.16,1.015-4.8,1.383l-.456.092-.264.049c-.094,0-.249.035-.372.046a1.719,1.719,0,0,1-.677-.05.574.574,0,0,1-.394-.351.645.645,0,0,1,.071-.467.869.869,0,0,1,.158-.231l.224-.2.439-.4a4.168,4.168,0,0,1,.351-.239l.351-.221.352-.186a7.787,7.787,0,0,1,.733-.351,28.176,28.176,0,0,1,3.017-1.113c.9-.288,1.815-.562,2.714-.825a27.171,27.171,0,0,1,3.511-.864c.745-.109-.038.786-1.362,1.12-2.356.6-4.712,1.232-7,2.068a10.69,10.69,0,0,0-1.952.969l-.228.148-.056.038-.028.021-.05.043c-.059.056-.151.122-.186.165s-.1.108-.045.158a.329.329,0,0,0,.175.024,2.1,2.1,0,0,0,.306-.038c.2-.036.4-.078.6-.123.4-.088.8-.19,1.193-.3q1.191-.33,2.378-.7c.972-.313,1.938-.636,2.9-.976l1.566-.558,1.819-.675c.035.316.074.65.12.934.031.215.07.425.116.636a5.921,5.921,0,0,0,.235.825,1.263,1.263,0,0,0,.172.327.238.238,0,0,0,.042.042h0a.189.189,0,0,0-.025.052.028.028,0,0,0,0,.018.058.058,0,0,0,0-.032c.036.116,0,0-.059-.017a1.738,1.738,0,0,0,.031-.288,3.262,3.262,0,0,0-.028-.407c-.028-.278-.077-.562-.133-.847s-.106-.495-.162-.748c-.207-.937-.242-1.246-.1-1.495a.772.772,0,0,1,.1-.169c.123-.13.351.225.555.917.144.491.27.99.372,1.509.049.26.091.527.119.8a3.583,3.583,0,0,1,.021.439,1.5,1.5,0,0,1-.088.555.7.7,0,0,1-.456.422.674.674,0,0,1-.351,0,.743.743,0,0,1-.253-.134.947.947,0,0,1-.242-.274,1.863,1.863,0,0,1-.127-.232,5,5,0,0,1-.277-.842c-.067-.271-.119-.541-.165-.811l-.028-.169h0l-.857.32-1.176.428q-1.183.422-2.37.822Z" fill="#231f20"/>
    <path id="Path_19825" data-name="Path 19825" d="M64.3,28.7a1.048,1.048,0,0,1,.228.162A3.63,3.63,0,0,1,65.2,30c.1.256.183.509.264.762s.151.41.21.621c.208.741.352,1.489.552,2.216.091.323.2.639.309.948.073.2.161.386.239.576a3.354,3.354,0,0,0,.238.53c.056.081,0,.168-.154.172a.891.891,0,0,1-.615-.351,3.28,3.28,0,0,1-.351-.611,6.471,6.471,0,0,1-.256-.629,12.858,12.858,0,0,1-.33-1.295,15.893,15.893,0,0,0-.453-1.545c-.088-.281-.176-.559-.274-.829l-.116-.32a1.652,1.652,0,0,0-.081-.189.352.352,0,0,0-.035-.07.632.632,0,0,0-.151-.2c-.088-.056-.137.049-.151.112a1.939,1.939,0,0,0-.056.422v.758a12.531,12.531,0,0,0,.183,1.247,2.37,2.37,0,0,0,.049.273c.038.352,0,.457-.179.555a1,1,0,0,1-.1.06c-.087.046-.27-.077-.351-.327a10.515,10.515,0,0,1-.351-2.373v-.8a1.962,1.962,0,0,1,.176-.7.738.738,0,0,1,.351-.351.617.617,0,0,1,.284-.049.683.683,0,0,1,.239.063Z" fill="#231f20"/>
    <path id="Path_19826" data-name="Path 19826" d="M61.6,28.681a.793.793,0,0,1,.674.225,1.89,1.89,0,0,1,.3.3,1.333,1.333,0,0,1,.1.133l.088.123a8.735,8.735,0,0,1,.5.854c.109.207.228.4.327.614.168.372.323.748.47,1.124s.264.765.39,1.151.232.678.351,1.015a4.291,4.291,0,0,1,.292,1.356c0,.151-.1.136-.225.035a1.263,1.263,0,0,1-.379-.509c-.313-.836-.646-1.679-.959-2.539a12.1,12.1,0,0,0-.7-1.521c-.141-.273-.285-.54-.439-.8a3.675,3.675,0,0,0-.235-.351l-.088-.123c-.021-.028-.046-.053-.07-.081s-.162-.147-.236-.07a.55.55,0,0,0-.091.267v.34a3.267,3.267,0,0,0,.032.408,4.906,4.906,0,0,0,.2.818c.144.418.351.8.537,1.211.039.1.081.183.116.278.123.351.1.512-.039.621a.726.726,0,0,1-.1.07c-.108.049-.235-.063-.351-.288a10.245,10.245,0,0,1-1-2.314,4.065,4.065,0,0,1-.133-1.053l.038-.407c.032-.137.085-.274.123-.408a.7.7,0,0,1,.527-.467Z" fill="#231f20"/>
    <path id="Path_19827" data-name="Path 19827" d="M59.568,31.272a1.279,1.279,0,0,1,0-.621.672.672,0,0,1,.274-.376.6.6,0,0,1,.492-.039,1.624,1.624,0,0,1,.512.32c.064.056.127.1.19.161l.183.2.186.2c.042.056.073.1.109.151.129.183.231.351.33.509s.193.351.281.5c.179.352.351.678.516,1.015s.312.594.474.885a6.13,6.13,0,0,1,.523,1.166c.039.126-.06.161-.218.116a1.066,1.066,0,0,1-.516-.351,8.938,8.938,0,0,1-.671-1.1c-.207-.376-.407-.755-.6-1.142a5.4,5.4,0,0,0-.4-.663c-.071-.1-.151-.218-.222-.313l-.179-.239a1.418,1.418,0,0,0-.224-.259c-.046-.039-.127-.095-.172-.046a.266.266,0,0,0-.028.161,1.445,1.445,0,0,0,.035.236l.031.126.074.242a10.245,10.245,0,0,0,.618,1.489c.19.372.421.72.635,1.082.05.08.1.158.144.238.165.309.141.443,0,.583a1.1,1.1,0,0,1-.094.1c-.116.084-.285,0-.443-.19a12.731,12.731,0,0,1-1.158-2.026c-.127-.274-.243-.555-.352-.846l-.158-.45a6.95,6.95,0,0,1-.221-.818Z" fill="#231f20"/>
    <path id="Path_19828" data-name="Path 19828" d="M60.509,37.343A21.784,21.784,0,0,0,62.065,39.1c.2.207.421.4.618.618.7.755,1.4,1.52,2.075,2.324.295.351.6.7.881,1.054a5.6,5.6,0,0,1,.889,1.555c.059.183-.056.2-.232.113a1.791,1.791,0,0,1-.6-.524c-.681-.909-1.443-1.783-2.23-2.679-.467-.537-1.032-1.022-1.559-1.534-.572-.572-1.144-1.152-1.682-1.777A8.569,8.569,0,0,1,59.308,37a2.31,2.31,0,0,1-.351-1.212,1.7,1.7,0,0,1,.018-.175.849.849,0,0,1,.046-.193.648.648,0,0,1,.8-.458.676.676,0,0,1,.155.064,4.645,4.645,0,0,1,.836.443c.253.161.5.33.727.512.1.078.207.151.305.239.351.323.407.492.351.7a.759.759,0,0,1-.049.141c-.077.137-.3.088-.59-.1-.414-.291-.8-.625-1.211-.9a2.4,2.4,0,0,0-.573-.3h0c0-.043,0,.1.018.217a1.759,1.759,0,0,0,.155.415,4.926,4.926,0,0,0,.593.913Z" fill="#231f20"/>
    <path id="Path_19829" data-name="Path 19829" d="M68.354,38.14a11.593,11.593,0,0,1,.656-2.753c.1-.319.19-.642.295-.955s.19-.544.274-.814.158-.6.162-.632a.334.334,0,0,0,0-.172.123.123,0,0,0-.029-.035.062.062,0,0,0-.038,0,.339.339,0,0,0-.084.017.654.654,0,0,0-.165.077,2.286,2.286,0,0,0-.306.239,3.247,3.247,0,0,0-.755,1.233,5.485,5.485,0,0,0-.225.913,4.422,4.422,0,0,0-.073.934c0,.193-.1.2-.246.042a1.408,1.408,0,0,1-.313-.927,3.733,3.733,0,0,1,.193-1.089,4.281,4.281,0,0,1,.46-1.018,3.213,3.213,0,0,1,.78-.871c.06-.035.249-.172.369-.228s.277-.1.414-.144c.07-.035.123,0,.183,0h.172a.393.393,0,0,1,.084,0l.07.067a.55.55,0,0,1,.119.14,1.405,1.405,0,0,1,.106.952l-.018.108-.017.085-.039.161-.081.32c-.116.414-.238.821-.379,1.215a19.456,19.456,0,0,0-.8,2.588,4.388,4.388,0,0,0-.092.8,8.11,8.11,0,0,0,.025.825,11.444,11.444,0,0,0,.5,2.458c.19.625.457,1.212.7,1.816.052.133.109.263.158.4.172.509.186.7.1.847-.018.031-.025.073-.039.094s-.242-.084-.435-.432a14.019,14.019,0,0,1-1.345-3.427,10.426,10.426,0,0,1-.351-2.861Z" fill="#231f20"/>
    <path id="Path_19830" data-name="Path 19830" d="M50.19,35.194l.042-4.143c0-.5-.018-1.008,0-1.51l.105-5.33c.021-.787.025-1.58.025-2.363a16.251,16.251,0,0,1,.161-3.03c.056-.313.2-.25.351.028a2.861,2.861,0,0,1,.2.555,2.441,2.441,0,0,1,.1.779c-.028,2.033-.025,4.084-.141,6.148-.059,1.236-.017,2.521-.024,3.785l-.039,4.172v2.567c0,1.295,0,2.6.018,3.883.021,1,.084,1.981.126,2.971,0,.217.025.432.028.653.025.814-.063,1.081-.274,1.25a.922.922,0,0,1-.14.109c-.148.073-.3-.26-.351-.85-.137-1.756-.179-3.624-.2-5.492V35.2Z" fill="#231f20"/>
    <path id="Path_19831" data-name="Path 19831" d="M71.559,20.1V18.754h-.035l-1.555-.045L68.2,18.635c-.7-.028-1.38-.035-2.072-.07l-7.286-.4c-1.078-.06-2.163-.1-3.23-.133-1.377-.025-2.757-.092-4.123-.211-.425-.039-.372-.162,0-.3a6.064,6.064,0,0,1,1.837-.294c.7,0,1.4,0,2.107.024l2.106.077c1.4.06,2.809.127,4.214.239,1.689.127,3.451.155,5.183.225l2.408.1,1.2.039h1.352L72.17,18h.071l-.057.056h0v.024l.067.106a.451.451,0,0,1,.067.3v.323c0,1.172,0,2.349-.025,3.511,0,1.777-.042,3.56-.031,5.323,0,1.369.063,2.714.1,4.066,0,.3.018.59.029.892,0,1.113-.078,1.468-.278,1.706a1.031,1.031,0,0,1-.14.162c-.155.1-.292-.351-.351-1.166-.165-2.423-.169-4.975-.169-7.538q0-2.856.035-5.724Z" fill="#231f20"/>
    <path id="Path_19832" data-name="Path 19832" d="M58.02,46.8H56.236c-.214,0-.432.028-.649.028h-2.3c-.351,0-.678.028-1.015.06a5.822,5.822,0,0,1-1.306.046c-.27-.039.053-.7.541-.745a22.174,22.174,0,0,1,2.654-.052c.534.028,1.089-.039,1.633-.057l1.8-.035h1.11c.558,0,1.12,0,1.678-.028.432-.021.857-.074,1.293-.091h.288c.351,0,.488.091.533.288a.9.9,0,0,1,.028.137c0,.154-.147.267-.386.3-.351.052-.748.1-1.138.13s-.79.031-1.19.042l-1.791.021Z" fill="#231f20"/>
    <path id="Path_19833" data-name="Path 19833" d="M59.832,22.982c-.524-.032-1.054-.063-1.57-.084H57.69c-.671-.032-1.342-.063-2.016-.074a8.184,8.184,0,0,0-.885.046c-.368.038-.765.109-1.07.126a.281.281,0,0,1-.127-.323.636.636,0,0,1,.481-.435,9.545,9.545,0,0,1,2.388-.053c.474.049.965,0,1.446.028s1.054.039,1.591.067l.976.049c.5.021.99.06,1.482.067.379,0,.755-.021,1.134-.028h.249c.313,0,.411.066.464.245a.944.944,0,0,1,.032.127c.017.137-.116.239-.352.267a14.049,14.049,0,0,1-2.082.059l-1.58-.059Z" fill="#231f20"/>
    <path id="Path_19834" data-name="Path 19834" d="M57.009,27.343l-.864-.049h-.316l-1.117-.084a4.468,4.468,0,0,0-.491,0,1.84,1.84,0,0,1-.632-.035c-.13-.039.045-.513.281-.545a4.167,4.167,0,0,1,1.271,0,4.911,4.911,0,0,0,.786,0h2.216c.207,0,.411-.063.621-.077H58.9c.172,0,.225.049.26.207a1.11,1.11,0,0,0,.021.109.252.252,0,0,1-.175.27,3.185,3.185,0,0,1-.555.165,4.439,4.439,0,0,1-.576.043h-.867Z" fill="#231f20"/>
    <path id="Path_19835" data-name="Path 19835" d="M56.1,30.749l-.544-.067h-.2c-.235-.031-.467-.07-.7-.094a1.2,1.2,0,0,0-.3,0,.754.754,0,0,1-.394-.029c-.08-.035.028-.512.179-.551a1.539,1.539,0,0,1,.8,0,2.13,2.13,0,0,0,.492,0l.541.035.333.021a3.822,3.822,0,0,0,.5,0,3.5,3.5,0,0,0,.383-.073.589.589,0,0,1,.084,0c.106,0,.141.045.172.2l.018.109a.285.285,0,0,1-.1.274,1.353,1.353,0,0,1-.351.169,1.668,1.668,0,0,1-.352.035,4.11,4.11,0,0,1-.547-.025Z" fill="#231f20"/>
    <path id="Path_19836" data-name="Path 19836" d="M84.52,45.974c-.071-.632-.109-1.25-.18-1.854-.024-.221-.077-.435-.108-.65-.06-.379-.13-.754-.222-1.123a2.9,2.9,0,0,0-.47-.973,2.629,2.629,0,0,0-.7-.681,1.122,1.122,0,0,0-.506-.183.617.617,0,0,0-.453.134c-.1.056-.2-.018-.211-.2a.5.5,0,0,1,.113-.351.657.657,0,0,1,.456-.256,1.5,1.5,0,0,1,.906.221,2.96,2.96,0,0,1,.639.485,3.5,3.5,0,0,1,.857,1.288,11.4,11.4,0,0,1,.442,1.735c.1.635.144,1.26.208,1.878.042.379.084.755.151,1.127a8.686,8.686,0,0,0,.41,1.651,4.174,4.174,0,0,0,.643,1.085c.06.066.123.126.179.193.218.235.253.351.179.544a.447.447,0,0,1-.046.144c-.063.144-.277.158-.537-.021a4.411,4.411,0,0,1-1.387-2.286A12.488,12.488,0,0,1,84.5,45.97Z" fill="#231f20"/>
    <path id="Path_19837" data-name="Path 19837" d="M78.779,43.137a6.2,6.2,0,0,1-.352-.881,1.2,1.2,0,0,1,0-.7.782.782,0,0,1,.316-.4.879.879,0,0,1,.38-.133,1.359,1.359,0,0,1,.221,0,1.259,1.259,0,0,1,.667.242,6.733,6.733,0,0,1,.853.765c.257.26.506.52.762.766a6.377,6.377,0,0,0,.724.6c.323.221.663.4.948.565.084.049.08.2-.064.351a.675.675,0,0,1-.7.119,7.52,7.52,0,0,1-2.008-1.643,4.349,4.349,0,0,0-.552-.5,3.564,3.564,0,0,0-.547-.352.235.235,0,0,0-.085-.031.533.533,0,0,0-.08,0h-.032l-.018-.032a.069.069,0,0,0-.028-.028h0a.074.074,0,0,0,.039.018h0v.028a1.374,1.374,0,0,0,.144.558,5.813,5.813,0,0,0,.467.878,5.447,5.447,0,0,0,.973,1.152,4.766,4.766,0,0,0,.979.611,2.142,2.142,0,0,1,.225.112c.274.151.334.246.288.481a.32.32,0,0,1-.028.162c-.053.172-.242.242-.495.168A4.561,4.561,0,0,1,79.8,44.682a6.9,6.9,0,0,1-1.053-1.51Z" fill="#231f20"/>
    <path id="Path_19838" data-name="Path 19838" d="M82.093,48.162a.075.075,0,0,0,.078.017.088.088,0,0,0,.028-.088.546.546,0,0,0-.028-.077,1.039,1.039,0,0,1-.064-.14,3.15,3.15,0,0,0-.632-.973,4.181,4.181,0,0,0-.411-.351c-.186-.144-.382-.271-.558-.432-.056-.053-.017-.1.074-.137a.592.592,0,0,1,.372,0,3.228,3.228,0,0,1,.681.351,2.841,2.841,0,0,1,.562.544,4.062,4.062,0,0,1,.562.819,1.037,1.037,0,0,1,.063.154c.018.056.042.109.056.172a1.158,1.158,0,0,1,.039.379.561.561,0,0,1-.13.32.528.528,0,0,1-.3.175,1.51,1.51,0,0,1-.805-.108c-.309-.12-.586-.278-.867-.418-.218-.113-.446-.193-.671-.313A1.21,1.21,0,0,1,80,47.979a.281.281,0,0,1-.147-.19.3.3,0,0,1,.059-.21.769.769,0,0,1,.07-.1.412.412,0,0,1,.352-.109,10.771,10.771,0,0,1,1.106.489c.137.066.274.126.407.179l.193.073h.042Z" fill="#231f20"/>
    <path id="Path_19839" data-name="Path 19839" d="M81.6,49.215a.277.277,0,0,0,.147-.028.378.378,0,0,0,.056-.049h0l.078.035h.07a.134.134,0,0,0-.049,0,.366.366,0,0,0-.085.066c-.028,0,0,0-.035-.031a1.587,1.587,0,0,0-.351-.263c-.14-.088-.295-.176-.449-.26l-.415-.236a1.054,1.054,0,0,1-.449-.438c-.032-.06,0-.088.1-.1a1.139,1.139,0,0,1,.319-.021A3.047,3.047,0,0,1,81.6,48.3a2.635,2.635,0,0,0,.351.169,1.2,1.2,0,0,1,.411.266.5.5,0,0,1,.1.169.49.49,0,0,1,.049.232.383.383,0,0,1-.046.21.4.4,0,0,1-.087.155.9.9,0,0,1-.478.326,1.352,1.352,0,0,1-.607,0c-.274-.056-.513-.151-.755-.221-.19-.052-.386-.07-.576-.105a.208.208,0,0,1-.126-.028c-.148-.049-.18-.109-.158-.278a.267.267,0,0,1,.017-.112.256.256,0,0,1,.249-.207,3.407,3.407,0,0,1,1.029.193,1.9,1.9,0,0,0,.622.1Z" fill="#231f20"/>
    <path id="Path_19840" data-name="Path 19840" d="M79.126,38.39V37.129c0-.151-.024-.305-.028-.456,0-.541-.017-1.085-.046-1.623q-.021-.351-.063-.7a5.309,5.309,0,0,1-.077-.916c0-.095.1-.095.2-.028a.618.618,0,0,1,.274.372c.063.309.122.618.168.93a7.654,7.654,0,0,1,.053.945c0,.383.07.769.1,1.155s.056.85.074,1.275l.031.786c.018.4.018.8.046,1.19.021.306.081.6.119.906a1.04,1.04,0,0,1,.022.2.939.939,0,0,1-.022.158.337.337,0,0,1-.063.108.388.388,0,0,1-.165.12c-.031,0-.056.028-.084.035-.081.024-.183-.077-.295-.256a2.99,2.99,0,0,1-.165-.815c-.028-.277-.042-.558-.056-.843-.018-.418-.028-.842-.035-1.264Z" fill="#231f20"/>
    <path id="Path_19841" data-name="Path 19841" d="M81.84,37l.05,1.4c0,.169.035.351.042.509.024.6,0,1.2.031,1.805,0,.27.042.534.046.8a4.812,4.812,0,0,1-.021,1.032c-.018.109-.1.091-.207,0a.847.847,0,0,1-.264-.432,6.4,6.4,0,0,1-.165-1.022q-.031-.526-.021-1.053c0-.421-.059-.85-.08-1.278l-.071-1.405-.042-.871c-.028-.435-.042-.877-.081-1.313-.035-.351-.094-.667-.126-1.007,0-.074-.021-.144-.025-.225a.81.81,0,0,1,.067-.306.272.272,0,0,1,.169-.137.631.631,0,0,1,.087,0c.05,0,.085.036.127.085a.454.454,0,0,1,.116.2,8.117,8.117,0,0,1,.295,1.819c.031.467.059.937.091,1.4Z" fill="#231f20"/>
    <path id="Path_19842" data-name="Path 19842" d="M76.479,33.614l-.323.063a.662.662,0,0,1-.309-.038h0c0-.032-.035.07.031-.074h-.017l-.032-.017-.063-.032-.13-.088a3.03,3.03,0,0,1-.249-.569,5.06,5.06,0,0,1-.207-.832,2.708,2.708,0,0,1,.266-1.812l.071-.119c.031-.025.042-.07.091-.077a.808.808,0,0,1,.1-.067,1.838,1.838,0,0,1,.221-.1c.12-.031.208-.056.306-.077.193-.046.383-.081.572-.112a21.137,21.137,0,0,1,2.16-.211c.351,0,.723-.025,1.092,0a4.256,4.256,0,0,1,1.116.165,11.994,11.994,0,0,1,1.8.723,6.042,6.042,0,0,1,1.053.66,2.28,2.28,0,0,1,.78,1.054c.07.291-.091.249-.291.116s-.5-.3-.829-.541a9,9,0,0,0-2.019-1.1,5.493,5.493,0,0,0-1.053-.351,8.274,8.274,0,0,0-1.166-.077,15.417,15.417,0,0,0-2.95.351c-.1.021-.21.042-.305.07l-.077.021a.056.056,0,0,0-.046.032l-.039.063c-.021.039-.035.084-.052.123a2.032,2.032,0,0,0-.078.263,2.509,2.509,0,0,0-.028.587,3.253,3.253,0,0,0,.1.6,2.65,2.65,0,0,0,.084.3c.028.087.077.228.088.249a.7.7,0,0,0,.049.116.046.046,0,0,0,.017.028.045.045,0,0,0,.028,0H76.3l1.38-.26c1.025-.186,2.061-.351,3.1-.446a15.375,15.375,0,0,1,2.426-.144,3.526,3.526,0,0,1,.551.056,1.468,1.468,0,0,1,.7.292.454.454,0,0,1,.186.351.5.5,0,0,1,0,.154c-.059.13-.287.053-.7,0a8.212,8.212,0,0,0-2.012-.066c-.7.045-1.436.123-2.163.224-.54.078-1.085.162-1.629.257l-.815.147-.839.169Z" fill="#231f20"/>
    <path id="Path_19843" data-name="Path 19843" d="M93.814,28.649a4.578,4.578,0,0,1-.632.376,1.934,1.934,0,0,1-.836.221.938.938,0,0,1-.737-.326,1.306,1.306,0,0,1-.239-.541,1.853,1.853,0,0,1-.035-.52,3.787,3.787,0,0,1,.214-.9c.084-.246.169-.5.26-.734a2.3,2.3,0,0,1,.488-.881c.081-.081.19.028.267.179a.615.615,0,0,1,.07.5,11.338,11.338,0,0,0-.6,1.7.992.992,0,0,0-.024.243v.1l.031.116a.51.51,0,0,0,.172.274c.032.042.176.046.351,0a2.466,2.466,0,0,0,.52-.263,6.4,6.4,0,0,0,.629-.471,8.911,8.911,0,0,0,.87-.846,7.534,7.534,0,0,0,.552-.765,1.282,1.282,0,0,1,.119-.172c.165-.2.274-.229.471-.123a.78.78,0,0,1,.13.077.351.351,0,0,1,.084.432,5.291,5.291,0,0,1-1.054,1.443,9.972,9.972,0,0,1-1.053.916Z" fill="#231f20"/>
    <path id="Path_19844" data-name="Path 19844" d="M96.124,22.273a4.793,4.793,0,0,1,1.2.607,1.571,1.571,0,0,1,.492,1.275.484.484,0,0,0,.965,0,2.613,2.613,0,0,0-.649-1.84,4.433,4.433,0,0,0-1.51-.878c-.565-.239-1.053.593-.485.836Z" fill="#231f20"/>
    <path id="Path_19845" data-name="Path 19845" d="M87.624,34.545a3.278,3.278,0,0,0,2.956.193c.586-.2.334-1.134-.256-.931a2.408,2.408,0,0,1-2.216-.1c-.527-.33-1.011.506-.484.836Z" fill="#231f20"/>
    <path id="Path_19846" data-name="Path 19846" d="M107.03,82.2a2.355,2.355,0,0,1-1.453.432,1.313,1.313,0,0,1-.643-.133.731.731,0,0,1-.372-.548,1.14,1.14,0,0,1,0-.33,1.431,1.431,0,0,1,.077-.246,2.7,2.7,0,0,1,.506-.741,7.109,7.109,0,0,1,.537-.533,1.683,1.683,0,0,1,.871-.471c.112,0,.112.113.074.25a.754.754,0,0,1-.215.382,4.642,4.642,0,0,0-1.1,1.2c-.19.312-.133.407.018.449a1.754,1.754,0,0,0,1.014-.154,1.1,1.1,0,0,0,.467-.425,1.25,1.25,0,0,0,.148-.962.644.644,0,0,0-.172-.292.211.211,0,0,0-.19-.042.181.181,0,0,0-.067.042c-.049.042-.154.046-.326-.049a1.235,1.235,0,0,1-.116-.056.2.2,0,0,1-.105-.169.45.45,0,0,1,0-.137.726.726,0,0,1,.1-.165.851.851,0,0,1,.66-.267.958.958,0,0,1,.664.376,1.7,1.7,0,0,1,.351,1.127,1.991,1.991,0,0,1-.731,1.471Z" fill="#231f20"/>
    <path id="Path_19847" data-name="Path 19847" d="M102.325,69.292a1.605,1.605,0,0,1-.256.759,1.2,1.2,0,0,1-.7.484,1.991,1.991,0,0,1-.274.057,1.455,1.455,0,0,1-.3,0,1.1,1.1,0,0,1-.822-.611,2,2,0,0,1-.172-.825,5.152,5.152,0,0,1,.028-.7,1.307,1.307,0,0,1,.327-.846c.077-.077.172.042.253.179s.175.274.151.393a3.453,3.453,0,0,0,0,1.321.419.419,0,0,0,.154.249.447.447,0,0,0,.253.056.48.48,0,0,0,.516-.351,1.313,1.313,0,0,0,0-.565,1.978,1.978,0,0,0-.351-.868.663.663,0,0,0-.239-.21c-.042-.021-.081-.032-.1-.021h0a.152.152,0,0,0,0-.06v-.025h0v.021h0l.018.029a.163.163,0,0,0,.042.045h0s0,.018-.035.042-.053.018-.077.032a.61.61,0,0,1-.225.021h-.13a.22.22,0,0,1-.172-.095.384.384,0,0,1-.081-.277.722.722,0,0,1,.123-.3.7.7,0,0,1,.407-.27.766.766,0,0,1,.475.042,1.2,1.2,0,0,1,.291.169,2.075,2.075,0,0,1,.59.779,2.875,2.875,0,0,1,.27,1.345Z" fill="#231f20"/>
    <path id="Path_19848" data-name="Path 19848" d="M95.194,78.225a1.409,1.409,0,0,1-.987.5,1.24,1.24,0,0,1-.228,0,1.078,1.078,0,0,1-.186-.056.883.883,0,0,1-.523-.548,1.031,1.031,0,0,1,.063-.657,2.984,2.984,0,0,1,.225-.453,1,1,0,0,1,.449-.453c.067-.028.126.092.165.225s.074.277.025.351a2.052,2.052,0,0,0-.373.738c-.028.115.071.151.243.193a.463.463,0,0,0,.435-.158,1.254,1.254,0,0,0,.246-.32,1.388,1.388,0,0,0,.119-.284.411.411,0,0,0,.018-.214.169.169,0,0,0-.242-.1c-.018,0-.035.025-.05.032s-.077-.025-.165-.228l-.066-.137a.278.278,0,0,1,.092-.382c.012-.007.025-.013.038-.019a.822.822,0,0,1,.87.106,1.026,1.026,0,0,1,.295.916.687.687,0,0,1-.035.176c-.014.045-.021.087-.035.13a1.77,1.77,0,0,1-.1.242,2.226,2.226,0,0,1-.277.435Z" fill="#231f20"/>
    <path id="Path_19849" data-name="Path 19849" d="M77.911,64.626a1.54,1.54,0,0,1-.256,1.208,1.184,1.184,0,0,1-.144.186.652.652,0,0,1-.193.165,1.006,1.006,0,0,1-.857.084,1.431,1.431,0,0,1-.586-.418,2.556,2.556,0,0,1-.351-.481.893.893,0,0,1-.116-.769c.031-.084.179-.031.326.043s.3.133.323.2a1.756,1.756,0,0,0,.517.7.235.235,0,0,0,.2.064c.031,0,.049-.021.08-.025s.05-.028.074-.06a.7.7,0,0,0,.165-.238.379.379,0,0,0,.049-.144.7.7,0,0,0,0-.158.909.909,0,0,0-.108-.408.731.731,0,0,0-.471-.4.376.376,0,0,0-.351.141.342.342,0,0,1-.063.063.35.35,0,0,1-.351,0l-.1-.035c-.1-.039-.14-.151-.119-.351a.4.4,0,0,1,.074-.2.951.951,0,0,1,.129-.186c.064-.049.13-.1.2-.144a1.735,1.735,0,0,1,.242-.095,1.155,1.155,0,0,1,.523,0,1.332,1.332,0,0,1,.446.2,1.724,1.724,0,0,1,.7,1.053Z" fill="#231f20"/>
    <path id="Path_19850" data-name="Path 19850" d="M90.51,61.61a1.556,1.556,0,0,1-.211-1.219,1.145,1.145,0,0,1,.063-.224.584.584,0,0,1,.12-.225.993.993,0,0,1,.762-.4,1.4,1.4,0,0,1,.7.169,2.537,2.537,0,0,1,.506.319.9.9,0,0,1,.393.667c0,.092-.155.095-.32.085s-.326,0-.372-.067a1.749,1.749,0,0,0-.744-.46.242.242,0,0,0-.207,0c-.032,0-.039.042-.064.053s-.038.045-.049.084a.772.772,0,0,0-.067.284.478.478,0,0,0,0,.151.613.613,0,0,0,.046.151.878.878,0,0,0,.253.351.756.756,0,0,0,.59.2.379.379,0,0,0,.27-.263.325.325,0,0,1,.035-.081.353.353,0,0,1,.32-.134h.1c.1,0,.189.088.242.274a.443.443,0,0,1,0,.211.874.874,0,0,1-.049.221,1,1,0,0,1-.32.387,1.221,1.221,0,0,1-.484.207,1.046,1.046,0,0,1-.25,0,.912.912,0,0,1-.238-.028,1.723,1.723,0,0,1-1.054-.7Z" fill="#231f20"/>
    <path id="Path_19851" data-name="Path 19851" d="M71.545,52.442a1.141,1.141,0,0,1-.316,1.011,1.267,1.267,0,0,1-.3.221,1.006,1.006,0,0,1-.629.053,1.2,1.2,0,0,1-.5-.256,1.46,1.46,0,0,1-.327-.352.589.589,0,0,1-.038-.653c.045-.063.168.021.295.106a1.649,1.649,0,0,0,.273.151.891.891,0,0,0,.316.351.252.252,0,0,0,.309-.046.329.329,0,0,0,.176-.291.55.55,0,0,0-.063-.267c-.053-.1-.144-.211-.271-.2s-.14.113-.154.2q0,.03,0,.06c-.028.091-.1.084-.323,0l-.158-.057c-.176-.066-.285-.186-.263-.326A1.1,1.1,0,0,1,69.611,52c.028-.053.063-.1.1-.158a.942.942,0,0,1,1.134-.348,1.488,1.488,0,0,1,.281.176,1.15,1.15,0,0,1,.225.242,1.36,1.36,0,0,1,.224.523Z" fill="#231f20"/>
  </g>
</svg>
