<svg xmlns="http://www.w3.org/2000/svg" width="126.203" height="166.446" viewBox="0 0 126.203 166.446">
  <g id="Business_analyst" data-name="Business analyst" transform="translate(-19.532 3.306)">
    <path id="Path_20080" data-name="Path 20080" d="M82.365,47.382a10.91,10.91,0,0,0,2.513-2.4c.193-.232-.649-.132-.8.044a10.631,10.631,0,0,1-2.405,2.305c-.164.1-.08.184.06.22a.929.929,0,0,0,.613-.164Z" fill="#221f1f"/>
    <path id="Path_20081" data-name="Path 20081" d="M26.941,81a8.406,8.406,0,0,1,3.787-.693,109.941,109.941,0,0,0,12.909-.95c1.844-.233,3.688-.485,5.527-.77l5.559-.857c3.206-.4,6.441-.69,9.679-.8a92.4,92.4,0,0,1,9.7.268c1.9.157,3.8.369,5.695.606,1.808.208,3.607.457,5.395.593a8.661,8.661,0,0,1,.877.056c.71.084.93.4.365.661a1.122,1.122,0,0,1-.4.144,36.079,36.079,0,0,1-4.068,0c-2.725-.4-5.458-.613-8.188-.777l-1.639-.1-1.635-.092c-.7-.053-1.395-.085-2.092-.113s-1.4-.072-2.1-.064c-.954,0-3.683,0-7.234.317-.89.056-1.824.184-2.806.3-.485.057-.982.109-1.487.181l-1.527.236c-2.052.3-4.232.726-6.384,1.018s-4.3.569-6.3.774-3.875.324-5.49.4c-3.231.144-5.439.036-5.655.028A20.33,20.33,0,0,1,26.941,81Z" fill="#221f1f"/>
    <path id="Path_20082" data-name="Path 20082" d="M47.281,5.32A5.425,5.425,0,0,1,50.4,4.494q5.414-.112,10.821-.14,4.648-.06,9.3-.4c5.334-.4,10.673-.906,16.051-1.094q2.406-.072,4.774-.052c1.527,0,3.054.044,4.581.148a5.93,5.93,0,0,1,.765.06c.646.129.766.437.269.621a.918.918,0,0,1-.361.109,8.642,8.642,0,0,0-1.655.076,8.512,8.512,0,0,1-1.695.1,67.285,67.285,0,0,0-6.838.132c-.91.056-1.823.088-2.737.125-1.166.044-2.337.068-3.5.132-.8.04-3.074.208-6.056.445s-6.665.529-10.292.653c-1.816.076-3.607.056-5.274.064H49.325C48.751,5.472,48.186,5.4,47.281,5.32Z" fill="#221f1f"/>
    <path id="Path_20083" data-name="Path 20083" d="M76.109,86.659,91.078,152.6l-2.649-.269L76.189,93.28Z" fill="#221f1f"/>
    <path id="Path_20084" data-name="Path 20084" d="M75.78,86.735a37.207,37.207,0,0,1,2.69,8.136q3.395,14.481,6.721,29,2.8,12.5,5.611,25l.99,4.368-3.84-.4-7.739-37.33-2.641-12.748-2-9.427L75.52,90.39c0-.7-.044-1.435-.028-2.092.056-1.775.348-2.188.589-.886a5.555,5.555,0,0,1,.148.95c0,.874.056,1.7.108,2.5s.121,1.575.181,2.365c.084.316.172.633.26.954s.177.669.265,1.014c.172.685.34,1.4.5,2.164,1.254,6.156,2.633,12.3,3.948,18.436.525,2.457,1.034,4.926,1.531,7.39q.938,4.734,1.871,9.459c.4,1.948,1.487,7.214,3.952,19.19l1.563.156c-4.112-18.144-13.238-58.35-13.547-59.753C76.514,90.7,76.249,89.176,75.78,86.735Z" fill="#221f1f"/>
    <path id="Path_20085" data-name="Path 20085" d="M53.1,85.8,40.816,156.808l-2.565-.048,12.28-70.979A13.048,13.048,0,0,0,53.1,85.8Z" fill="#221f1f"/>
    <path id="Path_20086" data-name="Path 20086" d="M52.811,85.749a50.378,50.378,0,0,1-.905,9.262q-2.67,15.956-5.411,31.927-2.4,13.719-4.809,27.45l-.5,2.9-3.519-.068,7.418-42.732,2.4-13.955,2.264-13.366.329-1.964.8.1.272.032h.176c.445.036.8.028,1.107.044a1.709,1.709,0,0,1,.6.1c.184.1-.084.184-.782.332a3.635,3.635,0,0,1-1.038.129,4.8,4.8,0,0,1-.617-.053c-.028.169-.044.3-.076.489s-.052.4-.08.578c-.052.38-.1.757-.153,1.13-.092.741-.184,1.479-.272,2.22-.184,1.487-.377,3-.673,4.7-1.183,6.729-2.265,13.487-3.4,20.236q-.678,4.048-1.4,8.092l-1.863,10.316c-.4,2.288-1.527,8.789-3.944,22.692l1.7.032c3.543-20.412,10.926-63.119,11.186-64.63C51.946,90.038,52.3,88.4,52.811,85.749Z" fill="#221f1f"/>
    <path id="Path_20087" data-name="Path 20087" d="M76.109,86.988,73.58,158.011H71.151l2.6-71.063C73.865,86.952,74.614,86.948,76.109,86.988Z" fill="#221f1f"/>
    <path id="Path_20088" data-name="Path 20088" d="M75.828,86.98a49.608,49.608,0,0,1,.361,9.158q-.48,15.922-1.026,31.87-.513,13.707-1.018,27.422l-.112,3.05H70.666l1.551-42.636q.261-6.966.509-13.935l.441-13.342c0-.381.024-.77.032-1.155v-.981c0-.033.032,0,.048,0h.073l1.014.028c1.887.1,2.324.352.921.517a7.823,7.823,0,0,1-1.026.092H73.8v1.851c0,.8,0,1.58.029,2.369.024,1.575.044,3.178-.029,5-.26,6.721-.42,13.462-.633,20.195-.084,2.69-.184,5.391-.3,8.08q-.2,5.154-.425,10.308c-.088,2.289-.329,8.782-.85,22.713h1.571c.726-20.36,2.245-63.084,2.3-64.607C75.54,91.292,75.656,89.637,75.828,86.98Z" fill="#221f1f"/>
    <path id="Path_20089" data-name="Path 20089" d="M72.382,120.389l-.072,2.136-22.676-1.7.389-1.583Z" fill="#221f1f"/>
    <path id="Path_20090" data-name="Path 20090" d="M72.049,120.373a3.844,3.844,0,0,1,.493,1.054c.028.088.052.18.072.273a2.192,2.192,0,0,1,.056.332c.028.289.044.617.052.954h-.741l-.605-.028q-5.3-.28-10.589-.657c-3.034-.217-6.068-.5-9.1-.734l-2.749-.208.653-2.681,12.44.617,4.633.24,4.437.169a6.205,6.205,0,0,1,.746.04c.629.1.757.4.28.613a.9.9,0,0,1-.344.12c-1.147-.048-2.081.293-3.291.221-2.232-.137-4.477-.145-6.721-.221-.894-.028-1.792-.076-2.685-.136l-3.427-.265-5.21-.288c0,.08-.08.316-.145.581l21.531,1.6v-.028l.028-.072a.171.171,0,0,0,0-.032v-.112c0-.077.02-.153.028-.233C71.933,121.175,71.985,120.814,72.049,120.373Z" fill="#221f1f"/>
    <path id="Path_20091" data-name="Path 20091" d="M119.654,17.419a1.009,1.009,0,0,1,.136.67c0,.084-.284.577-.565.2a1.037,1.037,0,0,1-.156-.7.344.344,0,0,1,.411-.262A.34.34,0,0,1,119.654,17.419Z" fill="#231f20"/>
    <path id="Path_20092" data-name="Path 20092" d="M119.342,17.928a.648.648,0,0,0,.064.237.073.073,0,0,0,.036,0,.088.088,0,0,0,.092-.024.64.64,0,0,0,.068-.08.289.289,0,0,0,.028-.084.39.39,0,0,0,0-.209,1.023,1.023,0,0,1-.1-.272c0-.073.4-.2.469-.052a1,1,0,0,1,.088.424.941.941,0,0,1-.032.217.522.522,0,0,1-.132.24,1.277,1.277,0,0,1-.237.209.4.4,0,0,1-.316.064.558.558,0,0,1-.285-.221.822.822,0,0,1-.116-.26,1.334,1.334,0,0,1-.036-.321V17.56a.4.4,0,0,1,.136-.261.6.6,0,0,1,.4-.18.351.351,0,0,1,.112,0c.148.052.156.132.088.22l-.052.06a1.017,1.017,0,0,1-.164.1.542.542,0,0,0-.112.1h0v.124a.74.74,0,0,0,0,.176Z" fill="#221f1f"/>
    <path id="Path_20093" data-name="Path 20093" d="M114.087,17.78a1.013,1.013,0,0,1,.2.657c0,.085-.233.6-.549.245a1.033,1.033,0,0,1-.213-.685.345.345,0,0,1,.565-.217Z" fill="#221f1f"/>
    <path id="Path_20094" data-name="Path 20094" d="M113.835,18.317a.694.694,0,0,0,.084.229h.036a.085.085,0,0,0,.088-.036.4.4,0,0,0,.064-.085.144.144,0,0,0,.02-.084.393.393,0,0,0-.036-.208.924.924,0,0,1-.12-.261c0-.068.381-.232.461-.092a.978.978,0,0,1,.124.4.781.781,0,0,1,0,.216.452.452,0,0,1-.112.249,1.229,1.229,0,0,1-.212.232.4.4,0,0,1-.313.089.533.533,0,0,1-.3-.193.843.843,0,0,1-.14-.252,1.29,1.29,0,0,1-.064-.313,2.323,2.323,0,0,1,0-.236.4.4,0,0,1,.116-.273.6.6,0,0,1,.4-.216.376.376,0,0,1,.116,0c.149.044.165.12.1.212a.369.369,0,0,1-.048.064.774.774,0,0,1-.152.116c-.052.04-.128.125-.1.105h0V18.1a1.049,1.049,0,0,0,.024.176Z" fill="#221f1f"/>
    <path id="Path_20095" data-name="Path 20095" d="M111.138,15.091a.523.523,0,0,1-.558-.052c-.064-.036-.112-.2-.064-.241a3.237,3.237,0,0,1,.293-.228c.032,0,.317-.132.649-.245s.718-.208.914-.256a4.887,4.887,0,0,1,2.429.068,2.81,2.81,0,0,1,1.162.657,1.8,1.8,0,0,1,.377.469,4.092,4.092,0,0,1,.549,1.872,1.644,1.644,0,0,0,.024.313,1.234,1.234,0,0,1,0,.364,4.05,4.05,0,0,1-.076.641,5.359,5.359,0,0,1-.265,1,12.287,12.287,0,0,1-.693,1.4.626.626,0,0,1-.124.185,1.365,1.365,0,0,0-.281.4,4.913,4.913,0,0,1-.4.541,1.854,1.854,0,0,1-.256.213c-.08.06-.133-.048-.125-.08.029-.1-.056-.064-.1-.085l-.04-.024s.132-.284.253-.581.244-.609.264-.661l.124-.265c.069-.156.153-.364.233-.581a7.871,7.871,0,0,0,.3-.986,1.467,1.467,0,0,1,.093-.288,5.3,5.3,0,0,0,.1-.71,4.825,4.825,0,0,0,0-.7c0-.26-.06-.509-.072-.765a.382.382,0,0,0-.036-.145,2.34,2.34,0,0,0-.726-1,2.086,2.086,0,0,0-.593-.272,1.11,1.11,0,0,1-.112-.048.688.688,0,0,0-.152-.048,4.481,4.481,0,0,0-1.7,0,9.069,9.069,0,0,0-.942.128A3.462,3.462,0,0,0,111.138,15.091Z" fill="#221f1f"/>
    <path id="Path_20096" data-name="Path 20096" d="M123.293,28.209a.873.873,0,0,1,.3.541.5.5,0,0,1-.124.364,5.7,5.7,0,0,1-1.836,1.483,7.632,7.632,0,0,1-1.9.67,6.336,6.336,0,0,1-3.478-.069,5.309,5.309,0,0,1-.966-.428c-.145-.085-.305-.149-.445-.241l-.4-.292c-.048-.037-.108-.057-.132-.109-.076-.136.076-.336.276-.4.044,0,.113-.053.133-.041.192.141.533,0,.705.145a4.531,4.531,0,0,0,.569.288c.2.068.4.1.613.165s.329.064.489.12a3.308,3.308,0,0,0,.633.156,1.8,1.8,0,0,0,.4.024,4.522,4.522,0,0,0,.726-.052,6.532,6.532,0,0,0,1.891-.545,7.114,7.114,0,0,0,1.6-.962,5.447,5.447,0,0,0,.613-.593A2.921,2.921,0,0,1,123.293,28.209Z" fill="#221f1f"/>
    <path id="Path_20097" data-name="Path 20097" d="M136.607,86.948a18.9,18.9,0,0,1-8.685.38c-.729-3.054-1.851-10.019-1.891-10.272-.8-5.8-3.038-36.567-3.154-38.972,0-.06-2.934,3.563-5.868,1.767.184,4.762.365,9.535.573,14.3q.333,7.555.8,15.1c.3,4.857.4,9.851,1.358,14.637.253,1.266.742,2.6.918,3.851-.272.076-2.653-.8-8.512.8-.634,8.384-.99,16.833-1.732,25.177-.048.537,10.477,1.96,11.094,1.98,14.765.533,18.568-4.838,21.678-5.611C142.046,101.26,138.728,92.967,136.607,86.948Zm-23.678,18.576a1.446,1.446,0,0,1-.725-1.138,1.4,1.4,0,0,1,.589-1.05c.873-.706,2.4-.686,2.465.5A1.594,1.594,0,0,1,112.929,105.524Zm5.21-13.074a1.324,1.324,0,0,1-1.98.249c-.765-.686-.745-2.036.317-2.273,1.663-.388,1.94,1.515,1.639,2.016Zm3.271-41.629c1.362-.766,2.2.8,2.16,1.226a1.247,1.247,0,0,1-.617.894c-.854.573-2.1.421-2.189-.653a1.6,1.6,0,0,1,.622-1.467Zm-2.718-4.6a1.764,1.764,0,0,1-.833-1.3,1.226,1.226,0,0,1,.97-1.2c.873-.281,1.559.745,1.559,1.106-.024.97-.806,1.9-1.72,1.391Zm3.455,21.887c-.942.4-1.876.164-1.96-.91a1.827,1.827,0,0,1,.646-1.471,1.259,1.259,0,0,1,1.6.136C122.74,66.111,123.325,67.594,122.147,68.107Zm.581,9.839c-.26-.513.253-1.2.694-1.571a1.346,1.346,0,0,1,1.723.144,1.51,1.51,0,0,1,.6,1.17c-.044.413-1.976,2.329-3.022.257Zm3.964,25.967a1.475,1.475,0,0,1-.725-1.15,1.4,1.4,0,0,1,.589-1.063c.885-.713,2.284-.677,2.485.505.1.59-.377,2.862-2.353,1.708Zm7.19-9c-.781-.8-.8-2.168.337-2.445a1.976,1.976,0,0,1,1.671.441,1.372,1.372,0,0,1,.124,1.736,1.329,1.329,0,0,1-2.136.268Zm2.525,15.967c-.858-.561-1.166-1.795-.2-2.272a1.828,1.828,0,0,1,1.6.052,1.267,1.267,0,0,1,.469,1.535C138.146,110.586,137.694,111.732,136.407,110.878Z" fill="#221f1f"/>
    <path id="Path_20098" data-name="Path 20098" d="M111.406,92.19l.225-3.082.04-.529.028-.365c0-.04.04-.032.064-.044l.088-.024.176-.044.918-.237c.509-.12,1.014-.244,1.531-.332a21.232,21.232,0,0,1,3.126-.4,13.824,13.824,0,0,1,1.6,0,6.786,6.786,0,0,1,.8.072h.116v-.1l-.116-.509-.3-1.138a23.642,23.642,0,0,1-.525-2.353c-.28-1.571-.473-3.154-.621-4.737-.284-3.166-.4-6.333-.569-9.487L117.4,57.466c-.16-2.946-.261-5.892-.369-8.817l-.164-4.409-.084-2.212-.04-1.1-.029-.777-.02-.457v-.228a.592.592,0,0,1,0-.2,8.034,8.034,0,0,0,1.119.593,2.859,2.859,0,0,0,.633.149,3.265,3.265,0,0,0,1.27-.121,4.925,4.925,0,0,0,1.2-.545,4.4,4.4,0,0,0,.557-.4l.268-.213c.093-.076.149-.12.317-.272s.281-.265.421-.4.248-.084.328-.108a.5.5,0,0,0,.109,0h.028c.028-.064-.048.14.06-.137l.028.093.1.4a3.977,3.977,0,0,1,.1.4l.036.549.044.7.189,2.805.8,11.27c.441,5.944.918,11.915,1.467,17.8.185,1.884.353,3.787.633,5.647s.638,3.747.982,5.611q.26,1.4.541,2.805l.149.7.116.5a.431.431,0,0,0,.132.036l.341.056c.232.036.461.068.693.092a19.945,19.945,0,0,0,5.611-.176l.742-.136c.208-.044.376-.081.509-.1.264-.044.4-.044.4,0s-.144.121-.4.233a8.376,8.376,0,0,1-1.119.4,15.893,15.893,0,0,1-4.208.533c-.441,0-.9,0-1.374-.036-.237,0-.481-.036-.726-.061l-.373-.048c-.14-.02-.2-.024-.485-.08l-.348-.072c-.076,0-.08-.064-.1-.124l-.045-.172-.132-.538c-.056-.248-.116-.5-.176-.761-.112-.517-.221-1.042-.325-1.583q-.546-2.868-1.022-5.739l-.236-1.439c-.076-.5-.124-.978-.189-1.467-.1-.97-.208-1.936-.3-2.9-.365-3.871-.673-7.739-.978-11.622s-.581-7.756-.854-11.623l-.4-5.836-.3-4.977-.14.132-.173.144c-.112.092-.22.181-.336.265a6.685,6.685,0,0,1-1.5.873,4.259,4.259,0,0,1-1.764.345,3.541,3.541,0,0,1-.914-.148l-.108-.036h-.032l-.056-.024a.8.8,0,0,1-.112-.06,4.043,4.043,0,0,0,0,.713c0,.453.036.91.052,1.367q.056,1.366.108,2.741.108,2.75.221,5.515c.128,3.687.352,7.382.529,11.053q.336,6.5.669,13c.124,2.16.3,4.316.593,6.452.152,1.067.333,2.141.569,3.175.128.517.277,1.038.4,1.567.068.264.136.529.2.8.024.1.069.333.109.537l.1.622a2.472,2.472,0,0,1-.962,0l-.377-.044-.336-.033c-.445-.036-.9-.036-1.351-.028a19.433,19.433,0,0,0-2.713.281c-.8.136-1.576.3-2.353.5l-.449.116c-.064,0-.044.06-.052.1V89.1l-.092,1.2-.333,4.842-.621,9.679-.313,4.388-.176,2.192-.18,2.117v.084c0,.032.04.044.06.06a1.166,1.166,0,0,0,.18.072c.192.06.4.112.6.164.4.1.834.185,1.255.269.841.164,1.687.308,2.537.445,1.695.272,3.4.521,5.1.745.42.044.857.12,1.258.128h2.565l1.279-.048a38.828,38.828,0,0,0,5.07-.481,28.372,28.372,0,0,0,5.386-1.511,33.125,33.125,0,0,0,4.934-2.565c.2-.12.4-.232.617-.348a6.9,6.9,0,0,1,.637-.321l.329-.152.276-.092.077-.028c.028,0,.06,0,.044-.049l-.024-.16-.209-1.371-.244-1.37c-.349-1.824-.778-3.631-1.267-5.431-.425-1.583-.9-3.118-1.411-4.693-.949-2.922-1.639-4.809-2.084-6.18a22.906,22.906,0,0,1-.8-2.806c-.056-.3-.148-.689-.164-.869-.057-.6.917,1.7,2.472,5.943,1.135,3.154,2.209,6.385,3.054,9.723.429,1.668.8,3.359,1.1,5.078.081.425.149.858.209,1.291l.1.717.092.617c.028.065-.04.069-.088.089l-.148.048-.293.1-.4.132-.276.128a5.248,5.248,0,0,0-.557.277c-.369.192-.742.4-1.114.633a30.993,30.993,0,0,1-4.746,2.4,29.116,29.116,0,0,1-5.158,1.447,39.089,39.089,0,0,1-5.33.565l-1.339.052h-2.677q-.352-.015-.7-.064l-.666-.084c-1.695-.221-3.382-.465-5.074-.738-.845-.136-1.691-.28-2.541-.445-.42-.08-.845-.168-1.274-.272-.217-.052-.429-.108-.657-.181l-.125-.044-.148-.056a1.18,1.18,0,0,1-.26-.156.555.555,0,0,1-.173-.225,2.225,2.225,0,0,1-.052-.28l.237-2.806.2-2.661q.18-2.666.365-5.326.341-5.339.689-10.677Z" fill="#221f1f"/>
    <path id="Path_20099" data-name="Path 20099" d="M114.773,103.829a.506.506,0,0,0-.121-.365.7.7,0,0,0-.4-.2,1.583,1.583,0,0,0-.4,0,1.718,1.718,0,0,0-1.283.734.661.661,0,0,0-.056.585,2.472,2.472,0,0,0,.5.665c.052.06-.032.237-.22.341a.53.53,0,0,1-.658-.092,1.85,1.85,0,0,1-.352-.617,1.475,1.475,0,0,1-.048-.774,1.739,1.739,0,0,1,.8-1.086,3,3,0,0,1,1.415-.5,1.746,1.746,0,0,1,.854.164,1.2,1.2,0,0,1,.621.682,1.379,1.379,0,0,1,.08.529,2.469,2.469,0,0,1-.04.485,1.844,1.844,0,0,1-.8,1.258,2.108,2.108,0,0,1-1.11.377,1.2,1.2,0,0,1-.268,0c-.333-.052-.421-.176-.4-.377a.755.755,0,0,1,.028-.14.354.354,0,0,1,.361-.2,1.514,1.514,0,0,0,1.2-.464,1.4,1.4,0,0,0,.2-.441c.02-.089.033-.181.045-.273a2.239,2.239,0,0,0,0-.284Z" fill="#221f1f"/>
    <path id="Path_20100" data-name="Path 20100" d="M116.56,90.883a.6.6,0,0,0-.549.469,1.189,1.189,0,0,0,0,.337,1.268,1.268,0,0,0,.681,1.034.737.737,0,0,0,.554,0,3.181,3.181,0,0,0,.625-.4c.048-.028.228.048.328.237a.5.5,0,0,1-.12.617,1.719,1.719,0,0,1-1.23.332,1.6,1.6,0,0,1-1.066-.645,2.293,2.293,0,0,1-.517-1.31,1.513,1.513,0,0,1,.2-.8,1.3,1.3,0,0,1,.617-.541,1.569,1.569,0,0,1,.457-.112,1.907,1.907,0,0,1,.453,0,1.511,1.511,0,0,1,1.142.741,2.564,2.564,0,0,1,.4.974,1.561,1.561,0,0,1,.024.237c0,.3-.132.432-.337.4a.675.675,0,0,1-.132-.028.5.5,0,0,1-.168-.132.339.339,0,0,1-.076-.164,1.892,1.892,0,0,0-.489-1.086.959.959,0,0,0-.8-.153Z" fill="#221f1f"/>
    <path id="Path_20101" data-name="Path 20101" d="M121.863,52.8a1.5,1.5,0,0,0,.953-.261,1.087,1.087,0,0,0,.241-.252.663.663,0,0,0,.132-.257.8.8,0,0,0-.1-.4,1.585,1.585,0,0,0-.277-.432.88.88,0,0,0-.513-.285,2.029,2.029,0,0,0-.733.112c-.084,0-.18-.156-.184-.36a.492.492,0,0,1,.344-.525,1.6,1.6,0,0,1,1.3.26,1.98,1.98,0,0,1,.713.962,2.007,2.007,0,0,1,.149.713,1.358,1.358,0,0,1-.361.8,2.224,2.224,0,0,1-1.359.657,1.763,1.763,0,0,1-.934-.14,1.2,1.2,0,0,1-.549-.509,1.49,1.49,0,0,1-.18-.7,2.482,2.482,0,0,1,.164-1.055,1.481,1.481,0,0,1,.116-.228c.2-.265.353-.285.5-.148a.8.8,0,0,1,.1.1.4.4,0,0,1,.028.4,2.024,2.024,0,0,0-.169.6,1.361,1.361,0,0,0,.036.585.479.479,0,0,0,.185.24.8.8,0,0,0,.4.113Z" fill="#221f1f"/>
    <path id="Path_20102" data-name="Path 20102" d="M119.8,44.629a1.03,1.03,0,0,0-.621-.565.608.608,0,0,0-.268.02c-.4.1-.8.372-.8.757a1.064,1.064,0,0,0,.165.553,4.378,4.378,0,0,0,.484.561c.049.06-.04.233-.212.349a.478.478,0,0,1-.6,0,2.052,2.052,0,0,1-.541-1.03,1.483,1.483,0,0,1-.032-.3,1.179,1.179,0,0,1,.032-.34,1.284,1.284,0,0,1,.3-.577,2.388,2.388,0,0,1,.553-.449,1.778,1.778,0,0,1,.654-.249,1.309,1.309,0,0,1,.8.161,1.838,1.838,0,0,1,.561.488,2.252,2.252,0,0,1,.233.377,1.733,1.733,0,0,1,.084.221.839.839,0,0,1,.032.268,2.237,2.237,0,0,1-.441,1.2,1.428,1.428,0,0,1-.9.6.972.972,0,0,1-.264,0c-.329-.044-.4-.165-.353-.361a.9.9,0,0,1,.032-.136.371.371,0,0,1,.321-.221.674.674,0,0,0,.4-.172,1.138,1.138,0,0,0,.312-.433,1.542,1.542,0,0,0,.121-.433V44.8a.6.6,0,0,0-.077-.172Z" fill="#221f1f"/>
    <path id="Path_20103" data-name="Path 20103" d="M121.678,65.991a.741.741,0,0,0-.4-.033.6.6,0,0,0-.176.077.936.936,0,0,0-.184.16,1.539,1.539,0,0,0-.209.321,1.379,1.379,0,0,0-.2.637.985.985,0,0,0,.168.617.685.685,0,0,0,.493.236,5.562,5.562,0,0,0,.8-.12c.092,0,.164.169.152.377a.516.516,0,0,1-.361.5,1.806,1.806,0,0,1-1.3-.18,1.426,1.426,0,0,1-.653-1.171,2.344,2.344,0,0,1,.332-1.418,1.99,1.99,0,0,1,.549-.578,1.31,1.31,0,0,1,.8-.216,1.782,1.782,0,0,1,.9.329,1.757,1.757,0,0,1,.176.136,1.376,1.376,0,0,1,.325.541,2.361,2.361,0,0,1,.144.561,1.666,1.666,0,0,1-.152,1.118,1.487,1.487,0,0,1-.161.225c-.252.232-.4.208-.521.06a.755.755,0,0,1-.088-.108.345.345,0,0,1,.04-.4.9.9,0,0,0,.176-.5,1.77,1.77,0,0,0-.1-.621c-.028-.073-.056-.141-.088-.205s-.072-.112-.056-.1a1.135,1.135,0,0,0-.433-.244Z" fill="#221f1f"/>
    <path id="Path_20104" data-name="Path 20104" d="M125.181,77.742c.028-.037.08-.085.092-.109s.02,0,.028-.028a.237.237,0,0,0,0-.092.686.686,0,0,0-.032-.148,1.113,1.113,0,0,0-.16-.317,1.716,1.716,0,0,0-.285-.28,1.013,1.013,0,0,0-1.23-.193,1.743,1.743,0,0,0-.461.521,1.442,1.442,0,0,0-.188.69.361.361,0,0,1-.381.144.5.5,0,0,1-.4-.591v0a2.208,2.208,0,0,1,.657-1.094,2.726,2.726,0,0,1,.233-.2,1.569,1.569,0,0,1,.3-.184,1.438,1.438,0,0,1,.69-.128,2.25,2.25,0,0,1,1.387.589,2.2,2.2,0,0,1,.432.593,1.419,1.419,0,0,1,.157.8.68.68,0,0,1-.06.189,1.391,1.391,0,0,1-.157.232,1.832,1.832,0,0,1-.16.181,3.093,3.093,0,0,1-.353.3,2.289,2.289,0,0,1-1.326.493,1.626,1.626,0,0,1-1.094-.4c-.061-.06-.129-.112-.185-.176-.192-.244-.184-.365-.044-.509a1.134,1.134,0,0,1,.1-.1.325.325,0,0,1,.4.06c.088.1.2.144.281.224a1.1,1.1,0,0,0,.268.121.888.888,0,0,0,.549,0,2.177,2.177,0,0,0,.9-.6Z" fill="#221f1f"/>
    <path id="Path_20105" data-name="Path 20105" d="M128.58,102.322a.678.678,0,0,0-.513-.678,1.227,1.227,0,0,0-.4,0,1.742,1.742,0,0,0-1.327.73.687.687,0,0,0-.068.6,2.487,2.487,0,0,0,.5.689c.052.064-.036.237-.224.337a.546.546,0,0,1-.666-.108,1.8,1.8,0,0,1-.352-.634,1.464,1.464,0,0,1-.032-.8,1.79,1.79,0,0,1,.853-1.086,2.851,2.851,0,0,1,1.467-.481,1.671,1.671,0,0,1,.87.252,1.342,1.342,0,0,1,.553.738,1.462,1.462,0,0,1,.06.26,1.1,1.1,0,0,1,0,.281,2.452,2.452,0,0,1-.072.5,2.293,2.293,0,0,1-.77,1.294,1.569,1.569,0,0,1-1.2.293l-.26-.06c-.309-.108-.369-.217-.329-.4a.246.246,0,0,1,.028-.14.329.329,0,0,1,.4-.165,1.577,1.577,0,0,0,.7,0,.769.769,0,0,0,.441-.348,1.977,1.977,0,0,0,.232-.513,1.829,1.829,0,0,0,.085-.549Z" fill="#221f1f"/>
    <path id="Path_20106" data-name="Path 20106" d="M135.774,93.673a.672.672,0,0,0-.132-.4,1.3,1.3,0,0,0-.4-.321,1.763,1.763,0,0,0-.4-.12.958.958,0,0,0-1.178.425,1,1,0,0,0-.024.641,4.024,4.024,0,0,0,.4.774c.04.08-.1.22-.3.276a.532.532,0,0,1-.609-.208,2.082,2.082,0,0,1-.277-1.295,1.669,1.669,0,0,1,.249-.681,1.414,1.414,0,0,1,.549-.477,2.227,2.227,0,0,1,1.539-.132,2.318,2.318,0,0,1,.733.368,1.513,1.513,0,0,1,.529.694,1.682,1.682,0,0,1,0,1.022,1.848,1.848,0,0,1-.349.669,2.106,2.106,0,0,1-.569.473,1.513,1.513,0,0,1-1.2.2,1.554,1.554,0,0,1-.265-.088c-.3-.172-.324-.3-.236-.481a.607.607,0,0,1,.064-.124.334.334,0,0,1,.4-.08.966.966,0,0,0,.589.048,1.2,1.2,0,0,0,.529-.317,1.094,1.094,0,0,0,.14-.164,1.634,1.634,0,0,0,.117-.228,1.143,1.143,0,0,0,.08-.473Z" fill="#221f1f"/>
    <path id="Path_20107" data-name="Path 20107" d="M137.846,109.436a.614.614,0,0,0-.173-.333,1.051,1.051,0,0,0-.4-.212,1.574,1.574,0,0,0-.381-.037.77.77,0,0,0-.878,1.155,4.693,4.693,0,0,0,.509.625c.048.068-.056.232-.236.333a.5.5,0,0,1-.613-.053,1.946,1.946,0,0,1-.525-1.146,1.529,1.529,0,0,1,.1-.689,1.286,1.286,0,0,1,.429-.549,2.1,2.1,0,0,1,1.4-.4,2.146,2.146,0,0,1,.75.2,1.362,1.362,0,0,1,.609.566,1.6,1.6,0,0,1,.168.949,1.917,1.917,0,0,1-.192.666,2.093,2.093,0,0,1-.4.585,1.2,1.2,0,0,1-1.1.373.961.961,0,0,1-.248-.057c-.3-.1-.333-.216-.281-.4a.68.68,0,0,1,.04-.133.309.309,0,0,1,.377-.16.831.831,0,0,0,.537-.02.73.73,0,0,0,.316-.349,1.288,1.288,0,0,0,.169-.9Z" fill="#221f1f"/>
    <path id="Path_20108" data-name="Path 20108" d="M123.249,39.7h0a.23.23,0,0,1-.032-.092l-.8-9.671a.193.193,0,0,1,.02-.092h0c0-.064-.185-.1-.4-.08s-.4.088-.381.152h0a.28.28,0,0,1,.032.092l.032.4.754,9.266a.187.187,0,0,1,0,.088.034.034,0,0,0,0,.02c0,.064.184.1.4.088S123.253,39.767,123.249,39.7Z" fill="#232020"/>
    <path id="Path_20109" data-name="Path 20109" d="M133.569,53.1a25.072,25.072,0,0,0,.449,5.611c.217,1.491.465,2.974.734,4.457a30.325,30.325,0,0,1,.869,4.557c0,.244.878.084.874-.233a25.228,25.228,0,0,0-.737-3.819c-.281-1.515-.545-3.034-.774-4.557a27.051,27.051,0,0,1-.545-6.152c.024-.325-.845-.156-.87.116Z" fill="#221f1f"/>
    <path id="Path_20110" data-name="Path 20110" d="M136.455,86.527a32.518,32.518,0,0,0,3.283-.8,5.492,5.492,0,0,0,.577-.2c.176-.072.4-.153.533-.213a.406.406,0,0,0,.128-.056l-.044-.124-.205-.445-.4-.89-.766-1.779-.777-1.8c-.165-.4-.333-.769-.477-1.17a4.189,4.189,0,0,1-.285-1.282c0-.321.2-.221.4-.032a2.137,2.137,0,0,1,.609.913c.549,1.547,1.235,3.1,1.856,4.685.132.325.272.646.425.966l.228.485.4.774a6.544,6.544,0,0,1-.706.4l-.272.116c-.08.036-.16.06-.241.092a27.2,27.2,0,0,1-3.366.922c-.349.076-.7.148-1.05.208s-.7.132-1.05.185c-1.066.18-2.144.3-3.207.376a22.6,22.6,0,0,1-2.5.093L129,87.9a1.985,1.985,0,0,1-.726-.184.483.483,0,0,1-.264-.272,1.2,1.2,0,0,1-.053-.153c0-.16.289-.22.746-.148a23.122,23.122,0,0,0,4.409-.12c1.118-.125,2.248-.293,3.362-.525Z" fill="#221f1f"/>
    <path id="Path_20111" data-name="Path 20111" d="M108.043,52.705a5.826,5.826,0,0,1-.577,2.909c-.328.774-.665,1.551-1.066,2.309a10.892,10.892,0,0,1-1.431,2.18,6.485,6.485,0,0,1-2.1,1.675,3.774,3.774,0,0,1-.629.265l-.321.12a2.451,2.451,0,0,1-.328.08c-.221.048-.441.1-.665.144l-.67.057a13.123,13.123,0,0,1-4.436-.6,18.541,18.541,0,0,1-4.008-1.851,32.8,32.8,0,0,1-3.122-2.112c-1-.746-1.972-1.527-2.938-2.305s-1.928-1.547-2.914-2.28-2.028-1.443-2.974-2.293l-.2-.18-.321-.3-.685-.681.7-.4.345-.2.2-.129c.233-.148.461-.3.69-.452.453-.309.9-.626,1.33-.966a16.482,16.482,0,0,0,2.914-2.85c.132-.184.273-.373.4-.537.361-.433.657-.433.573.036a.8.8,0,0,1-.084.333,12.655,12.655,0,0,1-1.86,2.557q-.981.87-2.024,1.659c-.344.265-.7.517-1.058.766l-.521.352-.028.032.048.028.032.024.112.1.225.192c.633.529,1.3,1.034,1.972,1.535.877.653,1.727,1.351,2.565,2.044.585.461,2.2,1.84,4.408,3.479a29.278,29.278,0,0,0,3.78,2.4,14.835,14.835,0,0,0,4.565,1.539,7.905,7.905,0,0,0,4.521-.4,6.021,6.021,0,0,0,1.651-1.227,9.758,9.758,0,0,0,1.138-1.527,23.531,23.531,0,0,0,1.343-2.645c.308-.685.5-1.106.529-1.2A11.612,11.612,0,0,1,108.043,52.705Z" fill="#221f1f"/>
    <path id="Path_20112" data-name="Path 20112" d="M80.466,42a4.463,4.463,0,0,1-2-.878c-.145-.128-.293-.261-.433-.4a3.437,3.437,0,0,1-.369-.5,2.307,2.307,0,0,1-.357-1.274,2.114,2.114,0,0,1,.064-.441,1.828,1.828,0,0,1,.105-.313.21.21,0,0,1,.024-.044c.024,0-.02-.024-.028-.036a.185.185,0,0,0-.04-.024l-.081-.04A1.79,1.79,0,0,0,77,37.92c-.245-.069-.521-.1-.8-.157a3.234,3.234,0,0,1-.966-.288,2,2,0,0,1-.8-.766c-.076-.132-.157-.268-.225-.4-.04-.08-.064-.132-.112-.244a2.315,2.315,0,0,1-.112-.4.949.949,0,0,1,.108-.7.835.835,0,0,1,.581-.353,1.436,1.436,0,0,1,.726.172l.4.177a1.772,1.772,0,0,0,.3.092h.361a4.833,4.833,0,0,1,1.927.192A5.482,5.482,0,0,1,79.9,36.425,14.468,14.468,0,0,1,82.421,39a10.8,10.8,0,0,1,.8,1.515c.228.509.445,1.018.649,1.523a10.377,10.377,0,0,0,1.571,2.7,24.906,24.906,0,0,0,4.742,4.316l2.252,1.684a23.717,23.717,0,0,0,2.3,1.523,10.125,10.125,0,0,0,2.513.97c.441.116.894.208,1.347.3l.545.1h.032l.124-.18a46.271,46.271,0,0,0,2.962-4.729c.922-1.627,1.808-3.287,2.758-4.922a37.316,37.316,0,0,1,3.819-5.551,17.4,17.4,0,0,1,5.042-4.144,6.3,6.3,0,0,1,1.006-.461c.89-.316,1.158-.16.609.281a2.077,2.077,0,0,1-.4.3,8.625,8.625,0,0,0-1.944,1.2c-.3.224-.561.5-.857.741-.145.124-.3.249-.453.373l-.457.421a18.631,18.631,0,0,0-3.13,3.527,45.125,45.125,0,0,0-2.517,4.056L103.847,47.9c-.8,1.431-1.659,2.85-2.565,4.244l-.617.938c-.136.2-.293.4-.461.65l-.264.364-.221.309-.124.18-.032.044h-.056l-.108-.02-.7-.128-.537-.1c-.369-.072-.753-.157-1.158-.265a10.832,10.832,0,0,1-2.509-.986,21.176,21.176,0,0,1-2.533-1.659l-2.6-1.908a22.916,22.916,0,0,1-5.03-4.769,11.633,11.633,0,0,1-.93-1.535c-.26-.553-.465-1.074-.689-1.6s-.449-1.026-.7-1.5a6.271,6.271,0,0,0-.878-1.275,12.6,12.6,0,0,0-1.106-1.086l-.593-.521c-.205-.184-.4-.368-.562-.537a2.466,2.466,0,0,0-1.038-.689,5.022,5.022,0,0,0-1.278-.068h-.553a1.476,1.476,0,0,1-.237-.044,5.768,5.768,0,0,1-.657-.257l-.1-.044a.106.106,0,0,0-.056,0,.067.067,0,0,0-.052.08v.076l.044.1a4.37,4.37,0,0,0,.232.432,1.068,1.068,0,0,0,.549.409,14.823,14.823,0,0,0,1.447.329,2.857,2.857,0,0,1,.593.22,1.7,1.7,0,0,1,.313.2,2.735,2.735,0,0,1,.24.176c.02.156.036.245.036.285v.4c0,.012-.064.1-.088.149l-.036.084a.636.636,0,0,0-.036.12,1.261,1.261,0,0,0-.04.229,1.346,1.346,0,0,0,.032.4,1.814,1.814,0,0,0,.188.5,1.956,1.956,0,0,0,.169.281A7.319,7.319,0,0,0,80.466,42Z" fill="#221f1f"/>
    <path id="Path_20113" data-name="Path 20113" d="M74.317,39.451c-.064.088-.148.068-.316.024-.052,0-.16-.109-.144-.149a.849.849,0,0,1,.1-.224,1.975,1.975,0,0,1,.316-.261c.161-.116.341-.228.429-.288a5.222,5.222,0,0,1,.521-.293A2.073,2.073,0,0,0,76,37.683a.067.067,0,0,1,.028-.04v-.12a.855.855,0,0,0-.056-.128c-.04-.057-.036-.053-.108-.061a.17.17,0,0,0-.085.024.37.37,0,0,1-.124.049c-.068.028-.156.056-.252.1-.189.084-.4.192-.441.208-.249.092-.5.209-.75.321a.226.226,0,0,1-.112.04.428.428,0,0,0-.244.084,3.127,3.127,0,0,1-.333.14.618.618,0,0,1-.192,0c-.057,0-.069-.092-.057-.108s0-.068-.04-.1a.158.158,0,0,1-.02-.036s.129-.116.257-.241a3.382,3.382,0,0,1,.3-.264l.433-.289c.221-.148.465-.3.513-.332a.634.634,0,0,1,.177-.072,4.208,4.208,0,0,1,.424-.2,2.547,2.547,0,0,1,.341-.108h.209a.957.957,0,0,1,.4.1.608.608,0,0,1,.189.14.549.549,0,0,1,.116.177.554.554,0,0,0,.064.12l.072.128a.891.891,0,0,1,.044.161.992.992,0,0,1,.032.164v.176a1.009,1.009,0,0,1-.284.557,2.536,2.536,0,0,1-.4.345l-.076.04-.1.044c-.313.2-.638.321-.93.493-.068.04-.421.144-.485.2S74.338,39.411,74.317,39.451Z" fill="#221f1f"/>
    <path id="Path_20114" data-name="Path 20114" d="M75.6,40.845c-.076.072-.172.024-.289-.088-.036-.036-.08-.172-.06-.2a1.082,1.082,0,0,1,.113-.149c.028-.024.468-.26.6-.356l.364-.241a.963.963,0,0,0,.253-.244.349.349,0,0,0,.048-.221v-.06c0-.012,0-.06-.072-.092a.7.7,0,0,0-.273-.036.172.172,0,0,0-.108.024c-.028,0-.192.036-.369.068s-.356.076-.4.08a4.591,4.591,0,0,0-.65.1c-.032,0-.06.028-.1,0a.262.262,0,0,0-.208.028c-.088.028-.177.06-.269.08a.459.459,0,0,1-.148,0c-.044,0-.076-.084-.068-.1s-.028-.065-.052-.093V39.31a2.36,2.36,0,0,1,.529-.441s.8-.332.914-.352a.454.454,0,0,1,.156,0s.184-.052.373-.088a2.571,2.571,0,0,1,.4-.049.913.913,0,0,1,.525.113.5.5,0,0,0,.113.052.8.8,0,0,1,.424.421,1.032,1.032,0,0,1,.069.533,1.318,1.318,0,0,1-.173.5c0,.028-.044.04-.064.064l-.076.08a2.971,2.971,0,0,1-.8.561c-.06.04-.4.108-.457.14S75.632,40.817,75.6,40.845Z" fill="#221f1f"/>
    <path id="Path_20115" data-name="Path 20115" d="M75.015,41.046c-.06.072-.152.032-.281-.068a.329.329,0,0,1-.088-.189,1.054,1.054,0,0,1,.092-.16,5.872,5.872,0,0,1,.609-.377,2.191,2.191,0,0,1,.473-.188,4.989,4.989,0,0,1,.521-.124,1.855,1.855,0,0,1,.622,0,.62.62,0,0,1,.168.048,1.214,1.214,0,0,1,.18.1.8.8,0,0,1,.293.661,1.319,1.319,0,0,1-.144.525.591.591,0,0,0-.077.16,1.191,1.191,0,0,1-.364.377,1.918,1.918,0,0,1-.429.233c-.233.064-.453.116-.669.16a.148.148,0,0,1-.093,0,.25.25,0,0,0-.2,0l-.264.06a.441.441,0,0,1-.145,0c-.048,0-.068-.1-.056-.112s-.024-.064-.044-.1V42.02a2.568,2.568,0,0,1,.505-.4l.12-.052.245-.113a3.415,3.415,0,0,0,.376-.2.384.384,0,0,1,.109-.044,1.037,1.037,0,0,0,.2-.168.675.675,0,0,0,.112-.173c.04-.052.032-.116.084-.156m0-.02h0a.108.108,0,0,0,.061-.028c-.036,0-.028.044-.057.06h-.036a.3.3,0,0,0-.1,0,.93.93,0,0,0-.268.024.132.132,0,0,1-.056,0,.2.2,0,0,0-.069,0,3.407,3.407,0,0,0-.717.217c-.052.024-.337.068-.4.108s-.18-.056-.2-.024Z" fill="#221f1f"/>
    <path id="Path_20116" data-name="Path 20116" d="M76.085,43.643a4.137,4.137,0,0,0,2.032-.8c.4-.324.521-.8,0-1.034a.755.755,0,0,0-.7.084c-.129.085-.305.325-.077.425s.157.2-.04.337a2.718,2.718,0,0,1-1.078.365c-.188.028-.521.128-.553.356s.277.273.437.249Z" fill="#221f1f"/>
    <path id="Path_20117" data-name="Path 20117" d="M82.714,47.45q-.757-.725-1.543-1.427a5.772,5.772,0,0,0-1.916-1.4c-.276-.08-1.022.332-.533.473a2.5,2.5,0,0,1,.754.513c.376.3.737.621,1.1.945.449.4.9.8,1.33,1.243.221.212,1.042-.116.8-.345Z" fill="#221f1f"/>
    <path id="Path_20118" data-name="Path 20118" d="M79.58,39.539a1.329,1.329,0,0,1-1.343-.2Q76.6,38.136,75,36.862c-.914-.726-1.8-1.5-2.7-2.237q-2.346-1.905-4.7-3.791c-.461-.373-.917-.754-1.386-1.122s-.906-.69-1.359-1.034a1.094,1.094,0,0,1-.22-.181.281.281,0,0,1,.026-.4.287.287,0,0,1,.194-.069c.056,0,.136-.032.172,0,.349.269.826.241,1.183.541.657.553,1.382,1.026,2.076,1.543.276.2.541.425.8.65.333.288.649.6.982.885.91.8,8.817,7.114,9.014,7.3A7.15,7.15,0,0,1,79.58,39.539Z" fill="#221f1f"/>
    <line id="Line_317" data-name="Line 317" y1="0.008" transform="translate(117.013 39.843)" fill="none" stroke="#221f1f" stroke-width="0.537"/>
    <path id="Path_20119" data-name="Path 20119" d="M132.892,52.532a2.032,2.032,0,0,1,1.671.609,29.013,29.013,0,0,1,4.008,4.2,7.107,7.107,0,0,1,.686,1.13,2.945,2.945,0,0,1,.232.709l.028.273v.072l-.024.072-.052.14-.108.289-.862,2.3L135.6,70.3l-.849,2.349q-.377,1.134-.766,2.272a2.324,2.324,0,0,1-.136.377c-.176.3-.437.288-.529,0-.02-.068-.064-.153-.044-.209.2-.589.064-1.162.292-1.771.429-1.13.758-2.3,1.135-3.447.152-.457.316-.914.493-1.363l.7-1.715c.156-.4.569-1.523,1.106-3.006.265-.741.565-1.567.878-2.433l.477-1.322.22-.609v-.036a.384.384,0,0,0-.028-.125,1.582,1.582,0,0,0-.1-.276,9.945,9.945,0,0,0-1.5-2.164c-.565-.658-1.122-1.243-1.6-1.74-.982-1-1.687-1.639-1.751-1.707C133.369,53.165,133.2,52.9,132.892,52.532Z" fill="#221f1f"/>
    <path id="Path_20120" data-name="Path 20120" d="M109.354,50.48a4.51,4.51,0,0,1,.774,1.423,6.814,6.814,0,0,1,.36,1.627,52.457,52.457,0,0,1,.129,11.162c-.273,3.206-.8,6.344-1.3,9.487-.425,2.705-.878,5.4-1.226,8.1-.169,1.355-.333,2.706-.437,4.06l-.092,1.018-.053,1.018-.036.7c0,.056.04.024.073,0l1.154-.281,1.2-.272c.8-.181,1.6-.353,2.385-.509a42.62,42.62,0,0,1,4.649-.71,6.136,6.136,0,0,1,.8-.044c.69.044.834.293.349.493a1.126,1.126,0,0,1-.353.12c-1.2.06-2.1.5-3.342.674q-1.719.258-3.419.681c-.569.136-1.134.277-1.7.425l-1.924.5-.677.168-.173.04h-.068v-.433l.06-1.182.085-1.415c.12-1.2.248-2.4.4-3.607.1-.8.4-3.142.878-6.164s1.11-6.733,1.539-10.384a65.809,65.809,0,0,0,.505-9.952c-.032-.677-.044-1.3-.084-1.855s-.092-1-.128-1.4-.064-.741-.1-.978-.057-.4-.065-.429C109.45,51.963,109.43,51.4,109.354,50.48Z" fill="#221f1f"/>
    <path id="Path_20121" data-name="Path 20121" d="M116.236,30.489a.034.034,0,0,0,0,.02.182.182,0,0,1,.028.1l.4,10.124a.141.141,0,0,1-.02.092v.02a.607.607,0,0,0,.4.109c.221-.008.4-.073.4-.141h0a.164.164,0,0,1-.028-.1v-.4l-.4-9.715a.156.156,0,0,1,.02-.092h0c0-.068-.18-.112-.4-.1S116.232,30.421,116.236,30.489Z" fill="#232020"/>
    <path id="Path_20122" data-name="Path 20122" d="M123.538,33.479a5.849,5.849,0,0,1,.99-.209c.088,0,.176-.02.264-.024h.265a4.169,4.169,0,0,1,.537.057,3.555,3.555,0,0,1,.541.092c.176.048.353.1.529.16l.525.184c.176.065.337.157.5.237a21.63,21.63,0,0,1,5.851,4.441,52.553,52.553,0,0,1,4.674,5.611c.621.837,1.2,1.687,1.827,2.524s1.2,1.684,1.808,2.549a27.764,27.764,0,0,1,3.07,5.535,11.967,11.967,0,0,1,.717,2.682,10.538,10.538,0,0,1,0,2.805,21.714,21.714,0,0,1-1.5,5.25c-.669,1.676-1.447,3.291-2.12,4.922s-1.363,3.306-2.1,4.942c-.441.966-.9,1.923-1.4,2.869-.248.469-.5.942-.761,1.4l-.4.7-.373.634c0,.084-.092.032-.148,0l-.18-.053-.369-.108-.249-.076a1.186,1.186,0,0,1-.2-.088l-.4-.184a4.349,4.349,0,0,1-.689-.509A4.756,4.756,0,0,1,133.73,78.5a12,12,0,0,1-1.022-2.986c-.076-.332-.173-.677-.221-.986-.136-.8.032-1.086.4-.529a1.636,1.636,0,0,1,.221.4,13.11,13.11,0,0,0,.673,2.092,12.582,12.582,0,0,0,.982,1.92,3.2,3.2,0,0,0,1.519,1.3.576.576,0,0,0,.12.044l.076.021h.044a.043.043,0,0,1,.032-.037l.06-.108c.185-.328.365-.661.545-.994.706-1.342,1.343-2.717,1.952-4.108l1.447-3.358c.3-.718.609-1.435.938-2.153l.982-2.132c.216-.485.641-1.418,1.13-2.705a23.038,23.038,0,0,0,.722-2.188,13.394,13.394,0,0,0,.476-2.666,9.186,9.186,0,0,0-.28-2.985,14.939,14.939,0,0,0-1.2-3.074,45.707,45.707,0,0,0-3.876-5.944c-1.419-1.96-2.806-3.892-4.192-5.611a36.81,36.81,0,0,0-4.112-4.373,18.849,18.849,0,0,0-3.467-2.468,13.454,13.454,0,0,0-1.635-.746A12.049,12.049,0,0,0,123.538,33.479Z" fill="#221f1f"/>
    <path id="Path_20123" data-name="Path 20123" d="M125.967,116.377l5.29,38.988c.052.449.962.329.9-.12l-5.291-38.968C126.82,115.9,125.918,116.024,125.967,116.377Z" fill="#232020"/>
    <path id="Path_20124" data-name="Path 20124" d="M130.275,155.365l-9.114-39.517c-.1-.457-.994-.248-.882.205l9.114,39.513c.032.156.217.2.4.184v-.02a.707.707,0,0,0,.184,0v-.02C130.163,155.622,130.311,155.5,130.275,155.365Z" fill="#232020"/>
    <path id="Path_20125" data-name="Path 20125" d="M132.475,115.2l1.026,40.166c0,.461.926.437.906-.024l-1.038-40.166C133.369,114.81,132.463,114.834,132.475,115.2Z" fill="#232020"/>
    <path id="Path_20126" data-name="Path 20126" d="M131.766,155.622V161.5h-.87l-.056-3.827A24.95,24.95,0,0,1,122.023,162c-4.092.974,7.991-6.36,7.991-6.36Z" fill="#221f1f"/>
    <path id="Path_20127" data-name="Path 20127" d="M122.279,161.453h.205l.3-.088a12.563,12.563,0,0,0,1.2-.4c.8-.284,1.6-.613,2.368-.973.569-.261,1.11-.566,1.66-.862.448-.245.893-.505,1.322-.778l.321-.212.168-.112c.092-.064.176-.133.265-.2.356-.268.7-.545,1.03-.8v4.268h.34v-1.551c0-1.262-.068-2.529,0-3.787.052-.8.774.212.782,1.663v1.968l-.024,2.457h-1.832v-3.3a1.8,1.8,0,0,0,.02-.264l-.228.16-.381.264-.4.269c-.549.349-1.118.681-1.691.978a26.4,26.4,0,0,1-4.914,1.98c-.072.02-.116.04-.212.06l-.277.064c-.184.04-.364.088-.549.12a1.616,1.616,0,0,1-.481,0,.549.549,0,0,1-.332-.2.4.4,0,0,1,0-.4,1.47,1.47,0,0,1,.26-.4,6.733,6.733,0,0,1,.8-.717c1.3-1.014,2.681-1.9,4.032-2.806l3.1-2.08.34-.224.173-.112.124-.081c.048-.024.088-.08.152-.068h.718a3.437,3.437,0,0,1,.441.028.872.872,0,0,1,.485.189,1.356,1.356,0,0,1,.148.136c.1.152-.317.285-1.062.345l-.4.028h-.14c-.02,0,0,0-.052.04l-.706.513-1.427.954-2.909,1.927c-.718.489-1.435.978-2.12,1.495-.173.129-.341.257-.5.4s-.073.052-.093.068-.04.048,0,.04Z" fill="#221f1f"/>
    <path id="Path_20128" data-name="Path 20128" d="M134.363,155.7l.449,6.108-.8.024L133.321,158c-1.439,1.771-5.05,3.41-7.988,4.665-3.863,1.651,6.846-7.054,6.846-7.054Z" fill="#221f1f"/>
    <path id="Path_20129" data-name="Path 20129" d="M125.686,162h.1l.124-.052,1.127-.481c.8-.34,1.559-.7,2.316-1.082.553-.28,1.086-.6,1.6-.918a11.479,11.479,0,0,0,1.114-.753,11.784,11.784,0,0,0,1.447-1.431c.1.5.185,1.058.273,1.567l.16.99.277,1.708v.02h.3c-.052-.606-.1-1.2-.148-1.808-.1-1.25-.253-2.5-.265-3.751,0-.782.8.152.9,1.6l.153,2.092.168,2.605-1.723.032c-.177-1.026-.2-1.23-.277-1.723s-.124-.886-.188-1.331a2.464,2.464,0,0,1-.036-.321,1.154,1.154,0,0,0-.029-.184c-.056.06-.12.124-.188.184l-.313.265c-.116.1-.236.18-.356.273a14.892,14.892,0,0,1-1.5.973c-.766.437-1.547.826-2.341,1.2-.4.184-.8.361-1.2.537l-1.251.533-.553.216-.276.109-.229.052a1.51,1.51,0,0,1-.368,0,.409.409,0,0,1-.169-.06.227.227,0,0,1-.1-.181,1.4,1.4,0,0,1,.329-.753c.112-.141.236-.289.373-.433l.2-.213.168-.168c1.163-1.146,2.4-2.2,3.607-3.254l2.782-2.453.18-.16c.088-.065.16-.173.281-.137h.485c1.014.028,1.334.089,1.547.3a1.234,1.234,0,0,1,.14.14c.088.161-.329.273-1.074.289h-.946a.032.032,0,0,0-.028.024h0l-.036.032-.08.068-.157.14-1.282,1.127-2.613,2.28c-.641.569-1.287,1.146-1.9,1.735l-.429.4-.048.048h0s-.052.048-.02.044Z" fill="#221f1f"/>
    <path id="Path_20130" data-name="Path 20130" d="M122.179,31.3c-1.2,2.609-4.986.8-5.386.6-.02-.641-.081-.092-.1-.734,1.68.706,3.7-.16,5.4-1.262C122.123,30.233,122.147,30.962,122.179,31.3Z" fill="#221f1f"/>
    <path id="Path_20131" data-name="Path 20131" d="M121.975,31.2a.855.855,0,0,1,.168.578.83.83,0,0,1-.232.456,2.685,2.685,0,0,1-1.511.8A4.521,4.521,0,0,1,118.756,33a6.759,6.759,0,0,1-1.1-.309c-.176-.064-.352-.136-.525-.208l-.256-.116-.457-.221v-.461h0c.024,0,.168-.048.2-.052l.056-.024h0l-.24.177h0c.024.028,0,0-.032-.044a.6.6,0,0,1-.068-.177,2.114,2.114,0,0,1-.028-.365l-.032-.589.553.229a3.31,3.31,0,0,0,1.847.168,6.908,6.908,0,0,0,1.872-.689c.192-.1.4-.193.569-.3l.152-.084.245-.152.5-.313.256-.16.129-.08c.032-.032,0,.024.024.04v.072l.048.6.052.6.028.321a.782.782,0,0,1,0,.216.232.232,0,0,1-.269.189.235.235,0,0,1-.132-.073c-.036-.028-.1-.056-.1-.088a1.292,1.292,0,0,0-.164-.449c-.077-.144-.137-.1-.137-.144v-.052c0-.024-.028,0-.04,0l-.112.1-.044.036-.1.064-.209.137c-.144.084-.284.172-.432.248a5.063,5.063,0,0,1-.738.317,7.156,7.156,0,0,1-1.01.248,6.542,6.542,0,0,1-.826.1,3.875,3.875,0,0,1-1.723-.276l.477-.325v.125c0,.048.028.108,0,.124l-.168.044-.052.024h0c-.193.136.26-.188.212-.156h0l.028.036a.454.454,0,0,1,.056.1.732.732,0,0,1,.036.172v.056a3.3,3.3,0,0,0,.541.225,8.421,8.421,0,0,0,.8.26,4.937,4.937,0,0,0,1.627.173c.12-.02.245-.024.353-.053l.312-.084a2.039,2.039,0,0,0,.461-.256c.06-.048.121-.084.165-.124l.1-.121.112-.116Z" fill="#221f1f"/>
    <path id="Path_20132" data-name="Path 20132" d="M79.107,51.871a2.883,2.883,0,0,0,1.868-.341,15.207,15.207,0,0,0,4.845-4.208c.252-.293-.862-.16-1.058.064a17.326,17.326,0,0,1-3.928,3.675,2.48,2.48,0,0,1-.765.345h0c-.277-.1-1.319.341-.95.473Z" fill="#221f1f"/>
    <path id="Path_20133" data-name="Path 20133" d="M103.683,2.995a35.509,35.509,0,0,1-8.044.561c-2.32,0-4.629.089-6.961.229s-4.666.264-7,.369c-4.673.216-9.35.328-14.028.4-4.007.06-8.039.076-12.055.113l-6.012.068-3.006.06A13.793,13.793,0,0,1,45,4.8a3.528,3.528,0,0,1-1.687-.541,2.656,2.656,0,0,1-.6-.557A2.017,2.017,0,0,1,42.5,3.36c-.064-.112-.128-.228-.188-.345a3.619,3.619,0,0,1-.253-1.523A4.638,4.638,0,0,1,42.391.057a5.6,5.6,0,0,1,.689-1.25,4.82,4.82,0,0,1,1-1.058,2.26,2.26,0,0,1,.325-.224l.176-.1L44.8-2.66a1.49,1.49,0,0,1,.517-.092h.332c.85.04,1.712.056,2.573.076,3.447.06,6.906.076,10.361.1l20.732.093q6.125.048,12.256.14c3.916.052,7.828.176,11.739.28.658,0,1.351,0,1.968.064,1.667.133,2.04.445.8.63a5.589,5.589,0,0,1-.9.1c-3.03-.084-5.455.224-8.653.108-5.9-.192-11.819-.132-17.735-.136-2.364,0-4.737,0-7.1-.04l-9.069-.128c-2.068-.033-7.96,0-15.687-.165-.481,0-.978-.036-1.479-.056h-.168a.1.1,0,0,1-.06,0,.947.947,0,0,0-.1.04A.423.423,0,0,0,45-1.594a2.466,2.466,0,0,0-.5.377,4.571,4.571,0,0,0-1.326,2.4,2.319,2.319,0,0,0,.1,1.306,1.293,1.293,0,0,0,.14.293l.08.144.092.136a1.672,1.672,0,0,0,.481.4,6.979,6.979,0,0,0,3.038.261C51.625,3.62,56.33,3.572,61,3.524s9.271-.1,13.575-.2,8.3-.273,11.747-.445,6.356-.333,8.465-.305,3.394.069,3.607.077C99.9,2.667,101.35,2.815,103.683,2.995Z" fill="#221f1f"/>
    <path id="Path_20134" data-name="Path 20134" d="M100.08,49.318a4.622,4.622,0,0,1,.076-.822c.184-.934.4-1.867.645-2.8.213-.8.493-1.563.758-2.333.228-.665.429-1.338.629-2a13.566,13.566,0,0,1,.766-1.943c.18-.373.368-.742.569-1.111a9.98,9.98,0,0,1,.6-1.042.944.944,0,0,1,.116-.172c.128-.136.148-.168.136-.044a.386.386,0,0,1,0,.1,1.261,1.261,0,0,0-.04.441,1.872,1.872,0,0,1,0,.473c-.116.6-.172,1.2-.284,1.819a3.775,3.775,0,0,1-.205.7c-.116.284-.276.553-.4.829-.092.189-.348.73-.685,1.435s-.7,1.6-1.074,2.465-.725,1.719-.97,2.373-.4,1.1-.429,1.142C100.236,48.929,100.168,49.093,100.08,49.318Z" fill="#221f1f"/>
    <path id="Path_20135" data-name="Path 20135" d="M46.146,4.787c-.97,3.026-2.593,6.224-4.008,9.474a70.023,70.023,0,0,0-4.957,17l-.7,4.408c-.108.746-.26,1.483-.4,2.221S35.8,39.37,35.622,40.1c-.638,2.938-1.455,5.827-2.313,8.7a209.575,209.575,0,0,1-11.474,28.68l-.337.7V78.2h.4a20.327,20.327,0,0,1,3.4.305,48.78,48.78,0,0,0,6.448.978,80.948,80.948,0,0,0,13.082-1.247c4.352-.685,8.725-1.466,13.178-1.8,1.11-.088,2.228-.124,3.342-.16s2.224,0,3.335,0c2.22.028,4.432.124,6.645.236,5.21.277,10.42.705,15.63,1.2l2.148.205,1.227-2.373c.469-.922.93-1.839,1.383-2.769.9-1.852,1.775-3.719,2.569-5.611.152-.4.308-.8.464-1.174s.285-.774.437-1.131a7.033,7.033,0,0,1,.782-1.695c.168-.156.248.116.168.91a6.566,6.566,0,0,1-.216,1.138c-.662,1.828-1.275,3.463-1.92,5.122q-1.017,2.626-2.292,5.142l-.874,1.687-1.062,2-2.714-.26-2.352-.2q-2.349-.2-4.705-.36-4.706-.329-9.419-.545c-3.01-.133-6.012-.237-9.029-.209A81.82,81.82,0,0,0,50.1,78.623l-7.234,1.122c-1.711.245-3.655.513-5.8.7l-1.644.12c-.561.036-1.134.052-1.715.08s-1.178,0-1.783.028a13.584,13.584,0,0,1-1.88-.124c-2.509-.317-5.018-1.07-7.643-1.146h-.489l-.7.032-.934.08-.457.04h-.281c-.032,0,0-.024,0-.036l.048-.1,1.3-2.7q.9-1.9,1.8-3.864c2.4-5.23,4.694-10.789,6.73-16.372,1-2.806,1.947-5.611,2.805-8.368.217-.69.4-1.387.6-2.073s.4-1.37.569-2.056.357-1.366.533-2.04.317-1.35.473-2,.3-1.331.425-2,.273-1.307.4-1.956c.208-1.295.4-2.557.609-3.82.4-2.5.878-4.861,1.411-7.021a68.5,68.5,0,0,1,3.451-10.317c1.07-2.476,1.851-3.943,1.984-4.208A61.1,61.1,0,0,1,46.146,4.787Z" fill="#221f1f"/>
    <path id="Path_20136" data-name="Path 20136" d="M24.793,80.9a12.628,12.628,0,0,1,0,1.507c-.02.248-.045.493-.077.741a2.352,2.352,0,0,1-.056.369l-.028.252a.954.954,0,0,0,0,.169h.778l1.6.084a106.455,106.455,0,0,0,10.793.052c3.607-.14,7.214-.425,10.821-.585,1.559-.076,3.126-.108,4.693-.124L58,83.413l9.342.1,29.053.212.781-2.152,3.243-8.925,3.05-8.565c.168-.481.328-.99.517-1.431.513-1.2.9-1.371.8-.4a3.347,3.347,0,0,1-.112.7c-.8,2.212-1.062,4.1-1.92,6.432-1.583,4.3-3.054,8.649-4.581,12.978q-.465,1.278-.922,2.573l-3.667-.04-7.034-.141c-3.206-.048-18.291-.164-32.736-.256-3.607,0-7.154.22-10.492.4s-6.449.332-9.142.34-4.95-.068-6.577-.18c-.8-.044-1.471-.092-1.948-.14l-.914-.085-.765-.076-.373-.044h-.072v-.024l.028-.1.06-.188c.149-.481.3-.962.4-1.235C24.235,82.519,24.488,81.793,24.793,80.9Z" fill="#221f1f"/>
    <path id="Path_20137" data-name="Path 20137" d="M132.523,114.522a30.019,30.019,0,0,1-5.755,1.234,21.8,21.8,0,0,1-5.839-.172c-.129-.028-.3.953-.157.969a22.665,22.665,0,0,0,6.1.177,30.8,30.8,0,0,0,5.944-1.271C132.92,115.427,132.624,114.485,132.523,114.522Z" fill="#232020"/>
    <path id="Path_20138" data-name="Path 20138" d="M118.171,14.69c-.052.1-.168.072-.34,0-.056-.028-.161-.164-.149-.2a1.089,1.089,0,0,1,.085-.213,4.367,4.367,0,0,1,.7-.561,2.673,2.673,0,0,1,.561-.28,7.867,7.867,0,0,1,1.2-.349,1.105,1.105,0,0,1,.281-.024,8.665,8.665,0,0,0,.966-.036.325.325,0,0,0,.164,0,1.693,1.693,0,0,1,.541,0,2.794,2.794,0,0,1,.557.12,4.215,4.215,0,0,1,.782.449c.032.024.08.032.1.084a.405.405,0,0,0,.18.213,1.043,1.043,0,0,1,.245.284.661.661,0,0,1,.06.184c0,.057-.092.1-.112.1s-.072.048-.1.08-.025.024-.037.028a1.552,1.552,0,0,1-.292-.136c-.144-.06-.3-.105-.321-.125a2.312,2.312,0,0,0-.4-.168l-.3-.076-.184-.024a.369.369,0,0,1-.141-.048,2.4,2.4,0,0,0-.36,0,2.019,2.019,0,0,1-.369,0,1.437,1.437,0,0,1-.429-.028.2.2,0,0,0-.084,0c-.249.04-.5.052-.746.1a2.034,2.034,0,0,0-.376.1h-.069a.324.324,0,0,0-.088,0,4.469,4.469,0,0,0-.849.337,3.452,3.452,0,0,0-.453.176C118.384,14.69,118.191,14.65,118.171,14.69Z" fill="#221f1f"/>
    <path id="Path_20139" data-name="Path 20139" d="M120,20.99a3.091,3.091,0,0,1-1.551-.657,2.331,2.331,0,0,1-.762-1.563,3.835,3.835,0,0,1-.024-.4v-.356a.237.237,0,0,0-.084,0,.393.393,0,0,0-.084,0h-.485a3.63,3.63,0,0,0-.657.08,4.1,4.1,0,0,0-.577.156l-.085.032h-.036c-.032,0-.028.032-.024.06v.349a2.913,2.913,0,0,1-.084.453,2.875,2.875,0,0,1-1.174,1.743,6.119,6.119,0,0,1-1.844.722,4.782,4.782,0,0,1-.99.132,2.321,2.321,0,0,1-1.058-.2,1.681,1.681,0,0,1-.729-.838,4.02,4.02,0,0,1-.273-.962c-.1-.569-.132-1.126-.216-1.655-.024-.132-.048-.261-.08-.4s-.076-.212-.125-.4a.83.83,0,0,1,.093-.593,1.135,1.135,0,0,1,.4-.373,5.373,5.373,0,0,1,2.1-.725,9.306,9.306,0,0,1,2.168-.068c.453.044.369.236,0,.4a6.417,6.417,0,0,1-1.8.444,8.634,8.634,0,0,0-.994.181,3.805,3.805,0,0,0-.441.148c-.152.064-.328.14-.464.2a1.038,1.038,0,0,0-.273.181v.06l.072.24c.032.1.048.2.072.3.036.2.064.4.088.569a10.064,10.064,0,0,0,.321,2,1.113,1.113,0,0,0,.437.6,1.719,1.719,0,0,0,.85.136,5.142,5.142,0,0,0,2.328-.737,1.957,1.957,0,0,0,.694-.878,3.008,3.008,0,0,0,.176-.565c0-.1.032-.2.04-.3V18.1a1.714,1.714,0,0,1,.048-.265h0l.052.032h0l.02-.024.036-.048c.032-.032.048-.072.092-.1a1.525,1.525,0,0,1,.273-.124l.2-.068a5.476,5.476,0,0,1,.758-.185,4.259,4.259,0,0,1,.781-.064,3.352,3.352,0,0,1,.4,0,2.181,2.181,0,0,1,.253.04,1,1,0,0,1,.272.056l.281.068h.068v.209l-.04.541a3.046,3.046,0,0,0,.036.661,1.508,1.508,0,0,0,.617,1.03,3.057,3.057,0,0,0,1.563.441,3.892,3.892,0,0,0,1.655-.3,3.476,3.476,0,0,0,.561-.3l.133-.088c.04-.036.092-.068.108-.084a2,2,0,0,0,.176-.225,2.837,2.837,0,0,0,.377-1.2c.056-.437.064-.894.128-1.359s.137-.9-.108-1.094a1.885,1.885,0,0,0-.866-.289,8.75,8.75,0,0,0-1.01-.1,7.837,7.837,0,0,0-2,.145,3.891,3.891,0,0,0-.4.116l-.189.072a.972.972,0,0,0-.144.064.058.058,0,0,0-.044.044l-.044.1-.12.289c-.072.172-.133.313-.181.433a1.372,1.372,0,0,1-.469.6c-.16.1-.268-.425,0-1.271l.077-.236.04-.116.024-.056.036-.093.084-.188c0-.04.04-.052.072-.068l.092-.048.181-.088.12-.056a4.484,4.484,0,0,1,1-.285,8.2,8.2,0,0,1,2.028-.1,8.722,8.722,0,0,1,1.018.12c.172.032.344.068.525.12a1.764,1.764,0,0,1,.617.3,1.228,1.228,0,0,1,.425.7,2.121,2.121,0,0,1,.024.646c-.04.4-.088.641-.1.969a7.514,7.514,0,0,1-.213,1.551,2.782,2.782,0,0,1-.364.8,1.585,1.585,0,0,1-.137.188l-.08.093a.555.555,0,0,1-.12.112,3.517,3.517,0,0,1-.349.244,4.636,4.636,0,0,1-3.166.621Z" fill="#221f1f"/>
    <path id="Path_20140" data-name="Path 20140" d="M116.937,25.511c-.068,0-.072-.076-.028-.22a.6.6,0,0,1,.112-.176.742.742,0,0,1,.108-.057,2.335,2.335,0,0,0,.313,0,.836.836,0,0,1,.2,0,1.5,1.5,0,0,0,.4,0,.471.471,0,0,1,.092,0,.452.452,0,0,0,.317-.036.046.046,0,0,0,.044-.036,1.255,1.255,0,0,1,.3-.164,1.148,1.148,0,0,0,.272-.092h.044c.044,0,.072,0,.1-.028a.432.432,0,0,1,.105-.08.309.309,0,0,1,.1,0,.2.2,0,0,1,.1.064.338.338,0,0,0,.092.056h.032a.5.5,0,0,1,0,.188.621.621,0,0,1-.064.2s-.084.1-.172.2a1.523,1.523,0,0,1-.225.2.2.2,0,0,1-.084.032,2.827,2.827,0,0,1-.365.213.361.361,0,0,1-.244.032.056.056,0,0,0-.044,0,1.425,1.425,0,0,1-.4.032h-.293a3.406,3.406,0,0,1-.484-.084c-.041,0-.189-.12-.229-.132S116.961,25.511,116.937,25.511Z" fill="#221f1f"/>
    <path id="Path_20141" data-name="Path 20141" d="M139.521,29.323s-7.378,5.731-16.432-.429a20.814,20.814,0,0,0,1.9-2.553,17.165,17.165,0,0,0,2.481-8.324c3.791,0,4.031-5.447,1.723-5.439-1.443,0-2.3,1.763-2.3,1.763-2,.682-3.711-6.484-3.711-6.484-3.607,2.942-10.749,5.5-12.8,4.621a21.4,21.4,0,0,0-.4,3.314s-2.068-1.346-2.8-.084c-1.126,1.936.084,4.08,2.645,4.305,1.575,8.592,6.364,10.508,6.364,10.508a15.626,15.626,0,0,1-16.917,3.607c-6.132-2.248-1.623-10.392.217-14.9,2.4-5.964,2.284-13.454,7.274-18.164a14.2,14.2,0,0,1,8.525-3.887c4.06-.281,7.266,3.106,8.228,2.845,2.641-.717,6.04-1.274,8.492-.336,5.03,1.92,4.641,8.288,5.647,12.925C138.419,16.193,143.232,26.165,139.521,29.323Z" fill="#221f1f"/>
    <path id="Path_20142" data-name="Path 20142" d="M139.349,29.118a9.605,9.605,0,0,1-2.4,1.668c-.224.128-.461.22-.7.328a7.353,7.353,0,0,1-.73.285l-.761.248-.8.185a12.734,12.734,0,0,1-6.589-.361c-.4-.14-.8-.269-1.2-.4l-1.15-.537a5.661,5.661,0,0,1-.569-.276l-.541-.329-1.487-.9.465-.553.356-.433.517-.649a9.633,9.633,0,0,0,.838-1.234v-.028h0a20.154,20.154,0,0,0,1.876-4.457,14.546,14.546,0,0,0,.46-2.357c0-.2.041-.4.045-.6v-.934c-.085-.272.212-.188.4-.216h.525a1.97,1.97,0,0,0,.265-.052,1.41,1.41,0,0,0,.248-.072,2.939,2.939,0,0,0,1.668-3.495,1.231,1.231,0,0,0-.485-.726.69.69,0,0,0-.361-.108,1.316,1.316,0,0,0-.437.056,2.116,2.116,0,0,0-.83.545,3.621,3.621,0,0,0-.352.4c-.052.076-.108.152-.157.232l-.036.057-.072.128-.136.268a1.94,1.94,0,0,1-.914.073,1.735,1.735,0,0,1-.629-.3,3.643,3.643,0,0,1-.774-.85,10.6,10.6,0,0,1-.965-1.851c-.265-.63-.493-1.267-.7-1.908-.1-.325-.2-.645-.292-.97l-.069-.236-.2.144c-.28.2-.561.4-.846.569-.573.365-1.158.7-1.755,1.01a29.656,29.656,0,0,1-3.695,1.631,23.134,23.134,0,0,1-2.918.85,11.315,11.315,0,0,1-1.543.224,6.706,6.706,0,0,1-.8,0l-.212-.024h-.132l-.036.221c-.04.272-.072.549-.1.829l-.081.846-.116,1.667A11.615,11.615,0,0,0,109.186,16c-.117-.056-.145-.064-.193-.084a.889.889,0,0,0-.14-.053c-.048-.012-.188-.06-.281-.084a.915.915,0,0,0-.837.088c-.052.024-.072.1-.12.137l-.129.256a2.283,2.283,0,0,0-.176.541,2.075,2.075,0,0,0,.056,1.086,2.461,2.461,0,0,0,1.6,1.491,1.721,1.721,0,0,0,.289.08,2.366,2.366,0,0,0,.4.077l.573.08c.052.2.092.429.144.649l.144.689c.052.217.088.437.153.654a17.173,17.173,0,0,0,2,4.9,11.052,11.052,0,0,0,1.6,2.076,9.372,9.372,0,0,0,.97.866c.172.124.344.257.525.365.024,0,.144.1.232.144s.2.1.309.152l.645.293c-.309.345-.669.741-1.01,1.05-.2.2-.421.369-.633.553l-.658.517-.681.477c-.224.164-.473.293-.709.441a7.314,7.314,0,0,1-.726.4l-.741.38-.77.325A14.9,14.9,0,0,1,107,35.587a15.177,15.177,0,0,1-2.088.12h-.26l-.261-.02-.521-.044c-.344-.032-.693-.052-1.038-.092l-1.026-.2-.509-.1-.256-.052-.249-.076-.994-.3a9.463,9.463,0,0,1-1-.341,5.248,5.248,0,0,1-1.831-1.227A4.521,4.521,0,0,1,95.88,31.3,8.8,8.8,0,0,1,96,27.05a27.33,27.33,0,0,1,1.3-3.943c.513-1.267,1.079-2.5,1.6-3.74a32.166,32.166,0,0,0,1.266-3.787c.7-2.589,1.2-5.262,2.088-7.872a20.452,20.452,0,0,1,1.667-3.8,14.611,14.611,0,0,1,9.972-7.034,10.619,10.619,0,0,1,2.12-.184,8.7,8.7,0,0,1,2.124.361,16.416,16.416,0,0,1,3.768,1.771c.3.176.589.353.873.5a3.178,3.178,0,0,0,.4.188.736.736,0,0,0,.164.049.271.271,0,0,0,.057,0,24.117,24.117,0,0,1,4.28-.8,10.537,10.537,0,0,1,4.429.457A6.77,6.77,0,0,1,135.573,2.1a12.572,12.572,0,0,1,1.511,4.173c.313,1.527.493,3.058.73,4.557a21.993,21.993,0,0,0,.437,2.2c.2.713.44,1.439.681,2.16a43.727,43.727,0,0,1,2.4,8.958,9.087,9.087,0,0,1-.133,3.242,4.264,4.264,0,0,1-.769,1.563,2.072,2.072,0,0,1-.653.565c-.125.056-.137,0-.04-.168a6.245,6.245,0,0,0,.509-.874,4.442,4.442,0,0,0,.236-.645c.048-.229.116-.457.156-.689a8.97,8.97,0,0,0,0-3.355,23.508,23.508,0,0,0-.769-3.138c-.629-2.064-1.459-4.084-2.229-6.493a12.956,12.956,0,0,1-.4-1.539c-.093-.529-.2-1.034-.277-1.551l-.461-3.082A23.591,23.591,0,0,0,135.862,5a8.885,8.885,0,0,0-1.226-2.7A5.869,5.869,0,0,0,132.483.418a6.725,6.725,0,0,0-2.805-.709,19.289,19.289,0,0,0-6.012.8,1.085,1.085,0,0,1-.341.028,1.4,1.4,0,0,1-.272-.048,2.69,2.69,0,0,1-.4-.152c-.248-.112-.465-.236-.681-.357l-1.243-.717a9.941,9.941,0,0,0-4.981-1.575,12.389,12.389,0,0,0-5.114,1.322,14.528,14.528,0,0,0-2.914,1.86,13.572,13.572,0,0,0-2.321,2.5,17.394,17.394,0,0,0-1.659,3.018,31.539,31.539,0,0,0-1.138,3.3c-.177.622-.4,1.479-.665,2.545s-.562,2.349-.958,3.8c-.1.36-.213.733-.325,1.114s-.252.769-.381,1.17-.3.8-.461,1.2-.348.8-.525,1.23a50.439,50.439,0,0,0-2.116,5.366,13.279,13.279,0,0,0-.589,3.006,5.022,5.022,0,0,0,.613,2.938,4.416,4.416,0,0,0,2.525,1.756c.541.16,1.082.344,1.635.493l1.7.328a14.924,14.924,0,0,0,6.917-.693,15.107,15.107,0,0,0,3.207-1.543,16.737,16.737,0,0,0,1.442-1.026c.233-.185.449-.4.67-.573l.136-.133s.06-.044.048-.06l-.068-.032-.152-.1c-.217-.144-.437-.293-.638-.457a7.543,7.543,0,0,1-.593-.509c-.2-.168-.369-.357-.549-.541a13.951,13.951,0,0,1-1.795-2.405,19.49,19.49,0,0,1-2.044-5.382c-.049-.229-.1-.457-.149-.681v-.085c0-.024-.08,0-.116-.028H109.3l-.164-.04c-.121-.032-.245-.056-.361-.1a4.29,4.29,0,0,1-.689-.289,3.053,3.053,0,0,1-1.556-3.819,3.9,3.9,0,0,1,.3-.653,1.457,1.457,0,0,1,.641-.585,1.655,1.655,0,0,1,.8-.149,3.051,3.051,0,0,1,.709.121c.108.036.217.068.321.108l.156.064h.044l.105.056v-.088a1.216,1.216,0,0,1,.02-.241c.028-.316.06-.609.084-.889s.064-.546.1-.8v-.1a.333.333,0,0,1,.028-.152l.072-.325c.064-.189.128-.4.205-.577.184.068.364.128.553.18l.14.044h.112l.132.02a4.81,4.81,0,0,0,.537,0,7.925,7.925,0,0,0,1.087-.108,16.356,16.356,0,0,0,2.024-.481,26.407,26.407,0,0,0,3.4-1.274,25.942,25.942,0,0,0,2.677-1.383c.4-.233.77-.473,1.123-.714l.26-.18.4-.3c.26-.189.585-.457.878-.682.116.493.232.978.356,1.411.068.24.137.477.205.7.136.449.272.862.4,1.239a16.932,16.932,0,0,0,.8,1.924,5.2,5.2,0,0,0,.83,1.242,1.106,1.106,0,0,0,.4.3.251.251,0,0,0,.085.024.073.073,0,0,0,.036,0,.092.092,0,0,0,.052,0v-.024l.052-.085c.06-.1.124-.188.188-.276a4.409,4.409,0,0,1,.425-.509,3.062,3.062,0,0,1,1.134-.722,2.215,2.215,0,0,1,.678-.14,1.7,1.7,0,0,1,.713.1,1.86,1.86,0,0,1,.986.93,3.554,3.554,0,0,1,.244,2.229,4,4,0,0,1-.849,1.827,3.634,3.634,0,0,1-.722.645,3.523,3.523,0,0,1-.837.4,3.949,3.949,0,0,1-.425.108l-.212.032h-.041c-.06,0-.048.041-.048.085a12.417,12.417,0,0,1-.124,1.362c-.06.437-.144.842-.228,1.2a19.015,19.015,0,0,1-1.2,3.51c-.4.87-.725,1.479-.994,1.956l.02-.032a5.914,5.914,0,0,1-.5.8c-.152.212-.288.4-.4.553l-.569.721c-.093.113-.129.153-.157.193l.8.481a7.863,7.863,0,0,0,1.11.581c.353.16.681.332,1,.461l.914.312a10.02,10.02,0,0,0,1.5.4c.216.044.4.1.593.124l.5.056.749.089h.87a15.227,15.227,0,0,0,1.7-.077,16.415,16.415,0,0,0,1.788-.336c.156-.04.316-.072.477-.116l.481-.157a10.446,10.446,0,0,0,1.01-.372A11.629,11.629,0,0,0,139.349,29.118Z" fill="#221f1f"/>
    <path id="Path_20143" data-name="Path 20143" d="M67.336,20.113l-7.367-.028H57.28c-.7,0-1.423-.04-2.112-.064s-1.411-.049-2.128-.141a4.788,4.788,0,0,1-1.11-.244c-.189-.076-.349-.177-.469-.225a.809.809,0,0,0-.377-.052,1.822,1.822,0,0,0-.83.349,2.851,2.851,0,0,1-1.066.465l-.308.044v-.289a1.317,1.317,0,0,1,0-.332.649.649,0,0,1,.04-.173v-.04h0v-.024a.546.546,0,0,1,.172-.176c.152-.1.341-.2.4-.4v-.024h-.136a.574.574,0,0,0-.185,0,.875.875,0,0,0-.332.16,2.228,2.228,0,0,0-.269.245l-.489.529A4.307,4.307,0,0,1,47,20.614a2.147,2.147,0,0,1-.373.14,2.07,2.07,0,0,1-.4.036,1.264,1.264,0,0,1-.4-.064.735.735,0,0,1-.4-.313.708.708,0,0,1-.06-.509,1.418,1.418,0,0,1,.144-.4,2.749,2.749,0,0,1,.425-.59,3.989,3.989,0,0,1,1.1-.869c.269-.141.429-.125.425-.08s-.12.136-.285.3A6.339,6.339,0,0,0,46.23,19.5a1.626,1.626,0,0,0-.2.5H46.1a1.1,1.1,0,0,0,.257,0,.9.9,0,0,0,.228-.057,3.063,3.063,0,0,0,.994-.8l.257-.277.316-.332c.177-.185.361-.317.541-.473a1.308,1.308,0,0,1,.257-.165c.084-.044.172-.1.252-.136a1.782,1.782,0,0,1,.858-.152,1.879,1.879,0,0,1,.4.068c.156.032.332.068.473.1-.068.253-.117.4-.157.513a1.33,1.33,0,0,1-.14.3,1.859,1.859,0,0,1-.493.541c-.12.088-.244.18-.329.252l-.144.117a.177.177,0,0,0-.056.068l-.02.036h0a.175.175,0,0,0,0,.056,1.016,1.016,0,0,0,0,.156l-.5-.4A3.338,3.338,0,0,0,50.15,18.9a2.181,2.181,0,0,1,.8-.28,1.538,1.538,0,0,1,.873.14,2.6,2.6,0,0,0,.686.289,7.967,7.967,0,0,0,.8.132c.541.06,1.094.08,1.656.1l1.691.044h1.687l7.419.04H70.33c2.3,0,4.621,0,6.909-.036,1.78-.024,3.523-.088,5.279-.136l1.158-.032a9.373,9.373,0,0,1,1.535.048,1.942,1.942,0,0,1,.685.18,1.22,1.22,0,0,1,.2.109c.14.112-.449.228-1.507.324-3.143.152-6.457.2-9.784.221l-7.434.032Z" fill="#221f1f"/>
    <path id="Path_20144" data-name="Path 20144" d="M52.082,27.471h-.974a7.311,7.311,0,0,1-1-.076,5.488,5.488,0,0,1-.717-.18,8.744,8.744,0,0,0-1.139-.369,3.027,3.027,0,0,0-1.154,0c-.356.056-.717.136-1.09.176A2.529,2.529,0,0,1,45.269,27a1.178,1.178,0,0,1-.662-.377c-.1-.12,0-.152.129-.136s.344.052.549.1a3.208,3.208,0,0,0,1.286-.088,5.238,5.238,0,0,1,1.475-.16,12.452,12.452,0,0,1,1.739.4,3.336,3.336,0,0,0,.894.112h.946c.4,0,.778-.044,1.17-.076l1.8-.12c.465-.029.926-.077,1.4-.077H56.3c.4.028.505.1.557.293a.747.747,0,0,1,.032.132c0,.145-.16.237-.424.241-.8,0-1.6.048-2.457.112-.625.048-1.271.1-1.92.124Z" fill="#221f1f"/>
    <path id="Path_20145" data-name="Path 20145" d="M51.645,36.649c-.3.024-.609.04-.922.044h-.4a1.907,1.907,0,0,0-.369.06c-.265.064-.549.161-.866.237a1.935,1.935,0,0,1-1.118,0,1.786,1.786,0,0,1-.649-.513A1.058,1.058,0,0,0,47,36.188h-.032a1.027,1.027,0,0,0-.345.116c-.152.073-.3.165-.465.257s-.312.192-.517.288a2.413,2.413,0,0,1-.617.185,3.305,3.305,0,0,1-1.2-.04,1.839,1.839,0,0,1-1.094-.662,1.451,1.451,0,0,1-.149-.284.8.8,0,0,1-.032-.361,1.045,1.045,0,0,1,.249-.557.978.978,0,0,0,.16-.18.1.1,0,0,0-.064-.088.511.511,0,0,0-.116-.032,1.092,1.092,0,0,0-.441,0,2.667,2.667,0,0,0-.565.184,4.241,4.241,0,0,1-1.291.4c-.332,0-.24-.165-.044-.329a3.42,3.42,0,0,1,.934-.641,4.545,4.545,0,0,1,.685-.245,1.947,1.947,0,0,1,.4-.056,1.819,1.819,0,0,1,.509.06,1.443,1.443,0,0,1,.545.225.573.573,0,0,1,.148.184.482.482,0,0,1,.049.245.685.685,0,0,1-.233.456l-.22.221a.635.635,0,0,0-.089.1.225.225,0,0,0-.056.112.136.136,0,0,0,0,.089.7.7,0,0,0,.293.292,2.117,2.117,0,0,0,1.07.237,2.211,2.211,0,0,0,.561-.069,1.652,1.652,0,0,0,.509-.236c.185-.112.373-.237.581-.353.1-.056.213-.112.337-.164a1.078,1.078,0,0,1,.461-.1.919.919,0,0,1,.469.16,1.343,1.343,0,0,1,.292.261c.217.244.373.432.525.46a1.52,1.52,0,0,0,.73-.06c.272-.068.557-.172.873-.244a2.579,2.579,0,0,1,.509-.064h.493c.714-.02,1.443-.125,2.193-.189.28-.024.569-.04.857-.044h.834c.557,0,1.114-.036,1.671-.06.866-.036,1.72-.108,2.6-.072a3.034,3.034,0,0,1,.578.036c.725.084.937.265,1.034.477a1.043,1.043,0,0,1,.06.152c0,.161-.285.185-.774.169a43.888,43.888,0,0,0-4.645.048c-.593.032-1.242,0-1.787.04s-1.167.1-1.78.16Z" fill="#221f1f"/>
  </g>
</svg>
