<svg xmlns="http://www.w3.org/2000/svg" width="164.002" height="191.881" viewBox="0 0 164.002 191.881">
  <g id="Campaign_managers" data-name="Campaign managers" transform="translate(-2.077 -3.64)">
    <path id="Path_20564" data-name="Path 20564" d="M102.781,23.222a2.954,2.954,0,0,1,.661.027,1.283,1.283,0,0,1,.23,0,4.24,4.24,0,0,1,.741.266,1.763,1.763,0,0,0,.324.093c.137.031.3.031.391.173s-.386.767-.5.722a2.335,2.335,0,0,1-.652-.341.948.948,0,0,0-.444-.111,2.627,2.627,0,0,0-.484-.045,1.665,1.665,0,0,0-.293.027.925.925,0,0,0-.4.177.787.787,0,0,0-.169.293v.076c0,.022-.1.067-.3-.036l-.137-.067c-.156-.08-.249-.19-.23-.3a1.053,1.053,0,0,1,.576-.758,1.99,1.99,0,0,1,.688-.226Z" transform="translate(15.143 2.977)" fill="#221f1f"/>
    <path id="Path_20565" data-name="Path 20565" d="M43.309,44.4a6.252,6.252,0,0,1-2.4-.843,10.481,10.481,0,0,1-1.952-1.49,7.541,7.541,0,0,1-.626-.635l-.3-.327-.275-.351a15.513,15.513,0,0,1-2.63-5.567c-.235-.887-.444-1.775-.595-2.662A16.326,16.326,0,0,1,34.2,29.08c.031-.714.839.168.959,1.442a26.137,26.137,0,0,0,1.459,6.654A11.856,11.856,0,0,0,38.8,40.725a8.968,8.968,0,0,0,3.655,2.661,3.665,3.665,0,0,0,2.662-.031,4.651,4.651,0,0,0,1.641-1.264,8.093,8.093,0,0,0,1.153-1.8,12.561,12.561,0,0,0,1-3.145c.054-.235.076-.47.12-.71.134-.887.174-1.153.4-1.331a1.012,1.012,0,0,1,.159-.129c.165-.1.324.3.293,1.012a12.332,12.332,0,0,1-2.075,6.1,6.124,6.124,0,0,1-1.868,1.773,4.108,4.108,0,0,1-1.264.5,4.41,4.41,0,0,1-1.331.067Z" transform="translate(4.891 3.835)" fill="#221f1f"/>
    <path id="Path_20566" data-name="Path 20566" d="M58.039,34.668c-1.055-2.4.3-7.5-.022-10.917-.444-4.684-2.284-8.627-6.588-11.032-3.9-2.182-7.279-1.393-9.728,1.513-.093.1-7.682-6.463-13.888,2.338-2.408,3.415-3.105,8.193-3.274,12.282-.08,1.863.66,4.335-.12,6.091-1.331,3.048-3.952,6.4-2.48,9.843,2.218,5.155,12.42,7.577,18.08-1.654-2.586-3.213-3.464-7.64-3.607-11.658-.151-4.242,2.441-8.583,5.554-10.917,9.759,0,11.485,15.889,8.087,22.818C55.321,49.99,63.2,45.5,63.2,40.386,63.2,36.216,59.078,37.037,58.039,34.668ZM31.22,31.058c0-1.22,1.438-1.566,2.391-1.216A2.037,2.037,0,0,1,34.867,31.8c0,1.277.381,2.741.221,2.741C33.155,34.54,31.172,33.621,31.22,31.058Z" transform="translate(2.958 1.193)" fill="#221f1f"/>
    <path id="Path_20567" data-name="Path 20567" d="M37.352,35.65a17,17,0,0,0,2.347,6.3c.151.235.31.444.479.683l.239.319.124.159a.219.219,0,0,1,.027.045l-.027.039-.053.085-.364.554c-.159.248-.328.492-.509.727s-.35.479-.551.7A13.443,13.443,0,0,1,36.456,47.7a11.663,11.663,0,0,1-3.2,1.592,11.214,11.214,0,0,1-3.549.487,9.879,9.879,0,0,1-6.547-2.639,7.045,7.045,0,0,1-1.526-2.178,5.936,5.936,0,0,1-.444-2.64,12.547,12.547,0,0,1,1.655-4.906c.342-.665.693-1.331,1.016-1.978a8.411,8.411,0,0,0,.417-.971,4.818,4.818,0,0,0,.177-1.015c.106-1.42-.236-2.884-.209-4.436a31.03,31.03,0,0,1,1.495-8.871,14.859,14.859,0,0,1,2.1-4.019,12.2,12.2,0,0,1,3.286-3.141,8.067,8.067,0,0,1,4.379-1.25,10.151,10.151,0,0,1,4.4,1.135c.381.191.75.4,1.113.621.173.107.364.23.52.338s.177.159.24.031l.217-.24c.093-.106.2-.2.307-.3a6.951,6.951,0,0,1,.648-.559,7.755,7.755,0,0,1,.71-.5,7.2,7.2,0,0,1,.763-.4,6.913,6.913,0,0,1,1.659-.515,7.087,7.087,0,0,1,1.725-.062,8.958,8.958,0,0,1,3.266.949,13.659,13.659,0,0,1,2.83,1.881A12.425,12.425,0,0,1,55.645,16a12.658,12.658,0,0,1,1.331,2.218,16.317,16.317,0,0,1,1.331,4.946c.444,3.443-.55,6.805-.293,10.084.106,1.007.293,1.4.2,1.406s-.386-.444-.581-1.331a15.2,15.2,0,0,1-.191-3.708c.05-1.53.244-3.314.2-5.19a16.428,16.428,0,0,0-1.331-5.767,11.561,11.561,0,0,0-3.647-4.564,9.746,9.746,0,0,0-5.38-2.1,6.108,6.108,0,0,0-2.763.63,7.111,7.111,0,0,0-1.208.785l-.283.23-.266.254c-.091.081-.179.167-.262.257l-.377.413c-.058.04-.12.067-.177.1l-.093.05h0v-.067h-.137a.417.417,0,0,1-.107,0,1.466,1.466,0,0,1-.209-.124l-.519-.341c-.28-.182-.568-.35-.865-.51a10.954,10.954,0,0,0-1.832-.8,8.107,8.107,0,0,0-3.9-.363,7.874,7.874,0,0,0-3.548,1.632,12.88,12.88,0,0,0-2.707,3A16.77,16.77,0,0,0,25.756,22.8a35.175,35.175,0,0,0-.749,6.21c0,1.016.164,2.076.221,3.158a8.921,8.921,0,0,1-.036,1.655,5.515,5.515,0,0,1-.177.839c-.044.137-.1.27-.154.408l-.169.368c-.914,1.947-2.084,3.753-2.55,5.767a6.647,6.647,0,0,0-.173,1.645,4.988,4.988,0,0,0,.106.816l.089.4.137.386a6.225,6.225,0,0,0,1.966,2.631,9.522,9.522,0,0,0,6.329,1.96,10.3,10.3,0,0,0,3.3-.719,11.3,11.3,0,0,0,2.919-1.73,13.677,13.677,0,0,0,2.343-2.484,6.272,6.272,0,0,0,.492-.705l.156-.235c.036-.031,0-.053-.022-.08l-.067-.089a13.263,13.263,0,0,1-.976-1.491,20.645,20.645,0,0,1-2.333-8.33,12.894,12.894,0,0,1,1.726-8.429,15.251,15.251,0,0,1,1.947-2.661,13.758,13.758,0,0,1,1.185-1.163,3.469,3.469,0,0,1,.319-.262l.36-.288c.066-.093.177-.062.27-.058h.232l.416.027a7.825,7.825,0,0,1,3.181.979,8.818,8.818,0,0,1,2.514,2.17,15.477,15.477,0,0,1,2.755,5.945,24.963,24.963,0,0,1,.674,6.485,22.22,22.22,0,0,1-.758,5.052c-.1.409-.23.812-.364,1.211l-.221.595-.222.506-.031.076.05.061.154.177c.129.156.266.3.409.444a9.542,9.542,0,0,0,.886.812,6.839,6.839,0,0,0,8.8-.045,6.21,6.21,0,0,0,2.143-3.455c.031-.156.044-.311.07-.444s0-.3.023-.444a7.04,7.04,0,0,0-.071-.839,3.232,3.232,0,0,0-.51-1.309A4.911,4.911,0,0,0,60.627,37a14.077,14.077,0,0,1-1.357-.771,4.1,4.1,0,0,1-.442-.369,2.734,2.734,0,0,1-.325-.377,3.727,3.727,0,0,1-.226-.381,2.583,2.583,0,0,1-.115-.333c-.031-.124.027-.1.146.045a2.865,2.865,0,0,0,.688.682,9.031,9.031,0,0,0,1.628.848,5.575,5.575,0,0,1,2.271,1.6,4.029,4.029,0,0,1,.718,2.288,5.378,5.378,0,0,1-.4,2.346,7.283,7.283,0,0,1-3.105,3.549,7.539,7.539,0,0,1-4.653,1.024,7.921,7.921,0,0,1-4.369-2.008,11.131,11.131,0,0,1-.865-.848l-.5-.581L49.63,43.6l-.044-.054s-.036-.035,0-.061l.12-.258.173-.391a13.438,13.438,0,0,0,.718-2.128,21,21,0,0,0,.6-4.53,22.4,22.4,0,0,0-1.451-9,10.208,10.208,0,0,0-4.068-5.137,7.139,7.139,0,0,0-3.105-.931h-.381l-.089.07a7.918,7.918,0,0,0-.643.546,14.575,14.575,0,0,0-1.18,1.206A14.04,14.04,0,0,0,37.21,28.9a10.193,10.193,0,0,0-.24,1.659,13.846,13.846,0,0,0,0,1.694,27.494,27.494,0,0,0,.4,3.42Z" transform="translate(2.908 1.159)" fill="#221f1f"/>
    <path id="Path_20568" data-name="Path 20568" d="M33.352,31.721s.058.027.053,0,0,0,0-.036V31.52c-.044-.358-.084-.727-.111-1.1-.022-.271-.053-.546-.048-.825v-.328a1.652,1.652,0,0,0-.036-.293,1.809,1.809,0,0,0-.2-.559,1.525,1.525,0,0,0-.887-.728,1.81,1.81,0,0,0-1.083.027,1.32,1.32,0,0,0-.528.36,1.4,1.4,0,0,0-.27.546c-.036.124-.218.133-.383-.036a.711.711,0,0,1,0-.931,1.9,1.9,0,0,1,.887-.618,2.49,2.49,0,0,1,.976-.137,2.4,2.4,0,0,1,.918.249,2.116,2.116,0,0,1,.759.634,2.865,2.865,0,0,1,.478,1.043,2.249,2.249,0,0,1,.076.568v.487a9.633,9.633,0,0,0,.084,1.069l.062.545c0,.067.031.254.039.381a1,1,0,0,1-.031.378c0,.168-.226.146-.363.164a1.865,1.865,0,0,1-.227,0h-.248a5.12,5.12,0,0,1-.7-.129,3.992,3.992,0,0,1-1.885-1.02,3.5,3.5,0,0,1-.887-1.424,1.744,1.744,0,0,1-.1-.36,1.056,1.056,0,0,1,0-.487.334.334,0,0,1,.182-.218.557.557,0,0,1,.128-.058c.142-.039.271.134.324.417a3.107,3.107,0,0,0,1.331,2.019,4.147,4.147,0,0,0,.887.391c.16.039.319.084.484.111s.394.048.336.048Z" transform="translate(4.202 3.541)" fill="#221f1f"/>
    <path id="Path_20569" data-name="Path 20569" d="M46.106,161.74c.039.595.031,1.885-.484,2.288-.989.781-1.389-4.946.444-5.142,2.072,1.446,12.367,4.7,9.785,5.767C52.742,165.9,48.426,163.58,46.106,161.74Z" transform="translate(6.504 23.642)" fill="#221f1f"/>
    <path id="Path_20570" data-name="Path 20570" d="M55.423,163.941a13.408,13.408,0,0,0-1.991-1.149c-.705-.35-1.429-.683-2.156-1.007l-1.611-.688q-.932-.411-1.859-.852c-.31-.151-.621-.3-.926-.444-.151-.079-.307-.164-.444-.252l-.23-.137c-.05-.031-.067-.05-.1-.071a.351.351,0,0,0-.209.071,1.166,1.166,0,0,0-.262.3,3,3,0,0,0-.338.887,6.294,6.294,0,0,0,0,2.591.927.927,0,0,0,.129.324.139.139,0,0,0,.129.075.21.21,0,0,0,.12-.1.6.6,0,0,0,.08-.182l.027-.092a1.3,1.3,0,0,1,.04-.213,9.064,9.064,0,0,0,.084-.918c0-.341.226-.328.444-.022a1.835,1.835,0,0,1,.271.669,2.3,2.3,0,0,1,.039.479,2.173,2.173,0,0,1-.186.78,1.6,1.6,0,0,1-.422.568,1.516,1.516,0,0,1-.253.142,1.165,1.165,0,0,1-.288.053.881.881,0,0,1-.532-.212,1.433,1.433,0,0,1-.36-.555,1.925,1.925,0,0,1-.123-.363l-.05-.191v-.12a6.99,6.99,0,0,1-.1-1.712,6.165,6.165,0,0,1,.327-1.708,2.818,2.818,0,0,1,.47-.842,1.338,1.338,0,0,1,.2-.191,1.423,1.423,0,0,1,.252-.177,2.089,2.089,0,0,1,.674-.186l.444.305a34.2,34.2,0,0,0,3.922,1.837c1.473.652,2.958,1.286,4.391,2.084.221.124.444.258.656.4a3.98,3.98,0,0,1,.64.514.79.79,0,0,1,.248.949.889.889,0,0,1-.4.338,3.652,3.652,0,0,1-.408.146,7.492,7.492,0,0,1-4.592-.244,17.768,17.768,0,0,1-3.216-1.379c-.221-.124-.444-.24-.665-.381-.812-.52-1.012-.767-1.038-1.065a.643.643,0,0,1,0-.2c.04-.191.417-.058.993.288a17.525,17.525,0,0,0,5.643,2.329,6.039,6.039,0,0,0,2.192,0,5.738,5.738,0,0,0,.634-.177m0-.022h0l-.053-.05-.2-.159Z" transform="translate(6.435 23.582)" fill="#221f1f"/>
    <path id="Path_20571" data-name="Path 20571" d="M48.839,161.908c.071.595.12,1.885-.377,2.311-.954.82-1.606-4.88.217-5.159,2.139,1.353,12.567,4.142,10.034,5.322C55.648,165.772,51.244,163.647,48.839,161.908Z" transform="translate(6.921 23.668)" fill="#221f1f"/>
    <path id="Path_20572" data-name="Path 20572" d="M58.256,163.7a13.9,13.9,0,0,0-2.044-1.06q-1.079-.472-2.218-.909l-1.633-.612c-.634-.252-1.269-.5-1.9-.772-.316-.133-.63-.271-.945-.417-.16-.075-.316-.151-.47-.235l-.236-.128a.615.615,0,0,1-.1-.062.331.331,0,0,0-.2.08,1.174,1.174,0,0,0-.249.31,3,3,0,0,0-.3.887,6.38,6.38,0,0,0,.107,2.591.846.846,0,0,0,.142.319.145.145,0,0,0,.129.07.217.217,0,0,0,.12-.106.575.575,0,0,0,.07-.182l.022-.1a.609.609,0,0,1,.027-.212,9.154,9.154,0,0,0,.05-.923c0-.341.213-.338.444-.04a1.8,1.8,0,0,1,.3.657,2.434,2.434,0,0,1,.061.475,2.13,2.13,0,0,1-.154.789,1.609,1.609,0,0,1-.391.585,1.731,1.731,0,0,1-.249.156,1.236,1.236,0,0,1-.288.062.831.831,0,0,1-.537-.187,1.456,1.456,0,0,1-.386-.54,1.867,1.867,0,0,1-.137-.355l-.062-.191-.026-.12a7.172,7.172,0,0,1-.173-1.7,5.918,5.918,0,0,1,.266-1.708,2.729,2.729,0,0,1,.444-.865,1.274,1.274,0,0,1,.182-.2,1.4,1.4,0,0,1,.248-.187,1.942,1.942,0,0,1,.666-.212l.444.283A33.449,33.449,0,0,0,53.27,160.6c1.5.585,3.012,1.153,4.481,1.89.226.115.442.235.669.368a4.036,4.036,0,0,1,.665.484.8.8,0,0,1,.293.94.94.94,0,0,1-.386.355,4.133,4.133,0,0,1-.4.164,7.531,7.531,0,0,1-4.6-.039,17.745,17.745,0,0,1-3.274-1.234c-.227-.119-.444-.221-.683-.354-.83-.479-1.043-.719-1.087-1.016a1.057,1.057,0,0,1-.022-.2c.031-.191.416-.076,1.011.243a17.605,17.605,0,0,0,5.741,2.076,6.1,6.1,0,0,0,2.187-.115,5.9,5.9,0,0,0,.625-.2v-.027h0a.311.311,0,0,0-.053-.05c-.062-.048-.133-.1-.209-.15Z" transform="translate(6.845 23.606)" fill="#221f1f"/>
    <path id="Path_20573" data-name="Path 20573" d="M49.193,72.808l.311,3.149.128,1.584.045.8.022.479-.027.705h-.413a.258.258,0,0,0-.1-.027l-.23-.031h-.115v.04c.036.36-.084.146-.089.226a1.442,1.442,0,0,0-.271.053c-.2.059-.372.124-.634.222a6.432,6.432,0,0,1-1.477.315c-.244.026-.493.045-.736.053h-.4a4.692,4.692,0,0,1-.616-.027,1.152,1.152,0,0,1-.3-.026V76.4c0-.763-.027-1.521-.062-2.284A140.344,140.344,0,0,0,42.7,58.058c-.346-2.364-.746-4.734-1.163-7.07-.536-3-1.13-6.007-1.548-9.032-.257-1.885.918.363,1.53,3.823,1.082,6.13,2.151,12.279,2.772,18.551.381,3.745.732,7.657.794,11.534,0,.705.031,1.415,0,2.124v1.465c0,.053-.036.164.058.137h.772a7.532,7.532,0,0,0,1-.133,5.485,5.485,0,0,0,.962-.293A4.064,4.064,0,0,1,48.439,79l.151-.026H48.7a.327.327,0,0,1,.106,0c.04,0,.076.076.071.081V78.92a1.261,1.261,0,0,0,0-.187l-.022-.417c0-.293-.027-.585-.054-.887-.053-.59-.092-1.18-.154-1.773-.24-2.582-.532-5.168-.817-7.75-.444-3.917-.887-7.847-1.331-11.728-.341-3.021-.713-5.98-1.015-8.974-.067-.657-.129-1.3-.195-1.969-.2-2.472-.147-3.274.058-3.811a1.991,1.991,0,0,1,.137-.35c.173-.24.315.758.475,2.55.244,2.662.55,5.4.865,8.18s.634,5.593.958,8.428L49.2,72.852Z" transform="translate(5.768 5.695)" fill="#221f1f"/>
    <path id="Path_20574" data-name="Path 20574" d="M43.335,28.835a.652.652,0,0,0,.274.209.875.875,0,0,0,.4.027.214.214,0,0,0,.128-.089,1.1,1.1,0,0,0,.209-.55,3.89,3.89,0,0,0,.05-.758,3.829,3.829,0,0,0-.084-.7,2.586,2.586,0,0,1-.124-.914c.027-.195.852-.062.914.275a5.466,5.466,0,0,1,.048,1.965c-.04.209-.067.422-.129.652a1.256,1.256,0,0,1-.4.693,1.05,1.05,0,0,1-.444.212,2.263,2.263,0,0,1-.4,0,1.362,1.362,0,0,1-.771-.252,1.777,1.777,0,0,1-.577-.722,5.226,5.226,0,0,1-.336-1.22c-.058-.311-.146-.612-.2-.918a1.637,1.637,0,0,0-.039-.2c0-.257.039-.338.257-.4l.151-.035a.336.336,0,0,1,.368.252c.16.514.222,1.046.338,1.539a2.223,2.223,0,0,0,.377.887Z" transform="translate(6.059 3.401)" fill="#221f1f"/>
    <path id="Path_20575" data-name="Path 20575" d="M40.453,30.039a1.306,1.306,0,0,1-.693.665c-.074.029-.15.054-.226.076a1.889,1.889,0,0,1-.213.027,1.432,1.432,0,0,1-.444,0,1.28,1.28,0,0,1-.31-.081,1.994,1.994,0,0,1-.28-.142,2.226,2.226,0,0,1-.63-.732,4.425,4.425,0,0,1-.358-.789c-.089-.235-.177-.444-.266-.693a2.228,2.228,0,0,1-.24-.887c0-.2.842-.142.931.169.173.562.324,1.122.51,1.65a1.236,1.236,0,0,0,.585.665.668.668,0,0,0,.408.071.494.494,0,0,0,.36-.146.9.9,0,0,0,.218-.542,3.363,3.363,0,0,0-.058-1.1,6.014,6.014,0,0,0-.28-.842l-.071-.187c-.066-.24-.027-.336.177-.444a1.051,1.051,0,0,1,.143-.062.329.329,0,0,1,.408.173,4.671,4.671,0,0,1,.5,1.647,4.267,4.267,0,0,1,.027.718,2.194,2.194,0,0,1-.187.808Z" transform="translate(5.287 3.511)" fill="#221f1f"/>
    <path id="Path_20576" data-name="Path 20576" d="M40.211,41.588l.595,2.218s2.684,3.451,4.715.444l-.182-2.635S41.968,43.345,40.211,41.588Z" transform="translate(5.807 5.779)" fill="#221f1f"/>
    <path id="Path_20577" data-name="Path 20577" d="M45.866,42.466l.045,1.228a6.133,6.133,0,0,1,0,.772l-.5.6-.381.336a2.521,2.521,0,0,1-.444.275,2.327,2.327,0,0,1-1.775.048,4.42,4.42,0,0,1-1.42-.887c-.182-.164-.355-.332-.523-.514a3.073,3.073,0,0,1-.275-.324l-.111-.381a11.625,11.625,0,0,1-.444-1.731c-.053-.372.732-.1.918.568l.235.887.058.221.027.112h0l.067.08.137.16a5.33,5.33,0,0,0,1.281,1.068,1.642,1.642,0,0,0,1.775-.066,5.121,5.121,0,0,0,.413-.36l.182-.222.067-.075s.036-.031.027-.053l-.044-1.158-.031-.666a2.343,2.343,0,0,0,0-.336l-.071.031-.137.058-.182.062c-.187.07-.373.128-.563.186a9.048,9.048,0,0,1-1.158.249,4.575,4.575,0,0,1-1.868-.044,2.824,2.824,0,0,1-.4-.138c-.5-.244-.572-.444-.532-.643a1.142,1.142,0,0,1,.036-.137c.075-.134.3-.089.559.053a4.261,4.261,0,0,0,2.857.07c.249-.066.5-.137.741-.226l.218-.08.381-.168c.252-.112.519-.254.772-.373l.092,1.518Z" transform="translate(5.781 5.682)" fill="#221f1f"/>
    <path id="Path_20578" data-name="Path 20578" d="M30.828,57.245a24.493,24.493,0,0,1,.444-4.818,14.623,14.623,0,0,1,.444-1.725,8.113,8.113,0,0,1,3.912-4.849,4.629,4.629,0,0,1,1.389-.4,4.562,4.562,0,0,1,4.436,2.064c.186.336-.036.385-.373.252a6.284,6.284,0,0,1-1.25-.736,3.884,3.884,0,0,0-2.9-.719,3.76,3.76,0,0,0-1.442.546c-.222.151-.444.31-.669.475a3.83,3.83,0,0,0-.608.567,7,7,0,0,0-1.161,1.686,12.121,12.121,0,0,0-.728,1.978,19.984,19.984,0,0,0-.665,4.64c-.031.971,0,1.947.031,2.919a42.521,42.521,0,0,0,.444,4.436c.164,1.13.394,2.218.595,3.353.044.244.092.489.128.741.134.931.067,1.286-.173,1.486a.66.66,0,0,1-.164.111c-.182.026-.244-.266-.373-.928-.368-1.952-.785-4.077-1.02-6.21a42.734,42.734,0,0,1-.307-4.84Z" transform="translate(4.376 6.362)" fill="#221f1f"/>
    <path id="Path_20579" data-name="Path 20579" d="M30.761,75.5a19.762,19.762,0,0,0,2.276,2.6,7.9,7.9,0,0,0,2.808,1.775,4.312,4.312,0,0,0,2.32.092,4.092,4.092,0,0,0,1.823-.887,4.033,4.033,0,0,0,.928-1.831,16.385,16.385,0,0,0,.319-4.436c-.048-1.331-.187-2.684-.324-4.015-.089-.856-.19-1.717-.244-2.586a9.86,9.86,0,0,1,.112-2.662c.159-.573.336-.391.444.07a11.28,11.28,0,0,1,.336,2.218c.093,1.717.3,3.465.413,5.235a23.8,23.8,0,0,1-.106,5.38,8.478,8.478,0,0,1-.413,1.633,4.158,4.158,0,0,1-.887,1.526,3.187,3.187,0,0,1-.741.559,7.97,7.97,0,0,1-.785.369,5.179,5.179,0,0,1-1.722.338,6.115,6.115,0,0,1-3.549-1.194,14.3,14.3,0,0,1-2.662-2.494A33.448,33.448,0,0,1,28.5,73.6c-1.2-1.876-2.28-3.837-3.372-5.766-.852-1.482-1.712-2.928-2.662-4.3-.213-.3-.444-.585-.652-.887-.856-1.06-1.149-1.206-1.331-1.516-.039-.071-.115-.129-.151-.191s.067-.177.378-.128a2.369,2.369,0,0,1,1.108.66,12.535,12.535,0,0,1,1.5,1.841c.444.652.887,1.331,1.278,2,.816,1.362,1.592,2.76,2.386,4.144a57.266,57.266,0,0,0,3.8,5.975Z" transform="translate(2.779 8.705)" fill="#221f1f"/>
    <path id="Path_20580" data-name="Path 20580" d="M27.687,61.851q1.331,1.49,2.582,3.025c.31.373.638.728.945,1.105Q32.82,67.972,34.3,70.07c.444.616.887,1.251,1.3,1.872.252.444.546.807.772,1.25.115.218.226.444.333.661a4.535,4.535,0,0,1,.239.719c.071.243-.133.315-.421.151a2.548,2.548,0,0,1-.887-.954,51.971,51.971,0,0,0-3.154-4.88C31.8,67.923,31,67,30.225,66.069c-.847-1.021-1.708-2.036-2.581-3.034q-.807-.928-1.633-1.837c-.83-.918-1.672-1.837-2.533-2.719-.168-.168-.338-.341-.506-.5a2.838,2.838,0,0,0-.523-.391,3.692,3.692,0,0,0-1.216-.444c-.187-.031-.377-.044-.563-.058-.71,0-.887.027-1.122-.151-.048-.039-.111-.07-.151-.111-.142-.12.142-.444.786-.514a4.157,4.157,0,0,1,2.785.634,3.874,3.874,0,0,1,.6.484l.47.475.936.967c.918.967,1.818,1.96,2.715,2.954Z" transform="translate(2.632 8.016)" fill="#221f1f"/>
    <path id="Path_20581" data-name="Path 20581" d="M12.093,57.606a15.634,15.634,0,0,0,2.581,1.2c.328.129.669.213,1,.328a29.724,29.724,0,0,0,3.6.985,14.927,14.927,0,0,0,1.645.221c.7.062,1.407.04,2.1.142.444.062-.115.861-.971.83a18.159,18.159,0,0,1-4.391-.767c-.856-.262-1.775-.444-2.621-.758a21.234,21.234,0,0,1-2.782-1.153,7.839,7.839,0,0,1-.816-.47,3.65,3.65,0,0,1-.4-.293c-.067-.062-.129-.111-.195-.177a2.31,2.31,0,0,1-.2-.249.693.693,0,0,1-.058-.887,1.208,1.208,0,0,1,.887-.31,3.972,3.972,0,0,1,1.446.262,2.712,2.712,0,0,1,.528.262,1.848,1.848,0,0,1,.24.182.878.878,0,0,0,.156.075,3.419,3.419,0,0,0,.94.138h.444c.559,0,.732.048.887.266.027.048.067.1.089.146.067.168-.173.328-.612.372a6.622,6.622,0,0,1-1,.031,3.179,3.179,0,0,1-1.127-.235c-.058-.031-.106-.053-.168-.093a2.145,2.145,0,0,1-.173-.133.939.939,0,0,0-.124-.089,1.545,1.545,0,0,0-.333-.165,3.115,3.115,0,0,0-.811-.19,1.6,1.6,0,0,0-.3,0H11.48s-.066-.031.138.137a1.612,1.612,0,0,0,.244.187,2.658,2.658,0,0,0,.283.177Z" transform="translate(1.277 8.011)" fill="#221f1f"/>
    <path id="Path_20582" data-name="Path 20582" d="M19.031,53.688a3.239,3.239,0,0,1,.492-.089,2.326,2.326,0,0,1,.253,0,1.916,1.916,0,0,1,.363.023,2.136,2.136,0,0,1,1.118.413,1.123,1.123,0,0,1,.232.252.536.536,0,0,1,.106.338.582.582,0,0,1-.283.444,2.3,2.3,0,0,1-.714.293,3.4,3.4,0,0,0-.413.133,1.691,1.691,0,0,0-.191.089.933.933,0,0,0-.271.222c-.084.123,0,.381.112.616a4.281,4.281,0,0,0,.305.444,1.628,1.628,0,0,1,.28.6c0,.124-.04.187-.124.177a1.893,1.893,0,0,0-.3-.035.627.627,0,0,1-.585-.191,2.936,2.936,0,0,1-.554-1.331,1.167,1.167,0,0,1,.071-.514,1.077,1.077,0,0,1,.3-.444,1.489,1.489,0,0,1,.333-.235l.173-.081.089-.031h.04a.8.8,0,0,0,.244-.039.263.263,0,0,0,.106-.05.074.074,0,0,0,0-.106.438.438,0,0,0-.213-.134.816.816,0,0,0-.151-.031h-.274a1.5,1.5,0,0,0-1.389,1.407,1.985,1.985,0,0,0,.226.993l.107.2c.128.254.128.347-.028.52-.035.039-.066.084-.1.12-.12.124-.328.08-.489-.129a2.629,2.629,0,0,1-.492-1.113,2.519,2.519,0,0,1,.124-1.331A2.282,2.282,0,0,1,18.1,54.2a2.319,2.319,0,0,1,.915-.532Z" transform="translate(2.328 7.608)" fill="#221f1f"/>
    <path id="Path_20583" data-name="Path 20583" d="M17.243,53.23l.252-.089.133-.036.218-.053A3.415,3.415,0,0,1,18.627,53a1.624,1.624,0,0,1,1.073.368.885.885,0,0,1,.235.373.648.648,0,0,1-.022.315.813.813,0,0,1-.235.3,1.667,1.667,0,0,1-.444.271c-.2.084-.444.159-.665.243l-.16.067-.1.045c-.053.022-.12.066-.142.07a.27.27,0,0,0-.1.112v.212a2.752,2.752,0,0,0,.307.887c.093.191.209.381.307.582a1.984,1.984,0,0,1,.24.7c0,.142-.071.217-.146.186a.97.97,0,0,0-.294-.092A.726.726,0,0,1,17.9,57.3a8.933,8.933,0,0,1-.509-1.194,2.663,2.663,0,0,1-.134-.754.857.857,0,0,1,0-.23.907.907,0,0,1,.071-.285.767.767,0,0,1,.146-.24l.209-.195a2.195,2.195,0,0,1,.27-.137h.174l.133-.04c.08-.036.191-.058.209-.164h0c0-.107-.12-.134-.213-.16a.967.967,0,0,0-.355,0l-.093.022-.123.04a.732.732,0,0,0-.235.093,2.413,2.413,0,0,0-.444.262,1.523,1.523,0,0,0-.444.55,1.876,1.876,0,0,0-.134.741,3.6,3.6,0,0,0,.307,1.189c.031.084.08.164.111.248.129.316.124.444-.048.59a1.281,1.281,0,0,1-.112.112c-.137.106-.341.026-.487-.218a4.011,4.011,0,0,1-.487-1.206,3.107,3.107,0,0,1,0-1.455,2.04,2.04,0,0,1,.629-1.042,3.164,3.164,0,0,1,.936-.6Z" transform="translate(2.063 7.516)" fill="#221f1f"/>
    <path id="Path_20584" data-name="Path 20584" d="M15.186,52.865a3.789,3.789,0,0,1,.551-.2l.279-.067h.138l.2-.071a3.4,3.4,0,0,1,1.552.1.966.966,0,0,1,.612.444,2.009,2.009,0,0,1,.062.195.559.559,0,0,1-.168.444,1.4,1.4,0,0,1-.381.263,3.861,3.861,0,0,1-.728.243,3.885,3.885,0,0,0-.372.12c-.124.045-.195.084-.23.1a.278.278,0,0,0-.137.2,2.373,2.373,0,0,0,.1,1.016c.067.23.146.444.222.691a2.68,2.68,0,0,1,.137.785.213.213,0,0,1-.058.151.09.09,0,0,1-.106,0,2.171,2.171,0,0,0-.285-.128.806.806,0,0,1-.54-.493,8.027,8.027,0,0,1-.3-1.272,2.62,2.62,0,0,1,0-.759,1.5,1.5,0,0,1,.137-.47,1.014,1.014,0,0,1,.173-.235l.222-.182.164-.08h.151a.946.946,0,0,0,.248-.036c.076,0,.174-.044.165-.133s-.053-.076-.084-.1a.744.744,0,0,0-.316-.067,1.828,1.828,0,0,0-.195,0,3.256,3.256,0,0,0-.444.1,2.565,2.565,0,0,0-.51.2.633.633,0,0,0-.266.341,3.482,3.482,0,0,0,0,1.748,8.467,8.467,0,0,0,.444,1.331c.04.1.084.191.124.288.137.364.134.5-.044.657a1.293,1.293,0,0,1-.12.106c-.143.1-.338,0-.489-.27a7.277,7.277,0,0,1-.838-2.688,3.745,3.745,0,0,1,.048-1.189,1.842,1.842,0,0,1,.283-.665,1.432,1.432,0,0,1,.289-.307,1.654,1.654,0,0,1,.181-.115L15.2,52.8Z" transform="translate(1.852 7.438)" fill="#221f1f"/>
    <path id="Path_20585" data-name="Path 20585" d="M14.02,53.871a1.338,1.338,0,0,0-.266.71,2.375,2.375,0,0,0,.058.3,8.722,8.722,0,0,0,.328,1.206,3.518,3.518,0,0,0,.235.515,2.055,2.055,0,0,1,.3.665c0,.16-.683.28-.808.023a5.4,5.4,0,0,1-.506-1.443c-.058-.31-.195-.6-.262-.936a1.787,1.787,0,0,1,0-.616,2.248,2.248,0,0,1,.195-.554,2.951,2.951,0,0,1,.381-.568,5.635,5.635,0,0,1,.719-.688c.191-.168.369-.346.581-.5a.853.853,0,0,1,.138-.1c.182-.111.274-.089.386.067a.9.9,0,0,1,.07.111.279.279,0,0,1-.053.36c-.293.283-.612.528-.887.8a3.469,3.469,0,0,0-.568.657Z" transform="translate(1.675 7.336)" fill="#221f1f"/>
    <path id="Path_20586" data-name="Path 20586" d="M30.275,69.535a8.058,8.058,0,0,1-.993,1.13,3.985,3.985,0,0,1-2.2,1.194,4.881,4.881,0,0,1-.887.1,4.3,4.3,0,0,1-.576-.054,2.022,2.022,0,0,1-.52-.239c-.1-.071,0-.254.187-.414s.369-.3.515-.248a3.124,3.124,0,0,0,1.694-.071,2.355,2.355,0,0,0,.52-.252l.466-.377a6.3,6.3,0,0,0,.918-.976,5.47,5.47,0,0,0,.47-.7c.111-.182.2-.377.3-.563a4.789,4.789,0,0,0,.23-.6,4.478,4.478,0,0,0,.115-.959v-.209c0-.252.062-.328.283-.386a.892.892,0,0,1,.156-.035c.173-.031.307.089.342.31a3.806,3.806,0,0,1-.294,2,6.967,6.967,0,0,1-.319.693c-.124.226-.257.444-.394.657Z" transform="translate(3.5 9.478)" fill="#221f1f"/>
    <path id="Path_20587" data-name="Path 20587" d="M62.65,79.8c.045-.084.115-.182.146-.252a.848.848,0,0,0,.062-.213,4.732,4.732,0,0,0,.084-.595c.024-.21.037-.423.04-.638v-.649c0-.886-.036-1.773-.089-2.634-.115-1.775-.3-3.523-.542-5.274-.173-1.282-.394-2.556-.621-3.824a58.958,58.958,0,0,0-3.663-13.1,13.908,13.908,0,0,0-3.323-4.879c-.244-.187-.5-.36-.758-.52l-.408-.186-.2-.1-.218-.067a4.948,4.948,0,0,0-1.775-.218,4.715,4.715,0,0,0-1.734.444,4.831,4.831,0,0,0-1.437,1.083c-.484.576-.626.408-.355-.28a3.354,3.354,0,0,1,.931-1.2,4.134,4.134,0,0,1,2.019-.914,5.565,5.565,0,0,1,4.169,1.007,10.26,10.26,0,0,1,2.693,3.171,32.118,32.118,0,0,1,2.986,7.511A90.528,90.528,0,0,1,62.8,67.042q.444,2.662.714,5.355a49.483,49.483,0,0,1,.293,5.4,10.225,10.225,0,0,1-.151,1.708,2.37,2.37,0,0,1-.159.444l-.222.377a4.875,4.875,0,0,1-.509.705,7.682,7.682,0,0,1-2.751,2,16.588,16.588,0,0,1-4.924,1.247,34.705,34.705,0,0,1-5.026.177,50.613,50.613,0,0,1-7.652-.8c-.554-.111-1.1-.217-1.658-.364a7.778,7.778,0,0,1-1.309-.442,1.369,1.369,0,0,1-.28-.151,1.3,1.3,0,0,1-.2-.146l-.319-.253A1.771,1.771,0,0,1,38,81.464a.819.819,0,0,1-.045-.333c.04-.124.146,0,.422.182.139.1.33.225.573.372l.4.244c.071.039.165.111.218.133a1.809,1.809,0,0,0,.2.089,20.094,20.094,0,0,0,3.264.772c1.136.2,2.29.355,3.456.479a43.853,43.853,0,0,0,7.1.195,20.012,20.012,0,0,0,5.128-.931,9.673,9.673,0,0,0,2.276-1.113,5.491,5.491,0,0,0,1.659-1.775Z" transform="translate(5.463 6.408)" fill="#221f1f"/>
    <path id="Path_20588" data-name="Path 20588" d="M48.674,74.371c.807-.134,1.614-.275,2.408-.444.288-.067.576-.151.861-.232a23.344,23.344,0,0,0,3.007-.948c.217-.085.444-.177.643-.275s.4-.218.6-.328c.514-.293.962-.657,1.463-.945.156-.089.283.084.288.341a.994.994,0,0,1-.444.83A11.427,11.427,0,0,1,54.018,73.9c-.368.089-.736.2-1.1.324s-.736.221-1.11.319c-.816.2-1.641.372-2.466.523-.506.089-1.016.173-1.526.249-.772.12-1.553.2-2.321.3-.6.076-1.185.191-1.775.258l-.394.048c-.493.027-.657-.027-.759-.248a.754.754,0,0,1-.07-.147c-.045-.173.151-.315.5-.377,1.034-.177,2.12-.3,3.216-.444.812-.115,1.633-.221,2.439-.372Z" transform="translate(6.155 10.285)" fill="#221f1f"/>
    <path id="Path_20589" data-name="Path 20589" d="M41.919,74.732a8.448,8.448,0,0,0-.771-.4c-.1-.044-.205-.07-.3-.115a10.389,10.389,0,0,0-1.055-.444,3.224,3.224,0,0,0-.5-.129,1.343,1.343,0,0,1-.634-.173c-.12-.084.244-.82.492-.763a4.179,4.179,0,0,1,1.291.492,6.052,6.052,0,0,0,.79.311c.288.12.572.257.852.4.168.093.341.182.506.285a4.109,4.109,0,0,1,.377.235c.129.084.249.168.372.257s.2.124.3.2a1.234,1.234,0,0,1,.3.249,1.745,1.745,0,0,1,.124.133c.115.213.08.324-.12.408a.679.679,0,0,1-.137.058.507.507,0,0,1-.4-.026l-.772-.537a6.705,6.705,0,0,0-.722-.416Z" transform="translate(5.567 10.517)" fill="#221f1f"/>
    <path id="Path_20590" data-name="Path 20590" d="M54.668,67.821l.182,1.5c0,.186.062.368.075.55.058.652.089,1.3.089,1.966v.886a2.423,2.423,0,0,1-.177,1.153c-.058.112-.235.023-.4-.123a.663.663,0,0,1-.28-.506c.076-.652.071-1.38.1-2.12a8.3,8.3,0,0,0-.124-1.331c-.053-.5-.12-1-.187-1.5l-.133-.922c-.076-.444-.138-.937-.23-1.393-.071-.36-.182-.705-.263-1.069a1.531,1.531,0,0,1-.048-.249c-.044-.3.036-.444.24-.492a.682.682,0,0,1,.137,0,.364.364,0,0,1,.328.293,18.657,18.657,0,0,1,.444,1.89c.093.5.168,1,.254,1.5Z" transform="translate(7.795 9.219)" fill="#221f1f"/>
    <path id="Path_20591" data-name="Path 20591" d="M33.838,123.15l-.861-.093-.328-.039h-.084a.472.472,0,0,1,0-.081l-.036-.159c-.044-.209-.111-.444-.137-.626-.058-.506-.071-.99-.08-1.468,0-.954.044-1.9.1-2.839.115-1.881.285-3.748.47-5.616.134-1.362.258-2.727.413-4.085.551-4.791,1.194-9.564,1.859-14.337.289-2.121.582-4.25.887-6.353.377-2.7.7-5.417,1.273-8.1.2-.847.381-.669.444.071a16.266,16.266,0,0,1-.177,3.619c-.8,5.5-1.6,10.993-2.4,16.541-.484,3.319-.853,6.792-1.216,10.2-.2,1.871-.386,3.748-.542,5.624s-.3,3.762-.266,5.616a4.847,4.847,0,0,0,.048.842v.4h.1l.772.084.887.124,3.446.54c3.468.551,6.96,1.091,10.433,1.331a45.3,45.3,0,0,0,7.985-.093l1.725-.243a16.031,16.031,0,0,1,3.3-.568,3.012,3.012,0,0,1,.35.048c.133.048,0,.173-.373.355a7.481,7.481,0,0,1-.718.315l-.479.187-.563.142a29.537,29.537,0,0,1-7.408.817,69.786,69.786,0,0,1-7.6-.5c-1.886-.212-3.762-.492-5.634-.78s-3.74-.621-5.59-.856Z" transform="translate(4.604 11.445)" fill="#221f1f"/>
    <path id="Path_20592" data-name="Path 20592" d="M56.71,106.508l-.777-6.494-.3-2.364-.906-8.358c-.142-1.233-.305-2.47-.483-3.691q-.347-2.328-.693-4.666c-.071-.444.129-.493.444-.129a2.3,2.3,0,0,1,.235.35,4.86,4.86,0,0,1,.209.444,5.422,5.422,0,0,1,.288,1.251c.47,3.216.825,6.427,1.118,9.679.177,1.947.467,3.957.7,5.939L57.34,105l.519,4.019c.275,2.022.554,4.058.887,6.059.271,1.553.577,3.07.928,4.583.075.333.146.661.226,1,.3,1.238.342,1.642.187,1.966a1.008,1.008,0,0,1-.1.217c-.137.165-.394-.31-.66-1.224a73.14,73.14,0,0,1-1.722-8.549c-.338-2.173-.63-4.36-.918-6.538Z" transform="translate(7.837 11.714)" fill="#221f1f"/>
    <path id="Path_20593" data-name="Path 20593" d="M43.667,88.054a5.339,5.339,0,0,0,.648-.106c.106-.027.213-.04.315-.076l.134-.044h.031a3.28,3.28,0,0,0,.106-.976V85.845c0-1.193-.048-2.4-.111-3.6-.031-.532-.08-1.069-.137-1.6a10.889,10.889,0,0,1-.12-2.058c0-.221.217-.187.413,0a1.336,1.336,0,0,1,.444.887c.106,1.375.209,2.768.2,4.178,0,.848.084,1.722.089,2.591a12.352,12.352,0,0,1-.058,1.45.653.653,0,0,1-.022.2l-.05.271c-.027.084,0,.19-.067.252l-.266.089-.416.133-.36.085a7.916,7.916,0,0,1-1.775.164A16.04,16.04,0,0,1,40,88.547l-1.991-.355-.444-.076c-.537-.111-.693-.186-.772-.413a.7.7,0,0,1-.05-.151c-.022-.164.222-.243.635-.2,1.22.124,2.439.444,3.65.63a9.72,9.72,0,0,0,2.662.093Z" transform="translate(5.279 11.391)" fill="#221f1f"/>
    <path id="Path_20594" data-name="Path 20594" d="M48.606,88.117V85.678l-.045-.83c-.027-.981-.048-1.961-.1-2.941-.022-.444-.071-.865-.129-1.292-.1-.538-.166-1.082-.209-1.627,0-.165.187-.2.4-.085a.949.949,0,0,1,.492.688,22.751,22.751,0,0,1,.2,3.429c0,.688.071,1.4.1,2.1q.04,1.158.048,2.315v.51a.514.514,0,0,0,.16.053l.293.062a10.083,10.083,0,0,0,2.1.168,13.847,13.847,0,0,0,1.614-.186l.35-.058c.444-.058.59-.027.71.164a.946.946,0,0,1,.075.134c.062.15-.106.3-.444.381a11.392,11.392,0,0,1-3.1.3,9.7,9.7,0,0,1-1.2-.115l-.3-.053-.368-.07L48.7,88.6h-.067s-.053,0-.045-.031v-.444Z" transform="translate(7.012 11.452)" fill="#221f1f"/>
    <path id="Path_20595" data-name="Path 20595" d="M49.525,166.212l-2.91-.039c-2.254-12.922-5.988-48.187-5.988-48.187l6,.82H52.04C51.911,119.427,49.064,163.621,49.525,166.212Z" transform="translate(5.87 17.413)" fill="#221f1f"/>
    <path id="Path_20596" data-name="Path 20596" d="M51.243,123.342l.186-2.484.093-1.246v-.249c0-.04-.031-.022-.053-.027l-4.826.013-3.451-.487-1.708-.244-.311-.044a.631.631,0,0,0,0,.093v.195q.334,3.061.661,6.113c.754,7.19,1.521,14.372,2.373,21.549.373,3.185.789,6.384,1.225,9.533q.432,3.035.887,6.069.226,1.516.475,3.029l.1.648v.12h.2l1.53.048c1.273.045,1.1.258,0,.444-.27.045-.593.093-.971.138l-.6.058-.559.027h-.263v-.031l-.061-.285c-.116-.523-.24-1.087-.373-1.681s-.213-1.087-.3-1.667c-1.259-8.273-2.217-16.564-3.082-24.939-.551-5.008-1.122-10.2-1.686-15.335l-.28-2.662-.142-1.389.023-.54-.031-.275v-.2c0-.027.035,0,.053,0l1.082.151,5.292.744h5.7c.035,0,0,.093,0,.138l-.093,1.069c-.266,3.473-.5,6.955-.733,10.428-.346,5.266-.691,10.557-.975,15.787-.218,4.068-.378,8.056-.524,12.075-.027.887-.053,1.751-.08,2.662-.048,1.654-.106,2.745-.146,3.5a9.154,9.154,0,0,1-.209,1.552,4.384,4.384,0,0,1-.124.484c-.075.173-.168-.067-.266-.693a10.969,10.969,0,0,1-.08-1.166c-.022-.466-.031-1.007-.022-1.615.036-3.61.177-7.305.35-11.054s.381-7.541.607-11.347c.333-5.652.71-11.325,1.1-16.989Z" transform="translate(5.821 17.357)" fill="#221f1f"/>
    <path id="Path_20597" data-name="Path 20597" d="M45.855,118.7s1.166,46.994,1.516,47.375" transform="translate(6.667 17.521)" fill="#221f1f"/>
    <path id="Path_20598" data-name="Path 20598" d="M46.182,147.673l-.133-7.24-.067-2.639-.134-9.316c0-1.375-.066-2.759-.115-4.125-.062-1.775-.159-3.513-.124-5.269.027-1.1.8.275.861,2.293.1,3.585.165,7.164.156,10.78,0,2.164.089,4.409.133,6.622l.146,7.293c.031,1.5.067,2.99.1,4.485.058,2.267.107,4.542.2,6.787.066,1.748.181,3.46.293,5.182,0,.377.048.749.075,1.13.08,1.42.067,1.863-.106,2.182a2.359,2.359,0,0,0-.1.227c0,.061-.039.106-.12,0a1.047,1.047,0,0,1-.137-.285,6.246,6.246,0,0,1-.2-1.185c-.3-3.1-.444-6.343-.532-9.617-.067-2.426-.134-4.879-.2-7.3Z" transform="translate(6.628 17.521)" fill="#221f1f"/>
    <path id="Path_20599" data-name="Path 20599" d="M46.166,47.9c-1.642,2.307-5.035,0-5.035,0L44.1,78.873l4.879-.926Z" transform="translate(5.947 6.74)" fill="#221f1f"/>
    <path id="Path_20600" data-name="Path 20600" d="M40.956,28.845a14.024,14.024,0,0,1-.487-2.293c-.04-.28-.089-.563-.1-.847v-.6a2.863,2.863,0,0,1,0-.315,1.114,1.114,0,0,1,.115-.413,3.261,3.261,0,0,1,1.535-1.265,4.021,4.021,0,0,1,1.379-.283,2.661,2.661,0,0,1,1.735.5c.154.115,0,.275-.222.391a1.142,1.142,0,0,1-.749.12,2.9,2.9,0,0,0-2.631.523c-.067.062-.124.124-.191.191l-.151.2a.339.339,0,0,0,0,.048v.466c0,.227.027.444.05.688a13.226,13.226,0,0,0,.389,2.182,10.151,10.151,0,0,0,.444,1.291,5.891,5.891,0,0,0,1.069,1.731,3.211,3.211,0,0,0,1.251.807c.1.031.2.053.305.089.378.1.493.146.559.386a1.119,1.119,0,0,1,.05.16c.031.168-.177.3-.546.274a3.229,3.229,0,0,1-1.561-.6,4.851,4.851,0,0,1-1.175-1.216,8.585,8.585,0,0,1-1.046-2.187Z" transform="translate(5.83 2.921)" fill="#221f1f"/>
    <path id="Path_20601" data-name="Path 20601" d="M36.983,23.773a4.91,4.91,0,0,1,.887-.293,2.213,2.213,0,0,1,1.549.071c.164.07.346.115.5.2a2.514,2.514,0,0,1,.31.156.683.683,0,0,1,.23.252c.062.124-.629.585-.749.5a4.512,4.512,0,0,0-.812-.444.572.572,0,0,0-.31-.039,2.512,2.512,0,0,0-.319.048,3.8,3.8,0,0,0-.728.2,3.534,3.534,0,0,0-.444.209,3.07,3.07,0,0,0-.612.417,2.522,2.522,0,0,0-.346.444c-.022.036-.04.07-.067.106-.093.12-.168.12-.355,0a1.18,1.18,0,0,1-.129-.084.326.326,0,0,1-.15-.372,2.31,2.31,0,0,1,.754-.918,5.193,5.193,0,0,1,.781-.475Z" transform="translate(5.079 3.007)" fill="#221f1f"/>
    <path id="Path_20602" data-name="Path 20602" d="M44.1,36.7a3.951,3.951,0,0,1-.24.727,1.547,1.547,0,0,1-.6.714,1.038,1.038,0,0,1-.772.128.917.917,0,0,1-.324-.137.865.865,0,0,1-.235-.2,1.648,1.648,0,0,1-.293-.444,3.1,3.1,0,0,1-.222-.931,5.366,5.366,0,0,1,0-.839,2.025,2.025,0,0,1,.124-.559.86.86,0,0,1,.444-.444c.137-.067.191.156.252.368s.177.378.143.444A2.941,2.941,0,0,0,42.289,37a.747.747,0,0,0,.19.391.627.627,0,0,0,.124.089.1.1,0,0,1,.053,0h.071A.331.331,0,0,0,43,37.318a1.8,1.8,0,0,0,.23-.5,2.959,2.959,0,0,0,.133-.722,1.055,1.055,0,0,0-.417-.887.369.369,0,0,0-.3-.062c-.08,0-.128.08-.186.146s-.04.067-.058.115c-.084.151-.142.218-.377.182h-.156c-.173-.027-.271-.182-.222-.422a2.568,2.568,0,0,1,.107-.266,1.588,1.588,0,0,1,.2-.266,1.074,1.074,0,0,1,.722-.305,1.443,1.443,0,0,1,1.18.674,1.985,1.985,0,0,1,.32.861,2.039,2.039,0,0,1,0,.444,1.9,1.9,0,0,1-.058.372Z" transform="translate(5.988 4.674)" fill="#221f1f"/>
    <path id="Path_20603" data-name="Path 20603" d="M118.094,41.159a5.005,5.005,0,0,1-2.01.971,5.217,5.217,0,0,1-2.218,0,7.182,7.182,0,0,1-.763-.195,4.5,4.5,0,0,1-.736-.279,10.862,10.862,0,0,1-4.024-3.51,19.017,19.017,0,0,1-1.3-1.965,9.5,9.5,0,0,1-1.175-2.772c-.067-.31.156-.319.444-.133a2.506,2.506,0,0,1,.816,1.051,17.208,17.208,0,0,0,3.137,4.88,7.549,7.549,0,0,0,2.933,1.916,4.465,4.465,0,0,0,3.677-.115,5.33,5.33,0,0,0,1.775-1.58,11.269,11.269,0,0,0,1.619-3.327,18.262,18.262,0,0,0,.59-2.808c.031-.209.058-.413.084-.626.111-.777.191-1.015.444-1.158a1.043,1.043,0,0,1,.164-.092c.177-.058.285.283.244.887a16.984,16.984,0,0,1-1.216,5.354,8.9,8.9,0,0,1-2.453,3.549Z" transform="translate(15.804 4.229)" fill="#221f1f"/>
    <path id="Path_20604" data-name="Path 20604" d="M110.946,19.079c-2.857.328-4.732,9.049-10.752,9.59-4.538.413-7.19-8.256-2.937-14.125,5.009-6.9,26.891-13.308,31.832,5.151.621,2.329.479,11.365-4.276,14.066-1.308.746-2.568-1.579-1.272-3.233a3.34,3.34,0,0,0,.4-3.793c-1.65-2.662-4.05,1.389-4.219,1.823C119.654,28.714,117.339,17.664,110.946,19.079Z" transform="translate(14.168 0.604)" fill="#221f1f"/>
    <path id="Path_20605" data-name="Path 20605" d="M128.415,19.105a15.893,15.893,0,0,0-4.338-7.3,13.02,13.02,0,0,0-3.549-2.352A15.764,15.764,0,0,0,116.4,8.287a18.751,18.751,0,0,0-3.154-.187,25.455,25.455,0,0,0-8.535,1.806,20.831,20.831,0,0,0-4.88,2.71,11.127,11.127,0,0,0-2,1.9,10.145,10.145,0,0,0-1.415,2.355,11.421,11.421,0,0,0-.887,5.412,10.3,10.3,0,0,0,.475,2.4,7.172,7.172,0,0,0,1.108,2.151,4.444,4.444,0,0,0,.825.852,3.2,3.2,0,0,0,1.012.563,3.781,3.781,0,0,0,2.293,0,6.965,6.965,0,0,0,1.415-.585,8.563,8.563,0,0,0,1.261-.887,14.336,14.336,0,0,0,2.089-2.346c.63-.856,1.206-1.775,1.81-2.662.305-.444.616-.887.962-1.331A5.815,5.815,0,0,1,110,19.256a1.771,1.771,0,0,1,.763-.305c.182,0,.257,0,.253.058a8.2,8.2,0,0,0-.736.6,9.645,9.645,0,0,0-1.3,1.851c-.489.82-1.043,1.814-1.775,2.852a18.167,18.167,0,0,1-2.147,2.621,8.477,8.477,0,0,1-2.911,1.938,6.866,6.866,0,0,1-1.743.413,3.891,3.891,0,0,1-1.876-.252A5.455,5.455,0,0,1,95.9,26.568a11.088,11.088,0,0,1-1.132-6.729,11.587,11.587,0,0,1,2.79-6.211,15.694,15.694,0,0,1,3.194-2.581,23.056,23.056,0,0,1,3.669-1.863,25.053,25.053,0,0,1,8.029-1.846,17.555,17.555,0,0,1,8.871,1.624,14.363,14.363,0,0,1,3.717,2.631,16.332,16.332,0,0,1,2.688,3.66l.621,1.251.51,1.3c.168.444.279.887.421,1.331.067.221.142.442.2.669a7.028,7.028,0,0,1,.123.71,20.9,20.9,0,0,1-.173,5.554,16.869,16.869,0,0,1-1.153,4.058,8.65,8.65,0,0,1-2.514,3.415c-.146.107-.289.222-.444.316a2.785,2.785,0,0,1-.5.274,1.233,1.233,0,0,1-1.22-.2,2.375,2.375,0,0,1-.746-2.1,2.885,2.885,0,0,1,.364-1.073c.218-.338.413-.559.563-.852a3.293,3.293,0,0,0,.4-1.855,2.626,2.626,0,0,0-.54-1.33,1.105,1.105,0,0,0-1.132-.52,2.567,2.567,0,0,0-1.189.777,6.331,6.331,0,0,0-.492.576,7.956,7.956,0,0,0-.59.887,2,2,0,0,1-.16.253.7.7,0,0,1-.151.128l-.115.067-.044.036a.092.092,0,0,1-.053-.031,1.087,1.087,0,0,1-.209-.266,2.411,2.411,0,0,1-.191-.528l-.177-.577-.124-.368-.257-.732a21.471,21.471,0,0,0-1.269-2.813,12.5,12.5,0,0,0-1.535-2.218,5.928,5.928,0,0,0-2.839-1.912,13.359,13.359,0,0,0-1.539-.3c-.173-.031-.4-.044-.509-.07s.062-.209.718-.328a4.555,4.555,0,0,1,2.995.6,8,8,0,0,1,2.178,1.93,14.635,14.635,0,0,1,1.549,2.444,22.358,22.358,0,0,1,1.135,2.662l.235.688.058.168h0v.04l.022-.045h0l.031-.044.12-.16a7.814,7.814,0,0,1,.528-.626,3.663,3.663,0,0,1,1.477-1.007,1.774,1.774,0,0,1,1.083,0,2.089,2.089,0,0,1,.887.573,3.554,3.554,0,0,1,.825,1.619,4.156,4.156,0,0,1-.887,3.34,1.964,1.964,0,0,0-.408,1.1,1.647,1.647,0,0,0,.305,1.074c.369.391.444.355,1.153-.124a6.477,6.477,0,0,0,1.429-1.459,11.717,11.717,0,0,0,1.708-3.877,20.629,20.629,0,0,0,.621-4.3,18.93,18.93,0,0,0-.031-2.17,9.606,9.606,0,0,0-.134-1.042,1.544,1.544,0,0,0-.053-.244l-.08-.257-.16-.523Z" transform="translate(14.098 0.555)" fill="#221f1f"/>
    <path id="Path_20606" data-name="Path 20606" d="M119.842,27.656c.355.341.381.444.355.514a1.954,1.954,0,0,1-.35.489,3.607,3.607,0,0,1-.444.288,3.987,3.987,0,0,1-.8.444c-.084.036-.177.053-.266.084s-.173.067-.266.1c0,0-.031.027-.044,0a.89.89,0,0,1-.076-.444v-.1s.053-.305.1-.305.168-.107.244-.174a.287.287,0,0,1,.106-.039h.164a2.353,2.353,0,0,0,.621-.4,3.675,3.675,0,0,0,.479-.47A.658.658,0,0,1,119.842,27.656Z" transform="translate(17.645 3.654)" fill="#221f1f"/>
    <path id="Path_20607" data-name="Path 20607" d="M124.135,10.139a3.976,3.976,0,0,0-.976-1.428,2.975,2.975,0,0,0-.51-.36,2.018,2.018,0,0,0-2.044-.093,2.3,2.3,0,0,0-1.074,1.171,1.174,1.174,0,0,0-.106.409c0,.053-.115.221-.4.2a.5.5,0,0,1-.36-.328.8.8,0,0,1,0-.554,3.106,3.106,0,0,1,1.088-1.331,2.926,2.926,0,0,1,1.6-.559,3.217,3.217,0,0,1,1.952.545,4.64,4.64,0,0,1,1.362,1.571,4.378,4.378,0,0,1,.444,1.206,3.367,3.367,0,0,1-.1,1.952,2.723,2.723,0,0,1-1.171,1.477c-.372.217-.537.177-.679,0a.687.687,0,0,1-.1-.124c-.084-.151,0-.341.222-.475a3,3,0,0,0,.746-.727,2.122,2.122,0,0,0,.336-.94,3.071,3.071,0,0,0-.271-1.616Z" transform="translate(17.747 0.552)" fill="#221f1f"/>
    <path id="Path_20608" data-name="Path 20608" d="M147.577,28.831c-.83,5.532-8.726,6.53-12.789,4.64C121.8,27.425,130.22,14.206,123.4,14.238c0,0,2.182-1.938-.071-5.137-.794-1.132,5.456-9.36,13.166-2.523,3,2.661,5.59,9.759,4.88,17.175C141.141,26.392,143.554,31.32,147.577,28.831Z" transform="translate(18.454 0.038)" fill="#221f1f"/>
    <path id="Path_20609" data-name="Path 20609" d="M130.652,4.455a7.479,7.479,0,0,0-5.713,2.523,5.905,5.905,0,0,0-.918,1.291,1.768,1.768,0,0,0-.2.6.061.061,0,0,0,0,.04h0l.062.1.24.385a5.617,5.617,0,0,1,.687,1.779,3.983,3.983,0,0,1-.1,1.916c-.053.129-.089.266-.151.4l-.089.19-.031.062-.022.036-.062.1-.062.07h.053a.417.417,0,0,1,.107,0l.146.027a1.04,1.04,0,0,1,.239.081,2.653,2.653,0,0,1,.475.212,2.978,2.978,0,0,1,1.251,1.58,9.4,9.4,0,0,1,.444,2.276c.067.749.1,1.49.146,2.218a25.84,25.84,0,0,0,.542,4.32,12.522,12.522,0,0,0,1.658,3.952,12.077,12.077,0,0,0,2.986,3.074,14.646,14.646,0,0,0,3.367,1.837,11.492,11.492,0,0,0,8.428-.568,5.877,5.877,0,0,0,3.052-3.46c.142-.47.218-.679.307-.652s.151.289.133.755a4.09,4.09,0,0,1-.55,1.849,5.607,5.607,0,0,1-1.957,1.992,10.95,10.95,0,0,1-5.1,1.5,11.593,11.593,0,0,1-5.261-.887,15.273,15.273,0,0,1-4.382-2.954l-.444-.475c-.156-.164-.289-.341-.444-.51a13.232,13.232,0,0,1-.794-1.077,12.7,12.7,0,0,1-1.18-2.391,21.906,21.906,0,0,1-1.118-6.264c-.076-1.051-.116-2.111-.28-3.105a3.006,3.006,0,0,0-1.3-2.355l-.315-.133-.173-.036a1.676,1.676,0,0,0-.328-.058c-.244-.027-.47-.036-.705-.048h-.635a6.65,6.65,0,0,0,.99-1.1,2.4,2.4,0,0,0,.195-.364c.045-.106.08-.213.115-.319a3.059,3.059,0,0,0,.089-1.362,4.226,4.226,0,0,0-.444-1.331,5.289,5.289,0,0,0-.363-.626l-.076-.142-.04-.058a.514.514,0,0,1-.027-.07.586.586,0,0,1-.084-.293.692.692,0,0,1,0-.275.749.749,0,0,1,.05-.23,4.49,4.49,0,0,1,.785-1.455,8.168,8.168,0,0,1,1.091-1.166,8.939,8.939,0,0,1,2.684-1.681,7.532,7.532,0,0,1,4.369-.355,10.092,10.092,0,0,1,3.921,1.9,11.53,11.53,0,0,1,1.242,1.091,7.274,7.274,0,0,1,.554.621,7.74,7.74,0,0,1,.5.666,16.262,16.262,0,0,1,1.575,2.878,25.827,25.827,0,0,1,1.748,6.25,28.161,28.161,0,0,1,.336,4.981c0,.825-.133,1.681-.058,2.417a6.546,6.546,0,0,0,.671,2.218,5.315,5.315,0,0,0,1.206,1.6,2.9,2.9,0,0,0,2.355.727c.563-.08.887-.154,1.2-.2a3.294,3.294,0,0,1,.413-.044c.16,0,0,.177-.417.47a3.776,3.776,0,0,1-.918.417c-.2.044-.444.075-.669.115a6.151,6.151,0,0,1-.785-.04,3.874,3.874,0,0,1-2.117-1.22,6.477,6.477,0,0,1-1.277-2.036,6.772,6.772,0,0,1-.524-2.377v-.621l.031-.559c.023-.372.05-.75.045-1.122a26.873,26.873,0,0,0-1.357-8.938A18.889,18.889,0,0,0,138.336,9.9,11.265,11.265,0,0,0,136.41,7.24a9.18,9.18,0,0,0-5.766-2.777Z" transform="translate(18.363)" fill="#221f1f"/>
    <path id="Path_20610" data-name="Path 20610" d="M131.375,72.243c-.182-2.022-.381-4.041-.638-6.051a54.084,54.084,0,0,0-1.06-5.926c-.35-1.415-.861-2.808-1.331-4.214-1.669-4.947-3.473-9.861-4.991-14.883l-.209-.7c0-.151-.173-.168-.288-.142a4.363,4.363,0,0,0-.688.2c-.47.168-.936.377-1.406.581-.936.417-1.872.852-2.821,1.242a16.683,16.683,0,0,1-4.338,1.278h-.294c-.111-.027-.061.075-.053.142l.062.377c.031.187.053.377.076.563a10.939,10.939,0,0,0,.35,2.129c.257.856.027.834-.444.151a4.979,4.979,0,0,1-.621-1.571c-.079-.333-.146-.683-.227-1.051-.053-.262-.115-.532-.173-.808-.044-.2-.084-.4-.128-.6l-.036-.154v-.04h.425c.227,0,.471,0,.7-.022h.4c.213-.027.444-.067.643-.1.444-.089.861-.2,1.291-.332.861-.266,1.709-.595,2.556-.949s1.69-.736,2.55-1.11c.444-.182.865-.368,1.331-.523.12-.04.24-.08.369-.111a1.27,1.27,0,0,1,.195-.05l.111-.022h.156a1.085,1.085,0,0,1,.635.093.58.58,0,0,1,.235.2,1.1,1.1,0,0,1,.154.275l.271.945.254.834.514,1.667c.36,1.113.724,2.218,1.083,3.345,1.126,3.46,2.475,7,3.646,10.548a36.61,36.61,0,0,1,1.477,6.015c.338,2.036.581,4.077.789,6.117.262,2.515.466,5.031.671,7.541.31,3.806.59,7.635,1.042,11.391a58.478,58.478,0,0,0,1.606,8.544c.093.3.177.6.279.887s.209.585.316.887a23.741,23.741,0,0,0,1.6,3.158,3.245,3.245,0,0,1,.165.336c.039.142-.146.089-.546-.173a4.367,4.367,0,0,1-.648-.607c-.106-.138-.213-.3-.333-.467-.058-.084-.119-.168-.176-.262l-.16-.288a17.709,17.709,0,0,1-1.441-3.784c-.364-1.3-.621-2.639-.861-3.992-.466-2.693-.772-5.439-1.038-8.189-.391-4.085-.674-8.188-1.051-12.27Z" transform="translate(16.757 5.466)" fill="#221f1f"/>
    <path id="Path_20611" data-name="Path 20611" d="M109.647,61.879c.679-1.944,1.353-3.895,2.075-5.834.262-.705.51-1.42.8-2.12.5-1.233,1.043-2.453,1.664-3.641a19.366,19.366,0,0,1,2.182-3.393,7.318,7.318,0,0,1,2.861-2.249,4.428,4.428,0,0,1,2.373-.262,5.529,5.529,0,0,1,2.187.864c.408.266.227.409-.217.4a12.786,12.786,0,0,1-1.877-.324,3.845,3.845,0,0,0-1.969.08,4.944,4.944,0,0,0-1.775,1.038,14.314,14.314,0,0,0-2.7,3.491,35.256,35.256,0,0,0-2.3,5.1c-.744,1.925-1.428,3.881-2.106,5.842-.422,1.206-.839,2.417-1.259,3.624-.649,1.823-1.331,3.647-2.121,5.417a17.763,17.763,0,0,1-2.217,3.921,6.163,6.163,0,0,1-.706.744,3.216,3.216,0,0,1-1.211.7.945.945,0,0,1-.847-.169c-.067-.075,0-.168.2-.266a6.072,6.072,0,0,0,3.127-3.4,34.98,34.98,0,0,0,1.686-3.717c.755-1.908,1.437-3.868,2.108-5.834Z" transform="translate(15.287 6.195)" fill="#221f1f"/>
    <path id="Path_20612" data-name="Path 20612" d="M103.651,81.679c.621.1,1.255.2,1.868.271a9.052,9.052,0,0,0,1.836-.031,9.908,9.908,0,0,0,3.509-1.113,6.89,6.89,0,0,0,2.036-1.7,34.841,34.841,0,0,0,2.64-4.13c.82-1.437,1.6-2.9,2.351-4.379.671-1.308,1.291-2.661,1.885-3.992.378-.861.736-1.726,1.087-2.595s.71-1.743.968-2.587c.106-.47.324-.483.444.081a5.329,5.329,0,0,1-.444,2.533c-.724,1.8-1.53,3.548-2.383,5.283s-1.751,3.442-2.723,5.128c-.582,1.007-1.158,2.041-1.775,3.065l-.475.758-.506.755c-.168.252-.377.492-.563.736a6.108,6.108,0,0,1-.657.669,9.345,9.345,0,0,1-3.548,1.907,10.37,10.37,0,0,1-3.993.378,33.874,33.874,0,0,1-4.751-.981,60.846,60.846,0,0,1-6.866-2.47c-1.739-.714-3.429-1.438-5.12-2.218l-1.1-.51c-1.38-.657-1.775-.887-1.988-1.216a1.975,1.975,0,0,1-.164-.213c-.058-.1.07-.15.4-.1a6.356,6.356,0,0,1,1.225.413c3.042,1.331,6.174,2.808,9.426,4.027a44.05,44.05,0,0,0,7.4,2.179Z" transform="translate(12.659 8.747)" fill="#221f1f"/>
    <path id="Path_20613" data-name="Path 20613" d="M90.087,65.592c1.645.794,3.233,1.65,4.848,2.453.587.293,1.185.563,1.775.847a41.223,41.223,0,0,0,6.406,2.568,13.237,13.237,0,0,0,2.976.5,6.333,6.333,0,0,0,3.589-.794c.319-.187.444,0,.262.364a1.839,1.839,0,0,1-.187.315,2.733,2.733,0,0,1-.328.315,1.827,1.827,0,0,1-.444.289,2.125,2.125,0,0,1-.563.209,7.425,7.425,0,0,1-2.151.19,12.968,12.968,0,0,1-2.084-.271,22.962,22.962,0,0,1-3.921-1.269c-1.508-.634-3.074-1.277-4.569-2-1.647-.789-3.261-1.641-4.88-2.453-.5-.248-1-.5-1.5-.727-.252-.115-.506-.23-.758-.328l-.191-.075-.106-.04-.1-.04H88.1c-.022,0-.022.028-.031.036-.058.115-.271.595-.444.963a9.568,9.568,0,0,0-.444,1.175A18.7,18.7,0,0,0,86.48,70.2a14.625,14.625,0,0,0-.254,3.8c0,.28.045.551.071.83.106,1.034.134,1.362-.053,1.628a.913.913,0,0,1-.124.173c-.142.134-.377-.266-.523-1.055a14.862,14.862,0,0,1,.563-7.329,25.713,25.713,0,0,1,.993-2.608l.23-.51.142-.307.067-.151.036-.075h.08l.64.218c.1.03.217.075.3.106l.168.067c.444.173.861.368,1.281.559Z" transform="translate(12.685 9.282)" fill="#221f1f"/>
    <path id="Path_20614" data-name="Path 20614" d="M82.037,60.739a5.189,5.189,0,0,1,.559.311c.159.1.315.213.466.319.3.221.585.444.887.674.2.165.444.311.626.479.705.6,1.392,1.211,2.106,1.775a9.065,9.065,0,0,0,.993.674,9.953,9.953,0,0,0,1.282.607c.1.04.133.258-.045.444a.8.8,0,0,1-.886.151,7.945,7.945,0,0,1-1.433-.887,15.714,15.714,0,0,1-1.238-1.06c-.47-.444-1.016-.83-1.521-1.242a20.472,20.472,0,0,0-1.7-1.269,3.407,3.407,0,0,0-.444-.248c-.089-.036-.248-.067-.3.053a.471.471,0,0,0-.022.262,1.58,1.58,0,0,0,.04.177c.027.067.048.137.08.209a3.59,3.59,0,0,0,.51.8,9.652,9.652,0,0,0,1.087,1.051c.084.071.173.142.257.222.307.293.364.444.257.656a.815.815,0,0,1-.07.146c-.107.138-.315.107-.559-.075a7.833,7.833,0,0,1-2.063-2.142,3.271,3.271,0,0,1-.275-.595,2.708,2.708,0,0,1-.1-.417v-.257a.59.59,0,0,1,.023-.253.819.819,0,0,1,.572-.683,1.373,1.373,0,0,1,.226-.044H81.6a1.728,1.728,0,0,1,.249.067,1.189,1.189,0,0,1,.217.07Z" transform="translate(11.947 8.67)" fill="#221f1f"/>
    <path id="Path_20615" data-name="Path 20615" d="M80.755,64.568c.168.315.36.616.545.926a9.554,9.554,0,0,0,.657.856c.182.191.377.369.559.563a4.19,4.19,0,0,0,.5.479l.528.47c.373.28.763.551,1.153.82.364.2.75.386,1.127.563a10.269,10.269,0,0,1,1.491.608c.3.177-.355.78-.976.545-.271-.1-.542-.2-.808-.319l-.767-.413a8.47,8.47,0,0,1-1.432-.993c-.28-.2-.532-.444-.817-.679-.137-.115-.283-.218-.413-.342l-.377-.381-.4-.444-.36-.444c-.12-.156-.24-.31-.35-.47l-.311-.5a11.578,11.578,0,0,1-.665-1.278,12.568,12.568,0,0,1-.671-2.063,13.464,13.464,0,0,1-.327-1.641c0-.124-.028-.244-.031-.373a1.221,1.221,0,0,1,.075-.5.34.34,0,0,1,.257-.195.649.649,0,0,1,.156-.022.243.243,0,0,1,.2.137.823.823,0,0,1,.1.338,15.308,15.308,0,0,0,.55,2.759,10.626,10.626,0,0,0,.825,1.983Z" transform="translate(11.654 8.483)" fill="#221f1f"/>
    <path id="Path_20616" data-name="Path 20616" d="M99.079,64.115a3.142,3.142,0,0,0-.887-1.194,1.288,1.288,0,0,0-.279-.146.609.609,0,0,0-.156-.036.774.774,0,0,0-.177-.031l-.887-.093a7.9,7.9,0,0,0-1.2-.022,5.013,5.013,0,0,0-.51.058c-.168.031-.364.08-.422.1a.287.287,0,0,0-.159.08c-.05.058,0,.124.048.165a2.464,2.464,0,0,0,.75.327,4.318,4.318,0,0,0,.509.124c.165.031.35.04.551.071a1.8,1.8,0,0,1,1.065.444,3.124,3.124,0,0,1,.576.936c.168.444.244.856.377,1.228a1.348,1.348,0,0,0,.532.8c.156.062.177.271-.128.4a.777.777,0,0,1-.635-.12,1.362,1.362,0,0,1-.519-.657c-.177-.444-.249-.918-.36-1.269a3.228,3.228,0,0,0-.218-.492,1.152,1.152,0,0,0-.257-.342,2.266,2.266,0,0,0-1-.252,4.691,4.691,0,0,1-1.357-.444,2.708,2.708,0,0,1-.52-.328.91.91,0,0,1-.31-.479c-.08-.413.266-.705.674-.861.106-.044.182-.062.275-.093l.213-.058c.137-.031.279-.062.444-.084a5.524,5.524,0,0,1,.852-.053c.621,0,1.2.1,1.775.151a2,2,0,0,1,.962.386,3.047,3.047,0,0,1,.652.749,13.257,13.257,0,0,1,1,1.966c.115.244.235.483.364.705a3.086,3.086,0,0,0,.212.307l.12.137.151.164c.364.444.674.887,1.016,1.3a13.381,13.381,0,0,0,1.681,1.775c.133.115.271.218.408.319.514.378.648.444.719.683.022.055.041.112.058.168,0,.089-.05.143-.205.156a1.2,1.2,0,0,1-.634-.159,6.965,6.965,0,0,1-1.845-1.553c-.537-.59-1.016-1.233-1.491-1.84-.089-.115-.173-.218-.257-.32l-.3-.332a4.539,4.539,0,0,1-.528-.843c-.28-.55-.5-1.091-.758-1.583Z" transform="translate(13.921 8.857)" fill="#221f1f"/>
    <path id="Path_20617" data-name="Path 20617" d="M91.367,59.982a1.533,1.533,0,0,1,.616-.714,1.265,1.265,0,0,1,.559-.146,3.563,3.563,0,0,1,.444,0,6.863,6.863,0,0,1,.812.1c.275.05.554.089.82.165a7.794,7.794,0,0,1,2.631,1.3,5.071,5.071,0,0,1,.949.936,2.334,2.334,0,0,1,.523,1.655c0,.187-.221.142-.417,0a1.149,1.149,0,0,1-.47-.551,3.989,3.989,0,0,0-1.89-2.027,6.057,6.057,0,0,0-1.775-.648,8.082,8.082,0,0,0-.953-.168,2.764,2.764,0,0,1-.47-.027.983.983,0,0,0-.351.053l-.092.067a1.326,1.326,0,0,0-.324,1.034,3.083,3.083,0,0,0,.164.936,2.059,2.059,0,0,0,.444.777.347.347,0,0,0,.444.022.552.552,0,0,0,.187-.444V62c0-.4.022-.568.235-.657a.73.73,0,0,1,.146-.058c.159-.022.279.12.341.444a2.558,2.558,0,0,1,.036.817,1.328,1.328,0,0,1-.173.5,1.13,1.13,0,0,1-1.7.271,2.442,2.442,0,0,1-.554-.767,3.589,3.589,0,0,1-.341-1.233,2.842,2.842,0,0,1,.151-1.331Z" transform="translate(13.569 8.448)" fill="#221f1f"/>
    <path id="Path_20618" data-name="Path 20618" d="M91.729,64.744a4.333,4.333,0,0,1-.679-1.012,4,4,0,0,1-.191-.386,3.615,3.615,0,0,1-.209-1.521,3.446,3.446,0,0,1,.129-.693,1.145,1.145,0,0,1,.523-.75c.089-.048.2.124.285.316s.146.381.1.444a2.158,2.158,0,0,0-.31,1.153,1.97,1.97,0,0,0,.24.847,3.668,3.668,0,0,0,.5.865,2.2,2.2,0,0,0,.444.416,1.123,1.123,0,0,0,.363.174.369.369,0,0,0,.307-.067.825.825,0,0,0,.2-.554v-.151c0-.187.076-.24.288-.262h.143a.288.288,0,0,1,.305.27v0a1.57,1.57,0,0,1-.142.861.815.815,0,0,1-.142.235,1.006,1.006,0,0,1-.213.218,1.156,1.156,0,0,1-.626.235,1.53,1.53,0,0,1-.794-.218,2.586,2.586,0,0,1-.532-.417Z" transform="translate(13.486 8.64)" fill="#221f1f"/>
    <path id="Path_20619" data-name="Path 20619" d="M96.751,63.269h0a.135.135,0,0,1,.031-.084L99.6,60.226c.937-1,1.863-1.955,2.786-3.047a.6.6,0,0,1,.1-.081h0c.062-.1-.124-.265-.408-.358a3.782,3.782,0,0,1-.52-.2h0c.022,0,.031,0,0,.045l-.195.235c-1.717,1.925-3.549,3.811-5.324,5.7a.107.107,0,0,1-.07.031h0c-.04.04.106.24.319.444S96.711,63.31,96.751,63.269Z" transform="translate(14.297 8.056)" fill="#232020"/>
    <path id="Path_20620" data-name="Path 20620" d="M92.545,67.521h0a.066.066,0,0,1,0-.059l3.3-3.641a.061.061,0,0,1,.053,0h0c.022-.027-.142-.209-.36-.408s-.422-.347-.444-.319h0v.058l-.133.15L91.8,66.792a.061.061,0,0,1-.053,0h0c-.023.022.137.2.358.4S92.523,67.547,92.545,67.521Z" transform="translate(13.654 9.053)" fill="#232020"/>
    <path id="Path_20621" data-name="Path 20621" d="M97.642,69.343a.236.236,0,0,0-.04,0,.787.787,0,0,1-.217-.089L76.629,57.131a.862.862,0,0,1-.173-.137l-.036-.031c-.137-.08-.372.067-.523.324s-.159.532-.022.612h.044a.857.857,0,0,1,.218.089l.842.493L96.911,70.093a.737.737,0,0,1,.173.137.116.116,0,0,0,.036.031c.137.081.372-.062.523-.319S97.78,69.424,97.642,69.343Z" transform="translate(11.223 8.117)" fill="#232020"/>
    <path id="Path_20622" data-name="Path 20622" d="M121.8,98.433c-2.547.785-5.065,1.645-7.629,2.43a15.127,15.127,0,0,1-2.928.7,3.476,3.476,0,0,1-1.451-.138,1.65,1.65,0,0,1-.688-.478,2.049,2.049,0,0,1-.381-.693,3.332,3.332,0,0,1-.154-1.42c.031-.444.084-.887.133-1.3.2-1.712.444-3.406.666-5.11.2-1.507.372-3.025.519-4.524.182-1.93.315-3.873.444-5.767.044-.595.252-.519.444,0a6.473,6.473,0,0,1,.271,2.609c-.307,3.992-.887,7.9-1.455,11.852-.084.59-.164,1.185-.221,1.775,0,.151-.027.3-.036.444a2.8,2.8,0,0,0,0,.417,2.278,2.278,0,0,0,.137.785,1.037,1.037,0,0,0,1.047.763,5.009,5.009,0,0,0,.852-.031c.271-.035.559-.092.852-.159,1.273-.311,2.555-.736,3.832-1.144l3.837-1.242c1.575-.506,3.158-1,4.751-1.455a55.375,55.375,0,0,1,7.355-1.664,18.827,18.827,0,0,1,2.914-.212,6.832,6.832,0,0,1,.736.035,6.168,6.168,0,0,1,.741.107,6.765,6.765,0,0,1,.736.19c.279.084.691.338.736.71a1.107,1.107,0,0,1-.359.861,3.333,3.333,0,0,1-.55.444,5.321,5.321,0,0,1-1.588.727,1.33,1.33,0,0,1-.8,0,.863.863,0,0,1-.249-.106c-.168-.151.413-.333,1.393-.839a5.85,5.85,0,0,0,1.007-.638,1.532,1.532,0,0,0,.195-.182c.048-.053.053-.067.058-.084a.066.066,0,0,0-.031-.089l-.089-.017-.279-.081a4.1,4.1,0,0,0-.585-.123,8.216,8.216,0,0,0-1.247-.1,25.019,25.019,0,0,0-5.208.657c-2.59.563-5.171,1.331-7.732,2.125Z" transform="translate(16.214 11.889)" fill="#221f1f"/>
    <path id="Path_20623" data-name="Path 20623" d="M120.338,165.343c-1.548.36-13.423,3.149-10.778,4.436,2.439,1.189,11.4-2.129,12.576-3.429,0,.8-.971,3.952.519,3.571s.257-3.993,0-4.955C121.723,164.971,121.345,165.369,120.338,165.343Z" transform="translate(16.309 24.567)" fill="#221f1f"/>
    <path id="Path_20624" data-name="Path 20624" d="M119.942,168.29a34.771,34.771,0,0,1-5.585,1.775,18.662,18.662,0,0,1-2.12.381,7.689,7.689,0,0,1-1.966,0,3.715,3.715,0,0,1-.509-.12,2,2,0,0,1-.6-.324.73.73,0,0,1-.288-.616,1.007,1.007,0,0,1,.346-.621l.142-.12.112-.08a2.214,2.214,0,0,1,.217-.137,3.691,3.691,0,0,1,.444-.235c.293-.143.585-.266.887-.381.59-.235,1.18-.444,1.775-.626,1.055-.333,2.116-.657,3.168-.959a37.515,37.515,0,0,1,4.094-1.029c.887-.142-.036.887-1.588,1.273-1.38.355-2.755.723-4.122,1.113a28.727,28.727,0,0,0-3.992,1.371,2.934,2.934,0,0,0-.493.288c-.058.04-.115.08-.115.151a.108.108,0,0,0,.05.084.27.27,0,0,0,.111.062l.089.036.133.036a1.6,1.6,0,0,0,.285.058,8.872,8.872,0,0,0,2.523-.129,30.415,30.415,0,0,0,5.536-1.53c.555-.2,1.105-.444,1.642-.669.271-.12.537-.244.794-.383l.1-.048.137-.08.275-.156c.2-.156.389-.283.625-.5l.355-.319a.092.092,0,0,0,.058.08h.028v.053a2.416,2.416,0,0,1-.028.444,7.624,7.624,0,0,1-.115.887l-.123.772c-.031.209-.058.417-.071.626-.027.391,0,.887.182,1a.416.416,0,0,0,.386,0,.545.545,0,0,0,.336-.3,2.046,2.046,0,0,0,.134-.887,6.924,6.924,0,0,0-.129-.985,18.28,18.28,0,0,0-.519-1.943l-.053-.154a.984.984,0,0,0-.165,0l-.142.031-.168.035-.3.081a2.691,2.691,0,0,1-.515.089.819.819,0,0,1-.595-.151.884.884,0,0,1-.159-.156c-.053-.084.039-.16.226-.226l.83-.3a5.455,5.455,0,0,1,.6-.187l.217-.04c.085,0,.174-.026.263-.031l.536-.027.2.679.133.444c.08.254.156.515.227.781a10.906,10.906,0,0,1,.315,1.667,4.345,4.345,0,0,1,0,.932,1.9,1.9,0,0,1-.422,1.055,1.328,1.328,0,0,1-.585.386,1.545,1.545,0,0,1-.324.07,1.314,1.314,0,0,1-.4,0,1.035,1.035,0,0,1-.648-.466,1.615,1.615,0,0,1-.222-.621,6.384,6.384,0,0,1,.1-1.8v-.044h0l-.3.156q-.593.3-1.194.559Z" transform="translate(16.263 24.507)" fill="#221f1f"/>
    <path id="Path_20625" data-name="Path 20625" d="M129.028,165.728c-1.549.36-14.324,2.959-11.684,4.245,2.439,1.189,12.309-1.938,13.481-3.238,0,.8-.971,3.952.519,3.571s.257-3.993.022-4.955C130.394,165.356,130.017,165.754,129.028,165.728Z" transform="translate(17.499 24.626)" fill="#221f1f"/>
    <path id="Path_20626" data-name="Path 20626" d="M127.991,168.815a39.185,39.185,0,0,1-5.887,1.566,20.253,20.253,0,0,1-2.218.31,7.765,7.765,0,0,1-2.041-.093c-.27-.062-.971-.274-1.135-.71a.678.678,0,0,1,.111-.674,1.6,1.6,0,0,1,.266-.271l.16-.115.123-.08a10.576,10.576,0,0,1,1.855-.772c.621-.209,1.241-.391,1.867-.563q1.664-.458,3.328-.887c1.418-.359,2.838-.736,4.28-.958.887-.142-.053.887-1.689,1.255-1.446.333-2.892.669-4.33,1.024a40.981,40.981,0,0,0-4.236,1.242,5.277,5.277,0,0,0-.576.275c-.218.12-.218.115-.275.177a.1.1,0,0,0,.04.173.488.488,0,0,0,.111.053,1.619,1.619,0,0,1,.262.071,8.995,8.995,0,0,0,2.626-.036,34.129,34.129,0,0,0,5.837-1.331c.59-.186,1.175-.381,1.748-.6.288-.112.572-.227.856-.347.137-.058.279-.12.417-.186l.2-.1.283-.146c.165-.107.324-.213.5-.346l.568-.484c.036.111.089.048.1.133a1.646,1.646,0,0,1-.022.4,4.874,4.874,0,0,1-.1.834l-.124.749c-.031.195-.058.4-.076.59a4.385,4.385,0,0,0,0,.577,1.146,1.146,0,0,0,.107.466.285.285,0,0,0,.293.142.594.594,0,0,0,.377-.177,1.352,1.352,0,0,0,.244-.856,5.044,5.044,0,0,0-.093-1.02,17.854,17.854,0,0,0-.523-2.045l-.031-.1v-.058l-.036-.084a.321.321,0,0,0-.133,0l-.28.053-.31.079a2.659,2.659,0,0,1-.529.1.856.856,0,0,1-.621-.146.827.827,0,0,1-.168-.156c-.053-.084.045-.154.235-.226l.887-.31a4.867,4.867,0,0,1,.581-.174,5.6,5.6,0,0,1,.99-.092l.2.71.133.444c.085.27.165.55.236.829a9.285,9.285,0,0,1,.305,1.775,3.771,3.771,0,0,1-.058,1.012,2.246,2.246,0,0,1-.221.568,1.341,1.341,0,0,1-.52.5,1.461,1.461,0,0,1-.336.133l-.169.031a1.628,1.628,0,0,1-.212,0,1.022,1.022,0,0,1-.759-.341,1.435,1.435,0,0,1-.319-.674,2.634,2.634,0,0,1-.053-.537,5.782,5.782,0,0,1,.048-.8l.05-.377.044-.271h0c.048-.027-.142.075-.252.124l-.373.173c-.5.217-1,.413-1.5.595Z" transform="translate(17.45 24.565)" fill="#221f1f"/>
    <path id="Path_20627" data-name="Path 20627" d="M123.615,177.064c-.187-.066-.381-.487-.576-1.206-2.959.319-6.925.444-8.043-.275-1.5-.989-3.717-73.742-2.794-76.324l19.34-5.265c.635,8.579,2.023,77.242,2.9,81.176C134.793,176.719,127.119,178.338,123.615,177.064Z" transform="translate(16.737 13.759)" fill="#221f1f"/>
    <path id="Path_20628" data-name="Path 20628" d="M131.658,109.573l-.222-7.585-.133-3.793-.071-1.894-.084-1.605v-.058h-.075l-.83.221-1.859.515-3.66,1.012-7.333,1.974-2.661.727-1.331.364-.671.181-.089.028a.2.2,0,0,0,0,.075l-.027.275-.022.336-.036.683-.036,1.376-.027,2.759c0,6.5.107,13.01.24,19.517s.328,13.012.554,19.519c.2,5.767.444,11.569.777,17.3.213,3.668.444,7.354.8,11.009a23.162,23.162,0,0,0,.381,2.685c.062.221.04.181.213.274l.288.1.311.075a9.929,9.929,0,0,0,1.331.165c.886.058,1.814.053,2.727.022.444,0,.909-.04,1.367-.067l.683-.048.825-.071c.128,0,.248-.027.355-.031a9.435,9.435,0,0,0,.35,1.185c.084.168.066.16.053.2s-.129.04-.28-.151a4.2,4.2,0,0,1-.444-.78l-.305.067-.151.035-.213.04c-.283.053-.6.106-.936.156-.679.1-1.455.19-2.32.243a15.628,15.628,0,0,1-2.862-.053,5.979,5.979,0,0,1-.816-.164,2.661,2.661,0,0,1-.444-.173.8.8,0,0,1-.315-.218.761.761,0,0,1-.2-.319,2.476,2.476,0,0,1-.089-.271c-.023-.075-.036-.146-.054-.218-.031-.142-.058-.279-.084-.416-.048-.28-.084-.555-.124-.83-.235-1.894-.372-3.771-.509-5.652s-.244-3.756-.35-5.633q-.306-5.642-.524-11.284-.442-11.29-.674-22.655c-.093-4.533-.186-9.16-.279-13.812q-.062-3.488-.089-6.992c0-2.332,0-4.662.062-6.994,0-.324.031-.644.058-.971l.027-.249a3.348,3.348,0,0,1,.062-.372l.048-.182.026-.093c0-.031.053-.027.08-.045a3.251,3.251,0,0,1,.373-.115l1.885-.509,3.7-1L125.39,95.4l3.691-.993,1.89-.51.732-.2.182-.05h.05v.076l.022.377.062,1.175c.133,2.555.209,5.1.293,7.652q.266,9.416.528,18.826c.257,9.5.492,19.047.794,28.478.124,3.664.257,7.293.408,10.909s.311,7.226.542,10.833c.039.532.075,1.06.115,1.588s.12,1.024.177,1.544a1.344,1.344,0,0,1,0,.319.853.853,0,0,1-.1.3.894.894,0,0,1-.151.23,1.717,1.717,0,0,1-.173.182,3.466,3.466,0,0,1-.741.492,9.948,9.948,0,0,1-2.01.719,17.385,17.385,0,0,1-1.716.346,18.011,18.011,0,0,1-2.6.2,7.78,7.78,0,0,1-2.835-.444,4.083,4.083,0,0,1-.781-.372c-.12-.084-.062-.107.151-.076s.577.1,1.105.151a18.639,18.639,0,0,0,4.843-.226,16,16,0,0,0,2.484-.612,6.942,6.942,0,0,0,1.149-.506,2.258,2.258,0,0,0,.444-.328.712.712,0,0,0,.1-.146.1.1,0,0,0,0-.076c-.218-1.463-.285-2.869-.391-4.3s-.151-2.861-.23-4.3q-.2-4.325-.36-8.72c-.218-5.851-.4-11.782-.573-17.722q-.425-15.3-.847-30.633Z" transform="translate(16.692 13.707)" fill="#221f1f"/>
    <path id="Path_20629" data-name="Path 20629" d="M118.675,146.227c-.262-3.761-.487-7.541-.718-11.284-.089-1.376-.173-2.746-.262-4.117q-.4-7.261-.71-14.519c-.1-2.151-.209-4.307-.311-6.44-.128-2.742-.324-5.475-.209-8.256.05-.887.258-.718.444,0a17.857,17.857,0,0,1,.444,3.607c.222,5.59.444,11.17.661,16.8.124,3.37.364,6.876.572,10.318q.334,5.683.714,11.36c.165,2.329.316,4.662.506,6.986.266,3.549.554,7.07.914,10.557.146,1.357.288,2.7.444,4.036s.369,2.662.55,3.993c.1.585.191,1.158.289,1.743s.151,1,.2,1.379.124.679.159.932a2.952,2.952,0,0,1,0,1.065,2.241,2.241,0,0,1-.08.346c-.12.257-.444-.6-.839-2.218-.945-4.768-1.432-9.838-1.916-14.927-.173-1.89-.336-3.789-.478-5.687s-.289-3.793-.444-5.691Z" transform="translate(17.414 14.827)" fill="#221f1f"/>
    <path id="Path_20630" data-name="Path 20630" d="M94.867,72.243a1.963,1.963,0,0,1-.08.887,1.774,1.774,0,0,1-.5.772,1.2,1.2,0,0,1-.666.31,1.378,1.378,0,0,1-1.113-.355,1.85,1.85,0,0,1-.5-.926,2.673,2.673,0,0,1-.062-.887.913.913,0,0,1,.338-.652.643.643,0,0,1,.475-.107.726.726,0,0,1,.333.174c.1.1-.062.248-.232.385a.815.815,0,0,0-.209.213h0a.313.313,0,0,0,0-.066.147.147,0,0,0,0-.045h0a.2.2,0,0,0,.05.062.74.74,0,0,0,.137.111.349.349,0,0,0-.022.067,1.11,1.11,0,0,0-.031.315,1.713,1.713,0,0,0,.156.7.535.535,0,0,0,.66.217.886.886,0,0,0,.47-.767.75.75,0,0,0-.168-.576.888.888,0,0,0-.887-.275.6.6,0,0,0-.307.187.386.386,0,0,0-.08.244.628.628,0,0,0,.026.1c.04.138.045.213-.128.373l-.115.111c-.124.115-.316.1-.467-.137a1.046,1.046,0,0,1-.12-.683,1.161,1.161,0,0,1,.378-.661,1.658,1.658,0,0,1,2.687.923Z" transform="translate(13.665 10.248)" fill="#221f1f"/>
    <path id="Path_20631" data-name="Path 20631" d="M119.889,79.684a2.155,2.155,0,0,1-.1.4c-.053.112-.111.222-.168.328a3.186,3.186,0,0,1-.444.52,1.448,1.448,0,0,1-.444.324,1.111,1.111,0,0,1-1.042-.115,1.635,1.635,0,0,1-.555-.7,2.715,2.715,0,0,1-.217-.713,1.09,1.09,0,0,1,.195-.954c.071-.084.24.053.4.213s.31.3.3.381a1.6,1.6,0,0,0,.217,1.038.315.315,0,0,0,.218.142.445.445,0,0,0,.244-.081,1.627,1.627,0,0,0,.559-.66.57.57,0,0,0,0-.444.614.614,0,0,0-.635-.271.368.368,0,0,0-.288.355.444.444,0,0,1,0,.111c0,.138-.031.2-.252.271l-.146.053a.293.293,0,0,1-.371-.184c0-.015-.008-.03-.012-.046a.691.691,0,0,1-.027-.252.768.768,0,0,1,.031-.28,1.832,1.832,0,0,1,.115-.288,2.807,2.807,0,0,1,.213-.252,1.329,1.329,0,0,1,1.167-.275,1.5,1.5,0,0,1,.444.156,1.318,1.318,0,0,1,.358.31,1.212,1.212,0,0,1,.235.444,1.608,1.608,0,0,1,.054.475Z" transform="translate(17.482 11.364)" fill="#221f1f"/>
    <path id="Path_20632" data-name="Path 20632" d="M114.29,58.353a1.079,1.079,0,0,1,.085.856,1.508,1.508,0,0,1-.378.573l-.159.16c-.084.058-.165.115-.254.168a.815.815,0,0,1-.922-.071c-.058-.053-.107-.12-.16-.177l-.111-.213a2.208,2.208,0,0,1-.067-.23.583.583,0,0,0-.022-.195,2.406,2.406,0,0,1,.044-.661,1.314,1.314,0,0,1,.173-.444.655.655,0,0,1,.4-.279c.106-.027.151.19.2.4a1.941,1.941,0,0,0,.08.28c.031.075.062.124.045.133a.894.894,0,0,0-.115.319.628.628,0,0,1-.023.209.218.218,0,0,0-.035.1.079.079,0,0,0,.065.092h.02a.273.273,0,0,0,.128-.053,1.067,1.067,0,0,0,.235-.232.368.368,0,0,0,.093-.221.4.4,0,0,0-.187-.28.732.732,0,0,0-.6-.133.2.2,0,0,0-.094.266c.006.01.012.021.018.031s.023.036.036.053c.053.124.031.191-.159.319l-.124.089a.292.292,0,0,1-.41-.053l-.007-.009a.841.841,0,0,1-.111-.186,1.141,1.141,0,0,1-.071-.275.912.912,0,0,1,.107-.568.922.922,0,0,1,.444-.4,1.444,1.444,0,0,1,.3-.093,1.83,1.83,0,0,1,.3,0,1.608,1.608,0,0,1,.679.187,1.493,1.493,0,0,1,.573.528Z" transform="translate(16.724 8.221)" fill="#221f1f"/>
    <path id="Path_20633" data-name="Path 20633" d="M125.131,60.565a1.02,1.02,0,0,1-.2.71,2.95,2.95,0,0,1-.444.492l-.079.08h-.138L124.1,61.8a1.333,1.333,0,0,1-.59-.444,1.868,1.868,0,0,1-.262-.506,1.552,1.552,0,0,1-.1-.546.675.675,0,0,1,.164-.421.442.442,0,0,1,.378-.177c.089,0,.106.217.133.444a1.732,1.732,0,0,0,.058.274.191.191,0,0,0,.022.05h0l-.044-.058c0-.023-.031,0,.075,0s.058,0,.076.044a1.161,1.161,0,0,0,.04.315c0,.036.035.076.039.093a.109.109,0,0,0,.036.04.447.447,0,0,0,.093.048h.027a.357.357,0,0,0,.151-.168.165.165,0,0,0-.05-.191.347.347,0,0,0-.341-.058.125.125,0,0,0-.048.05h0l-.093-.027h.177l.062.031c.075.058.075.12-.05.31l-.075.134a.315.315,0,0,1-.36.168.759.759,0,0,1-.288-.2.7.7,0,0,1-.173-.6.684.684,0,0,1,.062-.187,1.109,1.109,0,0,1,.062-.106.765.765,0,0,1,.159-.164.921.921,0,0,1,.444-.182,1.216,1.216,0,0,1,.808.159.891.891,0,0,1,.444.648Z" transform="translate(18.437 8.538)" fill="#221f1f"/>
    <path id="Path_20634" data-name="Path 20634" d="M127.5,72.087a1.655,1.655,0,0,1-.364.918,1.212,1.212,0,0,1-.3.266,1.333,1.333,0,0,1-1.206-.027,1.012,1.012,0,0,1-.444-.391.584.584,0,0,1,0-.542.445.445,0,0,1,.307-.257c.079-.022.168.177.257.369a1.872,1.872,0,0,0,.124.262l.044.058a.452.452,0,0,0-.1-.081c-.116-.084-.16-.039-.085-.066a.419.419,0,0,0,.138-.093.549.549,0,0,0,.07-.076h0a.558.558,0,0,0,.2.174.316.316,0,0,0,.328-.05.526.526,0,0,0,.226-.36,1.2,1.2,0,0,0,.031-.363h0l.173.221a.321.321,0,0,0-.368,0,.5.5,0,0,0-.138.328v.084c0,.093-.075.1-.3.089h-.154a.286.286,0,0,1-.311-.248.99.99,0,0,1,.177-.63,1.125,1.125,0,0,1,.652-.466,1.193,1.193,0,0,1,.741.058l.333.146v.3c.006.123.006.248,0,.372Z" transform="translate(18.737 10.284)" fill="#221f1f"/>
    <path id="Path_20635" data-name="Path 20635" d="M128.431,85.555a1.077,1.077,0,0,1-.377.657.94.94,0,0,1-.705.173l-.262-.048a1.239,1.239,0,0,1-.2-.076,1.115,1.115,0,0,1-.536-.616,1.544,1.544,0,0,1-.071-.705,1.809,1.809,0,0,1,.168-.6.9.9,0,0,1,.288-.35.558.558,0,0,1,.444-.106c.1,0,.071.23.05.444a1.665,1.665,0,0,0,0,.283.65.65,0,0,0,0,.134.535.535,0,0,0-.093.137,1.142,1.142,0,0,0-.093.36.281.281,0,0,0,.067.2.538.538,0,0,0,.164.1.212.212,0,0,0,.3-.029l.016-.021a.4.4,0,0,0,.039-.115.689.689,0,0,0,0-.195.8.8,0,0,0-.089-.285c-.044-.08-.1-.106-.111-.1a.85.85,0,0,0-.16.3.159.159,0,0,1-.031.111c-.053.128-.115.154-.336.1l-.146-.039a.32.32,0,0,1-.257-.316,1.163,1.163,0,0,1,.315-.687.937.937,0,0,1,.226-.177,1.008,1.008,0,0,1,.369-.1.886.886,0,0,1,.674.28,1.324,1.324,0,0,1,.333.621,1.658,1.658,0,0,1,.031.665Z" transform="translate(18.912 12.218)" fill="#221f1f"/>
    <path id="Path_20636" data-name="Path 20636" d="M116.211,93.675a1.165,1.165,0,0,1-.444.593,1.385,1.385,0,0,1-.6.232l-.244.035a1.192,1.192,0,0,1-.279-.027.883.883,0,0,1-.616-.656,1.157,1.157,0,0,1,.123-.8,1.468,1.468,0,0,1,.417-.514.815.815,0,0,1,.817-.182c.089.036.027.244-.05.444a1.715,1.715,0,0,1-.168.413.53.53,0,0,0-.2.1,1.438,1.438,0,0,0-.191.226.1.1,0,0,0,0,.124.214.214,0,0,0,.12.044H115l.143-.036a.43.43,0,0,0,.212-.128.442.442,0,0,0,.085-.324.8.8,0,0,0-.076-.293.351.351,0,0,0-.151-.177.178.178,0,0,0-.237.082.2.2,0,0,0-.015.051v.062c0,.014-.067.048-.285,0l-.151-.026a.276.276,0,0,1-.24-.307.288.288,0,0,1,.018-.07.946.946,0,0,1,.23-.444.925.925,0,0,1,.444-.23,1.052,1.052,0,0,1,.949.444,1.857,1.857,0,0,1,.129.168l.084.164a1.2,1.2,0,0,1,.106.324,1.8,1.8,0,0,1,.04.342,2.086,2.086,0,0,1-.058.368Z" transform="translate(17.044 13.436)" fill="#221f1f"/>
    <path id="Path_20637" data-name="Path 20637" d="M105.2,34.556a1.391,1.391,0,0,1-.936-.146,1.9,1.9,0,0,1-.36-.275c-.089-.106-.159-.217-.24-.324a1.532,1.532,0,0,1-.154-.315,1.222,1.222,0,0,1-.059-.328,2.271,2.271,0,0,1,.222-.94,5.645,5.645,0,0,1,.417-.754l.394-.64a1.872,1.872,0,0,1,.648-.732c.1-.058.218.124.3.333s.146.444.05.545c-.342.444-.688.887-1,1.376a1.26,1.26,0,0,0-.2.86.176.176,0,0,0,.022.076.189.189,0,0,0,.039.084,1.434,1.434,0,0,0,.146.195c.054.04.1.116.16.129l.089.045h.1a.98.98,0,0,0,.581-.143,3.424,3.424,0,0,0,.887-.674,7.1,7.1,0,0,0,.523-.718,1.642,1.642,0,0,1,.111-.169c.151-.195.263-.221.444-.106a1.409,1.409,0,0,1,.134.08.332.332,0,0,1,.093.444,4.627,4.627,0,0,1-1.057,1.367,3.017,3.017,0,0,1-1.33.749Z" transform="translate(15.437 4.028)" fill="#221f1f"/>
    <path id="Path_20638" data-name="Path 20638" d="M108.9,28.6a1.9,1.9,0,0,1-.165.324,1.776,1.776,0,0,1-.244.319,1.622,1.622,0,0,1-.336.271,1.816,1.816,0,0,1-.444.137H107.4a1.056,1.056,0,0,1-.327-.062,1.4,1.4,0,0,1-.714-.727,3.331,3.331,0,0,1-.257-.794c-.054-.227-.112-.444-.165-.674a2.125,2.125,0,0,1-.124-.856c.027-.182.852-.081.91.24.1.554.159,1.091.265,1.579a.714.714,0,0,0,.182.35.45.45,0,0,0,.24.129c.24.053.444-.058.612-.347a2.242,2.242,0,0,0,.24-.6,4.722,4.722,0,0,0,.138-1.047,5.36,5.36,0,0,0-.089-.825c0-.062-.023-.124-.026-.186,0-.232.048-.324.27-.36l.156-.023a.338.338,0,0,1,.35.244,4.367,4.367,0,0,1,.134,1.6,4.854,4.854,0,0,1-.285,1.291Z" transform="translate(15.796 3.322)" fill="#221f1f"/>
    <path id="Path_20639" data-name="Path 20639" d="M104.6,29.127a1.585,1.585,0,0,0,.209.213.106.106,0,0,0,.111,0,.873.873,0,0,0,.142-.177,1.2,1.2,0,0,0,.227-.444,1.935,1.935,0,0,0,0-.6,3.738,3.738,0,0,0-.156-.59,1.436,1.436,0,0,1-.134-.842c0-.1.236-.071.444,0s.417.128.444.252a4.591,4.591,0,0,1,.191,1.669,2.732,2.732,0,0,1-.142.62,1.885,1.885,0,0,1-.293.537,1.025,1.025,0,0,1-.7.413.88.88,0,0,1-.444-.08,1.216,1.216,0,0,1-.315-.195,2.716,2.716,0,0,1-.479-.59,7.527,7.527,0,0,1-.487-.949c-.115-.249-.262-.479-.364-.746a1.291,1.291,0,0,1-.07-.182c-.058-.235,0-.346.221-.394a.857.857,0,0,1,.151-.031.4.4,0,0,1,.372.168c.2.35.381.763.577,1.153a3.862,3.862,0,0,0,.483.785Z" transform="translate(15.333 3.5)" fill="#221f1f"/>
    <path id="Path_20640" data-name="Path 20640" d="M107.827,36.588c.084-.492.123-.59.177-.608a3.935,3.935,0,0,0,.442-.2,2.237,2.237,0,0,0,.4-.173,2.029,2.029,0,0,0,.545-.554,1.4,1.4,0,0,0,.129-.2,1.321,1.321,0,0,0,.058-.218v-.031a1.128,1.128,0,0,1,.413.151.129.129,0,0,1,.084.058s.222.244.173.315a3.841,3.841,0,0,0-.159.444.359.359,0,0,1-.112.146,2.263,2.263,0,0,1-.2.138,3.548,3.548,0,0,1-.887.638,2.183,2.183,0,0,1-.971.23A.441.441,0,0,0,107.827,36.588Z" transform="translate(16.104 4.716)" fill="#221f1f"/>
    <path id="Path_20641" data-name="Path 20641" d="M108.038,22.79a1.142,1.142,0,0,0-.305-.048,1.242,1.242,0,0,0-.32,0c-.08,0-.146.053-.226.066a2.589,2.589,0,0,0-.834.347,1.4,1.4,0,0,0-.3.288c-.116.142-.187.315-.383.4-.115.053-.638-.572-.483-.758a2.425,2.425,0,0,1,1.069-.767c.257-.089.492-.24.763-.315a2.491,2.491,0,0,1,.914-.067,3.091,3.091,0,0,1,.54.115,5,5,0,0,1,.741.315c.173.1.391.142.568.244a.882.882,0,0,1,.12.058c.142.093.151.168.036.36l-.084.129a.375.375,0,0,1-.355.181,5.579,5.579,0,0,1-.865-.341,2.249,2.249,0,0,0-.595-.195Z" transform="translate(15.697 2.784)" fill="#221f1f"/>
    <path id="Path_20642" data-name="Path 20642" d="M41.732,88.575c-.47-.067-.936-.146-1.4-.221a3.742,3.742,0,0,1-.5-.05c-.59-.106-1.176-.24-1.775-.332a4.072,4.072,0,0,0-.777-.036,2.864,2.864,0,0,1-.887,0c-.089-.026-.168-.324-.129-.63s.244-.629.444-.634a5.885,5.885,0,0,1,2.148.305,7.491,7.491,0,0,0,1.259.182l1.375.2c.285.036.563.076.848.1a7.176,7.176,0,0,0,1.269.036,2.07,2.07,0,0,0,.47-.1,2.817,2.817,0,0,0,.444-.156,1.538,1.538,0,0,1,.177-.08c.2-.084.274-.031.466.235.039.062.089.12.124.182a.409.409,0,0,1-.075.573l-.032.022a3.616,3.616,0,0,1-1.991.5,13.341,13.341,0,0,1-1.455-.08Z" transform="translate(5.204 12.644)" fill="#221f1f"/>
    <path id="Path_20643" data-name="Path 20643" d="M52.421,88.816h-.954a1.508,1.508,0,0,1-.346,0c-.408-.035-.816-.111-1.22-.181a3.2,3.2,0,0,0-.545-.04,1.008,1.008,0,0,1-.693-.142c-.12-.107.333-1.18.528-1.149a4.865,4.865,0,0,1,1.2.3,2.361,2.361,0,0,0,.789.053h1.437a5.289,5.289,0,0,0,.83-.107,3.124,3.124,0,0,0,.595-.274c.044-.023.084-.053.128-.071.165-.058.235,0,.347.307.027.07.053.137.075.2a.525.525,0,0,1-.067.545,2.283,2.283,0,0,1-1.157.493c-.311.058-.63.08-.945.106Z" transform="translate(7.091 12.722)" fill="#221f1f"/>
    <path id="Path_20644" data-name="Path 20644" d="M50.224,78.275a7.4,7.4,0,0,0,.151-1.065v-.4a7.4,7.4,0,0,0-.062-1.41,2.344,2.344,0,0,0-.173-.59,7.057,7.057,0,0,1-.324-.638.5.5,0,0,1,.333-.3.493.493,0,0,1,.59.133,3.522,3.522,0,0,1,.4,1.837c0,.364.053.727.048,1.091a8.322,8.322,0,0,1-.1,1.2c-.04.244-.093.484-.156.728a4.959,4.959,0,0,1-.413,1.069,2.111,2.111,0,0,1-.6.775,2.352,2.352,0,0,1-.207.124c-.294.1-.4.031-.444-.182a.8.8,0,0,1-.036-.146.444.444,0,0,1,.151-.381,1.52,1.52,0,0,0,.31-.355,2.922,2.922,0,0,0,.262-.51,5,5,0,0,0,.271-.979Z" transform="translate(7.181 10.688)" fill="#221f1f"/>
    <path id="Path_20645" data-name="Path 20645" d="M74.587,49.714c-1.592-.173-3.367.652-3.4,2.431,0,.266.959.1.968-.258A1.628,1.628,0,0,1,73.722,50.2a1.71,1.71,0,0,1,.266.012.884.884,0,0,0,.683-.182c.12-.128.138-.293-.084-.315Z" transform="translate(10.525 7.013)" fill="#221f1f"/>
    <path id="Path_20646" data-name="Path 20646" d="M76.336,50.165c-1.667-.092-3.464,1.664-2.31,3.278.2.28,1.13-.053.886-.386-.6-.838-.128-2.386,1.052-2.32.386,0,1.02-.537.368-.573Z" transform="translate(10.901 7.085)" fill="#221f1f"/>
    <path id="Path_20647" data-name="Path 20647" d="M4.317,44.1C3.2,44.751,1.4,46.8,2.339,48.161c.159.23,1.037-.156.962-.262-.856-1.247.71-3.168,1.775-3.779.4-.235-.559-.128-.736,0Z" transform="translate(0 6.143)" fill="#221f1f"/>
    <path id="Path_20648" data-name="Path 20648" d="M6.915,44.845c-2.12-.058-2.5,2.489-2.169,4.117.062.3,1.029.062.967-.258a5.224,5.224,0,0,1-.036-1.8c.067-.444.266-1.569.852-1.552C6.867,45.351,7.563,44.864,6.915,44.845Z" transform="translate(0.391 6.275)" fill="#221f1f"/>
  </g>
</svg>
