<svg xmlns="http://www.w3.org/2000/svg" width="217.824" height="162.28" viewBox="0 0 217.824 162.28">
  <g id="Campaign_managers" data-name="Campaign managers" transform="translate(137.858 -0.671)">
    <path id="Path_19907" data-name="Path 19907" d="M-21.319,107.686h0a1.149,1.149,0,0,0-.9.768c0,.064-.037.226.375.371a.5.5,0,0,0,.451-.077.707.707,0,0,0,.294-.556C-21.106,107.858-21.179,107.686-21.319,107.686Zm0,0h0a1.149,1.149,0,0,0-.9.768c0,.064-.037.226.375.371a.5.5,0,0,0,.451-.077.707.707,0,0,0,.294-.556C-21.106,107.858-21.179,107.686-21.319,107.686Zm0,0h0a1.149,1.149,0,0,0-.9.768c0,.064-.037.226.375.371a.5.5,0,0,0,.451-.077.707.707,0,0,0,.294-.556C-21.106,107.858-21.179,107.686-21.319,107.686Zm0,0h0a1.149,1.149,0,0,0-.9.768c0,.064-.037.226.375.371a.5.5,0,0,0,.451-.077.707.707,0,0,0,.294-.556C-21.106,107.858-21.179,107.686-21.319,107.686ZM-14.7,97.471s-7.229-4.947-7.486-4.518c-1.807,2.91-6.389,4.306-6.389,4.306s-5.268,19.879-4.409,29.317c1.034,11.345,15.009,15.244,20.575,15.05l5.1.646c1.355-15.117-6.831-36.117-7.382-44.8Zm-6.167,12.014a1.419,1.419,0,0,1-.818.266,1.367,1.367,0,0,1-.452-.072c-1.061-.362-1.016-1.143-.975-1.356a2.018,2.018,0,0,1,1.807-1.522h0c.537,0,1.111.379,1.1,1.414A1.628,1.628,0,0,1-20.867,109.485Zm.4-5.842a1.271,1.271,0,0,1-.881.348,1.456,1.456,0,0,1-.506-.091,1.382,1.382,0,0,1-.935-1.545,1.537,1.537,0,0,1,1.355-1.387,1.66,1.66,0,0,1,.5.036,1.286,1.286,0,0,1,.9.963,1.778,1.778,0,0,1-.447,1.694Zm-.836,4.066h0a1.147,1.147,0,0,0-.9.768c0,.063-.036.226.375.371a.5.5,0,0,0,.451-.077.708.708,0,0,0,.294-.556c-.022-.357-.1-.529-.235-.529Zm0,0h0a1.147,1.147,0,0,0-.9.768c0,.063-.036.226.375.371a.5.5,0,0,0,.451-.077.708.708,0,0,0,.294-.556c-.022-.357-.1-.529-.235-.529Zm0,0h0a1.147,1.147,0,0,0-.9.768c0,.063-.036.226.375.371a.5.5,0,0,0,.451-.077.708.708,0,0,0,.294-.556c-.022-.357-.1-.529-.235-.529Z" fill="#221f1f"/>
    <path id="Path_19908" data-name="Path 19908" d="M-79.244,78.907a11.673,11.673,0,0,1-2.711,3.79,12.524,12.524,0,0,1-1.306,1.094,17.558,17.558,0,0,1-5.376,2.462l-.628.181a3.581,3.581,0,0,0-.551.207,1.817,1.817,0,0,0-.805.732,5.022,5.022,0,0,0-.424,1.464,6.844,6.844,0,0,1-.479,1.622c-.158.326-.335.181-.452-.158a3.3,3.3,0,0,1-.036-1.459A6.8,6.8,0,0,1-91.5,87.1a2.767,2.767,0,0,1,1.536-1.356l.452-.144.4-.109c.262-.072.528-.135.786-.221.529-.154,1.048-.33,1.563-.52a12.882,12.882,0,0,0,3.452-2.015,11.222,11.222,0,0,0,2.851-3.316,12.318,12.318,0,0,0,1.03-2.521l.167-.578a1.591,1.591,0,0,1,.163-.393.317.317,0,0,1,.14-.131c.045-.059.122-.05.185-.064h1.608a2.878,2.878,0,0,0,1.356-.32.425.425,0,0,0,.194-.452,1.877,1.877,0,0,0-.3-.619c-.289-.416-.642-.809-.994-1.224-.154-.186-.312-.362-.452-.561-.546-.75-.6-1.125-.452-1.378a.807.807,0,0,1,.109-.162c.158-.118.334.162.691.641.524.732,1.247,1.378,1.857,2.318a3.776,3.776,0,0,1,.212.384,1.71,1.71,0,0,1,.154.524,1.219,1.219,0,0,1-.511,1.179,2.431,2.431,0,0,1-.9.389,5.8,5.8,0,0,1-.841.113c-.28,0-.551.022-.817.022h-.556l-.041.131-.235.741a13.232,13.232,0,0,1-.537,1.469Z" fill="#221f1f"/>
    <path id="Path_19909" data-name="Path 19909" d="M-81.743,68.018a.316.316,0,0,1,.036-.361c0-.041.127-.063.154-.036l.145.176a4.336,4.336,0,0,0,.524.772c.149.15.275.308.411.452a1.475,1.475,0,0,0,.452.294,1.062,1.062,0,0,0,.451.05.6.6,0,0,0,.217-.028h.145c.041,0,.041-.031.072-.04a.622.622,0,0,0,.059-.312.208.208,0,0,0,0-.135c-.023-.037-.05-.249-.113-.488s-.136-.479-.149-.538a6.818,6.818,0,0,0-.222-.868c0-.045-.04-.081-.031-.131a.381.381,0,0,0-.063-.28c-.05-.117-.1-.235-.145-.361a.566.566,0,0,1,0-.217c0-.068.1-.09.117-.081s.077-.032.113-.059a.11.11,0,0,1,.037-.027,3.161,3.161,0,0,1,.628.678,1.893,1.893,0,0,0,.094.171l.186.384c.131.285.253.6.275.664a.82.82,0,0,1,.041.213,4.271,4.271,0,0,1,.135.515A2.394,2.394,0,0,1-78.11,69a1.166,1.166,0,0,1-.253.759c-.041.041-.086.091-.127.14a.941.941,0,0,1-.325.244,1.852,1.852,0,0,1-.9.136,2.012,2.012,0,0,1-.61-.154.429.429,0,0,1-.094-.063,1.072,1.072,0,0,0-.113-.077,2.858,2.858,0,0,1-.9-.98c-.054-.086-.19-.529-.226-.628S-81.716,68.063-81.743,68.018Z" fill="#221f1f"/>
    <path id="Path_19910" data-name="Path 19910" d="M-95.215,72.667c1.64,4.853-5.707,11.847-12.145,12.718a16.764,16.764,0,0,1-14.652-5.218c-4.97-5.611-2.408-13.884,1.694-19.292,6.353-8.376,16.067-15.185,26.544-15.135,5.218.027,6.777,1.956,8.973,2.616,4.712-4.134,16.1-6.5,17.755,2.638,1.008,5.544-4.676,9.8-10.454,10.446-7.3.818-8.865-1.988-9.94-2.643-1.283-.858-5.114,6.045-5.756,6.538-1.482-1.442-4.644-2.336-6.37-.809C-104.419,68.818-96.837,73.178-95.215,72.667Z" fill="#221f1f"/>
    <path id="Path_19911" data-name="Path 19911" d="M-76.439,45.315a16.379,16.379,0,0,0-6.081,2.042,13.189,13.189,0,0,0-1.355.9,3.351,3.351,0,0,0-.312.244l-.258.212-.149.122c-.049.041-.094.109-.162.059l-.646-.217-.407-.172c-1.062-.488-1.983-1.048-2.986-1.432a14.914,14.914,0,0,0-6.362-.822,26.43,26.43,0,0,0-6.424,1.17,33.41,33.41,0,0,0-8.585,4.256,41.792,41.792,0,0,0-6.438,5.467c-.488.51-.98,1.016-1.436,1.559l-.7.8-.664.827a23.269,23.269,0,0,0-2.394,3.479,19.479,19.479,0,0,0-2.576,7.938,12.347,12.347,0,0,0,.4,4.13l.144.5a2.817,2.817,0,0,0,.177.488l.42.949.528.9a8.558,8.558,0,0,0,.637.832,15.035,15.035,0,0,0,5.942,4.382,16.96,16.96,0,0,0,7.283,1.265,15.053,15.053,0,0,0,8.688-3.442,16.347,16.347,0,0,0,3.289-3.407,7.778,7.778,0,0,0,1.6-4.288c-.027-.939-.172-1.355-.063-1.355s.384.42.519,1.3a5.493,5.493,0,0,1-.036,1.6,7.955,7.955,0,0,1-.642,1.979A13.139,13.139,0,0,1-98.649,81.7a19.318,19.318,0,0,1-4.215,2.851A14,14,0,0,1-107.785,86a17.152,17.152,0,0,1-5.091-.216,17.413,17.413,0,0,1-4.826-1.659,15.933,15.933,0,0,1-4.116-3.036,9.629,9.629,0,0,1-.849-.967l-.4-.515-.194-.257-.167-.285-.33-.56a3.419,3.419,0,0,1-.3-.574c-.167-.4-.366-.79-.5-1.206a12.685,12.685,0,0,1-.592-5.11,17.935,17.935,0,0,1,1.166-4.97,23.7,23.7,0,0,1,2.9-5.385,44.2,44.2,0,0,1,3.958-4.713A40.387,40.387,0,0,1-107.378,49,28.19,28.19,0,0,1-94.4,45.383a14.316,14.316,0,0,1,6.668,1.238c.52.235,1.021.5,1.514.759.248.126.492.244.741.357l.37.153.231.077c.027,0,.049-.027.072-.04l.1-.082c.109-.1.226-.185.339-.266.231-.176.452-.339.7-.5a16.3,16.3,0,0,1,1.482-.859,17.781,17.781,0,0,1,3.949-1.436,14.352,14.352,0,0,1,4.192-.371A8.6,8.6,0,0,1-70,45.69a6.276,6.276,0,0,1,1.59,1.437,7.08,7.08,0,0,1,1.075,1.848,9.483,9.483,0,0,1,.678,3.162,7.3,7.3,0,0,1-.682,3.163,7.339,7.339,0,0,1-.366.718l-.452.678a10.679,10.679,0,0,1-1.053,1.215,12,12,0,0,1-1.211,1.053,13.427,13.427,0,0,1-1.355.868c-.452.28-.944.488-1.419.722a7.9,7.9,0,0,1-1.5.543,14.738,14.738,0,0,1-3.1.628,15.424,15.424,0,0,1-6.271-.452,7.787,7.787,0,0,1-1.925-.949,10.072,10.072,0,0,1-.84-.646,8.536,8.536,0,0,0-.755-.614.291.291,0,0,0-.248,0,1.283,1.283,0,0,0-.334.18,4.436,4.436,0,0,0-.655.592,16.288,16.288,0,0,0-1.162,1.432c-.731,1-1.4,2.047-2.091,3.086l-.262.393-.136.194-.154.222a3.38,3.38,0,0,1-.451.519l-.064.064s-.04.045-.067,0l-.131-.1-.272-.2c-.045-.032-.094-.077-.14-.113l-.122-.09c-.058-.041-.117-.091-.18-.127s-.244-.163-.375-.23a6.4,6.4,0,0,0-.8-.375,4.694,4.694,0,0,0-3.348-.154,2.536,2.536,0,0,0-.411.212,4.6,4.6,0,0,0-.366.285l-.352.343-.312.371a3.368,3.368,0,0,0-.732,1.708,2.971,2.971,0,0,0,.294,1.549,5.084,5.084,0,0,0,.768,1.157,8.67,8.67,0,0,0,1.613,1.41,13.513,13.513,0,0,0,2.091,1.17,2.187,2.187,0,0,0,.719.181c.14,0,.122.063-.091.144a2.325,2.325,0,0,1-1.084-.045,7.116,7.116,0,0,1-1.753-.709A8.218,8.218,0,0,1-100.28,70.5a4.677,4.677,0,0,1-1.292-2.661,3.615,3.615,0,0,1,.2-1.55,4.583,4.583,0,0,1,.764-1.324,6.379,6.379,0,0,1,.5-.551c.09-.086.171-.176.271-.258l.32-.248a3.939,3.939,0,0,1,1.478-.588,5.928,5.928,0,0,1,3.013.321,6.4,6.4,0,0,1,1.356.669,2.465,2.465,0,0,1,.32.217l.073.054c0,.023.031,0,.045,0l.294-.452.393-.587.786-1.188c.533-.791,1.08-1.586,1.69-2.354a10.132,10.132,0,0,1,1.021-1.121,3.272,3.272,0,0,1,.682-.51,1.32,1.32,0,0,1,.239-.109,1.089,1.089,0,0,1,.312-.077,1.04,1.04,0,0,1,.352,0,3.385,3.385,0,0,1,.326.127,4.111,4.111,0,0,1,.4.3l.317.271c.2.172.393.335.591.488a7.473,7.473,0,0,0,1.27.777,9.352,9.352,0,0,0,2.932.768,16.108,16.108,0,0,0,3.136.027,15.683,15.683,0,0,0,3.1-.5,12.878,12.878,0,0,0,5.557-3.086A7.9,7.9,0,0,0-68.035,54.8a6.561,6.561,0,0,0,.515-3.009,6.949,6.949,0,0,0-2.824-5.309,6.642,6.642,0,0,0-1.355-.714,8.6,8.6,0,0,0-1.523-.393,11.134,11.134,0,0,0-3.194-.031Z" fill="#221f1f"/>
    <path id="Path_19912" data-name="Path 19912" d="M-118,124.9q3.009-5.924,5.941-11.905,1.071-2.182,2.132-4.36c1.274-2.553,2.553-5.106,3.877-7.636.664-1.269,1.355-2.53,2.042-3.772a25.852,25.852,0,0,1,2.367-3.637,3.562,3.562,0,0,1,.366-.371,2.551,2.551,0,0,1,.231-.171,1.194,1.194,0,0,1,.325-.127,2.945,2.945,0,0,1,1.062.068,8.961,8.961,0,0,1,1.807.709c.578.28,1.139.587,1.694.9a11.878,11.878,0,0,0,1.663.79,28.236,28.236,0,0,0,4.617,1.238,11.093,11.093,0,0,0,4.654.055c.452-.136.65-.181.678-.1s-.14.284-.525.528a4.871,4.871,0,0,1-1.762.57,9.634,9.634,0,0,1-2.611-.046,27.17,27.17,0,0,1-4.888-1.247l-.592-.216a5.546,5.546,0,0,1-.615-.263c-.393-.189-.759-.388-1.12-.587-.723-.4-1.432-.795-2.151-1.116a6.519,6.519,0,0,0-1.071-.379l-.257-.055h-.456c.027.15-.037-.2-.028-.158v.027c0,.035,0,.07,0,.1v.036h0a.065.065,0,0,0-.049.032,3.882,3.882,0,0,0-.714.768c-.235.316-.452.646-.682.99-.881,1.355-1.686,2.81-2.485,4.26-1.9,3.479-3.682,7.229-5.481,10.843q-2.976,6-5.954,12.018-1.853,3.687-3.741,7.356c-1.916,3.7-3.9,7.4-5.932,11-1.591,2.8-3.163,5.539-4.93,8.2-.388.583-.772,1.157-1.188,1.731-1.563,2.123-2.214,2.71-2.756,2.959a2.569,2.569,0,0,1-.366.167c-.3.05.357-.777,1.491-2.295,1.681-2.259,3.231-4.712,4.744-7.229s2.982-5.173,4.432-7.807c2.128-3.917,4.189-7.9,6.2-11.9Z" fill="#221f1f"/>
    <path id="Path_19913" data-name="Path 19913" d="M-86.8,106.168a8.774,8.774,0,0,0,1.287-1.78c.145-.23.222-.5.348-.736a19.141,19.141,0,0,0,1.039-2.743c.118-.42.217-.854.3-1.283a10.061,10.061,0,0,1,.366-1.644c.131-.335.836.271.71.9a18.077,18.077,0,0,1-.981,3.366c-.14.33-.248.669-.384,1.012l-.194.511-.226.5c-.162.371-.388.71-.583,1.062l-.343.5a4.239,4.239,0,0,1-.371.483,6.944,6.944,0,0,1-.5.556l-.542.515a10.279,10.279,0,0,1-1.88,1.22c-.506.285-1.016.515-1.545.75-.117.041-.235.086-.357.122-.452.136-.61.118-.754-.077a.768.768,0,0,1-.095-.131c-.081-.158.068-.348.366-.479a18.952,18.952,0,0,0,2.638-1.274,7.809,7.809,0,0,0,1.686-1.355Z" fill="#221f1f"/>
    <path id="Path_19914" data-name="Path 19914" d="M-90.937,133.932a19.944,19.944,0,0,0,4.595.478c1.572,0,3.163-.045,4.726-.14,1.152-.072,2.3-.185,3.452-.275l6.1-.524c1.016-.082,2.037-.163,3.063-.217a23.643,23.643,0,0,1,3.1,0,21.039,21.039,0,0,1,2.711.551c.9.235,1.757.5,2.616.809a17.266,17.266,0,0,1,3.2,1.486,6.375,6.375,0,0,1,2.535,2.548c.312.728.041.66-.4.226a16.341,16.341,0,0,0-2.291-1.766,15.791,15.791,0,0,0-3.031-1.532,28.5,28.5,0,0,0-3.3-1.057c-.561-.14-1.13-.276-1.686-.371a10.158,10.158,0,0,0-1.68-.113c-1.157,0-2.341.068-3.52.141-2.828.176-5.769.542-8.674.768-1.6.122-3.2.226-4.808.275a38.422,38.422,0,0,1-4.834-.113,10.845,10.845,0,0,1-2.964-.655,3.107,3.107,0,0,1-1.305-.949,2.549,2.549,0,0,1-.394-1.581,9.618,9.618,0,0,1,.385-2.259c.2-.727.451-1.441.677-2.151.5-1.4,1-2.805,1.505-4.2a36.535,36.535,0,0,0,1.717-6.537c.063-.488.1-.963.131-1.455.054-.9,0-1.5,0-1.911a3.163,3.163,0,0,1,0-.515,1.733,1.733,0,0,1,.049-.366,1.775,1.775,0,0,1,.082-.3c.063-.113.176,0,.325.329a5.062,5.062,0,0,1,.357,1.586,18.738,18.738,0,0,1-.872,6.3c-.574,2.056-1.356,4.089-2.065,6.108a29.87,29.87,0,0,0-1.355,4.5,5.58,5.58,0,0,0-.1,1.079,1.753,1.753,0,0,0,.217.85,3.111,3.111,0,0,0,1.726.944Z" fill="#221f1f"/>
    <path id="Path_19915" data-name="Path 19915" d="M-60.495,138.526c-.112.055-.212-.022-.316-.185a.309.309,0,0,1,0-.235,1.816,1.816,0,0,1,.185-.108,8.008,8.008,0,0,1,.936-.154,2.685,2.685,0,0,1,.682,0,4.323,4.323,0,0,1,1.4.353,1.384,1.384,0,0,1,.289.167,7.82,7.82,0,0,1,.832.754.823.823,0,0,0,.135.122,4.99,4.99,0,0,1,.687.9c.122.257.262.5.4.745.022.036.054.064.054.109a.444.444,0,0,0,.118.239c.067.1.149.185.212.294a.674.674,0,0,1,.063.185c0,.059-.072.109-.095.1s-.063.049-.09.081,0,.027-.032.031a3.842,3.842,0,0,1-.691-.483c-.032,0-.7-.84-.768-.926a.6.6,0,0,1-.09-.163l-.271-.334c-.141-.149-.272-.3-.285-.3a1.891,1.891,0,0,1-.289-.343.2.2,0,0,0-.064-.063c-.1-.077-.207-.136-.307-.217a1.319,1.319,0,0,0-.339-.177,3.549,3.549,0,0,0-.384-.117l-.067-.027a.733.733,0,0,0-.091-.027,3.561,3.561,0,0,0-.492-.073,2.141,2.141,0,0,0-.506,0,4.179,4.179,0,0,0-.551-.049C-60.323,138.648-60.449,138.508-60.495,138.526Z" fill="#221f1f"/>
    <path id="Path_19916" data-name="Path 19916" d="M-61.362,139.737c-.113,0-.19-.077-.239-.253a.307.307,0,0,1,.049-.23,1.572,1.572,0,0,1,.2-.082c.041,0,.651,0,.858.032a3.744,3.744,0,0,1,.6.072l.6.1a3.3,3.3,0,0,1,.655.167,1.251,1.251,0,0,1,.28.136,8.188,8.188,0,0,1,.849.619.454.454,0,0,0,.145.1,1.848,1.848,0,0,1,.393.425,4.394,4.394,0,0,1,.285.451c.108.253.235.493.352.737,0,.036.05.063.041.108a.367.367,0,0,0,.09.24c.054.1.113.2.158.307a.726.726,0,0,1,.027.185c0,.059-.1.091-.113.082s-.072.036-.1.063a.122.122,0,0,1-.036.027,4.242,4.242,0,0,1-.573-.506l-.312-.411-.357-.452a.686.686,0,0,1-.081-.154l-.082-.108a2.171,2.171,0,0,0-.153-.176c-.122-.127-.258-.231-.262-.24a1.749,1.749,0,0,1-.3-.284.154.154,0,0,0-.063-.05,4.175,4.175,0,0,0-.637-.312,1.719,1.719,0,0,0-.375-.081.367.367,0,0,1-.072-.027.365.365,0,0,0-.091-.032c-.329-.05-.65-.14-.98-.172-.077,0-.425-.144-.51-.149S-61.312,139.724-61.362,139.737Z" fill="#221f1f"/>
    <path id="Path_19917" data-name="Path 19917" d="M-57.951,142.968a.753.753,0,0,1,.452.451c.032.068-.023.19-.1.186a1.737,1.737,0,0,1-.452-.041,16,16,0,0,1-1.721-.777c-.393-.2-.764-.425-1.121-.624a3.52,3.52,0,0,0-.5-.235,1.074,1.074,0,0,0-.194-.031h-.276c-.4.036-.822.108-1.256.181-.19.027-.388.054-.583.067-.673.055-1.355.154-2.019.231a1.642,1.642,0,0,0-.335.058,7.324,7.324,0,0,1-1.116.1,10.377,10.377,0,0,1-1.17,0,17.1,17.1,0,0,1-1.784-.307.651.651,0,0,1-.249-.068,1.577,1.577,0,0,0-.524-.185,4.052,4.052,0,0,1-.727-.249,2.476,2.476,0,0,1-.33-.2c-.095-.063,0-.136.036-.136.117,0,.05-.067.05-.108v-.045a1.9,1.9,0,0,1,.239,0l.5.081c.37.045.759.072.831.1.112.022.225.039.339.05.2,0,.452.063.732.076a11.629,11.629,0,0,0,1.224.028,3.19,3.19,0,0,1,.366,0,7.079,7.079,0,0,0,.877-.059c.424-.059.844-.091.9-.1a8.519,8.519,0,0,1,1.021-.076.856.856,0,0,0,.208-.023c.583-.095,1.17-.172,1.771-.253.307-.041.619-.1.949-.117h.19a2.6,2.6,0,0,1,.9.2,5.312,5.312,0,0,1,.511.284c.316.2.619.4.93.579.141.086.773.551.945.623A5.5,5.5,0,0,0-57.951,142.968Z" fill="#221f1f"/>
    <path id="Path_19918" data-name="Path 19918" d="M-70.656,127.213c-1.734.14-3.474.335-5.2.561l-1.889.289c-2.223.32-4.436.695-6.628,1.17-.488.1-.976.221-1.455.352s-.962.249-1.432.4c-.605.186-1.206.38-1.807.6l-1.771.633c-.37.122-.416-.091-.19-.416a3.029,3.029,0,0,1,1.446-1.012,44.168,44.168,0,0,1,7.681-1.857c1.558-.244,3.162-.569,4.762-.8,1.748-.262,3.51-.451,5.272-.646,1.084-.1,2.173-.189,3.267-.239.42,0,.831-.027,1.265,0a3.288,3.288,0,0,1,.641.081,4.951,4.951,0,0,1,.624.145,11.553,11.553,0,0,1,2.322.971c1.134.615,2.191,1.3,3.235,1.988l.691.452c.854.547,1.1.709,1.2,1.007a1.435,1.435,0,0,1,.072.2c.036.2-.452.181-1.152-.189-1.025-.543-1.965-1.211-2.937-1.808a16.091,16.091,0,0,0-3.013-1.576,5.218,5.218,0,0,0-.583-.19,4.687,4.687,0,0,0-.6-.14,2.545,2.545,0,0,0-.583-.068h-.619c-.858,0-1.735.081-2.607.154Z" fill="#221f1f"/>
    <path id="Path_19919" data-name="Path 19919" d="M-91.664,150.739a41.341,41.341,0,0,1-6.362,4.093c-.822.407-1.626.858-2.471,1.215a50.176,50.176,0,0,1-9.194,3.036l-2.1.452c-.7.154-1.41.258-2.105.393a37.4,37.4,0,0,1-5.422.615c-1.134.04.248-.9,2.3-1.085a68.635,68.635,0,0,0,10.843-2.123,42.193,42.193,0,0,0,6.325-2.467,41.758,41.758,0,0,0,6.429-3.8,39.12,39.12,0,0,0,3.565-2.909,31.265,31.265,0,0,0,4.55-5.255,19.428,19.428,0,0,0,2.326-4.725l.163-.547c.041-.181.081-.366.126-.551.082-.344.109-.628.154-.868s.054-.452.068-.583a2.108,2.108,0,0,1,.054-.388,2.575,2.575,0,0,1,.081-.276c.037-.081.064-.185.1-.244s.167,0,.3.258a2.96,2.96,0,0,1,.177,1.315,12.907,12.907,0,0,1-1.532,4.816,25.074,25.074,0,0,1-2.837,4.287,35.5,35.5,0,0,1-5.467,5.363Z" fill="#221f1f"/>
    <path id="Path_19920" data-name="Path 19920" d="M-98.283,104.7c0,1.636-.935,2.792-2.679,2.069a2.105,2.105,0,0,1-1.532-2.218C-102.191,101.131-98.283,101.253-98.283,104.7Z" fill="#221f1f"/>
    <path id="Path_19921" data-name="Path 19921" d="M-97,118.444c0,3.953-5.62,2.033-4.125-1.423C-100.072,114.594-97,115.86-97,118.444Z" fill="#221f1f"/>
    <path id="Path_19922" data-name="Path 19922" d="M-113.107,132.02a1.966,1.966,0,0,1-.361.665c-1.92,2.331-5.124-1.274-3.163-3.4C-114.869,127.367-112.488,130.064-113.107,132.02Z" fill="#221f1f"/>
    <path id="Path_19923" data-name="Path 19923" d="M-98.4,141.581a2.011,2.011,0,0,1-1.726,1.278,1.674,1.674,0,0,1-2.065-1.766c-.036-2.165,2.322-3.561,3.511-1.771A2.483,2.483,0,0,1-98.4,141.581Z" fill="#221f1f"/>
    <path id="Path_19924" data-name="Path 19924" d="M-117.4,151.6a2.01,2.01,0,0,1-1.726,1.278,1.671,1.671,0,0,1-2.065-1.766c-.036-2.165,2.318-3.561,3.511-1.771A2.492,2.492,0,0,1-117.4,151.6Z" fill="#221f1f"/>
    <path id="Path_19925" data-name="Path 19925" d="M-90.444,97c-.619-.194-1.229-.411-1.808-.633-.221-.077-.451-.14-.664-.226-.763-.3-1.518-.637-2.259-.966-.334-.15-.677-.276-1.016-.4a5.858,5.858,0,0,1-1.279-.529c-.248-.158.393-.781.9-.587a26.666,26.666,0,0,1,2.575,1.161,13.883,13.883,0,0,0,1.608.624c.6.216,1.193.451,1.808.623.37.122.745.231,1.12.33a10.947,10.947,0,0,0,1.721.325,5.015,5.015,0,0,0,1.306-.072,1.785,1.785,0,0,0,.262-.063c.325-.077.42-.064.574.122a1.435,1.435,0,0,1,.108.126c.1.14,0,.348-.289.475a5.1,5.1,0,0,1-2.711.153,16.946,16.946,0,0,1-1.924-.452Z" fill="#221f1f"/>
    <path id="Path_19926" data-name="Path 19926" d="M-95.794,73.106c-.321-.059-.637-.131-.953-.213-.118-.031-.235-.036-.352-.077a6.84,6.84,0,0,1-1.175-.5c-.167-.081-.339-.167-.515-.24a1.237,1.237,0,0,1-.6-.451c-.081-.131.6-.633.763-.52l1.058.655a2.6,2.6,0,0,0,.768.253c.293.077.587.154.9.208.19.036.375.068.565.09a6.743,6.743,0,0,0,.863.073,4.877,4.877,0,0,0,.669-.1c.049,0,.1-.023.144-.027.186,0,.244.04.28.266a.3.3,0,0,0,.027.154.331.331,0,0,1-.194.37,3.308,3.308,0,0,1-1.265.154,7.1,7.1,0,0,1-.971-.1Z" fill="#221f1f"/>
    <path id="Path_19927" data-name="Path 19927" d="M-131.979,122.23q1.356-3.131,2.806-6.226c.348-.754.691-1.513,1.062-2.259.321-.66.678-1.306,1.021-1.956l.56-.963a10.33,10.33,0,0,1,.664-.944,5.558,5.558,0,0,1,4.184-1.762,5.938,5.938,0,0,1,3.709,1.536,9.838,9.838,0,0,1,2.774,4.225c.186.492-.049.5-.42.189a4.063,4.063,0,0,1-.619-.691,10.469,10.469,0,0,1-.705-1.03l-.149-.262-.176-.244-.348-.5a2.814,2.814,0,0,0-.379-.451l-.4-.452A5.63,5.63,0,0,0-120.3,109.2a4.75,4.75,0,0,0-4.355.615,6.477,6.477,0,0,0-1.731,2.318c-.515.894-.94,1.852-1.382,2.787q-1.478,3.09-2.851,6.231c-.56,1.292-1.125,2.579-1.663,3.881-.827,1.96-1.64,3.944-2.4,5.918-.583,1.536-1.107,3.063-1.618,4.6-.108.338-.217.673-.33,1.012-.42,1.269-.578,1.644-.876,1.861a1.582,1.582,0,0,1-.2.145c-.2.085-.208-.5.059-1.455a89.7,89.7,0,0,1,3.013-8.584q1.275-3.141,2.63-6.308Z" fill="#221f1f"/>
    <path id="Path_19928" data-name="Path 19928" d="M-42.043,135.82l3.614-15.361,1.3-5.625.7-2.9-6.777,3-1.807.8h-.05v.045l-.032.149-.108.51-.235,1.008q-.488,2.015-1,4c-.741,2.909-1.486,5.837-2.227,8.724-.945,3.709-1.862,7.446-2.928,11.119-.669,2.291-.678-.84.452-5.105l2.968-11.35,1.477-5.683c.24-.949.479-1.9.705-2.851l.172-.791.068-.33a1.769,1.769,0,0,1,.293-.144l.425-.19,1.356-.587,3.826-1.69,4.591-2.069c-.515,2.213-1.031,4.436-1.546,6.641L-40.43,132.63l-1.107,4.771-.565,2.4L-42.368,141l-.127.587a1.639,1.639,0,0,1-.108.452l-.38.2-10.143,5.286-3.5-.452c-3.781-.483-7.495-.9-11.24-1.306l-2.463-.257a22.023,22.023,0,0,1-4.7-.705,3.357,3.357,0,0,1-.452-.158c-.158-.082.086-.172.673-.217a22.09,22.09,0,0,1,2.6.086c3.09.248,6.235.6,9.429.967l4.812.587,4.671.6,1.4-.741,7.076-3.7,1.49-.782.055-.271.108-.488.217-.976.9-3.89Z" fill="#221f1f"/>
    <path id="Path_19929" data-name="Path 19929" d="M-20.284,87.315a7.546,7.546,0,0,1-1.568.7,6.021,6.021,0,0,1-1.726.285,8.417,8.417,0,0,1-3.3-.7,7.718,7.718,0,0,1-2.065-1.355A10.711,10.711,0,0,1-31.3,82.7a21.068,21.068,0,0,1-1.22-4c-.253-1.2-.452-2.422-.623-3.615q-.164-1.158-.294-2.322c-.086-.777-.149-1.554-.258-2.259-.085-.4.118-.483.452-.117a4.064,4.064,0,0,1,.705,2.015,42.515,42.515,0,0,0,1.667,9.235,9.385,9.385,0,0,0,3.163,4.558,6.674,6.674,0,0,0,2.787,1.179,4.849,4.849,0,0,0,.768.1,5.487,5.487,0,0,0,.769.027,4.8,4.8,0,0,0,1.481-.28,6.971,6.971,0,0,0,1.686-.872,10.485,10.485,0,0,0,1.495-1.229,21.853,21.853,0,0,0,3.587-4.712,32.976,32.976,0,0,0,1.966-4.112c.117-.311.235-.614.352-.93.452-1.162.583-1.519.877-1.713a1.191,1.191,0,0,1,.2-.131c.2-.081.222.479-.054,1.378a29.322,29.322,0,0,1-3.781,7.749,20.573,20.573,0,0,1-2.074,2.588,12.106,12.106,0,0,1-2.607,2.146Z" fill="#221f1f"/>
    <path id="Path_19930" data-name="Path 19930" d="M-5,68.872A4.965,4.965,0,0,1-5.067,70.2a1.743,1.743,0,0,1-.1.357l-.136.308a4.083,4.083,0,0,1-.33.578,4.206,4.206,0,0,1-.61.741,5.3,5.3,0,0,1-2.973,1.3,7.613,7.613,0,0,1-1.432.036,3.576,3.576,0,0,1-1.757-.474c-.167-.1-.041-.285.185-.42a1.112,1.112,0,0,1,.809-.154,5.894,5.894,0,0,0,3.162,0,3.748,3.748,0,0,0,2.228-1.979,1.694,1.694,0,0,0,.167-.479,3.569,3.569,0,0,0,.045-.546,6.371,6.371,0,0,0-.149-1.4,4.79,4.79,0,0,0-.827-1.938,1.192,1.192,0,0,0-1.2-.524,1.686,1.686,0,0,0-.266.1c-.33.167-.452.23-.678.108l-.149-.076c-.145-.1-.1-.353.217-.606a1.9,1.9,0,0,1,.9-.393,1.76,1.76,0,0,1,1.062.208,3.267,3.267,0,0,1,1.256,1.432,7.31,7.31,0,0,1,.673,2.5Z" fill="#221f1f"/>
    <path id="Path_19931" data-name="Path 19931" d="M-30.807,70.038a7.667,7.667,0,0,1-1.3-.2,5.7,5.7,0,0,1-.66-.212,4.574,4.574,0,0,1-.623-.339,4.261,4.261,0,0,1-1.559-2.209,7.786,7.786,0,0,1-.393-1.848,13.115,13.115,0,0,1,.172-3.239l.072-.4v-.108l.031-.145.068-.294.068-.289v-.072c0-.032.045,0,.068,0h.75c.537,0,1.057.05,1.59.086.935.072,1.875.14,2.806.248a11.722,11.722,0,0,1,3.542.8c.352.158.212.334-.154.452a3.729,3.729,0,0,1-1.581,0,31.966,31.966,0,0,0-3.524-.515c-.6-.059-1.2-.113-1.807-.158l-.9-.059a.744.744,0,0,1-.14-.023c-.032,0-.036.077-.059.118a.907.907,0,0,0-.04.153l-.05.262c-.041.177-.063.357-.09.534a10.609,10.609,0,0,0-.091,1.084,10.452,10.452,0,0,0,.127,2.164,4.973,4.973,0,0,0,.808,2.128,2.882,2.882,0,0,0,1.844,1.139A4.977,4.977,0,0,0-29,69.026a4.068,4.068,0,0,0,1.753-1.234,7.631,7.631,0,0,0,1.143-1.9,13.042,13.042,0,0,0,.56-1.64c.081-.285.14-.538.221-.859l.163-.637.045-.162v-.082h.086l.339.073.9.18c.94.2,1.229.321,1.378.588a.907.907,0,0,1,.1.18c.054.19-.362.244-1.062.136l-.782-.127-.194-.031h-.185v.153h0l-.023.1c-.072.266-.14.533-.221.8a11.247,11.247,0,0,1-1.4,3.163,5.378,5.378,0,0,1-2.01,1.843,5.005,5.005,0,0,1-2.688.5Z" fill="#221f1f"/>
    <path id="Path_19932" data-name="Path 19932" d="M-21.771,66.613A5.542,5.542,0,0,0-20.9,70.35a1.284,1.284,0,0,0,.23.253,3.238,3.238,0,0,0,.253.23,4.6,4.6,0,0,0,.588.379,4.473,4.473,0,0,0,2.385.705,3.915,3.915,0,0,0,2.331-.849,6.487,6.487,0,0,0,1.528-1.74,18.017,18.017,0,0,0,1.26-2.71c.122-.29.321-.2.452.126a2.049,2.049,0,0,1-.095,1.469,9.545,9.545,0,0,1-1.807,2.814,5.121,5.121,0,0,1-3.023,1.64,4.891,4.891,0,0,1-1.061.041,4.2,4.2,0,0,1-.525-.077,3.157,3.157,0,0,1-.515-.113,6.6,6.6,0,0,1-1.884-.9,4.181,4.181,0,0,1-1.4-1.848,6.616,6.616,0,0,1-.452-2.205,13.46,13.46,0,0,1,.2-2.711c.059-.33.118-.664.19-.994l.14-.61.081-.339a2.6,2.6,0,0,1,.353,0l.614.046.5.045,1,.1a29.4,29.4,0,0,1,3.063.451c.225.04.448.092.669.154.831.235,1.07.452,1.143.705a.766.766,0,0,1,.04.19c0,.194-.357.162-.926,0a36.02,36.02,0,0,0-5.467-.823h-.325v.05l-.045.217c-.036.172-.072.343-.1.515A14.741,14.741,0,0,0-21.771,66.613Z" fill="#221f1f"/>
    <path id="Path_19933" data-name="Path 19933" d="M-27.6,70.833c.131-.483.275-.958.42-1.432.054-.172.086-.348.14-.52.2-.6.425-1.2.632-1.807.091-.262.163-.538.231-.809a3.212,3.212,0,0,1,.343-1.007c.068-.113.262,0,.429.153a.624.624,0,0,1,.258.57,14.012,14.012,0,0,1-.746,2.042,10.193,10.193,0,0,0-.393,1.278c-.144.452-.284.94-.415,1.41-.077.289-.154.578-.213.867l-.049.294a.7.7,0,0,0,0,.194c0,.027,0,.073.036.082l.1.022.23.036c.353.055.7.059,1.053.086h.235c.284.041.366.113.384.344a.7.7,0,0,1,0,.158c0,.176-.14.3-.362.312a5.942,5.942,0,0,1-.971-.032,3,3,0,0,1-.492-.063l-.389-.064a.686.686,0,0,1-.226-.063.744.744,0,0,1-.194-.1.757.757,0,0,1-.258-.569,3.843,3.843,0,0,1,.05-.624c.045-.266.1-.515.158-.763Z" fill="#221f1f"/>
    <path id="Path_19934" data-name="Path 19934" d="M-31.177,66.044a1.652,1.652,0,0,1,.312,1.007,1.071,1.071,0,0,1-.068.452.7.7,0,0,1-.14.208.591.591,0,0,1-.2.158.748.748,0,0,1-.452.081,1.15,1.15,0,0,1-.624-.262,1.2,1.2,0,0,1-.384-.451.635.635,0,0,1,.185-.8c.073-.049.213.127.353.294a2.4,2.4,0,0,0,.2.217c.045.054.126.081.054.05a.134.134,0,0,0-.063,0h.108a.575.575,0,0,0,.136.2.124.124,0,0,0,.045.037v.036h0v-.027a.3.3,0,0,1,0-.1v-.136a.719.719,0,0,0-.059-.262.368.368,0,0,0-.167-.2.239.239,0,0,0-.321.045c-.041.077,0,.149.09.212s.041.028.055.046.04.126-.113.3l-.1.117a.3.3,0,0,1-.4.1.865.865,0,0,1-.371-.732,1,1,0,0,1,.588-.872,1.142,1.142,0,0,1,.745-.049,1.188,1.188,0,0,1,.574.379Z" fill="#221f1f"/>
    <path id="Path_19935" data-name="Path 19935" d="M-19.575,66.97a1.415,1.415,0,0,1,.353,1.044,1.448,1.448,0,0,1-.037.388.952.952,0,0,1-.5.6.9.9,0,0,1-.755,0,.786.786,0,0,1-.451-.551.672.672,0,0,1,.275-.723c.068-.036.213.127.348.3s.253.339.267.353h-.036a.516.516,0,0,0-.136,0h-.041a.033.033,0,0,0,.032-.027.206.206,0,0,0,.045-.064v-.031a.1.1,0,0,0,.036.067c.064.059.091,0,.118-.144a.958.958,0,0,0,0-.262.672.672,0,0,0-.045-.235c-.032-.077-.064-.127-.131-.136a.258.258,0,0,0-.294.149c-.027.1.054.163.131.217s.045,0,.059.036c.081.05.063.113-.059.308l-.081.135a.294.294,0,0,1-.375.154.855.855,0,0,1-.484-.637A.994.994,0,0,1-21,66.97a1.082,1.082,0,0,1,.687-.271,1.031,1.031,0,0,1,.732.271Z" fill="#221f1f"/>
    <path id="Path_19936" data-name="Path 19936" d="M-41.65,42.7a8.733,8.733,0,0,0-2.973,4.518,12.271,12.271,0,0,0-.528,2.711,10.486,10.486,0,0,0,.113,2.769,6.916,6.916,0,0,0,1.689,3.542,10.523,10.523,0,0,0,6.294,3.113,10.135,10.135,0,0,0,1.807.145,7.369,7.369,0,0,0,.9-.032l.9-.117a18,18,0,0,0,3.488-1.067,32.488,32.488,0,0,0,5.725-3.162,67.227,67.227,0,0,0,6.573-5.178c.651-.574.723-.339.33.321a11.6,11.6,0,0,1-2.557,2.774q-1.686,1.356-3.5,2.584a37.6,37.6,0,0,1-3.736,2.259,24.368,24.368,0,0,1-4.044,1.731,12.189,12.189,0,0,1-4.419.686,14.588,14.588,0,0,1-5.245-1.256,8.828,8.828,0,0,1-4.111-3.614,8.344,8.344,0,0,1-.931-2.891,12.6,12.6,0,0,1-.05-3,12.374,12.374,0,0,1,1.979-5.6,6.446,6.446,0,0,1,.569-.736,6.088,6.088,0,0,1,.651-.673,6.432,6.432,0,0,1,.709-.583,7.235,7.235,0,0,1,.737-.542,13.1,13.1,0,0,1,3.248-1.668,12.737,12.737,0,0,1,2.711-.628,14.284,14.284,0,0,1,2.774,0,17.335,17.335,0,0,1,5.291,1.424,25.821,25.821,0,0,1,6.994,4.59c.451.42.9.836,1.31,1.3a11.513,11.513,0,0,1,1.5,1.951,2.385,2.385,0,0,1,.384,1.049,2.116,2.116,0,0,1,0,.356c-.072.272-.537-.506-1.581-1.752a26.57,26.57,0,0,0-5.571-4.9,19.879,19.879,0,0,0-6.917-2.972,12.467,12.467,0,0,0-2.778-.271,10.366,10.366,0,0,0-2.761.338,11.791,11.791,0,0,0-2.611.967c-.407.235-.827.452-1.211.71l-.583.388-.551.452Z" fill="#221f1f"/>
    <path id="Path_19937" data-name="Path 19937" d="M-8.42,49.833a10.835,10.835,0,0,0-3.42-.555,7.082,7.082,0,0,0-3.3.727,1.973,1.973,0,0,0-.782.723,1.718,1.718,0,0,0-.126,1.034,9.5,9.5,0,0,0,.632,2.133,20.3,20.3,0,0,0,1,2.069,24.074,24.074,0,0,0,2.607,3.809A14.323,14.323,0,0,0-8.8,62.484a7.175,7.175,0,0,0,2.308,1,4.136,4.136,0,0,0,2.4-.158c.452-.181.547.022.195.415a1.385,1.385,0,0,1-.362.3,2.244,2.244,0,0,1-.546.271,2.617,2.617,0,0,1-.714.158h-.4a3.345,3.345,0,0,1-.416-.045A7.085,7.085,0,0,1-9.048,63.36a13.108,13.108,0,0,1-2.2-1.775A21.4,21.4,0,0,1-14.61,57.17a26.538,26.538,0,0,1-1.536-3,11.754,11.754,0,0,1-.573-1.64,4.145,4.145,0,0,1-.1-.452,3.613,3.613,0,0,1-.063-.452,2.373,2.373,0,0,1,.09-.98l.091-.258c.045-.085.094-.167.144-.248a2.182,2.182,0,0,1,.357-.416,3.693,3.693,0,0,1,.84-.578,6.874,6.874,0,0,1,1.844-.592,10.813,10.813,0,0,1,3.772.036,11.764,11.764,0,0,1,4.283,1.762A12.517,12.517,0,0,1-.988,55.6a6.2,6.2,0,0,1,.475,2.679,8,8,0,0,1-.529,2.652,6.575,6.575,0,0,1-.533,1.089,3.981,3.981,0,0,1-1.089,1.2,1.07,1.07,0,0,1-.7.24,1.029,1.029,0,0,1-.248,0c-.1-.041-.045-.172.126-.357.086-.086.2-.195.321-.339l.208-.217.217-.267a6.874,6.874,0,0,0,1.4-4.125A5.349,5.349,0,0,0-1.724,56,12.2,12.2,0,0,0-2.9,53.985a10.848,10.848,0,0,0-5.521-4.093Z" fill="#221f1f"/>
    <path id="Path_19938" data-name="Path 19938" d="M-22.281,140.216l.05.032c.424.3.284,1.025.23,1.224a6.7,6.7,0,0,1-.267.831,13.159,13.159,0,0,1-.7,1.514,13.82,13.82,0,0,1-1.884,2.738,6.52,6.52,0,0,1-.931.858,2.742,2.742,0,0,1-.325.222l-.113.067h-.936a54.692,54.692,0,0,1-8.331-.65c-.61-.09-1.22-.217-1.807-.321s-1.22-.235-1.807-.4a16.422,16.422,0,0,1-4.473-1.645c-.452-.239-.267-.4.2-.411a3.686,3.686,0,0,1,.881.1,7.23,7.23,0,0,1,1.156.321,40.353,40.353,0,0,0,9.235,1.974c.953.1,1.929.163,2.91.186h2.218a3.808,3.808,0,0,0,.565,0,1.071,1.071,0,0,0,.113-.077l.149-.1c.095-.081.194-.158.289-.244.185-.172.366-.357.538-.551a11.376,11.376,0,0,0,.944-1.261,14.029,14.029,0,0,0,1.446-2.819,4.829,4.829,0,0,0,.171-.615,1,1,0,0,0,.023-.135.547.547,0,0,0,0-.081.141.141,0,0,0-.072-.131l-.484-.339c-.176-.127-.366-.231-.546-.348-.366-.231-.755-.429-1.134-.637a37.748,37.748,0,0,0-5.558-2.3c-1.472-.484-2.954-.854-4.45-1.189l-.985-.2c-1.233-.262-1.613-.366-1.843-.637a1.068,1.068,0,0,1-.154-.181c-.1-.185.452-.262,1.378-.122a41.641,41.641,0,0,1,8.354,2.259c1.026.389,2.042.818,3.036,1.311.5.234.99.506,1.478.777l.718.451c.122.077.235.163.352.24l.4.28Z" fill="#221f1f"/>
    <path id="Path_19939" data-name="Path 19939" d="M-41.844,100.792a40.893,40.893,0,0,1,5.209-5.9A24.818,24.818,0,0,1-33.5,92.452a15.875,15.875,0,0,1,3.583-1.771l1.143-.326a1.061,1.061,0,0,1,.239,0,.584.584,0,0,1,.235.023.477.477,0,0,1,.217.1.544.544,0,0,1,.172.162,1.476,1.476,0,0,1,.271.818,6.886,6.886,0,0,1-.063,1.234,22.385,22.385,0,0,1-.452,2.295c-.773,3.266-1.69,6.47-2.48,9.709s-1.514,6.483-2.043,9.768a57.178,57.178,0,0,0-.759,8.792,27.244,27.244,0,0,0,1.979,10.934c.493,1.034.24,1.021-.406.216a11.751,11.751,0,0,1-1.93-4.716A40.008,40.008,0,0,1-34.01,118,91.823,91.823,0,0,1-31.9,106.516c.551-2.259,1.138-4.567,1.73-6.876.294-1.157.583-2.313.876-3.47s.552-2.318.728-3.465a6.587,6.587,0,0,0,.086-1.13,2.218,2.218,0,0,0-.027-.23.211.211,0,0,0-.032-.1.14.14,0,0,0-.176-.059l-.728.208-.384.108-.375.149-.745.308c-.253.1-.484.244-.723.361l-.718.38-.683.451a14.259,14.259,0,0,0-1.332.94,31.347,31.347,0,0,0-4.7,4.559,52.8,52.8,0,0,0-5.485,7.866A67.9,67.9,0,0,0-50.5,119.786a51.033,51.033,0,0,0-1.423,5.385,39.916,39.916,0,0,0-.772,5.462c-.041.407-.041.805-.05,1.207a11.831,11.831,0,0,0,0,1.206c.032.407,0,.718.027,1.035s.045.6.068.858c.027.524.09.935.135,1.279a10.953,10.953,0,0,1,.1,1.436,3.249,3.249,0,0,1-.032.452c-.041.167-.181-.036-.393-.565a5.564,5.564,0,0,1-.325-1.039,10.246,10.246,0,0,1-.267-1.495,23.981,23.981,0,0,1-.041-5.124,39.543,39.543,0,0,1,.791-5.155,61.71,61.71,0,0,1,3.163-10.084,66.665,66.665,0,0,1,7.631-13.852Z" fill="#221f1f"/>
    <path id="Path_19940" data-name="Path 19940" d="M-.69,147.427a20.128,20.128,0,0,0-3.537-3.1c-.452-.33-.971-.61-1.464-.9a7.863,7.863,0,0,0-2.738-1.043,19,19,0,0,0-3.036.036,26.007,26.007,0,0,1-2.792.045,9.736,9.736,0,0,1-3.515-.736c-.343-.149-.208-.33.149-.43a3.614,3.614,0,0,1,1.563,0,14.822,14.822,0,0,0,3.42.3c1.166,0,2.359-.131,3.615-.077a7.234,7.234,0,0,1,2.259.484,13.942,13.942,0,0,1,2.046,1.021,22.539,22.539,0,0,1,3.886,3.04q.535.529,1.026,1.107a6.588,6.588,0,0,1,.451.615l.213.325a1.759,1.759,0,0,1,.095.176l.122.24v.04a1.051,1.051,0,0,1,.094.728.558.558,0,0,1-.555.379,1.291,1.291,0,0,1-.746-.176,5.814,5.814,0,0,1-.524-.375c-.6-.483-1.166-.98-1.735-1.468l-1.08-.9-.537-.452-.271-.212-.131-.1a.129.129,0,0,0-.068-.036l-.624-.176-.736-.208c-.9-.276-1.184-.425-1.3-.7a.839.839,0,0,1-.077-.186c-.027-.189.393-.207,1.066-.045l.963.244,1.021.28c.081.028.144.086.221.118a1.182,1.182,0,0,1,.14.1l.221.171.425.348.84.705,1.677,1.423.56.452.244.185h0a1.378,1.378,0,0,0-.131-.23c-.082-.118-.149-.239-.24-.357-.18-.235-.37-.452-.578-.7Z" fill="#221f1f"/>
    <path id="Path_19941" data-name="Path 19941" d="M-14.542,97.72c-.492-1.356-1.007-2.67-1.563-3.967-.14-.321-.289-.615-.452-.949l-.031-.059-.05-.108-.1-.226a1.618,1.618,0,0,1-.094-.452.82.82,0,0,1,.081-.4.75.75,0,0,1,.3-.28,1.2,1.2,0,0,1,.42-.108h.488a3.577,3.577,0,0,1,.583.094c.366.077.727.177,1.084.272a13.489,13.489,0,0,1,3.962,1.987A19.627,19.627,0,0,1-6.7,96.513a31.813,31.813,0,0,1,3.614,5.219,63.525,63.525,0,0,1,4.405,10.192c1.2,3.493,2.2,7.048,3.095,10.622.8,3.163,1.536,6.38,2.259,9.542q.682,3.05,1.355,6.1c.226,1.017.452,2.033.7,3.041a29.884,29.884,0,0,0,.831,2.964c.217.587.317.817.231.853s-.344-.176-.646-.664a18.584,18.584,0,0,1-1.862-5.25c-1.839-8.317-3.465-16.644-6-24.8A58.262,58.262,0,0,0-5.04,100.11a27.217,27.217,0,0,0-2.576-3.393,16.508,16.508,0,0,0-3.162-2.8,12.805,12.805,0,0,0-1.83-1.039,11.715,11.715,0,0,0-1.979-.682,8.732,8.732,0,0,0-1.012-.208.806.806,0,0,0-.23,0,.115.115,0,0,0-.095.063.157.157,0,0,0,0,.113.977.977,0,0,0,.036.108l.072.15.244.483c.163.334.3.673.452,1,1.355,3.3,2.53,6.664,3.583,10.057a138.625,138.625,0,0,1,3.854,15.664c.185,1.026.366,2.042.551,3.059l.452,3.049c.167,1.012.275,2.029.393,3.05s.257,2.038.325,3.063c.068.9.135,1.785.208,2.711.027.42.049.809.077,1.161s0,.678,0,.976v1.455a6.521,6.521,0,0,1-.186,1.6,4.129,4.129,0,0,1-.144.479c-.167.321-.339-1.052-.452-3.51-.023-.9-.113-1.807-.19-2.747s-.122-1.853-.212-2.756-.212-1.862-.321-2.8l-.163-1.41c-.067-.451-.14-.939-.207-1.409l-.421-2.828c-.167-.94-.338-1.884-.506-2.833s-.366-1.889-.56-2.833-.379-1.889-.614-2.828a135.365,135.365,0,0,0-4.889-16.55Z" fill="#221f1f"/>
    <path id="Path_19942" data-name="Path 19942" d="M-20.04,94.684c-.416-.326-.822-.66-1.22-.99l-.786-.655-.068.086-.14.2-.167.226a15.22,15.22,0,0,1-1,1.22A9.2,9.2,0,0,1-28.182,97.6a6.316,6.316,0,0,1-2.5-.027A6.089,6.089,0,0,1-33.5,96.138c-.244-.221-.063-.357.276-.366a2.93,2.93,0,0,1,1.305.362,5.629,5.629,0,0,0,2.711.727,6.313,6.313,0,0,0,2.765-.709,9.432,9.432,0,0,0,2.81-2.368c.213-.248.421-.506.619-.768l.145-.2.172-.249.451-.7c.235.153.475.33.7.5l.479.384.845.7a22.369,22.369,0,0,0,2.065,1.532,10.079,10.079,0,0,0,3.492,1.545,4.975,4.975,0,0,0,2.8-.244c.185-.09.37-.163.551-.271.673-.366.872-.506,1.157-.429a.762.762,0,0,1,.189.049c.086.041.086.14,0,.285a1.864,1.864,0,0,1-.51.533,5.164,5.164,0,0,1-2.792,1,7.152,7.152,0,0,1-2.987-.524A15.925,15.925,0,0,1-20.027,94.7Z" fill="#221f1f"/>
    <path id="Path_19943" data-name="Path 19943" d="M21.024,153.906a10.4,10.4,0,0,1,1.807.677c.2.1.416.168.615.272.7.352,1.387.745,2.064,1.129.3.176.615.33.9.483a4.2,4.2,0,0,1,1.157.7c.1.1-.041.267-.258.38a.759.759,0,0,1-.7.063c-.759-.429-1.532-.867-2.282-1.355a11.234,11.234,0,0,0-1.464-.732,15.186,15.186,0,0,0-1.64-.687c-.316-.1-.718-.172-1.084-.289a14.8,14.8,0,0,1-1.622-.633c-.411-.18-.822-.33-1.224-.524l-.267-.126c-.321-.186-.384-.3-.321-.533a.476.476,0,0,1,.046-.154c.076-.158.271-.194.51-.1.709.276,1.405.624,2.128.9a9.232,9.232,0,0,0,1.631.51Z" fill="#221f1f"/>
    <path id="Path_19944" data-name="Path 19944" d="M38.992,150.318a2.082,2.082,0,0,1,.592.4.736.736,0,0,1,.226.483.568.568,0,0,1-.208.452l-.619.33c-.181.086-.321.14-.479.212s-.316.136-.452.2l-.754.366c-.361.185-.714.393-1.075.582-1.283.665-2.567,1.356-3.832,2.047-.56.312-1.111.646-1.653.985a19.692,19.692,0,0,1-2.115,1.261c-.451.216-.334-.818.452-1.315,1.432-.877,2.892-1.7,4.414-2.449.9-.452,1.807-1,2.711-1.482.506-.262,1.017-.524,1.536-.768.131-.068.226-.1.339-.158l.285-.122.18-.059c.059,0,.127-.09.068-.14a.573.573,0,0,0-.185-.135l-.1-.055-.158-.072c-.316-.135-.642-.257-.967-.375l-2.941-1.066c-.773-.28-1.545-.524-2.3-.877-.168-.081-.335-.158-.5-.253-.61-.361-.75-.628-.683-.881a.608.608,0,0,1,.059-.171c.109-.149.334-.045.719.167a15.166,15.166,0,0,0,1.924.845c.687.262,1.4.51,2.115.759l1.608.564.813.3.407.158.212.09c.127.054.249.1.371.167Z" fill="#221f1f"/>
    <path id="Path_19945" data-name="Path 19945" d="M24.946,149.031c-.669.257-1.356.5-2.015.732-.244.086-.484.194-.728.28-.872.289-1.753.547-2.629.813-.393.113-.777.253-1.157.384-.248.086-.492.181-.745.258a2.475,2.475,0,0,1-.836.131.174.174,0,0,1-.072,0,.363.363,0,0,1-.136-.068c-.059-.059-.045-.1,0-.127a.55.55,0,0,0,.127-.094,1.079,1.079,0,0,0,.072-.154.853.853,0,0,1,.524-.542c.976-.285,1.983-.6,3.013-.841a17.479,17.479,0,0,0,1.835-.628c.668-.235,1.355-.451,2-.727.411-.158.818-.316,1.225-.483.61-.258,1.224-.516,1.807-.823a10.518,10.518,0,0,0,1.26-.817c.086-.064.163-.136.253-.2.321-.235.452-.267.651-.149a1.6,1.6,0,0,1,.149.076c.145.1.108.335-.131.57a9.039,9.039,0,0,1-2.449,1.576c-.655.317-1.324.592-1.992.868Z" fill="#221f1f"/>
    <path id="Path_19946" data-name="Path 19946" d="M25.163,154.154l-.8-.452c-.1-.054-.2-.085-.3-.14-.339-.194-.673-.406-1.016-.6a2.721,2.721,0,0,0-.479-.2,1.393,1.393,0,0,1-.606-.28c-.1-.109.389-.782.624-.687a4.8,4.8,0,0,1,1.188.678,4.512,4.512,0,0,0,.746.388l.813.452.5.271c.257.126.506.271.772.379a5.961,5.961,0,0,0,.642.186.216.216,0,0,1,.144.036c.168.068.213.158.136.37a1.222,1.222,0,0,1-.059.145.372.372,0,0,1-.33.244,3.447,3.447,0,0,1-1.156-.348c-.276-.127-.547-.276-.822-.411Z" fill="#221f1f"/>
    <path id="Path_19947" data-name="Path 19947" d="M27.964,152.4l-.565-.339c-.072-.04-.149-.058-.217-.1-.244-.149-.479-.311-.723-.451a1.643,1.643,0,0,0-.343-.145.792.792,0,0,1-.452-.2c-.126-.149.375-.786.547-.719a2.563,2.563,0,0,1,.836.515,2.152,2.152,0,0,0,.533.29l.573.329.357.2a4.408,4.408,0,0,0,.552.271,2.638,2.638,0,0,0,.474.1.9.9,0,0,1,.1,0c.126.041.14.109.077.325l-.045.15c-.059.162-.163.275-.272.284a1.763,1.763,0,0,1-.867-.19c-.2-.085-.4-.194-.6-.293Z" fill="#221f1f"/>
    <path id="Path_19948" data-name="Path 19948" d="M-8.957,160.705c-4.7-.194-9.407-.393-14.106-.492-2.349-.054-4.7-.036-7.057-.036h-7.062l-10.3.031H-79.244c-1.5,0-3.018.073-4.518.122-5.363.195-10.762.452-16.089.687-3.42.14-6.854.271-10.287.312-1.722,0-3.439,0-5.16-.036a33.865,33.865,0,0,1-5.164-.475,4.178,4.178,0,0,1-1.157-.379c-.235-.149-.316-.235-.28-.262a.954.954,0,0,1,.452.063c.253.032.6.1,1.048.122,1.807.14,5.087.068,9.036.05,6.971-.05,13.956-.384,20.95-.664,3.5-.141,7.008-.29,10.527-.357s7.035,0,10.563,0c8.431.036,17.209-.032,25.834-.046h14.232c4.739-.049,9.488.1,14.236.272l17.5.727c8.828.361,17.706.727,26.471.831,3.411.036,6.777.027,10.148-.068,1.68-.049,3.357-.126,5.028-.244a46.58,46.58,0,0,0,4.97-.573c.357-.073.705-.163,1.057-.24.185-.04.294-.1.452-.14a3.007,3.007,0,0,0,.393-.14.121.121,0,0,0,.059-.162h0a.577.577,0,0,0-.045-.085c0-.032-.068-.1-.122-.158a6.367,6.367,0,0,0-.746-.741c-1.025-.877-1.979-1.532-2.756-2.092s-1.418-1-1.943-1.356a14.153,14.153,0,0,1-2.037-1.667,4.183,4.183,0,0,1-.574-.6c-.117-.239.194,0,1.062.52s2.2,1.355,3.894,2.489c.628.425,1.252.859,1.866,1.324a11.8,11.8,0,0,1,1.762,1.541,2.682,2.682,0,0,1,.217.28,1.653,1.653,0,0,1,.217.452.791.791,0,0,1-.239.863,1.037,1.037,0,0,1-.348.167l-.335.122-.334.122-.167.058-.145.037c-.384.085-.772.189-1.161.262l-1.161.194a88.769,88.769,0,0,1-9.375.637c-6.3.144-12.673.022-19.057-.149-9.488-.271-19-.714-28.49-1.1Z" fill="#221f1f"/>
    <path id="Path_19949" data-name="Path 19949" d="M17.044,146.392l-4.884-.33-1.78-.1-6.271-.5c-.931-.077-1.862-.127-2.783-.172-1.184-.054-2.377-.072-3.556-.244-.732-.1.257-.854,1.622-.773,2.412.145,4.825.33,7.251.592,1.455.154,2.973.208,4.464.307l4.911.326,3.027.176c1.527.077,3.063.158,4.577.185h1.757l1.74-.059c.253,0,.5-.036.759-.045.958-.031,1.2-.049,1.455.163a1.059,1.059,0,0,1,.167.131c.135.153-.244.361-.981.474a46.163,46.163,0,0,1-6.537.127c-1.645-.05-3.294-.145-4.938-.231Z" fill="#221f1f"/>
    <path id="Path_19950" data-name="Path 19950" d="M-26.74,79.205c-.109-.032-.118-.154-.05-.316a.367.367,0,0,1,.172-.163,1.143,1.143,0,0,1,.185,0,3.491,3.491,0,0,0,.6.257c.14.05.28.091.416.15a3.333,3.333,0,0,0,.867.171,1,1,0,0,1,.19,0,1.154,1.154,0,0,0,.655-.058.083.083,0,0,0,.095-.055c.023-.054.538-.311.587-.375a.793.793,0,0,0,.244-.149,1.246,1.246,0,0,0,.222-.194s.027-.05.068-.054a.393.393,0,0,0,.162-.122,1.906,1.906,0,0,1,.163-.226.463.463,0,0,1,.14-.091.109.109,0,0,1,.122.041c0,.054.063.036.1.045a.055.055,0,0,1,.036,0,1.875,1.875,0,0,1-.085.714,2.307,2.307,0,0,1-.276.42,3.756,3.756,0,0,1-.393.452.387.387,0,0,1-.154.081,3.972,3.972,0,0,1-.352.231,3.361,3.361,0,0,1-.384.181.955.955,0,0,1-.479.058.253.253,0,0,0-.1,0,1.354,1.354,0,0,1-.4,0,1.9,1.9,0,0,1-.4-.045,1.71,1.71,0,0,1-.4-.063.249.249,0,0,1-.068-.032l-.086-.031a5.189,5.189,0,0,1-.876-.344,3.464,3.464,0,0,1-.389-.316C-26.659,79.4-26.713,79.223-26.74,79.205Z" fill="#221f1f"/>
    <path id="Path_19951" data-name="Path 19951" d="M-84.4,61.345a6.259,6.259,0,0,1,.949-.379c.117-.037.221-.1.343-.131a5.26,5.26,0,0,1,1.306-.122c.2.022.4,0,.61.036a.9.9,0,0,1,.768.379c.054.086-.149.235-.357.384s-.366.308-.416.294a5.05,5.05,0,0,0-.966-.19,1.99,1.99,0,0,0-.746.149,6.351,6.351,0,0,0-.813.3,2.806,2.806,0,0,0-.452.258,2.487,2.487,0,0,0-.61.51,1.2,1.2,0,0,0-.2.533v.113c0,.127-.086.14-.353.14h-.176a.326.326,0,0,1-.366-.3,1.854,1.854,0,0,1,.637-1.355,4.728,4.728,0,0,1,.863-.624Z" fill="#221f1f"/>
    <path id="Path_19952" data-name="Path 19952" d="M-82.231,81.039a1.835,1.835,0,0,1-.695-.452c-.064-.072-.159-.117-.208-.2a2.639,2.639,0,0,1-.353-.9,3.617,3.617,0,0,0-.076-.389,1.086,1.086,0,0,1,.04-.506c0-.049,0-.04.023,0s.153.077.239.136c.335.2.547.343.637.578.054.145.208.213.307.307a4.032,4.032,0,0,0,.353.326,1.336,1.336,0,0,0,.266.167,1.137,1.137,0,0,0,.479.135c.131,0,.253-.04.4-.04h.1c.122,0,.19.027.217,0h0a.454.454,0,0,0-.072.14,2.6,2.6,0,0,1-.312.452,1.785,1.785,0,0,1-.226.18,1.179,1.179,0,0,1-.271.122,1.427,1.427,0,0,1-.872,0Z" fill="#221f1f"/>
    <path id="Path_19953" data-name="Path 19953" d="M31.479,86.325a9.282,9.282,0,0,1-2.612-1.852,9.107,9.107,0,0,1-1.73-2.67,12.125,12.125,0,0,1-.709-2.183,22,22,0,0,1,.081-7.9c.194-1.147.429-2.29.7-3.415a23.686,23.686,0,0,1,1.356-4.238c.393-.836.691.538.189,2.114a40.408,40.408,0,0,0-1.807,8.689,15.253,15.253,0,0,0,.5,5.362A9.646,9.646,0,0,0,28.655,82.9a8.217,8.217,0,0,0,.931,1.125,11.436,11.436,0,0,0,1.129.931,9.148,9.148,0,0,0,3.366,1.319A12.673,12.673,0,0,0,39.607,86a15.136,15.136,0,0,0,3.908-1.68l.781-.506c.954-.66,1.238-.881,1.591-.868a1.261,1.261,0,0,1,.23,0c.2.05-.063.493-.754,1.08a15.008,15.008,0,0,1-7.595,3.163,13.713,13.713,0,0,1-3.163,0,12.166,12.166,0,0,1-1.581-.321c-.261-.065-.519-.144-.773-.235l-.75-.307Z" fill="#221f1f"/>
    <path id="Path_19954" data-name="Path 19954" d="M60.141,106.25a70.321,70.321,0,0,0-4.12-6.073c-.746-.971-1.505-1.929-2.305-2.855-.4-.452-.808-.9-1.224-1.355l-.619-.669-.321-.321-.162-.158-.271-.257-.317-1.69a18.664,18.664,0,0,0-.836-2.788c-.162-.452-.4-.876-.6-1.315-.117-.207-.248-.411-.366-.614l-.185-.307c-.063-.1-.14-.19-.212-.285a6.621,6.621,0,0,0-1.866-1.807,5.294,5.294,0,0,0-1.157-.551,4.817,4.817,0,0,0-.614-.149,2.476,2.476,0,0,0-.308-.041h-.194l-.339.2-.452.235c-.3.149-.6.293-.9.424a18.283,18.283,0,0,1-1.848.71,17.731,17.731,0,0,1-3.867.8,14.53,14.53,0,0,1-1.979.054,8.868,8.868,0,0,1-.99-.068l-.492-.054a2.676,2.676,0,0,0-.42,0,1.984,1.984,0,0,0-1.392.822,5.754,5.754,0,0,0-.858,1.613,10.526,10.526,0,0,0-.534,2.205,7.115,7.115,0,0,0,0,2.228,5.828,5.828,0,0,0,.927,1.983,5.138,5.138,0,0,0,1.649,1.423,10.433,10.433,0,0,0,5.616.931,27.671,27.671,0,0,0,5.769-1.075c1.166-.353,1.1-.1.158.451a14.1,14.1,0,0,1-5.128,1.509,16.219,16.219,0,0,1-3.162.046,9.68,9.68,0,0,1-3.122-.764,6.148,6.148,0,0,1-2.571-2.078,6.328,6.328,0,0,1-.773-1.478l-.126-.393-.063-.2-.05-.231a5.087,5.087,0,0,1-.077-.845,11.426,11.426,0,0,1,.452-3.162,6.908,6.908,0,0,1,1.491-2.919,3.4,3.4,0,0,1,.714-.56,2.531,2.531,0,0,1,.9-.294,4.149,4.149,0,0,1,.877.036l.736.082a15.868,15.868,0,0,0,2.964-.073,16.686,16.686,0,0,0,3.366-.781,16.4,16.4,0,0,0,1.626-.651c.267-.117.529-.253.791-.384l.384-.212c.136-.082.208-.118.452-.28h.38l.266.027a5.168,5.168,0,0,1,.524.09,5.888,5.888,0,0,1,1,.33,6.969,6.969,0,0,1,1.74,1.134,9.446,9.446,0,0,1,2.313,3.321,12.007,12.007,0,0,1,.5,1.256,10.413,10.413,0,0,1,.388,1.283,11.733,11.733,0,0,1,.312,1.305l.221,1.184.425.416.511.461c.325.338.641.686.958,1.039.628.7,1.233,1.423,1.829,2.15,1.179,1.464,2.3,2.982,3.348,4.518a74.179,74.179,0,0,1,5.106,8.815,77.806,77.806,0,0,1,5.367,14.422,80.908,80.908,0,0,1,2.173,11.57c.077.863.2,1.7.249,2.571a32.428,32.428,0,0,1,.108,3.429,5.661,5.661,0,0,1-.194,1.527,3.4,3.4,0,0,1-.145.452c-.172.307-.321-1-.452-3.343a81.715,81.715,0,0,0-4.1-21.145,74.718,74.718,0,0,0-6.908-14.837Z" fill="#221f1f"/>
    <path id="Path_19955" data-name="Path 19955" d="M51.286,73.883c.04-.326,6.47,2.331,8.042-4.812.474-2.169-2.35-3.768-4.3-3.217-1.545.452-1.356,2.39-2.526,2.584-2.584-.32-1.283-5.7-1.888-7.454-1.279-3.728-4.97-3.7-8.092-2.5-5.178,1.979-10.044,6.8-15.989,4.993-3.981-1.211-6.258-6.073-6.3-9.872-.072-6.127,6.425-11.39,11.86-12.994C43.939,37.12,52.632,44.881,53.36,45.3c1.242.718,2.67-.452,4.134-.7,9.569-1.567,16.264,9.036,14.457,17.973-.989,4.97-7.979,8.932-6.777,12.447.8,2.35,7.324,5.526,5.453,12.709-2.137,8.192-11.67,10.455-19,5.232,0,0-2.164-8.729-7.3-8.349C44.342,84.613,50.518,80.063,51.286,73.883Z" fill="#221f1f"/>
    <path id="Path_19956" data-name="Path 19956" d="M71.151,55.386a16.281,16.281,0,0,0-1.5-3.741,14.685,14.685,0,0,0-2.39-3.23,11.142,11.142,0,0,0-7.016-3.443c-.33-.036-.66-.027-.994-.045a4.093,4.093,0,0,0-.994.063,9.582,9.582,0,0,0-.967.14,7.86,7.86,0,0,0-.935.307,5.969,5.969,0,0,1-2.182.556,2.14,2.14,0,0,1-1.216-.407l-.854-.628A26.088,26.088,0,0,0,48.625,42.8c-.6-.33-1.234-.592-1.853-.876l-.953-.371q-.476-.19-.967-.334a21.121,21.121,0,0,0-11.747-.4,16.932,16.932,0,0,0-4.839,1.938,18.864,18.864,0,0,0-4.129,3.208,13.464,13.464,0,0,0-2.878,4.292,9.121,9.121,0,0,0-.488,5.06A12.155,12.155,0,0,0,22.7,60.1,7.679,7.679,0,0,0,26.69,63.17a9.48,9.48,0,0,0,5.114.023,23.124,23.124,0,0,0,4.843-2.074c1.392-.745,2.77-1.549,4.22-2.259.357-.176.728-.343,1.1-.492s.75-.3,1.138-.425a10.185,10.185,0,0,1,2.4-.483,6.18,6.18,0,0,1,2.463.293,4.477,4.477,0,0,1,2.046,1.455,5.452,5.452,0,0,1,.651,1.075l.235.574a3.084,3.084,0,0,1,.14.637,20.738,20.738,0,0,1,.068,2.4,11.936,11.936,0,0,0,.243,2.927,1.857,1.857,0,0,0,.66,1.071.993.993,0,0,0,.262.127.558.558,0,0,0,.149.04H52.6L52.709,68l.1-.082.1-.108c.257-.325.429-.822.732-1.288a2.232,2.232,0,0,1,1.387-1.03,4.171,4.171,0,0,1,3.162.6,3.539,3.539,0,0,1,1.166,1.193,2.546,2.546,0,0,1,.325,1.685,8.387,8.387,0,0,1-.425,1.532,7.287,7.287,0,0,1-.7,1.423,5.213,5.213,0,0,1-2.44,2.056,6.7,6.7,0,0,1-3.126.388,8.4,8.4,0,0,1-1.355-.244,1.923,1.923,0,0,1-.271-.081h0v-.077c0-.023,0-.068-.037-.081h0l.032.072c.032.072.027-.023.059-.032a1.643,1.643,0,0,1,.343-.027h1.247a8.224,8.224,0,0,0,1.843-.217,4.827,4.827,0,0,0,2.038-1.034,5.528,5.528,0,0,0,1.477-2.259,9.729,9.729,0,0,0,.421-1.478,1.653,1.653,0,0,0-.226-1.224,3.2,3.2,0,0,0-2.137-1.355,2.676,2.676,0,0,0-1.261.045,1.294,1.294,0,0,0-.452.253,2.191,2.191,0,0,0-.366.474c-.113.19-.216.42-.347.66a2.908,2.908,0,0,1-.561.786,2.378,2.378,0,0,1-.23.181c-.09.049-.181.1-.276.14a1.029,1.029,0,0,1-.153.045l-.2.054c-.063.032-.126,0-.189,0l-.168-.032a2.046,2.046,0,0,1-.944-.492,3.167,3.167,0,0,1-.845-1.672,9.875,9.875,0,0,1-.185-1.635c-.041-1.066,0-2.11-.027-3.091a5.066,5.066,0,0,0-.077-.682,1.189,1.189,0,0,0-.086-.293l-.131-.326a4.4,4.4,0,0,0-.709-1.165,3.817,3.817,0,0,0-2.345-1.22,7.3,7.3,0,0,0-2.851.2,14.821,14.821,0,0,0-2.792,1.057c-.9.452-1.807.9-2.711,1.414a33.707,33.707,0,0,1-5.7,2.711,11.914,11.914,0,0,1-3.163.592,10.169,10.169,0,0,1-3.234-.425,7.573,7.573,0,0,1-2.842-1.658,10.486,10.486,0,0,1-2.015-2.548A13.557,13.557,0,0,1,20.17,56.1a10.689,10.689,0,0,1-.2-3.9,10.479,10.479,0,0,1,1.3-3.709,14.743,14.743,0,0,1,2.353-3.127,20.449,20.449,0,0,1,6.407-4.414l.9-.366.93-.311c.628-.181,1.265-.317,1.893-.452l.475-.113.483-.068.967-.131a14.62,14.62,0,0,1,1.938-.145,22.149,22.149,0,0,1,8.372,1.383,27.47,27.47,0,0,1,7.392,4.125,1.684,1.684,0,0,0,1.685.176c.632-.194,1.274-.5,2-.691a11.229,11.229,0,0,1,4.319-.059,12.43,12.43,0,0,1,7.229,4.355,17.2,17.2,0,0,1,3.9,9.606,14.664,14.664,0,0,1-.479,5.232A14.816,14.816,0,0,1,69.3,67.955c-.827,1.021-1.7,1.992-2.48,3.018a10.18,10.18,0,0,0-1.03,1.6,3.551,3.551,0,0,0-.452,1.744,2.761,2.761,0,0,0,.727,1.6c.389.493.854.958,1.3,1.437a18.931,18.931,0,0,1,2.476,3.1,9.362,9.362,0,0,1,1.355,3.759,9.769,9.769,0,0,1-.4,3.958l-.312.944a8.768,8.768,0,0,1-.415.9,10.558,10.558,0,0,1-1.026,1.7,9.263,9.263,0,0,1-.642.759l-.334.375a4.446,4.446,0,0,1-.37.33l-.755.65-.836.538a5.134,5.134,0,0,1-.863.452c-.294.147-.6.28-.9.4l-.931.307-.23.077-.24.05-.479.1a12.1,12.1,0,0,1-1.924.244c-.326.031-.647,0-.972,0a6.955,6.955,0,0,1-.967-.059,12.33,12.33,0,0,1-1.9-.343c-.312-.082-.628-.145-.931-.244l-.9-.335-.451-.167c-.149-.068-.29-.14-.452-.212l-.863-.425a8.422,8.422,0,0,1-.822-.492l-.9-.57-.1-.375-.077-.257L51.024,92c-.118-.339-.24-.673-.371-1.008a18,18,0,0,0-.9-1.942,9.533,9.533,0,0,0-2.612-3.24,4.042,4.042,0,0,0-2.372-.831H43.217a1.72,1.72,0,0,1,.3-.253l.366-.28c.248-.195.492-.384.713-.574l.344-.289.167-.145.108-.1.384-.357a20.872,20.872,0,0,0,4.139-5.377c.361-.65.569-1.2.782-1.635a10.555,10.555,0,0,0,.451-1.139c.118-.325.231-.709.317-.9s.1-.1.1.144a2.88,2.88,0,0,1-.036.506,4.057,4.057,0,0,1-.122.768A13.721,13.721,0,0,1,48.9,80.38a21.453,21.453,0,0,1-2,2.5c-.357.389-.741.759-1.129,1.12l-.185.172-.041.063-.032.023h.307L46,84.31a5.081,5.081,0,0,1,1.45.682,8.5,8.5,0,0,1,2.183,2.228,15.931,15.931,0,0,1,1.486,2.688c.208.452.4.944.569,1.428.086.239.168.483.249.727l.162.547,1.166.736,1.392.7,1.464.542c.506.122,1.007.271,1.513.375a12.017,12.017,0,0,0,6.154-.429l.37-.122c.118-.05.23-.113.348-.167l.7-.335a6.546,6.546,0,0,0,.659-.406,6.858,6.858,0,0,0,.642-.452l.592-.506.293-.253L67.659,92l.515-.583a7.118,7.118,0,0,0,.452-.637c.14-.217.3-.425.425-.655l.338-.7a8.857,8.857,0,0,0,.561-1.464l.122-.375c.036-.127.054-.253.081-.384l.149-.764c.05-.257.041-.519.068-.777a3.943,3.943,0,0,0,0-.768,7.985,7.985,0,0,0-1.085-3.727,16.925,16.925,0,0,0-2.484-3.2c-.479-.515-.972-1-1.442-1.6a4.419,4.419,0,0,1-.641-1.021,2.866,2.866,0,0,1-.24-1.252,4.8,4.8,0,0,1,.7-2.259,14.192,14.192,0,0,1,1.243-1.807c.9-1.12,1.829-2.159,2.674-3.244a12.992,12.992,0,0,0,2.06-3.447,6.7,6.7,0,0,0,.262-.931c.055-.334.127-.664.159-1a13.978,13.978,0,0,0,.113-2.024,15.924,15.924,0,0,0-.556-4.021Z" fill="#221f1f"/>
    <path id="Path_19957" data-name="Path 19957" d="M32.9,86.583c-4.066,1.924-2.878,6.2-3.329,7.143s-2.711.9-2.711.9c-2.937-.067-4.238-3.185-3.163-5.647.994-2.3,4.125-3.56,4.455-6.194C28.149,82.774,31.479,87.039,32.9,86.583Z" fill="#221f1f"/>
    <path id="Path_19958" data-name="Path 19958" d="M24.72,88.3a3.97,3.97,0,0,0-.529,4.233,3.112,3.112,0,0,0,1.066,1.188,3.933,3.933,0,0,0,2.838.452,1.726,1.726,0,0,0,1.161-.538,1.76,1.76,0,0,0,.117-.646l.041-.808a9.269,9.269,0,0,1,.511-2.928,5.272,5.272,0,0,1,1.021-1.663,4.484,4.484,0,0,1,.741-.641,4.058,4.058,0,0,1,.406-.267l.452-.208c.366-.167.4.064.217.4a6.2,6.2,0,0,1-.99,1.211,5.064,5.064,0,0,0-.537.624,5.366,5.366,0,0,0-.4.727,6.073,6.073,0,0,0-.452,1.64c-.086.583-.109,1.184-.145,1.807a1.729,1.729,0,0,1-.054.515,1.6,1.6,0,0,1-.059.29,1.345,1.345,0,0,1-.135.334,1.805,1.805,0,0,1-1,.727,5.445,5.445,0,0,1-1.225.24,5.947,5.947,0,0,1-1.237,0,3.7,3.7,0,0,1-2.3-1.071,4.253,4.253,0,0,1-1.183-2.471,4.9,4.9,0,0,1,.415-2.666,8.814,8.814,0,0,1,2.047-2.5,15.4,15.4,0,0,0,1.518-1.6,4.516,4.516,0,0,0,.569-.9l.059-.118a1.062,1.062,0,0,0,.068-.2l.113-.415c.081-.276.117-.552.176-.832.023,0,.059.046.095.086l.108.136c.276.348.56.691.85,1.012.2.221.406.452.619.646.42.42.854.822,1.305,1.193.2.162.407.307.615.451.384.262.637.393.8.488a1.152,1.152,0,0,1,.348.271c.046.046.113.082.158.122s.028.186-.212.262a1.469,1.469,0,0,1-.976-.14,8.565,8.565,0,0,1-2.2-1.622c-.33-.311-.642-.641-.949-.975l-.113-.132-.031-.031h0l-.041.1c-.063.122-.118.248-.185.366-.967,1.658-2.5,2.589-3.443,3.845Z" fill="#221f1f"/>
    <path id="Path_19959" data-name="Path 19959" d="M26.965,119.045q.678-2.165,1.428-4.288c.176-.519.339-1.044.529-1.554.668-1.807,1.382-3.614,2.1-5.422.316-.795.619-1.6.9-2.394a31.342,31.342,0,0,1,1.215-3.045c.3-.61.741.492.285,1.662-.805,2.074-1.636,4.13-2.521,6.19-.529,1.233-.958,2.562-1.419,3.849-.5,1.419-.99,2.847-1.441,4.283-.285.881-.552,1.771-.8,2.661-.384,1.356-.741,2.711-1.035,4.067-.108.533-.2,1.061-.293,1.586l-.231,1.585-.095.7c-.126.872-.226,1.139-.479,1.292a1.39,1.39,0,0,1-.171.1c-.186.058-.271-.321-.217-.972a38.834,38.834,0,0,1,1.012-5.923c.348-1.482.763-2.95,1.2-4.4Z" fill="#221f1f"/>
    <path id="Path_19960" data-name="Path 19960" d="M33.995,130.828a8.177,8.177,0,0,1,2.58,1.549c.75.633,1.428,1.311,2.1,1.979.488.488.994.958,1.487,1.432a24.488,24.488,0,0,0,5.756,4.284,19.467,19.467,0,0,0,2.95,1.21c1.3.416,2.634.683,3.962.994.412.1.326.308-.072.452a3.451,3.451,0,0,1-1.893.045,20.838,20.838,0,0,1-7.83-3.537,36.985,36.985,0,0,1-4.021-3.393c-.682-.669-1.355-1.356-2.033-2a11.969,11.969,0,0,0-2.177-1.726,5.353,5.353,0,0,0-1.537-.628,5.617,5.617,0,0,0-.817-.1,2.724,2.724,0,0,0-.8.073,10.8,10.8,0,0,0-2.421.9c-.393.2-.773.416-1.148.642l-.546.357-.263.19-.158.122a1.091,1.091,0,0,0-.357.406.09.09,0,0,0,.077.1h.145a2.532,2.532,0,0,0,.275-.027,2.33,2.33,0,0,0,.249-.05,4.006,4.006,0,0,0,.452-.126,8.065,8.065,0,0,0,.9-.357c.262-.118.52-.253.795-.38,1.026-.479,1.464-.506,1.744-.334a.857.857,0,0,1,.181.122c.127.167-.275.33-.971.664-.524.249-1.062.556-1.658.813a6.981,6.981,0,0,1-.94.339l-.253.063-.127.032-.216.027-.452.059h-.42a1.1,1.1,0,0,1-.633-.136.366.366,0,0,1-.2-.153.566.566,0,0,1-.122-.276.821.821,0,0,1,.1-.533l.086-.145.131-.153a2.781,2.781,0,0,1,.307-.307c.1-.1.24-.2.357-.3l.172-.131.1-.072.411-.289c.28-.181.565-.357.849-.52a14.126,14.126,0,0,1,2.711-1.233,4.629,4.629,0,0,1,1.595-.253,5.723,5.723,0,0,1,1.563.267Z" fill="#221f1f"/>
    <path id="Path_19961" data-name="Path 19961" d="M30.638,134.072c.073-.1.2-.077.357.022.05.032.127.167.113.2a1.144,1.144,0,0,1-.1.2c-.023.036-.488.425-.633.57a5.209,5.209,0,0,1-.451.375,7.14,7.14,0,0,0-.859.781,1.243,1.243,0,0,1-.176.172,1.1,1.1,0,0,0-.389.641.345.345,0,0,0,0,.15c0,.085-.113.858-.122.962a4.734,4.734,0,0,0-.108.768v.117a.325.325,0,0,0-.036.249,2.886,2.886,0,0,1,0,.348.725.725,0,0,1-.054.181c-.023.054-.122.04-.136.027s-.081,0-.122,0h-.041a3.651,3.651,0,0,1-.289-.741.878.878,0,0,0-.022-.172,2.7,2.7,0,0,1-.036-.38,5.641,5.641,0,0,1,0-.637.534.534,0,0,1,.036-.185,8.555,8.555,0,0,1,.108-.9,2.7,2.7,0,0,1,.091-.29.783.783,0,0,1,.162-.262.447.447,0,0,0,.068-.1,2.837,2.837,0,0,1,.61-.714c.113-.1.217-.217.33-.316a.354.354,0,0,1,.067-.041.387.387,0,0,0,.086-.059c.267-.239.565-.424.832-.65.063-.054.42-.208.492-.262S30.607,134.112,30.638,134.072Z" fill="#221f1f"/>
    <path id="Path_19962" data-name="Path 19962" d="M29.455,140.465c.036.108-.032.2-.149.28-.037.027-.145,0-.163,0s-.059-.118-.086-.176-.122-.606-.185-.809a3.632,3.632,0,0,1-.081-.6,5.207,5.207,0,0,1,.045-1.3,1.458,1.458,0,0,1,.095-.3c.162-.348.307-.592.451-.9a.405.405,0,0,0,.073-.154,1.869,1.869,0,0,1,.311-.451,2.471,2.471,0,0,1,.421-.4,4.7,4.7,0,0,1,.777-.4c.036,0,.067-.045.113-.036a.446.446,0,0,0,.257-.064,2.227,2.227,0,0,1,.339-.108.551.551,0,0,1,.19,0c.054,0,.068.108.054.127s0,.076.041.112v.041a5.488,5.488,0,0,1-.556.475.955.955,0,0,0-.122.076c-.077.05-.167.118-.258.186a3.372,3.372,0,0,0-.384.343.454.454,0,0,1-.122.09,3.712,3.712,0,0,0-.42.592,1.55,1.55,0,0,1-.248.353.206.206,0,0,0-.05.076,3.278,3.278,0,0,0-.239.651,1.969,1.969,0,0,0-.036.375v.072a.412.412,0,0,0,0,.086,7.291,7.291,0,0,0,.027.958c0,.072-.046.452-.037.533S29.441,140.419,29.455,140.465Z" fill="#221f1f"/>
    <path id="Path_19963" data-name="Path 19963" d="M31.7,137.2c.054-.059.14-.022.23.054a.224.224,0,0,1,.05.149c-.023.046-.041.091-.063.127a1.679,1.679,0,0,0-.15.154,2.752,2.752,0,0,0-.144.239c-.059.09-.118.172-.181.253a3.069,3.069,0,0,0-.3.565,1.051,1.051,0,0,1-.081.131,1.134,1.134,0,0,0-.194.5.13.13,0,0,0,0,.1,2.686,2.686,0,0,1-.091.61c-.067.153-.122.316-.176.478a.078.078,0,0,1-.031.073.272.272,0,0,0-.077.149,1.1,1.1,0,0,1-.063.212.312.312,0,0,1-.091.1c-.031.031-.131,0-.14,0h-.167a2.294,2.294,0,0,1-.154-.493s0-.632.023-.723a.283.283,0,0,1,.036-.113s.045-.537.059-.56a.639.639,0,0,1,.126-.312.106.106,0,0,0,.027-.063,2.28,2.28,0,0,1,.24-.533c.05-.086.1-.181.149-.267s.027-.027.041-.04l.049-.05a3.377,3.377,0,0,1,.506-.542c.032-.059.321-.113.371-.145S31.682,137.221,31.7,137.2Z" fill="#221f1f"/>
    <path id="Path_19964" data-name="Path 19964" d="M33.72,93.721a4.877,4.877,0,0,1-.4-.935,2.306,2.306,0,0,1-.117-.352,3,3,0,0,1,0-1.333,2.02,2.02,0,0,1,.067-.289c.032-.095.046-.2.082-.29s.09-.244.149-.361a.926.926,0,0,1,.271-.276c.068-.045.217.118.343.3s.24.375.186.452a3.636,3.636,0,0,0-.38.958,1.462,1.462,0,0,0,.09.714,3.851,3.851,0,0,0,.294.79,3.628,3.628,0,0,0,.271.452,3.013,3.013,0,0,0,.524.619,2.308,2.308,0,0,0,.547.294l.122.045c.144.063.158.135.1.357a.479.479,0,0,1-.045.149.3.3,0,0,1-.348.23,2.232,2.232,0,0,1-1.175-.695,4.881,4.881,0,0,1-.614-.823Z" fill="#221f1f"/>
    <path id="Path_19965" data-name="Path 19965" d="M38.4,93.22a4.035,4.035,0,0,1-.4-.841,1.689,1.689,0,0,1-.117-.316,3.146,3.146,0,0,1-.054-1.184,5.137,5.137,0,0,1,.063-.519,1.993,1.993,0,0,1,.063-.339.736.736,0,0,1,.185-.289c.055-.05.235.072.4.217s.321.3.29.379a8.465,8.465,0,0,0-.244.926,1.3,1.3,0,0,0,.108.637,3.016,3.016,0,0,0,.285.678,2.473,2.473,0,0,0,.257.384,2.275,2.275,0,0,0,.515.479,1.518,1.518,0,0,0,.511.14,1.065,1.065,0,0,0,.113,0c.135,0,.158.086.14.316v.154a.312.312,0,0,1-.262.312,1.772,1.772,0,0,1-1.207-.429,3.482,3.482,0,0,1-.65-.705Z" fill="#221f1f"/>
    <path id="Path_19966" data-name="Path 19966" d="M46.063,146.582a5.873,5.873,0,0,0,.6-.872,3.47,3.47,0,0,0,.158-.352,5.908,5.908,0,0,0,.493-1.311,2.835,2.835,0,0,0,.072-.623,2.469,2.469,0,0,1,.05-.813c.059-.167.867.049.867.4a4.39,4.39,0,0,1-.379,1.767c-.149.339-.235.705-.4,1.043a6.089,6.089,0,0,1-.637,1.04c-.144.2-.312.388-.452.573-.248.276-.519.534-.777.791s-.37.425-.564.637a1.806,1.806,0,0,1-.127.136c-.176.153-.266.153-.452,0a.888.888,0,0,1-.117-.1.33.33,0,0,1-.041-.452,9.008,9.008,0,0,1,.972-1.093,8.928,8.928,0,0,0,.718-.8Z" fill="#221f1f"/>
    <path id="Path_19967" data-name="Path 19967" d="M48.521,135.246c0-.79,0-1.59-.027-2.385,0-.289-.055-.578-.073-.868-.058-1.025-.131-2.051-.262-3.072a12.947,12.947,0,0,0-.244-1.355c-.131-.561-.311-1.134-.4-1.649-.027-.136.163-.253.425-.177a.966.966,0,0,1,.632.665,17.5,17.5,0,0,1,.506,3.614c.028.732.154,1.477.2,2.218.049.818.077,1.636.077,2.454,0,.506,0,1.007-.032,1.513a18.744,18.744,0,0,1-.249,2.291,5.03,5.03,0,0,1-.555,1.771,1.731,1.731,0,0,1-.294.366,1.045,1.045,0,0,1-.6.28.378.378,0,0,1-.3-.185.819.819,0,0,1-.072-.149.277.277,0,0,1,.077-.24.523.523,0,0,1,.1-.1c.041-.027.072-.077.117-.1a2.082,2.082,0,0,0,.552-1.066,9.189,9.189,0,0,0,.266-1.482,21.351,21.351,0,0,0,.131-2.358Z" fill="#221f1f"/>
    <path id="Path_19968" data-name="Path 19968" d="M33.205,130.638c.451-.4,3.266-3.465,2.123-4.4-.849-.691-3.388,1.921-3.75,2.594l.972.479-1.071,1.328Z" fill="#221f1f"/>
    <path id="Path_19969" data-name="Path 19969" d="M24.273,142.245s-.949.149-.949-.307c0-.85,5.5-7.347,5.5-7.347l1.667-.867S25.217,141.088,24.273,142.245Z" fill="#221f1f"/>
    <path id="Path_19970" data-name="Path 19970" d="M62.716,152.288c-.709,0-1.418-.049-2.128-.1a5.064,5.064,0,0,1-.777-.04c-.9-.086-1.807-.24-2.711-.411-.4-.1-.8-.15-1.2-.235-.257-.059-.515-.1-.772-.168a4.014,4.014,0,0,1-.732-.3c-.285-.158.4-.786.9-.619.954.276,1.939.488,2.951.723a12.938,12.938,0,0,0,1.884.2c.7.045,1.4.085,2.1.108.452,0,.868.023,1.3,0,.655,0,1.314,0,1.969-.05.506-.031,1-.117,1.5-.176.108,0,.221-.032.334-.036.416-.032.561.036.646.257a1.045,1.045,0,0,1,.055.154c.036.176-.136.316-.425.371a18.846,18.846,0,0,1-2.774.293c-.71.032-1.428.036-2.142.032Z" fill="#221f1f"/>
    <path id="Path_19971" data-name="Path 19971" d="M78.629,122.379a58.9,58.9,0,0,0-1.021-6.777c-.181-.813-.407-1.613-.642-2.4a15.174,15.174,0,0,0-1.7-3.962,4.51,4.51,0,0,0-1.427-1.459,2.482,2.482,0,0,0-.9-.33,2.025,2.025,0,0,0-.492,0,2.067,2.067,0,0,0-.5.063,3.123,3.123,0,0,0-1.559.872,5.439,5.439,0,0,0-1.075,1.514,14.745,14.745,0,0,0-1.251,4.708c-.059.5-.276.451-.452-.023a4.138,4.138,0,0,1-.082-2.313,11.99,11.99,0,0,1,.868-2.548,6.544,6.544,0,0,1,1.69-2.223,4.033,4.033,0,0,1,2.765-.9,3.23,3.23,0,0,1,1.432.452,4.6,4.6,0,0,1,1.08.935,11.2,11.2,0,0,1,1.649,2.824,22.711,22.711,0,0,1,1.043,3.054,50.713,50.713,0,0,1,1.256,6.895c.172,1.427.3,2.855.4,4.283.153,2.164.216,4.346.244,6.5,0,1.676.045,3.316-.028,4.969,0,.366-.031.723-.063,1.094-.122,1.355-.28,1.807-.556,2.046a1.042,1.042,0,0,1-.185.159c-.2.085-.208-.452-.14-1.442.19-2.9.185-6,.095-9.1-.072-2.3-.212-4.617-.452-6.917Z" fill="#221f1f"/>
    <path id="Path_19972" data-name="Path 19972" d="M31.357,69.5a1.277,1.277,0,0,1-.66-.7l-.108-.248-.054-.163c-.032-.1-.059-.208-.086-.312a2.633,2.633,0,0,1-.109-.519,1.177,1.177,0,0,1,.023-.285,1.8,1.8,0,0,1,.1-.3,1.49,1.49,0,0,1,.2-.249.888.888,0,0,1,.271-.158,1.471,1.471,0,0,1,.98,0,4.874,4.874,0,0,1,.714.294,1.245,1.245,0,0,1,.7.732c.036.117-.181.176-.4.216l-.307.05c-.091,0-.163,0-.194-.032a2.389,2.389,0,0,0-1.089-.555.122.122,0,0,0-.154.054.28.28,0,0,0,0,.108.656.656,0,0,0,0,.177,2.788,2.788,0,0,0,.127.515l.054.167a.584.584,0,0,0,.054.126c.036.091.149.186.239.113l.041-.04a.537.537,0,0,0-.05-.565.188.188,0,0,0-.194-.063h0c.023.045-.031-.059-.027-.046h0c0,.023.041.046.036.046a.385.385,0,0,0,0,.072v.077c0,.022,0,.09-.162.275a.83.83,0,0,0-.091.131.225.225,0,0,1-.212.109.391.391,0,0,1-.276-.217.967.967,0,0,1-.09-.651.845.845,0,0,1,.181-.379.942.942,0,0,1,.207-.176.668.668,0,0,1,.177-.073.868.868,0,0,1,.763.154,1.417,1.417,0,0,1,.506.9,1.476,1.476,0,0,1-.108.9,1.014,1.014,0,0,1-.452.452.841.841,0,0,1-.547.027Z" fill="#221f1f"/>
    <path id="Path_19973" data-name="Path 19973" d="M37.551,70.359a1.294,1.294,0,0,1-.66-.7l-.108-.248-.054-.163c-.032-.1-.059-.208-.086-.312a2.6,2.6,0,0,1-.109-.524,1.136,1.136,0,0,1,.023-.28,1.9,1.9,0,0,1,.1-.3,1.353,1.353,0,0,1,.2-.248.888.888,0,0,1,.271-.158,1.471,1.471,0,0,1,.98,0,4.873,4.873,0,0,1,.714.294,1.24,1.24,0,0,1,.7.731c.036.118-.18.177-.4.217l-.307.045c-.1,0-.163,0-.194-.027a2.442,2.442,0,0,0-1.089-.56.123.123,0,0,0-.154.059.28.28,0,0,0,0,.108.749.749,0,0,0,0,.177,2.737,2.737,0,0,0,.127.51l.054.172a.736.736,0,0,0,.054.126c.036.091.149.185.24.113l.04-.045a.533.533,0,0,0-.049-.56.18.18,0,0,0-.195-.063h0c.023.045-.031-.059-.027-.046h0s.041.046.036.046a.372.372,0,0,0,0,.072c0,.036,0,.054.023.077s-.023.09-.167.275a1.406,1.406,0,0,0-.086.131.226.226,0,0,1-.212.109.391.391,0,0,1-.276-.217.967.967,0,0,1-.09-.651.818.818,0,0,1,.18-.379.88.88,0,0,1,.208-.177.709.709,0,0,1,.176-.072.869.869,0,0,1,.764.154,1.415,1.415,0,0,1,.506.9,1.493,1.493,0,0,1-.108.9.98.98,0,0,1-.452.452.817.817,0,0,1-.547.031Z" fill="#221f1f"/>
    <path id="Path_19974" data-name="Path 19974" d="M37.89,64.946c-.054.117-.176-.072-.371-.389a1.61,1.61,0,0,1-.162-.483,1.543,1.543,0,0,1,.1-.33,3.272,3.272,0,0,1,.876-.51,1.635,1.635,0,0,1,.66-.149,7.854,7.854,0,0,1,1.319.036.6.6,0,0,1,.271.1,2.357,2.357,0,0,0,.9.329.162.162,0,0,0,.167,0c.122-.09.958.226,1.039.33.212.235.452.452.628.669.032.032.081.032.072.122a.262.262,0,0,0,.118.3.751.751,0,0,1,.212.325.823.823,0,0,1,0,.28c0,.086-.176.24-.208.249a1.153,1.153,0,0,0-.185.217c-.059.077-.045.059-.068.077a5.623,5.623,0,0,1-.827.14s-.189-.064-.388-.122a2.818,2.818,0,0,0-.452-.1c-.05,0-.077-.059-.108-.1a6.568,6.568,0,0,0-.669-.1c-.117-.063-.257,0-.343-.212,0-.036-.046-.036-.068-.041a2.9,2.9,0,0,1-.642-.2,1.4,1.4,0,0,0-.334-.059l-.054-.04c-.018-.014-.05-.045-.077-.045a2.231,2.231,0,0,0-.773-.027c-.054,0-.357-.141-.415-.1S37.912,64.9,37.89,64.946Z" fill="#221f1f"/>
    <path id="Path_19975" data-name="Path 19975" d="M30,62.9c-.036.122-.18-.049-.411-.339a1.493,1.493,0,0,1-.226-.451,1.844,1.844,0,0,1,.064-.339,3.43,3.43,0,0,1,.8-.619,1.7,1.7,0,0,1,.637-.231,8.226,8.226,0,0,1,1.31-.131.59.59,0,0,1,.285.073,2.389,2.389,0,0,0,.953.208c.054,0,.1.027.167-.028a2.843,2.843,0,0,1,1.075.195c.24.208.484.375.7.583.032.027.086,0,.086.112a.274.274,0,0,0,.154.281.762.762,0,0,1,.253.293.858.858,0,0,1,.031.276.6.6,0,0,1-.171.28,1.56,1.56,0,0,0-.163.235.591.591,0,0,1-.054.086,5.859,5.859,0,0,1-.8.244s-.2-.041-.4-.073a2.365,2.365,0,0,0-.452-.045c-.049,0-.081-.049-.117-.09q-.339-.016-.678,0c-.122-.05-.257,0-.366-.167a.068.068,0,0,0-.072-.032,2.957,2.957,0,0,1-.66-.117,1.373,1.373,0,0,0-.339,0c-.022,0-.04-.027-.063-.037s-.054-.036-.077-.036a2.283,2.283,0,0,0-.772.073c-.055,0-.371-.1-.425-.046S30.019,62.845,30,62.9Z" fill="#221f1f"/>
    <path id="Path_19976" data-name="Path 19976" d="M30.873,74.768a1.6,1.6,0,0,1-.533-.9A1.355,1.355,0,0,1,30.6,72.83a3.284,3.284,0,0,1,.393-.479,12.388,12.388,0,0,1,1.518-1.233l.705-.511a3.06,3.06,0,0,1,.953-.547c.226-.054.352.8.023,1-.6.361-1.171.723-1.772,1.107a6.2,6.2,0,0,0-.957.9,1.226,1.226,0,0,0-.3.452.5.5,0,0,0,.086.429,1.661,1.661,0,0,0,.592.493,3.729,3.729,0,0,0,1.233.406,3,3,0,0,0,.99-.045l.194-.058c.239-.055.3-.028.452.162a1.54,1.54,0,0,1,.1.127c.108.14.036.343-.212.452a3.426,3.426,0,0,1-2.178.058,3.871,3.871,0,0,1-1.545-.763Z" fill="#221f1f"/>
    <path id="Path_19977" data-name="Path 19977" d="M32.364,79.715c-.09-.031-.058-.144.059-.271a.6.6,0,0,1,.2-.117h.145a1.161,1.161,0,0,0,.357.126,1.685,1.685,0,0,1,.253.068,2.79,2.79,0,0,0,.574.09.457.457,0,0,1,.131.032.542.542,0,0,0,.411,0,.053.053,0,0,0,.05-.041.588.588,0,0,1,.153-.1,1.927,1.927,0,0,1,.181-.113,2.167,2.167,0,0,0,.406-.195.079.079,0,0,1,.068-.027.285.285,0,0,0,.158-.05.85.85,0,0,1,.181-.108.587.587,0,0,1,.145,0c.045,0,.1.1.1.113s.054.072.085.1a.086.086,0,0,1,.032.036,1.449,1.449,0,0,1-.145.452l-.2.235a2.839,2.839,0,0,1-.275.284.232.232,0,0,1-.118.059,2.3,2.3,0,0,1-.271.181,2.124,2.124,0,0,1-.316.131.6.6,0,0,1-.366,0,.13.13,0,0,0-.073,0,1.762,1.762,0,0,1-.555-.063l-.28-.046-.046-.027c-.022,0-.04-.027-.058-.031a3.651,3.651,0,0,1-.651-.267c-.059,0-.23-.244-.275-.284S32.391,79.738,32.364,79.715Z" fill="#221f1f"/>
    <path id="Path_19978" data-name="Path 19978" d="M40.28,105.287a11.7,11.7,0,0,1-1.64.136h-.6a11.221,11.221,0,0,1-2.069-.339c-.3-.072-.6-.14-.9-.2a4.3,4.3,0,0,1-1.116-.33c-.217-.117.28-.695.7-.578l2.214.61a5.923,5.923,0,0,0,1.387.127,9.979,9.979,0,0,0,1.545-.095c.316-.036.632-.1.949-.167a11.7,11.7,0,0,0,1.409-.4,9.878,9.878,0,0,0,1.021-.479c.077-.036.145-.081.222-.113.28-.131.388-.122.524.032.032.036.068.067.1.1.086.126,0,.289-.181.415a7.9,7.9,0,0,1-1.956.881,12.466,12.466,0,0,1-1.6.393Z" fill="#221f1f"/>
    <path id="Path_19979" data-name="Path 19979" d="M-45.965,27.55a38.878,38.878,0,0,0,5.671-5.376c.609-.737,1.206-1.477,1.748-2.259a35.774,35.774,0,0,0,4.8-8.837c.127-.353.271-.7.38-1.058l.3-1.084.294-1.08c.072-.366.14-.732.208-1.1.086-.451.185-.935.248-1.4l.154-1.423c.145-.94.131-1.893.244-2.842.059-.592.339-.519.587,0A4.229,4.229,0,0,1-31,2.164a4.771,4.771,0,0,1,.063,1.545A30.949,30.949,0,0,1-34.421,15.2a49.589,49.589,0,0,1-3.913,6.23,40.327,40.327,0,0,1-5.611,5.873,38.01,38.01,0,0,1-4.007,2.955c-.534.33-1.067.669-1.609.99l-1.667.9A23.717,23.717,0,0,1-54.711,33.6a47.583,47.583,0,0,0-5.3,1.988c-.366.177-.713.366-1.066.57s-.587.357-.818.483-.4.249-.555.33a1.44,1.44,0,0,1-.737.226,1.693,1.693,0,0,1-.3,0c-.131-.032-.109-.185.063-.452a3.409,3.409,0,0,1,.37-.452,6.923,6.923,0,0,1,.606-.515,17.532,17.532,0,0,1,4.816-2.34c1.69-.588,3.393-1.075,4.97-1.785a38.708,38.708,0,0,0,6.682-4.093Z" fill="#221f1f"/>
    <path id="Path_19980" data-name="Path 19980" d="M-65.781,40.91c-.424-.022-.849-.045-1.269-.045-.154,0-.307.032-.452.032a14.88,14.88,0,0,0-1.622.049,3.318,3.318,0,0,0-.7.154,2.3,2.3,0,0,1-.867.239c-.2,0-.334-1.066.05-1.206a5.173,5.173,0,0,1,2.015-.239,10.813,10.813,0,0,0,1.206-.073h1.324l.808.027c.407,0,.818.041,1.22.028.312-.026.623-.066.931-.122a1.557,1.557,0,0,1,.2-.032c.258,0,.335.059.384.352,0,.064.027.131.032.2a.424.424,0,0,1-.276.452,5.413,5.413,0,0,1-1.7.208h-1.284Z" fill="#221f1f"/>
    <path id="Path_19981" data-name="Path 19981" d="M-65.1,58.508l.755-3.958c.09-.479.149-.962.239-1.446l.493-2.543c.171-.841.334-1.681.451-2.526a14.343,14.343,0,0,0,.145-2.259,13.941,13.941,0,0,0-.371-2.751c-.054-.272.208-.366.552-.208a1.611,1.611,0,0,1,.854,1.215,12.311,12.311,0,0,1,0,3.163,23.9,23.9,0,0,1-.538,3c-.289,1.175-.429,2.4-.646,3.615L-63.91,57.8l-.452,2.453c-.212,1.238-.452,2.481-.578,3.719-.118.962-.149,1.915-.2,2.869a4.95,4.95,0,0,1-.027.632c-.058.782-.149,1.026-.451,1.17a1.5,1.5,0,0,1-.208.095c-.231.059-.384-.28-.4-.867a33.669,33.669,0,0,1,.415-5.363c.19-1.356.425-2.684.655-4.021Z" fill="#221f1f"/>
    <path id="Path_19982" data-name="Path 19982" d="M-2.438,28.829a40.579,40.579,0,0,1-5.7-5.715c-.61-.768-1.256-1.509-1.807-2.336a37.379,37.379,0,0,1-4.6-9.23c-.122-.366-.262-.723-.37-1.089l-.307-1.107-.317-1.1c-.081-.375-.158-.75-.239-1.12-.1-.479-.217-.953-.3-1.432l-.2-1.46A17.735,17.735,0,0,1-16.4,1.3c0-.61.293-.519.587,0A4.465,4.465,0,0,1-15.4,2.331a11.981,11.981,0,0,1,.271,1.455,38.127,38.127,0,0,0,3.023,11.155,35.485,35.485,0,0,0,3.7,6.135A40.009,40.009,0,0,0-3.08,26.855,35.34,35.34,0,0,0,.783,29.832l1.559,1,1.622.9a19.979,19.979,0,0,0,3.389,1.414c1.807.592,3.668,1.012,5.471,1.762.393.167.781.335,1.166.542s.641.38.9.529a6.1,6.1,0,0,1,.538.452,1.247,1.247,0,0,1,.411.7,1.229,1.229,0,0,1,.041.289c0,.131-.181.131-.452,0-.136-.054-.285-.144-.475-.244s-.4-.221-.632-.366A22.454,22.454,0,0,0,9.63,34.987,43.465,43.465,0,0,1,4.488,33.18a37.863,37.863,0,0,1-6.94-4.347Z" fill="#221f1f"/>
    <path id="Path_19983" data-name="Path 19983" d="M18.264,39.767c.451.05.872.109,1.305.176a3.527,3.527,0,0,1,.479.045c.56.1,1.116.244,1.667.394.244.063.493.108.741.149a1.908,1.908,0,0,1,.936.289c.167.131-.452,1.034-.737.949a15.391,15.391,0,0,1-1.744-.547,5.008,5.008,0,0,0-1.134-.19c-.42-.059-.845-.122-1.274-.167-.262-.027-.524-.059-.786-.072a10.726,10.726,0,0,0-1.2-.046,7.236,7.236,0,0,0-.9.15c-.064,0-.132.031-.2.036-.253.027-.335-.045-.393-.335a1.338,1.338,0,0,1-.041-.2.425.425,0,0,1,.253-.479,4.8,4.8,0,0,1,1.726-.244c.452,0,.881.031,1.324.063Z" fill="#221f1f"/>
    <path id="Path_19984" data-name="Path 19984" d="M16.181,58.933l-.538-3.99c-.068-.488-.163-.967-.226-1.455L15.1,50.927c-.113-.859-.221-1.722-.3-2.594-.068-.768-.14-1.549-.163-2.327a6.312,6.312,0,0,1,.452-3.022c.144-.3.379-.131.551.2a2.251,2.251,0,0,1,.244,1.287,28.659,28.659,0,0,0,.167,5.765c.109,1.193.348,2.436.515,3.642l.565,4.016.348,2.472c.167,1.251.339,2.507.506,3.75.14.962.325,1.9.479,2.855.031.212.072.416.1.633.1.786.036,1.048-.235,1.242a1.329,1.329,0,0,1-.189.127c-.213.09-.425-.213-.543-.778-.348-1.685-.6-3.46-.854-5.249Z" fill="#221f1f"/>
    <path id="Path_19985" data-name="Path 19985" d="M-20.307,60.288c-.126.117-.257-.068-.393-.452a1.35,1.35,0,0,1-.04-.551A1.8,1.8,0,0,1-20.546,59c.04-.036.754-.312,1.007-.429a2.563,2.563,0,0,1,.75-.181,14.59,14.59,0,0,1,1.631-.1,1,1,0,0,1,.375.072,9.185,9.185,0,0,0,1.306.321.378.378,0,0,0,.244,0,1.728,1.728,0,0,1,.773.2,2.444,2.444,0,0,1,.713.452,5.716,5.716,0,0,1,.692,1.13c0,.058.072.094.04.185a.4.4,0,0,0,.059.393,1.368,1.368,0,0,1,.108.492,1,1,0,0,1-.094.294c-.037.09-.262.149-.3.14a.971.971,0,0,0-.262.109l-.09.045a3.354,3.354,0,0,1-.452-.186c-.19-.108-.429-.144-.452-.18l-.108-.1c-.063-.059-.167-.109-.258-.176a1.742,1.742,0,0,0-.284-.14c-.081-.041-.136-.077-.163-.073s-.072-.067-.1-.117a3.048,3.048,0,0,0-.719-.163c-.131-.068-.293-.027-.42-.217-.022-.036-.054-.036-.086-.04a5.2,5.2,0,0,1-.858-.177,2.843,2.843,0,0,0-.452,0,.264.264,0,0,1-.086-.036.254.254,0,0,0-.108-.031,6.023,6.023,0,0,0-1.17.054,3.771,3.771,0,0,0-.655-.1C-20.072,60.473-20.257,60.238-20.307,60.288Z" fill="#221f1f"/>
    <path id="Path_19986" data-name="Path 19986" d="M-24.161,58.255c.181.045.159.284-.036.569a1.355,1.355,0,0,1-.379.3l-.294.059a3.76,3.76,0,0,0-.768-.122,1.72,1.72,0,0,1-.569-.1,8.358,8.358,0,0,0-1.216-.231.8.8,0,0,1-.28-.086,1.989,1.989,0,0,0-.98-.171.25.25,0,0,0-.172.045,3.294,3.294,0,0,1-1.116.036,8.12,8.12,0,0,0-.9-.253A.132.132,0,0,1-31,58.241c-.1-.162-.19-.126-.285-.135a1.845,1.845,0,0,1-.384-.064.713.713,0,0,1-.212-.162c-.068-.059-.068-.294-.055-.321a.673.673,0,0,0-.031-.276.444.444,0,0,1,0-.1,3.721,3.721,0,0,1,.845-.583c.022-.023,1.192-.195,1.328-.213a.356.356,0,0,1,.212.046c.032,0,.976-.086,1.017-.073a1.006,1.006,0,0,1,.578.154.161.161,0,0,0,.118.031,4.416,4.416,0,0,1,1,.213c.167.054.343.059.515.1a.457.457,0,0,1,.09.054.379.379,0,0,0,.108.059,12.543,12.543,0,0,1,1.238.424c.1.041.452.416.579.493S-24.224,58.241-24.161,58.255Z" fill="#221f1f"/>
    <path id="Path_19987" data-name="Path 19987" d="M-16,51.306a4.124,4.124,0,0,1,.366-2.2c.244-.542.881-1.739,1.635-1.378.195.1.9-.208.633-.343a2.061,2.061,0,0,0-2.3.669,4.451,4.451,0,0,0-1.12,3.465c.027.212.818.045.786-.208Z" fill="#221f1f"/>
    <path id="Path_19988" data-name="Path 19988" d="M-17.108,49.689c.6-1.952,1.143-3.515-.492-5.115-.186-.18-.9.109-.737.294,1.59,1.559,1.03,3.059.452,4.929-.077.249.7.14.782-.108Z" fill="#221f1f"/>
    <path id="Path_19989" data-name="Path 19989" d="M-17.013,49.77C-20.537,53.339-30.685,60.112-35.8,59.981c-3-.077-6.325-1.211-7.9-3.859-1.834-3.054-1.942-8.466,1.266-11.507C-33.793,36.419-20.221,46.038-17.013,49.77Z" fill="#221f1f"/>
    <path id="Path_19990" data-name="Path 19990" d="M-3.92,63.383c-5,2.747-11.964-8.187-11.9-10.893-.222-2.191,9.126-3.976,13.581,4.138C-1.2,58.526-1.674,62.154-3.92,63.383Z" fill="#221f1f"/>
    <path id="Path_19991" data-name="Path 19991" d="M-62.229,146.46l5.168.75,1.889.249,1.924.3,4.035-2.02c.9-.452,1.762-.9,2.629-1.391,1.112-.606,2.2-1.252,3.366-1.762.728-.317.222.872-1.066,1.554-2.259,1.22-4.581,2.39-6.94,3.5l-.881.452-.994.511L-56,148.209l-5.2-.746-3.2-.452c-1.617-.217-3.244-.452-4.852-.61-1.256-.135-2.489-.212-3.727-.293l-.814-.046a6.755,6.755,0,0,1-1.07-.122.832.832,0,0,1-.452-.23,1,1,0,0,1-.154-.158c-.058-.086,0-.163.213-.226a2.347,2.347,0,0,1,.379-.081h.506a66.05,66.05,0,0,1,6.94.546c1.739.213,3.483.452,5.227.678Z" fill="#221f1f"/>
    <path id="Path_19992" data-name="Path 19992" d="M-21.093,102.979a.451.451,0,0,1-.483.067.505.505,0,0,1-.33-.582.651.651,0,0,1,.551-.6h.063a.619.619,0,0,1,.136,0,.376.376,0,0,1,.271.307A.868.868,0,0,1-21.093,102.979Z" fill="#221f1f"/>
    <path id="Path_19993" data-name="Path 19993" d="M-33.337,148.452q-1.354-.182-2.711-.451c-.325-.068-.659-.109-.989-.181-.574-.127-1.148-.285-1.717-.452s-1.138-.325-1.694-.537-1-.326-1.486-.516a7.433,7.433,0,0,1-1.839-.831c-.348-.23.51-.723,1.165-.416,1.2.516,2.426.994,3.7,1.424a8.533,8.533,0,0,0,1.179.325c.4.1.813.172,1.215.244s.9.181,1.356.248.9.15,1.355.208c.551.082,1.111.14,1.667.2.845.081,1.7.149,2.539.162.655,0,1.3-.041,1.947-.081.145,0,.281-.023.425-.027.533-.023.71.031.827.257a1.132,1.132,0,0,1,.072.154c.05.172-.158.316-.551.375a19.585,19.585,0,0,1-3.655.117c-.9-.036-1.848-.126-2.77-.226Z" fill="#221f1f"/>
    <path id="Path_19994" data-name="Path 19994" d="M-13.963,148.073-16.25,148h-.835l-2.951-.113h-1.305a9.932,9.932,0,0,1-1.672,0c-.343-.045.1-.746.736-.755,1.134,0,2.259.023,3.416.122.682.059,1.4.027,2.1.041l2.314.059a5.305,5.305,0,0,1,.732.036,6.194,6.194,0,0,1,.727.122,12,12,0,0,1,2.092.664,14.986,14.986,0,0,1,1.536.691l.325.181c.393.248.475.393.452.6a1.193,1.193,0,0,1-.027.145c-.059.144-.28.131-.56-.023a19.694,19.694,0,0,0-2.666-1.193,9.032,9.032,0,0,0-2.11-.474Z" fill="#221f1f"/>
    <path id="Path_19995" data-name="Path 19995" d="M20.559,154.882a10.467,10.467,0,0,1,1.78.664c.208.09.415.167.619.266.7.353,1.387.732,2.065,1.116.3.172.614.33.9.484a4.6,4.6,0,0,1,1.152.686c.109.1,0,.24-.217.33a.754.754,0,0,1-.668,0c-.764-.429-1.541-.867-2.3-1.355a14.107,14.107,0,0,0-1.468-.728,16.258,16.258,0,0,0-1.654-.677c-.316-.1-.718-.167-1.084-.285a13.141,13.141,0,0,1-1.618-.623c-.406-.181-.817-.339-1.215-.538-.086-.045-.176-.081-.262-.131-.316-.181-.384-.294-.339-.5a.65.65,0,0,1,.036-.136c.059-.14.24-.158.479-.058.7.293,1.4.65,2.128.939a9.34,9.34,0,0,0,1.649.511Z" fill="#221f1f"/>
    <path id="Path_19996" data-name="Path 19996" d="M35.021,154.945l-1.672.872c-.2.108-.388.235-.592.343l-2.119,1.13c-.311.171-.619.361-.9.551a6.969,6.969,0,0,1-1.175.7c-.266.1-.325-.682.122-.958a21.969,21.969,0,0,1,2.462-1.355c.511-.235,1-.56,1.5-.836l1.668-.9,1.03-.547,1.558-.827c.393-.226.768-.452,1.166-.7l.258-.154c.338-.167.488-.162.623,0,.032.036.068.068.1.1.081.127,0,.3-.23.452a22.737,22.737,0,0,1-2.119,1.251l-1.659.9Z" fill="#221f1f"/>
    <path id="Path_19997" data-name="Path 19997" d="M-7.4,150.034c-.61-.335-1.216-.673-1.807-1.048-.326-.208-.57-.38-.863-.547a9.408,9.408,0,0,0-.9-.452c-.452-.2-.9-.366-1.355-.524-.2-.072-.412-.14-.615-.2a5.468,5.468,0,0,0-.565-.136l-1.314-.036-2.671-.063h-2.367a28.3,28.3,0,0,1-3.027,0c-.628-.059.167-.872,1.328-.9,2.06,0,4.116.023,6.185.14.633.036,1.234.036,1.912.05a3.455,3.455,0,0,1,.542.1l.479.131c.316.1.623.2.926.316a13.175,13.175,0,0,1,1.947.9,4.618,4.618,0,0,1,.452.284c.14.1.275.186.429.276.289.176.592.348.9.52q1.116.622,2.259,1.206l.56.28c.163.081.33.163.506.239l.267.113.135.046c.041,0,.127,0,.077-.037a3.147,3.147,0,0,0-.366-.424c-.194-.2-.411-.389-.592-.542s-.714-.647-.926-.827l-.1-.027c-.212-.073-.425-.131-.633-.213-.777-.3-1.007-.51-1.048-.795a.755.755,0,0,1,0-.19c.045-.185.357-.131.9.055l.61.2.741.23.845.764.216.2.357.348c.244.239.488.483.719.722a7.037,7.037,0,0,1,.61.692.907.907,0,0,1,.212.451.278.278,0,0,1-.1.222l-.041.045-.031.036h0c-.068-.045.09.063.072.054h0a.771.771,0,0,1-.077.118.454.454,0,0,1-.316.077H-3.1l-.085-.023-.339-.081-.177-.045-.221-.1-.452-.19c-.293-.122-.619-.289-.926-.429l-.406-.2-.24-.117-.452-.24-.935-.487Z" fill="#221f1f"/>
    <path id="Path_19998" data-name="Path 19998" d="M-2.587,148.692l.75.754A10.491,10.491,0,0,1-.812,150.59a.84.84,0,0,1,.122.37.315.315,0,0,1,0,.167.9.9,0,0,1-.153.122.372.372,0,0,1-.176.077,2.332,2.332,0,0,1-.877-.032c-.167-.049-.33-.086-.492-.14l-.195-.086L-2.732,151a10.509,10.509,0,0,1-1.125-.664l-1.016-.674a6.893,6.893,0,0,1-1.22-.944c-.226-.23.524-.533.989-.181.827.615,1.636,1.234,2.49,1.753a1.77,1.77,0,0,0,.3.158l.086.046h.054a.7.7,0,0,0,.23.04h.122V150.5a1.647,1.647,0,0,0-.207-.271l-.037-.045-.094-.09-.181-.19-.375-.371c-.312-.307-.624-.61-.94-.9l-.714-.664-.357-.326-.334-.289h0l-.7-.212c-.244-.073-.488-.145-.732-.231-.108-.04-.217-.072-.32-.117-.393-.172-.5-.294-.479-.506a.655.655,0,0,1,0-.14c.049-.149.244-.167.519-.077l2.074.66.583.5c.533.452,1.053.958,1.572,1.446Z" fill="#221f1f"/>
    <path id="Path_19999" data-name="Path 19999" d="M.39,149.812a.845.845,0,0,1-.072.452.447.447,0,0,1-.149.176.464.464,0,0,1-.194.082l-.154.031a1.321,1.321,0,0,1-.2,0,4.553,4.553,0,0,1-1.012-.316,3.075,3.075,0,0,0-.366-.108.738.738,0,0,1-.452-.222c-.036-.049.077-.2.2-.339s.258-.266.321-.244A4.809,4.809,0,0,1-.9,149.7a.618.618,0,0,0,.131.059l.086.027a.37.37,0,0,1,.094,0h0a.259.259,0,0,0,.131.023.094.094,0,0,0,.05-.1.407.407,0,0,0-.027-.176,1.277,1.277,0,0,0-.1-.212,1.2,1.2,0,0,0-.5-.52c-.022,0-.054-.036-.077-.058-.1-.077-.081-.136.036-.29l.086-.063a.294.294,0,0,1,.321-.117,1.6,1.6,0,0,1,.691.632c.036.05.064.1.1.154s.045.09.109.208a2.312,2.312,0,0,1,.185.573Z" fill="#221f1f"/>
    <path id="Path_20000" data-name="Path 20000" d="M-91.615,152.153a41.6,41.6,0,0,1-6.379,4.089c-.827.406-1.631.862-2.476,1.219a50.345,50.345,0,0,1-9.212,3.018l-2.1.452c-.7.149-1.41.258-2.105.389a35.8,35.8,0,0,1-5.422.619c-1.139.027.239-1.017,2.286-1.211a70.54,70.54,0,0,0,10.767-2.1,40.988,40.988,0,0,0,6.325-2.458,42.018,42.018,0,0,0,6.424-3.786,39.245,39.245,0,0,0,3.565-2.9,30.718,30.718,0,0,0,4.545-5.241,19.2,19.2,0,0,0,2.313-4.721c.05-.185.1-.366.154-.547s.086-.366.127-.551c.081-.339.108-.624.153-.858s.054-.425.072-.579a1.729,1.729,0,0,1,.068-.384,1.571,1.571,0,0,1,.1-.275,2.079,2.079,0,0,1,.118-.253c.076-.1.189-.023.334.253a2.911,2.911,0,0,1,.2,1.328,12.846,12.846,0,0,1-1.518,4.866,24.94,24.94,0,0,1-2.838,4.3,35.409,35.409,0,0,1-5.485,5.372Z" fill="#221f1f"/>
    <path id="Path_20001" data-name="Path 20001" d="M-8.086,161.645c-4.644-.194-9.289-.393-13.933-.506-2.318-.063-4.636-.068-6.967-.063h-6.976l-10.174.031h-26.91c-3,0-5.972-.031-8.954.082-5.3.176-10.627.452-15.89.705-3.38.149-6.777.293-10.166.347-1.694.023-3.393.028-5.091-.022a32.02,32.02,0,0,1-5.106-.479,4.165,4.165,0,0,1-1.138-.384c-.235-.149-.312-.235-.276-.262a.942.942,0,0,1,.452.063c.248.036.592.1,1.034.127,1.762.153,5.025.076,8.9.045,6.886-.072,13.785-.452,20.7-.728,3.46-.144,6.917-.3,10.391-.325l10.428.036c8.331.036,17-.031,25.522-.045h14.055c4.69-.036,9.38.14,14.065.312l17.286.718c8.724.362,17.489.714,26.15.809,3.371.036,6.7.023,10.021-.081a70.359,70.359,0,0,0,9.872-.841l1.035-.244.415-.14c.131-.049.308-.1.321-.131a.273.273,0,0,0,0-.181l-.072-.1c-.041-.059-.095-.122-.149-.186a8.318,8.318,0,0,0-.755-.723c-1.025-.862-1.961-1.509-2.733-2.06l-1.92-1.355a13.4,13.4,0,0,1-2.011-1.654,4.111,4.111,0,0,1-.506-.6c-.117-.24.194,0,1.048.51s2.178,1.329,3.85,2.458c.619.42,1.238.85,1.847,1.3a13.4,13.4,0,0,1,1.772,1.523,2.7,2.7,0,0,1,.451.61.9.9,0,0,1,0,.9.89.89,0,0,1-.158.172.45.45,0,0,1-.181.1l-.325.122-.664.244-1.148.267-1.147.194a83.41,83.41,0,0,1-9.262.66c-6.221.153-12.519.04-18.827-.127-9.366-.258-18.767-.691-28.142-1.075Z" fill="#221f1f"/>
    <path id="Path_20002" data-name="Path 20002" d="M-62.473,132.761a1.3,1.3,0,0,1,.867,1.193c0,.167-.244.407-.379.362-.262-.091-.529-.159-.791-.222a7.423,7.423,0,0,0-1.432-.452,11.276,11.276,0,0,0-2.07-.271c-.867-.027-1.739-.058-2.629-.063a49.187,49.187,0,0,0-5.494.307c-.411.041-.822.064-1.238.068a32.883,32.883,0,0,0-4.26.4,2.855,2.855,0,0,0-.7.149,19.855,19.855,0,0,1-2.326.37c-1.08.14-2.2.208-2.458.2-1.283-.037-2.576-.05-3.89-.217a1.649,1.649,0,0,1-.56-.109,4.708,4.708,0,0,0-1.2-.343,3.976,3.976,0,0,1-1.649-.818,2.064,2.064,0,0,1-.484-.836c-.086-.271.19-.235.249-.185.185.163.171-.063.244-.122a.179.179,0,0,1,.081-.054,3.376,3.376,0,0,0,.33.226,3.626,3.626,0,0,0,.858.257,13.338,13.338,0,0,0,1.636.082s.289.022.705.022a15.1,15.1,0,0,0,1.549-.059c1.157-.081,2.377-.253,2.625-.293a4.7,4.7,0,0,1,.795-.032c.118,0,3.655-.547,3.805-.569a11.83,11.83,0,0,1,2.231-.167,2.136,2.136,0,0,0,.452-.032c1.274-.181,2.566-.262,3.863-.334l1.993-.145h.817a33.916,33.916,0,0,1,4.812.167,8.957,8.957,0,0,1,1.261.3c.537.162,1.075.37,1.287.451S-62.672,132.68-62.473,132.761Z" fill="#221f1f"/>
  </g>
</svg>
