<svg xmlns="http://www.w3.org/2000/svg" width="48.211" height="48.202" viewBox="0 0 48.211 48.202">
  <g id="Centralized_campaign_tracking" data-name="Centralized campaign tracking" transform="translate(-70.606 -208.7)">
    <g id="Group_11383" data-name="Group 11383" transform="translate(70.706 208.8)">
      <g id="Group_11382" data-name="Group 11382" transform="translate(0)">
        <path id="Path_19253" data-name="Path 19253" d="M112.245,218.042a22.934,22.934,0,0,1,2.965,25.023,23.2,23.2,0,0,1-7.523,8.628,22.921,22.921,0,1,1-16-41.615,23.4,23.4,0,0,1,3.025-.19l-.544-.544v17.032c0,.783-.033,1.572,0,2.355v.033a.544.544,0,0,0,1.088,0V211.732c0-.783.033-1.572,0-2.355v-.033a.553.553,0,0,0-.544-.544,23.983,23.983,0,1,0,20.416,11.369,24.612,24.612,0,0,0-2.116-2.9.547.547,0,0,0-.767,0,.565.565,0,0,0,0,.778Z" transform="translate(-70.706 -208.8)" stroke="#000" stroke-width="0.2"/>
      </g>
    </g>
    <g id="Group_11385" data-name="Group 11385" transform="translate(79.999 218.091)">
      <g id="Group_11384" data-name="Group 11384">
        <path id="Path_19254" data-name="Path 19254" d="M266.687,385.546a13.626,13.626,0,1,1-22.891,3.226,13.775,13.775,0,0,1,10.64-7.969,13.438,13.438,0,0,1,1.811-.114l-.544-.544v10.134a.544.544,0,0,0,1.088,0V380.144a.553.553,0,0,0-.544-.544,14.7,14.7,0,1,0,12.517,6.958,15.343,15.343,0,0,0-1.3-1.779.546.546,0,0,0-.778.767Z" transform="translate(-241.541 -379.6)" stroke="#000" stroke-width="0.2"/>
      </g>
    </g>
    <g id="Group_11387" data-name="Group 11387" transform="translate(90.147 228.233)">
      <g id="Group_11386" data-name="Group 11386">
        <path id="Path_19255" data-name="Path 19255" d="M436.137,570.609a3.49,3.49,0,1,1-3.525-3.487,3.528,3.528,0,0,1,3.525,3.487.544.544,0,0,0,1.088,0,3.57,3.57,0,1,0,.005,0A.547.547,0,0,0,436.137,570.609Z" transform="translate(-428.085 -566.042)" stroke="#000" stroke-width="0.2"/>
      </g>
    </g>
  </g>
</svg>
