<svg xmlns="http://www.w3.org/2000/svg" width="19.391" height="19.391" viewBox="0 0 19.391 19.391">
  <g id="Contact-us" transform="translate(-1.013 -2.499)">
    <path id="Path_77" data-name="Path 77" d="M21.478,19.665a.764.764,0,0,1-.057.176.75.75,0,0,1-.1.16c-2.047,2.466-5.3,2.305-8.513.738a20.231,20.231,0,0,1-5.287-3.866,20.217,20.217,0,0,1-3.866-5.287C2.084,8.368,1.923,5.12,4.389,3.072a.733.733,0,0,1,.336-.16A22.887,22.887,0,0,0,6.018,5.559a29.881,29.881,0,0,0,1.758,2.73l-.715.653a.781.781,0,0,0-.2.871,13.666,13.666,0,0,0,3.083,4.639,13.656,13.656,0,0,0,4.639,3.082.779.779,0,0,0,.871-.2l.652-.715a29.948,29.948,0,0,0,2.73,1.758,22.884,22.884,0,0,0,2.647,1.293Zm-4.939-3.53a29.048,29.048,0,0,0,2.611,1.677,22.421,22.421,0,0,0,2.457,1.209l.28-1.4a.146.146,0,0,0-.009-.091.144.144,0,0,0-.063-.066l-4.2-2.339a.146.146,0,0,0-.1-.017.143.143,0,0,0-.084.047l-.895.982ZM5.37,2.783A22.4,22.4,0,0,0,6.579,5.24,29.2,29.2,0,0,0,8.256,7.851l.982-.894a.147.147,0,0,0,.047-.084.146.146,0,0,0-.018-.1l-2.338-4.2a.147.147,0,0,0-.066-.062A.145.145,0,0,0,6.772,2.5Z" transform="translate(-1.487)" fill-rule="evenodd"/>
  </g>
</svg>
