<svg xmlns="http://www.w3.org/2000/svg" width="50.34" height="50.5" viewBox="0 0 50.34 50.5">
  <g id="Data_visualization" data-name="Data visualization" transform="translate(57.855 -15.254)">
    <path id="Path_19311" data-name="Path 19311" d="M-9.388,17.264c-2.68-2.68-8.459-1.926-15.662,2.093a.772.772,0,0,0-.366,1.029c.01.02.02.041.031.06a.847.847,0,0,0,1.145.351l.027-.016c6.449-3.6,11.557-4.523,13.735-2.345,2.764,2.764.419,10.973-6.951,20.687-.754-1.005-1.67-2.01-2.513-3.015V28.487c0-3.434-6.449-5.36-12.563-5.36a9.11,9.11,0,0,0-1.508.083,65.811,65.811,0,0,0-6.866-4.355V18.52A3,3,0,0,0-43.866,15.5h-.026a2.944,2.944,0,0,0-2.266,1.089c-4.438-1.424-7.7-1.256-9.631.67-3.429,3.434-1.251,11.48,5.532,21.105a.763.763,0,0,0,.67.335,1.193,1.193,0,0,0,.5-.167.75.75,0,0,0,.277-1.026.693.693,0,0,0-.11-.147c-6.119-8.621-8.374-16.247-5.694-18.927,1.424-1.339,4.1-1.508,7.788-.335v.419a3,3,0,0,0,2.989,3.015h.026a2.822,2.822,0,0,0,2.266-1.089A45.892,45.892,0,0,1-36.6,23.462c-4.606.67-8.459,2.345-8.459,5.025v7.7c-.083.083-.167.083-.252.167C-55.7,48.251-59.968,59.474-55.78,63.661a6.1,6.1,0,0,0,4.523,1.591,16.855,16.855,0,0,0,4.941-.921A3.2,3.2,0,0,0-43.971,65.5a3,3,0,0,0,3.008-3v-.019a1.067,1.067,0,0,0-.083-.5A57.382,57.382,0,0,0-31,55.2c5.527-.335,10.887-2.178,10.887-5.277V44.734q1.383-1.508,2.513-3.015c7.286,9.715,9.715,17.922,6.951,20.687-2.68,2.68-9.8.587-18.173-5.192a.824.824,0,0,0-1.146.211l-.026.041a.825.825,0,0,0,.211,1.146l.041.026c6.281,4.355,11.808,6.616,15.744,6.616A6.431,6.431,0,0,0-9.39,63.662c3.769-3.769.67-13.065-7.037-23.2C-8.718,30.328-5.619,21.032-9.388,17.264Zm-34.5,2.6a1.324,1.324,0,0,1-1.341-1.3V18.52a1.324,1.324,0,0,1,1.306-1.339h.033a1.305,1.305,0,0,1,1.261,1.339A1.312,1.312,0,0,1-43.893,19.86Zm11.306,33.754c-6.784,0-10.887-2.178-10.887-3.686V45.571c2.345,1.67,6.7,2.6,10.887,2.6a23.74,23.74,0,0,0,8.375-1.339l-1.005,1.005a80.874,80.874,0,0,1-6.364,5.779ZM-43.474,38.452c2.345,1.67,6.7,2.6,10.887,2.6s8.542-.921,10.887-2.6v4.355c0,1.508-4.1,3.686-10.887,3.686s-10.887-2.178-10.887-3.686Zm19.933-6.114A12.145,12.145,0,0,0-21.7,31.333v3.016a21.942,21.942,0,0,0-1.844-2.01Zm-1.67.754c1.089,1.089,2.178,2.266,3.182,3.35-1.089,1.424-4.858,2.932-10.552,2.932-6.784,0-10.887-2.178-10.887-3.686V31.334c2.345,1.67,6.7,2.6,10.887,2.6a28.93,28.93,0,0,0,7.286-.921.082.082,0,0,1,.075.083Zm3.517-4.606c0,.835-1.172,1.759-3.182,2.513-2.266-2.266-4.69-4.271-7.037-6.2,6.361.173,10.213,2.266,10.213,3.69Zm-12.9-3.6A80.306,80.306,0,0,1-26.725,31.5a23.921,23.921,0,0,1-5.862.587c-6.784,0-10.887-2.178-10.887-3.686C-43.474,27.146-40.128,25.3-34.6,24.885Zm-9.3,38.944a1.323,1.323,0,0,1-1.339-1.306v-.033a1.324,1.324,0,0,1,1.306-1.339h.033a1.322,1.322,0,0,1,1.339,1.306v.033A1.378,1.378,0,0,1-43.893,63.828Zm0-4.271a3,3,0,0,0-3.015,2.989v.278c-3.6,1.172-6.364,1.089-7.7-.335-3.35-3.35.754-13.4,9.464-23.785V50.009c0,3.266,5.779,5.108,11.474,5.36A60.589,60.589,0,0,1-41.8,60.646,2.624,2.624,0,0,0-43.893,59.557ZM-21.7,50.015c0,1.172-2.6,2.764-6.951,3.434,1.591-1.339,3.1-2.847,4.69-4.355.754-.754,1.591-1.591,2.266-2.345Zm1.67-7.788V38.62l1.508,1.759c-.495.669-1,1.256-1.5,1.842Z" transform="translate(0 0)" stroke="#fff" stroke-width="0.5"/>
    <path id="Path_19312" data-name="Path 19312" d="M-43.662,31.233c-.335,0-.587.335-.587.835s.252.835.587.835.587-.335.587-.835S-43.328,31.233-43.662,31.233Z" transform="translate(2.533 3.031)" stroke="#fff" stroke-width="0.5"/>
    <path id="Path_19313" data-name="Path 19313" d="M-41.766,31.794c-.335,0-.587.335-.587.835s.252.835.587.835.587-.335.587-.835C-41.181,32.214-41.432,31.794-41.766,31.794Z" transform="translate(2.898 3.139)" stroke="#fff" stroke-width="0.5"/>
    <path id="Path_19314" data-name="Path 19314" d="M-39.8,32.145c-.335,0-.587.335-.587.835s.252.835.587.835.587-.335.587-.835C-39.215,32.565-39.466,32.145-39.8,32.145Z" transform="translate(3.277 3.207)" stroke="#fff" stroke-width="0.5"/>
    <path id="Path_19315" data-name="Path 19315" d="M-43.66,39.016c.335,0,.587-.335.587-.835s-.252-.835-.587-.835-.587.335-.587.835a.7.7,0,0,0,.553.829Z" transform="translate(2.531 4.209)" stroke="#fff" stroke-width="0.5"/>
    <path id="Path_19316" data-name="Path 19316" d="M-41.762,39.578c.335,0,.587-.335.587-.835s-.252-.835-.587-.835-.587.335-.587.835a.665.665,0,0,0,.469.815A.815.815,0,0,0-41.762,39.578Z" transform="translate(2.895 4.318)" stroke="#fff" stroke-width="0.5"/>
    <path id="Path_19317" data-name="Path 19317" d="M-39.8,39.929c.335,0,.587-.335.587-.835s-.252-.835-.587-.835-.587.335-.587.835a.665.665,0,0,0,.469.815A.815.815,0,0,0-39.8,39.929Z" transform="translate(3.274 4.385)" stroke="#fff" stroke-width="0.5"/>
    <path id="Path_19318" data-name="Path 19318" d="M-43.662,43.24c-.335,0-.587.335-.587.835s.252.835.587.835.587-.335.587-.835C-43.077,43.66-43.328,43.24-43.662,43.24Z" transform="translate(2.533 5.345)" stroke="#fff" stroke-width="0.5"/>
    <path id="Path_19319" data-name="Path 19319" d="M-41.766,43.8c-.335,0-.587.335-.587.835s.252.835.587.835.587-.335.587-.835C-41.181,44.221-41.432,43.8-41.766,43.8Z" transform="translate(2.898 5.453)" stroke="#fff" stroke-width="0.5"/>
    <path id="Path_19320" data-name="Path 19320" d="M-39.8,44.223c-.335,0-.587.335-.587.835s.252.835.587.835.587-.335.587-.835S-39.466,44.223-39.8,44.223Z" transform="translate(3.277 5.535)" stroke="#fff" stroke-width="0.5"/>
  </g>
</svg>
