<svg xmlns="http://www.w3.org/2000/svg" width="62.712" height="48.6" viewBox="0 0 62.712 48.6">
  <g id="Design_effective_campaign" data-name="Design effective campaign" transform="translate(233.44 49.26)">
    <path id="Path_19419" data-name="Path 19419" d="M-227.323-33.1a6.617,6.617,0,0,0-5.817,6.571,6.612,6.612,0,0,0,5.817,6.571,5.218,5.218,0,0,0,4.632,4.246l1.813,11.088A4.345,4.345,0,0,0-216.6-.96a4.366,4.366,0,0,0,4.3-5.069l-1.577-9.661h2.532c2.043.075,10.311-.892,17.1,6.2.725.76.6.345.6,1.041a4.336,4.336,0,0,0,4.321,4.344A4.344,4.344,0,0,0-185-8.452V-44.61a4.327,4.327,0,0,0-4.327-4.35,4.329,4.329,0,0,0-4.321,4.35v.478a20.683,20.683,0,0,1-15.064,6.761h-13.51a5.21,5.21,0,0,0-5.11,4.269Zm37.994-14.126a2.6,2.6,0,0,1,2.6,2.624V-8.446a2.613,2.613,0,0,1-2.6,2.618,2.608,2.608,0,0,1-2.6-2.618V-44.61a2.613,2.613,0,0,1,2.6-2.624Zm-4.321,35.894a21.866,21.866,0,0,0-15.064-6.082h-1.732V-35.651h1.732a21.83,21.83,0,0,0,15.064-6.082v30.4Zm-18.528-6.082h-9.776a3.5,3.5,0,0,1-3.734-3.493V-32.153a3.491,3.491,0,0,1,3.47-3.5h10.041Zm-3.993,14.69a2.614,2.614,0,0,1-3-2.181L-220.936-15.7h5.311L-214-5.759a2.649,2.649,0,0,1-2.164,3.027Zm-11.243-28.62v9.638a4.9,4.9,0,0,1-4-4.816,4.891,4.891,0,0,1,4-4.816Z" transform="translate(0)" stroke="#f7f7f7" stroke-width="0.6"/>
    <path id="Path_19420" data-name="Path 19420" d="M-131.637-13.53H-137.5a.863.863,0,0,0,0,1.726h5.863A.863.863,0,0,0-131.637-13.53Z" transform="translate(-40.246 -15.044)" stroke="#f7f7f7" stroke-width="0.6"/>
    <path id="Path_19421" data-name="Path 19421" d="M-135.545-44.313l-5.863,2.14a.864.864,0,0,0,.593,1.623l5.863-2.14A.864.864,0,0,0-135.545-44.313Z" transform="translate(-38.709 -1.948)" stroke="#f7f7f7" stroke-width="0.6"/>
    <path id="Path_19422" data-name="Path 19422" d="M-139.415,13.865a.864.864,0,0,0-.593,1.623c6.117,2.238,5.921,2.192,6.163,2.192a.864.864,0,0,0,.293-1.674Z" transform="translate(-39.303 -26.65)" stroke="#f7f7f7" stroke-width="0.6"/>
  </g>
</svg>
