<svg xmlns="http://www.w3.org/2000/svg" width="143.535" height="151.453" viewBox="0 0 143.535 151.453">
  <g id="download-stroke" transform="translate(-1772.579 -4446.773)">
    <path id="Path_75" data-name="Path 75" d="M60.43,86.825V10.919a7.919,7.919,0,1,0-15.837,0V86.825L18.518,60.75a7.919,7.919,0,0,0-11.2,11.2l45.192,45.192L97.7,71.948a7.919,7.919,0,0,0-11.2-11.2Z" transform="translate(1791.835 4444.273)" fill="none" stroke="#707070" stroke-width="1"/>
    <path id="Path_76" data-name="Path 76" d="M11.419,9.5a7.919,7.919,0,0,1,7.919,7.919v12.67A11.086,11.086,0,0,0,30.423,41.175h88.689A11.086,11.086,0,0,0,130.2,30.088V17.419a7.919,7.919,0,1,1,15.837,0v12.67a26.923,26.923,0,0,1-26.923,26.923H30.423A26.923,26.923,0,0,1,3.5,30.088V17.419A7.919,7.919,0,0,1,11.419,9.5Z" transform="translate(1769.579 4540.715)" fill="none" stroke="#707070" stroke-width="1"/>
  </g>
</svg>
