<svg xmlns="http://www.w3.org/2000/svg" width="13.684" height="15.82" viewBox="0 0 13.684 15.82">
  <g id="download" transform="translate(-1171 -4533)">
    <path id="Path_102" data-name="Path 102" d="M214.116,62.644a.633.633,0,0,0-.91,0l-3.421,3.421V56.652a.653.653,0,1,0-1.305,0v9.413l-3.4-3.421a.643.643,0,1,0-.91.91l4.529,4.529a.819.819,0,0,0,.218.138.393.393,0,0,0,.218.039.526.526,0,0,0,.237-.059.815.815,0,0,0,.218-.138l4.529-4.529a.645.645,0,0,0,0-.89Z" transform="translate(968.71 4477.001)" fill="#fff"/>
    <path id="Path_103" data-name="Path 103" d="M169.272,353.818H156.893a.658.658,0,0,1-.653-.653v-4.192a.653.653,0,0,1,1.305,0v3.56h11.074v-3.56a.653.653,0,0,1,1.305,0v4.192A.672.672,0,0,1,169.272,353.818Z" transform="translate(1014.76 4195.003)" fill="#fff"/>
  </g>
</svg>
