<svg xmlns="http://www.w3.org/2000/svg" width="44.764" height="49.4" viewBox="0 0 44.764 49.4">
  <g id="Ease_of_use" data-name="Ease of use" transform="translate(180.242 20.018)">
    <path id="Path_19368" data-name="Path 19368" d="M-148.121,19a2.292,2.292,0,0,1,.851.609,2.976,2.976,0,0,1,.663,2.482,1.943,1.943,0,0,1-1.365,1.589l-8.352,2.25a1.906,1.906,0,0,1-1.805-.644,2.569,2.569,0,0,1-.585-2.261,2.011,2.011,0,0,1,1.349-1.561Zm.739-6.364a3.315,3.315,0,0,1,.762,2.851,2.41,2.41,0,0,1-1.668,1.908l-9.274,2.482a2.393,2.393,0,0,1-2.393-.813,3.148,3.148,0,0,1-.747-2.792,2.47,2.47,0,0,1,1.569-1.942l9.351-2.507A2.6,2.6,0,0,1-147.381,12.639Zm-1.9-7.1a3.329,3.329,0,0,1,.762,2.851,2.39,2.39,0,0,1-1.671,1.9l-9.274,2.481a2.374,2.374,0,0,1-2.39-.813,3.132,3.132,0,0,1-.747-2.784,2.4,2.4,0,0,1,1.668-1.909l9.256-2.543A2.632,2.632,0,0,1-149.286,5.534Zm-24.863-18.546a5.319,5.319,0,0,1,3.967,1.946c2.153,3.132,2.411,6.688,2.893,12.3a.8.8,0,0,0,1,.7L-140.36-5.08a2.422,2.422,0,0,1,1.979.186,2.193,2.193,0,0,1,.962,1.328,2.274,2.274,0,0,1-1.783,2.9l-22.157,6.4a4.016,4.016,0,0,0-2.81,3.1,4.775,4.775,0,0,0,1.12,4.191,4.33,4.33,0,0,0,1.628,1.129,4.332,4.332,0,0,0-.844,1.792,4.766,4.766,0,0,0,1.125,4.191,4.277,4.277,0,0,0,1.544,1.091,3.806,3.806,0,0,0-.677,1.46,4.2,4.2,0,0,0,.963,3.681,3.949,3.949,0,0,0,.3.286l-2.029.543a32.62,32.62,0,0,1-6.975,1.448,7.607,7.607,0,0,1-3.622-1.075c-3.261-1.5-5.311-4.946-6.216-9.013a23.687,23.687,0,0,1,.578-12.235l2.622-7.664c.971-2.842.694-5.71-.518-8.962a2.615,2.615,0,0,1-.15-2.166A1.284,1.284,0,0,1-174.149-13.012Zm-.079-1.6a2.943,2.943,0,0,0-2.477,1.335,4.119,4.119,0,0,0,.042,3.524c1.133,3.054,1.34,5.444.5,7.9L-178.786,5.8a25.109,25.109,0,0,0-.622,13.108c.979,4.378,3.237,8.327,7.1,10.1A9.385,9.385,0,0,0-168,30.24c1.606-.012,3.614-.485,7.374-1.5l13.073-3.518c3.183-.856,3.4-5.71,1.108-7.033,2.925-2.623,1.063-7.07-1.352-7.713,1.875-1.955.909-5.387-1.016-6.606L-138.741.86a3.988,3.988,0,0,0,2.863-4.83,3.8,3.8,0,0,0-1.668-2.286,4.075,4.075,0,0,0-3.224-.365L-165.812.154c-.426-5.041-.772-8.8-3.053-12.119A6.424,6.424,0,0,0-174.228-14.609Z" transform="translate(0 -1.058)" stroke="#fff" stroke-width="0.4"/>
    <path id="Path_19369" data-name="Path 19369" d="M-149.344-18.52a.8.8,0,0,0-.725.507l-2.556,6.207a.8.8,0,0,0,.431,1.043.8.8,0,0,0,1.046-.432l2.556-6.212A.8.8,0,0,0-149.344-18.52Z" transform="translate(-5.553 -0.264)" stroke="#fff" stroke-width="0.4"/>
    <path id="Path_19370" data-name="Path 19370" d="M-158.365-19.818a.8.8,0,0,0-.787.805l0,6.527a.8.8,0,0,0,.792.847.8.8,0,0,0,.8-.838l0-6.532A.8.8,0,0,0-158.365-19.818Z" transform="translate(-4.237)" stroke="#fff" stroke-width="0.4"/>
    <path id="Path_19371" data-name="Path 19371" d="M-142.106-12.547a.8.8,0,0,0-.548.241l-4.589,4.618a.8.8,0,0,0,0,1.128.8.8,0,0,0,1.13-.009l4.589-4.613A.8.8,0,0,0-142.106-12.547Z" transform="translate(-6.612 -1.478)" stroke="#fff" stroke-width="0.4"/>
  </g>
</svg>
