<svg xmlns="http://www.w3.org/2000/svg" width="125.451" height="158.842" viewBox="0 0 125.451 158.842">
  <g id="Entrepreneurs" transform="translate(249.298 -40.376)">
    <g id="BG">
      <path id="Path_19515" data-name="Path 19515" d="M-176.013,55.2a.736.736,0,0,1-.323,1.223,18.167,18.167,0,0,1-1.9.2,52.355,52.355,0,0,1,3.314,7.184c.764,1.994,2.6,7.319,2.6,7.319a22.9,22.9,0,0,1-3.538-1.2,40.828,40.828,0,0,1-4.725-1.909l3.895,24.217-.017.363c.254-.132.473-.242.636-.312,1.006-.431,2.064,8.788,2.064,8.788s5.675,2.083,8.4,3.292a86.418,86.418,0,0,1,11.161,5.5c7.154,4.444,13.837,8.98,19.537,15.317.683.759,1.385,1.513,2.073,2.28a38.131,38.131,0,0,0,3.268-10.52A52.882,52.882,0,0,0-129,101.317a55.56,55.56,0,0,0-11.592-28.379A58.818,58.818,0,0,0-165.1,55.075a64.837,64.837,0,0,0-13.723-3.688A14.4,14.4,0,0,0-176.013,55.2Z" fill="#f4f6f9"/>
      <path id="Path_19516" data-name="Path 19516" d="M-239.927,129.923a78.157,78.157,0,0,1,30.074-23.6c2-.889,5.922-2.461,6.992-4.152.006-.07,1.029-3.491,1.6-5.4.483-1.615.957-2.13,1.767-2.21v-.017s-.253-9.766-.368-12.261c-.141-3.07-.345-6.146-.361-9.231l-.021,0c-.851-.25-1.348-1.488-1.714-2.208a16.928,16.928,0,0,1-1.066-2.647c-.116-.378-.217-.759-.311-1.143l.133.006a13.093,13.093,0,0,1-4.711-.8,4.8,4.8,0,0,1-2-2.865,3.741,3.741,0,0,1,2.8-4.208,11.152,11.152,0,0,1,2.932-.29c-.022-1.116-.022-2.233-.01-3.347.01-.866.04-1.741.116-2.611a43.475,43.475,0,0,0-20.619,13.258,83.039,83.039,0,0,0-9.159,13.624,91.537,91.537,0,0,0-7.182,15.76c-3.494,10.47-4.364,22.266.249,32.563C-240.518,128.751-240.228,129.34-239.927,129.923Z" fill="#f4f6f9"/>
    </g>
    <g id="Character">
      <path id="Path_19517" data-name="Path 19517" d="M-218.818,185.747c-2.483-2.251-3.62-5.715-4.935-8.854-1.237-2.951-2.928-9.068-2.928-9.068s-7.4,4.829-8.047,7.559c-2.2-1.614-8.031.291-10.236,1.74,2.418-.572,6.589-4.785,4.335-7.6-.752-.938-5.479-3.941-7.035-2.841-2.3,1.629,1.931,2.986,3.077,2.959,6.373-.152,2.953-9.591-.854-11.329,2.007,1.293,3.232,2.868,5.846,2.582,2.933-.321,4.928-2.98,5.521-5.639" fill="none" stroke="#333" stroke-linecap="round" stroke-linejoin="round" stroke-width="1.903"/>
      <path id="Path_19518" data-name="Path 19518" d="M-234.728,175.384a20.825,20.825,0,0,0,.589,5.247,23.194,23.194,0,0,0,2.519,5.856,9.9,9.9,0,0,0,6.37,4.6A16,16,0,0,1-226.5,198" fill="none" stroke="#333" stroke-linecap="round" stroke-linejoin="round" stroke-width="1.903"/>
      <path id="Path_19519" data-name="Path 19519" d="M-218.818,185.93c-.175,1.058-5.276,4.3-6.583,5.121" fill="none" stroke="#333" stroke-linecap="round" stroke-linejoin="round" stroke-width="1.903"/>
      <path id="Path_19520" data-name="Path 19520" d="M-191.254,156.839c-1.765-.25-3.363-1.215-5.344-1.267-1.246-.033-3.625,1.807-3.39,3.032" fill="none" stroke="#333" stroke-linecap="round" stroke-linejoin="round" stroke-width="1.903"/>
      <path id="Path_19521" data-name="Path 19521" d="M-226.44,168.679s2.273-2.9,3.406-4.511c2.026-2.879,4.194-5.792,6.48-8.489,3.33-3.929,7.145-8.027,12.38-8.844a19.158,19.158,0,0,1,12.243,2.391" fill="none" stroke="#333" stroke-linecap="round" stroke-linejoin="round" stroke-width="1.903"/>
      <path id="Path_19522" data-name="Path 19522" d="M-203.639,157.035a21.416,21.416,0,0,1,8.129,4.808,7.258,7.258,0,0,1,2.295,4.976,4.712,4.712,0,0,1-2.908,4.275" fill="none" stroke="#333" stroke-linecap="round" stroke-linejoin="round" stroke-width="1.903"/>
      <path id="Path_19523" data-name="Path 19523" d="M-204.553,162.339c6.214,2.215,14.754,14.837,4.006,17.556" fill="none" stroke="#333" stroke-linecap="round" stroke-linejoin="round" stroke-width="1.903"/>
      <path id="Path_19524" data-name="Path 19524" d="M-219,185.382c5.215.554,17.387-11.9,11.132-11.5s-5.6,9.5-.05,10.676c5.374,1.134,9.3-5.969,8.105-10.608-.523-2.032-3.174-4.08-4.922-4.115" fill="none" stroke="#333" stroke-linecap="round" stroke-linejoin="round" stroke-width="1.903"/>
      <path id="Path_19525" data-name="Path 19525" d="M-188.46,108.572c.165,2.572-6.419,15.6-3.434,16.971,1.055.486,1.737-1.226,2.789-1.082.9.123,1.735,1.643,1.792,2.427.236,3.3-6.212,9.58-3.314,9.82s5.151,1.449,3.608,5.459" fill="none" stroke="#333" stroke-linecap="round" stroke-linejoin="round" stroke-width="1.903"/>
      <path id="Path_19526" data-name="Path 19526" d="M-164.686,164.716c3.018,1.32,3.348,2.983,4.115,5.121,1.235,3.439,1.708,8.115,6.858,7.681" fill="none" stroke="#333" stroke-linecap="round" stroke-linejoin="round" stroke-width="1.903"/>
      <path id="Path_19527" data-name="Path 19527" d="M-165.268,149.8c-.07-1.611-.113-3.244-.3-4.847a3.8,3.8,0,0,0-1.59-3.021,6.468,6.468,0,0,0-3.509-.545q-2.754.045-5.5.283a57.928,57.928,0,0,0-9.73,1.454c-2.816.746-4.79,2.431-4.9,5.477a62.132,62.132,0,0,0,.185,6.557c-.052,1.861.959,13.33.8,17.2l1.8.952c5.062,2.794,11.945,2.942,16.3,2.131a41.411,41.411,0,0,0,6.865-1.8,11.121,11.121,0,0,1-.1-2.444c.323-3.555-.291-7.122-.207-10.691S-165.112,153.366-165.268,149.8Z" fill="#9ed5f0" stroke="#9ed5f0" stroke-linecap="round" stroke-linejoin="round" stroke-width="1.903"/>
      <path id="Path_19528" data-name="Path 19528" d="M-241.983,132.721a77.955,77.955,0,0,1,32.13-26.393c2-.89,5.929-2.464,6.995-4.156-.07.176,1.006-3.421,1.6-5.393.859-2.869,1.686-2.267,4.429-1.923,4.727.592,10.048,1.485,14.772.228,2.027-.539,4.979-2.367,5.984-2.8s2.064,8.788,2.064,8.788,5.675,2.083,8.4,3.292a86.355,86.355,0,0,1,11.161,5.5c7.154,4.444,13.837,8.98,19.537,15.317a56.667,56.667,0,0,1,4.606,5.41,81.2,81.2,0,0,1,5.182,8.584" fill="none" stroke="#333" stroke-linecap="round" stroke-linejoin="round" stroke-width="1.903"/>
      <path id="Path_19529" data-name="Path 19529" d="M-201.078,103.086c1,1.57,4.583,5.752,6.682,5.037,2.984-1.016,4.441-6.721,5.21-9.371.685,3.035,2.69,8.146,5.755,9.526,3.189,1.435,7.334-3.147,8.152-6.058a3.831,3.831,0,0,1-.2.866" fill="none" stroke="#333" stroke-linecap="round" stroke-linejoin="round" stroke-width="1.903"/>
      <path id="Path_19530" data-name="Path 19530" d="M-154.348,127.151c-2.008-.159-10.152,1.027-11.922,1.792" fill="none" stroke="#333" stroke-linecap="round" stroke-linejoin="round" stroke-width="1.903"/>
      <path id="Path_19531" data-name="Path 19531" d="M-157.474,124.473c.788,1.72,1.4,6.523,1.4,6.523" fill="none" stroke="#333" stroke-linecap="round" stroke-linejoin="round" stroke-width="1.903"/>
      <path id="Path_19532" data-name="Path 19532" d="M-160.217,123.376a35.387,35.387,0,0,1,1.3,5.814c.158,1.066.711,5.463.711,5.463" fill="none" stroke="#333" stroke-linecap="round" stroke-linejoin="round" stroke-width="1.903"/>
      <path id="Path_19533" data-name="Path 19533" d="M-153.3,198a13.222,13.222,0,0,0,1.478-5.654,74.483,74.483,0,0,0-.169-8.05c-.171-1.956-.139-5.732-1.7-7.108,0,0,5.778-3.209,8.942-4.626,2.931,2.207,3.177,6.465,3.881,11.2s.2,9.411-.711,10.712S-149.537,198-153.3,198Z" fill="none" stroke="#333" stroke-linecap="round" stroke-linejoin="round" stroke-width="1.903"/>
      <path id="Path_19534" data-name="Path 19534" d="M-144.02,172.946c.244-3.109,3.537-10.177,8.06-4.459-2.274-2.533-2.675-6.3-2.9-9.79-.2-3.013,2.633-5.067,3.888-1.4,1.077,3.155-1.046,4.529-3.988,3.492s-4.36-3.8-5.339-6.6c-.653-1.864-1.569-7.231-1.34-8.983" fill="none" stroke="#333" stroke-linecap="round" stroke-linejoin="round" stroke-width="1.903"/>
      <path id="Path_19535" data-name="Path 19535" d="M-152.888,197.1a45.774,45.774,0,0,1-11.478.569c-4.854-.205-10.412-.389-14.7-2.9-2.7-1.578-6.249-2.705-8.476-4.993-.646-.665-3.536-4.1-2.805-4.764" fill="none" stroke="#333" stroke-linecap="round" stroke-linejoin="round" stroke-width="1.903"/>
      <path id="Path_19536" data-name="Path 19536" d="M-180.474,189.649c-2.432-.766-12.27-3.611-10.851-7.925" fill="none" stroke="#333" stroke-linecap="round" stroke-linejoin="round" stroke-width="1.903"/>
      <path id="Path_19537" data-name="Path 19537" d="M-180.352,185.26c-3.536-.542-8.831-1.86-11.707-4.2-1.043-.85-3.349-3.891-1.1-4.577" fill="none" stroke="#333" stroke-linecap="round" stroke-linejoin="round" stroke-width="1.903"/>
      <path id="Path_19538" data-name="Path 19538" d="M-179.255,181.846c-1.512-.749-16.817-3.947-13.045-8.266,1.527-1.75,4.867.562,6.6,1.073,4.219,1.246,8.677,2.1,13.067,1.22,2.831-.569,7.14-1.381,9.232-3.171" fill="none" stroke="#333" stroke-linecap="round" stroke-linejoin="round" stroke-width="1.903"/>
      <path id="Path_19539" data-name="Path 19539" d="M-199.493,94.552s-.253-9.766-.368-12.261c-.147-3.214-.367-6.434-.364-9.664,0-1.593-.143-5.486-.143-5.486-3.831-.021-6.605-.326-7.544-.873a4.8,4.8,0,0,1-2-2.865,3.741,3.741,0,0,1,2.8-4.208c2.181-.547,4.455-.2,6.626,0,0,0-.118-5.694.8-8.363,1.065-3.092,4.489-5.1,7.683-5.405,3.848-.369,7.882,3.486,10.213,6.144a39.984,39.984,0,0,1,6.864,12.238c.764,1.994,2.6,7.319,2.6,7.319a22.9,22.9,0,0,1-3.538-1.2,40.828,40.828,0,0,1-4.725-1.909l3.895,24.217" fill="none" stroke="#333" stroke-linecap="round" stroke-linejoin="round" stroke-width="1.903"/>
      <path id="Path_19540" data-name="Path 19540" d="M-192.75,67.878c.489,1.265,2.038,2.845,3.214,2.622" fill="none" stroke="#333" stroke-linecap="round" stroke-linejoin="round" stroke-width="1.903"/>
      <line id="Line_291" data-name="Line 291" y2="1.28" transform="translate(-190.715 61.451)" fill="none" stroke="#333" stroke-linecap="round" stroke-linejoin="round" stroke-width="1.903"/>
      <line id="Line_292" data-name="Line 292" y2="1.463" transform="translate(-185.595 61.816)" fill="none" stroke="#333" stroke-linecap="round" stroke-linejoin="round" stroke-width="1.903"/>
      <path id="Path_19541" data-name="Path 19541" d="M-204.858,62.731a11.748,11.748,0,0,0,2.317.487" fill="none" stroke="#333" stroke-linecap="round" stroke-linejoin="round" stroke-width="1.903"/>
      <g id="Group_11471" data-name="Group 11471">
        <path id="Path_19542" data-name="Path 19542" d="M-200.368,67.141c-1.078-.006-2.073-.034-2.966-.084.094.384.195.765.311,1.143a16.83,16.83,0,0,0,1.066,2.647c.366.72.863,1.958,1.714,2.208l.021,0c0-.144,0-.288,0-.433C-200.224,71.034-200.368,67.141-200.368,67.141Z" fill="#333"/>
        <path id="Path_19543" data-name="Path 19543" d="M-176.013,55.2c-4.7-4.27-5.092-13.787-12.591-14.77a6.92,6.92,0,0,0-4.327.928,9.8,9.8,0,0,0-1.844,1.386,13.5,13.5,0,0,1-1.339,1.279,4.754,4.754,0,0,0-3.884.441,8.044,8.044,0,0,0-3.258,4.423,20.687,20.687,0,0,0-.935,6.673c-.012,1.114-.012,2.231.01,3.347,1.021.019,2.041.127,3.045.227a19.755,19.755,0,0,0,1.224,3.127.74.74,0,0,0,1.337-.175c1.066-3.142,2.19-6.27,3.192-9.433a14.006,14.006,0,0,0,.808-4.821,17.75,17.75,0,0,0,18.239,8.591A.736.736,0,0,0-176.013,55.2Z" fill="#333"/>
      </g>
      <line id="Line_293" data-name="Line 293" x1="0.122" y2="0.366" transform="translate(-183.039 147.168)" fill="none" stroke="#333" stroke-linecap="round" stroke-linejoin="round" stroke-width="1.903"/>
      <path id="Path_19544" data-name="Path 19544" d="M-186.518,147.81v.122" fill="none" stroke="#333" stroke-linecap="round" stroke-linejoin="round" stroke-width="1.903"/>
      <line id="Line_294" data-name="Line 294" x2="0.544" transform="translate(-179.233 146.844)" fill="none" stroke="#333" stroke-linecap="round" stroke-linejoin="round" stroke-width="1.903"/>
    </g>
  </g>
</svg>
