<svg xmlns="http://www.w3.org/2000/svg" width="52.016" height="50.408" viewBox="0 0 52.016 50.408">
  <g id="First_party_data" data-name="First party data" transform="translate(347.169 -260.173)">
    <g id="Group_11445" data-name="Group 11445">
      <path id="Path_19404" data-name="Path 19404" d="M-296.16,265.785h-8.548a.806.806,0,0,0-.807.806.807.807,0,0,0,.807.807h7.742v17.175h-4.92l1.613-1.613a.8.8,0,0,0-.073-1.129.8.8,0,0,0-1.056,0l-2.984,2.984a.779.779,0,0,0-.026,1.1l.026.026,2.984,2.984a.8.8,0,0,0,1.129-.073.8.8,0,0,0,0-1.056l-1.613-1.614h5.726a.762.762,0,0,0,.806-.715.686.686,0,0,0,0-.091V266.585a.762.762,0,0,0-.722-.8A.585.585,0,0,0-296.16,265.785Z" stroke="#fff" stroke-width="0.4"/>
      <path id="Path_19405" data-name="Path 19405" d="M-337.612,284.576h-8.549a.762.762,0,0,0-.806.715.7.7,0,0,0,0,.091v18.79a.762.762,0,0,0,.715.806.686.686,0,0,0,.091,0h5.726l-1.613,1.612a.8.8,0,0,0,.065,1.129.8.8,0,0,0,1.065,0l2.984-2.984a.78.78,0,0,0,.026-1.1l-.026-.026-2.984-2.984a.8.8,0,0,0-1.129.073.8.8,0,0,0,0,1.056l1.613,1.613h-4.92V286.187h7.742a.762.762,0,0,0,.806-.715.686.686,0,0,0,0-.091A.809.809,0,0,0-337.612,284.576Z" stroke="#fff" stroke-width="0.4"/>
      <path id="Path_19406" data-name="Path 19406" d="M-329.79,304.977h3.468a.806.806,0,0,0,.806-.807.806.806,0,0,0-.806-.806h-3.468a.762.762,0,0,0-.806.715.7.7,0,0,0,0,.091A.808.808,0,0,0-329.79,304.977Z" stroke="#fff" stroke-width="0.4"/>
      <path id="Path_19407" data-name="Path 19407" d="M-322.855,304.977h3.468a.806.806,0,0,0,.806-.807.806.806,0,0,0-.806-.806h-3.468a.806.806,0,0,0-.807.806.807.807,0,0,0,.807.807Z" stroke="#fff" stroke-width="0.4"/>
      <path id="Path_19408" data-name="Path 19408" d="M-316,304.977h3.468a.806.806,0,0,0,.806-.807.806.806,0,0,0-.806-.806H-316a.806.806,0,0,0-.807.806A.807.807,0,0,0-316,304.977Z" stroke="#fff" stroke-width="0.4"/>
      <path id="Path_19409" data-name="Path 19409" d="M-326.322,265.785h-3.468a.806.806,0,0,0-.807.806.807.807,0,0,0,.807.807h3.468a.806.806,0,0,0,.806-.807.806.806,0,0,0-.806-.806Z" stroke="#fff" stroke-width="0.4"/>
      <path id="Path_19410" data-name="Path 19410" d="M-319.467,265.785h-3.468a.806.806,0,0,0-.807.806.807.807,0,0,0,.807.807h3.468a.806.806,0,0,0,.806-.807A.806.806,0,0,0-319.467,265.785Z" stroke="#fff" stroke-width="0.4"/>
      <path id="Path_19411" data-name="Path 19411" d="M-312.532,265.785H-316a.806.806,0,0,0-.807.806.807.807,0,0,0,.807.807h3.468a.762.762,0,0,0,.806-.715.686.686,0,0,0,0-.091A.808.808,0,0,0-312.532,265.785Z" stroke="#fff" stroke-width="0.4"/>
      <path id="Path_19412" data-name="Path 19412" d="M-299.548,300.944a3.546,3.546,0,0,0-3.468,2.823h-4.839v-4.919a.762.762,0,0,0-.716-.806.681.681,0,0,0-.09,0h-11.693V293.2l12.016-7.021a.855.855,0,0,0,.274-1.178.854.854,0,0,0-.274-.274l-12.016-7.016v-4.832h11.613a.762.762,0,0,0,.806-.715.7.7,0,0,0,0-.091V261.182a.762.762,0,0,0-.716-.806.671.671,0,0,0-.09,0H-333.58a.762.762,0,0,0-.806.715.686.686,0,0,0,0,.091v4.6h-4.839a3.6,3.6,0,0,0-4.337-2.667,3.6,3.6,0,0,0-2.667,4.337,3.6,3.6,0,0,0,3.536,2.765,3.547,3.547,0,0,0,3.468-2.823h4.839v4.6a.762.762,0,0,0,.715.806.686.686,0,0,0,.091,0h11.613v4.839l-12.016,7.015a.855.855,0,0,0-.275,1.177.86.86,0,0,0,.275.275l12.016,7.016v4.839H-333.58a.762.762,0,0,0-.806.715.686.686,0,0,0,0,.091v10.807a.762.762,0,0,0,.715.806.7.7,0,0,0,.091,0h24.919a.762.762,0,0,0,.806-.715.686.686,0,0,0,0-.091v-4.192h4.839a3.59,3.59,0,0,0,4.262,2.759,3.591,3.591,0,0,0,2.838-3.565A3.666,3.666,0,0,0-299.548,300.944Zm-43.225-32.419a2.016,2.016,0,0,1-2.016-2.016,2.015,2.015,0,0,1,2.016-2.016,2.016,2.016,0,0,1,2.016,2.016h0a2,2,0,0,1-1.984,2.016Zm10,2.661v-9.193h23.306v9.189Zm.726,14.194,10.887-6.371,10.887,6.373-10.887,6.371Zm22.5,23.387h-23.226v-9.193h23.306v9.194Zm10-2.258a2.016,2.016,0,0,1-2.016-2.016,2.015,2.015,0,0,1,2.016-2.016,2.016,2.016,0,0,1,2.016,2.016,2.1,2.1,0,0,1-2.017,2.016Z" stroke="#fff" stroke-width="0.4"/>
      <path id="Path_19413" data-name="Path 19413" d="M-324.87,284.576h-.081a.806.806,0,0,0-.807.806.807.807,0,0,0,.807.807h.081a.762.762,0,0,0,.806-.715.7.7,0,0,0,0-.091A.808.808,0,0,0-324.87,284.576Z" stroke="#fff" stroke-width="0.4"/>
      <path id="Path_19414" data-name="Path 19414" d="M-320.273,285.376a.762.762,0,0,0-.716-.806.671.671,0,0,0-.09,0h-.081a.806.806,0,0,0-.807.806.807.807,0,0,0,.807.807h.081A.808.808,0,0,0-320.273,285.376Z" stroke="#fff" stroke-width="0.4"/>
      <path id="Path_19415" data-name="Path 19415" d="M-317.451,286.187h.081a.806.806,0,0,0,.806-.807.806.806,0,0,0-.806-.806h-.081a.762.762,0,0,0-.806.715.686.686,0,0,0,0,.091A.808.808,0,0,0-317.451,286.187Z" stroke="#fff" stroke-width="0.4"/>
    </g>
  </g>
</svg>
