<svg xmlns="http://www.w3.org/2000/svg" width="220.885" height="168.883" viewBox="0 0 220.885 168.883">
  <g id="FMCG_firm" data-name="FMCG firm" transform="translate(3.358 3.039)">
    <g id="BG">
      <path id="Path_20039" data-name="Path 20039" d="M115.629,67.986c-.423,7.942-.949,17.6-.949,17.6a22.6,22.6,0,0,1,.97,7.879c5.189.719,12.9,7.785,16.012,11.819,4.794,6.221,8.942,14.509,11.845,25.021s5.874,15.318,7.273,15.258,3.58-2.085,4.737-7.024,1.089-9.5,1.3-13.79c.084-1.683-.231-4.542,1.037-5.857a2.722,2.722,0,0,1,1.428-.739l-.261-.05s-1.082-8.047,1.017-9.767a3.257,3.257,0,0,1,.461-.31l-.153-.894v-3.7c-5.188-2.96-7.662-10.043-4.736-15.305v-.649q0-.909,0-1.815a34.634,34.634,0,0,1-4.362.909,21.034,21.034,0,0,1-11.659-1.291,37.936,37.936,0,0,1-9.265-6.562,92.179,92.179,0,0,0-9.289-7.7A38.015,38.015,0,0,0,115.629,67.986Z" fill="#f4f6f9"/>
      <path id="Path_20040" data-name="Path 20040" d="M53.469,88.649c-.115.037-.23.071-.346.1.5,2.723.827,5.3.827,5.3,3.782-.175,6.067,4.478,2.455,10.111,3.765.6,5.659,5.357,6.59,10.094a39.01,39.01,0,0,1,9.953-13.8,29.153,29.153,0,0,1,7.5-4.306,58.154,58.154,0,0,1,8.863-2.686c2.524-3.227,3.025-7.612,3.615-11.738.374-2.621.417-5.276.818-7.9.07-.459.139-1.067.2-1.709l-.048-.027a.773.773,0,0,1-1.139-.187,18.364,18.364,0,0,1-1.438-3.72l.044.007c-1.476-.27-3.056-.947-3.513-2.566-7.418,2-13.627,6.414-19.45,11.694-3.147,2.854-6.231,5.808-9.624,8.318A18.9,18.9,0,0,1,53.469,88.649Z" fill="#f4f6f9"/>
      <path id="Path_20041" data-name="Path 20041" d="M215.053,93.537c-.972-4.238-2.186-8.688-4.666-12.21a19.482,19.482,0,0,0-9.692-7.159c-7.827-2.751-16.193-.676-23.67,2.391a5.936,5.936,0,0,1,1.4,1.077,4.976,4.976,0,0,1,1.424,4.306l.189.056c2.537.7,3.154,2.714,2.781,4.919l.21.067c2.309.4,2.618,3.1,2.14,5.477l.6.256c1.606,1.485,1.35,5.053-.106,6.6a3.38,3.38,0,0,1-2.27.971l.133.41a5.6,5.6,0,0,1-4.892,4.69l-.268,3.939a6.727,6.727,0,0,1,1.174.755c1.463,1.193.995,3.882.995,5.821v6.284l-.586-.111c5.407,3.562,4.041,9.485,4.285,13.762a76.277,76.277,0,0,1-.135,11.848l11.793-.142,6.983-.084a36.185,36.185,0,0,0,6.676-.223c2.412-.491,3.4-2.462,4.1-4.805q.963-3.216,1.68-6.515a97.831,97.831,0,0,0,1.968-14.148A96.779,96.779,0,0,0,215.053,93.537Z" fill="#f4f6f9"/>
      <path id="Path_20042" data-name="Path 20042" d="M30.733,140.813c-.564-4.016-2.527-7.77-2.761-11.9a66.471,66.471,0,0,1,.262-9.28c.387-4.546.936-8.367,3.484-12.336a13.4,13.4,0,0,1,1.906-2.317l-.011,0s-3.748-12.706-2.326-13.519a2.957,2.957,0,0,1-.751-.333,37.307,37.307,0,0,0-6.351,3.473,45.281,45.281,0,0,0-15.462,19.1A63.887,63.887,0,0,0,4.7,125.965c-.875,3.941-1.72,8.3-1.448,12.382.288,4.325,2.347,8.034,6.338,9.224a21.934,21.934,0,0,0,6.09.486l7.043.058,7.043.058C30.36,145.56,31.043,143.017,30.733,140.813Z" fill="#f4f6f9"/>
    </g>
    <g id="Character">
      <path id="Path_20043" data-name="Path 20043" d="M115.65,93.465c5.189.719,12.9,7.785,16.012,11.819,4.794,6.221,8.942,14.509,11.845,25.021s5.874,15.318,7.273,15.258,3.58-2.085,4.737-7.024,1.089-9.5,1.3-13.79c.084-1.683-.231-4.542,1.037-5.857,1.393-1.445,4.313-.68,6.107-.375,5.015.852,11.181.658,15.579,3.292,5.892,3.529,4.447,9.641,4.7,14.025.581,10.175.242,12.716-.455,15.128-.539,1.866-1.294,8.266-5.469,8.45s.417-6.05,2.489-2.123c1.173,2.223-1.348,6-2.81,7.136" fill="none" stroke="#333" stroke-linecap="round" stroke-linejoin="round" stroke-width="2.022"/>
      <path id="Path_20044" data-name="Path 20044" d="M29.73,157.03c-2.238-5.2,1.668-11.489,1-16.217-.564-4.016-2.527-7.77-2.761-11.9a66.471,66.471,0,0,1,.262-9.28c.387-4.546.936-8.367,3.484-12.336,2.4-3.744,6.543-5.677,10.171-8.1,3.376-2.258,8.279-4.974,12.061-5.15s6.067,4.478,2.455,10.111c7.078,1.124,7.543,16.954,7.43,19.7-.106,2.554-.3,9.5-3.194,10.684-2.452,1.006-2.41-.968-2.2-2.962.388-3.693,1.707-7.595,2.54-11.211a38.62,38.62,0,0,1,11.967-19.915,29.153,29.153,0,0,1,7.5-4.306,58.154,58.154,0,0,1,8.863-2.686" fill="none" stroke="#333" stroke-linecap="round" stroke-linejoin="round" stroke-width="2.022"/>
      <path id="Path_20045" data-name="Path 20045" d="M159.024,118.1s-1.082-8.047,1.017-9.767,6.97-.811,11.248-.548,6.795,1.1,8.257,2.29.995,3.882.995,5.821v6.284" fill="none" stroke="#333" stroke-linecap="round" stroke-linejoin="round" stroke-width="2.022"/>
      <path id="Path_20046" data-name="Path 20046" d="M160.349,103.436c-5.3-3.022-7.768-10.344-4.548-15.636,2.559-4.205,12.091-8.944,15.391-2.944,2.492,4.528-4.733,5.058-7.333,4.172,2.042.382,4.059,3.78,4.059,6.963" fill="none" stroke="#333" stroke-linecap="round" stroke-linejoin="round" stroke-width="2.022"/>
      <path id="Path_20047" data-name="Path 20047" d="M161.97,79.381a74.009,74.009,0,0,1,8.2-2.991c2.948-.815,6-1.086,8.262,1.246,3.674,3.784-.3,9.14-3.372,12.278-2.661,2.72-5.754,2.6-6.482.021" fill="none" stroke="#333" stroke-linecap="round" stroke-linejoin="round" stroke-width="2.022"/>
      <path id="Path_20048" data-name="Path 20048" d="M155.613,87.482c0-9.087-.024-17.939,2.424-26.616.481-1.7,1.421-7.543,5.5-5.484,2.28,1.153.926,8.133.788,10.4-.188,3.072-.235,9.388-.235,12.357" fill="none" stroke="#333" stroke-linecap="round" stroke-linejoin="round" stroke-width="2.022"/>
      <path id="Path_20049" data-name="Path 20049" d="M171.816,82.248a6.063,6.063,0,0,0-1.246,1.744" fill="none" stroke="#333" stroke-linecap="round" stroke-linejoin="round" stroke-width="2.022"/>
      <path id="Path_20050" data-name="Path 20050" d="M180.042,82c4.765,1.319,2.759,7.256.133,10.424s-5.219,4.107-6.99,3.289c-1.444-.666-2.564-2.395-1.069-3.951" fill="none" stroke="#333" stroke-linecap="round" stroke-linejoin="round" stroke-width="2.022"/>
      <path id="Path_20051" data-name="Path 20051" d="M183.033,86.984c3.53.612,2.385,6.6.9,8.589-1.031,1.385-2.882,3.113-4.9,2.627a2.149,2.149,0,0,1-1.49-3.24" fill="none" stroke="#333" stroke-linecap="round" stroke-linejoin="round" stroke-width="2.022"/>
      <path id="Path_20052" data-name="Path 20052" d="M185.775,92.717c1.606,1.485,1.35,5.053-.106,6.6-1.5,1.593-5.162,1.309-4.363-1.415" fill="none" stroke="#333" stroke-linecap="round" stroke-linejoin="round" stroke-width="2.022"/>
      <path id="Path_20053" data-name="Path 20053" d="M183.532,100.694a5.649,5.649,0,0,1-5.983,4.736" fill="none" stroke="#333" stroke-linecap="round" stroke-linejoin="round" stroke-width="2.022"/>
      <line id="Line_306" data-name="Line 306" x1="0.249" y2="3.66" transform="translate(178.388 105.43)" fill="none" stroke="#333" stroke-linecap="round" stroke-linejoin="round" stroke-width="2.022"/>
      <path id="Path_20054" data-name="Path 20054" d="M33.613,104.991s-3.748-12.707-2.326-13.52,7.839-4.184,11.406-5.88c1.71-.813,6.841-3.731,8.365-3.114S53.95,94.049,53.95,94.049" fill="none" stroke="#333" stroke-linecap="round" stroke-linejoin="round" stroke-width="2.022"/>
      <path id="Path_20055" data-name="Path 20055" d="M50.918,81.749c1.372-4.021-.411-11.138,2.4-14.181,3.6-3.907,10.314-7.98,8.036-10.454-2.875-3.122-6.515.493-9.134,1.884-2.865,1.521-5.633,3.117-8.892,5.053C29.7,58.5,23.988,61.574,16.269,63.241c-2.919.631-9.489,2.95-4.643,5.826,3.867,2.294,10.1,2.709,12.419,6.7a34.613,34.613,0,0,1,3.137,8.48c.471,1.875,1.426,6.48,4.105,7.224" fill="none" stroke="#333" stroke-linecap="round" stroke-linejoin="round" stroke-width="2.022"/>
      <path id="Path_20056" data-name="Path 20056" d="M11.034,65.546C13.594,64.824,20.069,67,21.662,68" fill="none" stroke="#333" stroke-linecap="round" stroke-linejoin="round" stroke-width="2.022"/>
      <path id="Path_20057" data-name="Path 20057" d="M17.765,63.053a39.181,39.181,0,0,1,8.226,2.992" fill="none" stroke="#333" stroke-linecap="round" stroke-linejoin="round" stroke-width="2.022"/>
      <path id="Path_20058" data-name="Path 20058" d="M25.243,61.807c2.266.681,4.547,2.128,6.73,2.991" fill="none" stroke="#333" stroke-linecap="round" stroke-linejoin="round" stroke-width="2.022"/>
      <g id="Group_11487" data-name="Group 11487">
        <path id="Path_20059" data-name="Path 20059" d="M190.177,27.982c-1.54-11.542-7.9-19.473-17.917-22.332A28.242,28.242,0,0,0,156.748,5.3a21.177,21.177,0,0,0-12.358,9.548A31.2,31.2,0,0,0,139.647,30.7a26.573,26.573,0,0,0,4.762,15.943,18.076,18.076,0,0,0,14.035,7.9c1.348.07,2.711.118,4.075.118,4.349,0,8.7-.494,12.558-2.383,5.28-2.587,8.891-5.717,11.363-9.848C188.68,38.693,190.838,32.93,190.177,27.982Z" fill="#feaabc"/>
        <path id="Path_20060" data-name="Path 20060" d="M152.526,8.423s2.73,7.214,3.795,10.22c1.11,3.135,4.811,11.631,4.811,11.631s12.687,2.636,16.072,3.45c3.288.791,6.807,1.36,9.722,2.368" fill="none" stroke="#333" stroke-linecap="round" stroke-linejoin="round" stroke-width="2.022"/>
        <path id="Path_20061" data-name="Path 20061" d="M161.251,29.86s20.9-10.8,23.93-12.962" fill="none" stroke="#333" stroke-linecap="round" stroke-linejoin="round" stroke-width="2.022"/>
        <path id="Path_20062" data-name="Path 20062" d="M136.663,17.52h-2.492" fill="none" stroke="#333" stroke-linecap="round" stroke-linejoin="round" stroke-width="2.022"/>
        <line id="Line_307" data-name="Line 307" x2="2.84" y2="0.111" transform="translate(172.668 -1.989)" fill="none" stroke="#333" stroke-linecap="round" stroke-linejoin="round" stroke-width="2.022"/>
        <line id="Line_308" data-name="Line 308" y1="0.076" x2="3.001" transform="translate(194.921 25.46)" fill="none" stroke="#333" stroke-linecap="round" stroke-linejoin="round" stroke-width="2.022"/>
      </g>
      <path id="Path_20063" data-name="Path 20063" d="M89.306,93.465c2.524-3.227,3.025-7.612,3.615-11.738.374-2.621.417-5.276.818-7.9.262-1.718.515-5.5.515-5.5s-7.447.767-6.443-4.649c.551-2.974,4.276-6.393,7.434-5.142.759-6.128.629-12.308,6.464-15.984,6.556-4.13,13.76,3.565,18.36,7.944a75.955,75.955,0,0,1,8.84,10.022c-3.835.482-12.893.076-12.893.076-.361,7.108-1.336,24.993-1.336,24.993,1.8,5.885,1.171,12.6-1.607,12.7s-4.375-4.825-6.527-7.236c-1.1,2.912-4.725,7.61-8.509,7.617S90.647,95.807,89.306,93.465Z" fill="none" stroke="#333" stroke-linecap="round" stroke-linejoin="round" stroke-width="2.022"/>
      <path id="Path_20064" data-name="Path 20064" d="M92.8,83.743c4.611,4.994,15.439,4.314,20.939,1.5" fill="none" stroke="#333" stroke-linecap="round" stroke-linejoin="round" stroke-width="2.022"/>
      <path id="Path_20065" data-name="Path 20065" d="M90.8,63.552a1.978,1.978,0,0,1,1.745.748" fill="none" stroke="#333" stroke-linecap="round" stroke-linejoin="round" stroke-width="2.022"/>
      <path id="Path_20066" data-name="Path 20066" d="M103.345,63.184a2.62,2.62,0,0,0,3.49,1" fill="none" stroke="#333" stroke-linecap="round" stroke-linejoin="round" stroke-width="2.022"/>
      <path id="Path_20067" data-name="Path 20067" d="M105.011,55.286V54.25" fill="none" stroke="#333" stroke-linecap="round" stroke-linejoin="round" stroke-width="2.022"/>
      <path id="Path_20068" data-name="Path 20068" d="M110.5,54.578V53.332" fill="none" stroke="#333" stroke-linecap="round" stroke-linejoin="round" stroke-width="2.022"/>
      <path id="Path_20069" data-name="Path 20069" d="M105.679,101.2c.289,2.874-1.212,7.136-1.733,9.947-.813,4.386-2.251,8.54-2.268,12.041s.745,5.27,2.693,6.646,2.7,2.327,2.571,4.823a30.145,30.145,0,0,1-3.007,10.321c-.893,1.943-2.572,4.058-.618,5.714,2.333,1.977,5.209.24,6.092,4.345.525,2.442-.31,5.636-.955,7.932" fill="none" stroke="#333" stroke-linecap="round" stroke-linejoin="round" stroke-width="2.022"/>
      <path id="Path_20070" data-name="Path 20070" d="M116.477,118.353c3.7,0,6.905-.34,10.466.18" fill="none" stroke="#333" stroke-linecap="round" stroke-linejoin="round" stroke-width="2.022"/>
      <line id="Line_309" data-name="Line 309" x1="0.249" y2="5.235" transform="translate(124.035 116.398)" fill="none" stroke="#333" stroke-linecap="round" stroke-linejoin="round" stroke-width="2.022"/>
      <path id="Path_20071" data-name="Path 20071" d="M121.293,115.9c0,2.3.476,5.079-.25,7.229" fill="none" stroke="#333" stroke-linecap="round" stroke-linejoin="round" stroke-width="2.022"/>
      <line id="Line_310" data-name="Line 310" y1="0.499" x2="0.997" transform="translate(105.26 120.069)" fill="none" stroke="#333" stroke-linecap="round" stroke-linejoin="round" stroke-width="2.022"/>
      <line id="Line_311" data-name="Line 311" y1="0.216" x2="0.873" transform="translate(109.973 137.038)" fill="none" stroke="#333" stroke-linecap="round" stroke-linejoin="round" stroke-width="2.022"/>
      <path id="Path_20072" data-name="Path 20072" d="M113.36,156.166l-.746.052" fill="none" stroke="#333" stroke-linecap="round" stroke-linejoin="round" stroke-width="2.022"/>
      <g id="Group_11488" data-name="Group 11488">
        <path id="Path_20073" data-name="Path 20073" d="M91.317,68.186a18.364,18.364,0,0,0,1.438,3.72.778.778,0,0,0,1.194.144c.173-1.745.305-3.724.305-3.724A11.5,11.5,0,0,1,91.317,68.186Z" fill="#333"/>
        <path id="Path_20074" data-name="Path 20074" d="M112.154,40.205l-6.394-.689a19.192,19.192,0,0,0-5.685-.147c-2.554.487-6.192,2.5-6.487,5.4a2.346,2.346,0,0,0,.361,1.627,1.986,1.986,0,0,0,.137.172c-3.163,2.091-3.322,7.06-3.52,10.578q-.069,1.215-.1,2.438A5.876,5.876,0,0,1,93.351,58.3a27.594,27.594,0,0,0,1.505,2.891.753.753,0,0,0,1.393-.378A10.463,10.463,0,0,1,97.5,55.6a27.856,27.856,0,0,0,2.127-3.774,4.5,4.5,0,0,0-.573-4.251,8.791,8.791,0,0,0,3.933-2.7c1.382-1.554,2.609-2.546,4.774-2.537,1.671.006,3.288.183,4.773-.736A.755.755,0,0,0,112.154,40.205Z" fill="#333"/>
      </g>
      <line id="Line_312" data-name="Line 312" y1="3.697" transform="translate(160.349 103.436)" fill="none" stroke="#333" stroke-linecap="round" stroke-linejoin="round" stroke-width="2.022"/>
      <path id="Path_20075" data-name="Path 20075" d="M41.446,78.259a2.587,2.587,0,0,0-2.244,1" fill="none" stroke="#333" stroke-linecap="round" stroke-linejoin="round" stroke-width="2.022"/>
      <g id="Group_11489" data-name="Group 11489">
        <path id="Path_20076" data-name="Path 20076" d="M57.206,20.753c-.013-.186-.025-.388-.039-.6-.2-3.206-.539-8.571-3.7-9.937-4.768-2.063-8.633,4.1-9.7,6.039a50.468,50.468,0,0,0-2.661,6.132c-2.112,5.481-4.295,11.149-9.127,11.981-3.659.629-4.884-1.757-6.583-5.7-1.267-2.944-2.577-5.989-5.722-6.785C15.543,20.832,9.4,22.788,3.618,38.058a1.013,1.013,0,0,0-.06.466L6.3,64.069a1.012,1.012,0,0,0,1.006.9,1.025,1.025,0,0,0,.182-.016l50.856-9.313a1.011,1.011,0,0,0,.827-1.051C59.158,54.315,57.626,26.834,57.206,20.753Z" fill="#9ed5f0"/>
        <path id="Path_20077" data-name="Path 20077" d="M67.064,54.013S44.8,57.085,39.969,57.87c-7.952,1.293-32.662,6.091-32.662,6.091s-4.329-40.442-5.385-49.8c-.3-2.622-.786-9.014-.786-9.014" fill="none" stroke="#333" stroke-linecap="round" stroke-linejoin="round" stroke-width="2.022"/>
        <path id="Path_20078" data-name="Path 20078" d="M-1.939,8.726C-.958,7.471,1.136,5.15,1.136,5.15L5,7.541" fill="none" stroke="#333" stroke-linecap="round" stroke-linejoin="round" stroke-width="2.022"/>
        <path id="Path_20079" data-name="Path 20079" d="M65.048,51.409c.934.787,1.918,1.422,2.891,2.173a22.586,22.586,0,0,0-1.821,3.654" fill="none" stroke="#333" stroke-linecap="round" stroke-linejoin="round" stroke-width="2.022"/>
        <line id="Line_313" data-name="Line 313" x1="1.62" transform="translate(-2.306 20.258)" fill="none" stroke="#333" stroke-linecap="round" stroke-linejoin="round" stroke-width="2.022"/>
        <line id="Line_314" data-name="Line 314" x1="1.62" transform="translate(0.721 46.959)" fill="none" stroke="#333" stroke-linecap="round" stroke-linejoin="round" stroke-width="2.022"/>
        <line id="Line_315" data-name="Line 315" x1="1.62" transform="translate(-0.686 32.447)" fill="none" stroke="#333" stroke-linecap="round" stroke-linejoin="round" stroke-width="2.022"/>
        <line id="Line_316" data-name="Line 316" x1="1.62" transform="translate(1.82 58.917)" fill="none" stroke="#333" stroke-linecap="round" stroke-linejoin="round" stroke-width="2.022"/>
      </g>
    </g>
  </g>
</svg>
