<svg xmlns="http://www.w3.org/2000/svg" width="18.232" height="19.889" viewBox="0 0 18.232 19.889">
  <g id="Group_11622" data-name="Group 11622" transform="translate(-739 -479.49)">
    <path id="Path_20825" data-name="Path 20825" d="M20.179,11.205a1.666,1.666,0,0,1-.854,1.45l-4.309,2.395L11.37,11.205,15.016,7.36l4.309,2.4a1.666,1.666,0,0,1,.854,1.45" transform="translate(737.052 478.229)" fill="#ffc107"/>
    <path id="Path_20826" data-name="Path 20826" d="M9.423,10.049.472,19.488A1.615,1.615,0,0,1,0,18.336V1.762A1.615,1.615,0,0,1,.472.61Z" transform="translate(739 479.386)" fill="#03a9f4"/>
    <path id="Path_20827" data-name="Path 20827" d="M9.52,12l3.646,3.845L2.559,21.737a1.657,1.657,0,0,1-.8.207A1.626,1.626,0,0,1,.57,21.439Z" transform="translate(738.902 477.435)" fill="#f44336"/>
    <path id="Path_20828" data-name="Path 20828" d="M13.167,6.1,9.52,9.945.57.506A1.626,1.626,0,0,1,1.755,0a1.657,1.657,0,0,1,.8.207Z" transform="translate(738.902 479.49)" fill="#4caf50"/>
  </g>
</svg>
