<svg xmlns="http://www.w3.org/2000/svg" width="50.354" height="48" viewBox="0 0 50.354 48">
  <g id="Interactive_map" data-name="Interactive map" transform="translate(-5.117 -9)">
    <g id="Group_11391" data-name="Group 11391" transform="translate(5.117 9)">
      <path id="Path_19277" data-name="Path 19277" d="M32.148,961.362a10.94,10.94,0,0,0-11.1,10.976,15.478,15.478,0,0,0,.878,4.793q4.836,10.088,9.713,20.177a.618.618,0,0,0,1.061,0c3.194-6.745,6.549-13.424,9.713-20.177a15.4,15.4,0,0,0,.878-4.793A10.905,10.905,0,0,0,32.148,961.362Zm0,1.171a9.757,9.757,0,0,1,9.97,9.8,15.247,15.247,0,0,1-.787,4.335c-3.18,6.632-6.431,13.368-9.165,19.043-3.012-6.367-6.18-12.664-9.165-19.043a15.32,15.32,0,0,1-.787-4.335A9.726,9.726,0,0,1,32.148,962.533Zm.018,4.1a5.854,5.854,0,1,0,5.854,5.854A5.863,5.863,0,0,0,32.166,966.63Zm0,1.171a4.683,4.683,0,1,1-4.683,4.683A4.674,4.674,0,0,1,32.166,967.8ZM11.093,984.777a.555.555,0,0,0-.585.494L7,1008.685a.612.612,0,0,0,.585.677H56.752a.611.611,0,0,0,.585-.677l-3.512-23.415a.606.606,0,0,0-.585-.494H40.709l-.567,1.171H52.727l.878,5.854H37.4l-.6,1.024,12.293,15.366H30.1l-7.793-9.75,5.634-4.756c-.18-.373-.369-.742-.549-1.116l-5.835,4.939-9.238-11.561h11.89c-.188-.391-.379-.78-.567-1.171Zm.384,2.012,17.122,21.4H8.258Zm26.945,6.183H53.788L54.849,1000H44.038Zm6.549,8.2H55.014l1.061,7.024H50.587Z" transform="translate(-6.99 -961.362)"/>
    </g>
  </g>
</svg>
