<svg id="Intelligent_Maps" data-name="Intelligent Maps" xmlns="http://www.w3.org/2000/svg" width="38.499" height="48.815" viewBox="0 0 38.499 48.815">
  <path id="Path_19340" data-name="Path 19340" d="M55.791,959.36c-6.73,0-11.974,4.926-11.8,10.85h0c.121,4.135,2.252,8.636,4.682,12.76s5.187,7.88,6.606,10.339a.588.588,0,0,0,1.019,0c1.39-2.408,4.109-6.212,6.517-10.362s4.534-8.651,4.695-12.654C67.75,964.367,62.525,959.36,55.791,959.36Zm0,1.176c6.156,0,10.756,4.5,10.546,9.71-.145,3.614-2.166,8.024-4.537,12.111-2.118,3.651-4.492,7.038-6.01,9.514-1.55-2.513-3.962-5.866-6.1-9.5-2.391-4.057-4.411-8.449-4.52-12.2h0C45.014,964.964,49.63,960.536,55.791,960.536Z" transform="translate(-29.021 -959.36)" fill-rule="evenodd"/>
  <path id="Path_19341" data-name="Path 19341" d="M60.792,970.458a.588.588,0,0,0-.57.606v3.547H56.676a.588.588,0,1,0,0,1.176h3.547v3.547a.588.588,0,0,0,1.176,0v-3.547h3.528a.588.588,0,1,0,0-1.176H61.4v-3.547a.588.588,0,0,0-.606-.606Z" transform="translate(-33.664 -963.932)" fill-rule="evenodd"/>
  <path id="Path_19342" data-name="Path 19342" d="M19.7,983.114a3.8,3.8,0,0,0-3.7,3.859v28.868a3.808,3.808,0,0,0,3.7,3.877H47.349a3.82,3.82,0,0,0,3.719-3.877V997.594a.565.565,0,1,0-1.128,0v18.247a2.656,2.656,0,0,1-2.591,2.7H38.66l-15.193-15.877,9.518-9.923a.626.626,0,0,0-.405-1.011.56.56,0,0,0-.388.184q-7.543,7.881-15.07,15.73V986.973A2.634,2.634,0,0,1,19.7,984.29h9.324a.588.588,0,0,0,0-1.176Zm2.979,20.4,14.4,15.031H19.7a2.646,2.646,0,0,1-2.573-2.7V1009.3Z" transform="translate(-15.994 -970.903)" fill-rule="evenodd"/>
</svg>
