<svg xmlns="http://www.w3.org/2000/svg" width="197.864" height="171.279" viewBox="0 0 197.864 171.279">
  <g id="Investment" transform="translate(-299.265 -139.267)">
    <g id="BG">
      <path id="Path_20003" data-name="Path 20003" d="M469.3,242.108l-.425.274c-.724,1.954-.83,7.006-.83,7.006l-.081.353c.37.036.71.077,1.011.121.19,3.5.643,11.909.643,11.909l.124.689a7.7,7.7,0,0,1,4.078,4.234,13.758,13.758,0,0,1,1.13,5.221,48.508,48.508,0,0,0,7.82-13.047c2.359-6.166,2.995-14.283,2.519-23.05C480.633,238.155,473.958,240.16,469.3,242.108Z" fill="#f4f6f9"/>
      <path id="Path_20004" data-name="Path 20004" d="M310.021,263.745c1.837-1.726,3.771-3.372,5.8-4.963,5.971-4.688,13.9-9.169,19.548-14.037,3.278-2.824,3.363-8.531,5.148-12.431.193.088.395.168.59.253l.016-.381c0-6.241.328-15.892.641-23.655a1.117,1.117,0,0,1-1.73-.659c-.949-3.561-1.9-7.174-2.6-10.82-5.335.215-11.815-1.772-9.435-7.724,1.28-3.2,4.7-4.485,8.325-5.043h0a36.421,36.421,0,0,1,.61-5.21c.814-4.217,2.489-8.639,5.428-11.849,2.417-2.639,6-4.106,9.4-3.063a10.8,10.8,0,0,1,4.776-4.719,11.264,11.264,0,0,1,7.1-.384c6,1.466,10.545,6.959,16.938,7.038a1.207,1.207,0,0,1,1.033,1.8,4.268,4.268,0,0,1-2.586,1.781q.8.411,1.587.825a112.675,112.675,0,0,1,13.243,8.618c3.128,2.249,9.36,7.43,9.36,7.43a121.517,121.517,0,0,0-13.67,2.967c-4.049,1.256-8.376,2.624-8.376,2.624s.6,15.561.6,22.4v20.376c.755-.2,1.171-.255,1.2-.047.574,5.127-1.418,8.781,3.088,12.825,4.38,3.932,10.02,7.471,15.072,10.784,5.824,3.819,13.46,10.359,17.3,16.2.708,1.077,3.036,3.712,5.074,6.749.086-.08.17-.162.259-.237,1.712-1.453,8.069-2.906,12.117-2.149.165-.543.341-1.046.478-1.463,1.417-4.321,3.8-10.422,7.2-13.523a7.88,7.88,0,0,1,2.166-1.355v-.355s.633-8.241.941-11.892c.313-.059.617-.111.921-.162.068-2.01.274-9.069-.116-10.741-.75-3.213-3.161-3.994-6.129-5.578s-5.43-3.432-6.67-6.049c-1.387-2.929,1.806-5.081,4.646-3.926,2.742,1.115,5.623,2.791,8.5,3.9a35.817,35.817,0,0,0,10.956,1.711,54.909,54.909,0,0,0,8.814-.527c3.241-1.3,10.363-6.706,15.883-8.925a184.378,184.378,0,0,0-7.906-30.183c-6.982-19.346-13.358-25.314-26.545-36.945s-37.668-14.4-51.892-13.654-29.042.722-45.717,10.732c-16.154,9.7-32.777,21.3-40.3,37.092-7.415,15.576-7.206,32.8-6.132,49.265C305.563,245.572,306.762,254.985,310.021,263.745Z" fill="#f4f6f9"/>
    </g>
    <g id="Character">
      <path id="Path_20005" data-name="Path 20005" d="M300.676,274.685a68.317,68.317,0,0,1,15.141-15.9c5.971-4.688,13.9-9.169,19.548-14.037,3.278-2.824,3.363-8.531,5.148-12.431,7.716,3.514,18.19,4.978,27.229,4.978s15.123-3.232,15.215-2.417c.574,5.127-1.418,8.781,3.088,12.825,4.38,3.932,10.02,7.471,15.072,10.784,5.824,3.819,13.46,10.359,17.3,16.2,1.713,2.605,12.885,14.307,6.575,18.794-2.428,1.726-3.932-1.3-4.339-3.29a9.747,9.747,0,0,1,3.1-8.992c2.59-2.2,15.82-4.4,15.585,1.062-.078,1.824-2.208,2.862-3.353,1.45-1.3-1.605-.168-4.506.363-6.124,1.417-4.321,3.8-10.422,7.2-13.523,3.179-2.9,10.4-3.049,14.752-2.822,5.647.292,12.821-.93,15.523,5.454,2.251,5.318.954,10.508-2.229,12.231,6.687,0,7.683,11.432,7.683,30.6" fill="none" stroke="#333" stroke-linecap="round" stroke-linejoin="round" stroke-width="2.036"/>
      <path id="Path_20006" data-name="Path 20006" d="M339.326,242.346c1.644,3.643,7.338,10.712,11.611,11.349,3.483.519,10.8-5.671,15.958-12.753a51.228,51.228,0,0,0,5.886,11.416c2.988,4.525,7.971-2.676,9.231-6.127-.151.494-.365.991-.55,1.494" fill="none" stroke="#333" stroke-linecap="round" stroke-linejoin="round" stroke-width="2.036"/>
      <path id="Path_20007" data-name="Path 20007" d="M365.923,248.024c-1.494,9.961-7.416,13.451-9.506,21.247-.851,3.173-1.961,7.686,1.99,8.948,2.829.9,11.4-4.058,7.807-5.086-4.635,0-8.487,8.028-9.128,11.642-.658,3.713.285,7.722,1.366,11.322" fill="none" stroke="#333" stroke-linecap="round" stroke-linejoin="round" stroke-width="2.036"/>
      <path id="Path_20008" data-name="Path 20008" d="M382,278.925s15-.463,19.656-1.723" fill="none" stroke="#333" stroke-linecap="round" stroke-linejoin="round" stroke-width="2.036"/>
      <path id="Path_20009" data-name="Path 20009" d="M397.456,274.266c1.671,2.8,2.033,10.014,2.033,10.014" fill="none" stroke="#333" stroke-linecap="round" stroke-linejoin="round" stroke-width="2.036"/>
      <path id="Path_20010" data-name="Path 20010" d="M393.263,274.161c2.467,5.033,2.936,16.2,2.936,16.2" fill="none" stroke="#333" stroke-linecap="round" stroke-linejoin="round" stroke-width="2.036"/>
      <path id="Path_20011" data-name="Path 20011" d="M341.119,232.186c0-11.89,1.2-36.16,1.2-36.16-4.332,2.163-17.567,1.42-14.321-6.7,2.3-5.753,11.523-5.315,16.368-5.6-.05-7.295,3.034-15.971,10.424-18.482,8.707-2.959,18.025,1.143,25.821,5.255a112.675,112.675,0,0,1,13.243,8.618c3.128,2.249,9.36,7.43,9.36,7.43a121.517,121.517,0,0,0-13.67,2.967c-4.049,1.256-8.376,2.624-8.376,2.624s.6,15.561.6,22.4v19.732" fill="none" stroke="#333" stroke-linecap="round" stroke-linejoin="round" stroke-width="2.036"/>
      <line id="Line_304" data-name="Line 304" x2="0.27" y2="2.961" transform="translate(365.65 178.482)" fill="none" stroke="#333" stroke-linecap="round" stroke-linejoin="round" stroke-width="2.036"/>
      <line id="Line_305" data-name="Line 305" x2="0.27" y2="2.961" transform="translate(372.362 178.095)" fill="none" stroke="#333" stroke-linecap="round" stroke-linejoin="round" stroke-width="2.036"/>
      <path id="Path_20012" data-name="Path 20012" d="M333.947,190.348a7.1,7.1,0,0,1,4.781,1.2" fill="none" stroke="#333" stroke-linecap="round" stroke-linejoin="round" stroke-width="2.036"/>
      <path id="Path_20013" data-name="Path 20013" d="M366.215,193.979a5.787,5.787,0,0,0,4.483,1.793" fill="none" stroke="#333" stroke-linecap="round" stroke-linejoin="round" stroke-width="2.036"/>
      <path id="Path_20014" data-name="Path 20014" d="M447.556,250.256s.359-8.745-.1-10.7c-.75-3.213-3.161-3.994-6.129-5.578s-5.43-3.432-6.67-6.049c-1.387-2.929,1.806-5.081,4.646-3.926,2.742,1.115,5.623,2.791,8.5,3.9a35.817,35.817,0,0,0,10.956,1.711c9.378.071,13.893-1.219,22.364-4.914a90.579,90.579,0,0,1,9.37-3.47c4.626-1.368,7.813.8,3.5,4.926" fill="none" stroke="#333" stroke-linecap="round" stroke-linejoin="round" stroke-width="2.036"/>
      <path id="Path_20015" data-name="Path 20015" d="M468.047,249.388s-.185-4.762.54-6.715" fill="none" stroke="#333" stroke-linecap="round" stroke-linejoin="round" stroke-width="2.036"/>
      <path id="Path_20016" data-name="Path 20016" d="M467.03,243.143c5.05-2.567,14.916-5.148,20.183-8.384,1.067-.655,5.275-3.386,3.439-5.011-1.039-.919-3.688.891-6.487,1.976s-5.665,2.218-5.665,2.218" fill="none" stroke="#333" stroke-linecap="round" stroke-linejoin="round" stroke-width="2.036"/>
      <path id="Path_20017" data-name="Path 20017" d="M478.28,230.094c4.115-1.16,6.777-2.836,10.864-4.283,1.615-.572,4.122-1.073,4.987.8s-1.083,3.378-3.028,4.183" fill="none" stroke="#333" stroke-linecap="round" stroke-linejoin="round" stroke-width="2.036"/>
      <path id="Path_20018" data-name="Path 20018" d="M467.574,229.086c5.2-2.08,20.375-14.731,22.921-7.857" fill="none" stroke="#333" stroke-linecap="round" stroke-linejoin="round" stroke-width="2.036"/>
      <path id="Path_20019" data-name="Path 20019" d="M445.713,262.352s.633-8.241.941-11.892a63.478,63.478,0,0,1,9.2-.942,94.79,94.79,0,0,1,13.123.344c.19,3.5.643,11.909.643,11.909" fill="none" stroke="#333" stroke-linecap="round" stroke-linejoin="round" stroke-width="2.036"/>
      <g id="Group_11485" data-name="Group 11485">
        <path id="Path_20020" data-name="Path 20020" d="M340.03,207.872a1.117,1.117,0,0,0,1.73.659c.284-7.026.554-12.505.554-12.505a12.8,12.8,0,0,1-4.886,1.026C338.134,200.7,339.081,204.311,340.03,207.872Z" fill="#333"/>
        <path id="Path_20021" data-name="Path 20021" d="M380.572,166.1c-6.393-.079-10.94-5.572-16.938-7.038a11.264,11.264,0,0,0-7.1.384,10.8,10.8,0,0,0-4.776,4.719c-3.4-1.043-6.985.424-9.4,3.063-2.94,3.21-4.614,7.632-5.428,11.849a36.568,36.568,0,0,0-.611,5.21,48.439,48.439,0,0,1,5.48-.448,16.812,16.812,0,0,0,2.523,8.121c.51.757,2.012.814,2.185-.286a39.834,39.834,0,0,1,4.947-13.752c1.673-2.92,3.23-6.041,3.031-9.294a25.659,25.659,0,0,0,11.96,2.634,51.028,51.028,0,0,0,8.414-.858c2.152-.372,5.5-.394,6.75-2.506A1.207,1.207,0,0,0,380.572,166.1Z" fill="#333"/>
      </g>
      <path id="Path_20022" data-name="Path 20022" d="M343.809,196.923" fill="none" stroke="#333" stroke-linecap="round" stroke-linejoin="round" stroke-width="2.036"/>
      <path id="Path_20023" data-name="Path 20023" d="M456.471,239.159a1.115,1.115,0,0,1,.9.2" fill="none" stroke="#333" stroke-linecap="round" stroke-linejoin="round" stroke-width="2.036"/>
    </g>
    <g id="Icon">
      <path id="Path_20024" data-name="Path 20024" d="M459.943,176.651c-5.557-.228-10.764.949-14.268,4.756-3.437,3.735-4.492,6.782-5.687,11.864-.82,3.488-.015,6.658.8,10.068.918,3.844,3.594,6.487,7.2,9.034s10.337,3.488,13.264,3.372a30.821,30.821,0,0,0,9.16-1.309c2.383-.795,6.125-3.079,7.531-5.152a21.607,21.607,0,0,0,3.27-15.854,22.06,22.06,0,0,0-7.333-12.981C470.983,178.051,465.5,176.879,459.943,176.651Z" fill="#ffe945" stroke="#ffe945" stroke-linecap="round" stroke-linejoin="round" stroke-width="2.036"/>
      <g id="Group_11486" data-name="Group 11486">
        <path id="Path_20025" data-name="Path 20025" d="M456.146,176.736c2.774-.112,7.3.8,9.215,1.955a22.526,22.526,0,0,1,6.558,5.734,22.134,22.134,0,0,1,3.557,9.087,23.8,23.8,0,0,1-2.708,12.583,25.929,25.929,0,0,1-6.521,6.761,14.1,14.1,0,0,1-9.005,2.621" fill="none" stroke="#333" stroke-linecap="round" stroke-linejoin="round" stroke-width="2.036"/>
        <path id="Path_20026" data-name="Path 20026" d="M450.6,193.232c1.109-.578,2.22-1.186,3.274-1.848-.051,3.246-.5,6.5-.5,9.775" fill="none" stroke="#333" stroke-linecap="round" stroke-linejoin="round" stroke-width="2.036"/>
        <path id="Path_20027" data-name="Path 20027" d="M450.6,200.96c.794.566,2.624.469,3.588.573a10.853,10.853,0,0,0,2.06.22" fill="none" stroke="#333" stroke-linecap="round" stroke-linejoin="round" stroke-width="2.036"/>
        <path id="Path_20028" data-name="Path 20028" d="M463.478,191.25a2.165,2.165,0,0,0-3.567,1.684c-.083,1.781,1.926,3.722,3.468,1.982" fill="none" stroke="#333" stroke-linecap="round" stroke-linejoin="round" stroke-width="2.036"/>
        <path id="Path_20029" data-name="Path 20029" d="M459.415,199.276a23.313,23.313,0,0,1,4.36.3" fill="none" stroke="#333" stroke-linecap="round" stroke-linejoin="round" stroke-width="2.036"/>
        <path id="Path_20030" data-name="Path 20030" d="M444.156,198.285a12.138,12.138,0,0,1,1.98-9.98c1.063-1.6,2.607-3.577,4.382-4.387a13.563,13.563,0,0,1,4.835-.991" fill="none" stroke="#333" stroke-linecap="round" stroke-linejoin="round" stroke-width="2.036"/>
        <path id="Path_20031" data-name="Path 20031" d="M461.4,183.026a9.912,9.912,0,0,1,5.248,2.177,11.7,11.7,0,0,1,3.646,5.971,16.8,16.8,0,0,1-2.246,14.039,11.385,11.385,0,0,1-4.27,3.476" fill="none" stroke="#333" stroke-linecap="round" stroke-linejoin="round" stroke-width="2.036"/>
        <path id="Path_20032" data-name="Path 20032" d="M458.533,209.884a7.7,7.7,0,0,1-3.49-.308" fill="none" stroke="#333" stroke-linecap="round" stroke-linejoin="round" stroke-width="2.036"/>
        <path id="Path_20033" data-name="Path 20033" d="M450.343,207.532a9.478,9.478,0,0,1-4.5-5.184" fill="none" stroke="#333" stroke-linecap="round" stroke-linejoin="round" stroke-width="2.036"/>
        <path id="Path_20034" data-name="Path 20034" d="M468.036,180.053c1.8,0,3.561.1,5.351.1" fill="none" stroke="#333" stroke-linecap="round" stroke-linejoin="round" stroke-width="2.036"/>
        <path id="Path_20035" data-name="Path 20035" d="M475.17,189.863a10.6,10.6,0,0,0,4.955,0" fill="none" stroke="#333" stroke-linecap="round" stroke-linejoin="round" stroke-width="2.036"/>
        <path id="Path_20036" data-name="Path 20036" d="M475.467,199.474c1.857,0,3.774-.078,5.549,0" fill="none" stroke="#333" stroke-linecap="round" stroke-linejoin="round" stroke-width="2.036"/>
        <path id="Path_20037" data-name="Path 20037" d="M471.61,208.379a16.565,16.565,0,0,0,4.161.2,9.009,9.009,0,0,1,2.576.1" fill="none" stroke="#333" stroke-linecap="round" stroke-linejoin="round" stroke-width="2.036"/>
        <path id="Path_20038" data-name="Path 20038" d="M467.937,211.86c2.124,0,4.273.135,6.341.2" fill="none" stroke="#333" stroke-linecap="round" stroke-linejoin="round" stroke-width="2.036"/>
      </g>
    </g>
  </g>
</svg>
