<svg xmlns="http://www.w3.org/2000/svg" width="45.999" height="46" viewBox="0 0 45.999 46">
  <g id="Location_intelligence_app" data-name="Location intelligence app" transform="translate(-3.5 -3.5)">
    <path id="Path_19416" data-name="Path 19416" d="M33.159,13.67a5.519,5.519,0,1,0-5.519,5.519A5.525,5.525,0,0,0,33.159,13.67Zm-10.1,0a4.58,4.58,0,1,1,4.58,4.58A4.585,4.585,0,0,1,23.06,13.67Z" transform="translate(-1.14 -0.285)"/>
    <path id="Path_19417" data-name="Path 19417" d="M3.64,49.364a.47.47,0,0,0,.329.135.481.481,0,0,0,.147-.023l11.715-3.845,10.5,3.841a.479.479,0,0,0,.161.028.468.468,0,0,0,.161-.028l10.511-3.84,11.714,3.844a.481.481,0,0,0,.147.023.469.469,0,0,0,.448-.608L42.462,26.264a.47.47,0,0,0-.342-.318l-8.048-1.878c-.006,0-.012,0-.019,0a1.669,1.669,0,0,0-.223.012l-1.565.394c2.149-3.791,4.12-8.087,4.12-11.088a9.886,9.886,0,0,0-19.773,0c0,3,1.972,7.3,4.121,11.09l-1.57-.4a.456.456,0,0,0-.122-.008.468.468,0,0,0-.095,0c-.007,0-.014,0-.021,0l-8.048,1.878a.47.47,0,0,0-.342.318L3.521,48.89A.468.468,0,0,0,3.64,49.364Zm38-22.565,6.667,21.5L37.58,44.778l-.077-.5L34.539,25.141ZM33.581,25.11l3.056,19.715-9.671,3.534V32.694c.469-.643,2.552-3.542,4.644-7.087ZM17.552,13.385a8.948,8.948,0,0,1,17.9,0c0,3.039-2.256,7.654-4.549,11.56a.465.465,0,0,0-.027.047c-1.794,3.052-3.606,5.664-4.371,6.741C24.752,29.275,17.552,18.817,17.552,13.385Zm1.867,11.725,1.973.5c2.083,3.53,4.157,6.419,4.636,7.075V48.359l-9.664-3.533ZM11.354,26.8l7.109-1.659L15.419,44.778,4.687,48.3Z" transform="translate(0 0)"/>
  </g>
</svg>
