<svg xmlns="http://www.w3.org/2000/svg" width="168.791" height="159.177" viewBox="0 0 168.791 159.177">
  <g id="Group_11781" data-name="Group 11781" transform="translate(-33.331 1.103)">
    <g id="Group_11733" data-name="Group 11733">
      <g id="Group_11731" data-name="Group 11731">
        <path id="Path_21103" data-name="Path 21103" d="M113.535,102.575l-1.851-.9a.85.85,0,0,1-.484-.777q.009-.523-.025-1.039a.852.852,0,0,1,.443-.8l1.8-1a.857.857,0,0,0,.409-.995l-.469-1.569a.868.868,0,0,0-.889-.614l-2.061.136a.87.87,0,0,1-.813-.437q-.252-.449-.541-.875a.851.851,0,0,1-.023-.916l1.058-1.759a.854.854,0,0,0-.148-1.064l-1.2-1.126a.873.873,0,0,0-1.08-.091l-1.713,1.136a.871.871,0,0,1-.923.025q-.444-.261-.914-.489a.855.855,0,0,1-.483-.782l.029-2.045a.863.863,0,0,0-.665-.848l-1.606-.382a.87.87,0,0,0-.981.457l-.912,1.834a.864.864,0,0,1-.785.48q-.528-.009-1.048.025a.861.861,0,0,1-.806-.439L95.85,85.94a.871.871,0,0,0-1-.4L93.262,86a.862.862,0,0,0-.62.882l.136,2.042a.852.852,0,0,1-.436.8q-.458.254-.892.542a.867.867,0,0,1-.921.02l-1.774-1.047a.872.872,0,0,0-1.073.147l-1.138,1.187a.855.855,0,0,0-.092,1.07l1.146,1.7a.853.853,0,0,1,.025.916q-.264.439-.494.9a.865.865,0,0,1-.79.479l-2.063-.028a.869.869,0,0,0-.856.66l-.386,1.591a.856.856,0,0,0,.46.972l1.851.9a.854.854,0,0,1,.484.778c-.006.348,0,.695.025,1.039a.853.853,0,0,1-.443.8l-1.8,1a.858.858,0,0,0-.409,1l.469,1.57a.866.866,0,0,0,.889.613l2.061-.135a.863.863,0,0,1,.811.432c.169.3.352.6.546.884a.848.848,0,0,1,.02.912l-1.058,1.758a.854.854,0,0,0,.148,1.064l1.2,1.127a.874.874,0,0,0,1.08.091l1.713-1.136A.871.871,0,0,1,92,111.5q.444.263.914.489a.857.857,0,0,1,.483.783l-.029,2.045a.863.863,0,0,0,.665.848l1.606.382a.87.87,0,0,0,.981-.457l.912-1.834a.862.862,0,0,1,.785-.48q.528.009,1.048-.025a.861.861,0,0,1,.806.439l1,1.782a.871.871,0,0,0,1,.4l1.584-.465a.863.863,0,0,0,.62-.882l-.136-2.042a.856.856,0,0,1,.441-.806q.451-.25.883-.536a.871.871,0,0,1,.924-.024l1.775,1.048a.872.872,0,0,0,1.073-.147l1.138-1.187a.855.855,0,0,0,.092-1.07l-1.146-1.7a.851.851,0,0,1-.025-.915q.264-.439.494-.9a.867.867,0,0,1,.79-.48l2.063.028a.867.867,0,0,0,.856-.659l.386-1.591A.858.858,0,0,0,113.535,102.575Zm-14.869,5.158a7.028,7.028,0,1,1,6.938-7.179A7.059,7.059,0,0,1,98.666,107.733Z"/>
        <path id="Path_21104" data-name="Path 21104" d="M95.848,116.276a1.106,1.106,0,0,1-.253-.03l-1.606-.382a1.059,1.059,0,0,1-.821-1.048l.03-2.045a.657.657,0,0,0-.37-.6c-.317-.154-.629-.321-.928-.5a.67.67,0,0,0-.708.02l-1.713,1.136a1.072,1.072,0,0,1-1.331-.112l-1.2-1.127a1.051,1.051,0,0,1-.182-1.316l1.057-1.758a.647.647,0,0,0-.014-.694c-.2-.292-.384-.594-.555-.9a.666.666,0,0,0-.621-.328l-2.061.135a1.063,1.063,0,0,1-1.1-.758l-.469-1.57a1.054,1.054,0,0,1,.5-1.23l1.8-1a.656.656,0,0,0,.339-.609c-.023-.348-.032-.7-.026-1.056a.652.652,0,0,0-.37-.592l-1.85-.9a1.055,1.055,0,0,1-.569-1.2l.386-1.591a1.065,1.065,0,0,1,1.056-.814l2.063.028a.655.655,0,0,0,.606-.367c.154-.314.323-.623.5-.92a.651.651,0,0,0-.019-.7l-1.146-1.7a1.051,1.051,0,0,1,.114-1.324l1.137-1.188a1.072,1.072,0,0,1,1.324-.181l1.773,1.048a.668.668,0,0,0,.7-.015c.293-.194.6-.38.907-.55a.653.653,0,0,0,.332-.613l-.136-2.042a1.057,1.057,0,0,1,.765-1.089l1.584-.465a1.066,1.066,0,0,1,1.237.5l1,1.781a.661.661,0,0,0,.616.337c.352-.023.709-.032,1.066-.026a.662.662,0,0,0,.6-.368l.912-1.834a1.067,1.067,0,0,1,1.21-.563l1.606.382a1.058,1.058,0,0,1,.821,1.048l-.03,2.045a.658.658,0,0,0,.37.6c.318.154.63.321.928.5a.672.672,0,0,0,.708-.02l1.713-1.136a1.072,1.072,0,0,1,1.331.112l1.2,1.127a1.051,1.051,0,0,1,.182,1.316L109.2,92.894a.652.652,0,0,0,.017.7c.194.287.379.587.549.89a.665.665,0,0,0,.624.333l2.061-.135a1.066,1.066,0,0,1,1.1.758l.469,1.569a1.055,1.055,0,0,1-.5,1.231l-1.8,1a.653.653,0,0,0-.339.608c.023.346.032.7.026,1.056a.651.651,0,0,0,.37.592l1.85.9h0a1.054,1.054,0,0,1,.569,1.2l-.386,1.592a1.058,1.058,0,0,1-1.056.814l-2.063-.028a.662.662,0,0,0-.606.367c-.154.313-.323.623-.5.92a.651.651,0,0,0,.019.7l1.146,1.7a1.051,1.051,0,0,1-.114,1.324l-1.137,1.187a1.071,1.071,0,0,1-1.324.182L106.4,111.3a.671.671,0,0,0-.709.017c-.29.193-.592.376-.9.545a.655.655,0,0,0-.337.615l.136,2.043a1.057,1.057,0,0,1-.765,1.089l-1.584.465a1.068,1.068,0,0,1-1.237-.5l-1-1.782a.66.66,0,0,0-.616-.336c-.351.023-.709.032-1.065.026a.675.675,0,0,0-.6.367l-.912,1.835A1.067,1.067,0,0,1,95.848,116.276Zm-4.285-5.1a1.06,1.06,0,0,1,.543.147c.289.17.592.332.9.481a1.063,1.063,0,0,1,.6.968l-.029,2.045a.656.656,0,0,0,.509.648l1.606.382a.667.667,0,0,0,.753-.35l.911-1.834a1.07,1.07,0,0,1,.971-.593c.344.006.692,0,1.031-.025a1.073,1.073,0,0,1,1,.542l1.005,1.782a.664.664,0,0,0,.77.31l1.584-.465a.653.653,0,0,0,.474-.673l-.135-2.043a1.059,1.059,0,0,1,.545-1c.3-.164.588-.342.869-.528a1.08,1.08,0,0,1,1.14-.029L108.377,112a.666.666,0,0,0,.824-.112l1.137-1.187a.649.649,0,0,0,.071-.817l-1.146-1.7a1.058,1.058,0,0,1-.031-1.133c.173-.287.336-.587.486-.891a1.074,1.074,0,0,1,.96-.593h.014l2.064.028h.009a.661.661,0,0,0,.647-.5l.386-1.591a.652.652,0,0,0-.352-.743l-1.851-.9a1.061,1.061,0,0,1-.6-.964c.006-.344,0-.687-.024-1.022a1.057,1.057,0,0,1,.547-.989l1.8-1a.653.653,0,0,0,.313-.76l-.469-1.569a.661.661,0,0,0-.682-.469l-2.061.135a1.075,1.075,0,0,1-1-.539c-.165-.294-.344-.584-.532-.862a1.057,1.057,0,0,1-.029-1.134l1.058-1.758a.648.648,0,0,0-.113-.812l-1.2-1.126a.667.667,0,0,0-.829-.07l-1.713,1.136a1.079,1.079,0,0,1-1.138.031c-.289-.17-.591-.332-.9-.481a1.063,1.063,0,0,1-.6-.968l.029-2.045a.656.656,0,0,0-.509-.648l-1.606-.382a.664.664,0,0,0-.753.35l-.911,1.834a1.071,1.071,0,0,1-.953.593h-.017c-.345-.007-.692,0-1.032.024a1.069,1.069,0,0,1-1-.541L95.673,86.04a.665.665,0,0,0-.77-.31l-1.584.465a.653.653,0,0,0-.474.673l.135,2.042a1.061,1.061,0,0,1-.54.995c-.3.165-.594.344-.878.533a1.077,1.077,0,0,1-1.136.026l-1.774-1.048a.666.666,0,0,0-.824.113l-1.137,1.187a.649.649,0,0,0-.071.817l1.146,1.7a1.057,1.057,0,0,1,.031,1.133c-.173.287-.336.587-.486.891a1.087,1.087,0,0,1-.974.592l-2.064-.028a.655.655,0,0,0-.656.5l-.386,1.592a.651.651,0,0,0,.352.742l1.851.9a1.061,1.061,0,0,1,.6.964c-.006.341,0,.685.024,1.021a1.059,1.059,0,0,1-.547.99l-1.8,1a.653.653,0,0,0-.313.76l.469,1.569a.66.66,0,0,0,.682.469l2.06-.135a1.073,1.073,0,0,1,1,.535c.166.3.347.587.538.87a1.052,1.052,0,0,1,.025,1.13l-1.057,1.758a.648.648,0,0,0,.113.812l1.2,1.126a.667.667,0,0,0,.829.07l1.713-1.136A1.074,1.074,0,0,1,91.563,111.181Zm6.944-3.244a7.277,7.277,0,0,1-5.039-2.007,7.186,7.186,0,0,1-.219-10.224,7.339,7.339,0,0,1,10.312-.222,7.186,7.186,0,0,1,.219,10.224,7.273,7.273,0,0,1-5.11,2.227C98.616,107.937,98.562,107.937,98.507,107.937Zm.158-.2h0Zm-.144-13.851-.153,0a6.871,6.871,0,0,0-4.828,2.1,6.779,6.779,0,0,0,.208,9.648,6.935,6.935,0,0,0,9.741-.21,6.779,6.779,0,0,0-.208-9.648A6.87,6.87,0,0,0,98.521,93.882Z" fill="#fff"/>
      </g>
      <g id="Group_11732" data-name="Group 11732">
        <path id="Path_21105" data-name="Path 21105" d="M133.528,114.935l-1.433-.45a.624.624,0,0,1-.434-.509q-.049-.378-.13-.747a.621.621,0,0,1,.233-.624l1.19-.914a.625.625,0,0,0,.187-.762l-.508-1.081a.633.633,0,0,0-.708-.347l-1.472.321a.633.633,0,0,1-.634-.226q-.231-.3-.485-.573a.621.621,0,0,1-.116-.659l.572-1.383a.621.621,0,0,0-.222-.751l-.986-.683a.637.637,0,0,0-.789.051l-1.112,1a.636.636,0,0,1-.664.119c-.232-.094-.47-.179-.712-.254a.623.623,0,0,1-.433-.512l-.2-1.478a.628.628,0,0,0-.572-.54l-1.2-.1a.636.636,0,0,0-.659.435l-.459,1.422a.629.629,0,0,1-.514.432c-.254.033-.506.077-.754.131a.628.628,0,0,1-.629-.229l-.918-1.177a.637.637,0,0,0-.768-.183l-1.092.507a.628.628,0,0,0-.351.7l.319,1.459a.623.623,0,0,1-.228.627c-.2.154-.4.317-.585.487a.632.632,0,0,1-.661.114L114.207,108a.637.637,0,0,0-.758.222l-.692.98a.623.623,0,0,0,.05.782l1.01,1.1a.622.622,0,0,1,.117.658q-.143.346-.258.706a.631.631,0,0,1-.518.432l-1.491.2a.633.633,0,0,0-.546.569l-.106,1.19a.624.624,0,0,0,.437.651l1.433.451a.624.624,0,0,1,.434.508c.033.252.076.5.13.747a.623.623,0,0,1-.233.625l-1.19.913a.626.626,0,0,0-.187.763l.508,1.081a.633.633,0,0,0,.708.346l1.472-.321a.632.632,0,0,1,.632.224c.155.2.319.392.49.579a.617.617,0,0,1,.113.655l-.572,1.383a.622.622,0,0,0,.222.752l.986.683a.638.638,0,0,0,.789-.052l1.112-1a.636.636,0,0,1,.664-.118c.232.094.47.178.712.253a.625.625,0,0,1,.433.513l.2,1.478a.628.628,0,0,0,.572.539l1.2.1a.635.635,0,0,0,.659-.436l.459-1.422a.629.629,0,0,1,.514-.431c.254-.034.506-.078.754-.132a.632.632,0,0,1,.629.229l.918,1.177a.634.634,0,0,0,.768.183l1.092-.507a.627.627,0,0,0,.351-.7l-.319-1.458a.626.626,0,0,1,.231-.629c.2-.153.392-.315.579-.483a.636.636,0,0,1,.664-.117l1.394.564a.637.637,0,0,0,.758-.223l.692-.98a.623.623,0,0,0-.05-.782l-1.01-1.1a.62.62,0,0,1-.117-.657q.143-.346.258-.707a.633.633,0,0,1,.518-.432l1.491-.2a.632.632,0,0,0,.546-.568l.106-1.19A.626.626,0,0,0,133.528,114.935Zm-10.168,5.332a5.127,5.127,0,1,1,4.228-5.93A5.15,5.15,0,0,1,123.36,120.267Z"/>
        <path id="Path_21106" data-name="Path 21106" d="M122.136,126.8l-.073,0-1.2-.1a.826.826,0,0,1-.756-.714l-.2-1.478a.423.423,0,0,0-.294-.346c-.247-.077-.492-.164-.727-.259a.434.434,0,0,0-.452.081l-1.113,1.005a.836.836,0,0,1-1.04.067l-.986-.682a.82.82,0,0,1-.293-1l.572-1.383a.417.417,0,0,0-.075-.441c-.173-.188-.342-.387-.5-.591a.428.428,0,0,0-.429-.151l-1.471.321a.83.83,0,0,1-.935-.458l-.508-1.081a.822.822,0,0,1,.247-1.009l1.189-.914a.419.419,0,0,0,.159-.42c-.055-.25-.1-.507-.133-.764a.422.422,0,0,0-.294-.342l-1.433-.45a.823.823,0,0,1-.578-.863l.106-1.19a.831.831,0,0,1,.721-.751l1.491-.2a.43.43,0,0,0,.352-.292c.078-.245.167-.488.264-.723a.422.422,0,0,0-.079-.443l-1.011-1.1a.821.821,0,0,1-.065-1.036l.691-.98a.836.836,0,0,1,1-.293l1.394.563a.432.432,0,0,0,.449-.076c.191-.173.393-.341.6-.5a.42.42,0,0,0,.153-.423l-.319-1.458a.827.827,0,0,1,.464-.931l1.092-.507a.834.834,0,0,1,1.013.243l.918,1.176a.426.426,0,0,0,.426.156c.253-.055.512-.1.77-.134a.429.429,0,0,0,.348-.293l.459-1.422a.837.837,0,0,1,.869-.576l1.2.1a.826.826,0,0,1,.755.715l.2,1.478a.424.424,0,0,0,.293.346c.246.076.491.163.727.259a.435.435,0,0,0,.452-.081l1.113-1.005a.835.835,0,0,1,1.04-.068l.986.683a.822.822,0,0,1,.294,1l-.573,1.383a.42.42,0,0,0,.078.444c.172.187.339.384.5.585a.432.432,0,0,0,.43.153l1.472-.321a.832.832,0,0,1,.935.458l.508,1.082a.823.823,0,0,1-.247,1.009l-1.189.914a.419.419,0,0,0-.159.42c.055.25.1.507.133.764a.419.419,0,0,0,.294.341l1.433.451a.823.823,0,0,1,.578.863l-.106,1.19a.831.831,0,0,1-.721.751l-1.491.2a.432.432,0,0,0-.352.293c-.078.244-.167.487-.264.722a.422.422,0,0,0,.079.443l1.011,1.1a.822.822,0,0,1,.066,1.036l-.692.98a.835.835,0,0,1-1,.293l-1.394-.563a.435.435,0,0,0-.452.079c-.19.172-.389.338-.592.494a.423.423,0,0,0-.156.424l.319,1.459a.825.825,0,0,1-.464.93l-1.092.507a.834.834,0,0,1-1.013-.242l-.918-1.177a.43.43,0,0,0-.426-.156c-.253.055-.512.1-.77.135a.426.426,0,0,0-.348.293l-.459,1.422A.834.834,0,0,1,122.136,126.8Zm-3.408-3.338a.819.819,0,0,1,.311.06c.225.091.459.174.7.248a.829.829,0,0,1,.574.678l.2,1.479a.423.423,0,0,0,.388.364l1.2.1a.43.43,0,0,0,.449-.3l.459-1.422a.835.835,0,0,1,.68-.57c.248-.033.5-.076.738-.129a.834.834,0,0,1,.831.3l.918,1.176a.434.434,0,0,0,.524.124l1.092-.507a.423.423,0,0,0,.239-.475l-.32-1.459a.831.831,0,0,1,.3-.833c.194-.149.385-.308.567-.472a.841.841,0,0,1,.876-.155l1.394.564a.438.438,0,0,0,.517-.152l.691-.979a.418.418,0,0,0-.033-.528l-1.01-1.1a.828.828,0,0,1-.156-.872c.093-.224.178-.457.253-.691a.837.837,0,0,1,.683-.57l1.492-.2a.427.427,0,0,0,.371-.385l.106-1.19a.419.419,0,0,0-.3-.44l-1.433-.451a.827.827,0,0,1-.573-.675c-.033-.246-.076-.492-.128-.73a.826.826,0,0,1,.308-.829l1.189-.914a.419.419,0,0,0,.127-.515l-.508-1.081a.427.427,0,0,0-.481-.235l-1.472.321a.836.836,0,0,1-.837-.3c-.15-.192-.31-.381-.475-.56a.825.825,0,0,1-.153-.873l.572-1.383a.418.418,0,0,0-.15-.508l-.986-.682a.431.431,0,0,0-.538.035l-1.113,1a.842.842,0,0,1-.875.156c-.226-.091-.46-.175-.7-.248a.831.831,0,0,1-.574-.679l-.2-1.478a.423.423,0,0,0-.388-.365l-1.2-.1a.43.43,0,0,0-.449.295l-.459,1.422a.835.835,0,0,1-.68.571c-.248.032-.5.076-.737.128a.834.834,0,0,1-.832-.3l-.919-1.177a.429.429,0,0,0-.522-.124l-1.092.507a.422.422,0,0,0-.239.476l.319,1.458a.83.83,0,0,1-.3.832c-.2.15-.389.311-.573.476a.836.836,0,0,1-.873.152l-1.394-.563a.436.436,0,0,0-.516.151l-.692.98a.418.418,0,0,0,.033.528l1.01,1.1a.829.829,0,0,1,.156.872c-.093.225-.178.457-.252.691a.842.842,0,0,1-.684.571l-1.492.2a.428.428,0,0,0-.371.386l-.106,1.19a.421.421,0,0,0,.3.44l1.433.451a.827.827,0,0,1,.574.675c.032.246.075.491.127.73a.826.826,0,0,1-.307.828l-1.19.914a.42.42,0,0,0-.127.515l.508,1.082a.426.426,0,0,0,.481.234l1.472-.321a.835.835,0,0,1,.835.3c.152.195.314.385.479.565a.822.822,0,0,1,.151.871l-.572,1.383a.417.417,0,0,0,.15.507l.986.683a.432.432,0,0,0,.538-.035l1.113-1A.838.838,0,0,1,118.728,123.461Zm3.735-2.914a5.349,5.349,0,0,1-3.078-.972,5.3,5.3,0,0,1-1.28-7.429,5.386,5.386,0,0,1,9.683,2.157,5.273,5.273,0,0,1-.913,3.981,5.362,5.362,0,0,1-3.48,2.183A5.448,5.448,0,0,1,122.463,120.547Zm.045-10.257a5.069,5.069,0,0,0-.854.073,4.959,4.959,0,0,0-3.219,2.019,4.892,4.892,0,0,0,1.182,6.861,5.005,5.005,0,0,0,6.928-1.194,4.87,4.87,0,0,0,.843-3.678A4.945,4.945,0,0,0,122.508,110.29Z" fill="#fff"/>
      </g>
    </g>
    <g id="Group_11767" data-name="Group 11767">
      <g id="Group_11743" data-name="Group 11743">
        <path id="Path_21107" data-name="Path 21107" d="M92.8,60.208l5.283-16.62,44.306,7.524Z" fill="#fff"/>
        <g id="Group_11742" data-name="Group 11742">
          <g id="Group_11741" data-name="Group 11741">
            <path id="Path_21108" data-name="Path 21108" d="M103.105,13.891l42.617,7.4,42.58-7.411L145.239,6.391Z" fill="#fff"/>
            <path id="Path_21109" data-name="Path 21109" d="M119.648,10.84l42.617,7.4,9.554-1.526L128.756,9.225Z"/>
            <g id="Group_11738" data-name="Group 11738">
              <path id="Path_21110" data-name="Path 21110" d="M145.714,84.022V21.231L102.93,13.865V76.484Z" fill="#fff"/>
              <path id="Path_21111" data-name="Path 21111" d="M145.714,84.225a.207.207,0,0,1-.035,0l-42.784-7.539a.2.2,0,0,1-.167-.2V61.668a.2.2,0,1,1,.405,0V76.313l42.378,7.467V21.4l-42.378-7.3V41.669a.2.2,0,1,1-.405,0v-27.8a.2.2,0,0,1,.072-.155.2.2,0,0,1,.165-.045l42.784,7.367a.2.2,0,0,1,.168.2V84.022a.2.2,0,0,1-.2.2Z"/>
              <g id="Group_11737" data-name="Group 11737">
                <g id="Group_11735" data-name="Group 11735">
                  <path id="Path_21112" data-name="Path 21112" d="M138.012,67.605a.219.219,0,0,1-.036,0l-27.654-4.921a.2.2,0,0,1-.167-.2V45.744a.2.2,0,1,1,.406,0V62.312l27.248,4.849V50.37a.2.2,0,1,1,.4,0V67.4a.2.2,0,0,1-.2.2Z"/>
                  <g id="Group_11734" data-name="Group 11734">
                    <path id="Path_21113" data-name="Path 21113" d="M113.235,59.917a.2.2,0,0,1-.2-.2V46.162a.2.2,0,0,1,.406,0V59.714A.2.2,0,0,1,113.235,59.917Z"/>
                    <path id="Path_21114" data-name="Path 21114" d="M115.915,60.005a.2.2,0,0,1-.2-.2V46.617a.2.2,0,1,1,.4,0V59.8A.2.2,0,0,1,115.915,60.005Z"/>
                    <path id="Path_21115" data-name="Path 21115" d="M118.745,60.805a.2.2,0,0,1-.2-.2V47.034a.2.2,0,0,1,.4,0V60.6A.2.2,0,0,1,118.745,60.805Z"/>
                    <path id="Path_21116" data-name="Path 21116" d="M120.582,61.1a.2.2,0,0,1-.2-.2V47.331a.2.2,0,0,1,.406,0V60.9A.2.2,0,0,1,120.582,61.1Z"/>
                    <path id="Path_21117" data-name="Path 21117" d="M124.255,61.442a.2.2,0,0,1-.2-.2V47.994a.2.2,0,0,1,.406,0V61.239A.2.2,0,0,1,124.255,61.442Z"/>
                    <path id="Path_21118" data-name="Path 21118" d="M127.928,62.286a.2.2,0,0,1-.2-.2V48.657a.2.2,0,1,1,.4,0V62.084A.2.2,0,0,1,127.928,62.286Z"/>
                    <path id="Path_21119" data-name="Path 21119" d="M131.6,62.375a.2.2,0,0,1-.2-.2V49.243a.2.2,0,0,1,.4,0V62.172A.2.2,0,0,1,131.6,62.375Z"/>
                    <path id="Path_21120" data-name="Path 21120" d="M135.275,63.471a.2.2,0,0,1-.2-.2V49.9a.2.2,0,0,1,.406,0V63.269A.2.2,0,0,1,135.275,63.471Z"/>
                  </g>
                </g>
                <path id="Path_21121" data-name="Path 21121" d="M138.012,50.441a.2.2,0,0,1-.2-.2V37.555l-27.248-4.738V45.531a.2.2,0,1,1-.406,0V32.576a.207.207,0,0,1,.072-.156.2.2,0,0,1,.165-.044l27.654,4.808a.2.2,0,0,1,.168.2V50.238A.2.2,0,0,1,138.012,50.441Z"/>
                <g id="Group_11736" data-name="Group 11736">
                  <path id="Path_21122" data-name="Path 21122" d="M113.235,46.349a.2.2,0,0,1-.2-.2V36.669a.2.2,0,0,1,.406,0v9.477A.2.2,0,0,1,113.235,46.349Z"/>
                  <path id="Path_21123" data-name="Path 21123" d="M115.205,46.437V37.514a.709.709,0,1,1,1.419,0v9.134Z"/>
                  <path id="Path_21124" data-name="Path 21124" d="M118.745,47.237a.2.2,0,0,1-.2-.2V37.558a.2.2,0,1,1,.4,0v9.476A.2.2,0,0,1,118.745,47.237Z"/>
                  <path id="Path_21125" data-name="Path 21125" d="M120.582,47.533a.2.2,0,0,1-.2-.2V37.854a.2.2,0,0,1,.406,0v9.477A.2.2,0,0,1,120.582,47.533Z"/>
                  <path id="Path_21126" data-name="Path 21126" d="M123.546,47.874V38.951a.709.709,0,1,1,1.419,0v9.164Z"/>
                  <path id="Path_21127" data-name="Path 21127" d="M127.928,48.718a.2.2,0,0,1-.2-.2V39.039a.2.2,0,0,1,.4,0v9.477A.2.2,0,0,1,127.928,48.718Z"/>
                  <path id="Path_21128" data-name="Path 21128" d="M130.892,49.172V39.884a.71.71,0,1,1,1.419,0v9.431Z"/>
                  <path id="Path_21129" data-name="Path 21129" d="M135.275,50.106a.2.2,0,0,1-.2-.2V40.224a.2.2,0,0,1,.406,0V49.9A.2.2,0,0,1,135.275,50.106Z"/>
                </g>
              </g>
            </g>
            <g id="Group_11740" data-name="Group 11740">
              <g id="Group_11739" data-name="Group 11739">
                <path id="Path_21130" data-name="Path 21130" d="M145.714,84.022V21.231l42.413-7.376V76.52Z" fill="#fff"/>
                <path id="Path_21131" data-name="Path 21131" d="M145.714,84.225a.2.2,0,0,1-.2-.2V21.231a.2.2,0,0,1,.169-.2l42.412-7.376a.2.2,0,0,1,.238.2V76.52a.2.2,0,0,1-.168.2l-42.413,7.5A.2.2,0,0,1,145.714,84.225Zm.2-62.823V83.78l42.007-7.43V14.1Z"/>
              </g>
              <path id="Path_21132" data-name="Path 21132" d="M171.878,17.06v6.385l-8.824,1.493V18.6Z"/>
            </g>
            <path id="Path_21133" data-name="Path 21133" d="M145.722,21.5a.2.2,0,0,1-.034,0l-42.617-7.4a.2.2,0,0,1,0-.4l42.134-7.5a.206.206,0,0,1,.07,0l43.063,7.491a.2.2,0,0,1,0,.4l-42.58,7.411A.2.2,0,0,1,145.722,21.5Zm-41.446-7.607,41.446,7.2,41.4-7.2L145.239,6.6Z"/>
          </g>
        </g>
        <path id="Path_21134" data-name="Path 21134" d="M92.8,60.411a.2.2,0,0,1-.152-.069.2.2,0,0,1-.041-.195l5.283-16.62a.2.2,0,0,1,.227-.139l44.306,7.525a.2.2,0,0,1,.169.2.2.2,0,0,1-.166.2l-49.589,9.1A.161.161,0,0,1,92.8,60.411ZM98.22,43.818l-5.128,16.13,48.129-8.828Z"/>
      </g>
      <g id="Group_11766" data-name="Group 11766">
        <g id="Group_11755" data-name="Group 11755">
          <g id="Group_11748" data-name="Group 11748">
            <g id="Group_11744" data-name="Group 11744">
              <path id="Path_21135" data-name="Path 21135" d="M38.388,141.9l-1.129,6.418,3.336.392,1.361-6.026Z" fill="#fff"/>
              <path id="Path_21136" data-name="Path 21136" d="M40.6,148.917h-.024l-3.336-.392a.2.2,0,0,1-.176-.236l1.129-6.418a.2.2,0,0,1,.243-.163L42,142.49a.2.2,0,0,1,.155.243l-1.362,6.026A.2.2,0,0,1,40.6,148.917Zm-3.1-.77,2.942.345,1.276-5.649-3.162-.7Z"/>
            </g>
            <g id="Group_11747" data-name="Group 11747">
              <g id="Group_11745" data-name="Group 11745">
                <path id="Path_21137" data-name="Path 21137" d="M40.957,147.324a2.825,2.825,0,0,1-3.134-.707l-.419-.455a.332.332,0,0,0-.519.039l-2.352,3.466a1.5,1.5,0,0,0,.149,1.924,14.751,14.751,0,0,0,2.9,2.21c2.309,1.314,4.3,4.114,6.668,3.437s2.475-.848,2.743-1.594-1.1-2.222-2.981-3.938a13.935,13.935,0,0,1-2.623-4.2A.331.331,0,0,0,40.957,147.324Z" fill="#fff"/>
                <path id="Path_21138" data-name="Path 21138" d="M43.521,157.544c-1.408,0-2.7-1.041-3.953-2.053a16.335,16.335,0,0,0-2.087-1.513,14.978,14.978,0,0,1-2.94-2.242,1.714,1.714,0,0,1-.171-2.19l2.347-3.459a.535.535,0,0,1,.836-.062l.419.455a2.638,2.638,0,0,0,2.91.656.533.533,0,0,1,.695.3,13.831,13.831,0,0,0,2.571,4.124c2.422,2.209,3.3,3.413,3.036,4.156-.309.861-.529,1.048-2.878,1.721A2.839,2.839,0,0,1,43.521,157.544ZM37.16,146.258h-.01a.131.131,0,0,0-.1.057L34.7,149.781a1.3,1.3,0,0,0,.122,1.664,14.63,14.63,0,0,0,2.859,2.18,16.856,16.856,0,0,1,2.141,1.55c1.468,1.184,2.853,2.3,4.371,1.868,2.32-.664,2.37-.8,2.608-1.468.284-.792-2.133-2.995-2.927-3.72a14.218,14.218,0,0,1-2.674-4.272.127.127,0,0,0-.168-.07,3.046,3.046,0,0,1-3.359-.758l-.419-.455A.126.126,0,0,0,37.16,146.258Z"/>
              </g>
              <g id="Group_11746" data-name="Group 11746">
                <path id="Path_21139" data-name="Path 21139" d="M47.011,155.869a4.274,4.274,0,0,1-4.537-.045c-1.741-.97-8.158-6.378-8.158-6.378l-.558.759a1.18,1.18,0,0,0,.037,1.432c1.629,1.426,6.409,5.186,8.927,5.932C46.594,158.716,47.011,155.869,47.011,155.869Z" fill="#fff"/>
                <path id="Path_21140" data-name="Path 21140" d="M44.4,158.045a6.178,6.178,0,0,1-1.731-.281c-2.734-.81-7.8-4.919-9-5.975a1.367,1.367,0,0,1-.067-1.7l.558-.759a.2.2,0,0,1,.294-.035c.064.054,6.422,5.406,8.126,6.356a4.1,4.1,0,0,0,4.318.059.2.2,0,0,1,.224-.01.2.2,0,0,1,.1.2,2.622,2.622,0,0,1-1.139,1.7A3.053,3.053,0,0,1,44.4,158.045Zm-10.044-8.3-.43.585a1,1,0,0,0,.008,1.159c1.767,1.548,6.45,5.18,8.851,5.891a3.716,3.716,0,0,0,3.068-.112,2.174,2.174,0,0,0,.815-.965,4.587,4.587,0,0,1-4.287-.3C40.774,155.108,35.39,150.612,34.351,149.74Z"/>
              </g>
            </g>
          </g>
          <g id="Group_11753" data-name="Group 11753">
            <g id="Group_11749" data-name="Group 11749">
              <path id="Path_21141" data-name="Path 21141" d="M56.455,143.215l-1.635,8.864,3.674,1.832,2.083-9.643Z" fill="#fff"/>
              <path id="Path_21142" data-name="Path 21142" d="M58.493,154.113a.209.209,0,0,1-.091-.021l-3.673-1.832a.2.2,0,0,1-.109-.218l1.635-8.864a.2.2,0,0,1,.09-.134.206.206,0,0,1,.16-.026l4.121,1.053a.2.2,0,0,1,.148.239l-2.083,9.643a.2.2,0,0,1-.11.14A.2.2,0,0,1,58.493,154.113Zm-3.447-2.148,3.3,1.648,1.987-9.2-3.722-.951Z"/>
            </g>
            <g id="Group_11752" data-name="Group 11752">
              <g id="Group_11750" data-name="Group 11750">
                <path id="Path_21143" data-name="Path 21143" d="M54.267,151.467c-.129.848-1.12,2.494-1.153,3.907a1.749,1.749,0,0,0,1.507,1.767,78.3,78.3,0,0,0,13.641.316,1.237,1.237,0,0,0,1.081-1.079c.574-2.753-4.191-3.487-9.4-5.552a.564.564,0,0,0-.6.114l-.571.543a1.945,1.945,0,0,1-2.13.37l-1.707-.757A.482.482,0,0,0,54.267,151.467Z" fill="#fff"/>
                <path id="Path_21144" data-name="Path 21144" d="M63.5,157.825a74.372,74.372,0,0,1-8.911-.483,1.95,1.95,0,0,1-1.68-1.972,8.326,8.326,0,0,1,.738-2.7,6.793,6.793,0,0,0,.417-1.233h0a.684.684,0,0,1,.954-.525l1.708.757a1.74,1.74,0,0,0,1.908-.332l.571-.543a.768.768,0,0,1,.81-.156c1.216.483,2.385.884,3.516,1.272,3.622,1.245,6.484,2.227,6.007,4.51a1.448,1.448,0,0,1-1.262,1.24C66.793,157.776,65.144,157.825,63.5,157.825ZM54.468,151.5a7.009,7.009,0,0,1-.442,1.323,7.937,7.937,0,0,0-.709,2.559,1.545,1.545,0,0,0,1.332,1.562,77.671,77.671,0,0,0,13.6.313,1.028,1.028,0,0,0,.9-.917c.4-1.933-2.174-2.819-5.742-4.044-1.135-.39-2.309-.793-3.533-1.279a.362.362,0,0,0-.382.073l-.571.543a2.142,2.142,0,0,1-2.352.408l-1.707-.757a.28.28,0,0,0-.389.216Z"/>
              </g>
              <g id="Group_11751" data-name="Group 11751">
                <path id="Path_21145" data-name="Path 21145" d="M53.008,155s-.005.144-.006.213a1.748,1.748,0,0,0,1.506,1.767,72.573,72.573,0,0,0,13.742.791,1.752,1.752,0,0,0,1.093-1.4,3.654,3.654,0,0,0,.027-.706l-.339.013a98.514,98.514,0,0,1-14.481-.524Z" fill="#fff"/>
                <path id="Path_21146" data-name="Path 21146" d="M65.546,158.074a86.15,86.15,0,0,1-11.066-.889,1.951,1.951,0,0,1-1.681-1.973c0-.07.007-.214.007-.214a.2.2,0,0,1,.223-.2l1.541.156a98.419,98.419,0,0,0,14.453.523l.34-.012h.008a.2.2,0,0,1,.2.192,3.811,3.811,0,0,1-.032.758,1.91,1.91,0,0,1-1.275,1.558C67.406,158.045,66.487,158.074,65.546,158.074ZM53.2,155.228a1.545,1.545,0,0,0,1.332,1.555,72.589,72.589,0,0,0,13.7.789,1.594,1.594,0,0,0,.91-1.235,2.4,2.4,0,0,0,.029-.455l-.134.006a98.907,98.907,0,0,1-14.511-.526Z"/>
              </g>
            </g>
          </g>
          <g id="Group_11754" data-name="Group 11754">
            <path id="Path_21147" data-name="Path 21147" d="M51.54,92.154c.1.489-1.554,3.866-1.283,7.183.424,5.2.759,7.9-2.03,13.063-2.691,4.982-7.547,9.74-11.017,30.476a1.72,1.72,0,0,0,1.676,2l2.665.032a1.72,1.72,0,0,0,1.554-.941c1.752-3.443,7.162-13.627,9.279-17.447,2.486-4.485,9.57-15.711,9.982-21.09a124.439,124.439,0,0,0-.01-13.136.083.083,0,0,0-.08-.079Z"/>
            <path id="Path_21148" data-name="Path 21148" d="M66.507,90.947a47.353,47.353,0,0,1,2.53,28.936c-2.733,11.433-6.611,24.178-7.857,27.81a1.752,1.752,0,0,1-1.667,1.183l-2.911-.013A1.751,1.751,0,0,1,54.87,146.9c.749-6.037,3.055-25.579,2.887-30.3-.277-7.787-2.566-10.514-2.965-15.993a20.821,20.821,0,0,1,1.226-9.54Z"/>
            <path id="Path_21149" data-name="Path 21149" d="M57.344,118.857h-.019a.2.2,0,0,1-.184-.22,24.9,24.9,0,0,0-1.636-12.024A16.952,16.952,0,0,1,54.166,99.9a.206.206,0,0,1,.211-.195.2.2,0,0,1,.195.21,16.4,16.4,0,0,0,1.315,6.559,25.24,25.24,0,0,1,1.658,12.195A.2.2,0,0,1,57.344,118.857Z" fill="#fff"/>
          </g>
        </g>
        <g id="Group_11761" data-name="Group 11761">
          <g id="Group_11759" data-name="Group 11759">
            <g id="Group_11757" data-name="Group 11757">
              <path id="Path_21150" data-name="Path 21150" d="M98.064,58.463c1.128.928.54,1.785.147,2.108L94.9,63.292a6.135,6.135,0,0,0-2.193,2.644l-3.78,6.876a31.41,31.41,0,0,1-2.5,3.851l-.99,1.3a1.031,1.031,0,0,1-1.813-.908l.277-.965a31.274,31.274,0,0,1,1.295-3.65l3.5-8.205.142-.8a8.173,8.173,0,0,1,2.53-4.918C94.588,55.643,98.064,58.463,98.064,58.463Z"/>
              <g id="Group_11756" data-name="Group 11756">
                <path id="Path_21151" data-name="Path 21151" d="M98.064,58.463a6.143,6.143,0,0,0-3.522-1.236,3.147,3.147,0,0,0-1.974.937,15.359,15.359,0,0,0-1.446,2.31c-.371,1.116.525,1.624,1.475,1.339a19.463,19.463,0,0,0,5.794-3.027A2.444,2.444,0,0,0,98.064,58.463Z" fill="#fff"/>
                <path id="Path_21152" data-name="Path 21152" d="M92.087,62.093a1.315,1.315,0,0,1-.957-.362,1.251,1.251,0,0,1-.2-1.321,14.682,14.682,0,0,1,1.494-2.388,3.349,3.349,0,0,1,2.1-1h.035a6.318,6.318,0,0,1,3.635,1.279h0a2.617,2.617,0,0,1,.355.35.2.2,0,0,1,.045.153.2.2,0,0,1-.079.138,19.656,19.656,0,0,1-5.857,3.06A1.991,1.991,0,0,1,92.087,62.093Zm2.485-4.663h-.029a2.947,2.947,0,0,0-1.83.876,15.215,15.215,0,0,0-1.4,2.232.859.859,0,0,0,.106.91,1.127,1.127,0,0,0,1.118.17,19.111,19.111,0,0,0,5.551-2.86c-.048-.047-.1-.092-.154-.138A6,6,0,0,0,94.572,57.43Z"/>
              </g>
              <ellipse id="Ellipse_22" data-name="Ellipse 22" cx="1.558" cy="0.598" rx="1.558" ry="0.598" transform="translate(92.092 59.888) rotate(-36.965)"/>
              <path id="Path_21153" data-name="Path 21153" d="M84.618,78.578A1.234,1.234,0,0,1,83.432,77l.277-.966a31.541,31.541,0,0,1,1.3-3.673L88.5,64.181l.138-.78a8.288,8.288,0,0,1,2.6-5.039c3.306-2.951,6.917-.086,6.953-.056h0a1.7,1.7,0,0,1,.73,1.285,1.55,1.55,0,0,1-.582,1.136l-3.306,2.721a5.6,5.6,0,0,0-1.958,2.239c-.058.109-.119.224-.187.347l-3.78,6.875a31.626,31.626,0,0,1-2.517,3.877l-.99,1.3A1.235,1.235,0,0,1,84.618,78.578Zm9.97-21.158A4.534,4.534,0,0,0,91.5,58.669a8.036,8.036,0,0,0-2.464,4.792l-.143.814a.223.223,0,0,1-.013.044l-3.5,8.205A31.172,31.172,0,0,0,84.1,76.15l-.276.965a.828.828,0,0,0,1.456.73l.991-1.305a31.114,31.114,0,0,0,2.485-3.826l3.78-6.876c.067-.121.127-.234.185-.342a5.966,5.966,0,0,1,2.062-2.365l3.3-2.717a1.133,1.133,0,0,0,.434-.823,1.315,1.315,0,0,0-.58-.971A5.842,5.842,0,0,0,94.588,57.42Z"/>
            </g>
            <g id="Group_11758" data-name="Group 11758">
              <path id="Path_21154" data-name="Path 21154" d="M93.053,67.123a.685.685,0,0,0-.946-.31,7.107,7.107,0,0,1-2.65.989c-1.394-.153-1.4-1.655-1.367-2.211a.446.446,0,0,0-.5-.473c-.34.044-.943.806-1.361,1.379-.814,1.115-.439,2.766-.93,3.594a19.9,19.9,0,0,1-5.311,4.666c-2.782,1.7-4.661.173-6.671-1.47-1.349-1.1-2.533-3.231-4.925-4.771-1.669-1.075-7.229,2.96-5.672,4.547,1.751,1.783,8.815,10.071,13.476,9.006,3.722-.85,9.553-7.466,11.082-9.021.946-.716,2.123-.65,2.9-.967.868-.353,1.622-.511,1.815-2.749C92.035,68.923,93.584,67.968,93.053,67.123Z" fill="#fff"/>
              <path id="Path_21155" data-name="Path 21155" d="M75.338,82.366c-4.184,0-9.607-5.8-12.018-8.379-.3-.323-.552-.591-.741-.782-.547-.558-.415-1.4.373-2.366,1.28-1.572,4.279-3.315,5.554-2.494a15.7,15.7,0,0,1,3.428,3.2,13.324,13.324,0,0,0,1.515,1.586c2.022,1.653,3.769,3.081,6.438,1.454a19.979,19.979,0,0,0,5.242-4.6,3.532,3.532,0,0,0,.289-1.343,4.474,4.474,0,0,1,.651-2.268c.9-1.239,1.276-1.431,1.5-1.461a.64.64,0,0,1,.517.167.661.661,0,0,1,.208.52c-.051.846.114,1.88,1.186,2A6.57,6.57,0,0,0,92,66.638a.881.881,0,0,1,1.22.377c.434.691-.225,1.4-.661,1.878a2.048,2.048,0,0,0-.363.458c-.191,2.224-.964,2.53-1.782,2.855l-.157.062a5.464,5.464,0,0,1-1,.259,4.29,4.29,0,0,0-1.846.674c-.19.193-.444.463-.751.788-2.306,2.441-7.1,7.52-10.42,8.278A4.073,4.073,0,0,1,75.338,82.366ZM67.675,68.535c-1.242,0-3.353,1.264-4.409,2.56-.37.456-.915,1.3-.4,1.825.19.194.442.464.747.79,2.542,2.719,8.491,9.085,12.539,8.161,3.2-.73,8.115-5.937,10.215-8.161.315-.333.575-.608.767-.8l.023-.02a4.64,4.64,0,0,1,2.025-.757,5.26,5.26,0,0,0,.924-.236l.16-.064c.759-.3,1.358-.539,1.529-2.514.018-.208.207-.413.468-.7.484-.525.864-.991.615-1.387-.285-.454-.632-.266-.671-.244A6.871,6.871,0,0,1,89.434,68c-1.067-.118-1.631-1-1.546-2.425a.253.253,0,0,0-.08-.2.228.228,0,0,0-.187-.061c-.072.009-.373.13-1.224,1.3a4.081,4.081,0,0,0-.575,2.069,3.763,3.763,0,0,1-.344,1.509,20.1,20.1,0,0,1-5.38,4.737c-2.915,1.775-4.944.117-6.906-1.487a13.758,13.758,0,0,1-1.565-1.636,15.364,15.364,0,0,0-3.341-3.122A1.12,1.12,0,0,0,67.675,68.535Z"/>
            </g>
          </g>
          <g id="Group_11760" data-name="Group 11760">
            <path id="Path_21156" data-name="Path 21156" d="M73.731,71.977c-2.233-1.651-4.206-4.517-5.573-5.837a10.519,10.519,0,0,0-5.7-2.542c-4.3-.55-9.711-.008-12.427,1.784a5.994,5.994,0,0,0-2.2,7.531c.37.844,1.771,4.366,2.137,5.39,2.274,6.368,1.248,11.357.692,15.594a1.2,1.2,0,0,0,.867,1.285c2.968.944,6.493,1.581,16.052-.744a1.038,1.038,0,0,0,.731-1.349c-2.476-7.186-.965-9.532-.137-13.431l1.091.594c1.882.694,3.633-2.265,4.41-3.815C74.711,74.383,74.871,72.819,73.731,71.977Z" fill="#fff"/>
            <path id="Path_21157" data-name="Path 21157" d="M56.96,96.245a16.751,16.751,0,0,1-5.487-.87,1.394,1.394,0,0,1-1.006-1.5c.053-.4.11-.811.168-1.227.558-4.01,1.192-8.554-.849-14.271-.37-1.034-1.77-4.55-2.132-5.377a6.168,6.168,0,0,1,2.27-7.782c2.854-1.884,8.482-2.339,12.564-1.816a10.671,10.671,0,0,1,5.811,2.6c.489.473,1.036,1.119,1.67,1.867a25.086,25.086,0,0,0,3.883,3.953c1.165.861,1.169,2.4.011,4.714-.89,1.775-2.679,4.645-4.662,3.914a.123.123,0,0,1-.026-.012l-.853-.465c-.129.575-.27,1.119-.408,1.647-.77,2.96-1.436,5.516.6,11.411a1.249,1.249,0,0,1-.085,1,1.234,1.234,0,0,1-.79.608A46.3,46.3,0,0,1,56.96,96.245ZM59.144,63.6c-3.35,0-6.932.59-9,1.952a5.77,5.77,0,0,0-2.122,7.281c.365.831,1.771,4.364,2.142,5.4,2.075,5.811,1.435,10.408.87,14.464-.058.415-.115.823-.168,1.224a.994.994,0,0,0,.727,1.066c2.939.935,6.369,1.581,15.943-.748a.816.816,0,0,0,.53-.408.841.841,0,0,0,.057-.678c-2.071-6.01-1.358-8.747-.6-11.645.157-.605.32-1.23.461-1.9a.2.2,0,0,1,.295-.135l1.077.587a1.424,1.424,0,0,0,.48.084c1.575,0,3.061-2.6,3.666-3.805,1.055-2.105,1.091-3.481.11-4.206a25.356,25.356,0,0,1-3.951-4.017c-.627-.74-1.168-1.379-1.643-1.837A10.253,10.253,0,0,0,62.436,63.8,26.217,26.217,0,0,0,59.144,63.6Z"/>
          </g>
        </g>
        <g id="Group_11765" data-name="Group 11765">
          <g id="Group_11762" data-name="Group 11762">
            <path id="Path_21158" data-name="Path 21158" d="M64.85,51.365a1.376,1.376,0,0,0-.149-1.16,5.415,5.415,0,0,0-4.891-2.768c-3.745.281-5.043,2.021-5.63,5.007-.413,2.1.432,5.2,1.93,5.984a3.864,3.864,0,0,0,4-.291L64.644,52Z"/>
            <path id="Path_21159" data-name="Path 21159" d="M55.527,51.51l.94-2.361a6.85,6.85,0,0,0-4.618-1.528c-2.528.289-5.4,2.714-5.04,7.117.185,2.287-1.741,3.43-3.566,5.136-.391.366-.8.709-1.219,1.047-3,2.442-2.481,5.077-2.481,5.077a2.958,2.958,0,0,1,.937-1.374A8.36,8.36,0,0,0,46.665,73.6c3.625.809,8.1-1.541,9.087-4.3.957-2.68.3-6.562-.988-9.515S52.662,52.868,55.527,51.51Z"/>
          </g>
          <g id="Group_11764" data-name="Group 11764">
            <g id="Group_11763" data-name="Group 11763">
              <path id="Path_21160" data-name="Path 21160" d="M64.663,51.072a4.848,4.848,0,0,1,.1,2.243,2.542,2.542,0,0,0,.687,2.034.225.225,0,0,1-.062.351l-.458.226a.551.551,0,0,0-.293.45,7.72,7.72,0,0,1-.486,2.571c-.484.618-2.51-.067-2.946-.2-.045-.014,0,4.71,0,4.71a2.311,2.311,0,0,1-.738,1.873c-1.136.983-4.746,1.339-5.018-.3-.038-.226-.25-.379-.114-.563a5.8,5.8,0,0,0,1.176-2.722,14.779,14.779,0,0,0,.023-3.25,2.852,2.852,0,0,0,1.883-.91c.827-.807,1.324-1.9,1.121-2.262-.465-.816-.768-1.6-.1-2.213a1.027,1.027,0,0,1,1.561.239c.406.486,2.189.19,2.956-1.149S64.663,51.072,64.663,51.072Z" fill="#fff"/>
              <path id="Path_21161" data-name="Path 21161" d="M57.606,66.365a3.946,3.946,0,0,1-1.311-.2,1.439,1.439,0,0,1-1.039-1.1.635.635,0,0,0-.067-.166.484.484,0,0,1-.01-.551,5.572,5.572,0,0,0,1.138-2.63,14.634,14.634,0,0,0,.022-3.2.208.208,0,0,1,.052-.16.19.19,0,0,1,.155-.066h0a2.705,2.705,0,0,0,1.736-.852c.829-.81,1.206-1.806,1.086-2.016-.491-.86-.837-1.754-.058-2.464a1.121,1.121,0,0,1,.846-.327,1.565,1.565,0,0,1,1.008.586.811.811,0,0,0,.659.139A2.628,2.628,0,0,0,63.788,52.1c.757-1.32.76-1.318.958-1.23a.209.209,0,0,1,.116.157,4.957,4.957,0,0,1,.1,2.339,2.334,2.334,0,0,0,.641,1.841.427.427,0,0,1-.117.667l-.462.229a.345.345,0,0,0-.181.281,7.49,7.49,0,0,1-.529,2.682c-.457.586-1.773.3-2.916-.053-.013.724,0,2.924.017,4.438a2.513,2.513,0,0,1-.808,2.029A5.027,5.027,0,0,1,57.606,66.365Zm-.843-7.68a14.528,14.528,0,0,1-.045,3.094,6.039,6.039,0,0,1-1.213,2.814.29.29,0,0,0,.045.124.986.986,0,0,1,.106.284,1.043,1.043,0,0,0,.776.786,4.854,4.854,0,0,0,3.91-.609,2.111,2.111,0,0,0,.667-1.723c-.048-4.775-.034-4.785.078-4.869a.2.2,0,0,1,.181-.032l.106.032c1.962.612,2.485.411,2.621.236a7.052,7.052,0,0,0,.443-2.46.748.748,0,0,1,.4-.615l.462-.229.152-.169-.149.138a2.7,2.7,0,0,1-.732-2.228,3.968,3.968,0,0,0,0-1.687c-.1.163-.235.4-.428.734a3.012,3.012,0,0,1-2.281,1.461,1.164,1.164,0,0,1-1.005-.283,1.165,1.165,0,0,0-.725-.441.721.721,0,0,0-.544.221c-.539.491-.347,1.116.136,1.964.3.523-.37,1.741-1.155,2.507A3.264,3.264,0,0,1,56.763,58.685Z"/>
            </g>
            <path id="Path_21162" data-name="Path 21162" d="M60.4,55.874c-.61,0-1.127-.454-1.446-1.288a.2.2,0,0,1,.379-.144c.171.447.564,1.171,1.283,1a.2.2,0,0,1,.094.4A1.345,1.345,0,0,1,60.4,55.874Z"/>
          </g>
        </g>
      </g>
    </g>
    <g id="Group_11774" data-name="Group 11774">
      <path id="Path_21163" data-name="Path 21163" d="M201.81,77.328l-26.335,4.6L149.35,77.356a.034.034,0,0,1,0-.067l26.423-4.626Z" fill="#fff"/>
      <path id="Path_21164" data-name="Path 21164" d="M165.735,74.489l25.609,4.622-5.75,1.005-25.622-4.633Z"/>
      <g id="Group_11768" data-name="Group 11768">
        <path id="Path_21165" data-name="Path 21165" d="M175.48,120.952V81.894l26.439-4.582v38.951Z" fill="#fff"/>
        <path id="Path_21166" data-name="Path 21166" d="M185.821,84.411V80.07l5.757-1v4.318Z"/>
        <path id="Path_21167" data-name="Path 21167" d="M175.48,121.155a.2.2,0,0,1-.2-.2V81.894a.2.2,0,0,1,.168-.2l26.439-4.582a.2.2,0,0,1,.238.2v38.951a.2.2,0,0,1-.168.2l-26.439,4.69A.207.207,0,0,1,175.48,121.155Zm.2-39.09V120.71l26.033-4.617V77.553Z"/>
      </g>
      <g id="Group_11773" data-name="Group 11773">
        <g id="Group_11770" data-name="Group 11770">
          <g id="Group_11769" data-name="Group 11769">
            <path id="Path_21168" data-name="Path 21168" d="M175.48,120.952V81.894l-26.21-4.588v38.979Z" fill="#fff"/>
            <path id="Path_21169" data-name="Path 21169" d="M175.48,121.155l-.036,0-26.209-4.667a.2.2,0,0,1-.168-.2V77.306a.2.2,0,0,1,.073-.155.2.2,0,0,1,.165-.044l26.21,4.587a.2.2,0,0,1,.168.2v39.058a.2.2,0,0,1-.2.2Zm-26.007-5.039,25.8,4.594V82.064l-25.8-4.516Z"/>
          </g>
        </g>
        <g id="Group_11772" data-name="Group 11772">
          <path id="Path_21170" data-name="Path 21170" d="M168.9,103.353l-.036,0L154.6,100.811a.2.2,0,0,1-.168-.2V85.184a.2.2,0,0,1,.073-.155.2.2,0,0,1,.165-.044l14.265,2.48a.2.2,0,0,1,.168.2V103.15a.2.2,0,0,1-.072.156A.207.207,0,0,1,168.9,103.353Zm-14.063-2.911,13.86,2.466V87.836l-13.86-2.411Z"/>
          <g id="Group_11771" data-name="Group 11771">
            <path id="Path_21171" data-name="Path 21171" d="M156.554,99.031a.2.2,0,0,1-.2-.2V87.442a.2.2,0,0,1,.406,0V98.829A.2.2,0,0,1,156.554,99.031Z"/>
            <path id="Path_21172" data-name="Path 21172" d="M158.3,99.4a.2.2,0,0,1-.2-.2V87.814a.2.2,0,0,1,.4,0V99.2A.2.2,0,0,1,158.3,99.4Z"/>
            <path id="Path_21173" data-name="Path 21173" d="M160.252,99.371a.2.2,0,0,1-.2-.2V88.592a.2.2,0,0,1,.406,0V99.168A.2.2,0,0,1,160.252,99.371Z"/>
            <path id="Path_21174" data-name="Path 21174" d="M162.4,100.149a.2.2,0,0,1-.2-.2V88.559a.2.2,0,0,1,.406,0V99.946A.2.2,0,0,1,162.4,100.149Z"/>
            <path id="Path_21175" data-name="Path 21175" d="M164.652,100.3a.2.2,0,0,1-.2-.2V89.358a.2.2,0,1,1,.4,0v10.735A.2.2,0,0,1,164.652,100.3Z"/>
            <path id="Path_21176" data-name="Path 21176" d="M167.04,101.063a.2.2,0,0,1-.2-.2V89.271a.2.2,0,1,1,.406,0v11.59A.2.2,0,0,1,167.04,101.063Z"/>
          </g>
        </g>
      </g>
      <path id="Path_21177" data-name="Path 21177" d="M175.475,82.135a.2.2,0,0,1-.035,0l-26.125-4.577a.236.236,0,0,1,0-.465l26.422-4.627a.212.212,0,0,1,.071,0l26.037,4.666a.2.2,0,0,1,0,.4l-26.335,4.6Zm-25.138-4.812,25.138,4.4,25.172-4.4-24.874-4.457Z"/>
    </g>
    <g id="Group_11780" data-name="Group 11780">
      <g id="Group_11777" data-name="Group 11777">
        <g id="Group_11775" data-name="Group 11775">
          <path id="Path_21178" data-name="Path 21178" d="M84,37.739V8.562a2.014,2.014,0,0,0-1.673-1.985L39.463-.823a5.27,5.27,0,0,0-2.126.071L35.006.1,33.924,30.248A2.79,2.79,0,0,0,36.23,33.1L77.49,40.34a4.915,4.915,0,0,0,3.005-.129l1.83-.487A2.053,2.053,0,0,0,84,37.739Z"/>
          <path id="Path_21179" data-name="Path 21179" d="M78.8,40.719a5.585,5.585,0,0,1-1.06-.128l-.282-.051-41.26-7.245a3.005,3.005,0,0,1-2.473-3.054L34.8.09a.2.2,0,0,1,.133-.183l2.331-.85.022-.006A5.423,5.423,0,0,1,39.5-1.023l42.864,7.4A2.212,2.212,0,0,1,84.2,8.562V37.739a2.24,2.24,0,0,1-1.823,2.181l-1.831.487A6.265,6.265,0,0,1,78.8,40.719ZM35.2.241,34.127,30.255a2.6,2.6,0,0,0,2.138,2.64l41.261,7.246.284.051a4.494,4.494,0,0,0,2.629-.176l1.834-.488A1.855,1.855,0,0,0,83.8,37.739V8.562a1.806,1.806,0,0,0-1.5-1.785L39.428-.623A5.029,5.029,0,0,0,37.4-.558Z"/>
        </g>
        <g id="Group_11776" data-name="Group 11776">
          <path id="Path_21180" data-name="Path 21180" d="M80.708,38.354V9.277a1.929,1.929,0,0,0-1.6-1.9L36.1-.03a1.93,1.93,0,0,0-2.258,1.9V31.056a1.931,1.931,0,0,0,1.595,1.9l42.735,7.53A2.165,2.165,0,0,0,80.708,38.354Z" fill="#fff"/>
          <path id="Path_21181" data-name="Path 21181" d="M78.545,40.722a2.306,2.306,0,0,1-.413-.037L35.4,33.156a2.13,2.13,0,0,1-1.762-2.1V1.872a2.131,2.131,0,0,1,2.494-2.1L79.14,7.176a2.127,2.127,0,0,1,1.77,2.1V38.354a2.368,2.368,0,0,1-2.365,2.368ZM35.766.145A1.726,1.726,0,0,0,34.04,1.872V31.056a1.723,1.723,0,0,0,1.428,1.7L78.2,40.286a1.962,1.962,0,0,0,2.3-1.932V9.277a1.724,1.724,0,0,0-1.434-1.7L36.06.17A1.716,1.716,0,0,0,35.766.145Z"/>
        </g>
        <path id="Path_21182" data-name="Path 21182" d="M75.072,36.842a2.159,2.159,0,0,1-.375-.033L39.1,30.537a2.146,2.146,0,0,1-1.777-2.118V6.26A2.15,2.15,0,0,1,39.84,4.14l35.595,6.129a2.145,2.145,0,0,1,1.786,2.119v22.3a2.152,2.152,0,0,1-2.149,2.151ZM39.474,4.514A1.746,1.746,0,0,0,37.73,6.26V28.419a1.744,1.744,0,0,0,1.442,1.719l35.595,6.271a1.744,1.744,0,0,0,2.048-1.718v-22.3a1.741,1.741,0,0,0-1.449-1.72L39.771,4.54A1.753,1.753,0,0,0,39.474,4.514Z"/>
      </g>
      <g id="Group_11778" data-name="Group 11778">
        <path id="Path_21183" data-name="Path 21183" d="M49.1,20.69a1.49,1.49,0,0,1-.265-.023l-6.691-1.179a1.514,1.514,0,0,1-1.254-1.494V10.646a1.518,1.518,0,0,1,1.774-1.495L49.353,10.3a1.514,1.514,0,0,1,1.26,1.495v7.375A1.517,1.517,0,0,1,49.1,20.69ZM42.4,9.534a1.112,1.112,0,0,0-1.11,1.112v7.348a1.11,1.11,0,0,0,.918,1.1L48.9,20.268a1.111,1.111,0,0,0,1.3-1.095V11.8a1.11,1.11,0,0,0-.923-1.1L42.592,9.55A1.1,1.1,0,0,0,42.4,9.534Z"/>
        <path id="Path_21184" data-name="Path 21184" d="M48.222,16.619V13.652a1.163,1.163,0,0,0-.965-1.145l-2.62-.451A1.162,1.162,0,0,0,43.278,13.2v2.956a1.161,1.161,0,0,0,.96,1.144l2.62.462A1.162,1.162,0,0,0,48.222,16.619Z"/>
      </g>
      <g id="Group_11779" data-name="Group 11779">
        <path id="Path_21185" data-name="Path 21185" d="M70.956,17.931a2.068,2.068,0,0,1-.35-.03L56.625,15.437a2,2,0,0,1,.687-3.943L71.293,13.9a2,2,0,0,1,1.662,1.972v.057a2,2,0,0,1-2,2ZM56.971,11.87a1.6,1.6,0,0,0-.276,3.168L70.677,17.5A1.6,1.6,0,0,0,72.55,15.93v-.057A1.594,1.594,0,0,0,71.224,14.3L57.243,11.893A1.665,1.665,0,0,0,56.971,11.87Z"/>
        <path id="Path_21186" data-name="Path 21186" d="M70.955,24.564a1.976,1.976,0,0,1-.342-.03l-8.027-1.386a2,2,0,0,1,.669-3.953l8.028,1.337a2,2,0,0,1,1.672,1.975v.055a2,2,0,0,1-2,2Zm-8.03-4.991a1.6,1.6,0,0,0-.27,3.176l8.027,1.386a1.6,1.6,0,0,0,1.868-1.573v-.055a1.592,1.592,0,0,0-1.334-1.575l-8.027-1.337A1.568,1.568,0,0,0,62.925,19.573Z"/>
        <path id="Path_21187" data-name="Path 21187" d="M70.955,31.342a2,2,0,0,1-.336-.028L56.387,28.9a2,2,0,0,1,.661-3.952l14.233,2.357a2,2,0,0,1,1.674,1.975v.06a2,2,0,0,1-2,2ZM56.72,25.326a1.6,1.6,0,0,0-.266,3.174l14.233,2.414A1.6,1.6,0,0,0,72.55,29.34v-.06A1.592,1.592,0,0,0,71.214,27.7L56.982,25.348A1.544,1.544,0,0,0,56.72,25.326Z"/>
      </g>
    </g>
  </g>
</svg>
