<svg xmlns="http://www.w3.org/2000/svg" width="360.666" height="360.737" viewBox="0 0 360.666 360.737">
  <g id="MD-Header-Illus" transform="translate(2.5 2.576)">
    <g id="Group_27" data-name="Group 27" transform="translate(0 0)">
      <path id="Path_78" data-name="Path 78" d="M41.646,68.776A15.944,15.944,0,1,0,57.611,84.72,15.973,15.973,0,0,0,41.646,68.776Zm0,26.243a10.3,10.3,0,1,1,10.319-10.3A10.321,10.321,0,0,1,41.646,95.019Z" transform="translate(-7.558 -20.242)" fill="#fff" stroke="#191717" stroke-width="5"/>
      <path id="Path_79" data-name="Path 79" d="M157.373,189.7a15.944,15.944,0,1,0,15.965,15.944A15.973,15.973,0,0,0,157.373,189.7Zm0,26.242a10.3,10.3,0,1,1,10.319-10.3A10.321,10.321,0,0,1,157.373,215.942Z" transform="translate(-41.619 -55.832)" fill="#fff" stroke="#191717" stroke-width="5"/>
      <path id="Path_80" data-name="Path 80" d="M282.155,305.242a15.944,15.944,0,1,0,15.965,15.944A15.972,15.972,0,0,0,282.155,305.242Zm0,26.242a10.3,10.3,0,1,1,10.32-10.3A10.321,10.321,0,0,1,282.155,331.484Z" transform="translate(-78.344 -89.838)" fill="#fff" stroke="#191717" stroke-width="5"/>
      <path id="Path_81" data-name="Path 81" d="M415.854,408.127a15.944,15.944,0,1,0,15.965,15.944A15.972,15.972,0,0,0,415.854,408.127Zm0,26.242a10.3,10.3,0,1,1,10.32-10.3A10.321,10.321,0,0,1,415.854,434.369Z" transform="translate(-117.694 -120.118)" fill="#fff" stroke="#191717" stroke-width="5"/>
      <path id="Path_82" data-name="Path 82" d="M326.035,260.3c-15.167-11.294-35.713-14.661-50.28-15.5a165.121,165.121,0,0,0-42.2,3.147,34.006,34.006,0,0,0-29.744-50.637,34.117,34.117,0,0,0-33.91,30.551c-12.987-20.391-20.059-47.693-20.059-78.049a34.086,34.086,0,0,0-50.387-29.886c2.165-29.778-2.66-54.852-14.371-74.6C73.678,26.1,55.3,11.21,30.456,1.077a14.518,14.518,0,1,0-10.405,27.1q3.645,1.338,7.077,2.978A34.044,34.044,0,1,0,67.161,72.718c9.577,20.128,14.507,45.983,14.507,77.095a34.073,34.073,0,0,0,49.487,30.351A108.123,108.123,0,0,0,150.119,234.8c13.9,19.723,32.965,30.586,53.692,30.586,25.388,0,58.147.85,82.553,6.632a34.054,34.054,0,1,0,43.141,45.4,182.637,182.637,0,0,1,2.277,26.564,11.943,11.943,0,0,0,23.882-.446C355.116,311.358,351.147,279,326.035,260.3ZM34.088,92.87a28.392,28.392,0,1,1,0-56.784c10.319,2.272,24.935,19.569,28.443,28.392A28.451,28.451,0,0,1,34.088,92.87ZM22,22.879A8.873,8.873,0,1,1,28.323,6.3C77.8,26.486,99.1,65.034,93.433,124.12a34.291,34.291,0,0,0-6.686,7.841C83.019,74.689,60.826,37.14,22,22.879ZM115.755,178.2A28.392,28.392,0,1,1,144.2,149.813,28.45,28.45,0,0,1,115.755,178.2Zm20.919-1.546a34.317,34.317,0,0,0,8.315-9.362c2.573,28.168,11.4,53,25.5,71.218a33.9,33.9,0,0,0,6.817,14.205C151.37,238.019,137.156,203.154,136.673,176.658Zm38.7,54.69a28.442,28.442,0,1,1,28.442,28.392A28.449,28.449,0,0,1,175.37,231.348Zm122.79,101a28.392,28.392,0,1,1,0-56.784c.087,0,.172,0,.258,0a57.352,57.352,0,0,1,11.354,5.449c8.383,5.4,13.57,14.128,16.8,24.2A28.271,28.271,0,0,1,298.16,332.345Zm50.061,15.784a6.3,6.3,0,0,1-10.8-4.276c-.584-24.469-3.907-54.264-24.6-67.587-19.227-12.382-56.123-15.639-90.522-16.349a34.338,34.338,0,0,0,5.946-4.878c23.257-6.382,68.79-9.289,94.41,9.789,23.156,17.245,26.831,48.069,27.355,78.811A6.213,6.213,0,0,1,348.221,348.129Z" transform="translate(0 0)" fill="#fff" stroke="#191717" stroke-width="5"/>
    </g>
  </g>
</svg>
