<svg xmlns="http://www.w3.org/2000/svg" width="41.386" height="48.2" viewBox="0 0 41.386 48.2">
  <g id="Manage_OOH_DOOH" data-name="Manage OOH &amp; DOOH" transform="translate(-201.996 -26.419)">
    <path id="Path_19425" data-name="Path 19425" d="M240.332,29.948h-11.6a.442.442,0,0,1,0-.884h11.6a.442.442,0,0,1,0,.884Z" transform="translate(-11.841 -1.151)" stroke="#f7f7f7" stroke-width="0.2"/>
    <path id="Path_19426" data-name="Path 19426" d="M242.84,57.036h-40.3a.442.442,0,0,1-.442-.442V29.506a.442.442,0,0,1,.442-.442h9.609a.442.442,0,0,1,0,.884H202.98V56.153H242.4V29.948h-9.167a.442.442,0,0,1,0-.884h9.609a.442.442,0,0,1,.442.442h0V56.594A.442.442,0,0,1,242.84,57.036Z" transform="translate(0 -1.151)" stroke="#f7f7f7" stroke-width="0.2"/>
    <path id="Path_19427" data-name="Path 19427" d="M240.332,35.248h-11.6a.442.442,0,0,1,0-.883h11.6a.442.442,0,1,1,0,.883Z" transform="translate(-11.841 -3.547)" stroke="#f7f7f7" stroke-width="0.2"/>
    <path id="Path_19428" data-name="Path 19428" d="M242.332,56.529H207.839a.442.442,0,0,1-.442-.442V34.807a.442.442,0,0,1,.442-.442h6.7a.442.442,0,1,1,0,.883H208.28v20.4h33.61v-20.4h-6.263a.442.442,0,0,1,0-.883h6.7a.442.442,0,0,1,.442.442h0v21.28A.442.442,0,0,1,242.332,56.529Z" transform="translate(-2.397 -3.547)" stroke="#f7f7f7" stroke-width="0.2"/>
    <path id="Path_19429" data-name="Path 19429" d="M211.979,96.8a.442.442,0,0,1-.442-.442h0V83.83a.442.442,0,0,1,.884,0V96.355a.442.442,0,0,1-.442.442Z" transform="translate(-4.268 -25.71)" stroke="#f7f7f7" stroke-width="0.2"/>
    <path id="Path_19430" data-name="Path 19430" d="M219.968,96.8a.442.442,0,0,1-.442-.442h0V83.83a.442.442,0,1,1,.883,0V96.355a.441.441,0,0,1-.442.442Z" transform="translate(-7.88 -25.71)" stroke="#f7f7f7" stroke-width="0.2"/>
    <path id="Path_19431" data-name="Path 19431" d="M216.509,110.564h-6.146a.441.441,0,0,1-.442-.442h0V106.69a.441.441,0,0,1,.442-.442h6.146a.442.442,0,0,1,.442.442h0v3.432a.442.442,0,0,1-.442.442Zm-5.705-.884h5.263v-2.549H210.8Z" transform="translate(-3.538 -36.045)" stroke="#f7f7f7" stroke-width="0.2"/>
    <path id="Path_19432" data-name="Path 19432" d="M258.665,96.8a.442.442,0,0,1-.442-.442h0V83.83a.442.442,0,0,1,.884,0V96.355a.442.442,0,0,1-.442.442Z" transform="translate(-25.375 -25.71)" stroke="#f7f7f7" stroke-width="0.2"/>
    <path id="Path_19433" data-name="Path 19433" d="M266.654,96.8a.442.442,0,0,1-.442-.442h0V83.83a.442.442,0,0,1,.884,0V96.355a.442.442,0,0,1-.442.442Z" transform="translate(-28.987 -25.71)" stroke="#f7f7f7" stroke-width="0.2"/>
    <path id="Path_19434" data-name="Path 19434" d="M263.2,110.564h-6.146a.442.442,0,0,1-.442-.442h0V106.69a.442.442,0,0,1,.442-.442H263.2a.442.442,0,0,1,.442.442h0v3.432a.442.442,0,0,1-.442.442Zm-5.705-.884h5.264v-2.549h-5.264Z" transform="translate(-24.646 -36.045)" stroke="#f7f7f7" stroke-width="0.2"/>
    <path id="Path_19435" data-name="Path 19435" d="M224.816,33.792h-4.74a.442.442,0,0,1-.442-.442v-6.39a.442.442,0,0,1,.442-.442h4.739a.442.442,0,0,1,.444.439v6.393a.441.441,0,0,1-.442.441Zm-4.3-.883h3.858V27.4h-3.856Z" transform="translate(-7.929)" stroke="#f7f7f7" stroke-width="0.2"/>
    <path id="Path_19436" data-name="Path 19436" d="M254.646,33.792h-4.74a.442.442,0,0,1-.442-.442v-6.39a.442.442,0,0,1,.442-.442h4.74a.442.442,0,0,1,.442.442h0v6.391A.441.441,0,0,1,254.646,33.792Zm-4.3-.883H254.2V27.4h-3.856Z" transform="translate(-21.415 0)" stroke="#f7f7f7" stroke-width="0.2"/>
    <path id="Path_19437" data-name="Path 19437" d="M216.623,82.064h-7.441a.442.442,0,0,1-.442-.442V78.947a.442.442,0,0,1,.442-.442h7.441a.442.442,0,0,1,.442.442v2.675A.442.442,0,0,1,216.623,82.064Zm-7-.883h6.556V79.388h-6.557Z" transform="translate(-3.004 -23.503)" stroke="#f7f7f7" stroke-width="0.2"/>
    <path id="Path_19438" data-name="Path 19438" d="M263.311,82.064h-7.44a.442.442,0,0,1-.442-.442V78.947a.442.442,0,0,1,.442-.442h7.44a.442.442,0,0,1,.442.442v2.675A.442.442,0,0,1,263.311,82.064Zm-7-.883h6.556V79.388h-6.556Z" transform="translate(-24.112 -23.503)" stroke="#f7f7f7" stroke-width="0.2"/>
  </g>
</svg>
