<svg xmlns="http://www.w3.org/2000/svg" width="159.707" height="159.74" viewBox="0 0 159.707 159.74">
  <g id="Group_11730" data-name="Group 11730" transform="translate(91.034 362.464)">
    <g id="Group_11656" data-name="Group 11656">
      <rect id="Rectangle_5709" data-name="Rectangle 5709" width="45.899" height="50.054" rx="2.841" transform="translate(16.803 -362.269)" fill="#fff"/>
      <path id="Path_20975" data-name="Path 20975" d="M59.861-312.021H19.645a3.04,3.04,0,0,1-3.036-3.036v-44.371a3.04,3.04,0,0,1,3.036-3.036H59.861a3.039,3.039,0,0,1,3.035,3.036v44.371A3.039,3.039,0,0,1,59.861-312.021ZM19.645-362.075A2.65,2.65,0,0,0,17-359.428v44.371a2.649,2.649,0,0,0,2.647,2.647H59.861a2.65,2.65,0,0,0,2.647-2.647v-44.371a2.651,2.651,0,0,0-2.647-2.647Z"/>
    </g>
    <g id="Group_11663" data-name="Group 11663">
      <g id="Group_11660" data-name="Group 11660">
        <g id="Group_11657" data-name="Group 11657">
          <path id="Path_20976" data-name="Path 20976" d="M32.789-338.528a8.677,8.677,0,0,1,6.652-4.25l.2-11.326a20.865,20.865,0,0,0-18.789,11.51Z" fill="#fff"/>
          <path id="Path_20977" data-name="Path 20977" d="M32.789-338.334a.2.2,0,0,1-.063-.01L20.789-342.41a.191.191,0,0,1-.117-.109.192.192,0,0,1,0-.159A21.1,21.1,0,0,1,39.639-354.3a.2.2,0,0,1,.139.058.193.193,0,0,1,.056.14l-.2,11.326a.2.2,0,0,1-.174.19,8.468,8.468,0,0,0-6.5,4.152A.2.2,0,0,1,32.789-338.334Zm-11.666-4.372L32.7-338.763a8.863,8.863,0,0,1,6.548-4.189l.193-10.956A20.722,20.722,0,0,0,21.123-342.706Z"/>
        </g>
        <path id="Path_20978" data-name="Path 20978" d="M32.227-350.83a.193.193,0,0,1-.18-.122.193.193,0,0,1,.107-.253,20.116,20.116,0,0,1,5.814-1.394.194.194,0,0,1,.211.177.2.2,0,0,1-.177.211,19.716,19.716,0,0,0-5.7,1.366A.191.191,0,0,1,32.227-350.83Z"/>
        <path id="Path_20979" data-name="Path 20979" d="M25.675-346.463a.194.194,0,0,1-.136-.055.194.194,0,0,1,0-.275,19.3,19.3,0,0,1,4.833-3.585.194.194,0,0,1,.262.082.193.193,0,0,1-.081.262,18.917,18.917,0,0,0-4.736,3.513A.194.194,0,0,1,25.675-346.463Z"/>
        <g id="Group_11658" data-name="Group 11658">
          <path id="Path_20980" data-name="Path 20980" d="M48.655-333.509a8.517,8.517,0,0,1-8.218,6.777,8.869,8.869,0,0,1-3.495-.594l-6.483,10.037a21.238,21.238,0,0,0,9.978,1.822c10.355-.6,18.5-8.39,19.4-17.774Z" fill="#fff"/>
          <path id="Path_20981" data-name="Path 20981" d="M39.195-315.237a21.474,21.474,0,0,1-8.816-1.875.2.2,0,0,1-.106-.122.192.192,0,0,1,.023-.16l6.483-10.038a.194.194,0,0,1,.234-.075,8.617,8.617,0,0,0,3.418.58,8.319,8.319,0,0,0,8.032-6.616.2.2,0,0,1,.2-.16l11.183.268a.2.2,0,0,1,.141.065.2.2,0,0,1,.048.148c-.929,9.645-9.348,17.361-19.583,17.949Q39.821-315.237,39.195-315.237Zm-8.449-2.137a21.186,21.186,0,0,0,9.68,1.713c9.972-.573,18.186-8.032,19.2-17.39l-10.808-.259a8.725,8.725,0,0,1-8.372,6.772,9,9,0,0,1-3.423-.551Z"/>
        </g>
        <path id="Path_20982" data-name="Path 20982" d="M39.174-316.86a19.777,19.777,0,0,1-6.338-1.028.194.194,0,0,1-.121-.246.194.194,0,0,1,.246-.123,19.37,19.37,0,0,0,6.213,1.008c.385,0,.775-.011,1.159-.033a.194.194,0,0,1,.2.183.194.194,0,0,1-.183.2C39.964-316.872,39.567-316.86,39.174-316.86Z"/>
        <path id="Path_20983" data-name="Path 20983" d="M44.438-317.561a.2.2,0,0,1-.188-.143.2.2,0,0,1,.137-.239A18.477,18.477,0,0,0,57.77-331.7a.2.2,0,0,1,.23-.152.2.2,0,0,1,.151.23,18.868,18.868,0,0,1-13.662,14.054A.179.179,0,0,1,44.438-317.561Z"/>
        <g id="Group_11659" data-name="Group 11659">
          <path id="Path_20984" data-name="Path 20984" d="M28.43-318.345l6.542-10.067a7.767,7.767,0,0,1-3.214-6.261,7.711,7.711,0,0,1,.213-1.8L19.988-340.49A18.452,18.452,0,0,0,19-334.516,18.781,18.781,0,0,0,28.43-318.345Z" fill="#fff"/>
          <path id="Path_20985" data-name="Path 20985" d="M28.43-318.15a.188.188,0,0,1-.1-.028A18.953,18.953,0,0,1,18.8-334.516a18.677,18.677,0,0,1,1-6.037.2.2,0,0,1,.246-.121l11.983,4.017a.193.193,0,0,1,.127.229,7.526,7.526,0,0,0-.208,1.755,7.559,7.559,0,0,0,3.136,6.105.194.194,0,0,1,.047.262l-6.542,10.067A.194.194,0,0,1,28.43-318.15Zm-8.319-22.094a18.274,18.274,0,0,0-.92,5.728,18.556,18.556,0,0,0,9.178,15.908l6.342-9.758a7.931,7.931,0,0,1-3.148-6.307,7.9,7.9,0,0,1,.18-1.672Z"/>
        </g>
      </g>
      <g id="Group_11662" data-name="Group 11662">
        <g id="Group_11661" data-name="Group 11661">
          <path id="Path_20986" data-name="Path 20986" d="M43.156-343.206a8.124,8.124,0,0,1,7.035,7.116l18.287.53v-.023c0-13.415-10.689-24.9-24.995-26.374Z" fill="#fff"/>
          <path id="Path_20987" data-name="Path 20987" d="M68.476-335.366h0l-18.286-.53a.194.194,0,0,1-.188-.176,7.916,7.916,0,0,0-6.871-6.942.2.2,0,0,1-.166-.2l.328-18.751a.2.2,0,0,1,.065-.142.194.194,0,0,1,.149-.048,28.72,28.72,0,0,1,17.984,8.77,25.913,25.913,0,0,1,7.186,17.8.223.223,0,0,1-.06.151A.21.21,0,0,1,68.476-335.366Zm-18.109-.913,17.916.519c-.093-13.318-10.626-24.437-24.609-25.981l-.321,18.37A8.3,8.3,0,0,1,50.367-336.279Z"/>
        </g>
      </g>
    </g>
    <g id="Group_11675" data-name="Group 11675">
      <g id="Group_11668" data-name="Group 11668">
        <g id="Group_11664" data-name="Group 11664">
          <path id="Path_20988" data-name="Path 20988" d="M-25.092-231.831l.537,5.115,3.458.405v-6.065Z" fill="#fff"/>
          <path id="Path_20989" data-name="Path 20989" d="M-21.1-226.117h-.023l-3.458-.4a.2.2,0,0,1-.171-.173l-.536-5.115a.2.2,0,0,1,.167-.213l4-.544a.192.192,0,0,1,.154.046.194.194,0,0,1,.066.146v6.065a.193.193,0,0,1-.065.145A.194.194,0,0,1-21.1-226.117Zm-3.281-.774,3.087.361v-5.623l-3.588.489Z"/>
        </g>
        <g id="Group_11665" data-name="Group 11665">
          <path id="Path_20990" data-name="Path 20990" d="M-20.552-217.407a24.151,24.151,0,0,1-6.579,0,1.546,1.546,0,0,1-1.293-1.9c.611-2.483,1.663-7.193,3.47-9.376l.449,1.184.62-1.115a.548.548,0,0,1,.41-.278l1.358-.172a.549.549,0,0,1,.606.432l.216,1.027.474-1.348,1.579,9.817A1.541,1.541,0,0,1-20.552-217.407Z" fill="#fff"/>
          <path id="Path_20991" data-name="Path 20991" d="M-23.822-216.989a24.393,24.393,0,0,1-3.336-.228,1.752,1.752,0,0,1-1.206-.749,1.742,1.742,0,0,1-.249-1.389l.131-.536c.623-2.562,1.666-6.849,3.378-8.918a.2.2,0,0,1,.182-.068.2.2,0,0,1,.15.123l.3.793.417-.749a.746.746,0,0,1,.556-.377l1.358-.172a.749.749,0,0,1,.82.585l.073.346.243-.692a.2.2,0,0,1,.2-.129.2.2,0,0,1,.175.163l1.579,9.817a1.743,1.743,0,0,1-1.475,1.955l-.027-.193.027.193A23.868,23.868,0,0,1-23.822-216.989Zm-1.191-11.3c-1.534,2.091-2.5,6.073-3.091,8.493l-.131.537a1.33,1.33,0,0,0,.193,1.079,1.361,1.361,0,0,0,.937.582,23.94,23.94,0,0,0,6.526,0,1.352,1.352,0,0,0,1.144-1.514l-1.457-9.055-.219.625a.194.194,0,0,1-.2.13.2.2,0,0,1-.178-.154l-.216-1.027a.357.357,0,0,0-.392-.279l-1.357.172a.352.352,0,0,0-.265.18l-.62,1.114a.2.2,0,0,1-.184.1.2.2,0,0,1-.168-.125Z"/>
        </g>
        <path id="Path_20992" data-name="Path 20992" d="M-24.558-218.634a13.218,13.218,0,0,1-2.914-.308.194.194,0,0,1-.146-.233.2.2,0,0,1,.233-.147,16.061,16.061,0,0,0,6.973-.23.193.193,0,0,1,.24.133.2.2,0,0,1-.133.241A16.979,16.979,0,0,1-24.558-218.634Z"/>
        <path id="Path_20993" data-name="Path 20993" d="M-25.384-222.438a.194.194,0,0,1-.194-.188.193.193,0,0,1,.188-.2l3.241-.107a.2.2,0,0,1,.2.188.194.194,0,0,1-.188.2l-3.242.107Z"/>
        <g id="Group_11666" data-name="Group 11666">
          <path id="Path_20994" data-name="Path 20994" d="M-8.894-234.555l.518,7.464h4.161l.194-7.464Z" fill="#fff"/>
          <path id="Path_20995" data-name="Path 20995" d="M-4.214-226.9H-8.375a.194.194,0,0,1-.194-.181l-.519-7.464a.2.2,0,0,1,.052-.146.194.194,0,0,1,.142-.062H-4.02a.194.194,0,0,1,.139.059.2.2,0,0,1,.055.14l-.194,7.464A.194.194,0,0,1-4.214-226.9Zm-3.98-.389H-4.4l.183-7.075H-8.685Z"/>
        </g>
        <g id="Group_11667" data-name="Group 11667">
          <path id="Path_20996" data-name="Path 20996" d="M-9.462-222.877A1.5,1.5,0,0,0-8.3-221.391c2.393.557,7.782,1.8,9.319,2.026,1.995.3,4.448-.315,5.5-1.482s-2.361-3.953-3.982-4.967c-2.407-1.506-4.72-4.483-5.69-4.617s-2.78,2.68-2.78,2.68l-2.96-1.243A36.688,36.688,0,0,0-9.462-222.877Z" fill="#fff"/>
          <path id="Path_20997" data-name="Path 20997" d="M2.06-219.1a7.312,7.312,0,0,1-1.072-.077c-1.554-.231-7.046-1.5-9.335-2.028a1.707,1.707,0,0,1-1.31-1.679,37.273,37.273,0,0,1,.573-6.153.194.194,0,0,1,.1-.133.193.193,0,0,1,.166-.007l2.81,1.18c.458-.692,1.918-2.763,2.881-2.63.548.076,1.333.821,2.421,1.853a22.707,22.707,0,0,0,3.345,2.791c1.3.814,4.055,2.968,4.259,4.43a.985.985,0,0,1-.236.833A6.583,6.583,0,0,1,2.06-219.1Zm-10.806-9.625a38.242,38.242,0,0,0-.522,5.847,1.315,1.315,0,0,0,1.009,1.294c2.285.532,7.765,1.793,9.3,2.022,2,.3,4.341-.325,5.328-1.419a.605.605,0,0,0,.14-.519c-.173-1.24-2.743-3.317-4.08-4.153a23.035,23.035,0,0,1-3.407-2.839,7.652,7.652,0,0,0-2.206-1.75c-.616-.086-1.916,1.545-2.591,2.592a.192.192,0,0,1-.238.074Zm-.716,5.844h0Z"/>
        </g>
        <path id="Path_20998" data-name="Path 20998" d="M2.018-220.464c-4.325,0-10.139-2.349-10.467-2.483a.194.194,0,0,1-.106-.253.194.194,0,0,1,.253-.107c.106.044,10.646,4.3,13.748,1.5a.2.2,0,0,1,.275.014.193.193,0,0,1-.014.274A5.473,5.473,0,0,1,2.018-220.464Z"/>
        <path id="Path_20999" data-name="Path 20999" d="M-2.594-224.987a.194.194,0,0,1-.144-.064.2.2,0,0,1,.014-.275l2.116-1.909a.2.2,0,0,1,.275.014.2.2,0,0,1-.014.275l-2.117,1.909A.191.191,0,0,1-2.594-224.987Z"/>
        <path id="Path_21000" data-name="Path 21000" d="M-26.272-283.214s-1.29,23.334-1.964,31.389,1.578,21,1.578,21l6.423-.337s.44-15.743.917-20.115A50.22,50.22,0,0,0-15.8-262.487a110.512,110.512,0,0,1,3.543-13.635s2.225,41.672,2.439,44.946c0,0,5.037.224,6.843-.912,0,0,3.2-15.2,2.741-23.462s.045-28.807.045-28.807Z"/>
        <path id="Path_21001" data-name="Path 21001" d="M-20.5-251.082h-1.964a.194.194,0,0,1-.194-.194.194.194,0,0,1,.194-.194H-20.5a.194.194,0,0,1,.194.194A.194.194,0,0,1-20.5-251.082Z" fill="#fff"/>
        <path id="Path_21002" data-name="Path 21002" d="M-6.514-238.962h0a.194.194,0,0,1-.19-.2c.07-3.851,4.3-10.757,4.478-11.049a.193.193,0,0,1,.267-.063.194.194,0,0,1,.064.267c-.044.071-4.352,7.107-4.421,10.852A.194.194,0,0,1-6.514-238.962Z" fill="#fff"/>
      </g>
      <g id="Group_11672" data-name="Group 11672">
        <g id="Group_11669" data-name="Group 11669">
          <path id="Path_21003" data-name="Path 21003" d="M1.844-320.531c.467-.037,2.763,4.664,9.946,4.467S24.735-324.3,24.735-324.3s2.481-4.183,4.364-5.695,2.178-1.712,2.178-1.712a1.534,1.534,0,0,1,0,1.712,26.873,26.873,0,0,1-2.22,2.656,2.388,2.388,0,0,1,.986,3.039,3.647,3.647,0,0,1-3.556,2.171S21.161-298.549-.849-309.753Z" fill="#fff"/>
          <path id="Path_21004" data-name="Path 21004" d="M10.066-306.538a24.559,24.559,0,0,1-11-3.042.2.2,0,0,1-.1-.22l2.692-10.779a.193.193,0,0,1,.174-.146c.192-.015.344.154.711.564a10.951,10.951,0,0,0,9.244,3.9c7.006-.192,12.736-8.074,12.794-8.153.092-.158,2.511-4.217,4.4-5.734,1.867-1.5,2.179-1.713,2.191-1.721a.194.194,0,0,1,.264.044,1.715,1.715,0,0,1,.009,1.933,24.218,24.218,0,0,1-2.087,2.519,2.549,2.549,0,0,1,.869,3.143,3.8,3.8,0,0,1-3.584,2.3c-.335,1.309-2.941,10.562-10.362,14.045A14.437,14.437,0,0,1,10.066-306.538ZM-.622-309.857c6.457,3.255,12.086,3.8,16.732,1.62,7.781-3.651,10.164-13.831,10.188-13.934a.2.2,0,0,1,.2-.151,3.416,3.416,0,0,0,3.361-2.048,2.18,2.18,0,0,0-.9-2.8.2.2,0,0,1-.1-.141.2.2,0,0,1,.05-.163,26.813,26.813,0,0,0,2.2-2.628,1.341,1.341,0,0,0,.1-1.321c-.24.181-.79.608-2,1.577-1.834,1.473-4.294,5.6-4.318,5.643-.068.1-5.912,8.133-13.108,8.33-.151,0-.3.006-.448.006a11.229,11.229,0,0,1-9.1-4.038c-.1-.112-.2-.227-.286-.311Z"/>
        </g>
        <g id="Group_11670" data-name="Group 11670">
          <path id="Path_21005" data-name="Path 21005" d="M-33.757-309.753s2.156-13.913,9.771-17.336,17.919-2.948,20.76-1.238S7.02-318.889,7.02-318.889L.476-309.753s1.5,24.591.313,31.083c0,0-7.279.848-10.367-.367s-13.238-2.92-18.091-.691l.882-31.133Z" fill="#fff"/>
          <path id="Path_21006" data-name="Path 21006" d="M-4.348-278.184a16.053,16.053,0,0,1-5.3-.673c-3.039-1.2-13.089-2.922-17.939-.694a.194.194,0,0,1-.188-.014.2.2,0,0,1-.087-.168l.875-30.9-6.738,1.071a.2.2,0,0,1-.168-.055.2.2,0,0,1-.055-.167c.089-.572,2.26-14.057,9.884-17.484,7.5-3.373,17.876-3.07,20.939-1.227,2.83,1.7,9.983,9.155,10.286,9.471a.2.2,0,0,1,.018.248L.674-309.7c.087,1.451,1.449,24.789.306,31.06a.194.194,0,0,1-.168.159A49.666,49.666,0,0,1-4.348-278.184Zm-16.725-2.826a38.129,38.129,0,0,1,11.567,1.792c2.77,1.091,9.094.48,10.129.37C1.741-285.454.3-309.5.282-309.742a.2.2,0,0,1,.036-.125l6.449-9c-.938-.972-7.5-7.728-10.094-9.29-2.674-1.609-12.959-2.177-20.579,1.248-6.858,3.083-9.265,14.992-9.613,16.924l6.7-1.065a.194.194,0,0,1,.159.046.191.191,0,0,1,.066.151l-.873,30.828A17.439,17.439,0,0,1-21.073-281.01Z"/>
        </g>
        <path id="Path_21007" data-name="Path 21007" d="M-20.98-285.949a.2.2,0,0,1-.191-.161.193.193,0,0,1,.158-.225c11.574-2.046,14.953-10.06,14.986-10.141a.2.2,0,0,1,.253-.107.194.194,0,0,1,.107.253c-.033.083-3.482,8.293-15.279,10.378A.2.2,0,0,1-20.98-285.949Z"/>
        <path id="Path_21008" data-name="Path 21008" d="M-.075-300.029H-14.894l4.642-16.553H4.567Z"/>
        <g id="Group_11671" data-name="Group 11671">
          <path id="Path_21009" data-name="Path 21009" d="M-32.45-309.7l7.5-3.352s-1.057,12.707,14.117,6.839a10.823,10.823,0,0,1-.48-3.54c.079-1.908,1.22-.062,1.38,1.488s3.722.921,5.863.31,4.951-.211,0,2.52-6.036,1.513-6.036,1.513-6.322,8.847-14.189,6.968C-33.971-299.266-32.45-309.7-32.45-309.7Z" fill="#fff"/>
          <path id="Path_21010" data-name="Path 21010" d="M-22.1-296.5a9.61,9.61,0,0,1-2.24-.264,10.16,10.16,0,0,1-7.848-7.375,14.675,14.675,0,0,1-.455-5.588.2.2,0,0,1,.114-.149l7.5-3.353a.194.194,0,0,1,.192.019.2.2,0,0,1,.082.175c0,.046-.347,4.66,2.677,6.92,2.339,1.749,6.041,1.677,11.006-.213a11.022,11.022,0,0,1-.434-3.432c.01-.244.041-.986.492-1H-11c.586,0,1.161,1.473,1.264,2.476a.658.658,0,0,0,.308.5c.889.6,3.415.185,5.309-.356.993-.283,2.676-.472,2.965.229.247.6-.674,1.466-2.818,2.649-4.057,2.237-5.6,1.886-6.089,1.612C-10.88-302.589-15.82-296.5-22.1-296.5Zm-10.171-13.066a14.684,14.684,0,0,0,.46,5.332,9.678,9.678,0,0,0,7.561,7.092,9.237,9.237,0,0,0,2.154.254c6.641,0,11.776-7.067,11.832-7.146a.2.2,0,0,1,.148-.081.19.19,0,0,1,.155.065c.007.006,1.119,1.026,5.8-1.554,2.8-1.545,2.671-2.1,2.647-2.159-.12-.291-1.261-.357-2.5,0-1,.287-4.377,1.155-5.634.3a1.037,1.037,0,0,1-.476-.781A3.366,3.366,0,0,0-11-310.372a1.348,1.348,0,0,0-.115.627,10.745,10.745,0,0,0,.47,3.469.193.193,0,0,1-.113.244c-5.186,2.006-9.072,2.082-11.552.226-2.752-2.059-2.875-5.812-2.846-6.94Z"/>
        </g>
      </g>
      <g id="Group_11674" data-name="Group 11674">
        <path id="Path_21011" data-name="Path 21011" d="M-12.431-333.43c-.648.593-1.914,1.317-2.906.818a2.571,2.571,0,0,1-1.124-2.438,1.482,1.482,0,0,1-1.11-.278c-.492-.435-.4-1.236-.381-1.762.089-2.427-1.321-2.8-.976-4.447a3.92,3.92,0,0,1,1.478-2.211c.961-.728,1.611-.493,3.225-.916,2.717-.711,2.8-1.882,4.593-1.888.1,0,2.539.027,3.366,1.71.672,1.368-.113,3.032-.925,3.9-1.052,1.132-1.806.573-2.862,1.522C-11.9-337.749-10.506-335.192-12.431-333.43Z"/>
        <g id="Group_11673" data-name="Group 11673">
          <path id="Path_21012" data-name="Path 21012" d="M-7.01-337.762l-.107-.092a3.325,3.325,0,0,1-1.24-1.7c-.606-2.955-3.313-4.027-3.438-1.314-.032.685-2.532.649-2.235,1.368.773,1.874.79,1.37-.3,2.06a.946.946,0,0,0-.362.086,1.252,1.252,0,0,0-.443,1.7,1.448,1.448,0,0,0,.889.8v2.961a2.732,2.732,0,0,1-1.7,2.529l-1,.409a8.649,8.649,0,0,0,9.393-.3l-.632-.283a3.186,3.186,0,0,1-1.88-2.807l-.005-.579A2.457,2.457,0,0,0-9.159-333c1.323-.385,1.762-1.909,1.537-3.8l.539-.289A.408.408,0,0,0-7.01-337.762Z" fill="#fff"/>
          <path id="Path_21013" data-name="Path 21013" d="M-12.337-327.506a9.507,9.507,0,0,1-4.715-1.29.192.192,0,0,1-.087-.181.193.193,0,0,1,.12-.161l1-.409a2.528,2.528,0,0,0,1.578-2.349v-2.822a1.661,1.661,0,0,1-.871-.853,1.446,1.446,0,0,1,.537-1.956,1.148,1.148,0,0,1,.383-.1c.181-.112.329-.191.449-.256.138-.073.268-.143.272-.178a2.616,2.616,0,0,0-.249-.682c-.08-.183-.176-.406-.289-.679a.452.452,0,0,1,.005-.379c.15-.308.633-.443,1.193-.6.4-.113,1.014-.285,1.023-.472.068-1.494.85-1.716,1.183-1.742.956-.075,2.236,1.061,2.64,3.026A3.159,3.159,0,0,0-6.99-338l.107.093a.6.6,0,0,1,.2.521.6.6,0,0,1-.313.464l-.423.227c.217,2.094-.395,3.506-1.691,3.883a2.587,2.587,0,0,1-.769.1l0,.371A3.008,3.008,0,0,0-8.1-329.717l.631.283a.2.2,0,0,1,.114.159.2.2,0,0,1-.081.178A8.352,8.352,0,0,1-12.337-327.506ZM-16.5-328.93a8.451,8.451,0,0,0,8.551-.291l-.313-.141a3.4,3.4,0,0,1-1.995-2.978l-.006-.583a.2.2,0,0,1,.063-.145.193.193,0,0,1,.149-.05,2.283,2.283,0,0,0,.839-.069c1.122-.327,1.632-1.637,1.4-3.6a.2.2,0,0,1,.1-.194l.539-.29a.208.208,0,0,0,.111-.164.213.213,0,0,0-.073-.184h0l-.107-.092a3.481,3.481,0,0,1-1.3-1.8c-.35-1.7-1.436-2.779-2.229-2.717-.486.038-.787.539-.825,1.373-.021.468-.646.643-1.306.828-.369.1-.875.245-.948.4,0,.008-.011.022,0,.06.112.27.208.491.287.673.365.841.441,1.017-.2,1.357-.125.067-.279.149-.468.268a.178.178,0,0,1-.1.03.767.767,0,0,0-.289.069,1.061,1.061,0,0,0-.348,1.439,1.257,1.257,0,0,0,.766.691.2.2,0,0,1,.141.187v2.961a2.915,2.915,0,0,1-1.82,2.709Z"/>
        </g>
        <path id="Path_21014" data-name="Path 21014" d="M-10.07-332.73a.152.152,0,0,1-.03,0,4.057,4.057,0,0,1-2.8-1.809.194.194,0,0,1,.072-.265.194.194,0,0,1,.265.07,3.725,3.725,0,0,0,2.522,1.62.2.2,0,0,1,.163.222A.2.2,0,0,1-10.07-332.73Z"/>
      </g>
    </g>
    <g id="Group_11696" data-name="Group 11696">
      <g id="Group_11680" data-name="Group 11680">
        <g id="Group_11676" data-name="Group 11676">
          <path id="Path_21015" data-name="Path 21015" d="M-31.461-236.465l-2.952,30.228-2.107-.088,1.047-31.778Z" fill="#fff"/>
          <path id="Path_21016" data-name="Path 21016" d="M-34.413-206.042h-.008l-2.107-.088a.2.2,0,0,1-.186-.2l1.047-31.778a.2.2,0,0,1,.088-.157.2.2,0,0,1,.18-.017l4.012,1.638a.2.2,0,0,1,.12.2l-2.952,30.229A.194.194,0,0,1-34.413-206.042Zm-1.906-.469,1.731.073,2.92-29.9-3.62-1.478Z"/>
        </g>
        <g id="Group_11677" data-name="Group 11677">
          <path id="Path_21017" data-name="Path 21017" d="M-71.059-237.552l2.881,31.391,2.178-.164-1.047-32.925Z" fill="#fff"/>
          <path id="Path_21018" data-name="Path 21018" d="M-68.178-205.967a.193.193,0,0,1-.193-.176l-2.881-31.391a.194.194,0,0,1,.118-.2l4.012-1.7a.194.194,0,0,1,.18.015.2.2,0,0,1,.09.158l1.047,32.924a.2.2,0,0,1-.18.2l-2.178.164Zm-2.674-31.461L-68-206.369l1.8-.136-1.032-32.455Z"/>
        </g>
        <g id="Group_11678" data-name="Group 11678">
          <path id="Path_21019" data-name="Path 21019" d="M-81.087-244.939l.847,32.963,1.7-.369,1.56-34.162Z" fill="#fff"/>
          <path id="Path_21020" data-name="Path 21020" d="M-80.239-211.781a.193.193,0,0,1-.12-.042.2.2,0,0,1-.075-.148l-.847-32.963a.194.194,0,0,1,.125-.186l4.108-1.568a.2.2,0,0,1,.183.024.2.2,0,0,1,.08.167l-1.559,34.161a.2.2,0,0,1-.153.182l-1.7.368A.2.2,0,0,1-80.239-211.781Zm-.65-33.025.838,32.59,1.325-.287,1.539-33.716Z"/>
        </g>
        <path id="Path_21021" data-name="Path 21021" d="M-47.856-245.676l.847,32.963,1.767.01,1.493-34.54Z" fill="#fff"/>
        <g id="Group_11679" data-name="Group 11679">
          <path id="Path_21022" data-name="Path 21022" d="M-56.394-271.42v7.67A13.4,13.4,0,0,0-43.18-250.168a13.4,13.4,0,0,1,13.214,13.582,1.209,1.209,0,0,1-1.208,1.21H-66.152c-10.941,0-19.81-9.116-19.81-20.361V-272.1a7.991,7.991,0,0,1,7.879-8.1h13.146A8.664,8.664,0,0,1-56.394-271.42Z" fill="#fff"/>
          <path id="Path_21023" data-name="Path 21023" d="M-31.174-235.181H-66.152c-11.03,0-20-9.222-20-20.556V-272.1a8.2,8.2,0,0,1,8.073-8.293h13.146A8.868,8.868,0,0,1-56.2-271.42v7.67a13.223,13.223,0,0,0,13.02,13.388,13.611,13.611,0,0,1,13.408,13.776A1.406,1.406,0,0,1-31.174-235.181Zm-46.909-44.825a7.805,7.805,0,0,0-7.684,7.9v16.365c0,11.12,8.8,20.167,19.615,20.167h34.978a1.016,1.016,0,0,0,1.013-1.016A13.222,13.222,0,0,0-43.18-249.974,13.612,13.612,0,0,1-56.589-263.75v-7.67a8.479,8.479,0,0,0-8.348-8.586Z"/>
        </g>
      </g>
      <g id="Group_11695" data-name="Group 11695">
        <g id="Group_11681" data-name="Group 11681">
          <path id="Path_21024" data-name="Path 21024" d="M-89.349-285.73a2.64,2.64,0,0,1-1.306-1.139c-.44-.784-.675-2.04.313-3.835,2.233-4.053,5.961-2.137,7.387-2.606,3.2-1.053,2.44-2.78,3.738-4.459.971-1.256,4.326-3.626,9.421.788,0,0,2.288,3.123,4.882,1.935,3.185-1.46,9.588,1.843,7.565,6.753a5.818,5.818,0,0,1-2.915,3.1,8.161,8.161,0,0,1-.762.306,2.546,2.546,0,0,0-1.615,1.9c-.652,2.99-3.118,8.763-12.269,2.954a2.3,2.3,0,0,0-2.222-.162c-.877.407-1.829,1.986-6.059,1.319-2.717-.428-3.581-3.59-4.3-5.029A3.682,3.682,0,0,0-89.349-285.73Z"/>
        </g>
        <g id="Group_11684" data-name="Group 11684">
          <g id="Group_11682" data-name="Group 11682">
            <path id="Path_21025" data-name="Path 21025" d="M-42.293-263.661c-3.6,1.125-10.493-2-11.669-7.235a16.994,16.994,0,0,0-2.953-6.955,5.258,5.258,0,0,0-1.092-1.3c-3.352-2.947-9.158-1.993-11.67-1.58-2.85.468-5.211.856-6.817,2.664a4.965,4.965,0,0,0-.936,1.519v0c-3.068,5.776-.582,11.739.952,14.494.253,11.046-3.4,9.31-2.411,14.215,1.392,6.909,12.519,4.327,16.567,3.444,1.42-.31,8.856,1.9,10.673-3.838,1.061-3.348-.955-4.894-2.735-10.589,9.118,5.667,15.89-4,15.89-4l.7-3.387A12.946,12.946,0,0,1-42.293-263.661Z" fill="#fff"/>
            <path id="Path_21026" data-name="Path 21026" d="M-71-242.991a10.671,10.671,0,0,1-5.776-1.344,5.213,5.213,0,0,1-2.306-3.471,5.483,5.483,0,0,1,.658-4.356c.8-1.557,1.886-3.689,1.75-9.845-1.67-3.017-3.981-8.89-.932-14.635a5.17,5.17,0,0,1,.965-1.557c1.652-1.859,4.1-2.261,6.93-2.727,2.517-.413,8.409-1.381,11.83,1.626a5.451,5.451,0,0,1,1.125,1.338,17.235,17.235,0,0,1,2.982,7.024,9.364,9.364,0,0,0,4.675,5.787c2.33,1.345,4.978,1.857,6.746,1.3a12.907,12.907,0,0,0,4.427-2.506.2.2,0,0,1,.228-.028.2.2,0,0,1,.095.209l-.7,3.388a.2.2,0,0,1-.031.072,16.827,16.827,0,0,1-4.585,4.178,10.459,10.459,0,0,1-11.121.137,44.236,44.236,0,0,0,1.634,4.168c1,2.284,1.659,3.793.944,6.049-1.479,4.667-6.546,4.244-9.268,4.017a7.384,7.384,0,0,0-1.55-.047l-.253.055A40.928,40.928,0,0,1-71-242.991Zm-6.271-33.451c-2.964,5.6-.671,11.356.961,14.289a.2.2,0,0,1,.024.09c.144,6.29-.975,8.48-1.791,10.078a5.108,5.108,0,0,0-.624,4.1,4.84,4.84,0,0,0,2.137,3.222c3.646,2.38,10.6.858,13.945.127l.254-.056a7.081,7.081,0,0,1,1.664.039c2.8.234,7.48.624,8.865-3.746.671-2.117.068-3.5-.929-5.777a42.874,42.874,0,0,1-1.806-4.7.2.2,0,0,1,.066-.212.194.194,0,0,1,.222-.011,10.009,10.009,0,0,0,11.15.131,16.46,16.46,0,0,0,4.455-4.043l.579-2.794a13.169,13.169,0,0,1-4.138,2.222c-1.867.584-4.637.059-7.057-1.338a9.759,9.759,0,0,1-4.86-6.039,16.779,16.779,0,0,0-2.914-6.875l-.017-.024a5.034,5.034,0,0,0-1.053-1.256c-3.282-2.886-9.047-1.939-11.509-1.534-2.874.472-5.143.845-6.7,2.6a4.771,4.771,0,0,0-.9,1.46A.181.181,0,0,1-77.269-276.442Zm34.976,12.781h0Z"/>
          </g>
          <g id="Group_11683" data-name="Group 11683">
            <path id="Path_21027" data-name="Path 21027" d="M-58.2-264.564s6.565-2.393,8.615-6.768l4.226-3.938a3.645,3.645,0,0,1-1.314,2.7s1.077,2.169-.513,3.666a4.766,4.766,0,0,1-1.9.965s-2.082,6.836-7.7,8.871A9.991,9.991,0,0,1-58.2-264.564Z" fill="#fff"/>
            <path id="Path_21028" data-name="Path 21028" d="M-56.79-258.875a.2.2,0,0,1-.163-.088,10.087,10.087,0,0,1-1.443-5.611.194.194,0,0,1,.128-.172c.065-.024,6.514-2.418,8.505-6.669a.2.2,0,0,1,.044-.06l4.226-3.937a.191.191,0,0,1,.212-.035.192.192,0,0,1,.114.183,3.9,3.9,0,0,1-1.267,2.762,3.382,3.382,0,0,1-.621,3.738,5.378,5.378,0,0,1-1.891,1.005c-.321.947-2.556,6.98-7.778,8.872A.192.192,0,0,1-56.79-258.875Zm-1.223-5.552a9.942,9.942,0,0,0,1.305,5.119c5.353-2.046,7.411-8.623,7.432-8.689a.193.193,0,0,1,.181-.138,4.405,4.405,0,0,0,1.786-.923,3.031,3.031,0,0,0,.459-3.428.2.2,0,0,1,.07-.25,3.02,3.02,0,0,0,1.162-2.029l-3.809,3.549C-51.373-267.117-57.078-264.786-58.013-264.427Z"/>
          </g>
          <path id="Path_21029" data-name="Path 21029" d="M-64.12-256.9a13.844,13.844,0,0,1-8.652-2.747.194.194,0,0,1-.017-.274.2.2,0,0,1,.275-.017c.055.049,5.643,4.854,14.943,1.4a.2.2,0,0,1,.25.114.194.194,0,0,1-.115.25A19.123,19.123,0,0,1-64.12-256.9Z"/>
          <path id="Path_21030" data-name="Path 21030" d="M-60.762-264.3a10.37,10.37,0,0,1-9.06-5.107,17.115,17.115,0,0,1-2.268-5.834.194.194,0,0,1,.162-.221.193.193,0,0,1,.222.162,16.748,16.748,0,0,0,2.218,5.695,9.94,9.94,0,0,0,10.045,4.848.2.2,0,0,1,.214.174.2.2,0,0,1-.174.213Q-60.108-264.3-60.762-264.3Z"/>
          <path id="Path_21031" data-name="Path 21031" d="M-57.066-267.746l-.028,0a.2.2,0,0,1-.164-.221c.857-5.86-1.825-9.176-1.852-9.209a.2.2,0,0,1,.026-.274.2.2,0,0,1,.273.025c.116.139,2.821,3.472,1.937,9.514A.2.2,0,0,1-57.066-267.746Z"/>
        </g>
        <g id="Group_11687" data-name="Group 11687">
          <g id="Group_11685" data-name="Group 11685">
            <path id="Path_21032" data-name="Path 21032" d="M-58.277-284.215a42.123,42.123,0,0,1,.056-4.382c-.522.767-2.243-.14-3.793-.2s-1.029,2.267-1.029,2.267-.453-1.58-1.421-.591c-.561.574.058,1.314.634,1.8-.158.18-2.95,3.189-4.66,4.979l3.793,2.878,1.9-1.773-.387-.617a1.478,1.478,0,0,1-.066-1.455l.929-1.574a4.143,4.143,0,0,0,.731.726,1.193,1.193,0,0,0,1.546-.125,4.4,4.4,0,0,0,1.206-1.835Z" fill="#fff"/>
            <path id="Path_21033" data-name="Path 21033" d="M-64.7-277.271a.191.191,0,0,1-.118-.04l-3.793-2.879a.192.192,0,0,1-.076-.139.2.2,0,0,1,.053-.15c1.562-1.634,3.932-4.185,4.524-4.828a2.076,2.076,0,0,1-.771-1.262.894.894,0,0,1,.275-.689.953.953,0,0,1,.913-.363.827.827,0,0,1,.369.214,1.946,1.946,0,0,1,.352-1.2,1.128,1.128,0,0,1,.962-.386,9.7,9.7,0,0,1,1.739.288c.875.2,1.63.374,1.887,0a.2.2,0,0,1,.225-.076c.153.052.153.052.1.906a24.915,24.915,0,0,0-.034,3.632.193.193,0,0,1-.159.22l-.446.076a4.672,4.672,0,0,1-1.221,1.8A1.389,1.389,0,0,1-61.7-282a3.639,3.639,0,0,1-.59-.552l-.79,1.34a1.285,1.285,0,0,0,.062,1.253l.387.616a.2.2,0,0,1-.032.246l-1.9,1.773A.191.191,0,0,1-64.7-277.271Zm-3.5-3.1,3.489,2.648,1.662-1.552-.3-.481a1.678,1.678,0,0,1-.074-1.646l.934-1.585a.2.2,0,0,1,.153-.1.2.2,0,0,1,.165.07,3.878,3.878,0,0,0,.692.691,1,1,0,0,0,1.3-.106,4.191,4.191,0,0,0,1.155-1.752.194.194,0,0,1,.153-.135l.379-.065a28.76,28.76,0,0,1,.054-3.522c.005-.1.011-.2.016-.29a3.539,3.539,0,0,1-1.932-.137,9.23,9.23,0,0,0-1.667-.279.752.752,0,0,0-.648.247,2.5,2.5,0,0,0-.183,1.783.2.2,0,0,1-.141.231.2.2,0,0,1-.235-.134c-.051-.176-.263-.693-.557-.767-.152-.039-.334.048-.539.258a.516.516,0,0,0-.165.4,1.882,1.882,0,0,0,.785,1.116.2.2,0,0,1,.069.134.192.192,0,0,1-.048.143C-63.83-285.028-66.446-282.207-68.2-280.368Z"/>
          </g>
          <g id="Group_11686" data-name="Group 11686">
            <path id="Path_21034" data-name="Path 21034" d="M-62.619-283.3l.3.414Z" fill="#fff"/>
            <path id="Path_21035" data-name="Path 21035" d="M-62.322-282.691a.194.194,0,0,1-.158-.081l-.3-.414a.2.2,0,0,1,.045-.271.2.2,0,0,1,.271.045l.3.414a.194.194,0,0,1-.045.271A.19.19,0,0,1-62.322-282.691Z"/>
          </g>
        </g>
        <g id="Group_11694" data-name="Group 11694">
          <g id="Group_11688" data-name="Group 11688">
            <path id="Path_21036" data-name="Path 21036" d="M-29.641-221.8c-.037.155,1.78,8.469,1.78,8.469l-4.176-.7-1.258-7.03Z" fill="#fff"/>
            <path id="Path_21037" data-name="Path 21037" d="M-27.861-213.14a.166.166,0,0,1-.032,0l-4.177-.7a.2.2,0,0,1-.159-.158l-1.258-7.029a.2.2,0,0,1,.153-.225l3.655-.74a.191.191,0,0,1,.178.055.192.192,0,0,1,.054.145c.029.345,1.075,5.211,1.776,8.418a.193.193,0,0,1-.049.175A.2.2,0,0,1-27.861-213.14ZM-31.87-214.2l3.758.629c-1.241-5.683-1.593-7.439-1.687-8l-3.272.662Z"/>
          </g>
          <g id="Group_11690" data-name="Group 11690">
            <g id="Group_11689" data-name="Group 11689">
              <path id="Path_21038" data-name="Path 21038" d="M-30.079-216.062a1.8,1.8,0,0,1,1.086-.444,1.736,1.736,0,0,1,1.628,1.052,42.612,42.612,0,0,1,3.173,9.758c.191,1.295-.786,2.348-2.309,1.5a18.632,18.632,0,0,1-7.771-9.3,1.709,1.709,0,0,1,.208-1.62,8.157,8.157,0,0,1,1.1-1.238,1.142,1.142,0,0,1,1.488-.023l.392.322A.787.787,0,0,0-30.079-216.062Z" fill="#fff"/>
              <path id="Path_21039" data-name="Path 21039" d="M-25.473-203.7a2.308,2.308,0,0,1-1.123-.332,18.761,18.761,0,0,1-7.857-9.4,1.893,1.893,0,0,1,.232-1.805A8.218,8.218,0,0,1-33.1-216.5a1.329,1.329,0,0,1,1.74-.029l.393.323a.593.593,0,0,0,.759-.006,2,2,0,0,1,1.2-.49,1.944,1.944,0,0,1,1.814,1.167A42.531,42.531,0,0,1-24-205.725a1.8,1.8,0,0,1-.647,1.782A1.44,1.44,0,0,1-25.473-203.7Zm-6.74-12.753a.933.933,0,0,0-.624.239A7.874,7.874,0,0,0-33.907-215a1.506,1.506,0,0,0-.183,1.436,18.358,18.358,0,0,0,7.683,9.2,1.439,1.439,0,0,0,1.539.1,1.417,1.417,0,0,0,.484-1.4,42.128,42.128,0,0,0-3.159-9.707,1.546,1.546,0,0,0-1.442-.937,1.594,1.594,0,0,0-.969.4.981.981,0,0,1-1.256.008l-.393-.322A.955.955,0,0,0-32.213-216.448Z"/>
            </g>
            <path id="Path_21040" data-name="Path 21040" d="M-25.142-205.155c-.329,0-3.85-.206-8.12-8.645a.194.194,0,0,1,.085-.262.194.194,0,0,1,.261.086c4.28,8.459,7.743,8.433,7.78,8.432a.191.191,0,0,1,.2.187.2.2,0,0,1-.187.2Z"/>
            <path id="Path_21041" data-name="Path 21041" d="M-27.815-209.8a.2.2,0,0,1-.181-.123.194.194,0,0,1,.11-.252l1.979-.781a.194.194,0,0,1,.253.109.194.194,0,0,1-.11.252l-1.979.782A.2.2,0,0,1-27.815-209.8Z"/>
            <path id="Path_21042" data-name="Path 21042" d="M-28.509-211.318a.2.2,0,0,1-.181-.124.194.194,0,0,1,.111-.251l2.322-.9a.2.2,0,0,1,.252.111.2.2,0,0,1-.111.252l-2.322.9A.194.194,0,0,1-28.509-211.318Z"/>
          </g>
          <g id="Group_11691" data-name="Group 11691">
            <path id="Path_21043" data-name="Path 21043" d="M-47.612-221.049c-.1.125-1.945,8.433-1.945,8.433l-3.495-2.39,1.813-6.907Z" fill="#fff"/>
            <path id="Path_21044" data-name="Path 21044" d="M-49.557-212.422a.19.19,0,0,1-.109-.034l-3.5-2.389a.2.2,0,0,1-.078-.21l1.813-6.907a.193.193,0,0,1,.233-.14l3.627.864a.2.2,0,0,1,.139.126.19.19,0,0,1-.012.153c-.119.326-1.215,5.181-1.927,8.385a.2.2,0,0,1-.118.139A.2.2,0,0,1-49.557-212.422Zm-3.272-2.667,3.145,2.15c1.263-5.678,1.682-7.419,1.832-7.967l-3.247-.774Z"/>
          </g>
          <g id="Group_11693" data-name="Group 11693">
            <g id="Group_11692" data-name="Group 11692">
              <path id="Path_21045" data-name="Path 21045" d="M-50.423-216.023a1.811,1.811,0,0,1,1.172.053,1.735,1.735,0,0,1,1.035,1.639,42.557,42.557,0,0,1-1.222,10.188c-.371,1.256-1.7,1.8-2.726.391a18.634,18.634,0,0,1-3.142-11.705,1.712,1.712,0,0,1,.87-1.383,8.1,8.1,0,0,1,1.516-.661,1.141,1.141,0,0,1,1.359.6l.221.458A.786.786,0,0,0-50.423-216.023Z" fill="#fff"/>
              <path id="Path_21046" data-name="Path 21046" d="M-50.818-202.724a1.866,1.866,0,0,1-1.5-.914A18.762,18.762,0,0,1-55.5-215.47a1.9,1.9,0,0,1,.97-1.54,8.218,8.218,0,0,1,1.553-.677,1.328,1.328,0,0,1,1.591.705l.221.458a.594.594,0,0,0,.691.314,2,2,0,0,1,1.3.06,1.939,1.939,0,0,1,1.155,1.821,42.45,42.45,0,0,1-1.23,10.241,1.8,1.8,0,0,1-1.336,1.345A1.4,1.4,0,0,1-50.818-202.724Zm-1.77-14.633a.949.949,0,0,0-.276.042,7.836,7.836,0,0,0-1.478.645,1.508,1.508,0,0,0-.77,1.226,18.355,18.355,0,0,0,3.106,11.577,1.435,1.435,0,0,0,1.352.74,1.417,1.417,0,0,0,1.03-1.071,42.188,42.188,0,0,0,1.214-10.135,1.548,1.548,0,0,0-.915-1.457,1.593,1.593,0,0,0-1.047-.045.982.982,0,0,1-1.143-.521l-.221-.457A.946.946,0,0,0-52.588-217.357Z"/>
            </g>
            <path id="Path_21047" data-name="Path 21047" d="M-50.434-204.028a.2.2,0,0,1-.075-.015c-.139-.059-3.416-1.547-3.753-11.266a.194.194,0,0,1,.188-.2.2.2,0,0,1,.2.188c.328,9.472,3.483,10.907,3.515,10.921a.193.193,0,0,1,.1.254A.193.193,0,0,1-50.434-204.028Z"/>
            <path id="Path_21048" data-name="Path 21048" d="M-48.793-209.249h-.012l-2.125-.123a.2.2,0,0,1-.182-.206.194.194,0,0,1,.2-.183l2.125.124a.194.194,0,0,1,.183.2A.194.194,0,0,1-48.793-209.249Z"/>
            <path id="Path_21049" data-name="Path 21049" d="M-48.423-210.884h-.013l-2.486-.156a.194.194,0,0,1-.182-.206.194.194,0,0,1,.206-.182l2.487.156a.2.2,0,0,1,.182.206A.2.2,0,0,1-48.423-210.884Z"/>
          </g>
          <path id="Path_21050" data-name="Path 21050" d="M-67.146-253.795s25.431-1.1,28.211,1.478c3.772,3.5,10.25,32.656,10.25,32.656l-6.255,1.753s-9.425-23.926-11.761-23.926-24.353-.785-24.353-.785Z"/>
          <path id="Path_21051" data-name="Path 21051" d="M-68.827-254.431a4.182,4.182,0,0,0-4.279,3.2c-.733,3.031-1.367,7.175.273,8.279,2.669,1.8,21.907,1.643,21.24,1.419s-1.72,16.122-1.72,22.408l6.057.233s9.653-25.28,8.613-28.1c-1.862-5.05-16.192-6.207-20.777-6.883C-60.036-253.971-65.265-254.249-68.827-254.431Z"/>
          <path id="Path_21052" data-name="Path 21052" d="M-41.842-233.089a.207.207,0,0,1-.06-.009.194.194,0,0,1-.125-.245c.217-.68.434-1.349.646-2,1.695-5.238,3.159-9.761,2.553-11.59-1.287-3.884-10.91-5.373-14.073-5.862a.194.194,0,0,1-.162-.222.194.194,0,0,1,.222-.162c5.589.865,13.161,2.44,14.382,6.123.646,1.95-.765,6.312-2.552,11.833q-.318.982-.646,2A.2.2,0,0,1-41.842-233.089Z" fill="#fff"/>
        </g>
      </g>
    </g>
    <g id="Group_11717" data-name="Group 11717">
      <g id="Group_11702" data-name="Group 11702">
        <g id="Group_11697" data-name="Group 11697">
          <path id="Path_21053" data-name="Path 21053" d="M13.863-240.951l2.952,30.228,2.107-.088-1.047-31.778Z" fill="#fff"/>
          <path id="Path_21054" data-name="Path 21054" d="M16.815-210.528a.2.2,0,0,1-.194-.175l-2.952-30.229a.2.2,0,0,1,.12-.2l4.012-1.638a.2.2,0,0,1,.18.017.2.2,0,0,1,.088.157l1.047,31.778a.2.2,0,0,1-.186.2l-2.107.089Zm-2.745-30.3,2.92,29.9L18.721-211,17.69-242.3Z"/>
        </g>
        <g id="Group_11698" data-name="Group 11698">
          <path id="Path_21055" data-name="Path 21055" d="M53.461-242.038,50.58-210.647l-2.178-.164,1.047-32.925Z" fill="#fff"/>
          <path id="Path_21056" data-name="Path 21056" d="M50.58-210.453h-.015l-2.178-.164a.194.194,0,0,1-.179-.2l1.046-32.925a.193.193,0,0,1,.09-.157.189.189,0,0,1,.18-.015l4.012,1.7a.193.193,0,0,1,.118.2l-2.881,31.392A.194.194,0,0,1,50.58-210.453Zm-1.978-.538,1.8.136,2.85-31.06-3.62-1.531Z"/>
        </g>
        <g id="Group_11699" data-name="Group 11699">
          <path id="Path_21057" data-name="Path 21057" d="M63.489-249.425l-.847,32.963-1.7-.369-1.56-34.162Z" fill="#fff"/>
          <path id="Path_21058" data-name="Path 21058" d="M62.641-216.268a.2.2,0,0,1-.041,0l-1.7-.369a.2.2,0,0,1-.153-.181l-1.559-34.161a.194.194,0,0,1,.08-.167.2.2,0,0,1,.183-.024l4.108,1.567a.2.2,0,0,1,.125.187l-.847,32.963a.2.2,0,0,1-.075.148A.192.192,0,0,1,62.641-216.268Zm-1.513-.721,1.325.287.838-32.59-3.7-1.413Z"/>
        </g>
        <g id="Group_11700" data-name="Group 11700">
          <path id="Path_21059" data-name="Path 21059" d="M30.258-250.162,29.411-217.2l-1.767.01-1.493-34.54Z" fill="#fff"/>
          <path id="Path_21060" data-name="Path 21060" d="M27.644-216.995a.2.2,0,0,1-.195-.186l-1.493-34.54a.192.192,0,0,1,.081-.166.2.2,0,0,1,.183-.024l4.107,1.567a.194.194,0,0,1,.125.187L29.6-217.194a.194.194,0,0,1-.193.189l-1.767.01Zm-1.287-34.447,1.473,34.057,1.391-.008.839-32.637Z"/>
        </g>
        <g id="Group_11701" data-name="Group 11701">
          <path id="Path_21061" data-name="Path 21061" d="M38.8-275.906v7.67a13.4,13.4,0,0,1-13.214,13.582,13.4,13.4,0,0,0-13.214,13.582,1.209,1.209,0,0,0,1.208,1.21H48.554c10.941,0,19.81-9.116,19.81-20.361v-16.365a7.992,7.992,0,0,0-7.879-8.1H47.339A8.665,8.665,0,0,0,38.8-275.906Z" fill="#fff"/>
          <path id="Path_21062" data-name="Path 21062" d="M48.554-239.668H13.576a1.4,1.4,0,0,1-1.4-1.4,13.612,13.612,0,0,1,13.408-13.777A13.222,13.222,0,0,0,38.6-268.236v-7.67a8.868,8.868,0,0,1,8.737-8.975H60.485a8.2,8.2,0,0,1,8.073,8.293v16.365C68.558-248.889,59.585-239.668,48.554-239.668Zm-1.215-44.824a8.479,8.479,0,0,0-8.348,8.586v7.67A13.612,13.612,0,0,1,25.582-254.46a13.222,13.222,0,0,0-13.019,13.388,1.016,1.016,0,0,0,1.013,1.016H48.554c10.816,0,19.615-9.047,19.615-20.167v-16.365a7.8,7.8,0,0,0-7.684-7.9Z"/>
        </g>
      </g>
      <g id="Group_11716" data-name="Group 11716">
        <g id="Group_11708" data-name="Group 11708">
          <g id="Group_11703" data-name="Group 11703">
            <path id="Path_21063" data-name="Path 21063" d="M36.3-275.545s-1.907,17.333-14.71,18.467l14.71.209s5.446-11.049,5.667-15.351S36.3-275.545,36.3-275.545Z" fill="#fff"/>
            <path id="Path_21064" data-name="Path 21064" d="M36.3-256.674h0l-14.71-.209a.194.194,0,0,1-.191-.188.2.2,0,0,1,.177-.2c6.517-.577,10.119-5.505,11.992-9.537a31.748,31.748,0,0,0,2.541-8.757.2.2,0,0,1,.162-.17c.133-.023,3.29-.527,4.94.946a3.064,3.064,0,0,1,.953,2.58c-.22,4.293-5.464,14.975-5.687,15.427A.2.2,0,0,1,36.3-256.674Zm-12.566-.568,12.445.177c.567-1.165,5.389-11.18,5.594-15.165a2.7,2.7,0,0,0-.824-2.27c-1.325-1.183-3.85-.952-4.475-.873a32.4,32.4,0,0,1-2.552,8.718C31.551-261.547,28.057-258.331,23.734-257.242Z"/>
          </g>
          <path id="Path_21065" data-name="Path 21065" d="M54.521-286.56c-2.484-.585-3.52-.592-12.548-.265-2.206.08-4.831,2.853-5.091,5.048.7,2.106,3.938,12.5-1.712,20.625a17.546,17.546,0,0,1-3.388,3.628,11.354,11.354,0,0,0,3.9,2.089c2.913.866,4.378-.07,6.725,0,6.21.185,8.486,7.109,12.5,6.239,1.071-.232,2.49-1.068,3.821-3.873a43.3,43.3,0,0,0,1.8-8.145A44.718,44.718,0,0,0,58.4-280.921C57.96-282.3,57.449-285.871,54.521-286.56Z"/>
          <path id="Path_21066" data-name="Path 21066" d="M34.617-273.6s1.46-11.72,5.667-12.721l-.966,15.417Z"/>
          <g id="Group_11705" data-name="Group 11705">
            <g id="Group_11704" data-name="Group 11704">
              <path id="Path_21067" data-name="Path 21067" d="M56-276.731c1.922.815,4.179,1.775,6.168,2.629v.074L56-276.689Z" fill="#fff"/>
              <path id="Path_21068" data-name="Path 21068" d="M62.17-273.834a.19.19,0,0,1-.077-.016l-6.167-2.661a.2.2,0,0,1-.117-.169l0-.041a.194.194,0,0,1,.083-.169.2.2,0,0,1,.187-.02c2.348.995,4.481,1.9,6.168,2.629a.2.2,0,0,1,.118.174v.075a.191.191,0,0,1-.086.165A.191.191,0,0,1,62.17-273.834Z"/>
            </g>
          </g>
          <path id="Path_21069" data-name="Path 21069" d="M63.247-271.454a94.6,94.6,0,0,0-1.012-9.652c-1.264-5.659-8.59-5.719-8.59-5.719l1.28,14.4Z"/>
          <g id="Group_11707" data-name="Group 11707">
            <g id="Group_11706" data-name="Group 11706">
              <path id="Path_21070" data-name="Path 21070" d="M47.337-287.785l-.248-3.522c-.168-.011-.284-.018-.319-.019-.981-.011-1.3-.329-1.384-1.136a6.014,6.014,0,0,1,.174-2.192.467.467,0,0,0-.02-.3l-.168-.393a.343.343,0,0,1,.113-.353l.09-.074a3.559,3.559,0,0,0,.8-.944c.2-.33.53-.948.759-1.058.645-.308,3.261-1.678,4.723.716,1.14,1.867-.723,4.436-1.4,5.278a29.955,29.955,0,0,0,1.1,4.193l1.641.4s-1.266,2.251-5.111,1.32c-2.738-.663-2.3-1.683-2.3-1.683Z" fill="#fff"/>
              <path id="Path_21071" data-name="Path 21071" d="M49.864-285.451a7.748,7.748,0,0,1-1.819-.234c-1.3-.314-2.1-.755-2.376-1.309a.783.783,0,0,1-.06-.639.2.2,0,0,1,.15-.116l1.371-.2-.223-3.173c-.071,0-.119-.007-.139-.007-1.05-.012-1.477-.368-1.576-1.311a6.226,6.226,0,0,1,.18-2.261.274.274,0,0,0-.011-.177l-.168-.393-.008-.026a.536.536,0,0,1,.177-.554l.089-.073a3.4,3.4,0,0,0,.756-.893l.088-.15a2.644,2.644,0,0,1,.754-.984l.069-.033c2.255-1.091,3.9-.814,4.9.823,1.16,1.9-.56,4.429-1.387,5.466a31.878,31.878,0,0,0,1.079,3.943l1.534.371a.2.2,0,0,1,.132.112.2.2,0,0,1-.008.173A3.894,3.894,0,0,1,49.864-285.451Zm-3.907-1.934a.531.531,0,0,0,.069.235c.133.247.584.718,2.111,1.087,2.936.711,4.305-.5,4.737-1.01l-1.358-.329a.2.2,0,0,1-.14-.13c-1.3-4.089-1.146-4.281-1.071-4.374.764-.95,2.429-3.345,1.385-5.055-1.322-2.165-3.641-1.043-4.4-.675l-.07.034a3.332,3.332,0,0,0-.586.829l-.09.152a3.77,3.77,0,0,1-.843,1l-.089.073a.148.148,0,0,0-.051.142l.161.378a.664.664,0,0,1,.029.427,5.846,5.846,0,0,0-.169,2.122c.069.657.258.952,1.194.963.035,0,.155.007.329.02a.194.194,0,0,1,.181.18l.248,3.521a.2.2,0,0,1-.166.206Z"/>
            </g>
            <path id="Path_21072" data-name="Path 21072" d="M51.05-300.106c-.709-.153-1.524-.044-1.868-.17-.555-.2-.57-.87-1.338-1.057a1.358,1.358,0,0,0-1.681.724,1.635,1.635,0,0,0-.157.313,2.067,2.067,0,0,0,.482,2.583s2.091,1.081,2.449,1.39a1.937,1.937,0,0,1,.478,1.957.3.3,0,0,0,.131.324.278.278,0,0,0,.375-.086c.271-.394.865-1.158,1.288-.977.531.227.366,1.821-.806,2a.766.766,0,0,0-.616.8.779.779,0,0,0,.6.624.8.8,0,0,0,.6-.155c.764-.489,2.92-2.56,3.188-4.418C54.5-298.485,51.993-299.9,51.05-300.106Z"/>
            <path id="Path_21073" data-name="Path 21073" d="M46.825-291.148a.194.194,0,0,1-.194-.186.194.194,0,0,1,.186-.2,2.368,2.368,0,0,0,1.268-.47.2.2,0,0,1,.274.022.194.194,0,0,1-.022.274,2.72,2.72,0,0,1-1.505.562Z"/>
          </g>
        </g>
        <g id="Group_11715" data-name="Group 11715">
          <g id="Group_11709" data-name="Group 11709">
            <path id="Path_21074" data-name="Path 21074" d="M30.058-220.491c-.358-.363-2.425-6.8-2.425-6.8l-4.086,2.919,4.479,6.026Z" fill="#fff"/>
            <path id="Path_21075" data-name="Path 21075" d="M28.026-218.153h-.011a.193.193,0,0,1-.145-.078l-4.479-6.026a.2.2,0,0,1-.036-.146.194.194,0,0,1,.079-.128l4.086-2.919a.193.193,0,0,1,.174-.026.193.193,0,0,1,.124.125c.784,2.442,2.124,6.427,2.38,6.726a.205.205,0,0,1,0,.269l-2.032,2.143A.193.193,0,0,1,28.026-218.153Zm-4.2-6.178,4.222,5.682,1.771-1.869c-.484-.925-1.843-5.089-2.286-6.462Z"/>
          </g>
          <g id="Group_11710" data-name="Group 11710">
            <path id="Path_21076" data-name="Path 21076" d="M22.7-212.35l2.717-.016a5.346,5.346,0,0,0,4.449-2.433l2.687-4.259a2.393,2.393,0,0,0-.9-3.389,11.027,11.027,0,0,0-2.571-1.151c-.559.053-.785,2.7-.785,2.7l-2.42.094s-1.2,4.978-2.248,5.544a4.614,4.614,0,0,0-1.662,1.57A.868.868,0,0,0,22.7-212.35Z"/>
            <path id="Path_21077" data-name="Path 21077" d="M22.969-213.217a.2.2,0,0,1-.192-.166.194.194,0,0,1,.163-.221l3.717-.56a2.621,2.621,0,0,0,1.862-1.25l3.283-5.492a.2.2,0,0,1,.267-.068.2.2,0,0,1,.067.267l-3.284,5.492a3,3,0,0,1-2.138,1.435L23-213.22Z" fill="#fff"/>
            <path id="Path_21078" data-name="Path 21078" d="M27.556-217.348a.18.18,0,0,1-.051-.007l-2.07-.564a.2.2,0,0,1-.137-.239.2.2,0,0,1,.239-.136l2.07.564a.2.2,0,0,1,.137.239A.2.2,0,0,1,27.556-217.348Z" fill="#fff"/>
            <path id="Path_21079" data-name="Path 21079" d="M26.478-216.283a.2.2,0,0,1-.047-.006l-1.388-.34a.194.194,0,0,1-.142-.235.194.194,0,0,1,.235-.142l1.388.34a.2.2,0,0,1,.143.235A.2.2,0,0,1,26.478-216.283Z" fill="#fff"/>
          </g>
          <g id="Group_11711" data-name="Group 11711">
            <path id="Path_21080" data-name="Path 21080" d="M16.118-221.72l-4.743,4.771-2.514-.925,4.372-6.1Z" fill="#fff"/>
            <path id="Path_21081" data-name="Path 21081" d="M11.375-216.754a.193.193,0,0,1-.067-.012l-2.515-.925a.191.191,0,0,1-.118-.125.194.194,0,0,1,.027-.17l4.373-6.1a.194.194,0,0,1,.13-.08.2.2,0,0,1,.148.04l2.885,2.257a.192.192,0,0,1,.074.141.2.2,0,0,1-.056.149l-4.743,4.771A.192.192,0,0,1,11.375-216.754Zm-2.208-1.213,2.158.793,4.5-4.528-2.553-2Z"/>
          </g>
          <g id="Group_11712" data-name="Group 11712">
            <path id="Path_21082" data-name="Path 21082" d="M41.225-256.943S19.547-259.6,13.1-253.72s10.176,31.179,10.176,31.179l5.256-4.11L23.547-244.53l20.039-6Z" fill="#fff"/>
            <path id="Path_21083" data-name="Path 21083" d="M23.277-222.347a.172.172,0,0,1-.032,0,.2.2,0,0,1-.131-.085c-.682-1.039-16.637-25.5-10.144-31.43,6.439-5.875,27.39-3.381,28.279-3.272a.2.2,0,0,1,.158.126l2.361,6.413a.192.192,0,0,1-.008.154.2.2,0,0,1-.118.1L23.786-244.4l4.935,17.7a.2.2,0,0,1-.068.206L23.4-222.388A.2.2,0,0,1,23.277-222.347Zm7.26-34.991c-6.419,0-13.973.721-17.3,3.761-5.973,5.451,8.632,28.488,10.091,30.752l4.987-3.9L23.36-244.478a.194.194,0,0,1,.132-.238l19.84-5.941-2.248-6.106A100.443,100.443,0,0,0,30.537-257.338Z"/>
          </g>
          <g id="Group_11713" data-name="Group 11713">
            <path id="Path_21084" data-name="Path 21084" d="M53.155-245.3A50.516,50.516,0,0,1,36.5-243a5.843,5.843,0,0,0-5.319,3.373c-2.333,4.822-7.381,13.5-15.6,19.133l-3.928-2.231,10.024-23.79a8.525,8.525,0,0,1,4.744-4.678l19.867-7.68s6.16-1.816,9.18,3.982c.54,1.035,1.541-.815,1.78.02C58.059-252,55.86-246.2,53.155-245.3Z" fill="#fff"/>
            <path id="Path_21085" data-name="Path 21085" d="M15.573-220.3a.194.194,0,0,1-.1-.025l-3.927-2.231a.2.2,0,0,1-.083-.245l10.024-23.789a8.76,8.76,0,0,1,4.853-4.784l19.867-7.681c.078-.023,6.364-1.8,9.423,4.074.063.123.133.195.208.214.156.04.392-.119.6-.259.248-.167.483-.324.712-.24a.467.467,0,0,1,.273.342c.831,2.912-1.387,8.861-4.211,9.806l-.062-.185.062.185A50.6,50.6,0,0,1,36.495-242.8h-.081a5.616,5.616,0,0,0-5.061,3.263c-2.291,4.737-7.374,13.532-15.67,19.209A.191.191,0,0,1,15.573-220.3Zm-3.681-2.509,3.672,2.086c8.162-5.629,13.174-14.306,15.439-18.989a6.08,6.08,0,0,1,5.5-3.483,50.145,50.145,0,0,0,16.593-2.292c2.611-.873,4.735-6.62,3.961-9.331a.212.212,0,0,0-.039-.087,1.308,1.308,0,0,0-.356.2,1.2,1.2,0,0,1-.913.312.733.733,0,0,1-.457-.41c-2.909-5.585-8.708-3.958-8.953-3.886l-19.852,7.675a8.377,8.377,0,0,0-4.635,4.573Z"/>
          </g>
          <g id="Group_11714" data-name="Group 11714">
            <path id="Path_21086" data-name="Path 21086" d="M12.873-217.7a13.66,13.66,0,0,1-.159,3.823,2.087,2.087,0,0,1-2.045,1.629H-.972a.891.891,0,0,1-.571-1.575,22.975,22.975,0,0,1,10.559-5.165l1.305,1.829Z"/>
            <path id="Path_21087" data-name="Path 21087" d="M11.646-213.651H-.418a.2.2,0,0,1-.195-.195.194.194,0,0,1,.195-.194H11.646a.194.194,0,0,1,.194.194A.194.194,0,0,1,11.646-213.651Z" fill="#fff"/>
            <path id="Path_21088" data-name="Path 21088" d="M6.313-215.8a.193.193,0,0,1-.179-.12l-.639-1.551a.194.194,0,0,1,.106-.254.193.193,0,0,1,.253.106l.639,1.551a.193.193,0,0,1-.106.253A.192.192,0,0,1,6.313-215.8Z" fill="#fff"/>
            <path id="Path_21089" data-name="Path 21089" d="M4.214-215.389a.2.2,0,0,1-.185-.134l-.462-1.4a.193.193,0,0,1,.124-.245.193.193,0,0,1,.245.123l.462,1.4a.194.194,0,0,1-.123.246A.19.19,0,0,1,4.214-215.389Z" fill="#fff"/>
          </g>
        </g>
      </g>
    </g>
    <g id="Group_11720" data-name="Group 11720">
      <g id="Group_11718" data-name="Group 11718">
        <path id="Path_21090" data-name="Path 21090" d="M57.082-272.8c-2.113,7.7-8.392,12.614-17.5,15.2l1.389,2.595c12.653-.445,19.289-5.944,21.942-16.5Z" fill="#fff"/>
        <path id="Path_21091" data-name="Path 21091" d="M40.973-254.812a.192.192,0,0,1-.171-.1l-1.389-2.6a.194.194,0,0,1-.008-.168.2.2,0,0,1,.126-.111c9.521-2.7,15.363-7.773,17.364-15.065a.2.2,0,0,1,.23-.139l5.832,1.3a.191.191,0,0,1,.123.088.19.19,0,0,1,.023.149c-2.745,10.922-9.775,16.211-22.123,16.646Zm-1.1-2.669,1.218,2.276c12-.455,18.868-5.592,21.59-16.154l-5.457-1.214C55.152-265.3,49.317-260.22,39.869-257.481Z"/>
      </g>
      <g id="Group_11719" data-name="Group 11719">
        <path id="Path_21092" data-name="Path 21092" d="M41.745-257.815a1.112,1.112,0,0,0-.611-.547,4.432,4.432,0,0,1-.557-.254L38.1-259.931c-.464-.227-1.127.3-1.609.461-1.454.477-4.465,1.6-4.217,2.659.268,1.14,2.855.6,3.774.371.21-.053,2.111.636,2.712.681a1.961,1.961,0,0,0,1.428-.361,1.318,1.318,0,0,1,.615-.143,1.13,1.13,0,0,0,.882-.413l.005-.006a.961.961,0,0,0,.1-1.038Z" fill="#fff"/>
        <path id="Path_21093" data-name="Path 21093" d="M39.03-255.553c-.087,0-.182,0-.286-.012a10.613,10.613,0,0,1-1.606-.4,8.172,8.172,0,0,0-1.062-.28c-.959.242-2.723.577-3.553.071a.919.919,0,0,1-.439-.588c-.263-1.122,2.218-2.19,4.345-2.889a3.526,3.526,0,0,0,.444-.2c.422-.212.9-.452,1.312-.251l2.483,1.318a4.2,4.2,0,0,0,.532.243,1.3,1.3,0,0,1,.718.641l.049.1a1.155,1.155,0,0,1-.126,1.247,1.324,1.324,0,0,1-1.038.492,1.128,1.128,0,0,0-.526.121c-.062.032-.119.065-.174.1A1.854,1.854,0,0,1,39.03-255.553Zm-2.954-1.084a6,6,0,0,1,1.172.3,10.9,10.9,0,0,0,1.525.388,1.6,1.6,0,0,0,1.137-.236c.059-.034.12-.068.187-.1a1.5,1.5,0,0,1,.7-.165.934.934,0,0,0,.731-.341.769.769,0,0,0,.089-.833l-.049-.1a.918.918,0,0,0-.5-.452,4.392,4.392,0,0,1-.583-.266l-2.478-1.314c-.233-.114-.619.08-.96.251a3.734,3.734,0,0,1-.5.222c-2.668.877-4.235,1.808-4.088,2.431a.539.539,0,0,0,.262.345A5.251,5.251,0,0,0,36-256.629.35.35,0,0,1,36.076-256.637Z"/>
      </g>
    </g>
    <g id="Group_11721" data-name="Group 11721">
      <path id="Path_21094" data-name="Path 21094" d="M-50.8-254.34H46.551c1.814,0,3.223,1.193,3.018,2.555l-6.722,44.6H37.993L42.2-249.043c.074-.738-.7-1.367-1.677-1.367H-43.044c-1.464,0-2.62.941-2.509,2.045l4.167,41.44H-46.24l-6.837-45.488C-53.232-253.44-52.168-254.34-50.8-254.34Z" fill="#fff"/>
      <path id="Path_21095" data-name="Path 21095" d="M-41.386-206.73H-46.24a.2.2,0,0,1-.193-.166l-6.837-45.488a1.606,1.606,0,0,1,.4-1.294,2.735,2.735,0,0,1,2.07-.856H46.551a3.563,3.563,0,0,1,2.7,1.113,2.061,2.061,0,0,1,.514,1.665l-6.722,44.6a.2.2,0,0,1-.192.166H37.992a.2.2,0,0,1-.144-.064.2.2,0,0,1-.049-.15l4.208-41.857a.856.856,0,0,0-.238-.662,1.688,1.688,0,0,0-1.245-.491H-43.044a2.619,2.619,0,0,0-1.934.766,1.361,1.361,0,0,0-.381,1.065l4.166,41.441a.192.192,0,0,1-.049.15A.193.193,0,0,1-41.386-206.73Zm-4.687-.389H-41.6l-4.145-41.227a1.763,1.763,0,0,1,.479-1.365,3.014,3.014,0,0,1,2.223-.894H40.524a2.079,2.079,0,0,1,1.533.619,1.244,1.244,0,0,1,.337.962l-4.187,41.643h4.472l6.7-44.433a1.659,1.659,0,0,0-.425-1.353,3.17,3.17,0,0,0-2.4-.978H-50.8a2.345,2.345,0,0,0-1.776.721,1.207,1.207,0,0,0-.309.982Z"/>
    </g>
    <g id="Group_11724" data-name="Group 11724">
      <g id="Group_11723" data-name="Group 11723">
        <g id="Group_11722" data-name="Group 11722">
          <path id="Path_21096" data-name="Path 21096" d="M30-255.767l-5.232-15.418a1.724,1.724,0,0,0-1.447-.776H9.38a.867.867,0,0,0-.834,1.157c.082.216.171.429.243.648l4.728,14.417h0a1.548,1.548,0,0,0,1.547,1.522H40.8a1.549,1.549,0,0,0,1.548-1.55Z" fill="#fff"/>
          <path id="Path_21097" data-name="Path 21097" d="M40.8-254.023H15.066a1.751,1.751,0,0,1-1.74-1.676L8.6-270.1c-.05-.152-.11-.306-.168-.456l-.071-.184a1.037,1.037,0,0,1,.12-.956,1.071,1.071,0,0,1,.9-.465H23.325a1.908,1.908,0,0,1,1.61.865.178.178,0,0,1,.021.044l5.187,15.285h12.2a.2.2,0,0,1,.194.2A1.744,1.744,0,0,1,40.8-254.023Zm-27.1-1.8a.191.191,0,0,1,.018.079,1.361,1.361,0,0,0,1.353,1.331H40.8a1.357,1.357,0,0,0,1.34-1.161H30a.2.2,0,0,1-.184-.132L24.6-271.1a1.524,1.524,0,0,0-1.271-.668H9.38a.685.685,0,0,0-.575.3.645.645,0,0,0-.077.6l.07.181c.06.154.123.313.176.476Z"/>
        </g>
        <path id="Path_21098" data-name="Path 21098" d="M19.639-264.059a1.164,1.164,0,0,1-.671,1.493,1.162,1.162,0,0,1-1.383-.872,1.165,1.165,0,0,1,.671-1.493A1.161,1.161,0,0,1,19.639-264.059Z"/>
      </g>
    </g>
    <g id="Group_11729" data-name="Group 11729">
      <g id="Group_11728" data-name="Group 11728">
        <g id="Group_11725" data-name="Group 11725">
          <path id="Rectangle_5710" data-name="Rectangle 5710" d="M0,0H28.277a0,0,0,0,1,0,0V.246A1.273,1.273,0,0,1,27,1.518H1.273A1.273,1.273,0,0,1,0,.246V0A0,0,0,0,1,0,0Z" transform="translate(-53.906 -255.514)" fill="#fff"/>
          <path id="Path_21099" data-name="Path 21099" d="M-26.9-253.8H-52.633a1.469,1.469,0,0,1-1.467-1.467v-.245a.194.194,0,0,1,.194-.195h28.277a.2.2,0,0,1,.195.195v.245A1.469,1.469,0,0,1-26.9-253.8Zm-26.81-1.518v.051a1.08,1.08,0,0,0,1.079,1.079H-26.9a1.08,1.08,0,0,0,1.079-1.079v-.051Z"/>
        </g>
        <g id="Group_11727" data-name="Group 11727">
          <g id="Group_11726" data-name="Group 11726">
            <path id="Path_21100" data-name="Path 21100" d="M-25.628-255.487H-41.809l5.141-15.132a1.691,1.691,0,0,1,1.42-.761H-21.57a.849.849,0,0,1,.817,1.134c-.08.211-.167.42-.238.635Z" fill="#fff"/>
            <path id="Path_21101" data-name="Path 21101" d="M-25.628-255.293H-41.809a.2.2,0,0,1-.158-.081.2.2,0,0,1-.026-.175l5.141-15.133a.172.172,0,0,1,.021-.043,1.876,1.876,0,0,1,1.583-.849H-21.57a1.051,1.051,0,0,1,.881.457,1.019,1.019,0,0,1,.118.94l-.07.181c-.057.146-.116.3-.165.446l-4.638,14.124A.192.192,0,0,1-25.628-255.293Zm-15.909-.388h15.768l4.594-13.991c.052-.159.113-.315.172-.466l.069-.177a.633.633,0,0,0-.075-.581.67.67,0,0,0-.561-.29H-35.248a1.491,1.491,0,0,0-1.244.653Z"/>
          </g>
          <path id="Path_21102" data-name="Path 21102" d="M-31.633-263.638a1.14,1.14,0,0,0,.658,1.463,1.139,1.139,0,0,0,1.357-.855,1.14,1.14,0,0,0-.659-1.462A1.139,1.139,0,0,0-31.633-263.638Z"/>
        </g>
      </g>
    </g>
  </g>
</svg>
