<svg xmlns="http://www.w3.org/2000/svg" width="234.243" height="158.29" viewBox="0 0 234.243 158.29">
  <g id="Marketing_agencies" data-name="Marketing agencies" transform="translate(124.289 5.979)">
    <path id="Path_20343" data-name="Path 20343" d="M-23.444,41.535a22.316,22.316,0,0,0,2.673.178,19.2,19.2,0,0,1,2.894.2,4.53,4.53,0,0,1,2.2.965,4.018,4.018,0,0,1,1.351,3.859,2.784,2.784,0,0,1-.439,1.018,3.106,3.106,0,0,1-.781.753,4.9,4.9,0,0,1-1.848.695,10.211,10.211,0,0,1-3.319,0,6.761,6.761,0,0,1-3.812-1.727c-.308-.333-.14-.386.232-.29s1,.246,1.689.483a11.042,11.042,0,0,0,3.792.554,6.474,6.474,0,0,0,1.809-.313,2.369,2.369,0,0,0,1.269-.888,2.1,2.1,0,0,0,.028-1.886,3.045,3.045,0,0,0-1.4-1.5,3.489,3.489,0,0,0-1.124-.347c-.424-.058-.873-.1-1.331-.125-.922-.058-1.867-.073-2.823-.15a11.8,11.8,0,0,1-1.794-.265l-.459-.131-.453-.183a2.957,2.957,0,0,1-.825-.613,2.7,2.7,0,0,1-.511-2.87l.139-.343c.058-.111.131-.212.193-.318a3.7,3.7,0,0,1,.483-.569,4.708,4.708,0,0,1,1.148-.821,9.287,9.287,0,0,1,4.067-.935h.912c1.143.115,1.471.347,1.645.651a1.085,1.085,0,0,1,.111.207c.058.208-.415.285-1.192.27a13.933,13.933,0,0,0-3.415.285,4.325,4.325,0,0,0-2.649,1.5,2.071,2.071,0,0,0-.222.444,1.487,1.487,0,0,0-.116.449,1.391,1.391,0,0,0,.8,1.414,4.581,4.581,0,0,0,1.1.284Z" fill="#231f20"/>
    <path id="Path_20344" data-name="Path 20344" d="M-21.6,45.216c-.338-.835-.69-1.669-1.057-2.494-.13-.3-.294-.594-.424-.893-.483-1.071-.931-2.137-1.448-3.189-.222-.482-.482-.926-.714-1.38a19.542,19.542,0,0,1-.878-1.77c-.082-.193.024-.217.208-.121a1.937,1.937,0,0,1,.666.632c.183.285.366.57.545.859l.482.883c.319.6.627,1.2.907,1.824.333.743.772,1.471,1.134,2.224s.781,1.654,1.158,2.494c.231.511.448,1.037.675,1.548.328.792.656,1.588.965,2.374.246.613.555,1.192.782,1.819.048.14.111.27.159.41.13.54.1.728-.116.893a.964.964,0,0,1-.15.11c-.173.087-.385-.086-.554-.429-.246-.511-.483-1.042-.719-1.587s-.439-1.115-.661-1.674c-.333-.84-.666-1.684-1.023-2.523Z" fill="#231f20"/>
    <path id="Path_20345" data-name="Path 20345" d="M-18.957,44.15l-.734-2.62c-.087-.318-.2-.627-.28-.965-.275-1.134-.516-2.277-.747-3.415l-.3-1.525a8.014,8.014,0,0,1-.188-1.983c0-.212.115-.183.241,0a2.294,2.294,0,0,1,.362.825c.284,1.283.574,2.557.868,3.86.164.786.458,1.568.685,2.359.261.863.521,1.732.8,2.595.164.531.338,1.062.516,1.588.275.8.541,1.6.854,2.378.246.6.55,1.172.82,1.756.063.126.131.251.184.381.193.483.188.676,0,.878a1.664,1.664,0,0,1-.13.135c-.155.121-.386,0-.608-.352a14.809,14.809,0,0,1-1.506-3.29c-.3-.859-.578-1.732-.853-2.6Z" fill="#231f20"/>
    <path id="Path_20346" data-name="Path 20346" d="M13.984,78.369l-33.487.049-12.215.062-43.053-.111c-6.368-.033-12.77,0-19.09,0q-6.084,0-12.2-.024l-3.049-.029-3.054-.067-3.053-.077c-.261,0-.521-.029-.792-.053a3.575,3.575,0,0,1-1.09-.232,1.1,1.1,0,0,1-.4-.314.7.7,0,0,1-.106-.482,2.917,2.917,0,0,1,.4-1.013,3.571,3.571,0,0,0,.366-1.119c.044-.251.068-.377.14-.367s.169.145.246.439a2.512,2.512,0,0,1-.077,1.307,2.507,2.507,0,0,0-.092.536.208.208,0,0,0,.189.188,1.288,1.288,0,0,0,.3,0c.13,0,.574-.029.964-.053l1.313-.092c1.838-.111,3.98-.173,6.32-.217l12.432-.149,12.442-.073h12.467l12.51.1c10,.1,20.4-.058,30.625-.1l33.732-.087,20.746-.062c10.478-.053,21.01-.063,31.407-.155,8.09-.077,16.012-.255,24.006-.381,1.761-.029,3.478-.043,5.254-.043,6.58,0,8.684.111,10.092.458a9.334,9.334,0,0,1,.936.232c.632.255-2.045.516-6.86.719l-5.394.221c-1.809.078-3.628.145-5.456.184l-11.1.251c-7.444.149-14.995.26-22.559.357-11.236.144-22.526.159-33.771.236Z" fill="#231f20"/>
    <path id="Path_20347" data-name="Path 20347" d="M-81.583,66.641s7.97,1.805,8.028,3.594-2.948.483-5.573,1.11c-3.994.965-4.954,2.282-4.954,2.282s12.944.695,14.4-.26c2.272-1.5-1.327-4.487-2.48-5.438C-74.12,66.308-81.583,66.641-81.583,66.641Z" fill="#231f20"/>
    <path id="Path_20348" data-name="Path 20348" d="M-16.709,73.622c-7.541-.053-15.081-.13-22.627-.313L-43.47,73.2c-1.385-.053-2.75-.086-4.178-.241-.164-.024-.314-.038-.483-.072a2.073,2.073,0,0,1-.347-.087l-.174-.077c-.029,0-.053-.034-.091-.034l-.082-.048c-.213-.174-.328-.27-.483-.391l-.352-.381a7.857,7.857,0,0,1-.579-.791,13.012,13.012,0,0,1-.9-1.641,32.522,32.522,0,0,1-1.3-3.377c-.376-1.124-.714-2.257-1.052-3.377s-.661-2.277-.965-3.411l-3.666-13.609c-1.119-4.154-2.287-8.318-3.464-12.414l-4.564-15.79c-.482-1.607-.145-1.525.642-.256a32.932,32.932,0,0,1,2.822,6.755c1.664,5.355,3.131,10.758,4.617,16.166s2.9,10.846,4.342,16.3c.347,1.312.7,2.634,1.076,3.956s.786,2.639,1.2,3.956a40.731,40.731,0,0,0,1.414,3.86,16.938,16.938,0,0,0,.907,1.775l.26.4.285.372a4.086,4.086,0,0,0,.3.333,1.069,1.069,0,0,0,.154.139l.111.1a.213.213,0,0,0,.073.034l.13.024c.154,0,.3.043.482.058.319.034.652.058.965.082.661.043,1.327.077,1.993.106,7.56.3,15.163.362,22.752.439l14.015.067c7.077,0,14.184,0,21.227-.057,5.461-.063,10.812-.222,16.205-.362l3.546-.1c2.22-.048,3.681-.067,4.709,0a7.7,7.7,0,0,1,2.1.338c.222.077.507.15.647.217.458.256-1.385.661-4.631.811-9.649.458-19.829.588-30.047.666-7.589.053-15.216.043-22.824.024Z" fill="#231f20"/>
    <path id="Path_20349" data-name="Path 20349" d="M-20.024,13.539c-3.666.1-7.338.241-11.009.391-1.341.053-2.677.149-4.014.2-4.723.164-9.451.323-14.193.338-2.1,0-4.217,0-6.3-.044-1.307-.024-2.644.078-3.995.087a13.762,13.762,0,0,1-4.076-.439c-.84-.275-.618-.482.106-.545.371-.053.863-.1,1.447-.164a18.877,18.877,0,0,1,2.031-.125c1.332,0,2.687-.107,4.091-.107s2.721.049,4.091.049c2.717,0,5.442-.049,8.2-.092,3.281-.063,6.7-.333,10.059-.482l11.1-.536q3.416-.144,6.836-.256c3.45-.111,6.923-.135,10.354-.164,2.668-.029,5.306-.091,7.926-.077H4.364a11.7,11.7,0,0,1,2.3.237,1.782,1.782,0,0,1,.994.511,2.333,2.333,0,0,1,.289.3c.189.309-.714.594-2.3.622-4.694.068-9.62,0-14.579.087-3.681.053-7.382.116-11.1.251Z" fill="#231f20"/>
    <path id="Path_20350" data-name="Path 20350" d="M10.915,67.273q-6.875-.144-13.759-.207H-7.866c-5.895-.048-11.8-.1-17.7-.068-2.62,0-5.249.073-7.845.145l-5.007.164c-1.67.048-3.339.063-5,.092-1.033.029-.922-.208-.053-.517a17.616,17.616,0,0,1,4.4-.771c6.822-.3,13.634-.411,20.514-.362,4.11.034,8.389-.087,12.6-.1,4.622,0,9.249,0,13.875.034l8.54.082c4.313.053,8.64.145,12.924.246,3.334.087,6.586.053,9.924.314.376.043.729.063,1.119.125l.6.106a2.031,2.031,0,0,1,.762.362,5.585,5.585,0,0,1,1.24,1.525,6.922,6.922,0,0,1,.54,1.1,2.22,2.22,0,0,1,.159,1.375,1.784,1.784,0,0,1-.12.482c-.2.352-.835-.564-1.93-2.094a7.969,7.969,0,0,0-.627-.757,2.906,2.906,0,0,0-.3-.261.292.292,0,0,0-.169-.062c-.3-.044-.613-.106-.965-.131s-.7-.067-1.081-.082c-1.447-.1-2.976-.14-4.5-.193C31,67.732,27.9,67.669,24.8,67.6c-4.607-.106-9.243-.212-13.87-.275Z" fill="#231f20"/>
    <path id="Path_20351" data-name="Path 20351" d="M-52.531,46.861l-1.775-6.489-.685-2.354c-.767-2.779-1.5-5.567-2.3-8.337-.348-1.23-.743-2.455-1.129-3.661-.516-1.549-1.028-3.1-1.448-4.68-.125-.483.1-.483.439-.155a5.423,5.423,0,0,1,1.139,1.906c.569,1.573,1.042,3.17,1.52,4.771s.916,3.218,1.331,4.849c.483,1.93,1.139,3.937,1.694,5.92l1.8,6.537q.551,2.011,1.1,4.023c.559,2.027,1.109,4.072,1.7,6.074.482,1.563.965,3.073,1.447,4.6.106.337.213.666.324,1,.4,1.259.429,1.684.265,2.031a1.3,1.3,0,0,1-.111.232c-.135.178-.483-.28-.83-1.192-.965-2.711-1.848-5.615-2.692-8.534l-1.838-6.537Z" fill="#231f20"/>
    <path id="Path_20352" data-name="Path 20352" d="M-21.206,17.755l-8.544.217-3.116.126-10.985.357-4.878.149a55.009,55.009,0,0,1-6.238-.057c-.646-.049-.55-.213,0-.377a10.7,10.7,0,0,1,2.745-.371c4.212-.039,8.428-.246,12.693-.367,2.548-.082,5.2-.27,7.811-.376l8.607-.314,5.307-.169,8.013-.241c2.065-.077,4.086-.212,6.127-.313l1.341-.073C-.639,15.9-.1,15.99.263,16.284a2.194,2.194,0,0,1,.241.188c.164.2-.521.439-1.746.54-3.638.29-7.478.41-11.338.536l-8.616.231Z" fill="#231f20"/>
    <path id="Path_20353" data-name="Path 20353" d="M16.468,55.955,15.624,52.8c-.1-.386-.236-.762-.338-1.148-.337-1.37-.665-2.736-.964-4.111-.145-.608-.319-1.211-.483-1.8-.116-.381-.246-.757-.338-1.148a4.66,4.66,0,0,1-.168-1.192c0-.256.2-.27.482-.125a2.38,2.38,0,0,1,.482.318,1.306,1.306,0,0,1,.353.545c.27.767.458,1.549.651,2.335s.371,1.578.511,2.413a27.867,27.867,0,0,0,.758,2.894l.854,3.184.545,1.959c.28.965.559,1.973.883,2.938.251.748.564,1.447.854,2.19.062.16.135.314.193.483.221.6.2.83-.073,1.061a1.973,1.973,0,0,1-.149.14c-.145.106-.507-.048-.7-.482A28.765,28.765,0,0,1,17.4,59.183c-.333-1.052-.637-2.113-.965-3.175Z" fill="#231f20"/>
    <path id="Path_20354" data-name="Path 20354" d="M8.875,23.12c-.116-.545-.237-1.1-.377-1.64-.057-.2-.144-.386-.193-.584-.183-.7-.376-1.409-.588-2.113a8.285,8.285,0,0,0-.357-.912,4.076,4.076,0,0,1-.241-.6,1.125,1.125,0,0,1-.034-.709c.043-.164.246-.135.482-.058.135.039.271.067.42.116a.482.482,0,0,1,.27.207A8.408,8.408,0,0,1,8.7,17.958a7.449,7.449,0,0,1,.323,1.254,15,15,0,0,0,.483,1.525c.159.559.3,1.129.424,1.7l.227,1.052c.121.53.208,1.066.333,1.587.1.41.27.791.386,1.192a2.4,2.4,0,0,1,.087.26c.082.333,0,.454-.3.579a1.647,1.647,0,0,1-.178.077.512.512,0,0,1-.579-.255,10.207,10.207,0,0,1-.69-2.143L8.846,23.13Z" fill="#231f20"/>
    <path id="Path_20355" data-name="Path 20355" d="M11.335,55.029l-.714-2.755c-.087-.338-.207-.661-.289-1q-.435-1.779-.84-3.56c-.125-.531-.275-1.052-.424-1.568-.1-.333-.2-.661-.285-1a4.051,4.051,0,0,1-.154-1.027c0-.222.159-.232.39-.106a2.04,2.04,0,0,1,.4.289,1.17,1.17,0,0,1,.294.483c.227.661.391,1.346.56,2.026s.318,1.37.444,2.074c.145.835.429,1.674.646,2.509l.724,2.769.482,1.7c.242.854.483,1.718.743,2.557.213.652.483,1.274.719,1.93.053.14.111.27.164.415.184.526.169.719-.048.912a.988.988,0,0,1-.121.121c-.111.086-.41-.054-.574-.43a26.992,26.992,0,0,1-1.312-3.551c-.285-.911-.54-1.833-.806-2.754Z" fill="#231f20"/>
    <path id="Path_20356" data-name="Path 20356" d="M61.437,74.134q2.114.4,4.25.636l1.563.116c1.838.14,3.686.208,5.539.184.82,0,1.645-.058,2.46-.136l1.568-.144c.521-.039,1.047-.053,1.578-.049.328,0,.3.174.043.382a3.239,3.239,0,0,1-1.351.559,44.7,44.7,0,0,1-6.513.275c-1.3-.067-2.663-.038-3.994-.149-1.448-.1-2.929-.295-4.376-.521-.893-.145-1.775-.314-2.658-.483-1.341-.27-2.673-.579-3.99-.863L52.5,73.313c-.227-.043-.444-.1-.666-.154-.82-.232-1.071-.362-1.2-.608a1.169,1.169,0,0,1-.087-.154c-.048-.14.328-.222.965-.145a44.489,44.489,0,0,1,5.669,1.013c1.413.314,2.832.618,4.255.869Z" fill="#231f20"/>
    <path id="Path_20357" data-name="Path 20357" d="M55.479,55.164c.834-2.176,1.732-4.342,2.759-6.436.386-.762.729-1.548,1.158-2.291l.285-.483c.087-.106.183-.193.275-.294.145,0,.222-.135.376-.1a2.1,2.1,0,0,1,.439.068l.41.106,1.033.29c.685.188,1.37.376,2.06.55,1.37.347,2.759.646,4.154.863a24.553,24.553,0,0,0,3.888.28,17.6,17.6,0,0,0,4.853-.7c.483-.155.512.053.174.419a4.16,4.16,0,0,1-2.1,1.067,18.2,18.2,0,0,1-5.306.236,33.313,33.313,0,0,1-5.182-.888l-2.451-.608-1.23-.308-.362-.092a.342.342,0,0,0-.1,0,.961.961,0,0,1-.053.087l-.2.376-.3.569a66.58,66.58,0,0,0-2.808,6.325c-.511,1.332-1.008,2.673-1.447,4.024-.695,2.05-1.385,4.115-1.973,6.185-.458,1.606-.825,3.208-1.226,4.824-.086.357-.178.7-.284,1.052-.391,1.307-.608,1.7-.994,1.891a1.586,1.586,0,0,1-.251.125c-.251.063-.309-.535-.125-1.514.246-1.448.593-2.948.989-4.444s.82-3,1.273-4.506c.676-2.238,1.448-4.462,2.253-6.672Z" fill="#231f20"/>
    <path id="Path_20358" data-name="Path 20358" d="M61.258,73.323q2.253.483,4.526.753c.559.062,1.114.077,1.669.14,1.964.164,3.937.246,5.92.217.878-.029,1.76-.077,2.629-.169.555-.058,1.114-.111,1.674-.183a16.409,16.409,0,0,1,1.689-.063c.352,0,.328.207.057.458a3.005,3.005,0,0,1-1.447.69,41.385,41.385,0,0,1-6.966.328c-1.4-.077-2.856-.043-4.289-.174-1.573-.12-3.136-.357-4.68-.627-.965-.169-1.9-.366-2.846-.564l-4.26-.965-3.271-.647c-.242-.048-.483-.1-.714-.164-.878-.241-1.144-.386-1.274-.68a1.361,1.361,0,0,1-.092-.183c-.053-.169.357-.285,1.028-.222A37.743,37.743,0,0,1,56.7,72.3c1.51.348,3.025.695,4.545.989Z" fill="#231f20"/>
    <path id="Path_20359" data-name="Path 20359" d="M78.626,64.084c-.1-1.264-.2-2.523-.279-3.782-.034-.482-.1-.922-.126-1.38-.092-1.621-.188-3.247-.28-4.868-.043-.719-.12-1.447-.2-2.151a20.964,20.964,0,0,1-.155-2.755c0-.29.217-.265.449-.044a2.118,2.118,0,0,1,.579,1.168l.2,1.394c.057.483.082.931.12,1.4q.1,1.4.14,2.823c.029,1.133.2,2.3.3,3.449l.323,3.8q.095,1.172.208,2.335c.12,1.177.231,2.364.4,3.522.126.9.319,1.78.507,2.653l.12.569c.034.179.058.329.073.454a2.245,2.245,0,0,1,0,.309.776.776,0,0,1-.135.4,1.219,1.219,0,0,1-.1.155c-.058.062-.14.034-.251-.077a2.031,2.031,0,0,1-.376-.579,14.73,14.73,0,0,1-.7-2.437c-.188-.834-.328-1.679-.434-2.533-.164-1.268-.289-2.542-.42-3.811Z" fill="#231f20"/>
    <path id="Path_20360" data-name="Path 20360" d="M83.731,59.791l.926,4.274c.116.521.256,1.037.362,1.558.183.907.357,1.814.516,2.731.077.458.15.917.212,1.385.029.236.058.482.077.714a1.64,1.64,0,0,1-.139.921l-.1.1a2.888,2.888,0,0,1-.632.454c-.193.106-.386.207-.574.3l-1.129.55c-.482.227-.965.482-1.4.709s-.926.454-1.331.714c-.242.155-.391,0-.324-.367a2.112,2.112,0,0,1,.965-1.254c.666-.371,1.332-.685,1.988-.989.328-.154.651-.3.965-.458.149-.077.309-.155.429-.232s.14-.087.164-.1h0v-.569q-.043-.518-.1-1.042c-.14-1.284-.483-2.6-.748-3.9l-.921-4.3-.584-2.648c-.3-1.332-.6-2.678-.926-3.995-.271-1.023-.536-2.026-.8-3.039-.058-.222-.126-.439-.164-.671-.155-.849-.135-1.139.043-1.356a.763.763,0,0,1,.116-.144c.145-.111.338.207.545.8.618,1.766,1.1,3.667,1.568,5.582l1.013,4.294Z" fill="#231f20"/>
    <path id="Path_20361" data-name="Path 20361" d="M71.776,39.292a2.532,2.532,0,0,0-1.93-.965,2.434,2.434,0,0,0-.762.279,4.48,4.48,0,0,0-1.322,1.076,9.419,9.419,0,0,0-1.086,1.535,10.816,10.816,0,0,0-.7,1.567,17.476,17.476,0,0,1-.772,2.08c-.106.212-.357.106-.56-.159a1.384,1.384,0,0,1-.256-1.134,12.006,12.006,0,0,1,1.983-4.342c.309-.4.656-.791,1.018-1.172a4.643,4.643,0,0,1,1.351-.965,3.263,3.263,0,0,1,1.93-.227,3.891,3.891,0,0,1,1.664.786,7.012,7.012,0,0,1,1.4,1.534,13.615,13.615,0,0,1,1.4,2.678,18.251,18.251,0,0,1,.844,2.166,3.56,3.56,0,0,1,.131.507c.091.646-.029.878-.42,1.018a1.383,1.383,0,0,1-.265.091c-.309.058-.56-.169-.71-.559a36.314,36.314,0,0,0-1.418-3.493,8.592,8.592,0,0,0-1.534-2.244Z" fill="#231f20"/>
    <path id="Path_20362" data-name="Path 20362" d="M83.514,58.039l.583,2.895c.073.352.169.7.237,1.057.236,1.244.482,2.494.7,3.738.1.555.217,1.11.333,1.655a9.378,9.378,0,0,1,.342,2.137c0,.227-.164.222-.371.068a1.634,1.634,0,0,1-.579-.859c-.294-1.423-.613-2.846-.786-4.313-.116-.878-.348-1.77-.526-2.653l-.584-2.919-.367-1.8c-.188-.907-.371-1.818-.583-2.711-.164-.695-.362-1.37-.536-2.055-.038-.15-.082-.294-.111-.454-.1-.569-.082-.762.053-.921a.631.631,0,0,1,.092-.1c.106-.082.265.13.415.53a30.635,30.635,0,0,1,1.061,3.783q.318,1.448.642,2.894Z" fill="#231f20"/>
    <path id="Path_20363" data-name="Path 20363" d="M67.043,49.225a18.663,18.663,0,0,0,2.079.265h.767a22.113,22.113,0,0,0,2.712-.053,8.246,8.246,0,0,0,1.191-.178c.512-.077,1-.227,1.525-.27.159,0,.173.111.067.265a1.2,1.2,0,0,1-.6.449,10.9,10.9,0,0,1-3.2.482l-.989.034c-.333,0-.666.029-1,0a20.4,20.4,0,0,1-2.18-.179c-.444-.062-.888-.14-1.327-.222-.671-.125-1.327-.308-1.978-.482-.483-.13-1.013-.232-1.51-.371-.111-.029-.217-.063-.328-.1-.4-.159-.483-.265-.516-.482v-.135c0-.14.221-.2.525-.15.912.135,1.795.43,2.717.632.685.15,1.37.314,2.064.42Z" fill="#231f20"/>
    <path id="Path_20364" data-name="Path 20364" d="M-109.6,27.612a17.045,17.045,0,0,1,1.187-1.346c.145-.164.289-.328.444-.483a13.787,13.787,0,0,1,1.819-1.409l.849-.554c.178-.121.362-.232.545-.343a2.724,2.724,0,0,1,.613-.222c.135-.029.188.13.169.343a.906.906,0,0,1-.29.627l-2.094,1.312A6.5,6.5,0,0,0-107.5,26.56a14.667,14.667,0,0,0-1.139,1.264c-.222.275-.439.555-.642.844a15.456,15.456,0,0,0-.863,1.356,11.911,11.911,0,0,0-.483,1.134,2.377,2.377,0,0,1-.1.25c-.145.3-.246.372-.482.338a1.45,1.45,0,0,1-.16-.029c-.173-.048-.236-.236-.173-.482a8.071,8.071,0,0,1,.965-2.147c.3-.511.641-1,1-1.491Z" fill="#231f20"/>
    <path id="Path_20365" data-name="Path 20365" d="M-100.037,18.547c.43-.189.859-.357,1.293-.517.159-.053.309-.13.483-.183.564-.174,1.138-.323,1.717-.444l.772-.169a2.077,2.077,0,0,1,1.018-.034c.111,0,.092.116,0,.232a1.039,1.039,0,0,1-.386.347,10.676,10.676,0,0,1-1.881.454,6.327,6.327,0,0,0-1.154.376c-.419.15-.834.314-1.239.483-.256.106-.483.231-.748.357a6.716,6.716,0,0,0-1.042.665,4.225,4.225,0,0,0-.637.686l-.121.159a.279.279,0,0,1-.222.149.48.48,0,0,1-.275-.077l-.13-.063a.4.4,0,0,1-.111-.482,3.506,3.506,0,0,1,1.394-1.312c.425-.227.84-.449,1.264-.656Z" fill="#231f20"/>
    <path id="Path_20366" data-name="Path 20366" d="M-101.619,27.4a.928.928,0,0,0,.1.275,2.632,2.632,0,0,0,.565.661c.178.15.357.29.53.41a9.2,9.2,0,0,0,1.1.627,10.252,10.252,0,0,0,1.163.483,6.151,6.151,0,0,0,.622.183c.11.028.221.051.333.068a1.371,1.371,0,0,0,.362,0,.4.4,0,0,0,.159-.049c.193-.13.145-1.027.058-1.177a.206.206,0,0,0-.082-.067c-.062-.024-.135-.1-.207-.111a1.579,1.579,0,0,1-.232-.068c-.154-.048-.313-.116-.482-.178a8.2,8.2,0,0,1-.936-.483,8.947,8.947,0,0,1-.869-.588,4.287,4.287,0,0,1-.376-.309c-.047-.044-.092-.091-.135-.14s-.058-.1-.063-.063c-.12.073-.308.126-.352.164a.353.353,0,0,1-.169.039h-.3a1.623,1.623,0,0,0-.545.067A.256.256,0,0,0-101.619,27.4Z" fill="#242021"/>
    <path id="Path_20367" data-name="Path 20367" d="M-92.433,31.191a2.605,2.605,0,0,0,.255.1,10.325,10.325,0,0,0,2.451.289,16.048,16.048,0,0,0,2.359-.159,18.867,18.867,0,0,0,2.311-.439c.381-.1.762-.2,1.143-.338.189-.058.382-.14.57-.217a3.3,3.3,0,0,0,.545-.318,1.05,1.05,0,0,0,.217-.193c.212-.29-.347-1-.6-1.013a.941.941,0,0,0-.2.043c-.164.048-.323.077-.482.135s-.323.116-.483.159a10.12,10.12,0,0,1-1.032.261,16.8,16.8,0,0,1-2.142.313,16.029,16.029,0,0,1-2.147.063,8.719,8.719,0,0,1-2.021-.265.931.931,0,0,1-.193-.039C-92.149,29.643-92.713,30.974-92.433,31.191Z" fill="#242021"/>
    <path id="Path_20368" data-name="Path 20368" d="M-78.269,28.253a1.574,1.574,0,0,0,.154-.038,8.494,8.494,0,0,0,2.543-1.636,10.93,10.93,0,0,0,1.023-1.085c.154-.193.3-.386.448-.584a1.918,1.918,0,0,0,.357-.637.34.34,0,0,0,.039-.159c0-.222-.767-.714-.965-.666a.421.421,0,0,0-.13.082,2.785,2.785,0,0,0-.251.222l-.2.256c-.14.169-.284.323-.429.482a8.8,8.8,0,0,1-.936.864A8.361,8.361,0,0,1-78.756,26.6a.66.66,0,0,0-.111.068A2.7,2.7,0,0,0-78.269,28.253Z" fill="#242021"/>
    <path id="Path_20369" data-name="Path 20369" d="M-57.162,6.21a.66.66,0,0,0,.1-.072l1.631-1.751.825-.864.42-.424.207-.213a1.64,1.64,0,0,0,.174-.255.406.406,0,0,0,.053-.131,1.689,1.689,0,0,0-.791-.878.4.4,0,0,0-.14.044,1.347,1.347,0,0,0-.275.154l-.232.2-.482.4-.912.816c-.608.55-1.192,1.119-1.761,1.7a.392.392,0,0,0-.068.106A3.328,3.328,0,0,0-57.162,6.21Z" fill="#242021"/>
    <path id="Path_20370" data-name="Path 20370" d="M-49.443.083a.6.6,0,0,0,.121-.062c.694-.536,1.36-1.071,2.031-1.568.333-.251.675-.483,1.023-.7.173-.106.347-.2.525-.3.087-.043.174-.092.266-.13a2.314,2.314,0,0,0,.246-.184.294.294,0,0,0,.1-.1,1.524,1.524,0,0,0-.4-1.115.477.477,0,0,0-.16,0,1.772,1.772,0,0,0-.689.2c-.213.092-.425.193-.632.3-.411.212-.806.444-1.187.68-.772.483-1.477,1-2.171,1.515a1.036,1.036,0,0,0-.1.1A3.1,3.1,0,0,0-49.443.083Z" fill="#242021"/>
    <path id="Path_20371" data-name="Path 20371" d="M-40.267-4.032a1.444,1.444,0,0,0,.208,0,14.849,14.849,0,0,1,4-.217,13.332,13.332,0,0,1,2.007.309c.68.1,1.293.434,2,.482a.666.666,0,0,0,.227,0c.284-.053.617-.892.41-1.105a.788.788,0,0,0-.2-.13,4.421,4.421,0,0,0-.482-.241l-.541-.159a8.97,8.97,0,0,0-1.061-.328,15.325,15.325,0,0,0-2.195-.434,14.5,14.5,0,0,0-4.5.111,1.615,1.615,0,0,0-.222.067C-40.87-5.523-40.527-4.1-40.267-4.032Z" fill="#242021"/>
    <path id="Path_20372" data-name="Path 20372" d="M-27.188-.915a.431.431,0,0,0,.087.053,10.36,10.36,0,0,1,1.312.656c.449.256.9.516,1.341.791s.878.565,1.293.869a5.591,5.591,0,0,1,.6.482c.1.082.188.159.27.236a.538.538,0,0,0,.144.1l.126.082c.039,0,.067.048.1.038.14-.058,1.071-.2,1.018-.6a1,1,0,0,0-.038-.14l-.053-.1a1.836,1.836,0,0,0-.275-.415c-.107-.116-.213-.212-.319-.309-.212-.207-.424-.381-.642-.56-.429-.357-.873-.685-1.321-1.008s-.907-.627-1.38-.921a12.9,12.9,0,0,0-1.544-.811,1.188,1.188,0,0,0-.227-.053C-27.033-2.512-27.222-1.055-27.188-.915Z" fill="#242021"/>
    <path id="Path_20373" data-name="Path 20373" d="M2.859,30.67a1.046,1.046,0,0,0,.053.145,6.767,6.767,0,0,0,1.751,1.93,9.867,9.867,0,0,0,1.032.714c.184.111.362.217.55.309a1.429,1.429,0,0,0,.6.217.292.292,0,0,0,.144,0,1.707,1.707,0,0,0,.483-1.076.284.284,0,0,0-.077-.1c-.068-.058-.121-.15-.2-.189a1.938,1.938,0,0,1-.227-.135c-.149-.091-.294-.2-.439-.3A8.067,8.067,0,0,1,5.7,31.51a6.476,6.476,0,0,1-1.273-1.554.446.446,0,0,0-.063-.067C4.224,29.874,2.883,30.453,2.859,30.67Z" fill="#242021"/>
    <path id="Path_20374" data-name="Path 20374" d="M11.1,37.077c.077.063.149.13.226.183a17.812,17.812,0,0,0,2.466,1.4,19.733,19.733,0,0,0,2.639.965,17.893,17.893,0,0,0,2.759.569c.483.058.936.1,1.414.111h.714a5.282,5.282,0,0,0,.719-.106,1.361,1.361,0,0,0,.3-.092c.337-.178.173-1.066-.135-1.177a1.3,1.3,0,0,0-.271-.029c-.419-.053-.834-.048-1.259-.072s-.849-.078-1.269-.145a16.058,16.058,0,0,1-2.5-.608,20.063,20.063,0,0,1-2.383-.965,16.018,16.018,0,0,1-2.2-1.293c-.072-.048-.154-.087-.231-.13C11.769,35.615,10.891,36.778,11.1,37.077Z" fill="#242021"/>
    <path id="Path_20375" data-name="Path 20375" d="M27.256,39.509a.878.878,0,0,0,.145.024,10.748,10.748,0,0,0,2.754-.343,12.5,12.5,0,0,0,1.342-.381c.212-.077.429-.164.636-.256a1.7,1.7,0,0,0,.6-.342.341.341,0,0,0,.106-.111,1.553,1.553,0,0,0-.483-1.076.33.33,0,0,0-.14,0,2.088,2.088,0,0,0-.313.053l-.285.106c-.193.068-.386.126-.584.179a9.741,9.741,0,0,1-1.182.275,12.815,12.815,0,0,1-2.388.178c-.041,0-.083,0-.125,0A2.789,2.789,0,0,0,27.256,39.509Z" fill="#242021"/>
    <path id="Path_20376" data-name="Path 20376" d="M36.61,36.981q.063,0,.126,0a9.771,9.771,0,0,0,2.354-.656,10.062,10.062,0,0,0,1.1-.546q.27-.148.521-.318a1.449,1.449,0,0,0,.483-.4.232.232,0,0,0,.067-.121,1.741,1.741,0,0,0-.67-.965.268.268,0,0,0-.126,0,1.451,1.451,0,0,0-.265.082c-.072.048-.15.087-.227.13a4.594,4.594,0,0,1-.482.237,8.791,8.791,0,0,1-.965.381,11.269,11.269,0,0,1-2.022.439.447.447,0,0,0-.106.038A3.592,3.592,0,0,0,36.61,36.981Z" fill="#242021"/>
    <path id="Path_20377" data-name="Path 20377" d="M44.156,33.271a.519.519,0,0,0,.116-.029,7.954,7.954,0,0,0,1.857-1.2,9.923,9.923,0,0,0,.8-.752c.125-.135.246-.271.367-.41l.173-.213a1.123,1.123,0,0,0,.116-.26.212.212,0,0,0,.024-.126,1.925,1.925,0,0,0-.931-.728.176.176,0,0,0-.106.038,1.18,1.18,0,0,0-.367.3c-.106.106-.222.212-.337.313a8.226,8.226,0,0,1-.724.565,9.3,9.3,0,0,1-1.582.887c-.029,0-.049.039-.078.058A4.1,4.1,0,0,0,44.156,33.271Z" fill="#242021"/>
    <path id="Path_20378" data-name="Path 20378" d="M-111.49,17.432c-.917-.83-1.838-1.66-2.769-2.475-.338-.3-.7-.569-1.037-.868-1.2-1.057-2.389-2.109-3.6-3.141-.541-.453-1.1-.892-1.655-1.312-.724-.536-1.448-1.095-2.1-1.684-.207-.188-.1-.289.188-.285a2.479,2.479,0,0,1,1.207.382A25.01,25.01,0,0,1-119,9.655c.729.565,1.448,1.158,2.137,1.771.83.743,1.766,1.418,2.649,2.137q1.447,1.187,2.895,2.412l1.761,1.486c.887.748,1.765,1.525,2.663,2.248.7.569,1.447,1.062,2.147,1.6.154.121.313.231.482.362a2.538,2.538,0,0,1,.343.323,1.131,1.131,0,0,1,.168.289.688.688,0,0,1,.029.483,1.135,1.135,0,0,1-.058.207c-.1.188-.448.135-.935-.091a34.588,34.588,0,0,1-3.928-2.963c-.964-.791-1.891-1.621-2.831-2.446Z" fill="#231f20"/>
    <path id="Path_20379" data-name="Path 20379" d="M-116.406,20.433l2.547,5.263c.314.637.666,1.259.965,1.891l.415.835.212.415.024.053h0v.029l.029.068c.039.091.087.188.14.289a.418.418,0,0,0,.049.077l.028.034.025-.029.072-.125.174-.3.193-.357c.072-.144.154-.279.231-.419.314-.555.632-1.105.965-1.646a15.5,15.5,0,0,1,2.142-2.7,8.548,8.548,0,0,1,1.819-1.337,6.61,6.61,0,0,1,2.123-.675c.453-.072.444.193.154.55a5.783,5.783,0,0,1-1.447,1.206,8.676,8.676,0,0,0-2.866,2.61c-.4.545-.806,1.11-1.172,1.713-.193.294-.372.6-.555.912l-.27.458-.135.236-.227.425-.135.256-.063.125-.067.072-.266.3-.487.6c-.13.034-.217-.039-.314-.082a1.3,1.3,0,0,1-.3-.222,4.036,4.036,0,0,1-.588-.859l-.483-.825-.333-.593c-.212-.4-.419-.8-.617-1.2-.883-1.761-1.737-3.536-2.6-5.307l-1.592-3.261c-.81-1.64-1.616-3.3-2.475-4.892-.666-1.245-1.4-2.412-2.118-3.608l-.482-.777c-.579-.965-.695-1.322-.54-1.713a2.024,2.024,0,0,1,.106-.26c.154-.237.608.043,1.114.738a53.766,53.766,0,0,1,3.971,6.754c.907,1.746,1.78,3.517,2.658,5.278Z" fill="#231f20"/>
    <path id="Path_20380" data-name="Path 20380" d="M-97.827,15.473c-1.665-.526-3.377-1.018-5.047-1.5-.617-.174-1.239-.318-1.857-.482q-3.265-.966-6.518-1.93l-2.894-.883a13.436,13.436,0,0,1-3.59-1.515c-.347-.251-.2-.328.164-.309a8.8,8.8,0,0,1,1.7.222c.623.155,1.24.338,1.863.526l1.867.536c1.249.371,2.494.771,3.743,1.186,1.5.483,3.1.859,4.651,1.284l5.124,1.447,1.572.482a18.924,18.924,0,0,1,2,.714,2.2,2.2,0,0,1,.545.353,1.339,1.339,0,0,1,.183.193.393.393,0,0,1,.068.115.154.154,0,0,1,0,.15c-.126.116-.285.212-.425.318a4.692,4.692,0,0,1-.709.3c-.227.1-.555.178-.825.265l-.208.068q-.09.033-.183.057l-.294.087-1.173.367a11.741,11.741,0,0,0-1.722.69,6.592,6.592,0,0,0-1.447.965,5.016,5.016,0,0,0-.483.516l-.318.434a1.345,1.345,0,0,1-.241.285,1.617,1.617,0,0,1-.217.188,1.752,1.752,0,0,1-.28.106c-.087.024-.174.072-.241.092s-.189-.068-.266-.309a1.019,1.019,0,0,1-.038-.449,3.25,3.25,0,0,1,.168-.579,4.533,4.533,0,0,1,1.289-1.543,7.914,7.914,0,0,1,1.664-.965,16.373,16.373,0,0,1,1.742-.642c.289-.092.583-.169.873-.246l.728-.193h.039l-.314-.1-.627-.193Z" fill="#231f20"/>
    <path id="Path_20381" data-name="Path 20381" d="M-105.913,124.086l.183-10.8c0-1.313-.033-2.625,0-3.937.116-4.622.251-9.248.328-13.87,0-2.056.039-4.116,0-6.151v-4.9l.058-.965c.044-.656.092-1.308.155-1.964.077-.815.328-.7.651,0a10.455,10.455,0,0,1,.521,1.448c.092.294.174.617.251.965.034.173.067.347.106.53a3.478,3.478,0,0,1,.044.55c.13,2.673.241,5.341.3,8.014s-.038,5.355-.139,8.047c-.131,3.222,0,6.571.024,9.866q-.043,5.431-.082,10.869l-.044,6.687c0,3.377-.053,6.754,0,10.131.044,2.6.28,5.157.367,7.719,0,.57.058,1.124.058,1.694,0,2.122-.164,2.8-.753,3.261a2.634,2.634,0,0,1-.4.3c-.449.212-.845-.647-1.042-2.2-.14-1.148-.271-2.316-.386-3.493s-.145-2.369-.2-3.565c-.082-2.412-.111-4.825-.126-7.271,0-3.623,0-7.236.034-10.888Z" fill="#231f20"/>
    <path id="Path_20382" data-name="Path 20382" d="M88.261,124.708l.294-10.811c.029-1.313,0-2.63.034-3.942.154-4.636.318-9.273.424-13.9.034-2.055.058-4.125.058-6.166v-4.9l.063-.965c.048-.656.106-1.312.169-1.969.087-.815.333-.7.651,0a10.286,10.286,0,0,1,.512,1.448c.086.3.173.617.246.965l.1.53c0,.179.034.367.038.555.116,2.678.213,5.35.261,8.033s-.072,5.369-.188,8.071c-.155,3.228-.029,6.59-.053,9.895-.039,3.628-.116,7.266-.184,10.9l-.13,6.706c-.053,3.378-.149,6.788-.149,10.132,0,2.615.173,5.181.193,7.767,0,.569.029,1.124,0,1.7-.053,2.128-.251,2.8-.854,3.242a2.7,2.7,0,0,1-.41.295c-.454.188-.821-.686-.965-2.244a122.446,122.446,0,0,1-.386-14.357c.063-3.628.13-7.271.193-10.9Z" fill="#231f20"/>
    <g id="Group_11490" data-name="Group 11490" opacity="0.35">
      <path id="Path_20383" data-name="Path 20383" d="M5.507,65.729Q-.364,65.6-6.231,65.546H-10.51c-5.032-.048-10.064-.1-15.091-.087-2.233,0-4.477.039-6.691.092l-4.27.111c-1.447.024-2.851.043-4.269.053-.888,0-.777-.154-.034-.347a20.4,20.4,0,0,1,3.763-.507c5.818-.2,11.627-.27,17.489-.222,3.507.029,7.154-.038,10.739-.038q5.914,0,11.829.072l7.28.087,11.014.188c2.837.048,5.621.043,8.424.1l1.848.034c2.311.106,3.044.236,3.517.564a2.78,2.78,0,0,1,.313.213c.208.212-.743.39-2.412.362-5-.029-10.276-.131-15.578-.222L5.527,65.773Z" fill="#231f20"/>
    </g>
    <path id="Path_20384" data-name="Path 20384" d="M19.85,68.668l-.342.048a45.194,45.194,0,0,1-6.721.328c-1.129,0-2.257-.077-3.377-.13s-2.272-.082-3.415-.107H5.633c-.41,0-.434.695-.029.724l.362.024,3.377.261c1.133.077,2.272.149,3.415.2a38.732,38.732,0,0,0,6.885-.242L20,69.724C20.4,69.685,20.246,68.614,19.85,68.668Z" fill="#242021"/>
    <path id="Path_20385" data-name="Path 20385" d="M14.756,79.7l-34.736-.077H-32.644L-77.3,79.368c-6.6-.058-13.243-.058-19.78-.067-4.212,0-8.433-.034-12.65-.073l-6.335-.135a4.354,4.354,0,0,1-1.785-.367,1.444,1.444,0,0,1-.757-.911,1.725,1.725,0,0,1,0-.608,2.664,2.664,0,0,1,.111-.483,14,14,0,0,1,.651-1.5,4.882,4.882,0,0,0,.444-1.346,1.667,1.667,0,0,0-.2-1.056c-.115-.218-.183-.338-.12-.377s.231,0,.482.2a1.706,1.706,0,0,1,.565,1.245,5.627,5.627,0,0,1-.4,2.074,9.484,9.484,0,0,0-.328,1.11,1.5,1.5,0,0,0-.029.241.221.221,0,0,0,0,.125.236.236,0,0,0,.13.131.239.239,0,0,1,.136.043c.048.043.154.039.255.043a5.02,5.02,0,0,0,.637.039h.753l.815-.024c1.1-.039,2.258-.058,3.469-.058l12.886-.1,12.9-.028q12.919-.035,25.9.159c10.367.135,21.155,0,31.759,0l34.987.038H28.737c10.869,0,21.787,0,32.574-.038,8.39-.044,16.606-.193,24.9-.285,1.824-.024,3.609-.029,5.452-.029,6.822.029,8.993.15,10.459.483.338.082.777.159.965.236.656.256-2.123.511-7.116.695l-5.6.2c-1.877.068-3.763.131-5.659.164l-11.487.208c-7.719.116-15.554.2-23.4.27-11.651.1-23.36.072-35.044.106Z" fill="#231f20"/>
    <path id="Path_20386" data-name="Path 20386" d="M97.258,71.181l2.557.15h.931l1.7.106h.082a.259.259,0,0,0,.082.029.946.946,0,0,1,.154.048,1.979,1.979,0,0,1,.28.174,3.043,3.043,0,0,1,.357.352,5.841,5.841,0,0,1,.521.728,6.791,6.791,0,0,1,.675,1.448,3.327,3.327,0,0,1,.188,1.037,1.933,1.933,0,0,1-.077.55c-.029.092-.058.183-.091.265a1.434,1.434,0,0,1-.15.241c-.135.2-.343,0-.521-.25a1.664,1.664,0,0,1-.357-.753,3.117,3.117,0,0,0-.357-1.447,5.182,5.182,0,0,0-.4-.719c-.077-.121-.154-.227-.236-.338a3.027,3.027,0,0,1-.193-.241.12.12,0,0,0-.058-.053.129.129,0,0,0-.048,0h-1.906l-2.576-.077-1.587-.049c-.8,0-1.607-.062-2.412-.043-.623,0-1.226.1-1.839.149-.13,0-.265.034-.4.044-.482,0-.661-.077-.767-.4a1.129,1.129,0,0,1-.072-.222c-.049-.246.154-.448.525-.53a16.782,16.782,0,0,1,3.378-.28c.853,0,1.717,0,2.576.053Z" fill="#231f20"/>
    <path id="Path_20387" data-name="Path 20387" d="M-69.6,72.841a.626.626,0,0,0,.164-.362.865.865,0,0,0,.043-.246v-.261a2.763,2.763,0,0,0-.53-1.153,8.529,8.529,0,0,0-2.364-2.036,11.483,11.483,0,0,0-2.128-.965,17.285,17.285,0,0,0-4.178-.805,14.119,14.119,0,0,0-4.255.309,8.3,8.3,0,0,0-3.324,1.64,9.024,9.024,0,0,0-2.552,3.859c-.2.454-.526.328-.719-.2a3.118,3.118,0,0,1-.155-1.071,4.183,4.183,0,0,1,.425-1.4A8.771,8.771,0,0,1-84.9,66.472a12.726,12.726,0,0,1,5.4-.911A19.435,19.435,0,0,1-73,66.738a13.15,13.15,0,0,1,3.121,1.93,7.913,7.913,0,0,1,1.3,1.389,3.855,3.855,0,0,1,.738,1.93v.337a2.644,2.644,0,0,1-.048.333l-.058.333c-.034.111-.077.217-.121.328a2.254,2.254,0,0,1-.965,1.052,4.985,4.985,0,0,1-2.354.482c-1.071,0-2.19.044-3.286-.024s-2.185-.149-3.261-.231c-1.674-.13-3.309-.174-4.93-.145l-1.062.048c-1.322.039-1.732,0-2.069-.381a1.715,1.715,0,0,1-.222-.26c-.174-.29.357-.647,1.384-.806,3.059-.483,6.243-.034,9.292.13.565.034,1.129.058,1.693.068h1.7A13.989,13.989,0,0,0-70.54,73.2a1.366,1.366,0,0,0,.873-.343Z" fill="#231f20"/>
    <g id="Group_11491" data-name="Group 11491" opacity="0.35">
      <path id="Path_20388" data-name="Path 20388" d="M-51.122,45.669l-1.573-5.9c-.193-.714-.429-1.418-.617-2.132-.676-2.519-1.317-5.047-2.017-7.56-.309-1.115-.661-2.22-1.018-3.31a40.449,40.449,0,0,1-1.259-4.245c-.1-.449.179-.483.565-.193a3.767,3.767,0,0,1,1.191,1.674c.536,1.413.965,2.865,1.375,4.318s.806,2.918,1.158,4.4c.425,1.77,1.023,3.565,1.51,5.359l1.6,5.92.965,3.647c.482,1.834.989,3.686,1.524,5.5.42,1.409.9,2.769,1.356,4.149.1.3.212.6.3.907a5.4,5.4,0,0,1,.284,1.235.958.958,0,0,1-.183.642,1.409,1.409,0,0,1-.164.227c-.1.086-.236.029-.4-.15A3.013,3.013,0,0,1-47,59.27c-.965-2.413-1.737-5.056-2.5-7.695q-.834-2.954-1.66-5.915Z" fill="#231f20"/>
    </g>
    <g id="Group_11492" data-name="Group 11492" opacity="0.35">
      <path id="Path_20389" data-name="Path 20389" d="M-23.126,19.092-30.6,19.2l-2.721.091-9.61.232-4.26.145a43.185,43.185,0,0,1-5.456,0c-.565-.049-.483-.261,0-.483a6.36,6.36,0,0,1,2.412-.526c3.681-.1,7.362-.284,11.1-.352,2.229-.043,4.549-.227,6.831-.309l7.531-.226,4.632-.126c2.335-.077,4.684-.12,7-.241,1.8-.1,3.565-.28,5.341-.439.39-.034.772-.082,1.167-.111,1.448-.1,1.93,0,2.273.362a1.9,1.9,0,0,1,.221.236c.155.246-.424.574-1.495.738a96.445,96.445,0,0,1-9.914.758c-2.509.1-5.032.13-7.541.193Z" fill="#231f20"/>
    </g>
    <g id="Group_11493" data-name="Group 11493" opacity="0.35">
      <path id="Path_20390" data-name="Path 20390" d="M10.534,55.695l-.593-2.577c-.077-.308-.2-.607-.265-.921q-.348-1.665-.671-3.334a12.952,12.952,0,0,0-.4-1.447A9.585,9.585,0,0,1,8.32,46.5a3.96,3.96,0,0,1-.087-.482,2.058,2.058,0,0,1,.024-.483c.039-.212.314-.26.69-.183a3.135,3.135,0,0,1,.622.193.823.823,0,0,1,.411.405,11.467,11.467,0,0,1,.545,1.867,15.008,15.008,0,0,1,.313,1.93,16.83,16.83,0,0,0,.555,2.335L12,54.653c.125.53.251,1.061.391,1.582.207.8.4,1.6.661,2.374a16.665,16.665,0,0,0,.757,1.732c.058.13.126.25.174.381.188.482.12.68-.29.921-.086.053-.159.111-.231.145a.715.715,0,0,1-.869-.29,13.528,13.528,0,0,1-1.379-3.232c-.266-.844-.483-1.708-.724-2.562Z" fill="#231f20"/>
    </g>
    <path id="Path_20391" data-name="Path 20391" d="M6.052,27.713,5.9,27.79a6.179,6.179,0,0,0-1.38.965,8.244,8.244,0,0,0-1.124,1.23,16.378,16.378,0,0,0-1.645,2.823l-.067.154c-.082.183.535.482.622.3l.072-.15a15.139,15.139,0,0,1,1.655-2.639,11.487,11.487,0,0,1,1.037-1.124,10.592,10.592,0,0,1,1.187-.936l.135-.082C6.54,28.224,6.236,27.621,6.052,27.713Z" fill="#242021"/>
    <path id="Path_20392" data-name="Path 20392" d="M85.371,71.133s6.18.9,3.647,2.1-8.78.516-8.78.516Z" fill="#231f20"/>
    <g id="Group_11494" data-name="Group 11494" opacity="0.45">
      <path id="Path_20393" data-name="Path 20393" d="M67.381,61c-1.062.559-2.1,1.23-3.141,1.9-.521.337-1.042.67-1.578,1a12.292,12.292,0,0,1-1.7.907,1.881,1.881,0,0,1-.989.169.7.7,0,0,1-.434-.265.493.493,0,0,1-.1-.237l-.034-.125V64.21a1.233,1.233,0,0,1,.111-.545,2.357,2.357,0,0,1,.222-.391,5.049,5.049,0,0,1,.482-.569A18.45,18.45,0,0,1,62.054,61.1l1.9-1.447a25.229,25.229,0,0,0,3.58-3.059,2.915,2.915,0,0,0,.526-.811.891.891,0,0,0,.067-.395c-.028-.048-.028-.126-.062-.15a.791.791,0,0,0-.14-.149,1.4,1.4,0,0,0-.869-.246,4.442,4.442,0,0,0-.993.144,12.119,12.119,0,0,0-2.461,1,26.245,26.245,0,0,0-2.311,1.361c-.482.313-.448.212-.116-.14a10.019,10.019,0,0,1,1.93-1.448,13.843,13.843,0,0,1,2.552-1.206,5.105,5.105,0,0,1,1.448-.275,2.21,2.21,0,0,1,.82.145,1.493,1.493,0,0,1,.4.222,1.277,1.277,0,0,1,.174.154.683.683,0,0,1,.169.242,1.4,1.4,0,0,1,.1.26v.265a1.555,1.555,0,0,1-.087.483,2.413,2.413,0,0,1-.381.719,8.146,8.146,0,0,1-.965,1.085,27.81,27.81,0,0,1-2.166,1.8c-.883.675-1.79,1.355-2.663,2.069-.439.357-.868.719-1.273,1.1-.2.193-.4.386-.57.584a3.4,3.4,0,0,0-.246.3,2.139,2.139,0,0,0-.164.256c-.048.082-.067.241.058.26a.356.356,0,0,0,.159,0,2.637,2.637,0,0,0,.367-.144,15.425,15.425,0,0,0,1.592-.893c1.047-.656,2.084-1.361,3.15-2.017a19.484,19.484,0,0,1,2.051-1.133,5.133,5.133,0,0,1,1.162-.386,1.576,1.576,0,0,1,.7.029.9.9,0,0,1,.584.545,1.382,1.382,0,0,1-.131,1.056,3.966,3.966,0,0,1-.511.777,16.4,16.4,0,0,1-1.216,1.293,11.767,11.767,0,0,0-2.185,2.586,5.419,5.419,0,0,0-.458,1.192,1.377,1.377,0,0,0,.048,1.056,1.1,1.1,0,0,0,.916.338,6.634,6.634,0,0,0,1.25-.111c.376-.068.743-.155,1.124-.227,1.418-.294,1.906-.328,2.248-.2a1.349,1.349,0,0,1,.227.092c.154.116-.4.318-1.418.627a20.309,20.309,0,0,1-2.379.6,5.32,5.32,0,0,1-1.351.077,2.126,2.126,0,0,1-.786-.207,1.445,1.445,0,0,1-.68-.7,2.408,2.408,0,0,1-.029-1.611,6.337,6.337,0,0,1,.482-1.278,9.176,9.176,0,0,1,1.64-2.109l1.318-1.326a5.173,5.173,0,0,0,1.013-1.3.329.329,0,0,0,.048-.14c0-.039.038-.092.024-.121s0-.048,0-.086,0,0-.053-.034a.786.786,0,0,0-.265,0A5.593,5.593,0,0,0,67.39,61Z" fill="#231f20"/>
    </g>
    <path id="Path_20394" data-name="Path 20394" d="M-58.966,71.77l-2.167-.155h-.8l-2.817-.212a8.991,8.991,0,0,0-1.25,0,7.362,7.362,0,0,1-.8,0,5.614,5.614,0,0,1-.8-.116c-.169-.038-.145-.2,0-.381a1.33,1.33,0,0,1,.7-.482,13.2,13.2,0,0,1,1.626-.121,9.213,9.213,0,0,1,1.635.068,18.664,18.664,0,0,0,2.007,0l2.21.053,1.36.029c.686,0,1.375.048,2.056,0,.53,0,1.047-.136,1.572-.184.116,0,.227-.034.343-.038.429,0,.569.13.661.443a1.194,1.194,0,0,0,.063.218.576.576,0,0,1-.449.593,9.5,9.5,0,0,1-2.9.357c-.738,0-1.476-.024-2.209-.053Z" fill="#231f20"/>
    <path id="Path_20395" data-name="Path 20395" d="M49.935,70.882c-.207-.043-.41-.092-.617-.13H49.1l-.8-.179a1.725,1.725,0,0,0-.352,0,1.643,1.643,0,0,1-.222,0,.66.66,0,0,1-.227-.091c-.048-.034-.048-.155,0-.3a.68.68,0,0,1,.183-.366,1.375,1.375,0,0,1,.483-.087,1.028,1.028,0,0,1,.482.062,2.018,2.018,0,0,0,.565.025c.212,0,.42.029.627.048l.386.034a4.666,4.666,0,0,0,.579.024,3.154,3.154,0,0,0,.444-.135.309.309,0,0,1,.1,0c.121,0,.159.1.184.342V70.3a.665.665,0,0,1-.126.454,1.115,1.115,0,0,1-.81.26,3.763,3.763,0,0,1-.618-.053Z" fill="#231f20"/>
    <path id="Path_20396" data-name="Path 20396" d="M-98.2,72.262l-3.5-.164h-1.279l-4.5-.246c-.661-.044-1.332-.053-1.993-.063-.424,0-.849,0-1.278-.029a9.773,9.773,0,0,1-1.274-.183c-.265-.063-.212-.213,0-.381a2.465,2.465,0,0,1,1.129-.415c.859-.058,1.718-.049,2.581-.058a20.418,20.418,0,0,1,2.6.1c1.042.092,2.127.029,3.193.039l3.517.053,2.162.029c1.1,0,2.195.043,3.276,0,.844,0,1.669-.14,2.5-.2.183,0,.361-.034.549-.039.686,0,.9.126,1.057.439a1.561,1.561,0,0,1,.1.217c.072.242-.208.483-.71.6a23.7,23.7,0,0,1-4.636.376c-1.172,0-2.349,0-3.527-.048Z" fill="#231f20"/>
    <path id="Path_20397" data-name="Path 20397" d="M-12.628,73.217c-4.293.482-51.761,3.054-44.51-2.653,1.09-.854,5.022-.739,6.364-1.009L-48.362,72Z" fill="#231f20"/>
    <g id="Group_11495" data-name="Group 11495" opacity="0.4">
      <path id="Path_20398" data-name="Path 20398" d="M-114.158,24.563l-1.848-3.894c-.231-.482-.482-.926-.718-1.394-.8-1.66-1.626-3.31-2.533-4.911-.406-.709-.825-1.419-1.264-2.1-.565-.878-1.168-1.732-1.66-2.658-.149-.29.039-.372.372-.266a2.7,2.7,0,0,1,1.191.874c.652.858,1.288,1.727,1.882,2.629a31.272,31.272,0,0,1,1.568,2.842c.574,1.167,1.283,2.315,1.9,3.488.68,1.288,1.312,2.595,1.929,3.907l1.163,2.413.261.55.115.241.058.125.029.063a.05.05,0,0,1,.034-.043,5,5,0,0,1,.347-.483l.251-.309.362-.414a15.491,15.491,0,0,1,2.326-2.21c.192-.135.371-.285.578-.405a2.428,2.428,0,0,1,.864-.377.815.815,0,0,1,.531.14,1.285,1.285,0,0,1,.193.135c.082.082.067.2,0,.367a1.646,1.646,0,0,1-.483.54,25.819,25.819,0,0,0-2.021,1.747c-.323.309-.637.632-.936.965-.15.169-.3.337-.439.516l-.087.111-.116.14c-.072.1-.145.2-.217.309-.14.221-.289.4-.424.651l-.835,1.447-1.578-3.107-.834-1.616Z" fill="#231f20"/>
    </g>
    <path id="Path_20399" data-name="Path 20399" d="M-6.973,42.21c.217,4.275-1.578,8.8-5.134,11.2-4.385,2.962-11.356,3.343-15.959.637a13.29,13.29,0,0,1-6.3-13.4c2.412-13.4,22.761-14.589,26.838-1.6A12.691,12.691,0,0,1-6.973,42.21Z" fill="#231f20" opacity="0.2" style="mix-blend-mode: normal;isolation: isolate"/>
    <path id="Path_20400" data-name="Path 20400" d="M33.774,101.257,3.828,102.434l-10.922.482c-12.843.483-25.681.912-38.533,1.153-5.7.111-11.434.2-17.1.217-3.637,0-7.28,0-10.927-.1-1.824-.053-3.642-.121-5.461-.217l-1.37-.077c-.483-.029-.936-.087-1.395-.15a14.376,14.376,0,0,0-2.61-.256c-1.027.063-1.476.222-1.5.063s.415-.535,1.4-.8a7.306,7.306,0,0,1,1.8-.183c.685,0,1.448.038,2.21,0,1.626-.058,3.565-.082,5.649-.034,7.4.164,14.8.1,22.217-.029s14.854-.3,22.332-.482c8.935-.227,18.237-.738,27.374-1.163l30.158-1.336,18.564-.806c9.374-.41,18.815-.719,28.1-1.086,7.237-.25,14.324-.622,21.488-.825L100,96.7c5.9-.062,7.777.135,9.037.743a4.921,4.921,0,0,1,.834.425c.56.482-1.843.863-6.146,1l-39.749,1.318c-10.044.361-20.137.718-30.21,1.143Z" fill="#231f20"/>
  </g>
</svg>
