<svg xmlns="http://www.w3.org/2000/svg" width="219.46" height="161.832" viewBox="0 0 219.46 161.832">
  <g id="Marketing_executive" data-name="Marketing executive" transform="translate(-7.574 0.659)">
    <path id="Path_19852" data-name="Path 19852" d="M121.71,44.654c1.488-.124,2.226,1.22.779,1.6C120.892,46.662,120.625,44.287,121.71,44.654Z" fill="#221f1f"/>
    <path id="Path_19853" data-name="Path 19853" d="M121.983,45.695a.782.782,0,0,0,.575,0,1.531,1.531,0,0,0,.154-.084c.119-.035.233-.2,0-.411a.713.713,0,0,0-.372-.184,2.223,2.223,0,0,1-.58-.074c-.06-.03-.079-.248-.025-.466s.184-.446.357-.432a1.85,1.85,0,0,1,.907.243,1.483,1.483,0,0,1,.4.333,1.111,1.111,0,0,1,.273.55,1.13,1.13,0,0,1-.526,1.234c-.094.05-.193.09-.287.129l-.283.07a1.95,1.95,0,0,1-.61,0,1.513,1.513,0,0,1-.372-.109,1.857,1.857,0,0,1-.322-.214,1.632,1.632,0,0,1-.5-.991,1.741,1.741,0,0,1,0-.456,1.049,1.049,0,0,1,.07-.258.8.8,0,0,1,.193-.258.688.688,0,0,1,.238-.074.792.792,0,0,1,.228,0,.243.243,0,0,1,.124.059.316.316,0,0,1,.064.268v.164a.94.94,0,0,1-.2.371h0a.184.184,0,0,0,0-.074h0s.208.119.174.114a1.393,1.393,0,0,0,.069.253.493.493,0,0,0,.258.292Z" fill="#221f1f"/>
    <path id="Path_19854" data-name="Path 19854" d="M133.1,45.785c1.487-.119,2.231,1.219.778,1.6C132.29,47.8,132.022,45.423,133.1,45.785Z" fill="#221f1f"/>
    <path id="Path_19855" data-name="Path 19855" d="M133.381,46.826a.769.769,0,0,0,.57,0,1.559,1.559,0,0,0,.158-.08c.119-.034.229-.2,0-.411a.707.707,0,0,0-.376-.184,2.365,2.365,0,0,1-.575-.079c-.065-.03-.08-.248-.03-.466s.183-.441.362-.431a1.891,1.891,0,0,1,.9.243,1.4,1.4,0,0,1,.4.337,1.077,1.077,0,0,1,.272.545,1.131,1.131,0,0,1-.525,1.24c-.094.046-.19.087-.288.124l-.277.074a1.95,1.95,0,0,1-.61,0,1.7,1.7,0,0,1-.377-.1,1.491,1.491,0,0,1-.818-1.21,1.74,1.74,0,0,1,0-.456,1.157,1.157,0,0,1,.069-.258.876.876,0,0,1,.194-.258.736.736,0,0,1,.263-.148.794.794,0,0,1,.233-.025.252.252,0,0,1,.119.064.29.29,0,0,1,.064.263.956.956,0,0,1,0,.169,1.078,1.078,0,0,1-.193.367h0a.236.236,0,0,0,0-.075h0s.208.119.173.119a2.337,2.337,0,0,0,.07.248.5.5,0,0,0,.257.3Z" fill="#221f1f"/>
    <path id="Path_19856" data-name="Path 19856" d="M131.1,70.419a9.724,9.724,0,0,1-1.933,1.076,9.944,9.944,0,0,1-1.032.377c-.352.1-.713.178-1.07.263a8.761,8.761,0,0,1-4.383-.253,11.075,11.075,0,0,1-2.841-1.428,18.088,18.088,0,0,1-3.827-3.907,37.681,37.681,0,0,1-2.851-4.576c-.748-1.4-1.457-2.83-2.132-4.248-.431-.913-.862-1.83-1.274-2.747s-.8-1.859-1.219-2.7c-.134-.253-.144-.372-.06-.446s.288-.035.546.134a5.419,5.419,0,0,1,1.646,2.211,78,78,0,0,0,5.512,10.907,15.891,15.891,0,0,0,5.186,5.121,8.02,8.02,0,0,0,3.758,1.076,8.962,8.962,0,0,0,3.862-.818,9.212,9.212,0,0,0,3.728-3.153,21.162,21.162,0,0,0,2.9-7.045c.495-1.933.8-3.872,1.184-5.815.085-.432.159-.853.258-1.284.357-1.6.575-2.088.937-2.35a1.579,1.579,0,0,1,.248-.174c.253-.089.243.6,0,1.755A88.418,88.418,0,0,1,135.83,63.2a19.371,19.371,0,0,1-1.76,3.966,11.191,11.191,0,0,1-2.975,3.3Z" fill="#221f1f"/>
    <path id="Path_19857" data-name="Path 19857" d="M100.665,46.841a6.2,6.2,0,0,1-.4-.858c-.059-.149-.119-.293-.168-.441l-.129-.461a7.5,7.5,0,0,1-.174-.937v-.5a2.419,2.419,0,0,1,0-.5,3.767,3.767,0,0,1,.1-.724,1.356,1.356,0,0,1,.084-.362l.154-.342a3.134,3.134,0,0,1,1.983-1.7,4.176,4.176,0,0,1,2.478.114,5.889,5.889,0,0,1,1.865.991l.267.218c.085.075.164.164.243.243l.243.258.2.288a3.005,3.005,0,0,1,.184.3l.134.337a2.258,2.258,0,0,1,.134.7c0,.3-.283.263-.615.114a3.083,3.083,0,0,1-.5-.277,1.093,1.093,0,0,1-.4-.382,4.311,4.311,0,0,0-3.539-1.924,1.945,1.945,0,0,0-1.736,1.547,4.71,4.71,0,0,0,.323,3.029,6.518,6.518,0,0,0,1.036,1.731,6.954,6.954,0,0,0,2.414,1.849,5.634,5.634,0,0,0,1.121.352l.575.114.585.054.5.045c.644,0,.837.114.991.431a1.55,1.55,0,0,1,.094.213c.07.228-.213.442-.738.5a7.664,7.664,0,0,1-4.71-1.239,8.016,8.016,0,0,1-2.6-2.767Z" fill="#221f1f"/>
    <path id="Path_19858" data-name="Path 19858" d="M102.39,19.5c2.028-1.339,4.13-2.335,6.445-1.259,6.212,2.86.347,22.731-3.7,22.131-3.53-.5-5.052-1.126-5.454,2.776C92.207,37.728,98.052,22.36,102.39,19.5Z" fill="#221f1f"/>
    <path id="Path_19859" data-name="Path 19859" d="M99.113,41.506s.05.065.065.055a.793.793,0,0,1,.029-.109v-.06a1.283,1.283,0,0,1,.11-.322,3.285,3.285,0,0,1,.337-.66,2.389,2.389,0,0,1,1.294-1.016,4.064,4.064,0,0,1,1.422-.144c.858.06,1.612.214,2.37.338l.283.044.139.025h.1a.581.581,0,0,0,.277-.035,2.072,2.072,0,0,0,.719-.456,10.3,10.3,0,0,0,1.894-2.841,28.547,28.547,0,0,0,2.127-5.949,24.433,24.433,0,0,0,.758-6.3,10.4,10.4,0,0,0-.4-2.727,4.616,4.616,0,0,0-1.314-2.206,2.827,2.827,0,0,0-.664-.421,5.322,5.322,0,0,0-.769-.263,4.138,4.138,0,0,0-1.621-.079,9.747,9.747,0,0,0-3.193,1.239c-.649.367-.768.035-.4-.6a4.338,4.338,0,0,1,.991-1.076,4.729,4.729,0,0,1,1.914-.917,5.669,5.669,0,0,1,2.206-.054,5.439,5.439,0,0,1,2.092.837,4.9,4.9,0,0,1,1.488,1.721,7.645,7.645,0,0,1,.713,1.983,14.5,14.5,0,0,1,.263,3.966,25.388,25.388,0,0,1-.535,3.842,44.217,44.217,0,0,1-1.23,4.522,22.741,22.741,0,0,1-1.933,4.357,8.274,8.274,0,0,1-1.73,2.122,2.653,2.653,0,0,1-1.488.64,2.052,2.052,0,0,1-.436-.025l-.317-.055-.63-.1a9.933,9.933,0,0,0-2.37-.223c-.684.08-1.016.5-1.264,1.354-.159.694-.248,1.432-.342,2.126-.064,0-.2-.109-.312-.2l-.357-.292a8.942,8.942,0,0,1-.689-.6c-.214-.213-.447-.422-.645-.63l-.411-.5a9.33,9.33,0,0,1-1.22-2.265,13.393,13.393,0,0,1-.754-4.819,22.6,22.6,0,0,1,.605-4.769,28.115,28.115,0,0,1,2.479-6.941c.124-.243.253-.5.392-.714s.277-.5.431-.7c1.165-1.7,1.864-2.067,2.41-2.062a1.443,1.443,0,0,1,.371.024c.3.149-.243.67-1.041,1.78a22.982,22.982,0,0,0-2.86,5.672,25.572,25.572,0,0,0-1.428,6.38,17.95,17.95,0,0,0-.03,2.41,13.137,13.137,0,0,0,.362,2.34,9.354,9.354,0,0,0,.868,2.136,7.151,7.151,0,0,0,.649.932l.169.219v.029Z" fill="#221f1f"/>
    <path id="Path_19860" data-name="Path 19860" d="M112.058,17.134c1.036-4.715,32.021-17.684,41.6-.7,3.614,6.41.233,15.419-9.787,18.135C130.877,38.085,113.758,24.962,112.058,17.134Z" fill="#221f1f"/>
    <path id="Path_19861" data-name="Path 19861" d="M146.989,32.508a15.294,15.294,0,0,0,3.292-2.211,13.381,13.381,0,0,0,1.389-1.408c.208-.253.391-.526.589-.788l.293-.4.243-.431a10.664,10.664,0,0,0,1.368-3.664,7.046,7.046,0,0,0,.139-.992l.05-.991a10.8,10.8,0,0,0-.219-1.948c-.054-.233-.079-.471-.153-.7l-.228-.68a9.493,9.493,0,0,0-.58-1.309,15.29,15.29,0,0,0-10.287-7.793,29.216,29.216,0,0,0-10.526-.5,42.911,42.911,0,0,0-9.2,2.172,42.249,42.249,0,0,0-5.538,2.394,27.343,27.343,0,0,0-2.583,1.488,9.9,9.9,0,0,0-2.2,1.839c-.347.431-.416.59-.56.56-.065,0-.114-.109-.144-.278a1.525,1.525,0,0,1,.109-.684c.392-1.155,1.929-2.731,4.041-3.877A44.3,44.3,0,0,1,128.22,8.052a35.056,35.056,0,0,1,12.726-.5,21.358,21.358,0,0,1,7.4,2.578,15.668,15.668,0,0,1,5.612,5.622,11.774,11.774,0,0,1,1.517,4.154,12.329,12.329,0,0,1-.129,4.413,13.912,13.912,0,0,1-1.7,4.055c-.209.3-.427.595-.645.893-.109.148-.208.3-.327.441l-.372.406c-.253.263-.5.551-.753.794l-.823.723a17.134,17.134,0,0,1-4.616,2.673,13.214,13.214,0,0,1-1.259.426,11.459,11.459,0,0,1-1.284.367,13.278,13.278,0,0,1-1.309.258c-.441.064-.883.138-1.324.158a19.787,19.787,0,0,1-4.02-.079,24.526,24.526,0,0,1-3.927-.773,35.518,35.518,0,0,1-7.352-2.975,44.837,44.837,0,0,1-5.156-3.247,34.8,34.8,0,0,1-4.6-3.966,25.387,25.387,0,0,1-1.78-2.028,12.075,12.075,0,0,1-1.839-3.1,3.879,3.879,0,0,1-.258-.952,1.845,1.845,0,0,1,0-.679,2.786,2.786,0,0,1,.109-.5c.094-.179.283.044.526.56a19.847,19.847,0,0,0,1.309,2.28,30.959,30.959,0,0,0,7.54,7.526,38.57,38.57,0,0,0,9.707,5.146,30.464,30.464,0,0,0,3.966,1.1,23.235,23.235,0,0,0,4.041.426,16.135,16.135,0,0,0,4-.426l.5-.109.5-.154.962-.307a8.644,8.644,0,0,0,.937-.377l.927-.4Z" fill="#221f1f"/>
    <path id="Path_19862" data-name="Path 19862" d="M114.983,63.964c-.313,1.1-2.142,4.081.347,7.164,4.08,5.062,10.084,1.488,10.252.878C118.146,72.259,114.859,64.133,114.983,63.964Z" fill="#221f1f"/>
    <path id="Path_19863" data-name="Path 19863" d="M125.379,71.356l.64.05.317.025h.139v.044l-.055.174v.129h0l-.025.049a5.96,5.96,0,0,1-.312.565,2.343,2.343,0,0,1-.61.556,7.014,7.014,0,0,1-.922.52c-.168.08-.352.149-.525.223a1.872,1.872,0,0,1-.219.085l-.158.054a10,10,0,0,1-1.319.337,8.246,8.246,0,0,1-1.983.144,6.944,6.944,0,0,1-3.312-1.12,7.388,7.388,0,0,1-1.328-1.116,8.8,8.8,0,0,1-1.066-1.353,6.292,6.292,0,0,1-.932-2.94,6.648,6.648,0,0,1,.937-3.7c.2-.3.342-.243.471.159a2.505,2.505,0,0,1,.119.773,3.847,3.847,0,0,1-.139.918,5.286,5.286,0,0,0,0,3.267,6.181,6.181,0,0,0,.793,1.487,8.234,8.234,0,0,0,1.19,1.3,5.644,5.644,0,0,0,4,1.3,8.179,8.179,0,0,0,2.369-.456l.164-.06.124-.049a2.677,2.677,0,0,0,.5-.263l.119-.094a.19.19,0,0,0,.049-.06c.025-.03-.029,0-.039,0a3.973,3.973,0,0,1-.689-.069l-.184-.035-.4-.094c-.268-.06-.526-.144-.789-.228a11.319,11.319,0,0,1-4.139-2.6,16.651,16.651,0,0,1-2.44-2.846c-.153-.228-.307-.451-.441-.7-.5-.9-.545-1.279-.352-1.581.05-.06.094-.179.159-.169h0a.2.2,0,0,0,.069.035.165.165,0,0,0,.07,0c.034,0,.049,0,.049-.03s.1.03.164.089a3.508,3.508,0,0,1,.466.655,16.387,16.387,0,0,0,4.219,4.819,9.836,9.836,0,0,0,2.077,1.16,10.281,10.281,0,0,0,1.135.367l.288.064.213.045.327.034,1.344.11Z" fill="#221f1f"/>
    <path id="Path_19864" data-name="Path 19864" d="M163.865,132.271c-.5-.456-1.041-.907-1.576-1.338-.2-.159-.417-.288-.61-.442-.694-.55-1.393-1.1-2.127-1.586a7.194,7.194,0,0,0-1.021-.545c-.223-.109-.451-.159-.674-.253a3.536,3.536,0,0,1-.6-.238c-.119-.07-.139-.283,0-.5a.988.988,0,0,1,.372-.322.663.663,0,0,1,.5-.06,7.687,7.687,0,0,1,2.861,1.6c.5.406,1.066.728,1.587,1.11s1.125.863,1.675,1.3l.5.416.273.228a2.722,2.722,0,0,1,.248.278c.436.521.818,1.066,1.209,1.616a15.177,15.177,0,0,1,.907,1.3c.06.109.129.208.179.322.168.432.119.625-.238.779a1.492,1.492,0,0,1-.2.094.629.629,0,0,1-.665-.243c-.431-.649-.927-1.343-1.437-2.067-.189-.268-.387-.536-.59-.8l-.263-.333h0l-.045-.034-.1-.085-.2-.168Z" fill="#221f1f"/>
    <path id="Path_19865" data-name="Path 19865" d="M165.254,125.886a13.844,13.844,0,0,1,2.974,1.071,5.265,5.265,0,0,1,1.23,1.368c.5.63,1.036,1.244,1.576,1.844a4.217,4.217,0,0,0,1.031,1.046,1.2,1.2,0,0,0,1.061-.238h0a.138.138,0,0,0,.055-.109.855.855,0,0,0-.124-.228c-.174-.278-1.239.164-1.15.307s.074.219.168.129l1.061-.238a4.719,4.719,0,0,1-1.12-1.14c-.605-.679-1.2-1.368-1.755-2.087-1.041-1.348-2.479-1.651-4.08-2.157-.263-.079-1.274.342-.947.442Z" fill="#221f1f"/>
    <path id="Path_19866" data-name="Path 19866" d="M161.233,133.525c-.3-.2-.6-.4-.907-.57l-.06-.034-.1-.06-.119-.079-.228-.144-.5-.283c-.233-.133-.5-.238-.714-.366a21.537,21.537,0,0,0-2.558-1.275,9.147,9.147,0,0,0-1.205-.366,12.148,12.148,0,0,1-1.551-.382c-.159-.07-.109-.322.069-.565a.988.988,0,0,1,.838-.446,8.63,8.63,0,0,1,.877.133,5.016,5.016,0,0,1,.853.228,9.619,9.619,0,0,1,1.6.734c.609.347,1.289.58,1.918.912.342.184.684.377,1.016.58l.253.159.09.06.128.069.5.3c.412.253.813.526,1.205.808a14.9,14.9,0,0,1,1.676,1.438,8.8,8.8,0,0,1,1.185,1.314,2.536,2.536,0,0,1,.208.357.784.784,0,0,1,.1.545.467.467,0,0,1-.288.3,2.224,2.224,0,0,1-.223.1.585.585,0,0,1-.659-.268,10.538,10.538,0,0,0-1.755-1.9,14.331,14.331,0,0,0-1.706-1.274Z" fill="#221f1f"/>
    <path id="Path_19867" data-name="Path 19867" d="M153.762,133.729l-.937.044h-.992c-.659,0-1.319,0-1.983-.054-.5-.025-.962-.03-1.443-.079a23.278,23.278,0,0,1-4.992-1.052,19.284,19.284,0,0,1-2.127-.832,9.086,9.086,0,0,1-1.3-.719,4.483,4.483,0,0,1-.585-.471c-.089-.089-.173-.184-.258-.278s-.147-.208-.213-.317c-.168-.268.045-.382.412-.4a1.983,1.983,0,0,1,1.279.308,15.955,15.955,0,0,0,4.957,2.156,17.858,17.858,0,0,0,3.441.5,36.946,36.946,0,0,0,3.852.079l.59-.029h.144a1.242,1.242,0,0,1,.193,0h.323a10.249,10.249,0,0,1,1.244.173,12.544,12.544,0,0,1,3.515,1.3,14.759,14.759,0,0,1,2.419,1.567c.159.138.327.262.5.411.565.555.654.818.526,1.14a1.209,1.209,0,0,1-.1.218c-.143.209-.5.11-.907-.242-.3-.268-.634-.5-.937-.749a6.492,6.492,0,0,0-.991-.689,12.342,12.342,0,0,0-2.142-1.145,10.925,10.925,0,0,0-1.725-.561,8.811,8.811,0,0,0-1.755-.238Z" fill="#221f1f"/>
    <path id="Path_19868" data-name="Path 19868" d="M94.2,157.58h0c.045-.084-.163.283-.3.5a6.025,6.025,0,0,1-.5.63,6.858,6.858,0,0,1-1.175,1.07,7.6,7.6,0,0,1-2.851,1.205,9.427,9.427,0,0,1-2.974.129,8.057,8.057,0,0,1-2.9-.863,7.545,7.545,0,0,1-1.448-.991,7.41,7.41,0,0,1-.64-.6c-.094-.114-.2-.213-.287-.332l-.114-.139-.025-.04a.576.576,0,0,1-.055-.089h-.168l-.179.03-.446.074c-.3.05-.6.109-.892.144l-1.79.223c-1.19.119-2.384.248-3.574.312-2.38.174-4.76.243-7.139.293l-6.316.134a67.6,67.6,0,0,1-8.077-.134c-1.665-.179.5-1.735,3.575-1.711,5.453.05,10.907.045,16.36-.1.7-.029,1.408-.069,2.117-.119s1.418-.134,2.132-.2,1.418-.193,2.132-.292c.357-.045.709-.109,1.056-.179l1.314-.243a5.8,5.8,0,0,1,.57.194c.148.1.312.208.495.327l.139.208a.566.566,0,0,0,.08.109l.039.05c.055.069.1.138.159.2a5.91,5.91,0,0,0,1.938,1.487,7.123,7.123,0,0,0,7.139-.768,5.471,5.471,0,0,0,.655-.689,3.5,3.5,0,0,0,.277-.387,1.7,1.7,0,0,0,.124-.2l.035-.055.05-.1.089-.183c.149-.144.278-.278.382-.4a2.458,2.458,0,0,1,.5-.233l2.127.04,1.924.024c3.47,0,6.941,0,10.342-.168,2.662-.144,5.255-.441,7.862-.764.576-.074,1.136-.168,1.711-.233,2.146-.267,2.841-.252,3.361.144a2.036,2.036,0,0,1,.347.273c.253.322-.585.734-2.166,1.031a96.867,96.867,0,0,1-14.71,1.378q-2.652.075-5.309.065H96.54l-2.29-.035h-.025Z" fill="#221f1f"/>
    <path id="Path_19869" data-name="Path 19869" d="M64.325,147.923c1.983-.585,3.966-1.275,6.068-1.78.759-.184,1.522-.362,2.3-.5a16.076,16.076,0,0,1,4.169-.084,11.127,11.127,0,0,1,3.966,1.244,12.909,12.909,0,0,1,2.975,2.216,13.916,13.916,0,0,1,2.776,3.793c.213.431-.059.5-.495.3a4.581,4.581,0,0,1-1.518-1.383,16.913,16.913,0,0,0-1.4-1.735,12.955,12.955,0,0,0-1.636-1.487,10.364,10.364,0,0,0-3.966-1.8,10.878,10.878,0,0,0-2.736-.213,21.2,21.2,0,0,0-2.8.352,54.033,54.033,0,0,0-6.059,1.68c-1.244.387-2.479.769-3.782,1.071a19.767,19.767,0,0,1-5.95.551,21.355,21.355,0,0,1-4.521-.813c-.322-.1-.64-.184-.962-.3-1.185-.416-1.517-.649-1.656-.991a1.467,1.467,0,0,1-.089-.248c0-.248.5-.214,1.363.054a21.542,21.542,0,0,0,7.933,1.289,25.453,25.453,0,0,0,6.038-1.219Z" fill="#221f1f"/>
    <path id="Path_19870" data-name="Path 19870" d="M109.326,149.613a25.9,25.9,0,0,0-5.577-1.15l-1.036-.035c-.346-.017-.691-.017-1.037,0a16.4,16.4,0,0,0-7.044,1.656,15.353,15.353,0,0,0-1.408.813,7.809,7.809,0,0,0-1.289.992,37.429,37.429,0,0,0-2.921,2.974c-.3.318-.5.1-.456-.352a3.074,3.074,0,0,1,.863-1.789,17.05,17.05,0,0,1,3.47-2.861,14.922,14.922,0,0,1,4.155-1.755,20.577,20.577,0,0,1,5.429-.744l1.487.065c.5.054.991.134,1.487.2l.744.1.729.164,1.452.332c.6.149,1.17.357,1.75.535l.873.273c.287.084.555.174.838.248a12.314,12.314,0,0,0,2.642.332,15.082,15.082,0,0,0,2.677-.158,13.907,13.907,0,0,0,3.9-1.175c.268-.124.525-.258.778-.407.5-.253.769-.466,1.017-.55a.81.81,0,0,1,.575-.1,1.279,1.279,0,0,1,.253.039c.114.05.114.179,0,.377a2.548,2.548,0,0,1-.714.734,11.068,11.068,0,0,1-3.624,1.685,17.168,17.168,0,0,1-4.036.6,14.981,14.981,0,0,1-3.079-.208c-.253-.054-.5-.1-.768-.168l-.759-.229-1.378-.426Z" fill="#221f1f"/>
    <path id="Path_19871" data-name="Path 19871" d="M64.221,151.244c1.859-.6,3.738-1.254,5.682-1.74.714-.168,1.422-.357,2.151-.461a12.7,12.7,0,0,1,7.69.992,12.248,12.248,0,0,1,2.8,2.042,32.468,32.468,0,0,1,2.93,3.163c.277.342.044.5-.407.407a3.385,3.385,0,0,1-1.68-1.051,21.613,21.613,0,0,0-3.03-2.935,9.121,9.121,0,0,0-3.743-1.607,9.584,9.584,0,0,0-2.563-.173,17.958,17.958,0,0,0-2.612.352,45.964,45.964,0,0,0-5.657,1.591c-1.155.387-2.32.779-3.495,1.126a23.15,23.15,0,0,1-5.513,1.026,12.735,12.735,0,0,1-4.323-.5c-.308-.109-.6-.213-.913-.332-1.1-.5-1.363-.823-1.427-1.18a.906.906,0,0,1-.035-.248c.035-.248.5-.129,1.254.208a11.573,11.573,0,0,0,3.5.952,13.8,13.8,0,0,0,3.748-.129,35.988,35.988,0,0,0,5.622-1.527Z" fill="#221f1f"/>
    <path id="Path_19872" data-name="Path 19872" d="M107.561,152.32c-.729-.233-1.448-.5-2.152-.778l-.52-.214-.5-.173a5.753,5.753,0,0,0-.991-.258,3.962,3.962,0,0,0-.759-.089c-.258,0-.5-.04-.768-.03h-.684c-.234,0-.462.04-.69.055-.461.025-.912.134-1.373.2a16.673,16.673,0,0,0-2.677.808,12.073,12.073,0,0,0-2.2,1.145A10.778,10.778,0,0,0,91.939,155c-.193.223-.416.1-.466-.277a1.355,1.355,0,0,1,.114-.719,3.188,3.188,0,0,1,.209-.407,3.116,3.116,0,0,1,.327-.362,12.59,12.59,0,0,1,2.92-1.908,13.556,13.556,0,0,1,3.262-1.116,15.659,15.659,0,0,1,4.209-.451,7.152,7.152,0,0,1,1.175.149l.58.119c.189.054.377.128.565.188.392.129.734.268,1.071.411s.689.258,1.036.392a24.3,24.3,0,0,0,2.618.754,21.73,21.73,0,0,0,4.1.535,19.628,19.628,0,0,0,3.148-.233c.228-.03.451-.074.679-.114.853-.119,1.131-.119,1.364.139a1.253,1.253,0,0,1,.158.168c.119.2-.2.442-.842.6a18.211,18.211,0,0,1-6.059.377,24.106,24.106,0,0,1-4.546-.9Z" fill="#221f1f"/>
    <path id="Path_19873" data-name="Path 19873" d="M181.064,140.669q-9.043.2-18.081.4c-2.2.05-4.4.149-6.594.193-7.749.164-15.5.3-23.246.5-3.441.08-6.9.2-10.307.332-4.378.169-8.775.422-13.163.387-2.732,0,.684-1.661,5.731-1.834,8.954-.3,17.9-.5,26.925-.575,5.4-.035,11.016-.278,16.534-.417l18.215-.436q5.607-.133,11.209-.273c5.657-.148,11.343-.277,16.955-.5,4.368-.153,8.641-.4,12.955-.6.951-.045,1.879-.1,2.835-.139,3.555-.139,4.685-.07,5.454.332a2.994,2.994,0,0,1,.5.273c.352.317-1.086.634-3.684.808-7.709.525-15.84.818-24.01,1.076-6.063.188-12.156.337-18.239.495Z" fill="#221f1f"/>
    <path id="Path_19874" data-name="Path 19874" d="M48.4,143.3q-5.1-.05-10.2-.089c-1.239,0-2.479.03-3.718,0-4.373-.045-8.745-.114-13.118-.149-1.938,0-3.887,0-5.81.055-2.479.049-4.958.183-7.437.029-1.537-.094.407-1.641,3.252-1.68,5.052-.06,10.1-.03,15.191.153,3.044.109,6.217,0,9.33.03,3.426,0,6.852.04,10.277.055,2.107,0,4.219.029,6.326.029,3.193,0,6.4.03,9.569,0,2.478-.034,4.873-.163,7.307-.248.536,0,1.061-.054,1.6-.064,1.983-.045,2.642.06,3.078.5a1.538,1.538,0,0,1,.283.287c.2.323-.62.6-2.087.709-4.348.318-8.924.392-13.55.427-3.42.024-6.861,0-10.292,0Z" fill="#221f1f"/>
    <path id="Path_19875" data-name="Path 19875" d="M50.612,87.8a1.086,1.086,0,0,1-.495.382.908.908,0,0,1-.66-.05.765.765,0,0,1-.367-.3A.945.945,0,0,1,49,87.107a2.221,2.221,0,0,1,.223-.541c.08-.143.154-.287.238-.426a.938.938,0,0,1,.466-.461c.079-.025.134.114.184.263s.109.3.064.367c-.169.252-.372.54-.53.813a.317.317,0,0,0,0,.367c0,.044.114.074.158.089a.229.229,0,0,0,.179-.055.839.839,0,0,0,.213-.312,1.35,1.35,0,0,0,.1-.64c0-.158-.119-.327-.178-.322h0c0,.04-.035,0-.115-.173l-.064-.1c-.064-.094-.05-.267.159-.332a.759.759,0,0,1,.277,0,.8.8,0,0,1,.243.139,1.857,1.857,0,0,1,.159.184l.089.183a1.575,1.575,0,0,1,.084.684,1.935,1.935,0,0,1-.327.957Z" fill="#221f1f"/>
    <path id="Path_19876" data-name="Path 19876" d="M54.663,89.477a1.142,1.142,0,0,1-.6.9,1.793,1.793,0,0,0-.2.094.9.9,0,0,1-.228.045.659.659,0,0,1-.625-.422,1.222,1.222,0,0,1-.079-.624,3.339,3.339,0,0,1,.059-.5.807.807,0,0,1,.322-.58c.07-.04.154.094.233.233s.184.258.159.312a4.182,4.182,0,0,0-.159.783.081.081,0,0,0,.025.1.17.17,0,0,0,.109,0,.41.41,0,0,0,.3-.293.815.815,0,0,0,.034-.367,1.258,1.258,0,0,0-.069-.263.262.262,0,0,0-.139-.133.168.168,0,0,0-.144.039.7.7,0,0,0-.074.134l-.03.07c-.054.109-.109.119-.287.054l-.109-.04A.237.237,0,0,1,53,88.738a.87.87,0,0,1,.05-.149l.109-.159a.787.787,0,0,1,.347-.277.752.752,0,0,1,.867.228,1.221,1.221,0,0,1,.273.56,1.428,1.428,0,0,1,.03.521Z" fill="#221f1f"/>
    <path id="Path_19877" data-name="Path 19877" d="M53.706,85.153h0a.105.105,0,0,1,0,.07l-4.591,5.126a.085.085,0,0,1-.059,0h0c-.03.035.1.218.282.407s.367.317.4.282h0a.117.117,0,0,1,0-.074l.188-.208,4.418-4.928a.1.1,0,0,1,.064-.03h0c.03-.035-.1-.208-.307-.382S53.736,85.119,53.706,85.153Z" fill="#232020"/>
    <path id="Path_19878" data-name="Path 19878" d="M49,58.843h0l-.263-2.31v-.025h0a2.629,2.629,0,0,0-.718.079h0v.095l.247,2.216h0a1.291,1.291,0,0,0,.362,0A1.34,1.34,0,0,0,49,58.843Z" fill="#232020"/>
    <path id="Path_19879" data-name="Path 19879" d="M49.928,57.341h0l-2.974.233a.039.039,0,0,1-.03,0h0a.919.919,0,0,0,0,.362,1.066,1.066,0,0,0,.064.362h.149l2.856-.223a.03.03,0,0,1,.029,0h0a.958.958,0,0,0,0-.362A.926.926,0,0,0,49.928,57.341Z" fill="#232020"/>
    <path id="Path_19880" data-name="Path 19880" d="M154.257,68.927h0v-.035l1.879-1.373h.03a1.09,1.09,0,0,0-.193-.307,1.132,1.132,0,0,0-.238-.278h0v.035l-.075.054-1.8,1.319h-.03a1.136,1.136,0,0,0,.188.307A1.269,1.269,0,0,0,154.257,68.927Z" fill="#232020"/>
    <path id="Path_19881" data-name="Path 19881" d="M156.027,68.991h0a.034.034,0,0,1-.034,0l-1.681-2.478v-.035h0a1.77,1.77,0,0,0-.322.173,1.039,1.039,0,0,0-.278.233h.035l.069.1,1.611,2.364a.036.036,0,0,1,0,.035h0a1.673,1.673,0,0,0,.318-.173A.983.983,0,0,0,156.027,68.991Z" fill="#232020"/>
    <path id="Path_19882" data-name="Path 19882" d="M80.844,36.31h0a.319.319,0,0,1-.119.1l-4.838,2.622L74.4,43.9v.044l-.029-.024-.5-.65a20.335,20.335,0,0,1-1.418-2.052.289.289,0,0,1-.025-.119h0a3.864,3.864,0,0,0-.56.049c-.3.05-.5.248-.427.4h0a.574.574,0,0,1,.11.144c.114.213.233.4.352.585.461.694.951,1.338,1.447,1.983l.541.689.718.9a2.086,2.086,0,0,0,.179.208l.084-.272.174-.546.332-1.09,1.338-4.428,4.487-2.429a.321.321,0,0,1,.139-.035h.03c.089-.049.049-.3-.1-.565S80.938,36.276,80.844,36.31Z" fill="#232020"/>
    <path id="Path_19883" data-name="Path 19883" d="M83.521,5.95A1.628,1.628,0,0,0,82.7,7.055a1.092,1.092,0,0,0,.57,1.1,1.773,1.773,0,0,0,1.076.094,2.292,2.292,0,0,0,.749-.233,1.259,1.259,0,0,0,.5-.5,7.105,7.105,0,0,0,.495-1.695l.308.069.139-.277h0l-.114.247V5.9h0l.133-.282c.318.168.576.322.863.446a1.985,1.985,0,0,0,1.795,0A1.814,1.814,0,0,0,90.2,4.19c-.059-.213.119-.318.407-.144a.932.932,0,0,1,.357.53,1.315,1.315,0,0,1-.075.9,2.846,2.846,0,0,1-.847,1.085,2.606,2.606,0,0,1-1.329.5A4.066,4.066,0,0,1,86.283,6.3h-.05a.52.52,0,0,1-.124-.094A.5.5,0,0,1,86,5.826L86.9,6c-.07.273-.144.546-.219.823a3.168,3.168,0,0,1-.9,1.681,2.486,2.486,0,0,1-.9.446,3.01,3.01,0,0,1-.947.134,2.172,2.172,0,0,1-1.066-.273,1.791,1.791,0,0,1-.754-.843,1.9,1.9,0,0,1-.129-1.11,2.264,2.264,0,0,1,.471-.992,2.69,2.69,0,0,1,2.291-.956,2.909,2.909,0,0,1,.8.208c.119.049.253.119.347.168l.179.1.188.11a.7.7,0,0,1,0-.224.446.446,0,0,1,.059-.247,5.064,5.064,0,0,1,.273-.794,2.258,2.258,0,0,1,.957-1.14,3.481,3.481,0,0,1,.689-.243,3.746,3.746,0,0,1,.714-.109,2.126,2.126,0,0,1,.679.055,1.3,1.3,0,0,1,.793.5.451.451,0,0,1,.065.447.522.522,0,0,1-.075.158c-.128.139-.337-.1-.669-.268a1.644,1.644,0,0,0-.917-.1,2.909,2.909,0,0,0-.5.109,2.258,2.258,0,0,0-.456.164,1.585,1.585,0,0,0-.54.714,3.376,3.376,0,0,0-.189.5.193.193,0,0,1-.039.139c-.04.044,0,.069-.045.2l-.03.153v.08c0,.025,0,.059-.044.039l-.382-.039a2.251,2.251,0,0,0-.134.258l-.228.495c-.213-.109-.436-.238-.654-.362a3.31,3.31,0,0,0-.313-.148,1.935,1.935,0,0,0-.575-.154,1.825,1.825,0,0,0-1.11.258Z" fill="#221f1f"/>
    <path id="Path_19884" data-name="Path 19884" d="M170.856,5.91h0a.1.1,0,0,1-.065-.03l-1.8-2.553-.922-1.269c-.328-.426-.61-.823-1.027-1.279a.909.909,0,0,1-.084-.119h0c-.109-.079-.293.134-.4.451l-.029.074V1.23a.457.457,0,0,1-.06.149,1.586,1.586,0,0,1-.119.213.2.2,0,0,1-.044.059h0V1.612l.138.153c1.2,1.488,2.345,3.173,3.471,4.79a.083.083,0,0,1,0,.069h0a1.355,1.355,0,0,0,.54-.283C170.692,6.123,170.9,5.945,170.856,5.91Z" fill="#232020"/>
    <path id="Path_19885" data-name="Path 19885" d="M169.963,1.418h0a.078.078,0,0,1,0,.07c-.768.669-1.527,1.348-2.275,2.047-.372.352-.744.709-1.106,1.081-.183.184-.362.377-.54.575a4.077,4.077,0,0,0-.541.744.276.276,0,0,1-.079.094h0c-.035.094.218.2.545.253l.238.035h.1a1.234,1.234,0,0,1,.267.069h-.034l.029-.05.05-.074a10.436,10.436,0,0,1,.912-.992c.337-.337.684-.669,1.036-.991.7-.659,1.428-1.3,2.157-1.938h.064a1.516,1.516,0,0,0-.342-.5C170.226,1.6,169.993,1.394,169.963,1.418Z" fill="#232020"/>
    <path id="Path_19886" data-name="Path 19886" d="M173.3,1.374h0a.069.069,0,0,1-.045,0h-.768l.064-.035A2.473,2.473,0,0,0,173.7.462a.772.772,0,0,0,.11-.556.7.7,0,0,0-.387-.431A1.5,1.5,0,0,0,173-.634a2.29,2.29,0,0,0-.361-.025.086.086,0,0,1-.055,0h0a.875.875,0,0,0-.055.362.807.807,0,0,0,.07.362h0a.055.055,0,0,1,.04,0h.2a1.139,1.139,0,0,1,.238.04h.049V.134l-.059.085a1.312,1.312,0,0,1-.377.3l-.565.3a1.42,1.42,0,0,0-.684.7c-.05.123-.094.262-.144.411.1.045.223.079.332.119a1.507,1.507,0,0,0,.5.04h1.1a.066.066,0,0,1,.044,0h0c.035,0,.065-.164.065-.362S173.335,1.379,173.3,1.374Z" fill="#232020"/>
    <circle id="Ellipse_9" data-name="Ellipse 9" cx="0.922" cy="0.922" r="0.922" transform="translate(171.991 39.885)" fill="#221f1f"/>
    <circle id="Ellipse_10" data-name="Ellipse 10" cx="0.922" cy="0.922" r="0.922" transform="translate(172.026 44.03)" fill="#221f1f"/>
    <path id="Path_19887" data-name="Path 19887" d="M175.709,42.081h0a.068.068,0,0,1-.054.04l-5.811.149a.076.076,0,0,1-.049-.035h0a1.492,1.492,0,0,0-.055.6,1.346,1.346,0,0,0,.09.6h0a.079.079,0,0,1,.054-.04h.233l5.572-.139a.064.064,0,0,1,.055.035h0a1.322,1.322,0,0,0,.055-.6A1.282,1.282,0,0,0,175.709,42.081Z" fill="#232020"/>
    <path id="Path_19888" data-name="Path 19888" d="M188.024,78.53h0a.176.176,0,0,1-.039-.084,1.488,1.488,0,1,0,0,.416.2.2,0,0,1,.039-.079h0c0-.065-.208-.114-.5-.109a1.586,1.586,0,0,0-.495.039h0s.024,0,.024.04a.672.672,0,0,1-.034.139.605.605,0,0,1-.7.352.595.595,0,0,1,.143-1.175.6.6,0,0,1,.6.5l-.024.034h0a1.651,1.651,0,0,0,.495.045C187.816,78.644,188.029,78.594,188.024,78.53Z" fill="#232020"/>
    <path id="Path_19889" data-name="Path 19889" d="M190.979,82.962h0a.17.17,0,0,1-.04-.079,1.378,1.378,0,1,0,0,.382.145.145,0,0,1,.04-.07h0c0-.059-.208-.109-.5-.1a2.293,2.293,0,0,0-.5.035h0s.03,0,0,.03a.276.276,0,0,1-.029.109.454.454,0,1,1,.049-.243v.024h0a2.423,2.423,0,0,0,.5.03C190.771,83.066,190.984,83.022,190.979,82.962Z" fill="#232020"/>
    <path id="Path_19890" data-name="Path 19890" d="M191.376,77.667h0a.1.1,0,0,1-.045.075L184.579,82.2a.11.11,0,0,1-.08,0h0c-.044.029.07.277.253.56s.367.5.412.451h0a.1.1,0,0,1,.044-.074l.273-.179,6.48-4.263a.134.134,0,0,1,.084,0h0c.044-.03-.065-.278-.248-.561S191.42,77.638,191.376,77.667Z" fill="#232020"/>
    <path id="Path_19891" data-name="Path 19891" d="M143.162,97.1h0a.073.073,0,0,1-.059.035h-.392l.357-1.68,1.086.376a.148.148,0,0,1,.039.055h0a1.52,1.52,0,0,0,.263-.546,1.435,1.435,0,0,0,.134-.594h0a.079.079,0,0,1-.064,0l-.229-.08-2.052-.714-.927,4.328h1.775a.066.066,0,0,1,.054.035h0a2.659,2.659,0,0,0,0-1.21Z" fill="#232020"/>
    <path id="Path_19892" data-name="Path 19892" d="M76.328,74.058h0a.273.273,0,0,1,.139,0l3.609,1.205,2.806-5.949-4.933-2.182a.225.225,0,0,1-.1-.084h0a1.291,1.291,0,0,0-.4.5c-.139.317-.173.58-.094.62h.03a.276.276,0,0,1,.134,0l.495.223,3.372,1.487-1.889,4-2.677-.893a.212.212,0,0,1-.1-.074h-.024c-.085-.03-.238.2-.347.5S76.244,74.033,76.328,74.058Z" fill="#232020"/>
    <path id="Path_19893" data-name="Path 19893" d="M139.821,47.4a18.7,18.7,0,0,0,1.487-3.837,7.458,7.458,0,0,0,.188-1.418,2.248,2.248,0,0,0-.143-1.046.76.76,0,0,0-.243-.293c-.174-.109-.377-.223-.565-.327a11.663,11.663,0,0,0-2.445-.992,10.619,10.619,0,0,0-2.325-.352c-.991-.049-2.013.07-3.034.035-.317,0-.312-.317-.069-.639a1.85,1.85,0,0,1,1.368-.685,12.585,12.585,0,0,1,6.48,1.364l.877.5.218.123c.09.055.2.129.293.2a2.016,2.016,0,0,1,.431.545,3.8,3.8,0,0,1,.283,2.246,16.536,16.536,0,0,1-1.309,4.239c-.183.411-.377.818-.59,1.224-.055.1-.114.2-.178.308a2.056,2.056,0,0,1-.139.193l-.144.134a2.976,2.976,0,0,1-.59.451,4.924,4.924,0,0,1-2.028.7,8.952,8.952,0,0,1-2.082.045,9.29,9.29,0,0,1-3.123-.734,4.135,4.135,0,0,1-.655-.337,2.273,2.273,0,0,1-.728-.679.614.614,0,0,1-.035-.546.781.781,0,0,1,.1-.218.316.316,0,0,1,.367-.059.962.962,0,0,1,.243.119,2.379,2.379,0,0,1,.312.183,6.982,6.982,0,0,0,2.31.907,8.939,8.939,0,0,0,2.588.214,4.884,4.884,0,0,0,1.775-.422,2.518,2.518,0,0,0,.684-.461l.1-.079.09-.154c.074-.134.153-.288.228-.441Z" fill="#221f1f"/>
    <path id="Path_19894" data-name="Path 19894" d="M118.374,49.161a8.7,8.7,0,0,1-3.193-1.621,7.7,7.7,0,0,1-2.107-2.881,7.4,7.4,0,0,1-.421-1.229,6.1,6.1,0,0,1-.233-1.265l-.04-.565-.025-.277V41.04l.06-1.11.183-1.091a4.43,4.43,0,0,1,.109-.56,2.382,2.382,0,0,1,.273-.63,3.785,3.785,0,0,1,1.983-1.388,10.478,10.478,0,0,1,2.166-.456,23.714,23.714,0,0,1,3.843-.084,20.38,20.38,0,0,1,2.439.262,7.925,7.925,0,0,1,2.384.779c.5.3.219.495-.267.59a5.618,5.618,0,0,1-2.092-.03,23.067,23.067,0,0,0-4.675-.422,15.557,15.557,0,0,0-2.321.189,5.507,5.507,0,0,0-2.037.694,1.4,1.4,0,0,0-.635.823c-.074.5-.159.952-.223,1.428a5.856,5.856,0,0,0,0,1.437,8.181,8.181,0,0,0,.193,1.4A6.385,6.385,0,0,0,115,45.656a6.236,6.236,0,0,0,2.4,1.9,7.98,7.98,0,0,0,3.778.719,5.164,5.164,0,0,0,.734-.069,5.859,5.859,0,0,0,.733-.119l.724-.179a2.3,2.3,0,0,0,.322-.119l.154-.064.139-.094a2.926,2.926,0,0,0,.962-.992,5.779,5.779,0,0,0,.61-1.318,15.642,15.642,0,0,0,.525-2.271,1.3,1.3,0,0,1,.332-.744,1.591,1.591,0,0,1,.749-.362,4.294,4.294,0,0,1,1.319-.069,6.056,6.056,0,0,1,1.11.178,3.552,3.552,0,0,1,1.358.65.86.86,0,0,1,.352.644.841.841,0,0,1,0,.283c-.1.263-.53,0-1.323-.253a6.04,6.04,0,0,0-1.869-.327,2.565,2.565,0,0,0-.818.1.253.253,0,0,0-.03.035v.139l-.025.124a9.4,9.4,0,0,1-1.74,4.461,3.8,3.8,0,0,1-1.735,1.151l-.873.218a7.888,7.888,0,0,1-.892.144,9.517,9.517,0,0,1-3.589-.209Z" fill="#221f1f"/>
    <path id="Path_19895" data-name="Path 19895" d="M128.894,43.117a11.352,11.352,0,0,1,1.076-4.3,7.433,7.433,0,0,1,.892-1.418,6.052,6.052,0,0,1,2.429-1.675,13.405,13.405,0,0,1,2.732-.63,23.818,23.818,0,0,1,2.444-.213,11.283,11.283,0,0,1,1.592.044,4.209,4.209,0,0,1,1.571.447c.318.168.114.421-.233.6a2.306,2.306,0,0,1-1.343.268,14.157,14.157,0,0,0-2.91-.064,17.1,17.1,0,0,0-2.935.426,4.538,4.538,0,0,0-2.757,1.958,8.5,8.5,0,0,0-1.3,3.723,14.233,14.233,0,0,0-.089,2.519A16.06,16.06,0,0,0,130.7,48.6a12.065,12.065,0,0,0,1.2,2.662c.1.183.228.352.337.53.422.655.5.863.382,1.205a1.6,1.6,0,0,1-.089.233c-.124.218-.531.1-.957-.4a12.239,12.239,0,0,1-2.35-5.3,17.687,17.687,0,0,1-.357-4.4Z" fill="#221f1f"/>
    <path id="Path_19896" data-name="Path 19896" d="M124.561,34.179c-3.232-3.054-8.611-2.063-11.844-.263" fill="none" stroke="#221f1f" stroke-linecap="round" stroke-linejoin="round" stroke-width="1.735"/>
    <path id="Path_19897" data-name="Path 19897" d="M123.634,59.081a4.975,4.975,0,0,0,4.14,2.4,5.311,5.311,0,0,0,3.609-1.83c.391-.416-1.026-.317-1.329,0-1.839,1.949-3.738.679-5.082-1.11C124.7,58.174,123.312,58.655,123.634,59.081Z" fill="#221f1f"/>
    <path id="Path_19898" data-name="Path 19898" d="M128.934,140.555h45.5L203.576,95.56c.63-.937-1.437-2.271-2.037-1.319l-28.408,43.89h-44.2C128.046,138.126,128.046,140.565,128.934,140.555Z" fill="#232020"/>
    <line id="Line_303" data-name="Line 303" x1="8.8" y1="1.661" transform="translate(103.754 38.76)" fill="none" stroke="#221f1f" stroke-linecap="round" stroke-linejoin="round" stroke-width="1.735"/>
    <path id="Path_19899" data-name="Path 19899" d="M167.688,121.582a22.357,22.357,0,0,0-3.991-.823c-1.378-.183-2.771-.317-4.17-.446l-3.068-.243c-3.61-.347-7.229-.763-10.8-1.452-1.587-.3-3.178-.625-4.735-.992-.991-.243-1.983-.5-2.974-.808l-.739-.233-.724-.282c-.5-.184-.962-.387-1.428-.6-.59-.268-.416-.451.174-.5a6.378,6.378,0,0,1,1.155.069,8.472,8.472,0,0,1,1.562.3,91.085,91.085,0,0,0,12.136,2.637c2.479.4,5.082.57,7.65.788,2.821.258,5.656.452,8.492.992a13.505,13.505,0,0,1,2.6.768,8.064,8.064,0,0,1,2.246,1.572,20.052,20.052,0,0,1,2.618,3.074,19.024,19.024,0,0,1,1.07,1.71,6.9,6.9,0,0,1,.774,1.934,1.864,1.864,0,0,1,0,.495.922.922,0,0,1-.258.566.8.8,0,0,1-.3.168.814.814,0,0,1-.288.055.964.964,0,0,1-.263,0,1.58,1.58,0,0,1-.243-.055,4.325,4.325,0,0,1-1.408-.892,12.413,12.413,0,0,1-2.052-2.36,6.842,6.842,0,0,1-.367-.61l-.045-.079-.024-.04a.985.985,0,0,0-.06-.084c-.045-.055-.1-.114-.159-.174a3.946,3.946,0,0,0-.733-.495l-.585-.318a1.89,1.89,0,0,1-.64-.5c-.059-.08-.154-.154-.188-.219s.084-.143.411-.173a3.673,3.673,0,0,1,1.458.263,3.456,3.456,0,0,1,1.353.907l.149.2.109.184a2.546,2.546,0,0,0,.164.262c.109.174.233.352.362.526a11.959,11.959,0,0,0,1.745,1.928,3.14,3.14,0,0,0,.9.576h.079a.436.436,0,0,0,.025.133.858.858,0,0,0,0,.124.355.355,0,0,0,.045.1H174.7a.185.185,0,0,0-.06-.029.723.723,0,0,0-.292-.08V129.4a.442.442,0,0,1,0-.089,4.284,4.284,0,0,0-.4-1.091,12.348,12.348,0,0,0-.649-1.17,20.987,20.987,0,0,0-2.479-3.223,11.612,11.612,0,0,0-1.487-1.333,5.5,5.5,0,0,0-1.681-.838Z" fill="#221f1f"/>
    <path id="Path_19900" data-name="Path 19900" d="M156.478,125.286c-.818-.372-1.641-.739-2.478-1.076a15.318,15.318,0,0,0-2.479-.863,29.327,29.327,0,0,0-5.255-.654c-1.309-.06-2.618-.055-3.932-.04a116.309,116.309,0,0,0-13.881.937c-1.022.134-2.043.293-3.059.447s-2.028.361-3.034.56c-2.573.53-5.121,1.17-7.685,1.735-.8.168-.778-.154-.183-.62a8.847,8.847,0,0,1,3.262-1.428,99.184,99.184,0,0,1,16.1-2.384c3.252-.208,6.638-.456,9.984-.432a54.482,54.482,0,0,1,5.523.323,19.47,19.47,0,0,1,2.762.5,21.83,21.83,0,0,1,2.622.952c2.087.878,4.12,1.84,6.153,2.806q2.306,1.105,4.586,2.271l.575.3.287.149.144.075.2.109c.253.148.546.282.769.441a2.015,2.015,0,0,1,.5.5.774.774,0,0,1,.133.3.412.412,0,0,1-.094.337,1.255,1.255,0,0,1-.565.342,3.394,3.394,0,0,1-.8.154c-.278,0-.63.03-.853.03a6.727,6.727,0,0,1-2.042-.308,17.071,17.071,0,0,1-1.8-.723c-1.2-.551-2.335-1.141-3.505-1.627a7.494,7.494,0,0,0-.774-.292c-.277-.084-.495-.179-.783-.253a12.215,12.215,0,0,0-2.072-.436,4.831,4.831,0,0,1-.56-.114,1.507,1.507,0,0,1-.407-.144,1.909,1.909,0,0,1-.332-.174c-.129-.1,0-.238.411-.381a2.9,2.9,0,0,1,.347-.109c.129,0,.278-.04.437-.055a4.768,4.768,0,0,1,1.12,0c2.479.3,4.665,1.6,6.8,2.573a13.731,13.731,0,0,0,1.587.645c.128.039.257.064.386.1a1.564,1.564,0,0,0,.377.074c.129,0,.233.04.377.05h.61l-2.068-1.041-2.444-1.2c-1.641-.793-3.292-1.572-4.958-2.315Z" fill="#221f1f"/>
    <path id="Path_19901" data-name="Path 19901" d="M129.117,133.337c-1.3.352-2.608.739-3.907,1.145-.5.144-.937.337-1.408.5-1.67.531-3.341,1.066-5.007,1.631-.734.253-1.487.5-2.2.793a20.227,20.227,0,0,1-2.836.952c-.61.134-.163-.991.893-1.423.942-.366,1.883-.723,2.84-1.07s1.929-.64,2.915-.923c1.18-.337,2.36-.823,3.55-1.219,1.309-.441,2.633-.848,3.966-1.24.823-.228,1.636-.471,2.479-.679.62-.163,1.249-.317,1.884-.456s1.259-.282,1.884-.416c.5-.119.991-.209,1.457-.318s.992-.2,1.488-.272c.213-.035.426-.08.649-.1.823-.05,1.091,0,1.269.317a.988.988,0,0,1,.114.2c.075.233-.247.446-.813.536-1.685.292-3.445.629-5.22,1.041-1.309.322-2.638.649-3.966,1.041Z" fill="#221f1f"/>
    <path id="Path_19902" data-name="Path 19902" d="M125.186,122.693c-.7-4.462,3.252-12.047,4.462-23.832.5-5.056-1.359-23.261-3.168-18.883-1.131,2.741,1.437,8.353-1.165,9.613-8.072,3.9-12.89-18.616-21.537-17.352a14.519,14.519,0,0,0-1.631.5c-14.9,4.036-29.25,52.378-25.006,66.612,1.918,6.415,18.19,5.875,35.9-1.552a13.6,13.6,0,0,1,1.354-12.612C114.378,125.182,124.09,122.817,125.186,122.693Z" fill="#221f1f"/>
    <path id="Path_19903" data-name="Path 19903" d="M77.84,115.1a132.811,132.811,0,0,1,5.022-16.44A91.826,91.826,0,0,1,90.3,83.146a46.517,46.517,0,0,1,3.663-5.166,22.007,22.007,0,0,1,4.69-4.368,12.417,12.417,0,0,1,2.593-1.314l.7-.218c.193-.049.392-.119.61-.193s.451-.154.714-.223a3.494,3.494,0,0,1,.406-.075h.387a5.819,5.819,0,0,1,2.975.615,10.625,10.625,0,0,1,2.379,1.7,27.7,27.7,0,0,1,3.555,4.338c1.056,1.522,2.033,3.074,3.039,4.591a35.238,35.238,0,0,0,3.242,4.318,9.915,9.915,0,0,0,1.983,1.7,4.115,4.115,0,0,0,2.3.694,2.443,2.443,0,0,0,.6-.074,1.046,1.046,0,0,0,.3-.06l.288-.109a2.736,2.736,0,0,0,.525-.233,1.386,1.386,0,0,0,.357-.347,4.081,4.081,0,0,0,.422-2.355c-.03-.868-.149-1.785-.233-2.707a12.129,12.129,0,0,1,0-2.85,3.27,3.27,0,0,1,.619-1.562.847.847,0,0,1,.6-.362.836.836,0,0,1,.625.317,2.416,2.416,0,0,1,.436.7,7.64,7.64,0,0,1,.283.789c.124.411.223.808.317,1.214.357,1.616.59,3.238.793,4.859a90.413,90.413,0,0,1,.7,9.742c0,.525,0,1.046-.025,1.576s-.079,1.066-.138,1.577l-.184,1.556-.223,1.547c-.322,2.062-.729,4.115-1.205,6.143s-1.031,4.035-1.571,6.033a37.936,37.936,0,0,0-1.279,5.989c0,.312-.025.575-.045.8a4.815,4.815,0,0,0,0,.541c0,.287-.05.421-.109.411s-.134-.164-.228-.456a5.284,5.284,0,0,1-.228-1.284,18.964,18.964,0,0,1,.421-4.576c.347-1.864.878-4,1.448-6.3q.763-3.06,1.314-6.148c.193-1.031.332-2.067.495-3.1l.184-1.557c.069-.531.1-.992.119-1.522.054-2.057-.06-4.164-.208-6.252s-.372-4.189-.67-6.256c-.153-1.036-.327-2.068-.55-3.069-.054-.248-.114-.5-.178-.739l-.1-.357-.054-.168s0-.085-.06-.085a.149.149,0,0,0-.034.045.359.359,0,0,0-.025.089,6.586,6.586,0,0,0-.069.665c-.01.228,0,.495,0,.733.029.992.178,2.048.262,3.134a12.473,12.473,0,0,1,.05,1.685,4.741,4.741,0,0,1-.4,1.84,2.848,2.848,0,0,1-.644.872,2.8,2.8,0,0,1-.9.5,4.043,4.043,0,0,1-.882.273l-.461.084a2.934,2.934,0,0,1-.5,0,5.613,5.613,0,0,1-3.366-1.205,13.943,13.943,0,0,1-2.395-2.35,76.306,76.306,0,0,1-4.462-6.39,34.219,34.219,0,0,0-4.714-6.034,7.289,7.289,0,0,0-3.079-1.814,4.555,4.555,0,0,0-.853-.129c-.282,0-.58.03-.848.049a5.908,5.908,0,0,0-.842.253c-.3.114-.694.218-.957.308a10.837,10.837,0,0,0-3.262,1.75,20.306,20.306,0,0,0-2.791,2.573A41.822,41.822,0,0,0,90.968,84.6a79.6,79.6,0,0,0-3.937,7.576,122.216,122.216,0,0,0-5.949,16.062c-.991,3.372-1.859,6.787-2.563,10.233a86.421,86.421,0,0,0-1.532,10.411,39.448,39.448,0,0,0,.065,7.932,16.424,16.424,0,0,0,.362,1.919,4.262,4.262,0,0,0,.728,1.666,4.731,4.731,0,0,0,1.354,1.229,8.725,8.725,0,0,0,1.715.823,22.22,22.22,0,0,0,7.754.888,50.3,50.3,0,0,0,7.848-.967,76.024,76.024,0,0,0,11.72-3.386c.952-.347,1.889-.724,2.826-1.106l.912-.386a1.517,1.517,0,0,0-.114-.308l-.03-.074-.054-.169-.124-.381a14.3,14.3,0,0,1-.3-6.326,14.955,14.955,0,0,1,.724-2.7c.159-.442.357-.868.56-1.294l.347-.625a2.3,2.3,0,0,1,.189-.307l.248-.377.233-.347,2.444-.59,1.829-.427c1.106-.247,2.008-.441,2.757-.57a14.22,14.22,0,0,1,3.128-.3,5.862,5.862,0,0,1,.991.069c.318.094-.143.273-1.3.65s-2.975.917-5.374,1.522l-3.565.927-.035.064-.044.075-.08.119c-.109.158-.188.337-.287.5a10.993,10.993,0,0,0-.5,1.061,13.365,13.365,0,0,0-.679,2.266,13.726,13.726,0,0,0-.149,4.74l.1.585.139.575c.04.193.109.371.164.56l.128.387.229.565.233.57.114.287.024.07c0,.03-.034.025-.044.039l-.144.06-1.14.471-1.408.57c-1.617.65-3.253,1.244-4.913,1.805a75.644,75.644,0,0,1-10.238,2.677,44.96,44.96,0,0,1-10.723.8,19.543,19.543,0,0,1-4.462-.793,10.3,10.3,0,0,1-2.172-.947,6.5,6.5,0,0,1-1.9-1.641,5.253,5.253,0,0,1-.674-1.13c-.079-.209-.163-.422-.233-.62l-.149-.56a18.671,18.671,0,0,1-.4-2.236,31.78,31.78,0,0,1-.218-4.437,66.215,66.215,0,0,1,.768-8.7c.427-2.876.992-5.721,1.641-8.542Z" fill="#221f1f"/>
    <path id="Path_19904" data-name="Path 19904" d="M130.7,122.574s3.886-5.949,8.4-6.514c0,0-7.585-2.519-10.481-2.687,0,0,.992-8.612.68-11.795,0,0-4.685,20.327-3.035,21S130.7,122.574,130.7,122.574Z" fill="#221f1f"/>
    <path id="Path_19905" data-name="Path 19905" d="M127.9,104.112l.65-2.707,1.195-5.008.352,5.107a28.541,28.541,0,0,1,0,3.257q-.09,1.591-.233,3.168c-.1,1.111-.169,2.216-.3,3.317l-.158,1.343-.04.208a.371.371,0,0,1,.2.04l.258.045.372.069.734.159c.495.114.956.233,1.432.362.952.258,1.889.53,2.826.818l1.4.441,2.087.674,1.314.436.327.11.164.059c.055,0,.129.035.119.05l.124.158c-.263.055-.5.094-.773.159l-.873.2c-.278.07-.6.134-.848.208l-.634.243-.635.248-.054.025h-.025l-.04.025-.084.049-.169.1a6.276,6.276,0,0,0-.659.426,24.794,24.794,0,0,0-4.526,4.536c-.417.5-.66.268-.59-.406a5.127,5.127,0,0,1,1.388-2.727,17.121,17.121,0,0,1,2.761-2.439,9.3,9.3,0,0,1,.793-.5l.4-.243.05-.03h.064c.074,0,.05,0,.035-.034a.5.5,0,0,0-.1-.075l-1.488-.5-1.546-.5c-.64-.2-1.294-.382-1.954-.546-.327-.074-.659-.158-.991-.218l-.5-.1-.615-.094-.872-.094-.219-.025h-.054s-.04,0-.03-.025v-.109l.05-.436.153-1.418.209-2.068c.139-1.378.262-2.761.357-4.139a33.506,33.506,0,0,0,.074-4.095l.992.069-.184.774q-.645,2.731-1.239,5.483c-.59,2.771-1.165,5.567-1.577,8.348-.154,1.081-.272,2.152-.337,3.218-.03.53-.054,1.066-.035,1.577a4.943,4.943,0,0,0,.07.738.751.751,0,0,0,.049.174.192.192,0,0,0,.109.1l.149.03c.1,0,.2.044.3.054.208.025.421.04.644.05.818.024,1.383-.035,1.785,0a1.554,1.554,0,0,1,.862.218,1.714,1.714,0,0,1,.3.183c.233.218-.446.655-1.815.838a8.74,8.74,0,0,1-1.576.065,5.837,5.837,0,0,1-.843-.119,5.621,5.621,0,0,1-.615-.219,1.023,1.023,0,0,1-.446-.471,1.578,1.578,0,0,1-.129-.312,2.736,2.736,0,0,1-.084-.332c-.025-.159-.045-.3-.06-.446-.024-.283-.034-.551-.034-.818a12.792,12.792,0,0,1,.064-1.572c.164-2.062.5-4.1.848-6.127.54-3.02,1.185-6.019,1.854-9.009Z" fill="#221f1f"/>
    <path id="Path_19906" data-name="Path 19906" d="M94.215,124.334l-.5,2.226-.134.555v.139l-.074.223h.312l.526-.089c.808-.134,1.606-.312,2.414-.436,2.856-.442,5.712-.833,8.577-1.22,1.269-.169,2.538-.377,3.8-.575a25.068,25.068,0,0,1,4.918-.5c.52,0,.456.436.054.858a3.108,3.108,0,0,1-.833.6,3.48,3.48,0,0,1-1.219.372c-3.257.391-6.544.847-9.881,1.189-1.983.2-4.035.635-6.058.992l-1.815.307-2.8.5.917-3.966c.308-1.354.605-2.707.873-4.065.411-2.058.818-4.13,1.1-6.193.218-1.6.317-3.187.4-4.774.025-.347,0-.689.035-1.041.079-1.3.163-1.695.61-1.983a1.9,1.9,0,0,1,.3-.178c.332-.124.58.426.64,1.417a47.335,47.335,0,0,1-.774,8.994c-.367,2.241-.818,4.462-1.284,6.7Z" fill="#221f1f"/>
  </g>
</svg>
