<svg xmlns="http://www.w3.org/2000/svg" width="123.635" height="161.211" viewBox="0 0 123.635 161.211">
  <g id="Media_house" data-name="Media house" transform="translate(43.403 303.948)">
    <g id="Group_11545" data-name="Group 11545">
      <g id="Group_11543" data-name="Group 11543">
        <path id="Path_20709" data-name="Path 20709" d="M38.341-151.75H-33.667a4.831,4.831,0,0,1-4.909-5.59l17.73-139.8a6.555,6.555,0,0,1,6.328-5.59l68.393-.8c7.851,0,8.916,3.3,8.524,6.387l-17.73,139.8A6.555,6.555,0,0,1,38.341-151.75Z" stroke="#000" stroke-width="0.5"/>
        <g id="Group_11542" data-name="Group 11542">
          <path id="Path_20710" data-name="Path 20710" d="M34.008-151.75H-38a4.847,4.847,0,0,1-4.909-5.619l17.73-140.517a6.565,6.565,0,0,1,6.328-5.618H53.157a4.846,4.846,0,0,1,4.909,5.618L40.336-157.369A6.566,6.566,0,0,1,34.008-151.75Z" fill="#fff" stroke="#000" stroke-width="0.5"/>
          <path id="Path_20711" data-name="Path 20711" d="M34.008-151.556H-38a5.1,5.1,0,0,1-3.9-1.7,5.174,5.174,0,0,1-1.205-4.141l17.73-140.517a6.773,6.773,0,0,1,6.52-5.788H53.157a5.1,5.1,0,0,1,3.9,1.7,5.172,5.172,0,0,1,1.2,4.14L40.528-157.344A6.772,6.772,0,0,1,34.008-151.556ZM-18.851-303.311a6.374,6.374,0,0,0-6.135,5.449L-42.717-157.344a4.8,4.8,0,0,0,1.111,3.836A4.719,4.719,0,0,0-38-151.944H34.008a6.374,6.374,0,0,0,6.136-5.449L57.874-297.91a4.792,4.792,0,0,0-1.111-3.836,4.719,4.719,0,0,0-3.606-1.565Z" stroke="#000" stroke-width="0.5"/>
        </g>
        <path id="Path_20712" data-name="Path 20712" d="M-38.806-157.175l16.93-134.17a1.514,1.514,0,0,1,1.461-1.3h72.4a1.119,1.119,0,0,1,1.133,1.3l-16.93,134.17a1.515,1.515,0,0,1-1.46,1.3h-72.4A1.119,1.119,0,0,1-38.806-157.175Z" fill="#fff" stroke="#000" stroke-width="0.5"/>
        <path id="Path_20713" data-name="Path 20713" d="M16.251-296.164a2.029,2.029,0,0,1-1.55-.676,2.056,2.056,0,0,1-.481-1.647,2.661,2.661,0,0,1,2.562-2.274,2.031,2.031,0,0,1,1.551.676,2.059,2.059,0,0,1,.48,1.647A2.66,2.66,0,0,1,16.251-296.164Zm.531-4.21a2.264,2.264,0,0,0-2.178,1.936,1.678,1.678,0,0,0,.387,1.342,1.649,1.649,0,0,0,1.26.545,2.263,2.263,0,0,0,2.178-1.936,1.675,1.675,0,0,0-.387-1.342A1.65,1.65,0,0,0,16.782-300.374Z" stroke="#000" stroke-width="0.5"/>
        <path id="Path_20714" data-name="Path 20714" d="M47.048-243.177l-.025,0a.194.194,0,0,1-.168-.216l6.066-47.974a.961.961,0,0,0-.22-.769.945.945,0,0,0-.721-.311h-72.4a1.319,1.319,0,0,0-1.269,1.128l-2.805,22.233a.194.194,0,0,1-.217.168.192.192,0,0,1-.167-.216l2.8-22.233a1.716,1.716,0,0,1,1.653-1.467h72.4a1.323,1.323,0,0,1,1.011.442,1.341,1.341,0,0,1,.314,1.073l-6.066,47.975A.192.192,0,0,1,47.048-243.177Z" stroke="#000" stroke-width="0.5"/>
        <path id="Path_20715" data-name="Path 20715" d="M-32.733-206.726h-.023a.194.194,0,0,1-.169-.216l.547-4.512a.194.194,0,0,1,.215-.169.193.193,0,0,1,.169.215l-.547,4.513A.193.193,0,0,1-32.733-206.726Z" stroke="#000" stroke-width="0.5"/>
        <path id="Path_20716" data-name="Path 20716" d="M-36.137-178.13l-.024,0a.194.194,0,0,1-.168-.216l2.909-23.059a.2.2,0,0,1,.217-.168.194.194,0,0,1,.167.217L-35.945-178.3A.194.194,0,0,1-36.137-178.13Z" stroke="#000" stroke-width="0.5"/>
        <path id="Path_20717" data-name="Path 20717" d="M-18.249-155.62h0l-19.423-.064a1.326,1.326,0,0,1-1.011-.442A1.345,1.345,0,0,1-39-157.2l1.737-13.767a.2.2,0,0,1,.217-.168.192.192,0,0,1,.167.216l-1.737,13.767a.961.961,0,0,0,.221.769.945.945,0,0,0,.721.311l19.423.064a.193.193,0,0,1,.193.194A.193.193,0,0,1-18.249-155.62Z" stroke="#000" stroke-width="0.5"/>
      </g>
      <g id="Group_11544" data-name="Group 11544">
        <path id="Path_20718" data-name="Path 20718" d="M42.449-278.081H3.505A2.783,2.783,0,0,1,1.446-279a2.779,2.779,0,0,1-.7-2.14,2.767,2.767,0,0,1,2.761-2.5H42.449a2.782,2.782,0,0,1,2.059.914,2.781,2.781,0,0,1,.7,2.141A2.767,2.767,0,0,1,42.449-278.081ZM3.505-283.245A2.382,2.382,0,0,0,1.129-281.1a2.393,2.393,0,0,0,.605,1.842,2.39,2.39,0,0,0,1.771.786H42.449a2.381,2.381,0,0,0,2.376-2.147,2.392,2.392,0,0,0-.6-1.842,2.391,2.391,0,0,0-1.771-.787Z" stroke="#000" stroke-width="0.5"/>
        <path id="Path_20719" data-name="Path 20719" d="M41.423-267.953h-31.2a2.782,2.782,0,0,1-2.059-.914,2.781,2.781,0,0,1-.7-2.141,2.767,2.767,0,0,1,2.761-2.5h31.2a2.781,2.781,0,0,1,2.059.915,2.779,2.779,0,0,1,.7,2.14A2.767,2.767,0,0,1,41.423-267.953Zm-31.2-5.164a2.382,2.382,0,0,0-2.376,2.148,2.392,2.392,0,0,0,.605,1.842,2.391,2.391,0,0,0,1.771.787h31.2a2.381,2.381,0,0,0,2.376-2.148,2.392,2.392,0,0,0-.6-1.842,2.393,2.393,0,0,0-1.772-.787Z" stroke="#000" stroke-width="0.5"/>
      </g>
    </g>
    <g id="Group_11552" data-name="Group 11552">
      <g id="Group_11546" data-name="Group 11546">
        <path id="Path_20720" data-name="Path 20720" d="M-7.472-182.057c-2.051.291-3.993-1.426-4.328-3.827l-4.167-29.738,7.394-1.05L-4.4-186.881C-4.066-184.5-5.439-182.346-7.472-182.057Z" fill="#fff" stroke="#000" stroke-width="0.5"/>
        <path id="Path_20721" data-name="Path 20721" d="M-7.922-181.832a3.7,3.7,0,0,1-2.225-.771,4.924,4.924,0,0,1-1.845-3.255L-16.159-215.6a.194.194,0,0,1,.165-.219l7.393-1.05a.2.2,0,0,1,.144.037.193.193,0,0,1,.075.128l4.175,29.791c.346,2.478-1.107,4.74-3.238,5.043A3.476,3.476,0,0,1-7.922-181.832Zm.45-.225h0Zm-8.277-33.4,4.141,29.547a4.535,4.535,0,0,0,1.694,3,3.246,3.246,0,0,0,2.415.663c1.92-.272,3.225-2.338,2.908-4.605l-4.147-29.6Z" stroke="#000" stroke-width="0.5"/>
      </g>
      <path id="Path_20722" data-name="Path 20722" d="M2.765-237.069l-20.616,4.346-8.9,3.677-4.258,3.2-.031.027c-.793.528-1.265,2.342-1.125,4.457.139,2.091.855,3.811,1.7,4.261l-.032,0,4.4,2.516,9.245,2.395,21.212,1.455,21.092,13.87.159.075c-5.287-3.56-9.671-14.592-10.552-27.878-.879-13.27,2.006-24.744,6.77-28.943l0,0L3.006-237.278Z" fill="#fff" stroke="#000" stroke-width="0.5"/>
      <ellipse id="Ellipse_15" data-name="Ellipse 15" cx="12.543" cy="29.922" rx="12.543" ry="29.922" transform="matrix(0.998, -0.067, 0.067, 0.998, 13.065, -254.46)" fill="#fff" stroke="#000" stroke-width="0.5"/>
      <path id="Path_20723" data-name="Path 20723" d="M29.225-195.386c-3.309,0-6.587-2.933-9.268-8.31-2.75-5.515-4.556-12.957-5.086-20.957-.8-12.117,1.515-23.173,5.9-28.166a7.034,7.034,0,0,1,4.817-2.676c2.706-.166,5.413,1.632,7.829,5.208A41.193,41.193,0,0,1,38.9-236.261a.194.194,0,0,1-.148.231.193.193,0,0,1-.23-.148c-2.486-11.407-7.514-18.94-12.587-18.94-.107,0-.212,0-.318.009a6.663,6.663,0,0,0-4.55,2.546c-4.326,4.92-6.606,15.865-5.809,27.884,1.083,16.357,7.494,29.317,14.291,28.9a6.662,6.662,0,0,0,4.55-2.545c4.325-4.92,6.606-15.866,5.809-27.885a70.085,70.085,0,0,0-.885-7.414.194.194,0,0,1,.157-.225.2.2,0,0,1,.224.158,70.336,70.336,0,0,1,.891,7.455c.8,12.117-1.515,23.173-5.9,28.166a7.03,7.03,0,0,1-4.817,2.676C29.457-195.389,29.341-195.386,29.225-195.386Z" stroke="#000" stroke-width="0.5"/>
      <path id="Path_20724" data-name="Path 20724" d="M29.034-198.856c-2.933,0-5.838-2.6-8.211-7.357-2.432-4.877-4.029-11.457-4.5-18.53-.71-10.715,1.341-20.493,5.224-24.91a6.238,6.238,0,0,1,4.272-2.373c4.1-.257,8.228,4.758,10.764,13.084a.194.194,0,0,1-.129.242.193.193,0,0,1-.241-.129c-2.482-8.146-6.45-13.052-10.369-12.811a5.87,5.87,0,0,0-4.006,2.242c-3.819,4.344-5.832,14.012-5.129,24.629.942,14.213,6.434,25.525,12.322,25.526q.142,0,.285-.009c5.432-.338,9.417-10.406,9.269-23.419a.193.193,0,0,1,.192-.195.2.2,0,0,1,.195.191A45.338,45.338,0,0,1,36.4-206.057c-1.769,4.464-4.274,7.018-7.056,7.191C29.241-198.859,29.137-198.856,29.034-198.856Z" stroke="#000" stroke-width="0.5"/>
      <g id="Group_11547" data-name="Group 11547">
        <ellipse id="Ellipse_16" data-name="Ellipse 16" cx="2.904" cy="6.928" rx="2.904" ry="6.928" transform="matrix(0.998, -0.067, 0.067, 0.998, 20.451, -231.911)" fill="#fff" stroke="#000" stroke-width="0.5"/>
        <path id="Path_20725" data-name="Path 20725" d="M24.193-218.084c-1.7,0-3.213-3-3.472-6.916-.189-2.843.362-5.445,1.4-6.629a1.767,1.767,0,0,1,1.217-.67c1.727-.115,3.3,2.928,3.562,6.913.188,2.843-.363,5.445-1.4,6.629a1.767,1.767,0,0,1-1.218.67C24.253-218.085,24.223-218.084,24.193-218.084Zm-.761-13.831-.066,0a1.406,1.406,0,0,0-.951.539c-.976,1.112-1.49,3.6-1.308,6.349.241,3.643,1.685,6.651,3.151,6.552a1.4,1.4,0,0,0,.951-.539c.977-1.111,1.491-3.6,1.309-6.349C26.28-228.949,24.876-231.915,23.432-231.915Z" stroke="#000" stroke-width="0.5"/>
      </g>
      <path id="Path_20726" data-name="Path 20726" d="M25.616-196.6a.2.2,0,0,1-.082-.018l-.159-.075-.024-.013L4.3-210.543l-21.161-1.452A.2.2,0,0,1-16.9-212l-9.246-2.4a.211.211,0,0,1-.047-.019l-4.4-2.516a.21.21,0,0,1-.064-.058c-.885-.568-1.563-2.293-1.7-4.36-.144-2.182.338-4.037,1.2-4.624l.022-.019,4.268-3.209a.176.176,0,0,1,.042-.024l8.9-3.676a.2.2,0,0,1,.035-.011l20.566-4.336L21.7-253.759a.193.193,0,0,1,.271.017.2.2,0,0,1,.051.143.2.2,0,0,1-.063.135c-4.867,4.29-7.561,15.858-6.7,28.785.858,12.949,5.064,24.093,10.466,27.73a.193.193,0,0,1,.06.256A.191.191,0,0,1,25.616-196.6ZM-16.816-212.38l21.194,1.454a.185.185,0,0,1,.093.032L23.466-198.4c-4.491-4.831-7.84-14.856-8.595-26.249-.749-11.309,1.217-21.606,4.982-26.988L2.892-236.923a.183.183,0,0,1-.087.043l-20.6,4.343-8.858,3.66-4.259,3.2-.019.015c-.734.489-1.172,2.291-1.04,4.283.13,1.954.8,3.68,1.6,4.1a.21.21,0,0,1,.067.058l4.286,2.45Z" stroke="#000" stroke-width="0.5"/>
      <g id="Group_11548" data-name="Group 11548">
        <path id="Path_20727" data-name="Path 20727" d="M2.822-237.118l19.008-16.5,0,0c-4.764,4.2-7.649,15.673-6.77,28.943.881,13.286,5.265,24.318,10.552,27.878l-.159-.075L4.4-210.71l-.489-.318c-2.442-1.623-4.472-6.612-4.857-12.621C-1.341-229.817.4-235.037,2.585-236.92Z" fill="#fff" stroke="#000" stroke-width="0.5"/>
        <path id="Path_20728" data-name="Path 20728" d="M25.616-196.6a.2.2,0,0,1-.082-.018l-.159-.075-.024-.013L4.293-210.548l-.488-.318c-2.579-1.714-4.565-6.846-4.944-12.77-.431-6.732,1.563-11.681,3.6-13.43l.237-.2L21.7-253.759a.193.193,0,0,1,.271.017.2.2,0,0,1,.051.143.2.2,0,0,1-.063.135c-4.867,4.29-7.561,15.858-6.7,28.785.858,12.949,5.064,24.093,10.466,27.73a.193.193,0,0,1,.06.256A.191.191,0,0,1,25.616-196.6Zm-5.763-55.046-16.9,14.669,0,0-.236.2c-2.026,1.742-3.867,6.806-3.463,13.111.372,5.81,2.289,10.822,4.771,12.471l.487.318L23.466-198.4c-4.491-4.831-7.84-14.856-8.595-26.249C14.122-235.962,16.088-246.259,19.853-251.641ZM2.822-237.118h0Z" stroke="#000" stroke-width="0.5"/>
      </g>
      <path id="Path_20729" data-name="Path 20729" d="M-26.33-214.526a.2.2,0,0,1-.1-.025l-4.165-2.38a.21.21,0,0,1-.064-.058c-.885-.568-1.563-2.293-1.7-4.36-.144-2.182.338-4.037,1.2-4.624l.022-.019,4.268-3.209a.193.193,0,0,1,.271.039.194.194,0,0,1-.038.271l-4.279,3.218-.019.015c-.734.489-1.172,2.291-1.04,4.283.13,1.954.8,3.68,1.6,4.1a.21.21,0,0,1,.067.058l4.071,2.327a.193.193,0,0,1,.072.264A.193.193,0,0,1-26.33-214.526Z" stroke="#000" stroke-width="0.5"/>
      <g id="Group_11549" data-name="Group 11549">
        <path id="Path_20730" data-name="Path 20730" d="M-26.041-214.591c-1.377-.722-2.483-3.6-2.709-7.012-.239-3.614.735-6.818,2.142-7.5l-4.4,3.252-.031.027c-.793.528-1.265,2.342-1.125,4.457.139,2.091.855,3.811,1.7,4.261l-.032,0Z" fill="#fff" stroke="#000" stroke-width="0.5"/>
        <path id="Path_20731" data-name="Path 20731" d="M-26.041-214.4a.2.2,0,0,1-.09-.022c-.034-.018-.069-.037-.1-.058l-4.356-2.452a.2.2,0,0,1-.065-.059c-.885-.568-1.563-2.293-1.7-4.36-.144-2.182.338-4.037,1.2-4.624l.022-.019,3.866-2.86a2.1,2.1,0,0,1,.575-.421.194.194,0,0,1,.249.075.194.194,0,0,1-.05.256l-.537.4c-1.075,1.113-1.726,3.934-1.528,6.93.217,3.27,1.244,6.035,2.515,6.8l.1.054a.193.193,0,0,1,.075.261A.192.192,0,0,1-26.041-214.4Zm-4.265-2.817,3.073,1.731a12.944,12.944,0,0,1-1.71-6.107,12.71,12.71,0,0,1,.982-6.266l-2.949,2.184-.019.015c-.734.489-1.172,2.291-1.04,4.283.13,1.954.8,3.68,1.6,4.1A.192.192,0,0,1-30.306-217.215Z" stroke="#000" stroke-width="0.5"/>
      </g>
      <g id="Group_11550" data-name="Group 11550">
        <path id="Path_20732" data-name="Path 20732" d="M-17.184-212.275l.4.086c-2.171-.455-4-4.824-4.344-10.065-.355-5.344,1.117-9.885,3.279-10.469l-.3.123-8.435,3.491c-1.421.651-2.408,3.872-2.167,7.506.233,3.506,1.438,6.453,2.867,7.069Z" fill="#fff" stroke="#000" stroke-width="0.5"/>
        <path id="Path_20733" data-name="Path 20733" d="M-16.786-211.995a.182.182,0,0,1-.04,0l-.03-.007-.369-.08-.008,0-8.7-2.259a.133.133,0,0,1-.028-.01c-1.518-.653-2.745-3.628-2.984-7.234-.244-3.679.736-6.987,2.279-7.694l8.273-3.424a2.168,2.168,0,0,1,.49-.2.193.193,0,0,1,.234.124.193.193,0,0,1-.11.241l-.478.2c-1.843,1.05-3,5.273-2.682,10.079.343,5.187,2.131,9.424,4.164,9.883l.028.006a.2.2,0,0,1,.148.23A.194.194,0,0,1-16.786-211.995Zm-9.033-2.723,7.7,2c-1.646-1.516-2.916-5.149-3.206-9.523-.275-4.155.564-7.9,2.012-9.667l-7.2,2.977c-1.375.631-2.277,3.845-2.048,7.315C-28.331-218.216-27.181-215.32-25.819-214.718Z" stroke="#000" stroke-width="0.5"/>
      </g>
      <g id="Group_11551" data-name="Group 11551">
        <path id="Path_20734" data-name="Path 20734" d="M23.354-232.106c-1.6.1-2.762,3.281-2.44,7.094.539,6.393,3.031,6.754,3.333,6.774.006,0,.005.008,0,.009l-6.494,1.767a60.053,60.053,0,0,1-1.122-8.3,60.3,60.3,0,0,1-.006-8.043Z" stroke="#000" stroke-width="0.5"/>
        <path id="Path_20735" data-name="Path 20735" d="M17.753-216.268a.194.194,0,0,1-.1-.029.2.2,0,0,1-.088-.125,60.391,60.391,0,0,1-1.126-8.328,60.376,60.376,0,0,1-.006-8.07.193.193,0,0,1,.068-.134.192.192,0,0,1,.145-.045l6.729.7a.192.192,0,0,1,.174.2.193.193,0,0,1-.182.189,1.454,1.454,0,0,0-.989.573c-.982,1.138-1.493,3.674-1.27,6.311.526,6.243,2.886,6.58,3.153,6.6a.2.2,0,0,1,.184.179.2.2,0,0,1-.149.211L17.8-216.275A.224.224,0,0,1,17.753-216.268Zm-.948-16.325a60.194,60.194,0,0,0,.019,7.817A60.055,60.055,0,0,0,17.9-216.7l5.653-1.538c-.93-.453-2.426-1.933-2.833-6.755-.234-2.777.3-5.367,1.363-6.6a2.418,2.418,0,0,1,.439-.4Z" stroke="#000" stroke-width="0.5"/>
      </g>
    </g>
    <g id="Group_11568" data-name="Group 11568">
      <g id="Group_11556" data-name="Group 11556">
        <g id="Group_11555" data-name="Group 11555">
          <g id="Group_11553" data-name="Group 11553">
            <path id="Path_20736" data-name="Path 20736" d="M58.65-154.567l1.284,8.415,3.107-1.58-.888-8.4Z" fill="#fff" stroke="#000" stroke-width="0.5"/>
            <path id="Path_20737" data-name="Path 20737" d="M59.934-145.958a.189.189,0,0,1-.089-.022.194.194,0,0,1-.1-.143l-1.283-8.415a.2.2,0,0,1,.112-.206l3.5-1.561a.2.2,0,0,1,.176.01.192.192,0,0,1,.1.147l.888,8.4a.194.194,0,0,1-.105.193l-3.106,1.58A.2.2,0,0,1,59.934-145.958Zm-1.07-8.492,1.221,8,2.749-1.4-.846-8Z" stroke="#000" stroke-width="0.5"/>
          </g>
          <g id="Group_11554" data-name="Group 11554">
            <path id="Path_20738" data-name="Path 20738" d="M59.133-149.335a22.251,22.251,0,0,0-1.032,4.344,1.562,1.562,0,0,0,1.556,1.811H71.084a.845.845,0,0,0,.572-1.477,36.551,36.551,0,0,0-8.764-5.547l-1.147,1.62S59.232-149.562,59.133-149.335Z" fill="#fff" stroke="#000" stroke-width="0.5"/>
            <path id="Path_20739" data-name="Path 20739" d="M71.084-142.987H59.657a1.774,1.774,0,0,1-1.361-.63,1.724,1.724,0,0,1-.386-1.406,21.8,21.8,0,0,1,1.046-4.39c.072-.164.17-.389,2.718.594l1.061-1.5a.194.194,0,0,1,.235-.066,36.979,36.979,0,0,1,8.814,5.58,1.016,1.016,0,0,1,.285,1.141A1.044,1.044,0,0,1,71.084-142.987Zm-11.808-6.189a22.828,22.828,0,0,0-.984,4.218,1.34,1.34,0,0,0,.3,1.092,1.388,1.388,0,0,0,1.065.492H71.084a.651.651,0,0,0,.623-.425.635.635,0,0,0-.179-.713,36.656,36.656,0,0,0-8.569-5.452L61.9-148.472a.192.192,0,0,1-.228.068A14.888,14.888,0,0,0,59.276-149.176Zm.035-.082Zm-.178-.077h0Z" stroke="#000" stroke-width="0.5"/>
          </g>
          <path id="Path_20740" data-name="Path 20740" d="M70.872-143.967H58.834a.193.193,0,0,1-.193-.193.194.194,0,0,1,.193-.194H70.872a.194.194,0,0,1,.194.194A.193.193,0,0,1,70.872-143.967Z" stroke="#000" stroke-width="0.5"/>
          <path id="Path_20741" data-name="Path 20741" d="M64.308-146.386a.184.184,0,0,1-.1-.027.194.194,0,0,1-.069-.265l1.173-1.988a.194.194,0,0,1,.265-.068.194.194,0,0,1,.069.265l-1.173,1.988A.194.194,0,0,1,64.308-146.386Z" stroke="#000" stroke-width="0.5"/>
          <path id="Path_20742" data-name="Path 20742" d="M66.027-146.1a.2.2,0,0,1-.094-.024.194.194,0,0,1-.075-.264l.76-1.361a.194.194,0,0,1,.264-.075.193.193,0,0,1,.074.263L66.2-146.2A.193.193,0,0,1,66.027-146.1Z" stroke="#000" stroke-width="0.5"/>
        </g>
        <path id="Path_20743" data-name="Path 20743" d="M66.345-208.765S75-195.652,77.958-187.323a4.2,4.2,0,0,1-1.105,4.49c-3.437,3.184-10.789,9.917-15.509,13.675l-1.41-3.58s1.7-8.288,8.1-12.022L60.1-196.585l-1.746-9.2Z" stroke="#000" stroke-width="0.5"/>
        <path id="Path_20744" data-name="Path 20744" d="M51.333-205.216s2.563,19.6,2.956,24.606a119.877,119.877,0,0,1-.163,14.663c-.194,4.087,4.444,13.591,4.444,13.591l4.47-.791.83-46.04,1.2-8.522Z" stroke="#000" stroke-width="0.5"/>
        <path id="Path_20745" data-name="Path 20745" d="M63.344-169.813h0a.192.192,0,0,1-.192-.194l.023-7.091a.193.193,0,0,1,.193-.193h0a.193.193,0,0,1,.193.194l-.023,7.091A.194.194,0,0,1,63.344-169.813Z" fill="#fff" stroke="#000" stroke-width="0.5"/>
        <path id="Path_20746" data-name="Path 20746" d="M63.805-191.727a.194.194,0,0,1-.194-.194v-3.658a.191.191,0,0,1,.086-.161l2.156-1.434a.193.193,0,0,1,.268.054.193.193,0,0,1-.053.269L64-195.475v3.554A.193.193,0,0,1,63.805-191.727Z" fill="#fff" stroke="#000" stroke-width="0.5"/>
        <path id="Path_20747" data-name="Path 20747" d="M53.1-194.691a.193.193,0,0,1-.148-.068.193.193,0,0,1,.023-.273c.023-.02,2.355-2.044,3.139-7a.192.192,0,0,1,.221-.161.192.192,0,0,1,.161.221c-.808,5.116-3.171,7.156-3.272,7.24A.193.193,0,0,1,53.1-194.691Z" fill="#fff" stroke="#000" stroke-width="0.5"/>
      </g>
      <g id="Group_11562" data-name="Group 11562">
        <g id="Group_11557" data-name="Group 11557">
          <path id="Path_20748" data-name="Path 20748" d="M74.455-221.588a11.022,11.022,0,0,1,1.463-1.042c.648-.352,2.654-3.345,2.654-3.345s-.06,4.721-2.13,5.442Z" fill="#fff" stroke="#000" stroke-width="0.5"/>
          <path id="Path_20749" data-name="Path 20749" d="M76.442-220.339a.192.192,0,0,1-.091-.023l-1.987-1.055a.189.189,0,0,1-.1-.15.191.191,0,0,1,.067-.168,10.927,10.927,0,0,1,1.5-1.065,18.348,18.348,0,0,0,2.585-3.283.193.193,0,0,1,.218-.077.192.192,0,0,1,.136.187c0,.2-.086,4.865-2.26,5.623A.194.194,0,0,1,76.442-220.339ZM74.8-221.622l1.652.877c1.4-.578,1.783-3.267,1.886-4.549a14.472,14.472,0,0,1-2.33,2.834A9.437,9.437,0,0,0,74.8-221.622Z" stroke="#000" stroke-width="0.5"/>
        </g>
        <g id="Group_11560" data-name="Group 11560">
          <g id="Group_11558" data-name="Group 11558">
            <path id="Path_20750" data-name="Path 20750" d="M72.436-221h2.351l4.454-6.439H76.948Z" stroke="#000" stroke-width="0.5"/>
            <path id="Path_20751" data-name="Path 20751" d="M74.787-220.806H72.436a.2.2,0,0,1-.172-.1.194.194,0,0,1,.014-.2l4.511-6.439a.2.2,0,0,1,.159-.083H79.24a.194.194,0,0,1,.172.1.194.194,0,0,1-.012.2l-4.454,6.439A.192.192,0,0,1,74.787-220.806Zm-1.979-.387h1.877l4.186-6.052H77.049Z" stroke="#000" stroke-width="0.5"/>
          </g>
          <g id="Group_11559" data-name="Group 11559">
            <path id="Path_20752" data-name="Path 20752" d="M72.95-221H75.3l4.454-6.439H77.462Z" fill="#fff" stroke="#000" stroke-width="0.5"/>
            <path id="Path_20753" data-name="Path 20753" d="M75.3-220.806H72.95a.2.2,0,0,1-.172-.1.194.194,0,0,1,.014-.2L77.3-227.55a.2.2,0,0,1,.159-.083h2.293a.192.192,0,0,1,.171.1.194.194,0,0,1-.012.2L75.46-220.89A.192.192,0,0,1,75.3-220.806Zm-1.979-.387H75.2l4.186-6.052H77.563Z" stroke="#000" stroke-width="0.5"/>
          </g>
        </g>
        <g id="Group_11561" data-name="Group 11561">
          <path id="Path_20754" data-name="Path 20754" d="M74.455-221.588s-2.927,4.676-5.658,4.186c-1.93-.347-2.93-2.431-4.586-4.769a14.141,14.141,0,0,0-3.662-3.572,24.357,24.357,0,0,0-7.97-1.023,10.7,10.7,0,0,0-9.6,6.928A29.845,29.845,0,0,0,41.7-205.78c1.428,12.067,11.518,10.5,11.518,10.5l1.637-2.575s-4.513-.3-5.57-6.516a17.052,17.052,0,0,1,.484-5.651l.72,5.19a1.582,1.582,0,0,0,1.421,1.358,13.953,13.953,0,0,0,3.814-.256c3.575-.664,7.1-2.918,9.378-3.175,1.529-.174,1.9-1.1,1.814-2.323a5.6,5.6,0,0,0,2.57.042c5.7-1.421,6.736-11.2,6.736-11.2Z" fill="#fff" stroke="#000" stroke-width="0.5"/>
          <path id="Path_20755" data-name="Path 20755" d="M52.065-195.017a10.382,10.382,0,0,1-6.242-2.008c-2.393-1.817-3.846-4.755-4.316-8.733a30.241,30.241,0,0,1,1.286-14.148,10.89,10.89,0,0,1,9.777-7.054,24.841,24.841,0,0,1,8.041,1.034.276.276,0,0,1,.039.018,14.227,14.227,0,0,1,3.719,3.625c.314.444.6.874.881,1.291,1.171,1.75,2.1,3.132,3.581,3.4a2.091,2.091,0,0,0,.378.033c2.467,0,5.055-4.087,5.082-4.13a.194.194,0,0,1,.124-.087.194.194,0,0,1,.148.029l1.766,1.2a.192.192,0,0,1,.084.181c-.043.4-1.119,9.933-6.881,11.371a5.618,5.618,0,0,1-2.414.01,2,2,0,0,1-1.995,2.275,16.41,16.41,0,0,0-3.929,1.329,27.353,27.353,0,0,1-5.435,1.845,14.357,14.357,0,0,1-3.868.258,1.768,1.768,0,0,1-1.595-1.524l-.57-4.109a14.28,14.28,0,0,0-.251,4.511c1.02,6,5.348,6.352,5.392,6.355a.2.2,0,0,1,.16.106.194.194,0,0,1-.01.191l-1.637,2.575a.2.2,0,0,1-.133.088A8.369,8.369,0,0,1,52.065-195.017Zm1.441-31.576q-.453,0-.919.02a10.5,10.5,0,0,0-9.432,6.8A29.88,29.88,0,0,0,41.891-205.8c.458,3.869,1.86,6.719,4.166,8.47a10.336,10.336,0,0,0,7.045,1.871l1.429-2.248c-1.06-.208-4.53-1.292-5.438-6.63a17.013,17.013,0,0,1,.488-5.733.2.2,0,0,1,.2-.145.2.2,0,0,1,.181.167l.72,5.191a1.381,1.381,0,0,0,1.246,1.191,13.834,13.834,0,0,0,3.762-.253,27,27,0,0,0,5.356-1.821,16.61,16.61,0,0,1,4.035-1.357c1.242-.14,1.733-.774,1.643-2.117a.2.2,0,0,1,.067-.16.2.2,0,0,1,.168-.042,5.4,5.4,0,0,0,2.481.043c5.172-1.29,6.436-9.829,6.576-10.922l-1.5-1.019c-.569.858-3.19,4.563-5.747,4.1-1.647-.3-2.612-1.739-3.835-3.565-.277-.414-.564-.843-.875-1.282a14.113,14.113,0,0,0-3.587-3.507A24.487,24.487,0,0,0,53.506-226.593Z" stroke="#000" stroke-width="0.5"/>
        </g>
        <path id="Path_20756" data-name="Path 20756" d="M50.135-210.467a.2.2,0,0,1-.059-.009.194.194,0,0,1-.126-.243l1.791-5.656a.193.193,0,0,1,.243-.126.192.192,0,0,1,.126.242L50.319-210.6A.194.194,0,0,1,50.135-210.467Z" stroke="#000" stroke-width="0.5"/>
        <path id="Path_20757" data-name="Path 20757" d="M66.845-210.416a.192.192,0,0,1-.192-.174c-.292-3.012-3.43-9.967-3.462-10.037a.194.194,0,0,1,.1-.257.194.194,0,0,1,.256.1c.13.288,3.2,7.084,3.494,10.159a.193.193,0,0,1-.174.211Z" stroke="#000" stroke-width="0.5"/>
      </g>
      <g id="Group_11567" data-name="Group 11567">
        <g id="Group_11563" data-name="Group 11563">
          <path id="Path_20758" data-name="Path 20758" d="M55.493-232.567l-4.015,6.006a29.684,29.684,0,0,0,5.416,1.756c2.056.312-.454-1.864-.454-1.864l1.625-3.7Z" fill="#fff" stroke="#000" stroke-width="0.5"/>
          <path id="Path_20759" data-name="Path 20759" d="M57.249-224.58a2.611,2.611,0,0,1-.384-.034,29.465,29.465,0,0,1-5.464-1.769.2.2,0,0,1-.109-.123.193.193,0,0,1,.025-.162l4.015-6.007a.2.2,0,0,1,.135-.084.189.189,0,0,1,.152.045l2.572,2.2a.194.194,0,0,1,.051.225l-1.568,3.567c.507.453,1.414,1.359,1.184,1.859A.612.612,0,0,1,57.249-224.58Zm-5.48-2.068A28,28,0,0,0,56.923-225c.51.077.583-.027.583-.028.08-.174-.488-.888-1.193-1.5a.192.192,0,0,1-.05-.224l1.567-3.565-2.3-1.966Z" stroke="#000" stroke-width="0.5"/>
        </g>
        <g id="Group_11566" data-name="Group 11566">
          <g id="Group_11565" data-name="Group 11565">
            <path id="Path_20760" data-name="Path 20760" d="M63.26-235.429c-1.117-.988-2.511-.051-3.813-1.259-.6-.554-.635-1.058-1.364-1.376a2.122,2.122,0,0,0-1.945.047c-.76.537-.248,1.435-.919,3.384-.472,1.368-1.077,1.948-.767,2.446s1.1.173,1.479.7c.5.678-.491,1.674-.229,2.615.165.593.969,1.441,2.978,1.881a.69.69,0,0,0,.785-.407c.165-.394.371-.892.528-1.386.747-2.349.42-3.271,1.026-3.556.927-.436,1.972,1.055,2.664.642C64.4-232.132,64.407-234.415,63.26-235.429Z" stroke="#000" stroke-width="0.5"/>
            <g id="Group_11564" data-name="Group 11564">
              <path id="Path_20761" data-name="Path 20761" d="M58.444-234.442l.412.164s-1.182,2.7-1.372,3.525,2.313,1.605,2.313,1.605l.408-.28.3.089a.327.327,0,0,0,.278-.047.321.321,0,0,0,.138-.244,11.862,11.862,0,0,1,.751-3.6A3.6,3.6,0,0,0,58.444-234.442Z" fill="#fff" stroke="#000" stroke-width="0.5"/>
              <path id="Path_20762" data-name="Path 20762" d="M58.636-234.418a.52.52,0,0,0,.183-.042.129.129,0,0,1,.11,0,.2.2,0,0,1,.112.256l0,.005v0c-.221.515-.435,1.036-.647,1.555s-.419,1.043-.595,1.567c-.042.127-.084.267-.11.378a.308.308,0,0,0,.076.234,2,2,0,0,0,.588.474,8.186,8.186,0,0,0,1.506.655l-.169.026c.137-.092.271-.188.411-.275l.015-.01a.17.17,0,0,1,.145-.016c.09.031.178.073.267.109l.049.022a.124.124,0,0,0,.039.009.15.15,0,0,0,.08-.016.185.185,0,0,0,.094-.132l.02-.271c.032-.385.072-.769.123-1.152A8.949,8.949,0,0,1,61.5-233.3l.023.195a3.2,3.2,0,0,0-.624-.558,3.447,3.447,0,0,0-.753-.4,3.405,3.405,0,0,0-.825-.194,3.773,3.773,0,0,0-.426-.021c-.071,0-.142.005-.213.008h-.027s0,0,0,0a.083.083,0,0,0,.016-.028A.118.118,0,0,0,58.636-234.418Zm-.384-.048a.672.672,0,0,1,.188-.144.521.521,0,0,1,.128-.04l.056-.007.03,0c.078-.005.157-.013.236-.013a3.953,3.953,0,0,1,.474.017,3.794,3.794,0,0,1,.922.222,3.81,3.81,0,0,1,.837.443,3.471,3.471,0,0,1,.708.646.184.184,0,0,1,.024.192v0a7.09,7.09,0,0,0-.372,1.052c-.1.362-.183.731-.249,1.1s-.117.749-.149,1.127l-.013.142c0,.052,0,.081-.016.158a.468.468,0,0,1-.231.318.522.522,0,0,1-.193.063.515.515,0,0,1-.1,0c-.037,0-.071-.011-.091-.013-.094-.017-.19-.029-.284-.05l.16-.026c-.131.1-.269.189-.4.284a.19.19,0,0,1-.169.025,8.564,8.564,0,0,1-1.594-.677,2.38,2.38,0,0,1-.718-.581.869.869,0,0,1-.129-.244.633.633,0,0,1-.021-.31c.037-.164.079-.293.124-.433.184-.544.394-1.068.607-1.592s.438-1.041.666-1.559l.108.264a1.267,1.267,0,0,1-.3-.166C58.387-234.332,58.316-234.409,58.252-234.466Z" stroke="#000" stroke-width="0.5"/>
            </g>
            <path id="Path_20763" data-name="Path 20763" d="M57.519-232.536s.28-1.6-.473-1.569A.82.82,0,1,0,57.519-232.536Z" fill="#fff" stroke="#000" stroke-width="0.5"/>
          </g>
        </g>
      </g>
    </g>
  </g>
</svg>
