<svg xmlns="http://www.w3.org/2000/svg" width="42.177" height="39.345" viewBox="0 0 42.177 39.345">
  <g id="Merades-Logo" transform="translate(-0.8 17.6)">
    <g id="Group_11621" data-name="Group 11621" transform="translate(14.175 -14.573)">
      <path id="Path_20824" data-name="Path 20824" d="M40.275,8.053H35.3V-5.42c0-1.464.1-3.027.2-4.784h-.1C35.1-8.837,34.9-7.861,34.71-7.178L29.34,8.053h-4.2L19.772-7.08a17.732,17.732,0,0,1-.683-3.124h-.2c.1,2.246.2,4.2.2,5.858v12.4H14.5V-14.5h7.42L26.509-1.125A19.338,19.338,0,0,1,27.29,2.1h.1q.439-1.9.879-3.222L32.855-14.5h7.225V8.053Z" transform="translate(-14.5 14.5)" fill="#fff"/>
    </g>
    <path id="Path_104" d="M9.483,21.745,9,21.55c-.1-.1-.2-.2-.2-.293V-17.307a.259.259,0,0,1,.293-.293c.1,0,.2,0,.2.1l.488.391a.21.21,0,0,1,.2.2V21.355a.507.507,0,0,1-.2.391Z" transform="translate(-0.19 0)" fill="#fff"/>
    <path id="Path_105" d="M.8,13.979v-.488c0-.2.1-.391.293-.391H42.586c.2,0,.391.1.391.293h0v.586c0,.2-.1.391-.293.391H1.191A.42.42,0,0,1,.8,13.979Z" transform="translate(0 -0.727)" fill="#fff"/>
  </g>
</svg>
