<svg id="Platform-Logo" xmlns="http://www.w3.org/2000/svg" xmlns:xlink="http://www.w3.org/1999/xlink" width="32.266" height="28.976" viewBox="0 0 32.266 28.976">
  <defs>
    <clipPath id="clip-path">
      <rect id="Rectangle_178" data-name="Rectangle 178" width="32.266" height="28.976" fill="none"/>
    </clipPath>
  </defs>
  <g id="Group_29" data-name="Group 29" clip-path="url(#clip-path)">
    <path id="Path_83" data-name="Path 83" d="M12.5.983a14.23,14.23,0,0,0-1.752.086,3.491,3.491,0,0,0-1.058.277,1.278,1.278,0,0,0-.577.513,2.9,2.9,0,0,0-.288.791,27.982,27.982,0,0,0-.214,4.573v14.21q0,1.731.043,2.842a15.071,15.071,0,0,0,.128,1.645,3.415,3.415,0,0,0,.267.919,1.552,1.552,0,0,0,.577.641,2.981,2.981,0,0,0,1.037.385,8.478,8.478,0,0,0,1.624.128h.748v.983H0v-.983H.748a8.752,8.752,0,0,0,1.581-.117,2.962,2.962,0,0,0,1.015-.364,1.622,1.622,0,0,0,.588-.6,3.174,3.174,0,0,0,.3-.845,11.314,11.314,0,0,0,.16-1.656q.053-1.165.054-2.98V7.223q0-1.731-.054-2.852a11.012,11.012,0,0,0-.16-1.613,4.611,4.611,0,0,0-.257-.812,1.185,1.185,0,0,0-.534-.556,3.134,3.134,0,0,0-1.068-.31A13.859,13.859,0,0,0,.534.983H0V0H32.266V.983h-.427a14.512,14.512,0,0,0-1.763.086,3.51,3.51,0,0,0-1.069.277,1.278,1.278,0,0,0-.577.513,2.9,2.9,0,0,0-.288.791,27.982,27.982,0,0,0-.214,4.573v14.21q0,1.731.032,2.842a13.843,13.843,0,0,0,.118,1.645,3.558,3.558,0,0,0,.267.909,1.534,1.534,0,0,0,.577.652,2.981,2.981,0,0,0,1.037.385,8.615,8.615,0,0,0,1.645.128h.662v.983H19.082v-.983h1a8.6,8.6,0,0,0,1.56-.117,2.961,2.961,0,0,0,1.015-.364,1.622,1.622,0,0,0,.588-.6,3.176,3.176,0,0,0,.3-.845,32.673,32.673,0,0,0,.193-4.637V7.223a31.07,31.07,0,0,0-.193-4.466,4.611,4.611,0,0,0-.257-.812,1.184,1.184,0,0,0-.534-.556,3.134,3.134,0,0,0-1.068-.31,13.858,13.858,0,0,0-1.838-.1Z" fill="#fff"/>
  </g>
</svg>
