<svg xmlns="http://www.w3.org/2000/svg" width="16.115" height="19.696" viewBox="0 0 16.115 19.696">
  <path id="Play_Store" data-name="Play Store" d="M7.029,1a.448.448,0,0,0-.316.764L7.886,2.937a5.359,5.359,0,0,0-2.2,4.33H16.429a5.359,5.359,0,0,0-2.2-4.33L15.4,1.764a.448.448,0,0,0-.633-.633L13.443,2.458a5.333,5.333,0,0,0-4.77,0L7.345,1.131A.446.446,0,0,0,7.029,1ZM8.372,4.581h.9v.9h-.9Zm4.476,0h.9v.9h-.9ZM3.9,8.162a.9.9,0,0,0-.9.9v5.372a.9.9,0,0,0,1.791,0V9.058A.9.9,0,0,0,3.9,8.162Zm1.791,0v7.162a.9.9,0,0,0,.9.9h.9v3.134a1.343,1.343,0,1,0,2.686,0V16.22h1.791v3.134a1.343,1.343,0,1,0,2.686,0V16.22h.9a.9.9,0,0,0,.9-.9V8.162Zm12.534,0a.9.9,0,0,0-.9.9v5.372a.9.9,0,0,0,1.791,0V9.058A.9.9,0,0,0,18.22,8.162Z" transform="translate(-3 -1)" fill="#fff"/>
</svg>
