<svg xmlns="http://www.w3.org/2000/svg" width="48.497" height="48.5" viewBox="0 0 48.497 48.5">
  <g id="First_party_data" data-name="First party data" transform="translate(78.315 9.147)">
    <path id="Path_19418" data-name="Path 19418" d="M-72.466,10.3a.8.8,0,0,0-.8.8h0a.8.8,0,0,0,.8.8h22.4a.8.8,0,0,0,.8-.8.8.8,0,0,0-.8-.8Zm-4.8-11.2a.8.8,0,0,0-.8.8h0V27.1a.8.8,0,0,0,.8.8h24a.8.8,0,0,0,.8-.8.8.8,0,0,0-.8-.8h-23.2V.706h3.2a.8.8,0,0,0,.8-.8h0a.8.8,0,0,0-.8-.8h-4Zm27.2-3.2a.8.8,0,0,0-.8.8.8.8,0,0,0,.8.8h13.6V19.1a.8.8,0,0,0,.8.8h0a.8.8,0,0,0,.8-.8V-3.3a.8.8,0,0,0-.8-.8Zm8,36.8a.8.8,0,0,0-.8.8v4.176a.8.8,0,0,0,.8.8.8.8,0,0,0,.8-.8h0V33.5a.8.8,0,0,0-.8-.8Zm-11.2,4.8a.8.8,0,0,0-.8.8h0a.8.8,0,0,0,.8.8h22.4a.8.8,0,0,0,.8-.8.8.8,0,0,0-.8-.8Zm0-19.2a.82.82,0,0,0-.8.8V33.5a.8.8,0,0,0,.8.8h22.4a.8.8,0,0,0,.8-.8V19.1a.8.8,0,0,0-.8-.8Zm.8,1.6h20.8V32.7h-20.8Zm-8.8-13.6a.8.8,0,0,0-.8.8v3.6a.8.8,0,0,0,.8.8.8.8,0,0,0,.8-.8h0V7.1a.8.8,0,0,0-.8-.8Zm-12-14.4V6.3a.8.8,0,0,0,.8.8h22.4a.8.8,0,0,0,.8-.8V-8.1a.8.8,0,0,0-.8-.8H-72.447a.756.756,0,0,0-.817.8Zm1.6.8h20.8V5.5h-20.8Z" transform="translate(0 0)" stroke="#f7f7f7" stroke-width="0.5"/>
  </g>
</svg>
