<svg xmlns="http://www.w3.org/2000/svg" width="59.869" height="47.485" viewBox="0 0 59.869 47.485">
  <g id="Real_time_tracking" data-name="Real time tracking" transform="translate(-1.839 -11.515)">
    <path id="Path_19256" data-name="Path 19256" d="M53.618,24.379a3.666,3.666,0,1,1,3.666-3.666A3.666,3.666,0,0,1,53.618,24.379Zm0-6.03a2.365,2.365,0,1,0,2.364,2.365,2.365,2.365,0,0,0-2.364-2.365Z" transform="translate(-16.908 -1.932)"/>
    <path id="Path_19257" data-name="Path 19257" d="M51.686,31.268a.651.651,0,0,1-.446-.176c-.28-.268-6.82-6.545-6.82-12.311a7.266,7.266,0,1,1,14.532,0c0,5.767-6.54,12.043-6.819,12.308A.651.651,0,0,1,51.686,31.268Zm0-18.452a5.972,5.972,0,0,0-5.965,5.965c0,4.387,4.507,9.406,5.965,10.914,1.458-1.508,5.965-6.527,5.965-10.914a5.972,5.972,0,0,0-5.965-5.965Z" transform="translate(-14.976 0)"/>
    <path id="Path_19258" data-name="Path 19258" d="M50.479,40.861c-5.425,0-9.517-1.963-9.517-4.566,0-1.806,1.964-3.339,5.253-4.1a.651.651,0,1,1,.294,1.268c-2.538.589-4.246,1.728-4.246,2.835,0,1.544,3.373,3.265,8.215,3.265s8.215-1.723,8.215-3.267c0-1.106-1.706-2.245-4.246-2.835a.651.651,0,1,1,.294-1.268c3.29.763,5.253,2.3,5.253,4.1C60,38.9,55.9,40.861,50.479,40.861Z" transform="translate(-13.768 -7.216)"/>
    <path id="Path_19259" data-name="Path 19259" d="M14.657,63.341a3.666,3.666,0,1,1,3.666-3.666A3.666,3.666,0,0,1,14.657,63.341Zm0-6.03a2.364,2.364,0,1,0,2.364,2.364,2.364,2.364,0,0,0-2.364-2.364Z" transform="translate(-3.301 -15.54)"/>
    <path id="Path_19260" data-name="Path 19260" d="M12.724,70.23a.651.651,0,0,1-.448-.178C12,69.787,5.458,63.51,5.458,57.743a7.266,7.266,0,0,1,14.532,0c0,5.767-6.54,12.043-6.819,12.308A.651.651,0,0,1,12.724,70.23Zm0-18.451a5.972,5.972,0,0,0-5.965,5.965c0,4.387,4.507,9.406,5.965,10.914,1.458-1.508,5.965-6.526,5.965-10.914a5.972,5.972,0,0,0-5.965-5.965Z" transform="translate(-1.369 -13.608)"/>
    <path id="Path_19261" data-name="Path 19261" d="M11.517,79.823C6.091,79.823,2,77.86,2,75.257c0-1.806,1.964-3.34,5.253-4.1a.651.651,0,1,1,.294,1.268c-2.539.59-4.246,1.73-4.246,2.836,0,1.544,3.374,3.264,8.215,3.264s8.215-1.72,8.215-3.264c0-1.106-1.706-2.246-4.246-2.836a.651.651,0,1,1,.294-1.268c3.29.764,5.253,2.3,5.253,4.1C21.033,77.86,16.942,79.823,11.517,79.823Z" transform="translate(-0.161 -20.823)"/>
    <path id="Path_19262" data-name="Path 19262" d="M77.409,63.341a3.666,3.666,0,1,1,3.666-3.666A3.666,3.666,0,0,1,77.409,63.341Zm0-6.03a2.364,2.364,0,1,0,2.365,2.364,2.364,2.364,0,0,0-2.365-2.364Z" transform="translate(-25.218 -15.54)"/>
    <path id="Path_19263" data-name="Path 19263" d="M75.476,70.23a.651.651,0,0,1-.448-.178c-.279-.265-6.819-6.541-6.819-12.308a7.266,7.266,0,1,1,14.532,0c0,5.767-6.54,12.043-6.819,12.308A.651.651,0,0,1,75.476,70.23Zm0-18.451a5.972,5.972,0,0,0-5.965,5.965c0,4.387,4.507,9.406,5.965,10.914,1.458-1.508,5.965-6.526,5.965-10.914a5.972,5.972,0,0,0-5.965-5.965Z" transform="translate(-23.285 -13.608)"/>
    <path id="Path_19264" data-name="Path 19264" d="M74.269,79.823c-5.425,0-9.517-1.963-9.517-4.566,0-1.806,1.964-3.34,5.253-4.1a.651.651,0,1,1,.294,1.268c-2.538.59-4.246,1.73-4.246,2.836,0,1.544,3.374,3.264,8.215,3.264s8.215-1.72,8.215-3.264c0-1.106-1.706-2.246-4.246-2.836a.651.651,0,1,1,.294-1.268c3.29.764,5.253,2.3,5.253,4.1C83.785,77.86,79.694,79.823,74.269,79.823Z" transform="translate(-22.077 -20.823)"/>
    <path id="Path_19265" data-name="Path 19265" d="M27.351,63.675a.651.651,0,0,1-.536-1.02l13.55-19.729a.651.651,0,0,1,1.073.737L27.885,63.393A.651.651,0,0,1,27.351,63.675Z" transform="translate(-8.788 -10.872)"/>
    <path id="Path_19266" data-name="Path 19266" d="M53.219,78.628H53.2l-23.321-.858a.651.651,0,1,1,.048-1.3l23.32.858a.651.651,0,1,1-.023,1.3Z" transform="translate(-9.677 -22.685)"/>
  </g>
</svg>
