<svg xmlns="http://www.w3.org/2000/svg" width="49.388" height="48.544" viewBox="0 0 49.388 48.544">
  <g id="Real_time_data" data-name="Real time data" transform="translate(231.56 32.451)">
    <path id="Path_19455" data-name="Path 19455" d="M-201.8,3.651c1.888-.859,2.927-2.064,2.927-3.39V-14.311c0-1.326-1.041-2.53-2.927-3.389a15.93,15.93,0,0,0-6.417-1.217,15.91,15.91,0,0,0-6.417,1.217c-1.887.859-2.927,2.064-2.927,3.389V.263c0,1.327,1.04,2.531,2.927,3.39A15.91,15.91,0,0,0-208.22,4.87,15.919,15.919,0,0,0-201.8,3.651Zm1.626-13.1h0c0,1.564-3.3,3.307-8.043,3.307s-8.043-1.741-8.043-3.306v-2.455a7.256,7.256,0,0,0,1.626.99A15.91,15.91,0,0,0-208.219-9.7a15.93,15.93,0,0,0,6.417-1.217,7.234,7.234,0,0,0,1.625-.99Zm-16.086,2.4a7.254,7.254,0,0,0,1.626.989,15.913,15.913,0,0,0,6.416,1.217A15.918,15.918,0,0,0-201.8-6.061a7.219,7.219,0,0,0,1.626-.989V-4.6h0c0,1.564-3.3,3.307-8.043,3.307s-8.043-1.743-8.043-3.307h0Zm8.044-10.566c4.74,0,8.043,1.743,8.043,3.307S-203.48-11-208.219-11s-8.044-1.743-8.044-3.307,3.3-3.307,8.043-3.307ZM-216.263.263V-2.194a7.232,7.232,0,0,0,1.625.99A15.918,15.918,0,0,0-208.22.013,15.92,15.92,0,0,0-201.8-1.2a7.222,7.222,0,0,0,1.626-.99V.263c0,1.564-3.3,3.307-8.043,3.307S-216.263,1.824-216.263.263Zm9.029-8.241a.652.652,0,0,1-.6.694c-.127.009-.255.013-.38.013s-.255,0-.38-.013a.652.652,0,0,1-.563-.73.652.652,0,0,1,.652-.568,4.19,4.19,0,0,0,.584,0A.652.652,0,0,1-207.234-7.978Zm-1.972,4.855a.652.652,0,0,1,.694-.6,4.182,4.182,0,0,0,.583,0,.651.651,0,0,1,.734.558.651.651,0,0,1-.558.734.645.645,0,0,1-.086.006c-.127.009-.255.014-.38.014s-.256,0-.38-.014a.652.652,0,0,1-.607-.694Zm1.368,5.55c-.127.009-.255.013-.38.013s-.255,0-.38-.013a.652.652,0,0,1-.563-.73.652.652,0,0,1,.652-.568,4.19,4.19,0,0,0,.584,0,.652.652,0,0,1,.658.645.652.652,0,0,1-.568.653ZM-220.71-22.336l9.355.948a.652.652,0,0,0,.713-.584.651.651,0,0,0-.08-.384l-.907-1.59a17.166,17.166,0,0,1,19.354,10.892.652.652,0,0,0,.61.424h.011l4.71-.064a.652.652,0,0,0,.639-.664.655.655,0,0,0-.026-.168,22.945,22.945,0,0,0-18.361-16.229,22.716,22.716,0,0,0-9.916.567l-1.505-2.643a.652.652,0,0,0-.89-.241.653.653,0,0,0-.266.288l-3.966,8.529a.651.651,0,0,0,.316.866.645.645,0,0,0,.208.058Zm4.089-7.754,1.135,2a.652.652,0,0,0,.757.3,21.43,21.43,0,0,1,9.827-.675,21.768,21.768,0,0,1,17.064,14.488l-3.383.046a18.491,18.491,0,0,0-17.166-11.625,18.286,18.286,0,0,0-4.4.538.652.652,0,0,0-.474.79.673.673,0,0,0,.065.163l.717,1.26-7.19-.728Zm-2.615,32.717A.652.652,0,0,0-220.1,2.3a.651.651,0,0,0-.293.263l-.923,1.575a17.154,17.154,0,0,1-.247-22.2.652.652,0,0,0,.059-.749l-2.408-4.044a.651.651,0,0,0-.894-.224.656.656,0,0,0-.135.107,22.946,22.946,0,0,0,.576,32.315l-1.539,2.627a.652.652,0,0,0,.238.89.648.648,0,0,0,.323.087h.058l9.369-.831a.652.652,0,0,0,.589-.709.644.644,0,0,0-.054-.206Zm-4.9,8.912,1.162-1.983a.651.651,0,0,0-.118-.805,21.647,21.647,0,0,1-1.484-30.191l1.729,2.906a18.476,18.476,0,0,0-3.086,17.066,18.621,18.621,0,0,0,4.27,7.149.652.652,0,0,0,.922.018.655.655,0,0,0,.11-.14l.732-1.249,2.963,6.592Zm41.6-14.018-5.4-7.7a.652.652,0,0,0-.529-.277h0a.652.652,0,0,0-.527.272l-5.5,7.626a.652.652,0,0,0,.149.91.651.651,0,0,0,.374.122l1.826.011A17.153,17.153,0,0,1-211.106,9.823l-.079-.014-.068-.012a.652.652,0,0,0-.678.326l-2.3,4.11a.652.652,0,0,0,.253.887.659.659,0,0,0,.161.063c.591.144,1.192.266,1.785.362a23.049,23.049,0,0,0,3.694.3A22.955,22.955,0,0,0-186.121-1.473l3.045.02h0a.652.652,0,0,0,.649-.655A.654.654,0,0,0-182.539-2.478Zm-4.09-.3h0a.652.652,0,0,0-.635.506,21.675,21.675,0,0,1-24.554,16.532q-.42-.068-.844-.154l1.651-2.951A18.451,18.451,0,0,0-190.639-1.977a.652.652,0,0,0-.448-.806.638.638,0,0,0-.173-.025l-1.446-.009,4.226-5.862,4.151,5.916Z" stroke="#f7f7f7" stroke-width="0.5"/>
  </g>
</svg>
