<svg xmlns="http://www.w3.org/2000/svg" width="204.343" height="129.326" viewBox="0 0 204.343 129.326">
  <g id="Retailors" transform="translate(26.388 0.393)">
    <path id="Path_20272" data-name="Path 20272" d="M159.334,86.393a10.153,10.153,0,0,1-.565,1.645c-.085.194-.164.392-.262.578A7.914,7.914,0,0,1,157.17,90.4a6.155,6.155,0,0,1-.772.637,2.379,2.379,0,0,1-1.194.46c-.13,0-.126-.093-.051-.228a1.277,1.277,0,0,1,.384-.422,7.281,7.281,0,0,0,.877-.683,4.942,4.942,0,0,0,.422-.389c.131-.138.278-.27.4-.422a2.785,2.785,0,0,0,.422-.595l.177-.324.152-.337a9.824,9.824,0,0,0,.569-1.519,8.7,8.7,0,0,0,.207-.983,6.806,6.806,0,0,0,.085-1.519,4.315,4.315,0,0,0-.085-.573c-.051-.19-.105-.376-.147-.561a1.039,1.039,0,0,0-.076-.237c-.089-.3-.063-.422.11-.535a.83.83,0,0,1,.113-.085c.139-.076.3,0,.422.249a4.714,4.714,0,0,1,.422,2.291v.447a3.288,3.288,0,0,1-.051.422,7.643,7.643,0,0,1-.16.873Z" transform="translate(-35.418 -16.092)" fill="#221f1f"/>
    <path id="Path_20273" data-name="Path 20273" d="M134.3,73.431a7.551,7.551,0,0,1,.616.7c.068.089.147.168.211.262a4.224,4.224,0,0,1,.51,1.079c.055.169.113.333.156.5a2.83,2.83,0,0,1,.068.333,1.863,1.863,0,0,1-.026.341c0,.068-.13.056-.253,0s-.254-.134-.282-.236c-.135-.354-.258-.683-.393-1.063a2.012,2.012,0,0,0-.4-.607,5.731,5.731,0,0,0-.544-.616,4.979,4.979,0,0,0-.384-.342,3.324,3.324,0,0,0-.645-.422,2.487,2.487,0,0,0-.544-.177.309.309,0,0,1-.122-.034c-.139-.064-.169-.126-.173-.287v-.1c0-.114.1-.194.249-.224a1.835,1.835,0,0,1,1.223.316,4.984,4.984,0,0,1,.759.561Z" transform="translate(-30.928 -14.231)" fill="#221f1f"/>
    <path id="Path_20274" data-name="Path 20274" d="M59,75.227c0-11.81,18.917-22.1,26.792-16.293,4.307,3.176,1.582,16.716-13.341,20.153C69.345,79.8,59.442,80.925,59,75.227Z" transform="translate(-16.664 -11.252)" fill="#221f1f"/>
    <path id="Path_20275" data-name="Path 20275" d="M42.437,73.676c5-2.438,12.325,5.032,10.781,8.415-3.53,7.735-11.135,5.213-12.864-.764C39.776,79.323,39.362,75.177,42.437,73.676Z" transform="translate(-12.946 -14.361)" fill="#221f1f"/>
    <path id="Path_20276" data-name="Path 20276" d="M-8.128,91.886c-21.153-3.821-22.945,19.283-8.482,33.607,5.787,5.728,11.282,1.771,15.493-2.775-5.176-4.522-8.465-19.073-5.4-20.3,2.53-1.012,11.641,1.358,18.078-.586a8.539,8.539,0,0,0,6-5.31h0a11.227,11.227,0,0,0,.637-3.079C19.224,79.692-3.89,79.763-8.128,91.886Zm-5.728,19.106c-.384-2.282,2.653-2.691,3.674-1.687-.359,1.548,1.463,4.859,1.189,4.817-1.666-.274-4.437-.608-4.863-3.13Z" transform="translate(-0.075 -16.265)" fill="#221f1f"/>
    <path id="Path_20277" data-name="Path 20277" d="M-1.274,102.737c-.983-.072-1.965-.151-2.927-.164a6.586,6.586,0,0,0-.713,0,4.514,4.514,0,0,0-.691.046l-.337.039-.291.08-.143.038a.459.459,0,0,0-.089.051c-.064,0-.109.08-.169.131a2.382,2.382,0,0,0-.464,1.079,7.59,7.59,0,0,0-.143,1.375,18.356,18.356,0,0,0,.2,2.873,32.73,32.73,0,0,0,1.388,5.665,27.567,27.567,0,0,0,2.4,5.3,14.545,14.545,0,0,0,1.194,1.73c.211.274.447.527.683.78,0,.021.076.076.135.131l.164.155.333.312.165.16.042.039-.03.042-.084.089-.325.341-.51.557c-.122.135-.254.262-.384.393-.266.253-.519.518-.793.763s-.54.493-.843.73-.57.468-.843.7a13.426,13.426,0,0,1-3.433,1.916,7.96,7.96,0,0,1-3.961.46l-.5-.093a2.367,2.367,0,0,1-.489-.122c-.316-.114-.637-.216-.95-.338l-.889-.464a2.671,2.671,0,0,1-.422-.262l-.384-.3-.422-.287a3.687,3.687,0,0,1-.371-.32l-.73-.654c-.46-.46-.89-.932-1.337-1.4a32.384,32.384,0,0,1-7.36-13.37,23.1,23.1,0,0,1-.781-6.8,15.929,15.929,0,0,1,.156-1.717c.043-.283.068-.57.127-.843l.189-.843a6.212,6.212,0,0,1,.228-.843l.266-.823.333-.785.168-.4.207-.379a11.33,11.33,0,0,1,2.741-3.467,12.624,12.624,0,0,1,3.842-2.206,16.777,16.777,0,0,1,4.332-.843c.367-.021.734,0,1.1,0a10.611,10.611,0,0,1,1.1.03c.725.068,1.459.093,2.172.232,1.8.3,1.493.485-.03.489a28.422,28.422,0,0,0-7.385.734,11.059,11.059,0,0,0-6.626,4.749,13.043,13.043,0,0,0-1.578,3.876,17.465,17.465,0,0,0-.363,2.109,21.232,21.232,0,0,0-.08,2.134,10.134,10.134,0,0,0,.042,1.071c.034.358.051.717.093,1.071.1.708.186,1.425.355,2.109s.337,1.4.518,2.109c.1.346.228.683.337,1.029s.224.687.367,1.021a31.687,31.687,0,0,0,4.218,7.592,30.372,30.372,0,0,0,3.475,3.965,8.436,8.436,0,0,0,4.492,2.4,2.971,2.971,0,0,0,.637.055c.211,0,.422.021.641,0a7.729,7.729,0,0,0,1.265-.2,9.782,9.782,0,0,0,2.421-.966,20.778,20.778,0,0,0,4.168-3.311c.177-.169.342-.355.514-.527l.093-.1c0-.034.1-.059.029-.093l-.105-.105-.059-.06-.13-.139c-.178-.194-.355-.379-.515-.582a17.808,17.808,0,0,1-1.687-2.53,30.443,30.443,0,0,1-2.37-5.563,31.61,31.61,0,0,1-1.308-5.905,15.11,15.11,0,0,1-.076-3.058,5.587,5.587,0,0,1,.354-1.553,2.238,2.238,0,0,1,.46-.734l.169-.164a1.6,1.6,0,0,1,.2-.126,1.309,1.309,0,0,1,.423-.161,7.265,7.265,0,0,1,1.923-.215l.932.021.924.051L1,102a41.631,41.631,0,0,0,7.292,0c.237-.029.472-.051.709-.084l.7-.122a12.977,12.977,0,0,0,1.388-.308,10.849,10.849,0,0,0,2.62-1.041A7.763,7.763,0,0,0,17.26,96.28v.093h0V96.28a11.43,11.43,0,0,0,.565-5.146,8.122,8.122,0,0,0-2.109-4.6,9.709,9.709,0,0,0-3.417-2.32,14,14,0,0,0-4.032-.983A18.269,18.269,0,0,0,.059,84.36a16.774,16.774,0,0,0-3.2,1.687,13.642,13.642,0,0,0-3.429,3.315c-.325.423-.531.768-.734,1.055-.093.143-.194.266-.274.384s-.151.232-.228.337a4.069,4.069,0,0,1-.422.548c-.173.177-.118-.186.152-1.017A10.5,10.5,0,0,1-5.968,87.3,13.7,13.7,0,0,1-2.91,84.816,16.731,16.731,0,0,1,.709,83.167,18.51,18.51,0,0,1,8.723,82.4a14.962,14.962,0,0,1,3.986,1.054A10.627,10.627,0,0,1,16.192,85.8a8.8,8.8,0,0,1,2.155,3.674,11.507,11.507,0,0,1,.358,4.217,11.719,11.719,0,0,1-.641,2.9l.038-.215h0v.113l-.038.1a9.062,9.062,0,0,1-1.371,2.463,8.793,8.793,0,0,1-2.11,1.894,11.3,11.3,0,0,1-2.53,1.186,17.813,17.813,0,0,1-2.666.629,47.621,47.621,0,0,1-10.68,0Z" transform="translate(0 -16.129)" fill="#221f1f"/>
    <path id="Path_20278" data-name="Path 20278" d="M-7.02,119.52a.105.105,0,0,0,0-.055v-.076l-.106-.3c-.138-.4-.274-.81-.4-1.227a9.28,9.28,0,0,1-.249-.928,4.916,4.916,0,0,1-.089-.76,2.277,2.277,0,0,1,0-.392.5.5,0,0,1,0-.109v-.06a.293.293,0,0,0-.105-.109,1.891,1.891,0,0,0-.333-.147,2.477,2.477,0,0,0-.794-.11,1.914,1.914,0,0,0-1.156.4,1.3,1.3,0,0,0-.422.582,1.551,1.551,0,0,0-.084.346,2.145,2.145,0,0,0-.043.38c0,.16-.245.2-.485.055a.845.845,0,0,1-.325-.367.9.9,0,0,1-.03-.637,2.089,2.089,0,0,1,.278-.583,2.16,2.16,0,0,1,.422-.46,2.562,2.562,0,0,1,1.063-.514,3.083,3.083,0,0,1,2.193.262l.173.105a.922.922,0,0,1,.185.134c.114.1.241.194.342.3a2.451,2.451,0,0,0-.068,1.017,7.272,7.272,0,0,0,.16.81c.093.393.211.789.342,1.182l.206.59.287.777a1.267,1.267,0,0,1,.093.725c0,.042-.034.118-.093.109l-.143.034a.751.751,0,0,1-.152.026h-.2l-.505-.093c-.316-.055-.468-.093-.675-.134a5.4,5.4,0,0,1-.586-.16,7.542,7.542,0,0,1-1.148-.423,3.9,3.9,0,0,1-1.489-1.239,3.21,3.21,0,0,1-.24-.38c-.237-.514-.173-.721.025-.868a.993.993,0,0,1,.147-.1c.173-.076.363.089.5.367a3.563,3.563,0,0,0,2.2,1.687,8.416,8.416,0,0,0,.844.232l.375.085h.034s.034.021.034,0Z" transform="translate(-2.871 -22.393)" fill="#221f1f"/>
    <path id="Path_20279" data-name="Path 20279" d="M26.547,100.241a6.917,6.917,0,0,1-5.618,4.808c.072.2,2.438,15.674-.182,20.318.785.569,11.178,2.53,11.743-8.512C33,106.732,27.753,104.467,26.547,100.241ZM23.772,113.05a23.7,23.7,0,0,0,0-4.027c.738-.743,1.763-1.363,2.644-.278C27.458,110.03,25.488,113.05,23.772,113.05Z" transform="translate(-9.199 -19.639)" fill="#221f1f"/>
    <path id="Path_20280" data-name="Path 20280" d="M30.7,123.424a8.129,8.129,0,0,1-4.374,2.636,11.5,11.5,0,0,1-5.062.03,2.325,2.325,0,0,1-.329-.093,1.8,1.8,0,0,1-.349-.127,2.539,2.539,0,0,1-.312-.16l-.156-.089-.038-.021h0v-.021l.034-.08.249-.666a2.013,2.013,0,0,0,.085-.185l.042-.11.072-.194a10.8,10.8,0,0,0,.422-1.636,32.121,32.121,0,0,0,.447-6.124c0-2.067-.127-4.142-.3-6.209-.076-.823-.16-1.649-.262-2.476l-.16-1.232-.2-1.341c.046-.143.076-.262.1-.363s.118-.126.178-.19l.08-.076.557-.135c.135-.034.262-.089.4-.13l.389-.143.379-.177a6.749,6.749,0,0,0,1.388-.886,7.37,7.37,0,0,0,1.987-2.6,2,2,0,0,1,.173-.325c.042-.051.072-.055.164-.055h0l.034.025a.246.246,0,0,1,.055.11,1.429,1.429,0,0,1,.042.422,4.527,4.527,0,0,1-1.51,2.952,7.921,7.921,0,0,1-1.729,1.186,7.436,7.436,0,0,1-.962.4c-.165.055-.329.113-.5.164l-.219.051h0l.139,1.012.147,1.239q.14,1.24.241,2.489c.139,1.658.228,3.328.249,5.007,0,1.459,0,2.952-.059,4.454a18.983,18.983,0,0,1-.692,4.466,5.306,5.306,0,0,1-.215.608l-.051.122-.021.042-.047.1a.163.163,0,0,0-.025.047l.047.025.1.034.114.034.278.064a10.653,10.653,0,0,0,2.345.185,8.667,8.667,0,0,0,4.459-1.286,6.978,6.978,0,0,0,2.016-2.02,9.078,9.078,0,0,0,1.143-2.662,13.723,13.723,0,0,0,.358-2.2,10.963,10.963,0,0,0,.055-1.126l.026-1.126a20.271,20.271,0,0,0-.565-4.416,15.9,15.9,0,0,0-1.265-3.18A26.039,26.039,0,0,0,28.42,104.6c-.3-.422-.6-.814-.894-1.244a11.066,11.066,0,0,1-.65-1.05,4.348,4.348,0,0,1-.354-.772,1.657,1.657,0,0,1-.126-.949,1.542,1.542,0,0,1,.068-.307c.059-.11.189,0,.367.295.089.148.172.338.316.557s.27.481.46.764c.531.843,1.173,1.666,1.8,2.53a21.845,21.845,0,0,1,1.751,2.784,16.7,16.7,0,0,1,1.223,3.146c.131.553.258,1.105.354,1.662a13.357,13.357,0,0,1,.2,1.687L33,114.963v1.266a9.122,9.122,0,0,1-.059,1.265c-.059.422-.1.843-.16,1.265a9.94,9.94,0,0,1-2.042,4.733Z" transform="translate(-9.069 -19.637)" fill="#221f1f"/>
    <path id="Path_20281" data-name="Path 20281" d="M26.727,111.343a.947.947,0,0,0-.051-.3.739.739,0,0,1-.063-.126c0-.043-.076-.093-.11-.144a.846.846,0,0,0-.522-.316,1.04,1.04,0,0,0-.472.105,2.462,2.462,0,0,0-.422.237l-.2.143A.361.361,0,0,0,24.8,111v2.332a4.345,4.345,0,0,1-.084,1.485c-.06.173-.278.076-.485-.072a.842.842,0,0,1-.422-.637c0-.941.047-1.928.118-2.881a1.891,1.891,0,0,0,0-.253,1.147,1.147,0,0,0-.026-.3c.148-.135.312-.291.422-.4a2.4,2.4,0,0,1,.321-.249,2.471,2.471,0,0,1,.776-.384,1.571,1.571,0,0,1,1.265.165,2.034,2.034,0,0,1,.785.919,2.223,2.223,0,0,1,0,1.413,4.953,4.953,0,0,1-.945,1.725,4.829,4.829,0,0,1-1.1,1.075c-.1.06-.2.127-.312.182-.422.168-.628.089-.725-.135a1.272,1.272,0,0,1-.059-.16.415.415,0,0,1,.3-.422,4.582,4.582,0,0,0,1.552-1.553,3.674,3.674,0,0,0,.363-.759,2.644,2.644,0,0,0,.109-.384,1.7,1.7,0,0,0,0-.35Z" transform="translate(-9.797 -21.462)" fill="#221f1f"/>
    <path id="Path_20282" data-name="Path 20282" d="M16.736,141.778l.1-.064a.35.35,0,0,1,.105.039l.211.105.359.172.456.233c.307.143.59.333.881.5.591.337,1.13.743,1.687,1.131.384.3.8.569,1.165.894a35.478,35.478,0,0,1,3.627,3.627c.505.561,1,1.139,1.488,1.708a18.938,18.938,0,0,1,1.759,2.282c.151.237,0,.346-.329.27a2.282,2.282,0,0,1-1.1-.751c-.616-.751-1.235-1.493-1.868-2.219s-1.266-1.472-1.911-2.193a21.551,21.551,0,0,0-2.641-2.383A19.546,19.546,0,0,0,17.465,143l-.46-.232-.068-.034a.083.083,0,0,0-.059.026l-.16.1c-.342.236-.709.422-1.076.641a8,8,0,0,1-3.682.97,5.84,5.84,0,0,1-2.881-.7l-.291-.156-.274-.185c-.662-.493-.781-.76-.725-1.037a.8.8,0,0,1,.042-.19c.093-.182.422-.043.843.266a5.942,5.942,0,0,0,2.109.991,5.4,5.4,0,0,0,2.354,0,7.7,7.7,0,0,0,1.729-.6c.287-.122.553-.291.843-.443.139-.072.27-.169.422-.254l.633-.422Z" transform="translate(-6.668 -27.733)" fill="#221f1f"/>
    <path id="Path_20283" data-name="Path 20283" d="M-3.934,150.368c.565-.768,1.16-1.514,1.788-2.223.224-.27.452-.531.687-.785a26.768,26.768,0,0,1,2.737-2.421c.422-.328.843-.674,1.266-.991.274-.207.544-.422.843-.616a8.109,8.109,0,0,1,.889-.519c.194-.093.258.064.2.3a1.482,1.482,0,0,1-.536.806c-1.083.844-2.151,1.688-3.222,2.531a7.966,7.966,0,0,0-.916.843c-.3.3-.578.62-.843.928s-.612.7-.919,1.046a10.36,10.36,0,0,0-.843,1.1c-.346.46-.675.928-1,1.4-.476.725-.945,1.468-1.35,2.236-.316.594-.569,1.206-.843,1.817l-.173.422c-.228.5-.358.625-.629.625a1.358,1.358,0,0,1-.181,0c-.19-.034-.228-.3-.1-.692a19.132,19.132,0,0,1,1.6-3.4,28.636,28.636,0,0,1,1.552-2.417Z" transform="translate(-3.755 -27.942)" fill="#221f1f"/>
    <path id="Path_20284" data-name="Path 20284" d="M12.357,134.156a7.506,7.506,0,0,1-4.48-.173L7.11,133.7l-.729-.358a11.462,11.462,0,0,1-2.266-1.687c-.354-.308-.658-.666-.978-1a8.983,8.983,0,0,1-.873-1.084c-.266-.38-.493-.662-.717-1.008s-.452-.678-.662-1.029a10.754,10.754,0,0,1-.738-1.384L0,125.788l-.122-.376c-.064-.257-.122-.51-.2-.759-.085-.316.043-.312.27-.105.113.1.245.258.422.422l.262.287c.046.056.089.11.139.161a.913.913,0,0,1,.109.185c.523.873.962,1.788,1.548,2.624A19.455,19.455,0,0,0,4.3,130.638,9.646,9.646,0,0,0,7.308,132.8a7.043,7.043,0,0,0,3.935.7,6.172,6.172,0,0,0,2.349-.81,7.433,7.433,0,0,0,2.636-2.728,8.353,8.353,0,0,0,.937-2.788c.034-.216.068-.422.085-.637a7.277,7.277,0,0,1,.126-.843.627.627,0,0,1,.253-.375,1.381,1.381,0,0,1,.169-.118c.185-.08.333.266.35.907a8.9,8.9,0,0,1-2,5.512,7.709,7.709,0,0,1-3.8,2.556Z" transform="translate(-5.081 -24.354)" fill="#221f1f"/>
    <path id="Path_20285" data-name="Path 20285" d="M77.071,111.82a6.435,6.435,0,0,1-1.687,1.987c-.182.126-.359.262-.553.371l-.595.3a8.3,8.3,0,0,1-1.227.4,7.729,7.729,0,0,1-1.265.2,8.172,8.172,0,0,1-1.286-.042A8.866,8.866,0,0,1,68,114.4a13.085,13.085,0,0,1-3.134-1.835,18.429,18.429,0,0,1-2.316-2.159l-1.013-1.231-.881-1.312a31.045,31.045,0,0,1-2.649-5.673c-.637-1.734-1.173-3.509-1.641-5.277-.3-1.134-.578-2.278-.843-3.425-.118-.574-.236-1.152-.341-1.73s-.135-1.164-.224-1.733a3.525,3.525,0,0,1-.03-.367c0-.076,0-.122.043-.131s.194.114.35.4.358.7.586,1.19a11.252,11.252,0,0,1,.5,1.755c.476,2.32,1.037,4.618,1.725,6.879a38.857,38.857,0,0,0,2.611,6.572l.51.932c.186.3.392.595.591.89a15.474,15.474,0,0,0,1.324,1.687,17.462,17.462,0,0,0,3.3,2.784,10.406,10.406,0,0,0,2.08,1.063,7.547,7.547,0,0,0,2.244.514,6.715,6.715,0,0,0,2.278-.232,5.41,5.41,0,0,0,2-1.038,6.331,6.331,0,0,0,1.615-2.3,12.1,12.1,0,0,0,.781-2.8,32.5,32.5,0,0,0-.068-8.934c-.148-1.147-.337-2.278-.548-3.408-.1-.565-.228-1.126-.278-1.73A15.969,15.969,0,0,1,76.493,92a12.811,12.811,0,0,1,.076-1.552,6.635,6.635,0,0,1,.519-2.029,1.56,1.56,0,0,1,.62-.747,1.413,1.413,0,0,1,.291-.13c.249,0-.135.586-.384,1.885a13.253,13.253,0,0,0-.215,2.995,14.406,14.406,0,0,0,.109,1.532c.055.505.168,1.021.262,1.544a55.478,55.478,0,0,1,.81,6.5,29.888,29.888,0,0,1-.08,4.956,13,13,0,0,1-1.392,4.876Z" transform="translate(-15.87 -17.161)" fill="#221f1f"/>
    <path id="Path_20286" data-name="Path 20286" d="M50.642,101.224a4.26,4.26,0,0,1-.612-2.353,2.306,2.306,0,0,1,.034-.447A1.979,1.979,0,0,1,50.149,98a3.491,3.491,0,0,1,2.008-2.27,3.046,3.046,0,0,1,1.358-.215,2.227,2.227,0,0,1,1.569.708c.122.131,0,.228-.212.274a1.518,1.518,0,0,1-.738-.021,2.344,2.344,0,0,0-2.5.422,2.525,2.525,0,0,0-.814,1.548,3.5,3.5,0,0,0,.245,1.974,3.835,3.835,0,0,0,.729,1.029,6.362,6.362,0,0,0,1.632,1.131,14.47,14.47,0,0,0,1.451.582l.329.118c.4.173.5.287.5.51v.156c-.034.16-.249.2-.548.113a11.1,11.1,0,0,1-2.746-1.164,5.7,5.7,0,0,1-1.775-1.649Z" transform="translate(-14.913 -18.716)" fill="#221f1f"/>
    <path id="Path_20287" data-name="Path 20287" d="M85.64,69.4A12.98,12.98,0,0,0,87.6,63.374a9.6,9.6,0,0,0-1.442-6.044,4.435,4.435,0,0,0-.747-.843l-.422-.38a3.058,3.058,0,0,0-.456-.35,9.118,9.118,0,0,0-2.024-1.1,12.068,12.068,0,0,0-8.1.05,23.672,23.672,0,0,0-7.343,4.066c-.5.38-.958.806-1.434,1.219A13.18,13.18,0,0,0,64.3,61.32a25.478,25.478,0,0,0-2.374,2.893,19.346,19.346,0,0,0-3.53,8.736c-.118.974-.233.843-.393,0a4.91,4.91,0,0,1-.089-.789v-.494a3,3,0,0,1,.03-.544,9.152,9.152,0,0,1,.586-2.53,24.3,24.3,0,0,1,5.6-8.377,26.171,26.171,0,0,1,8.338-5.669,17.381,17.381,0,0,1,6.027-1.4,11.078,11.078,0,0,1,3.155.32,10.113,10.113,0,0,1,1.514.5c.249.1.476.236.717.35a4.377,4.377,0,0,1,.687.4l.726.493.658.569a5.152,5.152,0,0,1,.633.625,6.634,6.634,0,0,1,.493.763,9.1,9.1,0,0,1,1.223,3.26,13.07,13.07,0,0,1-.612,6.8A15.479,15.479,0,0,1,82.8,73.969a21.877,21.877,0,0,1-5.445,3.21,33.949,33.949,0,0,1-6.011,1.839,27.3,27.3,0,0,1-4.812.5,13.868,13.868,0,0,1-4.817-.67,6.942,6.942,0,0,1-1.949-1.037,4.783,4.783,0,0,1-1.687-2.425c-.043-.156-.072-.3-.1-.422a2.9,2.9,0,0,1-.03-.355,1.443,1.443,0,0,1,.06-.527,2.518,2.518,0,0,1,.113-.388c.08-.13.19.064.312.506a7.267,7.267,0,0,0,.843,1.839,5.7,5.7,0,0,0,3.268,2.13,14.58,14.58,0,0,0,4.218.447,25.714,25.714,0,0,0,4.328-.472,33.6,33.6,0,0,0,4.239-1.156,24.066,24.066,0,0,0,5.837-2.952,18.667,18.667,0,0,0,2.472-2.11,15.771,15.771,0,0,0,1.978-2.551Z" transform="translate(-16.451 -10.445)" fill="#221f1f"/>
    <path id="Path_20288" data-name="Path 20288" d="M44.468,85.8a5.864,5.864,0,0,0,1.594.422,5.327,5.327,0,0,0,1.637-.1,5.906,5.906,0,0,0,2.868-1.641,9.306,9.306,0,0,0,1.481-2.024c.194-.321.345-.662.514-1a6.428,6.428,0,0,0,.367-1.025,5.507,5.507,0,0,0,.122-2.151,7.32,7.32,0,0,0-2-3.9,10.323,10.323,0,0,0-3.256-2.3,8.054,8.054,0,0,0-4.9-.662c-.489.135-.523-.051-.135-.392a3.4,3.4,0,0,1,2.4-.6,9.351,9.351,0,0,1,2.746.738,11.3,11.3,0,0,1,2.429,1.43A10.569,10.569,0,0,1,52.331,74.6a7.744,7.744,0,0,1,1.295,2.531,6.649,6.649,0,0,1,.105,3.475,7.945,7.945,0,0,1-.617,1.632,11.788,11.788,0,0,1-.843,1.493,9.356,9.356,0,0,1-1.223,1.455,6.973,6.973,0,0,1-1.544,1.139,6.179,6.179,0,0,1-1.814.658,6.268,6.268,0,0,1-1.924.046,7.281,7.281,0,0,1-4.112-2.109,8.935,8.935,0,0,1-1.965-2.872,12.342,12.342,0,0,1-.819-3.374,12.794,12.794,0,0,1-.051-2.662,7.339,7.339,0,0,1,.7-2.611l.3-.531c.114-.165.245-.325.371-.489a2.672,2.672,0,0,1,.367-.384c.118-.109.224-.215.329-.3.224-.147.422-.258.565-.341a1.092,1.092,0,0,1,.738-.1,1.358,1.358,0,0,1,.241.042c.089.038,0,.152-.164.346a1.773,1.773,0,0,1-.367.3,6.109,6.109,0,0,1-.489.422A5.763,5.763,0,0,0,39.7,76.237a12.938,12.938,0,0,0,.5,4.58,7.676,7.676,0,0,0,4.281,4.947Z" transform="translate(-12.717 -13.814)" fill="#221f1f"/>
    <path id="Path_20289" data-name="Path 20289" d="M71.209,126.969a8.882,8.882,0,0,0-7.415-.629,7.206,7.206,0,0,0-2.345,1.506,24.255,24.255,0,0,0-3.345,3.9,49.969,49.969,0,0,0-2.8,4.386c-.772,1.337-1.468,2.728-2.109,4.117-.815,1.792-1.59,3.619-2.27,5.441-.207.565-.392.443-.422-.122a6.37,6.37,0,0,1,.506-2.641,54.1,54.1,0,0,1,2.607-5.529,52.412,52.412,0,0,1,3.184-5.247c.717-1,1.43-2.037,2.249-3.012.383-.5.843-.962,1.265-1.438a14.25,14.25,0,0,1,1.467-1.265,8.688,8.688,0,0,1,4.011-1.447,9.28,9.28,0,0,1,2.134,0,9.688,9.688,0,0,1,2.075.464,6.316,6.316,0,0,1,.612.228c.19.08.4.173.595.27l.3.148.3.181a4.823,4.823,0,0,1,.527.422,9.147,9.147,0,0,1,1.561,2.109,36.2,36.2,0,0,1,2.852,7.17c.578,1.894,1.105,3.763,1.539,5.673.1.422.195.843.278,1.265.3,1.586.3,2.109.11,2.485a1.29,1.29,0,0,1-.131.249c-.169.173-.392-.452-.637-1.59a86.128,86.128,0,0,0-2.839-10.354,31.415,31.415,0,0,0-1.565-3.712,12.939,12.939,0,0,0-1.008-1.687,4.818,4.818,0,0,0-1.265-1.295Z" transform="translate(-15.006 -24.456)" fill="#221f1f"/>
    <path id="Path_20290" data-name="Path 20290" d="M137.057,118.376a8.253,8.253,0,0,1-1.51,1.709,5.652,5.652,0,0,1-2.058,1.1,6.712,6.712,0,0,1-4.475-.519,10.551,10.551,0,0,1-2.763-1.687,6.289,6.289,0,0,1-.531-.472c-.169-.16-.346-.32-.51-.489-.312-.35-.645-.687-.928-1.058a19.43,19.43,0,0,1-1.586-2.3,30.151,30.151,0,0,1-2.32-5.027c-.557-1.536-1.041-3.1-1.455-4.67-.266-1-.519-2.016-.73-3.033a26.645,26.645,0,0,1-.485-3.066,2.145,2.145,0,0,1,0-.337c0-.025.029,0,.046-.029h.022l.05-.056c.026-.025.03-.038.026-.025l-.026.025-.021.026h.03a.125.125,0,0,1,.08.046,1.579,1.579,0,0,1,.211.283,6.392,6.392,0,0,1,.522,1.054,9.039,9.039,0,0,1,.422,1.548c.422,2.05.9,4.079,1.511,6.073a36.563,36.563,0,0,0,2.286,5.813A15.019,15.019,0,0,0,127.715,119a8.766,8.766,0,0,0,3.8,1.485,4.529,4.529,0,0,0,1.961-.2,4.669,4.669,0,0,0,1.687-1.025,11.113,11.113,0,0,0,2.619-4.357,37.938,37.938,0,0,0,1.771-7.718c.283-2.033.423-4.04.6-6.069.038-.447.072-.886.126-1.337.194-1.688.422-2.249.806-2.51a.574.574,0,0,1,.266-.122c.06,0,.081.046.085.105a1.5,1.5,0,0,1,0,.283c-.038.3-.089.746-.156,1.316-.19,1.78-.3,3.652-.493,5.542s-.422,3.8-.8,5.727a34.832,34.832,0,0,1-1.05,4.239,16.7,16.7,0,0,1-1.856,4.049Z" transform="translate(-28.119 -19.035)" fill="#221f1f"/>
    <path id="Path_20291" data-name="Path 20291" d="M113.183,106.375a6.675,6.675,0,0,1-.574-2.168,4.22,4.22,0,0,1,0-.843,3.63,3.63,0,0,1,.476-1.409,2,2,0,0,1,.544-.586,1.315,1.315,0,0,1,.814-.232,2.3,2.3,0,0,1,1.239.518,3.735,3.735,0,0,1,1.088,1.152c.08.143-.089.237-.316.245a.926.926,0,0,1-.7-.253,3.726,3.726,0,0,0-1.021-.8.813.813,0,0,0-.422-.089.747.747,0,0,0-.422.232,2.428,2.428,0,0,0-.5,1.548,3.576,3.576,0,0,0,.08.958,6.073,6.073,0,0,0,.258.958,3.831,3.831,0,0,0,.582,1.05,4.407,4.407,0,0,0,1.434,1.152,9.568,9.568,0,0,0,1.367.536c.1.038.207.063.308.105.379.143.48.245.476.472a.951.951,0,0,1,0,.151c-.03.169-.232.228-.527.156a8.374,8.374,0,0,1-2.628-1.122,4.592,4.592,0,0,1-1.548-1.738Z" transform="translate(-27.121 -19.813)" fill="#221f1f"/>
    <path id="Path_20292" data-name="Path 20292" d="M150.275,104.24a3.428,3.428,0,0,0,.341-1.763l-.055-.316c-.038-.1-.072-.2-.1-.3a1.343,1.343,0,0,0-.633-.776,1.024,1.024,0,0,0-.991-.047,1.745,1.745,0,0,0-.7.734c-.228.422-.358.864-.612,1.29-.085.127-.207.076-.324-.1a.844.844,0,0,1-.144-.764,4.113,4.113,0,0,1,.346-.759,3.354,3.354,0,0,1,.544-.7,1.914,1.914,0,0,1,.843-.5,1.6,1.6,0,0,1,1,.051,2.691,2.691,0,0,1,.5.241,1.888,1.888,0,0,1,.447.384c.06.072.131.143.182.219l.134.245a2.215,2.215,0,0,1,.2.5,3.9,3.9,0,0,1-.11,2.223c-.089.206-.16.422-.266.62a5.6,5.6,0,0,1-.337.578,6.283,6.283,0,0,1-1.4,1.434c-.215.143-.422.295-.624.447l-.658.388a2.033,2.033,0,0,1-.3.148c-.388.151-.536.147-.679-.026a.779.779,0,0,1-.093-.118c-.085-.143.029-.324.278-.464a9.546,9.546,0,0,0,2.109-1.4,4.686,4.686,0,0,0,1.075-1.476Z" transform="translate(-33.79 -19.627)" fill="#221f1f"/>
    <path id="Path_20293" data-name="Path 20293" d="M129.747,75.15c-20.794-8.343-26.438,9.355-23.379,14.07C111.847,97.668,134.839,87.385,129.747,75.15Z" transform="translate(-25.757 -14.312)" fill="#221f1f"/>
    <path id="Path_20294" data-name="Path 20294" d="M113.287,92.789c-.464.025-.932-.039-1.4-.06-.237-.025-.468-.068-.7-.1a4.359,4.359,0,0,1-.7-.134l-.691-.177-.67-.25c-.11-.046-.224-.08-.333-.134l-.321-.169a5.657,5.657,0,0,1-.628-.354,6.963,6.963,0,0,1-2.038-2.054,6.24,6.24,0,0,1-.772-2.8,11.654,11.654,0,0,1,.489-4.044,13.979,13.979,0,0,1,3.657-6.044,13.627,13.627,0,0,1,2.856-2.109,14.993,14.993,0,0,1,3.3-1.266,18.5,18.5,0,0,1,6.209-.422,23.821,23.821,0,0,1,7.668,1.945c.738.363.582.422-.139.422a10.3,10.3,0,0,1-1.429-.2,13.033,13.033,0,0,1-1.961-.422,23.046,23.046,0,0,0-7.7-.843,13.763,13.763,0,0,0-7.17,2.619,12.41,12.41,0,0,0-3.113,3.53,13.447,13.447,0,0,0-1.025,2.172,12.385,12.385,0,0,0-.621,2.307,9.765,9.765,0,0,0-.13,2.594,4.643,4.643,0,0,0,.789,2.353l.384.51.456.422a2.849,2.849,0,0,0,.5.4,3.263,3.263,0,0,0,.531.354l.57.3c.2.089.422.156.6.236.105.039.2.08.308.11l.316.08c.211.051.422.114.633.156a14.922,14.922,0,0,0,6.466-.422,20.725,20.725,0,0,0,8.659-4.728,11.628,11.628,0,0,0,3.69-6.395,7.467,7.467,0,0,0,.1-.8c0-.266,0-.535.021-.806a4.742,4.742,0,0,0-.047-.691,5.345,5.345,0,0,0-.059-.578c-.064-.346-.109-.625-.139-.843a2.842,2.842,0,0,1-.076-1,2.286,2.286,0,0,1,.051-.346c.055-.13.185,0,.379.342.1.177.211.422.333.691a6.636,6.636,0,0,1,.283,1.037,9.542,9.542,0,0,1-.046,3.657,11.063,11.063,0,0,1-1.438,3.438,14.352,14.352,0,0,1-2.392,2.893,14.634,14.634,0,0,1-1.417,1.231,14.091,14.091,0,0,1-1.539,1.075A20.667,20.667,0,0,1,113.3,92.826Z" transform="translate(-25.644 -14.241)" fill="#221f1f"/>
    <path id="Path_20295" data-name="Path 20295" d="M138.087,75.9c2.476-3.8,11.389-3.771,16,4.779,1.99,3.69.464,8.756-3.957,9.748C137.6,93.192,138.087,79.1,138.087,75.9Z" transform="translate(-32.097 -14.416)" fill="#221f1f"/>
    <path id="Path_20296" data-name="Path 20296" d="M148.451,90.038a7.262,7.262,0,0,0,3.669-1.215l.38-.3.337-.342a2.635,2.635,0,0,0,.316-.366c.093-.131.2-.25.287-.389a6.712,6.712,0,0,0,.793-1.771,6.869,6.869,0,0,0,.126-2.843,7.3,7.3,0,0,0-.843-2.383,15.422,15.422,0,0,0-1.434-2.188,12.59,12.59,0,0,0-3.935-3.375,10.027,10.027,0,0,0-4.412-1.231,6.82,6.82,0,0,0-5.268,1.928c-.4.422-.485.324-.312-.237a3.7,3.7,0,0,1,2.063-1.945,9.358,9.358,0,0,1,6.428-.034,12.47,12.47,0,0,1,5.289,3.577,18.26,18.26,0,0,1,2.235,3.16,9.775,9.775,0,0,1,.447.889c.134.308.232.633.337.954a7.521,7.521,0,0,1,.262,1.986,8.618,8.618,0,0,1-.068,1.1,8.435,8.435,0,0,1-.249,1.071,6.753,6.753,0,0,1-.962,1.978,6.436,6.436,0,0,1-1.565,1.548,6.723,6.723,0,0,1-.966.527c-.173.072-.338.152-.51.211l-.528.152a12.5,12.5,0,0,1-5.247.236,7.627,7.627,0,0,1-3.589-1.763,9.547,9.547,0,0,1-2.274-3.256,19.84,19.84,0,0,1-1.464-5.858c-.046-.443-.089-.873-.113-1.321-.076-1.653,0-2.176.211-2.53a1.371,1.371,0,0,1,.143-.232c.169-.156.287.518.35,1.687a30.508,30.508,0,0,0,.713,5.31,11.81,11.81,0,0,0,2.218,4.825,6.679,6.679,0,0,0,3.181,2.147,9.7,9.7,0,0,0,3.948.266Z" transform="translate(-32.013 -14.283)" fill="#221f1f"/>
    <path id="Path_20297" data-name="Path 20297" d="M128.1,132.5a14.169,14.169,0,0,0-3.85-1.131c-.333-.03-.666-.072-1-.093a7.963,7.963,0,0,0-1,0c-.333.021-.671.038-1,.072a9.424,9.424,0,0,0-.966.186,10,10,0,0,0-2.678,1.134,16.386,16.386,0,0,0-2.147,1.485,24.275,24.275,0,0,0-1.953,1.775,36.823,36.823,0,0,0-3.446,4.058c-.94,1.265-1.813,2.6-2.623,3.943-1.063,1.726-1.957,3.527-3.121,5.239-.182.266-.4.376-.422.291a1.329,1.329,0,0,1,.034-.54,8.515,8.515,0,0,1,.957-2.53,51.914,51.914,0,0,1,7.246-10.229,21.4,21.4,0,0,1,6.108-4.808,10.908,10.908,0,0,1,2.067-.717c.358-.059.725-.139,1.083-.164s.722-.064,1.084-.064a13.61,13.61,0,0,1,4.26.645,19.408,19.408,0,0,1,4.728,2.3,43.875,43.875,0,0,1,6.094,5c1.477,1.388,2.9,2.771,4.4,4.058.333.278.662.544,1.008.8,1.265.962,1.687,1.071,1.965,1.388a1.811,1.811,0,0,1,.2.2c.072.105-.055.173-.422.181a3.234,3.234,0,0,1-1.4-.476,15.244,15.244,0,0,1-2.248-1.658c-.7-.6-1.38-1.239-2.054-1.881-1.35-1.265-2.691-2.59-4.1-3.8a27.431,27.431,0,0,0-6.811-4.6Z" transform="translate(-25.422 -25.525)" fill="#221f1f"/>
    <path id="Path_20298" data-name="Path 20298" d="M214.736,93.771c-.489,4.218-8.077,28.475-27.416,18.436,2.53-2.952,4.424-7.254,5.572-9.7,7.41.8,7.314-4.9,5.981-5.972a2.537,2.537,0,0,0-3.206,0c.578-5.231-.085-9.111-2.155-10.89-3.741-3.21-11.734,3.154-19.4,1.885-8.693-1.446-10.469-8.09-5.926-14.742,2.893-4.247,18.938-15.905,33.936,1.8C202.746,75.289,217.309,71.644,214.736,93.771Z" transform="translate(-37.499 -12.777)" fill="#221f1f"/>
    <path id="Path_20299" data-name="Path 20299" d="M166.619,77.044a8.75,8.75,0,0,0-.337,3.244,6.849,6.849,0,0,0,.354,1.569,6.459,6.459,0,0,0,1.809,2.632,7.934,7.934,0,0,0,1.329.958,11.515,11.515,0,0,0,3.1,1.219,13.758,13.758,0,0,0,3.332.422,18.407,18.407,0,0,0,3.374-.342c2.248-.422,4.446-1.156,6.7-1.8a25.729,25.729,0,0,1,2.531-.607,8.877,8.877,0,0,1,2.683-.122,4.847,4.847,0,0,1,1.358.392,4.278,4.278,0,0,1,1.156.843,6.329,6.329,0,0,1,1.434,2.316,10.835,10.835,0,0,1,.565,2.185,17.771,17.771,0,0,1,.207,2.206c.029.738,0,1.472-.021,2.2,0,.186-.022.367-.034.549l-.038.493v.283h0a1.311,1.311,0,0,1,.232-.118h.055l.08-.025a2.285,2.285,0,0,1,.241-.06,2.9,2.9,0,0,1,.506-.059,2.561,2.561,0,0,1,1,.194,3.757,3.757,0,0,1,.843.5,2.421,2.421,0,0,1,.363.422,2.631,2.631,0,0,1,.228.451,3.92,3.92,0,0,1,.232.933,4.555,4.555,0,0,1-.211,1.86,4.258,4.258,0,0,1-.422.843,4.114,4.114,0,0,1-.587.738,6.34,6.34,0,0,1-.725.586c-.274.139-.54.308-.823.422a6.419,6.419,0,0,1-.869.278l-.881.16c-.3.034-.591.034-.885.051a5.046,5.046,0,0,1-.882,0l-.422-.025c-.046,0-.118-.034-.156,0l-.266.561-.746,1.548c-.5,1.025-1.017,2.046-1.577,3.046a33.819,33.819,0,0,1-1.835,2.918c-.164.237-.341.464-.518.692l-.118.16-.064.076-.126.148-.03.038.047.021.089.047.177.084.742.355a8.665,8.665,0,0,0,.907.379l.915.35c.621.211,1.265.38,1.886.553l.962.181.48.093.485.047.974.089h1.464l.48-.055c.325-.042.65-.064.966-.118a13.647,13.647,0,0,0,1.882-.485,6.962,6.962,0,0,0,.906-.338c.3-.134.595-.253.886-.4l.843-.468c.287-.147.544-.35.814-.523a22.522,22.522,0,0,0,6.564-7.457,38.457,38.457,0,0,0,3.821-9.279c.257-1.008.35-1.434.443-1.4s.143.565.042,1.472a27.469,27.469,0,0,1-9.469,16.833,15.362,15.362,0,0,1-4.757,2.505,14.391,14.391,0,0,1-5.327.591c-.443-.051-.9-.064-1.337-.148l-1.32-.257a21.126,21.126,0,0,1-2.552-.81c-.422-.168-.843-.3-1.231-.5l-1.532-.73-.556-.266-.072-.034s.021-.038.029-.055l.1-.122.194-.237.4-.48.2-.245.1-.126c.261-.333.51-.679.755-1.025a39.347,39.347,0,0,0,2.594-4.437c.392-.772.767-1.548,1.143-2.332l.283-.6.224-.476.113-.241c0-.055.064-.038.109-.038h.148l.868.055a6,6,0,0,0,.625.03,6.562,6.562,0,0,0,2.91-.6,3.322,3.322,0,0,0,1.78-2.143,3.367,3.367,0,0,0,.072-1.433,2.6,2.6,0,0,0-.2-.666,1.808,1.808,0,0,0-.164-.266,1.133,1.133,0,0,0-.215-.206,1.955,1.955,0,0,0-1.266-.422,2.826,2.826,0,0,0-.328.046l-.165.047-.283.109c-.422.207-.885.5-1.3.742a1.5,1.5,0,0,1,0-.295l.034-.329.063-.658c.021-.211.047-.451.06-.641l.025-.388c.043-.515.059-1.029.064-1.544a18.962,18.962,0,0,0-.186-3.066,10.032,10.032,0,0,0-.843-2.877,5.893,5.893,0,0,0-.81-1.2,3.653,3.653,0,0,0-1.114-.843,5.8,5.8,0,0,0-3.227-.215,27.93,27.93,0,0,0-3.374.823,52.371,52.371,0,0,1-6.837,1.751,17.344,17.344,0,0,1-3.59.2,15.771,15.771,0,0,1-3.539-.666,11.365,11.365,0,0,1-3.256-1.569,7.7,7.7,0,0,1-2.409-2.745,7.791,7.791,0,0,1-.746-4.4,12.091,12.091,0,0,1,1.341-4.218,17.9,17.9,0,0,1,1.139-1.889,11.586,11.586,0,0,1,1.476-1.662A22.582,22.582,0,0,1,185.5,64.749a20.065,20.065,0,0,1,6.432,1.561,24,24,0,0,1,5.627,3.412c.443.325.843.7,1.265,1.059l.616.54.578.573c.379.384.784.747,1.13,1.156l1.054,1.165c.051.067.114.072.216.084s.266,0,.422.022h.843a14.9,14.9,0,0,1,1.729.113,11.946,11.946,0,0,1,3.375.843,9.277,9.277,0,0,1,2.906,1.945,10.329,10.329,0,0,1,2.02,2.856,15.822,15.822,0,0,1,1.337,4.285,23.807,23.807,0,0,1,.32,3.505c0,.966,0,1.747-.059,2.387a11.5,11.5,0,0,1-.422,2.582c-.08.261-.173.607-.245.759-.122.249-.156-.186-.126-1.177s.093-2.531,0-4.53a22.182,22.182,0,0,0-.743-5.082,11.38,11.38,0,0,0-2.316-4.5,8.674,8.674,0,0,0-4.26-2.632,13.19,13.19,0,0,0-2.56-.422c-.422-.03-.881-.047-1.333-.055h-.889a.821.821,0,0,1-.241-.03,1.143,1.143,0,0,1-.316-.093.493.493,0,0,1-.139-.089.758.758,0,0,1-.126-.105L200.269,73.4l-1.358-1.354c-.468-.422-.958-.843-1.434-1.265s-1-.793-1.515-1.173a21.778,21.778,0,0,0-6.845-3.34,18.2,18.2,0,0,0-6.749-.536c-.569.042-1.126.156-1.687.245a10.063,10.063,0,0,0-1.662.422,20.577,20.577,0,0,0-3.21,1.2,21.829,21.829,0,0,0-5.694,3.8,12.671,12.671,0,0,0-1.156,1.223,11.568,11.568,0,0,0-.94,1.388,13.176,13.176,0,0,0-1.363,3.079Z" transform="translate(-37.418 -12.71)" fill="#221f1f"/>
    <path id="Path_20300" data-name="Path 20300" d="M181.953,121.073a7.5,7.5,0,0,1-4.217-1.359,7.654,7.654,0,0,1-2.671-3.483,12.946,12.946,0,0,1-.8-3.046,24.982,24.982,0,0,1-.047-5.445q.256-2.689.78-5.34c.3-1.561.629-3.125.967-4.665l.645-2.952.321-1.472a11.607,11.607,0,0,0,.232-1.43c0-.291.034-.3.118-.358a.157.157,0,0,1,.172.034.787.787,0,0,1,.2.307,5.3,5.3,0,0,1,0,2.775c-.911,4.045-1.936,8.014-2.481,12.093a22.321,22.321,0,0,0,.169,7.449,8.8,8.8,0,0,0,1.624,3.635,6.327,6.327,0,0,0,3.281,2.13,6.222,6.222,0,0,0,4.766-.54,11.713,11.713,0,0,0,3-2.336,22.331,22.331,0,0,0,2.4-3.021,40.13,40.13,0,0,0,2.844-5.2c.181-.4.362-.785.544-1.186.687-1.476.978-1.945,1.375-2.138a.655.655,0,0,1,.266-.1c.055,0,.076.042.08.109a.382.382,0,0,1,0,.113,1.424,1.424,0,0,1-.043.182,11.226,11.226,0,0,1-.464,1.265,36.943,36.943,0,0,1-5.555,9.7,14.693,14.693,0,0,1-3.227,2.952,9.007,9.007,0,0,1-.975.553,8.223,8.223,0,0,1-1.046.422,7.009,7.009,0,0,1-2.253.371Z" transform="translate(-39.124 -17.935)" fill="#221f1f"/>
    <path id="Path_20301" data-name="Path 20301" d="M192.92,133.822a8.615,8.615,0,0,0-3.429-1.949,5.073,5.073,0,0,0-.945-.135,3.754,3.754,0,0,0-.485,0l-.485.038a6.636,6.636,0,0,0-1.894.536,11.405,11.405,0,0,0-2.493,1.594,22.969,22.969,0,0,0-3.665,3.9,42.946,42.946,0,0,0-2.995,4.526c-.814,1.392-1.552,2.839-2.227,4.29-.868,1.868-1.632,3.8-2.442,5.677-.249.586-.422.422-.422-.139a8.1,8.1,0,0,1,.62-2.716c.8-1.97,1.688-3.91,2.666-5.8a41.43,41.43,0,0,1,3.375-5.462,24.4,24.4,0,0,1,5.433-5.766,8.692,8.692,0,0,1,4.163-1.615,6.451,6.451,0,0,1,1.143,0,3.681,3.681,0,0,1,.57.089,2.924,2.924,0,0,1,.556.13,6.51,6.51,0,0,1,1.059.4l.506.245c.16.093.316.194.476.291a15.1,15.1,0,0,1,3.9,3.7,31.507,31.507,0,0,1,3.936,7.031,60.583,60.583,0,0,1,2.109,5.778c.135.422.266.843.4,1.291.422,1.632.443,2.176.274,2.585a1.5,1.5,0,0,1-.122.266c-.156.2-.481-.422-.843-1.594-.237-.872-.523-1.742-.8-2.619s-.587-1.759-.89-2.645c-.143-.443-.32-.877-.493-1.316s-.346-.873-.514-1.312l-.583-1.29-.291-.65-.325-.629a21.968,21.968,0,0,0-4.872-6.7Z" transform="translate(-38.606 -25.597)" fill="#221f1f"/>
    <path id="Path_20302" data-name="Path 20302" d="M162.6,7.59a24.375,24.375,0,0,1,10.448-4.1,37.836,37.836,0,0,1,11.169.047c.674.059,1.337.215,2.007.329l2,.362A23.319,23.319,0,0,1,192.141,5.5a33.64,33.64,0,0,1,6.293,3.488,28.1,28.1,0,0,1,2.822,2.239,24.227,24.227,0,0,1,2.531,2.586,20.438,20.438,0,0,1,2.109,2.952c.32.51.574,1.063.843,1.6a11.378,11.378,0,0,1,.666,1.687c.181.578.342,1.16.5,1.746a9.276,9.276,0,0,1,.283,1.793,16.522,16.522,0,0,1,0,3.623,18.675,18.675,0,0,1-1.805,6.141,16.957,16.957,0,0,1-3.91,5.037,18.8,18.8,0,0,1-7.149,3.948,17.482,17.482,0,0,1-8.106.544c-1.687-.329-1.371-.5.042-.476a27.5,27.5,0,0,0,6.863-.794,18.7,18.7,0,0,0,7.022-3.492,15.577,15.577,0,0,0,1.459-1.324c.228-.241.472-.46.679-.713l.625-.768a7.157,7.157,0,0,0,.573-.8l.54-.819.456-.873.232-.422c.068-.147.122-.3.182-.456l.367-.911c.113-.307.194-.633.295-.949a8.547,8.547,0,0,0,.254-.957l.211-.971a17.431,17.431,0,0,0,.215-3.948,16.553,16.553,0,0,0-2.5-7.487,24.424,24.424,0,0,0-6.871-6.96,32.29,32.29,0,0,0-4.315-2.53,28.331,28.331,0,0,0-4.64-1.8A47.332,47.332,0,0,0,178.02,4.11a28.262,28.262,0,0,0-10.7,2.025,17.859,17.859,0,0,0-9.647,8.857,15.509,15.509,0,0,0-1.371,4.872l-.1,1.265c0,.422,0,.843.025,1.265l.021.637c.022.211.06.422.089.628.064.422.114.844.186,1.266l.32,1.231c.06.2.1.422.173.612l.228.595c.156.392.287.8.464,1.185l.578,1.135c.1.185.181.384.295.561l.346.531.7,1.067.8.987a8.558,8.558,0,0,0,.843.954l.692.7a7.63,7.63,0,0,0,.713.674l1.514,1.265,1.619,1.093a7.779,7.779,0,0,0,.843.5l.844.472a31.427,31.427,0,0,0,7.271,2.754l.843.215.422.105a2.6,2.6,0,0,1,.51.186,2.28,2.28,0,0,1,.8.7,5.2,5.2,0,0,1,.468.843c.456,1.042.721,1.886.983,2.59s.46,1.265.633,1.738a11.913,11.913,0,0,1,.591,1.961c.034.219.1.5.1.637.026.464-1.029-1.017-2.21-4.007-.211-.549-.422-1.1-.641-1.654a7.984,7.984,0,0,0-.717-1.484,1.29,1.29,0,0,0-.46-.422.357.357,0,0,0-.131-.056l-.151-.046-.443-.114-1.775-.456a16.591,16.591,0,0,1-1.759-.548c-.582-.207-1.173-.388-1.747-.625a31.324,31.324,0,0,1-3.374-1.615,28.881,28.881,0,0,1-3.189-2.037l-1.472-1.219a7.23,7.23,0,0,1-.7-.654l-.674-.683a20.335,20.335,0,0,1-4.18-6.44,17.149,17.149,0,0,1-1.269-5.644,16.2,16.2,0,0,1,.683-5.736l.219-.691a3.837,3.837,0,0,1,.25-.679l.586-1.329c.215-.422.481-.843.717-1.265.126-.207.236-.422.375-.62l.422-.583.423-.578a4.406,4.406,0,0,1,.456-.561l.991-1.054a5.268,5.268,0,0,1,.527-.493l.548-.468a9.493,9.493,0,0,1,1.131-.889Z" transform="translate(-35.436 -0.682)" fill="#221f1f"/>
    <path id="Path_20303" data-name="Path 20303" d="M190.332,55.866l-.637,1.118c-.08.135-.135.283-.224.422-.3.472-.633.924-.975,1.367-.151.2-.3.4-.456.595a2.141,2.141,0,0,1-.708.666c-.093.051-.169-.085-.2-.254a.578.578,0,0,1,.08-.48c.376-.422.717-.919,1.1-1.408a7.8,7.8,0,0,0,.561-.992c.207-.367.422-.738.612-1.118l.363-.7c.177-.359.367-.713.527-1.076.126-.283.206-.582.32-.877.025-.063.042-.13.072-.194.118-.236.207-.278.422-.207.05.014.1.031.148.051a.329.329,0,0,1,.185.422,8.286,8.286,0,0,1-.6,1.549c-.182.379-.38.759-.578,1.143Z" transform="translate(-41.665 -10.361)" fill="#221f1f"/>
    <path id="Path_20304" data-name="Path 20304" d="M131.222,12.566a18.021,18.021,0,0,0-2.914-4.049l-.873-.906-.944-.844-.472-.422-.506-.371c-.337-.249-.67-.5-1.017-.742a21.039,21.039,0,0,0-2.181-1.24c-.379-.177-.742-.392-1.139-.535L120,3.034a4.281,4.281,0,0,0-.595-.195l-.608-.164a8.546,8.546,0,0,0-1.219-.291l-1.236-.216-1.265-.093a18.15,18.15,0,0,0-7.17,1.1,21.706,21.706,0,0,0-5.665,3.105,16.352,16.352,0,0,0-4.269,4.791A20.908,20.908,0,0,0,99.584,34.2a21.233,21.233,0,0,0,5.458,4.918,30.828,30.828,0,0,0,6.677,3.151c1.455.51,1.236.591-.093.422a10.373,10.373,0,0,1-1.186-.207c-.451-.113-.962-.249-1.514-.422s-1.135-.422-1.759-.65a12.8,12.8,0,0,1-1.877-.97,23.236,23.236,0,0,1-5.973-5.062A21.622,21.622,0,0,1,95.5,28.552,22.09,22.09,0,0,1,96,13.131a18.316,18.316,0,0,1,5.749-7.545,21.6,21.6,0,0,1,8.684-4.045,18.455,18.455,0,0,1,5.277-.295l.662.046c.215.03.422.076.65.109.422.08.873.144,1.307.237a20.3,20.3,0,0,1,2.531.78,21.858,21.858,0,0,1,8.57,5.982,20.789,20.789,0,0,1,4.986,11.755,20.258,20.258,0,0,1-1.532,9.6A26.692,26.692,0,0,1,127.5,37.81a40.6,40.6,0,0,1-5.618,4.9,1.132,1.132,0,0,0-.283.254,1.426,1.426,0,0,0-.194.324,3.881,3.881,0,0,0-.262.81,12.061,12.061,0,0,0-.241,1.771c-.093,1.206-.085,2.426-.139,3.674a5.967,5.967,0,0,1-.076.843,1.2,1.2,0,0,1-.051.249,1.079,1.079,0,0,1-.131.3.573.573,0,0,1-.236.215,1.439,1.439,0,0,1-.27.148,1.624,1.624,0,0,1-1.046.029,2.939,2.939,0,0,1-.843-.422,8.288,8.288,0,0,1-1.788-2,14.783,14.783,0,0,1-.9-1.535,6.487,6.487,0,0,1-.662-1.826,3.225,3.225,0,0,1-.076-.595c.029-.2.189.046.565.674s.911,1.619,1.755,2.8a10.588,10.588,0,0,0,1,1.223,3.146,3.146,0,0,0,1.16.818.757.757,0,0,0,.5,0,.147.147,0,0,0,.063-.025.077.077,0,0,0,.03-.026v-.181a14.765,14.765,0,0,0,.089-1.611c.03-1.122.043-2.269.165-3.437a9.074,9.074,0,0,1,.345-1.788,3.138,3.138,0,0,1,.456-.936,2.427,2.427,0,0,1,.2-.233c.076-.067.185-.16.228-.189l.337-.254a32.418,32.418,0,0,0,9.224-9.891,20.212,20.212,0,0,0,2.741-9.6,19.786,19.786,0,0,0-2.37-9.7Z" transform="translate(-23.562 -0.306)" fill="#221f1f"/>
    <path id="Path_20305" data-name="Path 20305" d="M56.324,1.589A18.44,18.44,0,0,0,51.879.53L51.314.455l-.578-.03L49.588.37,48.437.4h-.574l-.574.059a31.819,31.819,0,0,0-8.955,2.253,15.541,15.541,0,0,0-1.561.67c-.514.249-1.037.481-1.514.734-1,.535-2.037,1.017-2.952,1.624A17.761,17.761,0,0,0,27.845,9.6a16.337,16.337,0,0,0-2.822,5.154,18.35,18.35,0,0,0,.22,11.666l.215.625a4.623,4.623,0,0,0,.241.616l.544,1.2a4.285,4.285,0,0,0,.307.587l.333.569.329.57.392.531L28,31.65l.194.266c.068.085.147.16.219.245l.894.962.983.843c.333.282.705.51,1.055.768.113.08.223.164.341.241l.367.211.725.422c.494.262,1.012.48,1.519.717a10.03,10.03,0,0,0,1.586.569c.54.147,1.072.337,1.624.452a41.6,41.6,0,0,0,6.706.962c1.409.1,1.215.291,0,.422a21.423,21.423,0,0,1-12.742-2.91,15.407,15.407,0,0,1-5.062-5.062A20.151,20.151,0,0,1,23.813,24.1a18.98,18.98,0,0,1-.1-7.141c.072-.35.13-.7.211-1.058s.2-.691.3-1.041c.051-.173.093-.35.156-.519l.2-.506c.135-.337.253-.683.422-1.012a17.791,17.791,0,0,1,1.033-1.932c.2-.307.375-.633.595-.923l.666-.877a19.706,19.706,0,0,1,6.9-5.327,40.338,40.338,0,0,1,8.9-3.375,29.689,29.689,0,0,1,4.72-.75l1.2-.034h.6l.6.025,1.2.059,1.19.152A19.475,19.475,0,0,1,58.23,1.556,19.045,19.045,0,0,1,63.072,4.9a19.7,19.7,0,0,1,4.893,7.386,15.911,15.911,0,0,1,.988,4.353,10.481,10.481,0,0,1-.093,2.24,10.133,10.133,0,0,1-.232,1.092c-.089.358-.177.717-.291,1.067a20.9,20.9,0,0,1-1.219,3.2,17.512,17.512,0,0,1-1.751,2.927,19.857,19.857,0,0,1-4.939,4.64c-.843.565-1.653,1.075-2.53,1.582a24.992,24.992,0,0,0-3.231,2.075,6.025,6.025,0,0,0-1.135,1.2c-.122.134-.2.362-.278.455s-.093.047-.1-.1a2.185,2.185,0,0,1,.021-.3,4.015,4.015,0,0,1,.13-.452,3.884,3.884,0,0,1,.764-1.135,8.7,8.7,0,0,1,1.442-1.172C57.2,32.826,59,31.89,60.622,30.688a17.945,17.945,0,0,0,6.918-9.752c.16-.489.278-1,.422-1.5A7.027,7.027,0,0,0,68.1,18.7a5.3,5.3,0,0,0,.076-.739,11.571,11.571,0,0,0-.249-3.02A18.627,18.627,0,0,0,56.345,1.6Z" transform="translate(-9.721)" fill="#221f1f"/>
    <path id="Path_20306" data-name="Path 20306" d="M59.071,53.839l.422,1.265a10.805,10.805,0,0,1-1.839-.4,5.529,5.529,0,0,1-.666-.266c-.177-.08-.345-.168-.518-.253-.325-.173-.654-.337-.962-.536a12.551,12.551,0,0,1-2.877-2.568,7.8,7.8,0,0,1-.962-1.447A3.322,3.322,0,0,1,51.3,48.55a2,2,0,0,1,.151-1.16c.1-.228.22-.13.325.085.047.1.122.241.194.384a2.038,2.038,0,0,1,.16.452A4.777,4.777,0,0,0,52.909,50a12.905,12.905,0,0,0,1.312,1.582,9.656,9.656,0,0,0,2.071,1.527,10.88,10.88,0,0,0,1.223.629l.207.085.143.055.156.047.08.021h.046v-.03l-.375-1.21a17.036,17.036,0,0,1-.595-2.716,11.569,11.569,0,0,1-.139-2.155,4.724,4.724,0,0,1,.034-.476c.085-.595.232-.755.46-.843a.867.867,0,0,1,.16-.047c.173,0,.258.249.25.654a15.075,15.075,0,0,0,.257,3.648c.093.456.2.911.338,1.371.063.228.134.46.206.687l.11.341c.072.224.16.452.24.675Z" transform="translate(-15.155 -9.144)" fill="#221f1f"/>
    <path id="Path_20307" data-name="Path 20307" d="M1.1,25.928A13.145,13.145,0,0,0-6.67,24.62a18.613,18.613,0,0,0-7.554,2.75A20.246,20.246,0,0,0-18.7,31.242a24.662,24.662,0,0,0-3.012,4.3,28.078,28.078,0,0,0-2.13,4.817A22.087,22.087,0,0,0-24.87,50.741a14.334,14.334,0,0,0,4.159,8.123,11,11,0,0,0,2.349,1.759,12.809,12.809,0,0,0,2.724,1.105,54.811,54.811,0,0,0,5.905,1.084c1.236.274,1.05.362-.034.456A18.424,18.424,0,0,1-12,63.3a16.284,16.284,0,0,1-3.18-.422,12.889,12.889,0,0,1-5.732-2.889,15.43,15.43,0,0,1-2.147-2.4,15.289,15.289,0,0,1-1.577-2.8,17.091,17.091,0,0,1-1.345-6.234,22.936,22.936,0,0,1,.712-6.3,30.183,30.183,0,0,1,2.8-7.124,23.84,23.84,0,0,1,4.728-6.15,20.225,20.225,0,0,1,3.416-2.56A20.729,20.729,0,0,1-10.462,24.6a16.552,16.552,0,0,1,8.436-.691,12.53,12.53,0,0,1,8.414,5.905,17.924,17.924,0,0,1,1.654,3.611,23.538,23.538,0,0,1,.843,3.863l.13.979.072.983c0,.328.06.654.064.983v.991a9.531,9.531,0,0,1-.034.983,8.325,8.325,0,0,1-.064.983c-.084.65-.134,1.3-.266,1.945A29.142,29.142,0,0,1,4.4,56.287,24.8,24.8,0,0,1,2.811,58.4a16.717,16.717,0,0,1-2.5,2.493,4.812,4.812,0,0,1-.776.531,3.592,3.592,0,0,1-.587.266,3.485,3.485,0,0,1-.464.156c-.177,0-.026-.206.4-.62S-.027,60.189.8,59.35a24.569,24.569,0,0,0,3.311-4.167,28.9,28.9,0,0,0,2.413-4.82A25.709,25.709,0,0,0,8.3,39.64c-.05-.683-.089-1.367-.2-2.041-.051-.338-.089-.679-.147-1.012l-.207-1A9.042,9.042,0,0,0,7.5,34.6c-.1-.324-.177-.658-.283-.978a18.049,18.049,0,0,0-.76-1.877,13.223,13.223,0,0,0-2.2-3.375,11.688,11.688,0,0,0-3.142-2.434Z" transform="translate(-0.078 -4.692)" fill="#221f1f"/>
    <path id="Path_20308" data-name="Path 20308" d="M1.128,76.55A13.156,13.156,0,0,0,3.389,77.6c.307.1.266.076.341.1h.051c.114.072.06-.051.06-.113V77.5h0v-.051l-.105-.422L3.313,75.42c-.118-.48-.258-.953-.393-1.43A7.534,7.534,0,0,1,2.6,72.108c0-.207.164-.19.345-.047a1.488,1.488,0,0,1,.493.734l.27.9.224.923c.147.616.291,1.24.422,1.873.034.173.076.35.122.527l.2.713c.085.287.16.616.026.7l-.034.042-.021.021h0l.05.051H4.633l-.148.021-.295.039-.27-.068c-.168-.038-.346-.093-.518-.148s-.216-.063-.321-.105c-.206-.08-.422-.147-.624-.236a12.6,12.6,0,0,1-1.206-.561,14.414,14.414,0,0,1-1.4-.843,13.86,13.86,0,0,1-1.907-1.569,12.287,12.287,0,0,1-1.286-1.4c-.08-.113-.169-.224-.249-.346-.278-.447-.291-.637-.161-.818a1.075,1.075,0,0,1,.1-.126c.126-.11.341,0,.544.3a14.35,14.35,0,0,0,2.2,2.4,12.6,12.6,0,0,0,2.042,1.43Z" transform="translate(-4.401 -14.119)" fill="#221f1f"/>
    <path id="Path_20309" data-name="Path 20309" d="M2.746,116.172c.3-.321.388-.371.493-.367a4.062,4.062,0,0,0,.958-.047,3.409,3.409,0,0,0,.843-.181,2.35,2.35,0,0,0,.616-.359,2.019,2.019,0,0,0,.46-.518,1.59,1.59,0,0,0,.186-.367,1.486,1.486,0,0,0,.076-.388v-.064a.554.554,0,0,1,.422.042c.034,0,.089.039.085.051,0,.118.224.287.181.422a2.422,2.422,0,0,0-.122.389,2.829,2.829,0,0,1-.147.383,1.124,1.124,0,0,1-.2.266,2.549,2.549,0,0,1-.333.262c-.039.029-.105.089-.207.155a2.92,2.92,0,0,1-.376.241,3.584,3.584,0,0,1-1.1.4,3.282,3.282,0,0,1-1.118.038,2.366,2.366,0,0,1-.535-.147A.876.876,0,0,1,2.746,116.172Z" transform="translate(-5.686 -22.296)" fill="#221f1f"/>
    <path id="Path_20310" data-name="Path 20310" d="M5.643,116.444c-.57.518.363,1.687,1.029,1.223S6.449,115.718,5.643,116.444Z" transform="translate(-6.216 -22.763)" fill="#221f1f"/>
    <path id="Path_20311" data-name="Path 20311" d="M7.239,116.984a1.081,1.081,0,0,1-.131.536.944.944,0,0,1-.422.375.809.809,0,0,1-.185.072.471.471,0,0,1-.2.026.98.98,0,0,1-.586-.228,1.347,1.347,0,0,1-.346-.422,1.605,1.605,0,0,1-.156-.464.6.6,0,0,1,.228-.611c.064-.039.122.059.177.168l.08.152c.03.046.059.076.051.093a1.376,1.376,0,0,0,.245.565.319.319,0,0,0,.333.139.3.3,0,0,0,.266-.236.571.571,0,0,0,0-.32.673.673,0,0,0-.308-.423.292.292,0,0,0-.3.03.2.2,0,0,1-.051.047c-.021.008-.109.038-.249-.089l-.1-.08A.227.227,0,0,1,5.528,116l.015-.02a.809.809,0,0,1,.687-.262,1.117,1.117,0,0,1,.662.341,1.463,1.463,0,0,1,.384.924Z" transform="translate(-6.164 -22.658)" fill="#221f1f"/>
    <path id="Path_20312" data-name="Path 20312" d="M15.5,114.285c-.73.249-.342,1.687.46,1.531S16.51,113.935,15.5,114.285Z" transform="translate(-8.099 -22.371)" fill="#221f1f"/>
    <path id="Path_20313" data-name="Path 20313" d="M16.717,115.439a1.056,1.056,0,0,1-.333.422.921.921,0,0,1-.536.182.815.815,0,0,1-.2,0,.526.526,0,0,1-.194-.055A.992.992,0,0,1,15,115.54a1.263,1.263,0,0,1-.143-.531,1.5,1.5,0,0,1,.042-.489.583.583,0,0,1,.447-.468c.076,0,.089.1.1.224a1.021,1.021,0,0,1,0,.173v.1a1.419,1.419,0,0,0,0,.616.325.325,0,0,0,.25.262.3.3,0,0,0,.341-.114.59.59,0,0,0,.105-.3.7.7,0,0,0-.122-.5.282.282,0,0,0-.291-.089.28.28,0,0,1-.064,0c-.076,0-.113,0-.194-.182l-.055-.109a.228.228,0,0,1,.07-.315l.027-.014a.8.8,0,0,1,.73.034,1.122,1.122,0,0,1,.476.578,1.452,1.452,0,0,1,0,1Z" transform="translate(-8.049 -22.272)" fill="#221f1f"/>
    <path id="Path_20314" data-name="Path 20314" d="M13.07,113.447c.367-.122.464-.135.531-.1a1.794,1.794,0,0,0,.768.165,3.121,3.121,0,0,0,.734-.051,2.556,2.556,0,0,0,.607-.228,2.213,2.213,0,0,0,.519-.367,1.324,1.324,0,0,0,.241-.266,2.762,2.762,0,0,1,.147-.283.136.136,0,0,1,.059-.039.5.5,0,0,1,.342.085s.064.043.059.055a.907.907,0,0,0,.076.211c.038.08.084.169.038.224a4.306,4.306,0,0,1-.422.637.834.834,0,0,1-.232.189,2.729,2.729,0,0,1-.346.148,4.7,4.7,0,0,1-.574.249,3.428,3.428,0,0,1-1.046.186,2.12,2.12,0,0,1-1.037-.228,1.358,1.358,0,0,1-.422-.346A.939.939,0,0,1,13.07,113.447Z" transform="translate(-7.7 -21.988)" fill="#221f1f"/>
    <path id="Path_20315" data-name="Path 20315" d="M4.393,110.707a3.778,3.778,0,0,0-1-.038,3.567,3.567,0,0,0-.359.076,3.081,3.081,0,0,0-1.219.514,2.2,2.2,0,0,0-.422.422c-.173.2-.287.422-.481.625-.064.059-.16,0-.232-.118a.552.552,0,0,1-.055-.472,2.554,2.554,0,0,1,1.265-1.3c.177-.072.333-.173.514-.241l.262-.114c.089-.029.182-.055.274-.076a4.11,4.11,0,0,1,1.215-.1,7.248,7.248,0,0,1,.734.089c.363.06.717.173,1.067.262.27.076.552.118.823.2a.787.787,0,0,1,.181.046c.215.093.249.19.2.4a1.268,1.268,0,0,1-.042.143.355.355,0,0,1-.35.241,8.191,8.191,0,0,1-1.371-.329,6.483,6.483,0,0,0-1.012-.219Z" transform="translate(-5.265 -21.519)" fill="#221f1f"/>
    <path id="Path_20316" data-name="Path 20316" d="M11.381,114.254a4.813,4.813,0,0,1,.173-2.505,4.642,4.642,0,0,1,.354-.843,5.533,5.533,0,0,1,2.261-2.155,4.959,4.959,0,0,1,1.316-.481,3.619,3.619,0,0,1,.907-.089,1.947,1.947,0,0,1,.877.258c.169.089.076.228-.113.35a1.608,1.608,0,0,1-.342.168.724.724,0,0,1-.392.089,4.261,4.261,0,0,0-4.053,5.876,5.285,5.285,0,0,0,1.139,1.716,5.345,5.345,0,0,0,1.29.916c.1.059.211.093.312.147.371.215.48.3.489.523a.9.9,0,0,1,0,.147c0,.156-.232.2-.582.11a5.485,5.485,0,0,1-2.615-1.928,5.655,5.655,0,0,1-1.021-2.295Z" transform="translate(-7.353 -21.188)" fill="#221f1f"/>
    <path id="Path_20317" data-name="Path 20317" d="M12.389,126.429a2.555,2.555,0,0,0,2.467.869,2.435,2.435,0,0,0,1.346-1.615c.177-.489-.738-.472-.877-.1s-.312.949-.683,1.109c-.51.22-1.215-.493-1.544-.789S12,126.078,12.389,126.429Z" transform="translate(-7.547 -24.531)" fill="#221f1f"/>
    <path id="Path_20318" data-name="Path 20318" d="M69.648,100.215a1.158,1.158,0,0,1-.147.236,1.184,1.184,0,0,1-.177.2,1.687,1.687,0,0,1-.422.3,1.482,1.482,0,0,1-1.025.139,2,2,0,0,1-.637-.232,5.646,5.646,0,0,1-1.472-1.464c-.177-.24-.371-.464-.54-.7-.109-.151-.224-.3-.324-.46a2.771,2.771,0,0,1-.237-.51c-.038-.113.089-.173.266-.173a.871.871,0,0,1,.566.207c.493.548.872,1.156,1.3,1.734a2.537,2.537,0,0,0,.961.759.818.818,0,0,0,1.029-.16.883.883,0,0,0,.249-.662,4.7,4.7,0,0,0-.257-1.328c-.105-.35-.262-.688-.35-1.076a2.1,2.1,0,0,0-.055-.257c-.026-.346.063-.468.274-.5a.911.911,0,0,1,.148,0,.364.364,0,0,1,.316.308c.126.527.367,1.122.552,1.817a4.484,4.484,0,0,1,.148.843,1.914,1.914,0,0,1-.161,1.008Z" transform="translate(-17.768 -18.862)" fill="#221f1f"/>
    <path id="Path_20319" data-name="Path 20319" d="M79.835,97.236a1.774,1.774,0,0,1-.266.9.894.894,0,0,1-.5.35,1.154,1.154,0,0,1-.519,0,1.48,1.48,0,0,1-.629-.282,5.6,5.6,0,0,1-1.19-1.578c-.138-.245-.287-.48-.422-.717a4.5,4.5,0,0,1-.51-.919c-.034-.1.122-.182.312-.19a.6.6,0,0,1,.531.245c.363.62.675,1.244,1.008,1.852a2.354,2.354,0,0,0,.8.843.657.657,0,0,0,.236.093.551.551,0,0,0,.224,0c.1,0,.19-.143.232-.359a3.364,3.364,0,0,0,.034-.843c-.034-.443-.085-.894-.156-1.341-.055-.35-.147-.687-.185-1.054q-.017-.124-.022-.249c0-.321.1-.423.291-.447a.662.662,0,0,1,.126,0,.321.321,0,0,1,.228.32c.064.527.2,1.156.287,1.805a8.464,8.464,0,0,1,.114,1.536Z" transform="translate(-19.942 -18.33)" fill="#221f1f"/>
    <path id="Path_20320" data-name="Path 20320" d="M78.542,105.271c.039,0,.039,0,.051-.042a.87.87,0,0,0-.059-.278,8.322,8.322,0,0,0-.346-.78c-.1-.186-.215-.363-.324-.549-.38-.654-.8-1.3-1.244-1.928-.194-.278-.422-.548-.629-.81a5.433,5.433,0,0,1-.781-1.062c-.063-.127.068-.194.258-.194a.844.844,0,0,1,.608.257,15,15,0,0,1,1.573,2.193c.278.472.625.92.911,1.409a7.777,7.777,0,0,1,.422.843,4.817,4.817,0,0,1,.182.447,1.194,1.194,0,0,1,.076.574.767.767,0,0,1-.506.578,2.534,2.534,0,0,1-.595.152,5.374,5.374,0,0,1-1.759,0,4.312,4.312,0,0,1-1.312-.4,1.829,1.829,0,0,1-.27-.148c-.321-.215-.371-.345-.3-.527a.549.549,0,0,1,.047-.122c.076-.126.254-.105.46,0a4.491,4.491,0,0,0,2.029.591,4.883,4.883,0,0,0,.819-.042,2.03,2.03,0,0,0,.683-.169Z" transform="translate(-19.682 -19.519)" fill="#221f1f"/>
    <path id="Path_20321" data-name="Path 20321" d="M74.315,112.293a2.6,2.6,0,0,0,2.079.675,2.207,2.207,0,0,0,2.084-1.9c.076-.375-.843-.232-.92.1-.134.7-.464,1.316-1.265,1.265a1.687,1.687,0,0,1-1.143-.489c-.2-.266-1.088.055-.843.371Z" transform="translate(-19.642 -21.708)" fill="#221f1f"/>
    <path id="Path_20322" data-name="Path 20322" d="M63.578,91.433a5.914,5.914,0,0,1,1.266-.4,3.9,3.9,0,0,1,.493-.085,1.944,1.944,0,0,1,.422,0,3.927,3.927,0,0,1,.422.047,4,4,0,0,1,.843.249c.113.051.241.085.354.139l.337.165a1.6,1.6,0,0,1,.76.582c.059.085-.1.224-.3.333s-.422.2-.561.122c-.215-.156-.443-.254-.658-.4a7.3,7.3,0,0,0-.708-.312,1.034,1.034,0,0,0-.481-.072,3.436,3.436,0,0,0-.5.042,4.716,4.716,0,0,0-1.1.274,5.328,5.328,0,0,0-.654.308,4.787,4.787,0,0,0-.9.628,3.979,3.979,0,0,0-.527.662c-.034.051-.055.105-.093.156-.134.177-.2.186-.422.093l-.156-.059a.325.325,0,0,1-.172-.426l.012-.026a3.557,3.557,0,0,1,1.127-1.35,6.579,6.579,0,0,1,1.147-.7Z" transform="translate(-17.098 -17.824)" fill="#221f1f"/>
    <path id="Path_20323" data-name="Path 20323" d="M78.249,89.938A1.508,1.508,0,0,0,77.9,90l-.185.051-.182.076a2.56,2.56,0,0,0-.253.148,4.586,4.586,0,0,0-.907.586,1.857,1.857,0,0,0-.329.354,1.508,1.508,0,0,1-.367.452.378.378,0,0,1-.354-.143.663.663,0,0,1-.164-.245.325.325,0,0,1,0-.249,2.067,2.067,0,0,1,.422-.621c.089-.084.177-.168.274-.245a2.789,2.789,0,0,1,.321-.2c.262-.135.48-.35.742-.5.152-.076.3-.148.456-.212a4.168,4.168,0,0,1,.493-.143l.312-.055h.32a2.656,2.656,0,0,1,.941.2,3.593,3.593,0,0,1,.346.131,1.253,1.253,0,0,1,.464.258c.148.143.148.232,0,.422l-.089.113a.421.421,0,0,1-.392.139c-.384-.093-.612-.219-.877-.3-.105,0-.2-.038-.308-.042a1.408,1.408,0,0,0-.329,0Z" transform="translate(-19.811 -17.455)" fill="#221f1f"/>
    <path id="Path_20324" data-name="Path 20324" d="M129.1,105.62a.623.623,0,0,0,.422-.021c.072-.051.148-.085.22-.139l.215-.2a1.438,1.438,0,0,0,.177-.342,3.942,3.942,0,0,0,.1-1.687,7.761,7.761,0,0,0-.156-.814,3.488,3.488,0,0,1-.16-1.076c0-.118.16-.113.324-.042a.672.672,0,0,1,.388.4,8.255,8.255,0,0,1,.376,2.184,3.632,3.632,0,0,1-.228,1.5,1.818,1.818,0,0,1-.254.38c-.1.1-.2.2-.3.3a3.747,3.747,0,0,1-.384.236,1.483,1.483,0,0,1-1.017.055,2.3,2.3,0,0,1-.468-.232,5.406,5.406,0,0,1-1.059-.992c-.245-.261-.489-.522-.729-.789a1.86,1.86,0,0,1-.156-.172c-.182-.228-.19-.325-.055-.5.029-.038.059-.08.093-.118.109-.118.291-.1.456.043.476.422.843.936,1.265,1.367a2.067,2.067,0,0,0,.928.645Z" transform="translate(-29.79 -19.835)" fill="#221f1f"/>
    <path id="Path_20325" data-name="Path 20325" d="M140.439,105.953a1.517,1.517,0,0,1-.468.207,1.12,1.12,0,0,1-.565,0,1.507,1.507,0,0,1-.743-.553,2.949,2.949,0,0,1-.316-.476,6.325,6.325,0,0,1-.447-1.767c-.042-.257-.093-.51-.148-.759a3.751,3.751,0,0,1-.155-.958c0-.211.67-.093.772.283a17.693,17.693,0,0,1,.358,1.923,2.917,2.917,0,0,0,.38,1.05,1.629,1.629,0,0,0,.337.422.388.388,0,0,0,.354.1,1.078,1.078,0,0,0,.514-.4,3.637,3.637,0,0,0,.574-1.037,4,4,0,0,0,.173-.907v-.2c.026-.236.076-.291.287-.341l.144-.034c.16-.038.3.093.324.32a3.8,3.8,0,0,1-.422,1.881,3.231,3.231,0,0,1-.97,1.265Z" transform="translate(-32.002 -19.893)" fill="#221f1f"/>
    <path id="Path_20326" data-name="Path 20326" d="M134.586,102.233a6.753,6.753,0,0,1,.721-2.56l.237-.422c.089-.139.189-.27.291-.4a5.582,5.582,0,0,1,2.848-1.8,7.932,7.932,0,0,1,1.463-.278,2.749,2.749,0,0,1,1.9.337c.177.126.068.224-.143.312-.105.047-.219.076-.363.135a1.435,1.435,0,0,1-.422.059,6.524,6.524,0,0,0-3.289.574,3.9,3.9,0,0,0-1.557,1.392,5.377,5.377,0,0,0-.843,2.193,6.784,6.784,0,0,0-.085,1.489,5.412,5.412,0,0,0,.544,2.168,4.866,4.866,0,0,0,1.041,1.341c.1.08.195.156.283.241.354.3.447.422.4.654a.846.846,0,0,1-.029.156c-.051.16-.3.152-.625-.055a5.244,5.244,0,0,1-2.109-2.835,7.087,7.087,0,0,1-.283-2.687Z" transform="translate(-31.405 -18.953)" fill="#221f1f"/>
    <path id="Path_20327" data-name="Path 20327" d="M127.31,97.5a2.519,2.519,0,0,0-.57-.08,2.969,2.969,0,0,0-.586,0,3.722,3.722,0,0,0-.422.085,4.842,4.842,0,0,0-1.481.51,2.778,2.778,0,0,0-.565.422,2.361,2.361,0,0,0-.3.311c-.105.105-.19.212-.3.3s-.215-.026-.308-.186a.539.539,0,0,1,0-.578,2.744,2.744,0,0,1,.371-.4,2.886,2.886,0,0,1,.422-.338,2.758,2.758,0,0,1,.464-.253,3.373,3.373,0,0,1,.493-.186,11.317,11.317,0,0,1,1.21-.375,6.464,6.464,0,0,1,.692-.08,5.541,5.541,0,0,1,.7.03l.422.072c.139.03.274.085.422.122a4.274,4.274,0,0,1,1.147.6,3.268,3.268,0,0,1,.4.287,3.483,3.483,0,0,1,.393.312c.05.055.105.1.151.156.177.211.19.311.047.472-.034.038-.064.076-.1.109a.339.339,0,0,1-.422,0c-.105-.08-.2-.165-.3-.254s-.207-.151-.3-.232a6.166,6.166,0,0,0-.616-.422c-.169-.072-.325-.169-.5-.232a2.849,2.849,0,0,0-.54-.152Z" transform="translate(-29.093 -18.94)" fill="#221f1f"/>
    <path id="Path_20328" data-name="Path 20328" d="M136.659,115.264a.569.569,0,0,1-.579.56l-.05,0c-.371,0-.51-.139-.51-.468s.1-.612.489-.612S136.659,114.935,136.659,115.264Z" transform="translate(-31.597 -22.469)" fill="#221f1f"/>
    <path id="Path_20329" data-name="Path 20329" d="M182.354,103.093a2.142,2.142,0,0,1-.683.447,1.331,1.331,0,0,1-.228.064,1.038,1.038,0,0,0-.254.021,1.045,1.045,0,0,1-.253-.047.641.641,0,0,1-.228-.1,1.555,1.555,0,0,1-.485-.422h0a1.1,1.1,0,0,1-.185-.578,2.71,2.71,0,0,1,.021-.464c.034-.287.093-.556.143-.822a4.457,4.457,0,0,0,.085-.7,3.646,3.646,0,0,1,.113-.844c.026-.089.156-.1.312-.033s.38.232.393.422a4.419,4.419,0,0,1,0,.505c-.022.161-.047.321-.081.472-.059.312-.139.608-.219.894a1.335,1.335,0,0,0-.047.422.494.494,0,0,0,.059.258.912.912,0,0,1,.085.093.418.418,0,0,0,.3.173.694.694,0,0,0,.4-.147,2.63,2.63,0,0,0,.493-.5,4.6,4.6,0,0,0,.582-.97,4.937,4.937,0,0,0,.245-.843,1.417,1.417,0,0,1,.038-.19c.055-.232.143-.278.354-.274h.139a.317.317,0,0,1,.254.354,4.174,4.174,0,0,1-.523,1.687,4.9,4.9,0,0,1-.823,1.139Z" transform="translate(-40.284 -19.509)" fill="#221f1f"/>
    <path id="Path_20330" data-name="Path 20330" d="M191,105.454a2.069,2.069,0,0,1-.843.3,1.364,1.364,0,0,1-.966-.283,1.247,1.247,0,0,1-.253-.291l-.1-.156a.546.546,0,0,0-.051-.16,2.526,2.526,0,0,1-.025-1.033,7.463,7.463,0,0,1,.215-.907c.072-.257.135-.518.2-.772a1.9,1.9,0,0,1,.359-.94c.072-.089.2-.034.333.1a1.4,1.4,0,0,1,.2.254.706.706,0,0,1,.076.152.391.391,0,0,1,0,.143c-.181.645-.422,1.265-.6,1.868a1.481,1.481,0,0,0,.034,1,.364.364,0,0,0,.283.236.712.712,0,0,0,.485-.047,2.046,2.046,0,0,0,.625-.422,4.465,4.465,0,0,0,.78-.949,4.648,4.648,0,0,0,.384-.877l.064-.2c.1-.241.168-.3.388-.27a.9.9,0,0,1,.147,0c.16.034.245.186.211.4a4.5,4.5,0,0,1-.814,1.755,4.352,4.352,0,0,1-1.114,1.088Z" transform="translate(-41.979 -19.82)" fill="#221f1f"/>
    <path id="Path_20331" data-name="Path 20331" d="M184.159,101.193a10.68,10.68,0,0,0,.995-2.724,7.267,7.267,0,0,0,.122-1.037,4,4,0,0,0,0-.877,2.639,2.639,0,0,0-.089-.393c-.059-.118-.109-.253-.181-.367a2.531,2.531,0,0,0-1.337-1.025,4.386,4.386,0,0,0-1.611-.232,18.808,18.808,0,0,0-2.109.274c-.219.026-.266-.2-.134-.472a1.265,1.265,0,0,1,.911-.654,7.132,7.132,0,0,1,2.446,0,3.831,3.831,0,0,1,2.253,1.24,3.33,3.33,0,0,1,.422.683,2.59,2.59,0,0,1,.257.78,5.332,5.332,0,0,1,.03,1.51,11.085,11.085,0,0,1-.873,3.054,12.975,12.975,0,0,1-.928,1.688,10.3,10.3,0,0,1-1.936,2.21,7.978,7.978,0,0,1-1.915,1.265c-.156.068-.312.13-.476.185-.621.178-.844.122-1-.093a1.086,1.086,0,0,1-.105-.151c-.072-.182.147-.355.531-.485a7.715,7.715,0,0,0,3.07-2.029,10.116,10.116,0,0,0,1.637-2.37Z" transform="translate(-40.061 -18.339)" fill="#221f1f"/>
    <path id="Path_20332" data-name="Path 20332" d="M195.96,96.1a3.568,3.568,0,0,0-1.11-.237h-.422a6.747,6.747,0,0,0-1.556.169,3.186,3.186,0,0,0-.645.249c-.126.072-.254.143-.363.22s-.211.164-.241.134a.333.333,0,0,1-.358-.08.461.461,0,0,1-.072-.359.576.576,0,0,1,.063-.181.4.4,0,0,1,.11-.135,2.926,2.926,0,0,1,.957-.493,4.241,4.241,0,0,1,1-.2c.4-.03.806-.135,1.219-.152a5.2,5.2,0,0,1,1.371.131,3.753,3.753,0,0,1,.819.295,2.739,2.739,0,0,1,.987.9,3.039,3.039,0,0,1,.464.924,2.042,2.042,0,0,1,.06.219c.034.278-.034.371-.258.422l-.152.038a.375.375,0,0,1-.392-.232,4.059,4.059,0,0,0-.645-1.139,2.112,2.112,0,0,0-.843-.5Z" transform="translate(-42.46 -18.624)" fill="#221f1f"/>
    <path id="Path_20333" data-name="Path 20333" d="M179.976,114.432c.388,1.165,1.219,2.08,2.53,1.784a3.559,3.559,0,0,0,2.358-1.961c.211-.485-.709-.5-.881-.113a2.589,2.589,0,0,1-1.38,1.35c-.945.35-1.459-.523-1.717-1.308-.143-.422-1.058-.177-.919.249Z" transform="translate(-40.268 -22.299)" fill="#221f1f"/>
    <path id="Path_20334" data-name="Path 20334" d="M196.891,21.187l-2.185-.105h-.8l-2.81-.169a10.7,10.7,0,0,0-1.265,0,8.327,8.327,0,0,1-1.59-.047c-.329-.063.109-.814.721-.806a30.213,30.213,0,0,1,3.248.2c.65.076,1.329.051,2,.08l2.2.089,1.354.047c.683,0,1.371.038,2.046.021a13.488,13.488,0,0,0,1.557-.135l.333-.042c.422-.038.523,0,.637.177a.57.57,0,0,0,.114.114c.067.055.08.139-.051.245a.844.844,0,0,1-.376.181,13.859,13.859,0,0,1-2.952.241c-.738,0-1.476,0-2.21-.034Z" transform="translate(-41.864 -3.991)" fill="#221f1f"/>
    <path id="Path_20335" data-name="Path 20335" d="M193.987,26.077l-3.13-.1h-1.139c-1.341-.059-2.678-.139-4.019-.215-.595-.034-1.194-.051-1.784-.064a11.518,11.518,0,0,1-2.3-.164.474.474,0,0,1-.173-.093.081.081,0,0,1,0-.11.652.652,0,0,1,.11-.1c.042-.034.08-.076.139-.118a1.513,1.513,0,0,1,1.008-.308c1.531.076,3.075.156,4.64.3.928.089,1.9.076,2.851.105l3.143.089,1.936.034c.975,0,1.957,0,2.923-.034.75-.034,1.484-.122,2.214-.216l.48-.067c.6-.076.768-.068.941.109a1.062,1.062,0,0,1,.118.122c.105.139-.131.346-.587.456a21.434,21.434,0,0,1-4.18.422c-1.054.025-2.109,0-3.164,0Z" transform="translate(-40.554 -4.917)" fill="#221f1f"/>
    <path id="Path_20336" data-name="Path 20336" d="M116.194,20.5c-.759.034-1.514.064-2.273.11l-.844.067-2.922.156c-.422.03-.865.08-1.291.135-.274.034-.548.08-.843.109a4.106,4.106,0,0,1-.843.022c-.254-.034-.114-.228,0-.423a.932.932,0,0,1,.679-.443,33.27,33.27,0,0,1,3.374-.2c.683,0,1.384-.1,2.08-.143l2.295-.135,1.413-.068c.713-.038,1.43-.055,2.138-.1.553-.025,1.092-.105,1.641-.139.122,0,.24-.029.362-.029.46,0,.6.055.688.266a1.22,1.22,0,0,1,.059.147c.034.165-.156.291-.476.333-.954.122-1.961.177-2.982.241l-2.287.122Z" transform="translate(-26.038 -3.866)" fill="#221f1f"/>
    <path id="Path_20337" data-name="Path 20337" d="M117.743,23.786c-.552,0-1.105.038-1.661.068-.2,0-.4.042-.6.051-.712.038-1.425.059-2.138.105-.316.021-.633.068-.945.113a4.99,4.99,0,0,1-1.2.135c-.258,0-.034-.819.422-.881a16.285,16.285,0,0,1,2.489-.152c.5,0,1.013-.076,1.523-.109l1.687-.089,1.037-.047c.523-.025,1.05-.034,1.569-.072.422-.026.8-.1,1.2-.135.089,0,.177-.025.266-.025.342,0,.447.051.506.266a.817.817,0,0,1,.038.143c0,.165-.118.291-.35.333a19.442,19.442,0,0,1-2.171.224l-1.667.105Z" transform="translate(-26.828 -4.516)" fill="#221f1f"/>
    <path id="Path_20338" data-name="Path 20338" d="M120.631,27.578l-.907.034c-.114,0-.22.034-.329.038-.392,0-.785,0-1.173.03a3,3,0,0,0-.514.072,1.529,1.529,0,0,1-.67.072c-.089-.021-.072-.224-.034-.422s.113-.422.232-.422a5.184,5.184,0,0,1,1.358-.042,5.112,5.112,0,0,0,.844-.06l.915-.051.565-.029a5.643,5.643,0,0,0,.843-.072c.22-.03.422-.105.65-.156a.775.775,0,0,1,.148-.034c.177-.03.287.034.3.245a.851.851,0,0,1,0,.143.423.423,0,0,1-.169.341,3.959,3.959,0,0,1-1.156.266c-.3.034-.6.051-.907.076Z" transform="translate(-27.977 -5.254)" fill="#221f1f"/>
    <path id="Path_20339" data-name="Path 20339" d="M47.86,17.077H44.548l-1.206.043c-1.421,0-2.844.038-4.26.084-.633.022-1.266.068-1.886.122a20.766,20.766,0,0,1-2.408.152c-.5,0,.072-.843,1-.894,1.64-.126,3.285-.19,4.947-.164,1,0,2.024-.068,3.037-.089,1.118-.026,2.231-.039,3.349-.039h2.063c1.037,0,2.084.034,3.116.047H55.22c.658.047.843.118.979.337a.893.893,0,0,1,.076.152c.042.164-.236.278-.708.283-1.4,0-2.881,0-4.374-.021H47.86Z" transform="translate(-11.902 -3.256)" fill="#221f1f"/>
    <path id="Path_20340" data-name="Path 20340" d="M50.338,21.448l-1.4-.046h-.51l-1.792-.064a7.133,7.133,0,0,0-.8.038,3.417,3.417,0,0,1-1.012.03c-.215-.043.022-.819.423-.843a11.538,11.538,0,0,1,2.109.051,11.849,11.849,0,0,0,1.265,0l1.408.025.869.021c.422,0,.877.026,1.316,0,.337,0,.67-.059,1.012-.085a2.15,2.15,0,0,1,.228,0c.278,0,.422.085.422.3a.851.851,0,0,1,0,.143.372.372,0,0,1-.308.308,10.906,10.906,0,0,1-1.818.13h-1.4Z" transform="translate(-13.882 -4.084)" fill="#221f1f"/>
    <path id="Path_20341" data-name="Path 20341" d="M-7.191,43.16l-2.029.54c-.249.063-.485.156-.734.215l-2.623.624c-.389.093-.772.207-1.148.329a6.6,6.6,0,0,1-1.476.388c-.32.026-.156-.919.4-1.079a26.718,26.718,0,0,1,3.029-.7,18.5,18.5,0,0,0,1.843-.489l2.028-.548c.422-.118.843-.233,1.24-.363.625-.19,1.265-.38,1.856-.612.468-.181.9-.422,1.346-.641l.283-.152c.362-.177.5-.173.687,0,.043.04.084.082.122.126.113.152.025.359-.232.531a11.07,11.07,0,0,1-2.56,1.194c-.666.241-1.35.443-2.025.65Z" transform="translate(-2.152 -7.988)" fill="#221f1f"/>
    <path id="Path_20342" data-name="Path 20342" d="M-7.507,48.463l-.988.224c-.118.03-.228.08-.35.105l-1.265.245a4.149,4.149,0,0,0-.544.173,1.582,1.582,0,0,1-.708.194c-.16,0-.215-.907.046-.991a5.608,5.608,0,0,1,1.464-.283,4.925,4.925,0,0,0,.885-.219l.979-.237.595-.155a8.815,8.815,0,0,0,.886-.287,3.974,3.974,0,0,0,.612-.363,1.417,1.417,0,0,1,.126-.089c.156-.089.236-.059.384.135l.089.143a.339.339,0,0,1,0,.422,3.206,3.206,0,0,1-1.206.688c-.32.118-.654.206-.979.3Z" transform="translate(-2.906 -9.197)" fill="#221f1f"/>
  </g>
</svg>
