<svg xmlns="http://www.w3.org/2000/svg" width="50.655" height="48.433" viewBox="0 0 50.655 48.433">
  <path id="Site_selection" data-name="Site selection" d="M70.846,137.091l-6.565-6.567a.592.592,0,0,0-.417-.174.467.467,0,0,0-.108.012.59.59,0,0,0-.432.341l-1.946,4.427L56.9,120.646l14.486,4.477-4.429,1.945a.588.588,0,0,0-.18.953l6.568,6.57ZM53.133,137a22.751,22.751,0,0,0,6.8-2.57L58.4,129.5A17.464,17.464,0,0,1,53.13,137Zm-20.885-6.413a29.062,29.062,0,0,1,6.026-2.208,27.237,27.237,0,0,0,1.327,3.08A15.71,15.71,0,0,0,43.952,137a22.824,22.824,0,0,1-11.705-6.408ZM43.953,92.284A15.7,15.7,0,0,0,39.6,97.819a26.932,26.932,0,0,0-1.326,3.08,28.992,28.992,0,0,1-6.026-2.208A22.807,22.807,0,0,1,43.953,92.284Zm20.91,6.408a29.061,29.061,0,0,1-6.026,2.208,27.227,27.227,0,0,0-1.326-3.08,15.7,15.7,0,0,0-4.352-5.536A22.807,22.807,0,0,1,64.863,98.691ZM36.049,115.228H25.741a22.726,22.726,0,0,0,5.678,14.466,29.7,29.7,0,0,1,6.477-2.428A41.57,41.57,0,0,1,36.049,115.228Zm0-1.177a41.518,41.518,0,0,1,1.845-12.036,29.688,29.688,0,0,1-6.476-2.428,22.726,22.726,0,0,0-5.678,14.464Zm25.013,0H71.371A22.731,22.731,0,0,0,65.7,99.587a29.683,29.683,0,0,1-6.479,2.428,41.518,41.518,0,0,1,1.845,12.036Zm-21.633-12.88a43.872,43.872,0,0,0,18.254,0,25.738,25.738,0,0,0-1.223-2.818c-2.145-4.213-4.953-6.535-7.9-6.535S42.8,94.139,40.65,98.352A26.382,26.382,0,0,0,39.429,101.171Zm9.127,2.137a44.1,44.1,0,0,0,9.514-1.018,40.162,40.162,0,0,1,1.814,11.762H37.228a40.217,40.217,0,0,1,1.814-11.762A44.1,44.1,0,0,0,48.556,103.307Zm9.127,24.8a44,44,0,0,0-18.254.007,26.031,26.031,0,0,0,1.221,2.817c2.146,4.215,4.955,6.537,7.906,6.537C52.147,137.463,55.53,133.978,57.683,128.1Zm-2.231-8.175a.587.587,0,0,1,.391-.735.6.6,0,0,1,.344,0l3.358,1.038a45.085,45.085,0,0,0,.343-5H37.228a40.211,40.211,0,0,0,1.814,11.763A45.108,45.108,0,0,1,57.6,126.88l-2.148-6.952Zm5.23.654,8.973,2.774a22.6,22.6,0,0,0,1.716-8.127H61.06a45.667,45.667,0,0,1-.379,5.357Zm7.54,7.216,5.084-2.231a.587.587,0,0,0-.063-1.1l-2.458-.761a24,24,0,1,0-10.5,11.877l.434,1.405a.59.59,0,0,0,1.1.063l2.231-5.086,6.378,6.376a.588.588,0,0,0,.831,0l0,0L74.6,135a.586.586,0,0,0,0-.829l0,0Z" transform="translate(-24.361 -90.422)" stroke="#f7f7f7" stroke-width="0.4" fill-rule="evenodd"/>
</svg>
