<svg xmlns="http://www.w3.org/2000/svg" width="182.926" height="161.45" viewBox="0 0 182.926 161.45">
  <g id="Retail_store" data-name="Retail store" transform="translate(-7.934 -223.541)">
    <g id="Group_11580" data-name="Group 11580">
      <g id="Group_11579" data-name="Group 11579">
        <g id="Group_11578" data-name="Group 11578">
          <g id="Group_11570" data-name="Group 11570">
            <path id="Path_20764" data-name="Path 20764" d="M82.446,233.3l52.621,9.139,52.576-9.151-53.172-9.25Z" fill="#fff" stroke="#000" stroke-width="0.5"/>
            <path id="Path_20765" data-name="Path 20765" d="M135.067,242.692a.3.3,0,0,1-.042,0L82.4,233.549a.249.249,0,0,1-.208-.246.252.252,0,0,1,.207-.247l52.024-9.26a.226.226,0,0,1,.086,0l53.173,9.25a.25.25,0,0,1,0,.493l-52.576,9.151A.3.3,0,0,1,135.067,242.692ZM83.892,233.3l51.175,8.888,51.116-8.9L134.471,224.3Z" stroke="#000" stroke-width="0.5"/>
          </g>
          <g id="Group_11571" data-name="Group 11571">
            <path id="Path_20766" data-name="Path 20766" d="M82.446,233.3l52.621,9.139,52.576-9.151-53.172-9.25Z" fill="#fff" stroke="#000" stroke-width="0.5"/>
            <path id="Path_20767" data-name="Path 20767" d="M135.067,242.692a.3.3,0,0,1-.042,0L82.4,233.549a.249.249,0,0,1-.208-.246.252.252,0,0,1,.207-.247l52.024-9.26a.226.226,0,0,1,.086,0l53.173,9.25a.25.25,0,0,1,0,.493l-52.576,9.151A.3.3,0,0,1,135.067,242.692ZM83.892,233.3l51.175,8.888,51.116-8.9L134.471,224.3Z" stroke="#000" stroke-width="0.5"/>
          </g>
          <path id="Path_20768" data-name="Path 20768" d="M155.493,238.925a.3.3,0,0,1-.043,0l-51.242-8.9a.25.25,0,0,1,0-.493l11.286-1.988a.248.248,0,0,1,.086,0l51.754,9a.251.251,0,0,1,0,.494l-11.8,1.884A.256.256,0,0,1,155.493,238.925ZM105.7,229.773l49.79,8.648,10.275-1.641-50.232-8.738Z" stroke="#000" stroke-width="0.5"/>
          <g id="Group_11575" data-name="Group 11575">
            <path id="Path_20769" data-name="Path 20769" d="M135.057,319.9V242.366l-52.827-9.1v77.318Z" fill="#fff" stroke="#000" stroke-width="0.5"/>
            <path id="Path_20770" data-name="Path 20770" d="M135.057,320.147a.209.209,0,0,1-.043,0l-52.828-9.308a.251.251,0,0,1-.207-.247V233.271a.253.253,0,0,1,.089-.192.249.249,0,0,1,.2-.055l52.828,9.1a.25.25,0,0,1,.207.247V319.9a.247.247,0,0,1-.089.192A.25.25,0,0,1,135.057,320.147ZM82.48,310.378l52.327,9.22V242.577L82.48,233.568Z" stroke="#000" stroke-width="0.5"/>
            <g id="Group_11574" data-name="Group 11574">
              <g id="Group_11572" data-name="Group 11572">
                <path id="Path_20771" data-name="Path 20771" d="M125.547,299.626a.213.213,0,0,1-.044,0l-34.146-6.076a.25.25,0,0,1-.206-.247V272.632a.25.25,0,0,1,.5,0V293.09l33.645,5.987V278.344a.251.251,0,0,1,.5,0v21.032a.251.251,0,0,1-.09.192A.248.248,0,0,1,125.547,299.626Z" stroke="#000" stroke-width="0.5"/>
              </g>
              <path id="Path_20772" data-name="Path 20772" d="M125.547,278.432a.25.25,0,0,1-.251-.25V262.521l-33.645-5.85v15.7a.25.25,0,0,1-.5,0v-16a.25.25,0,0,1,.089-.192.255.255,0,0,1,.2-.055l34.145,5.938a.251.251,0,0,1,.208.247v15.871A.25.25,0,0,1,125.547,278.432Z" stroke="#000" stroke-width="0.5"/>
              <g id="Group_11573" data-name="Group 11573">
                <path id="Path_20773" data-name="Path 20773" d="M94.954,290.132a.25.25,0,0,1-.25-.25V261.428a.25.25,0,0,1,.5,0v28.454A.25.25,0,0,1,94.954,290.132Z" stroke="#000" stroke-width="0.5"/>
                <path id="Path_20774" data-name="Path 20774" d="M99.138,262.471a.876.876,0,1,0-1.752,0v27.52a.876.876,0,0,0,1.753,0Z" stroke="#000" stroke-width="0.5"/>
                <path id="Path_20775" data-name="Path 20775" d="M101.757,291.23a.25.25,0,0,1-.25-.251V262.525a.251.251,0,0,1,.5,0v28.454A.251.251,0,0,1,101.757,291.23Z" stroke="#000" stroke-width="0.5"/>
                <path id="Path_20776" data-name="Path 20776" d="M104.025,291.6a.25.25,0,0,1-.25-.25V262.891a.25.25,0,0,1,.5,0v28.454A.25.25,0,0,1,104.025,291.6Z" stroke="#000" stroke-width="0.5"/>
                <path id="Path_20777" data-name="Path 20777" d="M109.437,264.245a.876.876,0,1,0-1.752,0v27.521a.876.876,0,1,0,1.752,0Z" stroke="#000" stroke-width="0.5"/>
                <path id="Path_20778" data-name="Path 20778" d="M113.1,293.058a.249.249,0,0,1-.25-.25V264.354a.251.251,0,0,1,.5,0v28.454A.25.25,0,0,1,113.1,293.058Z" stroke="#000" stroke-width="0.5"/>
                <path id="Path_20779" data-name="Path 20779" d="M118.508,265.23a.876.876,0,1,0-1.752,0v27.521a.876.876,0,1,0,1.752,0Z" stroke="#000" stroke-width="0.5"/>
                <path id="Path_20780" data-name="Path 20780" d="M122.168,294.522a.251.251,0,0,1-.251-.251V265.817a.251.251,0,0,1,.5,0v28.454A.25.25,0,0,1,122.168,294.522Z" stroke="#000" stroke-width="0.5"/>
              </g>
            </g>
          </g>
          <g id="Group_11577" data-name="Group 11577">
            <g id="Group_11576" data-name="Group 11576">
              <path id="Path_20781" data-name="Path 20781" d="M135.057,319.9V242.366l52.369-9.107v77.374Z" fill="#fff" stroke="#000" stroke-width="0.5"/>
              <path id="Path_20782" data-name="Path 20782" d="M135.057,320.147a.254.254,0,0,1-.161-.059.25.25,0,0,1-.089-.192v-77.53a.25.25,0,0,1,.207-.247l52.369-9.107a.254.254,0,0,1,.2.055.251.251,0,0,1,.09.192v77.375a.25.25,0,0,1-.207.246L135.1,320.143A.219.219,0,0,1,135.057,320.147Zm.25-77.571V319.6l51.869-9.174V233.557Z" stroke="#000" stroke-width="0.5"/>
            </g>
            <path id="Path_20783" data-name="Path 20783" d="M156.468,247.194a.249.249,0,0,1-.25-.25v-7.931a.25.25,0,0,1,.207-.246l10.9-1.878a.251.251,0,0,1,.292.247V245.1a.249.249,0,0,1-.208.247l-10.9,1.844A.2.2,0,0,1,156.468,247.194Zm.25-7.97v7.423l10.4-1.759v-7.455Z" stroke="#000" stroke-width="0.5"/>
          </g>
        </g>
      </g>
    </g>
    <g id="Group_11595" data-name="Group 11595">
      <path id="Path_20784" data-name="Path 20784" d="M13.409,306.259c9.039-8.587,13.817-8.974,17.691-17.5,2.177-4.79-.194-25.051,19.369-25.825,2.524-.1,12.224.43,13.494,10.588a35.6,35.6,0,0,1,0,9.234A20.523,20.523,0,0,0,64.1,288.7a12.719,12.719,0,0,0,4.525,8.231.234.234,0,0,1-.223.407,12.058,12.058,0,0,1-4.959-3.335.2.2,0,0,0-.357.155c.011.093.023.188.036.283.563,4.294,7.489,8.587,5.552,16.916s-46.357,26.148-53.717,22.468S5.083,314.17,13.409,306.259Z" stroke="#000" stroke-width="0.5"/>
      <g id="Group_11582" data-name="Group 11582">
        <g id="Group_11581" data-name="Group 11581">
          <path id="Path_20785" data-name="Path 20785" d="M65.117,384.491c-2.069-26.321,5.109-37.815,8.585-47.912a44.492,44.492,0,0,0,25.31,9.3c12.172.463,20.67-29.437,21.615-32.906a.436.436,0,0,0-.206-.495l-7.26-4.145a.438.438,0,0,0-.59.15c-1.573,2.552-11.243,17.766-18.426,17.955C86.3,326.65,76.23,311.1,71.4,307.308l-.018.058a6.282,6.282,0,0,0-.553-.617c-8.512-8.232-30.35-7.875-30.35-7.875a41.31,41.31,0,0,0-20.671,8.7v.035c-.887.571-8.354,5.864-7.048,21.446,1.526,18.206,3.849,30.689,12.462,31.427a16.836,16.836,0,0,0,3.671-.038Z" fill="#fff" stroke="#000" stroke-width="0.5"/>
          <path id="Path_20786" data-name="Path 20786" d="M65.117,384.741a.251.251,0,0,1-.25-.23c-1.717-21.852,2.865-33.369,6.546-42.622.749-1.883,1.456-3.66,2.052-5.392a.249.249,0,0,1,.388-.117,44.563,44.563,0,0,0,25.168,9.254c11.973.448,20.44-29.324,21.364-32.722a.186.186,0,0,0-.088-.211l-7.26-4.146a.186.186,0,0,0-.253.064C110.945,311.6,101.4,326.5,94.151,326.694l-.163,0c-5.546,0-11.972-7.368-17.146-13.3a56.171,56.171,0,0,0-5.454-5.78h0a.25.25,0,0,1-.2-.1,6.121,6.121,0,0,0-.531-.592c-8.26-7.988-29.537-7.812-30.16-7.8A41.522,41.522,0,0,0,20.042,307.7a.248.248,0,0,1-.095.113c-.846.544-8.229,5.768-6.934,21.214,1.612,19.233,4.131,30.5,12.234,31.2a16.373,16.373,0,0,0,3.617-.036.25.25,0,1,1,.067.5,16.805,16.805,0,0,1-3.726.039c-8.456-.724-11.056-12.155-12.691-31.655-1.284-15.32,5.893-20.823,7.079-21.622a.253.253,0,0,1,.054-.068,41.951,41.951,0,0,1,20.806-8.755l.026,0c.217-.005,22.039-.264,30.528,7.945a6.425,6.425,0,0,1,.458.5.266.266,0,0,1,.094.046,52.989,52.989,0,0,1,5.66,5.956C82.326,318.922,88.67,326.2,93.986,326.2c.051,0,.1,0,.152,0,7.143-.188,17.107-16.031,18.219-17.837a.687.687,0,0,1,.928-.236l7.26,4.146a.689.689,0,0,1,.324.778c-.929,3.41-9.368,33.1-21.58,33.1-.1,0-.191,0-.287-.005a45,45,0,0,1-25.177-9.148c-.575,1.639-1.243,3.317-1.947,5.088-3.662,9.2-8.22,20.662-6.512,42.4a.251.251,0,0,1-.23.269Z" stroke="#000" stroke-width="0.5"/>
        </g>
        <path id="Path_20787" data-name="Path 20787" d="M29.534,360.847a.25.25,0,0,1-.025-.5c10.289-1.065,14.746-14.311,17.03-50.618a.25.25,0,0,1,.5.031c-1.205,19.15-3.061,31.7-5.839,39.5-2.658,7.456-6.247,11.03-11.64,11.588Z" stroke="#000" stroke-width="0.5"/>
        <path id="Path_20788" data-name="Path 20788" d="M73.248,338.693a.249.249,0,0,1-.234-.339,35.6,35.6,0,0,0,2.331-8.605c.668-5.976-2-13.39-4.977-17.625a.251.251,0,1,1,.41-.288c3.033,4.312,5.747,11.869,5.065,17.968a36.032,36.032,0,0,1-2.361,8.728A.25.25,0,0,1,73.248,338.693Z" stroke="#000" stroke-width="0.5"/>
        <path id="Path_20789" data-name="Path 20789" d="M25.225,342.73a.254.254,0,0,1-.081-.013.25.25,0,0,1-.156-.318L36.609,308.18a.25.25,0,0,1,.474.161L25.462,342.56A.252.252,0,0,1,25.225,342.73Z" stroke="#000" stroke-width="0.5"/>
        <path id="Path_20790" data-name="Path 20790" d="M28.193,325.171a.251.251,0,0,1-.251-.246c-.129-7.1-1.468-12.091-3.979-14.835a.25.25,0,1,1,.369-.338c2.6,2.837,3.98,7.939,4.111,15.164a.25.25,0,0,1-.246.255Z" stroke="#000" stroke-width="0.5"/>
      </g>
      <g id="Group_11585" data-name="Group 11585">
        <g id="Group_11583" data-name="Group 11583">
          <path id="Path_20791" data-name="Path 20791" d="M114.609,308.692c1-2.179,1.9-6.383,2.917-7.827a13.654,13.654,0,0,1,4.121-3.893,19.668,19.668,0,0,1,4.5-2.2c1.531-.409.861,2.545-.511,3.075s-2.429,1.5-2.053,1.757a2.527,2.527,0,0,0,2.389.63,3.441,3.441,0,0,0,2.57-3.469,4.411,4.411,0,0,0-.094-.839,3.607,3.607,0,0,1,2.013-4.115,4.761,4.761,0,0,1,2.705-.309c1.674.277,2.074,9.8-4.306,12.872-1.321.635-6.758,1.754-7.877,3.3a18.231,18.231,0,0,0-1.924,3.722Z" fill="#fff" stroke="#000" stroke-width="0.5"/>
          <path id="Path_20792" data-name="Path 20792" d="M119.063,311.644a.253.253,0,0,1-.13-.036l-4.453-2.7a.251.251,0,0,1-.1-.319,32.937,32.937,0,0,0,1.238-3.514,18.879,18.879,0,0,1,1.7-4.353,14.022,14.022,0,0,1,4.193-3.96,19.732,19.732,0,0,1,4.573-2.23.841.841,0,0,1,1.124.542,2.848,2.848,0,0,1-1.481,3.008,4.106,4.106,0,0,0-1.962,1.346l.093.073a2.171,2.171,0,0,0,2.057.491,3.2,3.2,0,0,0,2.378-3.219,4.282,4.282,0,0,0-.088-.792,3.866,3.866,0,0,1,2.158-4.4,5.009,5.009,0,0,1,2.845-.325c.774.127,1.068,1.394,1.174,2.137.446,3.112-.629,8.906-5.412,11.207a19.591,19.591,0,0,1-2.165.731c-2.064.626-4.892,1.484-5.619,2.487a18.064,18.064,0,0,0-1.891,3.662.251.251,0,0,1-.235.164Zm-4.135-3.052,4.01,2.433a17.519,17.519,0,0,1,1.846-3.5c.826-1.139,3.628-1.989,5.879-2.672a19.4,19.4,0,0,0,2.093-.7c4.542-2.185,5.559-7.713,5.134-10.684-.16-1.118-.507-1.673-.76-1.715a4.531,4.531,0,0,0-2.566.292,3.366,3.366,0,0,0-1.867,3.833,4.75,4.75,0,0,1,.1.885,3.705,3.705,0,0,1-2.762,3.718,2.685,2.685,0,0,1-2.487-.587c-.041-.033-.075-.061-.1-.08a.423.423,0,0,1-.182-.411c.07-.585,1.242-1.382,2.287-1.786a2.388,2.388,0,0,0,1.185-2.386c-.052-.16-.154-.311-.519-.213a19.293,19.293,0,0,0-4.436,2.17,13.359,13.359,0,0,0-4.05,3.825,19.154,19.154,0,0,0-1.633,4.214C115.721,306.423,115.332,307.661,114.928,308.592Z" stroke="#000" stroke-width="0.5"/>
        </g>
        <g id="Group_11584" data-name="Group 11584">
          <path id="Path_20793" data-name="Path 20793" d="M120.949,308.611l-5.473-3.072a.49.49,0,0,0-.675.2l-1.842,3.58a.489.489,0,0,0,.2.653l5.5,3.043a.49.49,0,0,0,.674-.206l1.815-3.552A.489.489,0,0,0,120.949,308.611Z" fill="#fff" stroke="#000" stroke-width="0.5"/>
          <path id="Path_20794" data-name="Path 20794" d="M118.893,313.331a.735.735,0,0,1-.357-.093l-5.5-3.043a.737.737,0,0,1-.3-.987l1.842-3.58a.741.741,0,0,1,1.021-.307l5.473,3.072a.738.738,0,0,1,.3.982l-1.815,3.552a.732.732,0,0,1-.443.371A.744.744,0,0,1,118.893,313.331Zm-3.656-7.6a.242.242,0,0,0-.07.01.239.239,0,0,0-.144.12l-1.842,3.58a.238.238,0,0,0,.1.32l5.5,3.043a.238.238,0,0,0,.329-.1l1.815-3.552a.239.239,0,0,0-.1-.318l-5.473-3.071A.236.236,0,0,0,115.237,305.727Z" stroke="#000" stroke-width="0.5"/>
        </g>
      </g>
      <g id="Group_11588" data-name="Group 11588">
        <g id="Group_11586" data-name="Group 11586">
          <path id="Path_20795" data-name="Path 20795" d="M52.277,288.762s-.205,5.68.032,9.468A4.187,4.187,0,0,0,55.388,302l2.268.622a1.283,1.283,0,0,1,.172,2.415,28.636,28.636,0,0,1-23.553-.368,1.284,1.284,0,0,1,.2-2.414l4.466-1.158a4.2,4.2,0,0,0,3.111-3.527l1.7-13.2Z" fill="#fff" stroke="#000" stroke-width="0.5"/>
          <path id="Path_20796" data-name="Path 20796" d="M46.492,307.636a29.574,29.574,0,0,1-12.321-2.74,1.534,1.534,0,0,1,.241-2.884l4.466-1.158a3.929,3.929,0,0,0,2.925-3.317l1.7-13.2a.25.25,0,0,1,.363-.191l8.523,4.391a.248.248,0,0,1,.135.231c0,.057-.2,5.711.031,9.443a3.939,3.939,0,0,0,2.9,3.544l2.268.621a1.534,1.534,0,0,1,.206,2.886A28.942,28.942,0,0,1,46.492,307.636Zm-2.535-22.878L42.3,297.6a4.429,4.429,0,0,1-3.3,3.737L34.538,302.5a1.007,1.007,0,0,0-.768.907,1.018,1.018,0,0,0,.608,1.037,28.411,28.411,0,0,0,23.35.366,1.033,1.033,0,0,0-.138-1.944l-2.268-.621a4.438,4.438,0,0,1-3.263-4c-.213-3.4-.068-8.384-.037-9.333Z" stroke="#000" stroke-width="0.5"/>
        </g>
        <g id="Group_11587" data-name="Group 11587">
          <path id="Path_20797" data-name="Path 20797" d="M58.251,270.3a10.254,10.254,0,0,1,2.727,7.088c0,1.488-.78,2.927-1.018,4.955-.613,5.23-2.83,9.408-8.883,9a8.9,8.9,0,0,1-8.156-8.189,17.806,17.806,0,0,1,1.35-8.071c1.192-2.782,4.569-8.4,9.8-7.22A8.2,8.2,0,0,1,58.251,270.3Z" fill="#fff" stroke="#000" stroke-width="0.5"/>
          <path id="Path_20798" data-name="Path 20798" d="M51.873,291.612q-.4,0-.813-.028a9.209,9.209,0,0,1-8.388-8.409,17.89,17.89,0,0,1,1.369-8.2c.629-1.468,4.073-8.723,10.083-7.365a8.42,8.42,0,0,1,4.309,2.512,10.458,10.458,0,0,1,2.8,7.26,9.365,9.365,0,0,1-.468,2.476,15.573,15.573,0,0,0-.552,2.508C59.489,288.506,56.685,291.612,51.873,291.612Zm.785-23.668c-4.8,0-7.6,5.942-8.157,7.229a17.687,17.687,0,0,0-1.331,7.946,8.577,8.577,0,0,0,7.92,7.966c5.068.343,7.888-2.526,8.621-8.776a16.34,16.34,0,0,1,.568-2.586,8.85,8.85,0,0,0,.449-2.341,9.963,9.963,0,0,0-2.658-6.916,7.937,7.937,0,0,0-4.056-2.367A6.13,6.13,0,0,0,52.658,267.944Z" stroke="#000" stroke-width="0.5"/>
        </g>
      </g>
      <path id="Path_20799" data-name="Path 20799" d="M47.953,268.743s.775,2.719,5.031,6.215c2.762,2.269,7.572,2.786,8.386,4.637,0,0,2.959-11.247-6.61-12.53S47.953,268.743,47.953,268.743Z" stroke="#000" stroke-width="0.5"/>
      <g id="Group_11591" data-name="Group 11591">
        <path id="Path_20800" data-name="Path 20800" d="M46.834,288.66a6.1,6.1,0,0,1-5.5-3.47l-1.2-2.494a.25.25,0,1,1,.451-.217l1.2,2.494a5.6,5.6,0,0,0,6.631,2.961l5.882-1.707a.25.25,0,1,1,.14.481l-5.883,1.707A6.15,6.15,0,0,1,46.834,288.66Z" stroke="#000" stroke-width="0.5"/>
        <path id="Path_20801" data-name="Path 20801" d="M40.554,276.293h-.006a.25.25,0,0,1-.245-.255c.007-.312.21-7.687,4.3-11.5a8.2,8.2,0,0,1,6.224-2.165.25.25,0,1,1-.025.5,7.7,7.7,0,0,0-5.857,2.031c-3.934,3.663-4.139,11.067-4.14,11.141A.25.25,0,0,1,40.554,276.293Z" fill="#fff" stroke="#000" stroke-width="0.5"/>
        <ellipse id="Ellipse_17" data-name="Ellipse 17" cx="1.603" cy="1.632" rx="1.603" ry="1.632" transform="translate(53.155 287.622) rotate(-82.783)" stroke="#000" stroke-width="0.5"/>
        <g id="Group_11589" data-name="Group 11589">
          <path id="Path_20802" data-name="Path 20802" d="M44.808,280.079a4.322,4.322,0,0,0-3.526-4.978c-.248-.031-1.165-.054-1.407-.038-1.96.131-2.97,1.788-3.247,3.981-.3,2.366.6,4.576,2.717,5,.088.018.714.068.805.068A4.465,4.465,0,0,0,44.808,280.079Z" fill="#fff" stroke="#000" stroke-width="0.5"/>
          <path id="Path_20803" data-name="Path 20803" d="M40.169,284.358h-.02c-.1,0-.745-.051-.853-.072-2.091-.416-3.263-2.535-2.916-5.273.326-2.58,1.561-4.071,3.478-4.2a14.1,14.1,0,0,1,1.456.04,4.18,4.18,0,0,1,2.9,1.776,4.93,4.93,0,0,1,.843,3.482A4.731,4.731,0,0,1,40.169,284.358Zm-.047-9.05c-.1,0-.18,0-.23,0-2.229.15-2.846,2.423-3.016,3.764-.259,2.048.419,4.3,2.518,4.719.081.014.678.063.756.063h.019a4.2,4.2,0,0,0,4.39-3.81,4.434,4.434,0,0,0-.754-3.13,3.683,3.683,0,0,0-2.554-1.568C41.076,275.327,40.483,275.308,40.122,275.308Z" stroke="#000" stroke-width="0.5"/>
        </g>
        <g id="Group_11590" data-name="Group 11590">
          <ellipse id="Ellipse_18" data-name="Ellipse 18" cx="4.496" cy="4.123" rx="4.496" ry="4.123" transform="translate(35.155 283.595) rotate(-83.912)" fill="#fff" stroke="#000" stroke-width="0.5"/>
          <path id="Path_20804" data-name="Path 20804" d="M39.659,284.3a3.918,3.918,0,0,1-.431-.023,4.575,4.575,0,0,1-3.845-5.183A4.928,4.928,0,0,1,37,275.9a4.135,4.135,0,0,1,6.165.657,4.933,4.933,0,0,1,.911,3.465A4.624,4.624,0,0,1,39.659,284.3Zm.141-8.984a3.716,3.716,0,0,0-2.465.959,4.431,4.431,0,0,0-1.454,2.872,4.078,4.078,0,0,0,3.4,4.633,4.079,4.079,0,0,0,4.3-3.812,4.435,4.435,0,0,0-.816-3.114,3.682,3.682,0,0,0-2.584-1.518A3.5,3.5,0,0,0,39.8,275.32Z" stroke="#000" stroke-width="0.5"/>
        </g>
      </g>
      <g id="Group_11594" data-name="Group 11594">
        <g id="Group_11592" data-name="Group 11592">
          <path id="Path_20805" data-name="Path 20805" d="M51.065,283.945c-.537-.706-4.348.739-5.906,1.313s-5.578,5.988-5.906,9.6.738,9.679-.082,11.812a7.2,7.2,0,0,0,5.659,1.312s.411-3.445,1.149-4.675,5.25-4.512,4.921-6.726c-.248-1.681-3.425-2.936-4.943-3.444a.255.255,0,0,1,.023-.491,6.757,6.757,0,0,1,3.362.079c2.215.657,4.183-.41,3.281-1.64-.81-1.1-4.064-2.275-6.383-2.029a.082.082,0,0,1-.042-.157C48,288.1,52.519,285.863,51.065,283.945Z" fill="#fff" stroke="#000" stroke-width="0.5"/>
          <path id="Path_20806" data-name="Path 20806" d="M43.565,308.316A6.977,6.977,0,0,1,39,306.852a.253.253,0,0,1-.064-.275c.448-1.165.306-3.607.155-6.193A41.078,41.078,0,0,1,39,294.832c.34-3.737,4.472-9.221,6.069-9.809l.194-.072c3.316-1.224,5.476-1.845,6-1.157a1.5,1.5,0,0,1,.283,1.337c-.37,1.43-2.7,2.792-4.474,3.639,2.325.047,5,1.136,5.752,2.164a1.129,1.129,0,0,1,.068,1.379c-.572.813-2.129,1.092-3.622.649a6.493,6.493,0,0,0-3.237-.075c1.8.611,4.852,1.884,5.114,3.654.245,1.656-1.821,3.679-3.482,5.305a11.632,11.632,0,0,0-1.473,1.587,17.4,17.4,0,0,0-1.114,4.576.251.251,0,0,1-.215.219A9.876,9.876,0,0,1,43.565,308.316Zm-4.1-1.733a7.2,7.2,0,0,0,5.142,1.172,16.154,16.154,0,0,1,1.157-4.58,11.342,11.342,0,0,1,1.552-1.687c1.5-1.465,3.545-3.47,3.337-4.874-.232-1.562-3.417-2.788-4.776-3.243a.505.505,0,0,1,.048-.972,7,7,0,0,1,3.488.083c1.405.416,2.688.087,3.07-.457a.632.632,0,0,0-.062-.795c-.75-1.023-3.932-2.161-6.154-1.928a.332.332,0,0,1-.169-.635c2.839-1.251,4.695-2.62,4.964-3.661a1.006,1.006,0,0,0-.2-.909c-.184-.243-1.274-.209-5.425,1.324l-.195.072c-1.468.541-5.424,5.878-5.743,9.385a40.526,40.526,0,0,0,.09,5.477C39.739,302.88,39.878,305.272,39.465,306.583ZM46.3,289.125h0Z" stroke="#000" stroke-width="0.5"/>
        </g>
        <g id="Group_11593" data-name="Group 11593">
          <path id="Path_20807" data-name="Path 20807" d="M45.552,305.525a10.91,10.91,0,0,1-6.383-1.268.309.309,0,0,0-.442.216l-.693,3.481a.307.307,0,0,0,.153.331,9.6,9.6,0,0,0,7.142.948.311.311,0,0,0,.21-.259l.362-3.106A.309.309,0,0,0,45.552,305.525Z" fill="#fff" stroke="#000" stroke-width="0.5"/>
          <path id="Path_20808" data-name="Path 20808" d="M43.039,309.836a10.87,10.87,0,0,1-4.972-1.331.557.557,0,0,1-.279-.6l.693-3.481a.557.557,0,0,1,.307-.4.547.547,0,0,1,.5.006,10.683,10.683,0,0,0,6.235,1.243.549.549,0,0,1,.467.153.558.558,0,0,1,.165.466L45.787,309a.559.559,0,0,1-.381.468A7.643,7.643,0,0,1,43.039,309.836Zm-4.009-5.362a.061.061,0,0,0-.025.006.062.062,0,0,0-.033.042L38.279,308a.057.057,0,0,0,.029.063,9.31,9.31,0,0,0,6.944.929.06.06,0,0,0,.038-.05l.363-3.106a.059.059,0,0,0-.066-.066,11.171,11.171,0,0,1-6.532-1.293A.061.061,0,0,0,39.03,304.474Zm6.522,1.052h0Z" stroke="#000" stroke-width="0.5"/>
        </g>
      </g>
    </g>
    <g id="Group_11614" data-name="Group 11614">
      <g id="Group_11613" data-name="Group 11613">
        <path id="Path_20809" data-name="Path 20809" d="M190.226,293.343l-32.518,5.685-32.257-5.652a.041.041,0,0,1,0-.081l32.626-5.713Z" fill="#fff" stroke="#000" stroke-width="0.5"/>
        <path id="Path_20810" data-name="Path 20810" d="M145.682,289.837l31.62,5.707-7.1,1.241-31.637-5.72Z" stroke="#000" stroke-width="0.5"/>
        <g id="Group_11599" data-name="Group 11599">
          <path id="Path_20811" data-name="Path 20811" d="M157.714,347.207V298.98l32.645-5.658v48.094Z" fill="#fff" stroke="#000" stroke-width="0.5"/>
          <path id="Path_20812" data-name="Path 20812" d="M170.482,302.088v-5.36l7.109-1.232v5.331Z" stroke="#000" stroke-width="0.5"/>
          <path id="Path_20813" data-name="Path 20813" d="M157.714,347.457a.253.253,0,0,1-.161-.058.25.25,0,0,1-.089-.192V298.98a.25.25,0,0,1,.207-.246l32.646-5.658a.248.248,0,0,1,.2.055.253.253,0,0,1,.089.192v48.094a.251.251,0,0,1-.207.247l-32.645,5.79A.328.328,0,0,1,157.714,347.457Zm.25-48.266v47.717l32.145-5.7V293.62Z" stroke="#000" stroke-width="0.5"/>
          <g id="Group_11598" data-name="Group 11598">
            <path id="Path_20814" data-name="Path 20814" d="M163.591,329.2a.252.252,0,0,1-.25-.251V305.9a.25.25,0,0,1,.207-.247l21.1-3.693a.249.249,0,0,1,.2.055.251.251,0,0,1,.089.191v22.97a.25.25,0,0,1-.206.246l-21.1,3.78A.212.212,0,0,1,163.591,329.2Zm.251-23.1v22.546l20.6-3.69V302.5Z" stroke="#000" stroke-width="0.5"/>
            <g id="Group_11597" data-name="Group 11597">
              <g id="Group_11596" data-name="Group 11596">
                <path id="Path_20815" data-name="Path 20815" d="M172.3,324.785h-.025a2.7,2.7,0,0,1-1.912-.867,3,3,0,0,1-.811-2.074v-.49a.706.706,0,0,1,.692-.715.67.67,0,0,1,.494.216.719.719,0,0,1,.2.5v.511a1.531,1.531,0,0,0,.411,1.056,1.334,1.334,0,0,0,.975.429h.008a1.334,1.334,0,0,0,.96-.429,1.529,1.529,0,0,0,.411-1.055l.005-14.358a.727.727,0,0,1,.235-.539.677.677,0,0,1,.525-.174.723.723,0,0,1,.622.731v14.318a3,3,0,0,1-.811,2.073,2.7,2.7,0,0,1-1.921.866H172.3Z" stroke="#000" stroke-width="0.5"/>
              </g>
              <path id="Path_20816" data-name="Path 20816" d="M180.866,314.3a.751.751,0,0,0,.6-.931c-.981-3.756-4.286-4.92-7.809-4.31a8.682,8.682,0,0,0-6.81,6.562.752.752,0,0,0,.847.938Z" stroke="#000" stroke-width="0.5"/>
            </g>
          </g>
        </g>
        <g id="Group_11612" data-name="Group 11612">
          <path id="Path_20817" data-name="Path 20817" d="M157.714,347.207V298.98l-32.362-5.665v48.13Z" fill="#fff" stroke="#000" stroke-width="0.5"/>
          <path id="Path_20818" data-name="Path 20818" d="M157.714,347.457a.328.328,0,0,1-.044,0l-32.362-5.762a.252.252,0,0,1-.206-.247V293.316a.25.25,0,0,1,.293-.247l32.362,5.665a.25.25,0,0,1,.207.246v48.227a.25.25,0,0,1-.089.192A.252.252,0,0,1,157.714,347.457ZM125.6,341.235l31.862,5.673V299.191L125.6,293.614Z" stroke="#000" stroke-width="0.5"/>
          <g id="Group_11611" data-name="Group 11611">
            <g id="Group_11610" data-name="Group 11610">
              <g id="Group_11602" data-name="Group 11602">
                <g id="Group_11601" data-name="Group 11601">
                  <g id="Group_11600" data-name="Group 11600">
                    <path id="Path_20819" data-name="Path 20819" d="M149.1,325.876a.294.294,0,0,1-.042,0l-15.969-2.721a.249.249,0,0,1-.208-.246v-3.547a.25.25,0,0,1,.293-.247l15.969,2.8a.25.25,0,0,1,.207.246v3.469a.251.251,0,0,1-.25.25Zm-15.718-3.182,15.468,2.635v-2.962l-15.468-2.71Z" stroke="#000" stroke-width="0.5"/>
                  </g>
                </g>
              </g>
              <g id="Group_11609" data-name="Group 11609">
                <g id="Group_11605" data-name="Group 11605">
                  <g id="Group_11604" data-name="Group 11604">
                    <g id="Group_11603" data-name="Group 11603">
                      <path id="Path_20820" data-name="Path 20820" d="M146.629,319.928a.294.294,0,0,1-.042,0l-3.189-.544a.249.249,0,0,1-.209-.246v-8.194l-1.476-.259a.249.249,0,0,1-.141-.415l3.277-3.581a.256.256,0,0,1,.2-.081.25.25,0,0,1,.189.107l3.3,4.738a.251.251,0,0,1,.006.278.248.248,0,0,1-.255.111l-1.408-.251v8.09a.25.25,0,0,1-.089.191A.246.246,0,0,1,146.629,319.928Zm-2.939-1.005,2.688.459v-8.093a.251.251,0,0,1,.09-.192.257.257,0,0,1,.205-.054l1.108.2-2.774-3.985-2.758,3.013,1.234.216a.25.25,0,0,1,.207.247Z" stroke="#000" stroke-width="0.5"/>
                    </g>
                  </g>
                </g>
                <g id="Group_11608" data-name="Group 11608">
                  <g id="Group_11607" data-name="Group 11607">
                    <g id="Group_11606" data-name="Group 11606">
                      <path id="Path_20821" data-name="Path 20821" d="M138.775,318.605a.294.294,0,0,1-.042,0l-3.189-.544a.249.249,0,0,1-.208-.246v-8.194l-1.477-.259a.25.25,0,0,1-.141-.415L137,305.363a.256.256,0,0,1,.2-.081.251.251,0,0,1,.189.107l3.3,4.738a.251.251,0,0,1,.006.278.248.248,0,0,1-.255.111l-1.408-.251v8.09a.251.251,0,0,1-.25.25Zm-2.939-1,2.689.457v-8.092a.247.247,0,0,1,.089-.191.253.253,0,0,1,.205-.055l1.108.2-2.773-3.985-2.759,3.013,1.234.216a.25.25,0,0,1,.207.247Z" stroke="#000" stroke-width="0.5"/>
                    </g>
                  </g>
                </g>
              </g>
            </g>
            <path id="Path_20822" data-name="Path 20822" d="M151.667,329.2a.219.219,0,0,1-.044,0l-21.1-3.78a.25.25,0,0,1-.206-.246V302.2a.251.251,0,0,1,.089-.191.249.249,0,0,1,.2-.055l21.1,3.693a.25.25,0,0,1,.207.247v23.055a.251.251,0,0,1-.25.251Zm-20.85-4.24,20.6,3.69V306.108l-20.6-3.606Z" stroke="#000" stroke-width="0.5"/>
          </g>
        </g>
        <path id="Path_20823" data-name="Path 20823" d="M157.708,299.278a.2.2,0,0,1-.043,0l-32.257-5.651a.292.292,0,0,1,0-.575l32.626-5.712a.254.254,0,0,1,.087,0L190.27,293.1a.25.25,0,0,1,0,.493l-32.518,5.684A.207.207,0,0,1,157.708,299.278Zm-31.039-5.942,31.039,5.438,31.081-5.434-30.713-5.5Z" stroke="#000" stroke-width="0.5"/>
      </g>
    </g>
  </g>
</svg>
