<svg xmlns="http://www.w3.org/2000/svg" width="48.3" height="48.3" viewBox="0 0 48.3 48.3">
  <path id="Retail_branding" data-name="Retail branding" d="M-209.117,261.787h-3.75v-.75a.75.75,0,0,0-.75-.75h-5.25a.75.75,0,0,0-.75.75v.75h-22.5v-.75a.75.75,0,0,0-.75-.75h-5.25a.75.75,0,0,0-.75.75v.75h-3.75a2.253,2.253,0,0,0-2.25,2.25v18.75a2.253,2.253,0,0,0,2.25,2.25h15.75v.75a2.253,2.253,0,0,0,2.25,2.25h1.125v15.75H-241.4a2.236,2.236,0,0,0-2.217,2.25v1.5a.75.75,0,0,0,.75.75h24a.75.75,0,0,0,.75-.75v-1.5a2.236,2.236,0,0,0-2.217-2.25h-7.908v-15.75h1.125a2.253,2.253,0,0,0,2.25-2.25v-.75h15.75a2.253,2.253,0,0,0,2.25-2.25v-18.75A2.253,2.253,0,0,0-209.117,261.787Zm-9,0h3.75v1.5h-3.75Zm-29.25,0h3.75v1.5h-3.75Zm27.75,44.25v.75h-22.5v-.75a.735.735,0,0,1,.717-.75h21.067A.735.735,0,0,1-219.617,306.037Zm-10.125-2.25h-2.25v-15.75h2.25Zm3.375-18a.752.752,0,0,1-.75.75h-7.5a.752.752,0,0,1-.75-.75v-.75h9Zm18-3a.752.752,0,0,1-.75.75h-43.5a.752.752,0,0,1-.75-.75v-18.75a.751.751,0,0,1,.75-.75h3.75v.75a.75.75,0,0,0,.75.75h5.25a.75.75,0,0,0,.75-.75v-.75h22.5v.75a.75.75,0,0,0,.75.75h5.25a.75.75,0,0,0,.75-.75v-.75h3.75a.751.751,0,0,1,.75.75Z" transform="translate(255.017 -260.137)" stroke="#f7f7f7" stroke-width="0.3"/>
</svg>
