<svg xmlns="http://www.w3.org/2000/svg" width="173.103" height="164.449" viewBox="0 0 173.103 164.449">
  <g id="Group_11655" data-name="Group 11655" transform="translate(-53.772 3.319)">
    <g id="Group_11642" data-name="Group 11642">
      <path id="Path_20904" data-name="Path 20904" d="M124.46,60.772c2.887.8,23.611-2.533,27.586-1.4,6.8,1.933,5.687,36.751,5.547,42.157-.137,5.264-6.635,2.343-7.4.958-.365-.664-7.692-18.709-4.808-28.028,1.369-4.422-18.416,6.452-22.112,5.4C111.192,76.4,119.472,59.391,124.46,60.772Z"/>
      <g id="Group_11628" data-name="Group 11628">
        <g id="Group_11619" data-name="Group 11619">
          <g id="Group_11616" data-name="Group 11616">
            <rect id="Rectangle_5703" data-name="Rectangle 5703" width="4.885" height="48.547" transform="matrix(-0.995, 0.1, -0.1, -0.995, 164.973, 92.703)" fill="#fff"/>
            <path id="Path_20905" data-name="Path 20905" d="M160.112,93.442a.25.25,0,0,1-.248-.225L155,44.914a.25.25,0,0,1,.224-.273l4.86-.489a.247.247,0,0,1,.183.055.252.252,0,0,1,.091.168l4.86,48.3a.249.249,0,0,1-.223.273l-4.861.489Zm-4.587-48.33,4.811,47.807,4.364-.439-4.811-47.807Z"/>
          </g>
          <g id="Group_11617" data-name="Group 11617">
            <path id="Path_20906" data-name="Path 20906" d="M183.216,41.176H163.205L178.04,18.359a2.549,2.549,0,0,1,2.139-1.145H196.42a1.271,1.271,0,0,1,1.108,1.951Z"/>
            <path id="Path_20907" data-name="Path 20907" d="M184.689,28.376a4.227,4.227,0,0,1-3.123,1.81c-1.075,0-1.419-.81-.769-1.81a4.227,4.227,0,0,1,3.124-1.811C185,26.565,185.34,27.375,184.689,28.376Z" fill="#fff"/>
            <path id="Rectangle_5704" data-name="Rectangle 5704" d="M0,0H37.454a0,0,0,0,1,0,0V.308a1.76,1.76,0,0,1-1.76,1.76H1.76A1.76,1.76,0,0,1,0,.308V0A0,0,0,0,1,0,0Z" transform="translate(145.835 41.013)"/>
            <path id="Path_20908" data-name="Path 20908" d="M182.176,41.446H164.989a.25.25,0,0,1,0-.5h17.187a.25.25,0,0,1,0,.5Z" fill="#fff"/>
          </g>
          <g id="Group_11618" data-name="Group 11618">
            <path id="Path_20909" data-name="Path 20909" d="M144.24,46.918H189.4a3.95,3.95,0,0,0-3.95-3.95H140.29A3.95,3.95,0,0,0,144.24,46.918Z" fill="#fff"/>
            <path id="Path_20910" data-name="Path 20910" d="M189.4,47.167H144.24a4.2,4.2,0,0,1-4.2-4.2.25.25,0,0,1,.25-.25h45.156a4.2,4.2,0,0,1,4.2,4.2A.25.25,0,0,1,189.4,47.167Zm-48.848-3.95a3.7,3.7,0,0,0,3.692,3.451h44.9a3.705,3.705,0,0,0-3.692-3.451Z"/>
          </g>
        </g>
        <g id="Group_11627" data-name="Group 11627">
          <g id="Group_11620" data-name="Group 11620">
            <path id="Path_20911" data-name="Path 20911" d="M172.46,139.677l8.827,10.175h-5.208l-12-9.879Z" fill="#fff"/>
            <path id="Path_20912" data-name="Path 20912" d="M181.287,150.1h-5.208a.25.25,0,0,1-.159-.057l-12-9.879a.249.249,0,0,1,.15-.442l8.377-.3a.243.243,0,0,1,.2.085l8.826,10.175a.249.249,0,0,1-.188.413Zm-5.119-.5h4.572l-8.39-9.671-7.6.268Z"/>
          </g>
          <g id="Group_11621" data-name="Group 11621">
            <path id="Path_20913" data-name="Path 20913" d="M118.959,141.915l-9.151,8.419-5.7-.211,9.36-12.235Z" fill="#fff"/>
            <path id="Path_20914" data-name="Path 20914" d="M109.808,150.583h-.01l-5.7-.211a.249.249,0,0,1-.189-.4l9.36-12.235a.251.251,0,0,1,.346-.049l5.49,4.026a.25.25,0,0,1,.022.385l-9.151,8.419A.25.25,0,0,1,109.808,150.583Zm-5.209-.692,5.115.189,8.852-8.144-5.048-3.7Z"/>
          </g>
          <g id="Group_11622" data-name="Group 11622">
            <rect id="Rectangle_5705" data-name="Rectangle 5705" width="6.328" height="12.08" transform="translate(121.199 96.525) rotate(180)" fill="#fff"/>
            <path id="Path_20915" data-name="Path 20915" d="M121.2,96.775h-6.328a.25.25,0,0,1-.25-.25V84.445a.25.25,0,0,1,.25-.249H121.2a.25.25,0,0,1,.249.249v12.08A.25.25,0,0,1,121.2,96.775Zm-6.079-.5h5.829V84.695H115.12Z"/>
          </g>
          <g id="Group_11623" data-name="Group 11623">
            <path id="Path_20916" data-name="Path 20916" d="M156.516,96.891l.895-11.937a3.035,3.035,0,0,1,2.914-2.805l2.917-.108a6.079,6.079,0,0,1,6.108,4.581c1.4,5.491,1.761,13.249,2.174,20.884Z" fill="#fff"/>
            <path id="Path_20917" data-name="Path 20917" d="M171.524,107.756a.251.251,0,0,1-.144-.046L156.372,97.1a.249.249,0,0,1-.1-.223l.9-11.936a3.282,3.282,0,0,1,3.154-3.037l2.916-.108a6.367,6.367,0,0,1,6.359,4.77c1.34,5.232,1.736,12.615,2.119,19.756l.063,1.176a.25.25,0,0,1-.129.232A.244.244,0,0,1,171.524,107.756ZM156.775,96.769,171.247,107l-.036-.662c-.381-7.116-.776-14.474-2.1-19.659a5.865,5.865,0,0,0-5.857-4.394l-2.917.108a2.784,2.784,0,0,0-2.674,2.575Z"/>
          </g>
          <g id="Group_11624" data-name="Group 11624">
            <path id="Path_20918" data-name="Path 20918" d="M111.391,142.863h59.816a3.568,3.568,0,0,0,3.581-3.577l.227-30.032a13.788,13.788,0,0,0-12.992-14.041l-45-1.98a6.791,6.791,0,0,0-6.834,8.247c3.059,14.775,3.063,27.736-.846,38.44A2.173,2.173,0,0,0,111.391,142.863Zm9.039-23.948.206-11.775a6.9,6.9,0,0,1,7.319-6.584l15.125.592c2.151.085.474,4.759-1.643,4.934-9.424.776-15.152,5.817-17.832,13.855C123.075,121.526,120.4,120.548,120.43,118.915Z" fill="#fff"/>
            <path id="Path_20919" data-name="Path 20919" d="M171.207,143.113H111.391a2.423,2.423,0,0,1-2.284-3.279c3.765-10.307,4.038-22.836.837-38.3a7.132,7.132,0,0,1,1.55-6.114,6.842,6.842,0,0,1,5.538-2.432l45,1.98a13.982,13.982,0,0,1,13.231,14.292l-.228,30.032A3.806,3.806,0,0,1,171.207,143.113ZM116.73,93.477a6.35,6.35,0,0,0-4.856,2.263,6.638,6.638,0,0,0-1.441,5.689c3.221,15.561,2.94,28.18-.857,38.577a1.924,1.924,0,0,0,1.815,2.608h59.816a3.313,3.313,0,0,0,3.331-3.33l.227-30.032a13.483,13.483,0,0,0-12.753-13.789l-45-1.98C116.917,93.479,116.823,93.477,116.73,93.477Zm5.712,27.517a2.061,2.061,0,0,1-.352-.031,2.215,2.215,0,0,1-1.91-2.053h0l.206-11.774a6.767,6.767,0,0,1,2.157-4.824,7.5,7.5,0,0,1,5.422-2l15.125.592a1.29,1.29,0,0,1,1.24,1.44c.032,1.48-1.242,3.857-2.873,3.992-8.9.733-14.832,5.338-17.615,13.685A1.4,1.4,0,0,1,122.442,120.994Zm-1.763-2.075a1.733,1.733,0,0,0,1.5,1.552.985.985,0,0,0,1.193-.613c2.853-8.555,8.925-13.273,18.048-14.025,1.233-.1,2.444-2.112,2.415-3.483-.013-.613-.269-.933-.76-.952l-15.125-.593a7,7,0,0,0-5.06,1.87,6.271,6.271,0,0,0-2,4.47Z"/>
          </g>
          <rect id="Rectangle_5706" data-name="Rectangle 5706" width="2.196" height="16.106" transform="matrix(-0.805, -0.593, 0.593, -0.805, 137.838, 142.461)"/>
          <g id="Group_11625" data-name="Group 11625">
            <circle id="Ellipse_19" data-name="Ellipse 19" cx="8.419" cy="8.419" r="8.419" transform="translate(137.232 114.827)" fill="#fff"/>
            <path id="Path_20920" data-name="Path 20920" d="M145.651,131.915a8.668,8.668,0,1,1,8.668-8.669A8.679,8.679,0,0,1,145.651,131.915Zm0-16.838a8.169,8.169,0,1,0,8.169,8.169A8.179,8.179,0,0,0,145.651,115.077Z"/>
          </g>
          <rect id="Rectangle_5707" data-name="Rectangle 5707" width="15.008" height="4.393" rx="1.853" transform="translate(146.035 144.111) rotate(180)"/>
          <circle id="Ellipse_20" data-name="Ellipse 20" cx="4.027" cy="4.027" r="4.027" transform="translate(175.185 148.503)"/>
          <circle id="Ellipse_21" data-name="Ellipse 21" cx="4.027" cy="4.027" r="4.027" transform="translate(102.608 148.503)"/>
          <g id="Group_11626" data-name="Group 11626">
            <rect id="Rectangle_5708" data-name="Rectangle 5708" width="22.329" height="6.223" rx="2.995" transform="translate(127.682 87.129) rotate(180)" fill="#fff"/>
            <path id="Path_20921" data-name="Path 20921" d="M124.687,87.379H108.349a3.248,3.248,0,0,1-3.245-3.245V83.9a3.248,3.248,0,0,1,3.245-3.244h16.338a3.248,3.248,0,0,1,3.245,3.244v.233A3.249,3.249,0,0,1,124.687,87.379Zm-16.338-6.223A2.749,2.749,0,0,0,105.6,83.9v.233a2.749,2.749,0,0,0,2.746,2.746h16.338a2.749,2.749,0,0,0,2.746-2.746V83.9a2.749,2.749,0,0,0-2.746-2.745Z"/>
          </g>
        </g>
      </g>
      <g id="Group_11640" data-name="Group 11640">
        <g id="Group_11633" data-name="Group 11633">
          <g id="Group_11632" data-name="Group 11632">
            <g id="Group_11629" data-name="Group 11629">
              <path id="Path_20922" data-name="Path 20922" d="M132,124.08s-1.331,8.653-2.01,11.122c0,0,3.17.53,4.622.993l3.617-11.013Z" fill="#fff"/>
              <path id="Path_20923" data-name="Path 20923" d="M134.612,136.444a.224.224,0,0,1-.076-.012c-1.418-.451-4.556-.979-4.588-.984a.25.25,0,0,1-.169-.112.247.247,0,0,1-.03-.2c.667-2.427,1.991-11.008,2-11.094a.251.251,0,0,1,.291-.208l6.228,1.1a.248.248,0,0,1,.171.117.253.253,0,0,1,.023.206l-3.617,11.014A.248.248,0,0,1,134.612,136.444ZM130.3,135c.753.131,2.883.515,4.151.883l3.451-10.508-5.694-1.007C131.988,125.785,130.93,132.5,130.3,135Z"/>
            </g>
            <g id="Group_11631" data-name="Group 11631">
              <g id="Group_11630" data-name="Group 11630">
                <path id="Path_20924" data-name="Path 20924" d="M129.99,135.2s-.12,4.454.79,5.337c.766.743,12.319.5,16.074.333a.859.859,0,0,0,.684-1.328c-.923-1.355-3.658-3.759-11.652-7.053a1.211,1.211,0,0,0-1.246.2l-1.922,1.646,1.143,1.3Z" fill="#fff"/>
                <path id="Path_20925" data-name="Path 20925" d="M138.086,141.3c-3.585,0-7.009-.124-7.48-.581-.961-.932-.878-5.056-.866-5.523a.25.25,0,0,1,.277-.241l3.229.362-.715-.813a.246.246,0,0,1-.062-.183.256.256,0,0,1,.086-.172l1.923-1.645a1.452,1.452,0,0,1,1.5-.243c7.925,3.266,10.772,5.687,11.764,7.144a1.076,1.076,0,0,1,.069,1.1,1.119,1.119,0,0,1-.949.619C146.783,141.125,142.322,141.3,138.086,141.3Zm-7.852-5.819c-.016,1.369.084,4.263.719,4.879.669.572,10.669.5,15.89.264a.609.609,0,0,0,.524-.343.58.58,0,0,0-.035-.6c-.953-1.4-3.73-3.745-11.541-6.963a.954.954,0,0,0-.988.16l-1.731,1.481.976,1.108a.25.25,0,0,1-.215.413Z"/>
              </g>
              <path id="Path_20926" data-name="Path 20926" d="M140.36,137.459a.242.242,0,0,1-.1-.022.249.249,0,0,1-.127-.329l.984-2.214a.25.25,0,1,1,.456.2l-.984,2.213A.249.249,0,0,1,140.36,137.459Z"/>
              <path id="Path_20927" data-name="Path 20927" d="M138.878,136.977a.242.242,0,0,1-.1-.022.249.249,0,0,1-.127-.329l.985-2.214a.25.25,0,1,1,.456.2l-.985,2.213A.249.249,0,0,1,138.878,136.977Z"/>
              <path id="Path_20928" data-name="Path 20928" d="M145.649,139.81h0l-14.282-.232a.25.25,0,0,1-.246-.254.256.256,0,0,1,.254-.245l14.282.232a.25.25,0,0,1,0,.5Z"/>
            </g>
          </g>
          <path id="Path_20929" data-name="Path 20929" d="M120.587,85.742c-5.643-1.255-14.356-1.84-16.792-3.907-4.718-4-3.843-11.1-2.821-15.438,2.981-12.648,21.592.556,21.721.587h0c.037.022,2.519,1.479,5.795,3.48l14.93,10.013,0,0a17.043,17.043,0,0,1,5.115,7.184,2.26,2.26,0,0,1-2.551,2.938C137.431,89.038,120.92,85.816,120.587,85.742Z"/>
          <path id="Path_20930" data-name="Path 20930" d="M148.568,89.471,138.215,126.3s-6.656-.665-6.656-1.331c0-.536,2.382-24,2.662-29.288.072-1.342,1.512-3.433,2.392-4.448l4.411-5.09Z"/>
          <path id="Path_20931" data-name="Path 20931" d="M124.755,57.148l1.627,7.47L100.865,67.28l3.106-17.529Z"/>
          <path id="Path_20932" data-name="Path 20932" d="M145.907,99.924a.227.227,0,0,1-.063-.008.249.249,0,0,1-.178-.3l2.661-10.2c1.766-5.652-11.127-13.334-21.488-19.506-2.384-1.421-4.636-2.763-6.655-4.038a.249.249,0,0,1,.266-.422c2.014,1.272,4.263,2.612,6.645,4.031,11.058,6.588,23.592,14.055,21.711,20.073l-2.657,10.192A.251.251,0,0,1,145.907,99.924Z" fill="#fff"/>
        </g>
        <g id="Group_11636" data-name="Group 11636">
          <g id="Group_11634" data-name="Group 11634">
            <path id="Path_20933" data-name="Path 20933" d="M123.546,35.763a9.8,9.8,0,0,1-.615,4.666c-1.207,3.16.062,8.606.344,11.985.188,2.263.821,3.8,1.719,4.555a.475.475,0,0,1-.051.748c-4.185,2.937-12.486,3.309-24.522,1.353l-.712-31.622s-.322-11.408,7.624-12.581Z" fill="#fff"/>
            <path id="Path_20934" data-name="Path 20934" d="M113.3,60.524a82.135,82.135,0,0,1-12.921-1.207.248.248,0,0,1-.209-.241L99.46,27.453c0-.115-.235-11.641,7.836-12.833a.251.251,0,0,1,.234.094l16.213,20.9a.257.257,0,0,1,.049.112,9.961,9.961,0,0,1-.628,4.8c-.887,2.322-.4,5.9.022,9.054.138,1.02.268,1.983.338,2.821.174,2.091.753,3.648,1.631,4.385a.7.7,0,0,1,.247.567.748.748,0,0,1-.316.576C122.615,59.656,118.67,60.524,113.3,60.524Zm-12.636-1.667c11.993,1.929,20.113,1.477,24.133-1.345a.243.243,0,0,0,.1-.188.2.2,0,0,0-.069-.163c-1-.836-1.62-2.47-1.808-4.726-.069-.826-.2-1.783-.335-2.8-.433-3.215-.925-6.858.007-9.3a9.765,9.765,0,0,0,.61-4.476L107.226,15.137c-7.487,1.243-7.27,12.192-7.267,12.3Z"/>
          </g>
          <g id="Group_11635" data-name="Group 11635">
            <path id="Path_20935" data-name="Path 20935" d="M145.507,40.289l2.886-1.078a5.158,5.158,0,0,1,3.773.054,16.8,16.8,0,0,1,4.961,2.948.543.543,0,0,1-.339.944H145.641Z" fill="#fff"/>
            <path id="Path_20936" data-name="Path 20936" d="M156.789,43.407H145.641a.25.25,0,0,1-.25-.238l-.134-2.869a.25.25,0,0,1,.162-.245l2.886-1.078a5.419,5.419,0,0,1,3.956.057,17.087,17.087,0,0,1,5.038,3,.807.807,0,0,1,.193.89A.747.747,0,0,1,156.789,43.407Zm-10.91-.5h10.91a.256.256,0,0,0,.24-.17.308.308,0,0,0-.074-.343,16.606,16.606,0,0,0-4.884-2.9,4.909,4.909,0,0,0-3.591-.051l-2.716,1.014Z"/>
          </g>
          <path id="Path_20937" data-name="Path 20937" d="M113.821,17.528a29.626,29.626,0,0,1,8.046,4.711c4.366,3.757,5.054,9.673,7.846,12.125,2.42,2.126,12.839,4.89,15.568,5.588a.865.865,0,0,1,.654.843l-.009,2.643h-16.52a8.521,8.521,0,0,1-6.11-2.579c-2.412-2.483-6.489-5.593-10.466-8.949Z" fill="#fff"/>
          <path id="Path_20938" data-name="Path 20938" d="M112.83,31.91c-4.8-4.049-9.449-8.456-10.855-12.556l8.354-3.032a31.769,31.769,0,0,1,3.492,1.206Z" fill="#fff"/>
          <path id="Path_20939" data-name="Path 20939" d="M145.926,43.687h-16.52a8.813,8.813,0,0,1-6.289-2.654,88.592,88.592,0,0,0-6.786-5.9q-.61-.5-1.233-1.011a.249.249,0,1,1,.316-.385q.623.51,1.233,1.009a89.014,89.014,0,0,1,6.828,5.943,8.312,8.312,0,0,0,5.931,2.5h16.271l.009-2.394a.617.617,0,0,0-.467-.6c-3.06-.783-13.234-3.5-15.671-5.643a14.854,14.854,0,0,1-3.033-4.886c-1.134-2.427-2.418-5.178-4.811-7.237a29.891,29.891,0,0,0-8.357-4.821.249.249,0,0,1,.182-.464,30.331,30.331,0,0,1,8.5,4.907c2.474,2.129,3.782,4.931,4.937,7.4a14.315,14.315,0,0,0,2.911,4.722c1.87,1.643,9.215,3.936,15.465,5.534a1.116,1.116,0,0,1,.842,1.086l-.009,2.643A.25.25,0,0,1,145.926,43.687Z"/>
        </g>
        <g id="Group_11639" data-name="Group 11639">
          <g id="Group_11637" data-name="Group 11637">
            <path id="Path_20940" data-name="Path 20940" d="M116.6,1.363a8.887,8.887,0,0,0,1.688,4.266.34.34,0,0,1,.036.4l-.565.944a1.382,1.382,0,0,0-.12.259L116.7,9.993a.673.673,0,0,1-.58.454c-.586.048-2.073-.179-2.194.212-.174.561.621,7.216.621,7.216l-2.293-.3c-1.627,0-5.064.111-6.386-.474A.827.827,0,0,1,105.458,16c.725-1.55,2.315-5.252,2.1-7.516l-1.41-3.946A3.422,3.422,0,0,1,109.67,1.19Z" fill="#fff"/>
            <path id="Path_20941" data-name="Path 20941" d="M114.548,18.124a.177.177,0,0,1-.032,0l-2.277-.294-.673,0c-1.829.014-4.593.035-5.8-.5a1.066,1.066,0,0,1-.569-.6,1.077,1.077,0,0,1,.033-.839c.691-1.477,2.272-5.141,2.085-7.357l-1.4-3.915a.273.273,0,0,1-.015-.089,3.627,3.627,0,0,1,1.127-2.566A3.676,3.676,0,0,1,109.676.941l6.929.173a.25.25,0,0,1,.242.221,8.681,8.681,0,0,0,1.625,4.126.594.594,0,0,1,.065.7l-.564.943a1.121,1.121,0,0,0-.1.211l-.938,2.757a.919.919,0,0,1-.795.622,6.79,6.79,0,0,1-.736-.005,3.967,3.967,0,0,0-1.245.062c-.083.458.262,3.969.635,7.093a.249.249,0,0,1-.248.279Zm-2.293-.8.032,0,1.976.255a60.433,60.433,0,0,1-.574-7c.141-.457.917-.427,1.736-.394.266.01.516.02.676.007a.423.423,0,0,0,.364-.285l.937-2.757a1.583,1.583,0,0,1,.142-.307l.565-.944A.091.091,0,0,0,118.1,5.8a8.7,8.7,0,0,1-1.723-4.19l-6.716-.167a3.179,3.179,0,0,0-2.29.884,3.127,3.127,0,0,0-.971,2.171L107.8,8.4a.224.224,0,0,1,.014.061c.217,2.335-1.415,6.124-2.127,7.645a.584.584,0,0,0-.018.453.566.566,0,0,0,.3.322c1.106.49,3.914.468,5.593.456C111.817,17.331,112.05,17.329,112.255,17.329Z"/>
          </g>
          <path id="Path_20942" data-name="Path 20942" d="M117.243.4a.841.841,0,0,1-.361,1.22l-.283.13-5.443,2.682a.419.419,0,0,1-.429-.031.9.9,0,0,0-1.036-.106,1.805,1.805,0,0,0,.8,2.809.333.333,0,0,1,.2.447,6.654,6.654,0,0,1-.377.761,3.579,3.579,0,0,1-5.951.339,7.393,7.393,0,0,1-.922-7.418C105.428-4.083,113.566-5.225,117.243.4Z"/>
          <path id="Path_20943" data-name="Path 20943" d="M103.986-.837a5.755,5.755,0,0,0-5.851-1.725C94.66-1.47,94.484,4.412,94.081,8.078c-1.419,12.912-4.572,17.612-5.59,18.778-1.129,1.294,7.752.417,10.745-.6,8.626-2.941,4.084-11.245,3.678-12.74s-3.62-9.864.377-10.841L105.318.946Z"/>
          <g id="Group_11638" data-name="Group 11638">
            <path id="Path_20944" data-name="Path 20944" d="M102.893,3.194l.043.016a.735.735,0,0,0,.938-.435L104.931-.08a.726.726,0,0,0-.432-.934l-.043-.016a.736.736,0,0,0-.938.434L102.461,2.26A.726.726,0,0,0,102.893,3.194Z" fill="#fff"/>
            <path id="Path_20945" data-name="Path 20945" d="M103.185,3.5a.986.986,0,0,1-.335-.059l-.043-.016a.975.975,0,0,1-.58-1.255l1.056-2.855a.985.985,0,0,1,1.259-.582l.043.015a.974.974,0,0,1,.551.507.969.969,0,0,1,.029.749l-1.056,2.855A.986.986,0,0,1,103.185,3.5Zm1.021-4.328a.484.484,0,0,0-.454.316l-1.057,2.855a.476.476,0,0,0,.284.614h0l.042.015a.484.484,0,0,0,.619-.286L104.7-.166a.474.474,0,0,0-.014-.366.477.477,0,0,0-.27-.248L104.371-.8A.48.48,0,0,0,104.206-.825Z"/>
          </g>
        </g>
      </g>
      <g id="Group_11641" data-name="Group 11641">
        <path id="Path_20946" data-name="Path 20946" d="M177.521,135.689a.25.25,0,0,1-.207-.389,40.857,40.857,0,0,0-.231-46.06.25.25,0,1,1,.412-.282,41.36,41.36,0,0,1,.234,46.621A.252.252,0,0,1,177.521,135.689Z"/>
        <path id="Path_20947" data-name="Path 20947" d="M104.99,137.35a.248.248,0,0,1-.181-.078,41.925,41.925,0,0,1-11.076-22.047.25.25,0,0,1,.493-.082,41.421,41.421,0,0,0,10.945,21.786.25.25,0,0,1-.181.421Z"/>
        <path id="Path_20948" data-name="Path 20948" d="M139.318,154.809a45.267,45.267,0,0,1-14.7-2.431.25.25,0,0,1,.162-.473,44.972,44.972,0,0,0,36.5-3.338.249.249,0,1,1,.246.434A45.128,45.128,0,0,1,139.318,154.809Z"/>
        <path id="Path_20949" data-name="Path 20949" d="M139.316,150.548a40.329,40.329,0,0,1-10.168-1.295.25.25,0,0,1,.126-.483,39.834,39.834,0,0,0,10.042,1.279A39.361,39.361,0,0,0,154.6,147a.25.25,0,0,1,.193.461A39.867,39.867,0,0,1,139.316,150.548Z"/>
        <path id="Path_20950" data-name="Path 20950" d="M176.548,127.716a.253.253,0,0,1-.1-.021.249.249,0,0,1-.129-.328,36.116,36.116,0,0,0-.281-29.292.249.249,0,1,1,.454-.207,36.615,36.615,0,0,1,.285,29.7A.251.251,0,0,1,176.548,127.716Z"/>
        <path id="Path_20951" data-name="Path 20951" d="M108.008,133.964a.254.254,0,0,1-.186-.082A37.011,37.011,0,0,1,98.493,113.9a.25.25,0,1,1,.5-.065,36.512,36.512,0,0,0,9.205,19.716.249.249,0,0,1-.185.417Z"/>
      </g>
    </g>
    <g id="Group_11648" data-name="Group 11648">
      <g id="Group_11643" data-name="Group 11643">
        <path id="Path_20952" data-name="Path 20952" d="M61.709,160.726H99.164a3.551,3.551,0,0,0,3.478-4.266l-5.683-27.623a5,5,0,0,0-4.894-3.99H59.937Z" fill="#fff"/>
        <path id="Path_20953" data-name="Path 20953" d="M99.164,160.976H61.709a.251.251,0,0,1-.25-.238l-1.771-35.879a.251.251,0,0,1,.249-.262H92.065a5.266,5.266,0,0,1,5.139,4.189l5.682,27.624a3.8,3.8,0,0,1-3.722,4.566Zm-37.218-.5H99.164a3.3,3.3,0,0,0,3.233-3.966l-5.682-27.623a4.764,4.764,0,0,0-4.65-3.791H60.2Z"/>
      </g>
      <g id="Group_11644" data-name="Group 11644">
        <path id="Path_20954" data-name="Path 20954" d="M56.913,160.726h7.269a3.55,3.55,0,0,0,3.477-4.266L61.4,126.035a1.489,1.489,0,0,0-1.458-1.188H58.074a1.487,1.487,0,0,0-1.483,1.367L54.03,157.6A2.893,2.893,0,0,0,56.913,160.726Z"/>
        <path id="Path_20955" data-name="Path 20955" d="M64.182,160.976H56.913a3.142,3.142,0,0,1-3.131-3.4l2.56-31.385a1.747,1.747,0,0,1,1.732-1.6h1.869a1.744,1.744,0,0,1,1.7,1.387L67.9,156.41a3.8,3.8,0,0,1-3.722,4.566ZM58.074,125.1a1.247,1.247,0,0,0-1.235,1.138l-2.56,31.385a2.642,2.642,0,0,0,2.634,2.857h7.269a3.3,3.3,0,0,0,3.233-3.966l-6.259-30.425a1.243,1.243,0,0,0-1.213-.989Z"/>
      </g>
      <path id="Path_20956" data-name="Path 20956" d="M96.139,139.6H66.812a2.118,2.118,0,0,1-2.068-1.635l-2.585-10.913a.25.25,0,0,1,.486-.115l2.585,10.913a1.62,1.62,0,0,0,1.582,1.251H96.139a.249.249,0,0,1,0,.5Z"/>
      <g id="Group_11645" data-name="Group 11645">
        <path id="Path_20957" data-name="Path 20957" d="M78.131,139.347l.821,3.314a1.244,1.244,0,0,0,1.21.956H85.97a.955.955,0,0,0,.921-1.212l-.85-3.058Z" fill="#fff"/>
        <path id="Path_20958" data-name="Path 20958" d="M85.97,143.867H80.162a1.489,1.489,0,0,1-1.453-1.149l-.82-3.311a.248.248,0,0,1,.045-.214.253.253,0,0,1,.2-.1h7.91a.249.249,0,0,1,.24.183l.851,3.058a1.207,1.207,0,0,1-1.162,1.529ZM78.45,139.6l.745,3.005a.99.99,0,0,0,.967.766H85.97a.706.706,0,0,0,.681-.9l-.8-2.876Z"/>
      </g>
      <path id="Path_20959" data-name="Path 20959" d="M100.643,158.2H69.488a.249.249,0,0,1,0-.5h31.155a.249.249,0,1,1,0,.5Z"/>
      <g id="Group_11647" data-name="Group 11647">
        <path id="Path_20960" data-name="Path 20960" d="M84.664,123.593H87.1a1.189,1.189,0,0,1,1.19,1.189H83.475A1.189,1.189,0,0,1,84.664,123.593Z"/>
        <path id="Path_20961" data-name="Path 20961" d="M65.174,123.593h2.432a1.189,1.189,0,0,1,1.189,1.189H63.984A1.189,1.189,0,0,1,65.174,123.593Z"/>
        <g id="Group_11646" data-name="Group 11646">
          <path id="Path_20962" data-name="Path 20962" d="M65.809,123.529l-.392-2.328a2.46,2.46,0,0,1,2.486-2.989H82.486a3.683,3.683,0,0,1,3.492,2.989l.392,2.328H85.254l-.305-1.812a2.866,2.866,0,0,0-2.718-2.326H68.555a1.915,1.915,0,0,0-1.935,2.326l.305,1.812Z" fill="#fff"/>
          <path id="Path_20963" data-name="Path 20963" d="M86.37,123.778H85.254a.249.249,0,0,1-.246-.208l-.305-1.811a2.612,2.612,0,0,0-2.472-2.119H68.555a1.7,1.7,0,0,0-1.33.582,1.756,1.756,0,0,0-.359,1.454l.305,1.811a.25.25,0,0,1-.246.291H65.809a.249.249,0,0,1-.246-.208l-.392-2.328a2.819,2.819,0,0,1,.587-2.331,2.75,2.75,0,0,1,2.145-.949H82.486a3.947,3.947,0,0,1,3.738,3.2l.392,2.327a.25.25,0,0,1-.246.291Zm-.905-.5h.61l-.343-2.037a3.429,3.429,0,0,0-3.246-2.781H67.9a2.256,2.256,0,0,0-1.763.773,2.327,2.327,0,0,0-.477,1.926l.357,2.119h.61l-.256-1.52a2.248,2.248,0,0,1,.469-1.86,2.195,2.195,0,0,1,1.712-.758H82.231a3.129,3.129,0,0,1,2.964,2.535Z"/>
        </g>
        <path id="Path_20964" data-name="Path 20964" d="M68.627,117.248h12.81a1.152,1.152,0,0,1,1.092.935l.188,1.119a.769.769,0,0,1-.777.934H69.13a1.152,1.152,0,0,1-1.092-.934l-.188-1.119A.77.77,0,0,1,68.627,117.248Z"/>
      </g>
      <path id="Path_20965" data-name="Path 20965" d="M64.25,158.2a.248.248,0,0,1-.123-.032l-5.021-2.861a.25.25,0,0,1-.126-.217v-28.1a.25.25,0,1,1,.5,0v27.954l4.9,2.789a.249.249,0,0,1-.124.466Z" fill="#fff"/>
    </g>
    <g id="Group_11654" data-name="Group 11654">
      <g id="Group_11650" data-name="Group 11650">
        <g id="Group_11649" data-name="Group 11649">
          <path id="Path_20966" data-name="Path 20966" d="M212.545,134.7c-2.211-3.954-1.937-5.807-1.306-6.768,1.124-1.712,3.636-.99,4.75-2.85,1.145-1.912-.931-3.649-.159-6.1.913-2.9,5.443-5.634,8.351-3.991,2.487,1.4,3.142,5.646,1.663,7.836-1.642,2.432-5.258,1.37-6.277,3.635-.937,2.085,1.64,4.058.815,5.983C219.908,133.548,218.257,134.771,212.545,134.7Z" fill="#fff"/>
          <path id="Path_20967" data-name="Path 20967" d="M213.028,134.952l-.486,0a.253.253,0,0,1-.215-.128c-1.829-3.271-2.253-5.569-1.3-7.027a3.916,3.916,0,0,1,2.447-1.452,3.476,3.476,0,0,0,2.3-1.389,3.231,3.231,0,0,0,.005-2.754,5.415,5.415,0,0,1-.188-3.294,7.42,7.42,0,0,1,4.312-4.194,5.079,5.079,0,0,1,4.4.06,5.341,5.341,0,0,1,2.378,3.5,6.151,6.151,0,0,1-.631,4.695,5.485,5.485,0,0,1-3.518,1.982c-1.223.318-2.278.592-2.738,1.616-.436.969-.03,1.921.4,2.928a3.813,3.813,0,0,1,.416,3.05C219.916,134.162,217.434,134.952,213.028,134.952Zm-.335-.5c4.335.036,6.844-.67,7.459-2.106a3.409,3.409,0,0,0-.416-2.658c-.454-1.062-.922-2.16-.4-3.329.558-1.241,1.834-1.573,3.068-1.894a5.026,5.026,0,0,0,3.23-1.778,5.643,5.643,0,0,0,.559-4.3,4.842,4.842,0,0,0-2.137-3.178,4.6,4.6,0,0,0-3.971-.031,6.9,6.9,0,0,0-4.02,3.88,4.944,4.944,0,0,0,.192,3.007,3.7,3.7,0,0,1-.057,3.148,3.913,3.913,0,0,1-2.585,1.611,3.487,3.487,0,0,0-2.17,1.247C210.626,129.32,211.045,131.467,212.693,134.451Z"/>
        </g>
        <path id="Path_20968" data-name="Path 20968" d="M212.129,136.561a.23.23,0,0,1-.081-.014.248.248,0,0,1-.154-.317c4.053-11.711,9.354-15.495,9.577-15.65a.25.25,0,0,1,.285.41c-.053.037-5.4,3.866-9.391,15.4A.25.25,0,0,1,212.129,136.561Z"/>
      </g>
      <g id="Group_11651" data-name="Group 11651">
        <path id="Path_20969" data-name="Path 20969" d="M209.115,133.334a12.029,12.029,0,0,1,2-7.311c1.771-2.5,3.732-2.758,4.408-5.174.638-2.282-.855-2.973-.355-5.543.6-3.061,2.945-3.271,3.55-5.792.736-3.066-2.295-4.618-3.817-8.924-1.969-5.57,1.295-8.091.549-13.293-1.211-8.443-11.879-16.225-16.442-14.1-4.3,2-4.615,13.475-1.139,21.811,3.707,8.886,9.447,8.758,10.282,16.185.576,5.133-1.834,8.141-.594,16.03A34.125,34.125,0,0,0,209.115,133.334Z"/>
        <path id="Path_20970" data-name="Path 20970" d="M210.245,136.73a.25.25,0,0,1-.227-.146c-2.213-4.832-1.314-10.133-.176-16.844a108.268,108.268,0,0,0,1.541-11.938c.732-12.285-9.528-27.144-9.632-27.293a.249.249,0,0,1,.409-.285c.1.15,10.463,15.151,9.721,27.608a108.539,108.539,0,0,1-1.546,11.991c-1.124,6.627-2.012,11.861.137,16.553a.25.25,0,0,1-.123.331A.257.257,0,0,1,210.245,136.73Z" fill="#fff"/>
      </g>
      <g id="Group_11653" data-name="Group 11653">
        <g id="Group_11652" data-name="Group 11652">
          <path id="Path_20971" data-name="Path 20971" d="M206.392,134.235a40.2,40.2,0,0,1-.844-9.985c.283-6.8,2.173-9.7.274-12.243-2.093-2.8-5.616-.927-8.111-4.261-1.7-2.274-.848-4.195-3.185-6.335a6.776,6.776,0,0,0-3.939-1.858c-1.9-.147-2.568.817-4.988,1.661-4.386,1.53-6.342-.184-7.954,1.426a5.291,5.291,0,0,0-.351,6.322c2.565,3.279,9.348-.539,11.893,2.57,2.174,2.656-1.573,6.908.806,9.868,2.143,2.667,6.435.771,8.193,3.563,1.344,2.134-.538,4.236.708,6.461C200.194,133.745,203.771,134.189,206.392,134.235Z" fill="#fff"/>
          <path id="Path_20972" data-name="Path 20972" d="M206.392,134.484h0c-4.065-.07-6.659-1.059-7.712-2.938a5,5,0,0,1-.352-3.377,4.23,4.23,0,0,0-.349-3.073c-.833-1.322-2.3-1.518-3.858-1.725-1.575-.21-3.2-.427-4.318-1.814-1.292-1.607-.891-3.525-.5-5.38.352-1.688.685-3.282-.3-4.486-1.175-1.436-3.344-1.291-5.64-1.137-2.4.16-4.876.326-6.257-1.438a5.527,5.527,0,0,1,.371-6.653c.883-.88,1.87-.852,3.12-.815a12.406,12.406,0,0,0,4.928-.67,16.525,16.525,0,0,0,2.069-.9,5.18,5.18,0,0,1,3.021-.773,6.835,6.835,0,0,1,4.089,1.923,6.614,6.614,0,0,1,2.006,3.609,7.476,7.476,0,0,0,1.21,2.76,6.11,6.11,0,0,0,4.245,2.273,5.651,5.651,0,0,1,3.866,1.988c1.246,1.669.945,3.477.488,6.212a47.59,47.59,0,0,0-.713,6.192,39.965,39.965,0,0,0,.84,9.922.254.254,0,0,1-.052.211A.252.252,0,0,1,206.392,134.484Zm-21.014-24.521c1.6,0,3.061.262,4,1.411,1.137,1.389.763,3.177.4,4.9s-.74,3.542.4,4.965c.99,1.232,2.518,1.435,3.995,1.632,1.6.214,3.257.434,4.214,1.954a4.678,4.678,0,0,1,.421,3.407,4.541,4.541,0,0,0,.294,3.065c.933,1.667,3.278,2.566,6.972,2.676a40.5,40.5,0,0,1-.786-9.738,48,48,0,0,1,.72-6.253c.451-2.7.723-4.333-.4-5.831a5.181,5.181,0,0,0-3.566-1.8,6.612,6.612,0,0,1-4.545-2.464,7.9,7.9,0,0,1-1.292-2.928,6.122,6.122,0,0,0-1.861-3.372,6.334,6.334,0,0,0-3.79-1.793,4.659,4.659,0,0,0-2.761.722,16.983,16.983,0,0,1-2.126.926,12.85,12.85,0,0,1-5.107.7c-1.218-.036-2.023-.059-2.753.67a5.05,5.05,0,0,0-.33,5.991c1.217,1.557,3.457,1.407,5.829,1.248C184.009,110.01,184.705,109.963,185.378,109.963Z"/>
        </g>
        <path id="Path_20973" data-name="Path 20973" d="M208.024,136.629a.243.243,0,0,1-.152-.053c-2.223-1.718-2.993-4.58-4.158-8.911a87.64,87.64,0,0,0-4.1-12.341c-4.757-11.206-17.737-9.925-17.868-9.911a.249.249,0,1,1-.054-.5,21.472,21.472,0,0,1,7.322.72,16.28,16.28,0,0,1,11.059,9.492,87.982,87.982,0,0,1,4.118,12.407c1.139,4.233,1.891,7.03,3.981,8.646a.25.25,0,0,1-.153.447Z"/>
      </g>
      <path id="Path_20974" data-name="Path 20974" d="M199.848,136.312c.368.163,19.285,0,19.285,0l-2.362,19.3a6.273,6.273,0,0,1-12.343.636Z"/>
    </g>
  </g>
</svg>
