<svg xmlns="http://www.w3.org/2000/svg" width="54.183" height="50.507" viewBox="0 0 54.183 50.507">
  <g id="Smart_maps" data-name="Smart maps" transform="translate(147.883 23.237)">
    <path id="Path_19424" data-name="Path 19424" d="M-102.944-1.536V.248h.391l.865,3.455c-.429.092-.835.2-1.255.294V5.833c.558-.134,1.11-.271,1.687-.4l1.044,4.174a39.407,39.407,0,0,0-10.531,15.624H-123.6a19.584,19.584,0,0,0-5.86-5.406,44.694,44.694,0,0,1,6.884-5.677v-2.23a45.6,45.6,0,0,0-8.589,6.97,34.708,34.708,0,0,0-11.7-3.286l1.128-4.51a20.615,20.615,0,0,0,4.887-1.936V7.114a17.59,17.59,0,0,1-4.394,2.011L-139.03.248h2.175V-1.536h-3.569l-7.139,28.556h53.542L-101.16-1.536Zm-42.332,26.771,1.966-7.864a34.132,34.132,0,0,1,10.867,2.922,34.929,34.929,0,0,0-3.61,4.942Zm11.391,0a36.084,36.084,0,0,1,3.153-4.045,18.6,18.6,0,0,1,4.912,4.045Zm37.578,0h-12.5a38.5,38.5,0,0,1,9.1-13.612ZM-131.5-1.536h4.063a7.989,7.989,0,0,0,.866,1.784H-129.5a15.467,15.467,0,0,1-2,4.1V.684c.056-.144.127-.3.176-.436h-.176Zm14.278,10.484a63.761,63.761,0,0,1,8.924-3.5V7.331A60.629,60.629,0,0,0-117.222,11Zm8.924-8.7h-4.929a7.988,7.988,0,0,0,.866-1.784h4.063Zm-12.493,1.7V21.665h1.785V1.943a6.247,6.247,0,0,0,5.29-7.075,6.247,6.247,0,0,0-7.075-5.29,6.247,6.247,0,0,0-5.29,7.075A6.246,6.246,0,0,0-120.792,1.943Zm.892-10.619a4.462,4.462,0,0,1,4.462,4.462A4.462,4.462,0,0,1-119.9.248a4.462,4.462,0,0,1-4.462-4.461h0A4.461,4.461,0,0,1-119.9-8.675Zm13.385-1.875V9.172h1.785V-10.55a6.246,6.246,0,0,0,5.29-7.075,6.247,6.247,0,0,0-7.075-5.291,6.247,6.247,0,0,0-5.29,7.075A6.247,6.247,0,0,0-106.514-10.55Zm.892-10.619a4.462,4.462,0,0,1,4.462,4.462,4.462,4.462,0,0,1-4.462,4.462,4.462,4.462,0,0,1-4.462-4.462h0a4.462,4.462,0,0,1,4.461-4.462ZM-136.855-9.3a6.206,6.206,0,0,0,1.785.534V10.957h1.784V-8.765a6.238,6.238,0,0,0,5.272-7.074,6.238,6.238,0,0,0-7.074-5.272,6.238,6.238,0,0,0-5.272,7.074A6.239,6.239,0,0,0-136.855-9.3Zm2.677-10.085a4.462,4.462,0,0,1,4.462,4.462,4.462,4.462,0,0,1-4.462,4.462,4.462,4.462,0,0,1-4.461-4.462h0a4.461,4.461,0,0,1,4.461-4.462Z" transform="translate(0 0)" stroke="#f7f7f7" stroke-width="0.5"/>
  </g>
</svg>
