<svg xmlns="http://www.w3.org/2000/svg" width="48.502" height="48.517" viewBox="0 0 48.502 48.517">
  <g id="smart_surveys" data-name="smart surveys" transform="translate(-115.195 50.6)">
    <path id="Path_19447" data-name="Path 19447" d="M115.45-3.028a2.971,2.971,0,0,0,1.663,2.821,2.83,2.83,0,0,0,1.214.274A2.894,2.894,0,0,0,120.9-1.518l4.829-9.35a14.5,14.5,0,0,0,4.219.625,14.19,14.19,0,0,0,14.3-14.045,14.19,14.19,0,0,0-14.3-14.045,14.191,14.191,0,0,0-14.3,14.045,13.907,13.907,0,0,0,4.992,10.639L115.77-4.256A3.012,3.012,0,0,0,115.45-3.028Zm1.792-21.26a12.59,12.59,0,0,1,12.7-12.445,12.589,12.589,0,0,1,12.7,12.445,12.589,12.589,0,0,1-12.7,12.445A12.59,12.59,0,0,1,117.242-24.288ZM117.2-3.542l4.725-9.123a14.439,14.439,0,0,0,2.288,1.236l-4.741,9.177a1.276,1.276,0,0,1-1.67.6,1.377,1.377,0,0,1-.754-1.319A1.452,1.452,0,0,1,117.2-3.542Z" transform="translate(0 -2.4)" stroke="#f7f7f7" stroke-width="0.5"/>
    <path id="Path_19448" data-name="Path 19448" d="M122.635-23.78c.026,0,.05,0,.074,0a.8.8,0,0,0,.8-.726,7.975,7.975,0,0,1,.978-3.224c1.681-2.956,5.345-4.6,9.587-4.289a.8.8,0,0,0,.858-.738.8.8,0,0,0-.737-.858h0c-4.85-.358-9.105,1.6-11.095,5.095a9.534,9.534,0,0,0-1.182,3.866A.8.8,0,0,0,122.635-23.78Z" transform="translate(-1.293 -3.337)" stroke="#f7f7f7" stroke-width="0.5"/>
    <path id="Path_19449" data-name="Path 19449" d="M123.319-16.718v-1.893a.8.8,0,0,0-.8-.8.8.8,0,0,0-.8.8v1.893a.8.8,0,0,0,.8.8A.8.8,0,0,0,123.319-16.718Z" transform="translate(-1.255 -6.186)" stroke="#f7f7f7" stroke-width="0.5"/>
    <path id="Path_19450" data-name="Path 19450" d="M151.447-14.9a9.522,9.522,0,0,0,9.6,9.438,9.53,9.53,0,0,0,2.513-.361l3.022,5.9a2.13,2.13,0,0,0,2.83.978,2.212,2.212,0,0,0,1.228-2.089,2.323,2.323,0,0,0-.244-.939l-3.044-5.924a9.366,9.366,0,0,0,3.163-7,9.537,9.537,0,0,0-9.635-9.437,9.537,9.537,0,0,0-9.438,9.437ZM168.966-1.262a.729.729,0,0,1,.079.292.614.614,0,0,1-.324.586.541.541,0,0,1-.711-.266l-2.937-5.733a9.471,9.471,0,0,0,.986-.537ZM168.92-14.9a7.938,7.938,0,0,1-7.838,8.036,7.937,7.937,0,0,1-8.035-7.838,7.937,7.937,0,0,1,7.838-8.035h.1A7.9,7.9,0,0,1,168.92-14.9Z" transform="translate(-7.202 -5.201)" stroke="#f7f7f7" stroke-width="0.5"/>
    <path id="Path_19451" data-name="Path 19451" d="M160.769-21.252a.8.8,0,0,0-.737.858.8.8,0,0,0,.856.737c2.62-.192,4.9.823,5.934,2.655a4.938,4.938,0,0,1,.6,1.993.8.8,0,0,0,.8.726c.024,0,.049,0,.073,0a.8.8,0,0,0,.725-.87,6.544,6.544,0,0,0-.8-2.632C166.874-20.166,164.023-21.5,160.769-21.252Z" transform="translate(-8.919 -5.812)" stroke="#f7f7f7" stroke-width="0.5"/>
    <path id="Path_19452" data-name="Path 19452" d="M170.189-11.992a.8.8,0,0,0-.8.8h0v1.234a.8.8,0,0,0,.8.8.8.8,0,0,0,.8-.8v-1.234a.8.8,0,0,0-.8-.8Z" transform="translate(-10.791 -7.67)" stroke="#f7f7f7" stroke-width="0.5"/>
    <path id="Path_19453" data-name="Path 19453" d="M148.784-37.138a6.672,6.672,0,0,0,6.711.219l2.874,3.53a1.743,1.743,0,0,0,1.189.646,1.65,1.65,0,0,0,.166.008,1.686,1.686,0,0,0,1.087-.4,1.855,1.855,0,0,0,.569-1.89,1.924,1.924,0,0,0-.358-.708l-2.93-3.59a7.259,7.259,0,0,0,.974-5.528,7.03,7.03,0,0,0-3.158-4.466,6.7,6.7,0,0,0-5.141-.825,7.136,7.136,0,0,0-5.14,8.537A7.029,7.029,0,0,0,148.784-37.138Zm10.983,2.4a.383.383,0,0,1,.066.125.232.232,0,0,1-.121.282.149.149,0,0,1-.1-.063l-2.8-3.433c.083-.074.164-.15.244-.227Zm-8.623-13.845a5.1,5.1,0,0,1,3.921.63A5.437,5.437,0,0,1,157.5-44.5a5.527,5.527,0,0,1-3.957,6.628,5.1,5.1,0,0,1-3.92-.63,5.441,5.441,0,0,1-2.44-3.461A5.527,5.527,0,0,1,151.144-48.586Z" transform="translate(-5.999)" stroke="#f7f7f7" stroke-width="0.5"/>
    <path id="Path_19454" data-name="Path 19454" d="M151.29-45.1a3.869,3.869,0,0,1,4.192.835,3.458,3.458,0,0,1,.686,1.242.8.8,0,0,0,1.006.518.8.8,0,0,0,.518-1.006v0a5.05,5.05,0,0,0-1.01-1.811,5.435,5.435,0,0,0-5.889-1.3.8.8,0,0,0-.513,1.009A.8.8,0,0,0,151.29-45.1Z" transform="translate(-6.96 -0.669)" stroke="#f7f7f7" stroke-width="0.5"/>
  </g>
</svg>
