<svg xmlns="http://www.w3.org/2000/svg" width="263.911" height="175.859" viewBox="0 0 263.911 175.859">
  <g id="Surveyors" transform="translate(20.588 12.163)">
    <path id="Path_19687" data-name="Path 19687" d="M123.762,42.69l15.817-10.519L155.4,43.4S137.524,59.487,123.762,42.69Z" fill="#231f20" opacity="0.3" style="mix-blend-mode: normal;isolation: isolate"/>
    <path id="Path_19688" data-name="Path 19688" d="M1.174,120.6l.2-10.072v-3.669c.073-4.318.182-8.63.2-12.942,0-1.915-.026-3.84-.094-5.74-.031-1.214-.119-2.439-.114-3.658,0-.613,0-1.225.026-1.837s.109-1.225.171-1.832c.1-.768.363-.675.753-.042a11.245,11.245,0,0,1,.679,1.313,7.176,7.176,0,0,1,.447,1.9c.046.622.135,1.245.15,1.868l.052,1.873c.031,1.246.057,2.5.068,3.747q0,3.751-.182,7.524c-.14,3.015-.031,6.145-.062,9.222q-.084,5.074-.161,10.15-.047,3.114-.1,6.227c-.036,3.15-.093,6.321-.041,9.445.046,2.429.212,4.81.384,7.192l.129,1.557a9.01,9.01,0,0,1-.031,2.076,1.9,1.9,0,0,1-.472.97,2.451,2.451,0,0,1-.285.317c-.161.114-.332,0-.519-.363a4.881,4.881,0,0,1-.561-1.64c-.2-1.085-.3-2.185-.389-3.285s-.15-2.226-.207-3.347c-.1-2.252-.13-4.525-.141-6.8,0-3.384.037-6.783.063-10.172Z" fill="#231f20"/>
    <path id="Path_19689" data-name="Path 19689" d="M.686,17.163c0-.82.042-1.64.042-2.465,0-.3-.042-.6-.036-.9,0-1.038.041-2.118.031-3.176A14.075,14.075,0,0,0,.635,9.218a7.569,7.569,0,0,1-.078-.9,4.335,4.335,0,0,1,0-.456A1.946,1.946,0,0,1,.686,7.4c.078-.2.255-.171.519,0a5.119,5.119,0,0,1,.452.306.863.863,0,0,1,.29.446,3.844,3.844,0,0,1,.141.9c0,.306.041.607.051.919a13.105,13.105,0,0,1-.072,1.858A20.775,20.775,0,0,0,2.108,14.1v2.5L2.082,18.16c0,.778-.036,1.556,0,2.33,0,.6.12,1.188.177,1.78,0,.129.041.259.046.389a.79.79,0,0,1-.114.519.761.761,0,0,1-.384.223,1.006,1.006,0,0,0-.218.067.4.4,0,0,1-.332-.109.845.845,0,0,1-.29-.41A14.428,14.428,0,0,1,.65,19.685V17.21Z" fill="#231f20"/>
    <path id="Path_19690" data-name="Path 19690" d="M131.406,4.942q-15.771-.057-31.536,0l-11.5.109q-20.28.057-40.55.192c-5.994.052-12.024.166-17.976.3l-11.479.275c-3.829.057-7.659.078-11.484,0C4.485,5.69,4.807,5.3,6.82,4.807A51.962,51.962,0,0,1,16.934,3.536c15.61-.389,31.214-.623,46.964-.56,9.413.036,19.2-.213,28.842-.291q15.89-.129,31.779-.15h19.559c9.86,0,19.792.088,29.579.14,7.618.046,15.091,0,22.636.129,1.661,0,3.29.057,4.972.125,1.556.052,2.843.156,3.928.249.519.047,1.038.093,1.468.15s.846.125,1.2.2A13.668,13.668,0,0,1,209.6,4a5.847,5.847,0,0,1,1.121.628,5.764,5.764,0,0,1,.783.571c.239.28-.291.41-1.4.451-.545,0-1.261.037-2.122.042q-.649,0-1.386-.031l-1.588-.042c-6.673-.228-13.58-.259-20.581-.327l-21.219-.15c-10.576-.063-21.2-.114-31.81-.109Z" fill="#231f20"/>
    <path id="Path_19691" data-name="Path 19691" d="M215.587,123.9l-.093-9.309c0-1.131-.094-2.263-.1-3.394-.031-4,0-7.992,0-11.987,0-1.775-.062-3.555-.119-5.314q-.078-1.692-.068-3.394a32.08,32.08,0,0,1,.234-3.394c.077-.706.384-.612.742,0a9.174,9.174,0,0,1,.565,1.225,7.964,7.964,0,0,1,.275.825l.12.451c0,.156.036.312.046.478l.109,1.723.052.861v.861l.031,3.457q0,3.456-.077,6.943c-.083,2.776.114,5.667.171,8.51q.068,4.671.145,9.383l.062,5.781c.032,2.921,0,5.853-.026,8.759,0,2.263.026,4.484-.15,6.746-.047.519-.068.992-.156,1.505a8.678,8.678,0,0,1-.254,1.183,3.225,3.225,0,0,1-.322.789,1.22,1.22,0,0,1-.84.67,1.845,1.845,0,0,1-.441.088c-.218,0-.338-.223-.379-.566a3.347,3.347,0,0,1,0-.617,8.248,8.248,0,0,1,.088-.831,58.515,58.515,0,0,0,.368-5.874c.047-2.034.063-4.11.063-6.2q0-4.671-.083-9.341Z" fill="#231f20"/>
    <path id="Path_19692" data-name="Path 19692" d="M215.39,26.981c.052-1.037.109-2.127.124-3.186,0-.389-.041-.773-.031-1.157a37.931,37.931,0,0,0-.083-4.074c-.052-.607-.15-1.224-.233-1.842a8.364,8.364,0,0,1-.094-1.193,4.685,4.685,0,0,1,.182-1.194c.062-.249.3-.213.586,0a3.15,3.15,0,0,1,.441.415,2.212,2.212,0,0,1,.218.275c.037.047.058.1.094.151a1.221,1.221,0,0,1,.041.155l.094.566.052.285.026.281.1,1.147A19.569,19.569,0,0,1,217,20.043c-.037.986.109,1.993.1,2.984,0,1.095-.026,2.18-.068,3.264l-.083,2c-.026,1.012-.1,2.024-.093,3.02,0,.779.1,1.557.15,2.315,0,.171.042.337.042.519,0,.633-.1.83-.556.949a2.153,2.153,0,0,1-.295.083c-.322.047-.633-.218-.711-.679a21.524,21.524,0,0,1-.239-4.266l.093-3.223Z" fill="#231f20"/>
    <path id="Path_19693" data-name="Path 19693" d="M127.638,154.037,98.8,154.3l-10.519.14q-18.542.108-37.077.072H34.76c-3.5,0-7,0-10.509-.072-1.754-.037-3.513-.094-5.267-.2a39.5,39.5,0,0,1-5.293-.57,2.635,2.635,0,0,1-1.334-.576.262.262,0,0,1-.083-.2.25.25,0,0,1,.062-.114c.063-.047.109-.093.146-.124s.041-.058.046-.047a.241.241,0,0,0,.2.13,5.743,5.743,0,0,0,1.089-.026,80.12,80.12,0,0,1,9.217-.332c7.109.166,14.239.176,21.385.2l21.494.067c8.6.042,17.561-.2,26.362-.327l29.06-.42,17.872-.27c9.019-.15,18.085-.275,27.042-.488,6.959-.166,13.778-.467,20.664-.685,1.515-.046,3-.114,4.53-.14,5.667-.109,7.494.073,8.7.753a3.889,3.889,0,0,1,.783.482c.244.27-.187.452-1.2.613a43.7,43.7,0,0,1-4.67.368c-12.278.519-25.251.82-38.277,1.038l-29.091.472Z" fill="#231f20"/>
    <path id="Path_19694" data-name="Path 19694" d="M97.41,63.909l-.083-10.135c0-1.23-.072-2.46-.077-3.695l-.037-13.025c0-1.93-.046-3.866-.093-5.776a55.9,55.9,0,0,1,.176-7.4c.083-.783.223-.648.421,0a18.544,18.544,0,0,1,.669,3.238l.135,1.874.062.939.031.939c.026,1.256.057,2.507.089,3.763.051,2.511.067,5.028,0,7.555-.052,3.026.1,6.17.15,9.263q.078,5.1.145,10.208.046,3.112.089,6.279c.057,3.17.088,6.357.192,9.5.077,2.445.254,4.842.384,7.265,0,.519.072,1.038.088,1.594.072,1.987,0,2.636-.467,3.066a2.088,2.088,0,0,1-.275.281c-.291.186-.639-.613-.753-2.076-.389-4.312-.56-8.869-.685-13.44-.072-3.4-.145-6.814-.213-10.223Z" fill="#231f20"/>
    <path id="Path_19695" data-name="Path 19695" d="M109.413,55.663l-.119-10.285c0-1.251-.073-2.5-.083-3.752q-.031-6.616,0-13.228V22.529a41.609,41.609,0,0,1,.425-7.514c.2-.815.317-.623.426.031.073.337.15.8.259,1.365l.151.913.067.519.026.519.083,1.9.052.95v.95q0,1.9.042,3.814c.026,2.543.036,5.1-.026,7.664-.062,3.067.093,6.259.15,9.4q.078,5.19.166,10.379l.109,6.372c.068,3.218.115,6.451.229,9.642.088,2.486.264,4.915.394,7.369.026.519.068,1.069.083,1.614.057,2.029-.036,2.683-.519,3.114a2.9,2.9,0,0,1-.285.28c-.3.176-.618-.628-.722-2.1-.358-4.364-.55-8.988-.69-13.632-.083-3.446-.171-6.912-.254-10.379Z" fill="#231f20"/>
    <path id="Path_19696" data-name="Path 19696" d="M70.249,94.671l-10.472-.026c-1.276,0-2.548.052-3.819.037l-13.492-.146H36.493c-2.543,0-5.091.052-7.639-.171-.794-.062-.674-.306,0-.55a11.835,11.835,0,0,1,3.363-.519c5.189-.151,10.347-.171,15.568-.1,3.113.052,6.378-.088,9.574-.135l10.55-.083,6.492-.062c3.274-.036,6.57-.057,9.818-.14,2.533-.067,5.008-.244,7.509-.358.55-.026,1.085-.073,1.645-.083,2.076-.057,2.735.073,3.166.566a2.353,2.353,0,0,1,.285.337c.171.384-.643.674-2.138.8-4.452.368-9.164.519-13.9.592l-10.566.083Z" fill="#231f20"/>
    <path id="Path_19697" data-name="Path 19697" d="M164.166,85.029,151.9,84.941h-4.473l-15.775-.15c-2.33,0-4.671,0-6.99.031-2.979.026-5.953.13-8.952-.073-.944-.067-.784-.374,0-.659a13.056,13.056,0,0,1,3.934-.6c6.061-.067,12.132-.119,18.25,0,3.664.073,7.473-.052,11.215-.078l12.355-.051h7.608c3.835-.026,7.691,0,11.5-.1,2.964-.057,5.864-.223,8.791-.337.644,0,1.277-.073,1.925-.089,2.408-.062,3.187.063,3.7.551a1.92,1.92,0,0,1,.343.337c.233.379-.747.695-2.507.82-5.225.363-10.747.451-16.284.519l-12.376.036Z" fill="#231f20"/>
    <path id="Path_19698" data-name="Path 19698" d="M198.96,30.469c.12-1.754.239-3.508.333-5.262.031-.639,0-1.282.046-1.92.125-2.253.223-4.505.265-6.746a29.775,29.775,0,0,0-.13-2.979c-.119-1.251-.311-2.507-.519-3.669-.067-.368.156-.446.519-.218a2.493,2.493,0,0,1,.618.581,3.035,3.035,0,0,1,.456.986,28.7,28.7,0,0,1,.473,4c.036.664.057,1.323.052,1.988s0,1.323-.063,1.987c-.1,1.583-.036,3.228-.083,4.842-.052,1.774-.135,3.549-.213,5.319l-.155,3.274c-.073,1.645-.171,3.306-.187,4.946,0,1.271.078,2.522.125,3.783,0,.275.041.545.046.825,0,1.038-.1,1.365-.591,1.557a2.458,2.458,0,0,1-.307.145c-.321.093-.669-.337-.747-1.1a48.482,48.482,0,0,1-.192-7.026c.052-1.775.13-3.55.223-5.325Z" fill="#231f20"/>
    <path id="Path_19699" data-name="Path 19699" d="M130.959,15.949a18.85,18.85,0,0,0-9.5,13.845,18.342,18.342,0,0,0,2.449,11.5,17.01,17.01,0,0,0,3.633,4.26,19.493,19.493,0,0,0,4.831,2.9c.431.192.893.311,1.334.472l.674.229.7.161c.462.1.918.223,1.385.3l1.422.192a10.23,10.23,0,0,0,1.261.072c.421,0,.846.042,1.266,0a19.568,19.568,0,0,0,2.522-.264c.416-.078.831-.141,1.241-.229l1.219-.342.6-.172.587-.233,1.167-.462a18.587,18.587,0,0,0,5.226-3.664c.358-.394.747-.757,1.084-1.172l.966-1.272a16.646,16.646,0,0,0,1.608-2.76c.286-.6.478-.846.618-.774s.213.452.155,1.069a8.15,8.15,0,0,1-.664,2.45,9.275,9.275,0,0,1-.83,1.494,8.6,8.6,0,0,1-1.173,1.557l-.617.649a5.257,5.257,0,0,1-.644.622l-1.375,1.142-1.5.986a5.755,5.755,0,0,1-.778.436l-.794.41a20.99,20.99,0,0,1-13.861,1.557,19.219,19.219,0,0,1-6.517-2.745,21.317,21.317,0,0,1-3.322-2.7,19.127,19.127,0,0,1-5.412-11.583,19.363,19.363,0,0,1,1.448-9.294,20.534,20.534,0,0,1,5.5-7.592,20.255,20.255,0,0,1,4.894-3.113,18.963,18.963,0,0,1,5.6-1.541,20.234,20.234,0,0,1,8.656.923,18.158,18.158,0,0,1,7.327,4.629,20.244,20.244,0,0,1,3.815,5.485,21.859,21.859,0,0,1,1.93,6.383c.057.493.109.981.166,1.469s0,.981.026,1.479a8.782,8.782,0,0,1-.073,1.276q-.062.576-.109,1.038c-.124.633-.254,1.137-.373,1.557a3.53,3.53,0,0,1-.41.965,3.994,3.994,0,0,1-.851.986c-.2.114-.255-.207-.177-.846.026-.321.12-.716.187-1.193s.13-1.038.218-1.661a20.6,20.6,0,0,0-2.045-11.084,17.8,17.8,0,0,0-7.924-8.173,18.828,18.828,0,0,0-8.412-1.858,17.557,17.557,0,0,0-8.3,2.236Z" fill="#231f20"/>
    <path id="Path_19700" data-name="Path 19700" d="M137.228,23.894c0-.862.047-1.728.052-2.595,0-.316-.036-.633-.031-.949,0-1.111.041-2.232.031-3.348,0-.519-.026-.991-.062-1.479a8.57,8.57,0,0,1-.057-1.894c.031-.2.29-.192.565-.041a1.177,1.177,0,0,1,.618.8,17.848,17.848,0,0,1,.182,3.871c-.052.784.057,1.588.077,2.382.026.877.031,1.754.037,2.631V27.35c.026.633.135,1.245.207,1.868a2.258,2.258,0,0,1,.037.41,2.551,2.551,0,0,1-.032.327.7.7,0,0,1-.114.218.729.729,0,0,1-.347.244,1.806,1.806,0,0,1-.2.072c-.2.047-.415-.16-.607-.518a6.582,6.582,0,0,1-.306-1.7c-.052-.571-.073-1.152-.088-1.739V23.941Z" fill="#231f20"/>
    <path id="Path_19701" data-name="Path 19701" d="M141.188,23.048c0-.836.031-1.671,0-2.512,0-.306-.037-.612-.037-.918V16.369c0-.482,0-.965-.041-1.442a9.952,9.952,0,0,1,0-1.843c.046-.384.783.089.851.784a28,28,0,0,1,.124,3.742c-.031.752.063,1.556.094,2.3.026.851.046,1.7.046,2.553v1.557c0,.794-.031,1.587-.051,2.376,0,.613.041,1.215.051,1.827a2.419,2.419,0,0,1,0,.4.992.992,0,0,1-.15.519.515.515,0,0,1-.275.208.671.671,0,0,1-.151.057c-.145.036-.29-.182-.4-.55a9.092,9.092,0,0,1-.109-1.64V23.027Z" fill="#231f20"/>
    <path id="Path_19702" data-name="Path 19702" d="M130.347,32.316,127.9,32.29c-.3,0-.592.031-.893.026l-3.155-.067c-.467,0-.934,0-1.4.036a7.658,7.658,0,0,1-1.79-.047c-.187-.036-.161-.249,0-.472a1.178,1.178,0,0,1,.778-.519,15.933,15.933,0,0,1,1.8-.1c.607,0,1.209,0,1.822.046.731.047,1.489-.031,2.236-.052l2.465-.026h1.521c.768,0,1.556,0,2.3-.031.591,0,1.172-.114,1.764-.166.13,0,.254-.036.389-.036.483,0,.638.072.732.415a1.808,1.808,0,0,1,.057.228c.041.26-.161.478-.519.519a19.192,19.192,0,0,1-3.212.244h-2.455Z" fill="#231f20"/>
    <path id="Path_19703" data-name="Path 19703" d="M151.333,35.923,149.1,34.542c-.275-.166-.555-.316-.825-.487-.949-.613-1.889-1.241-2.823-1.874-.415-.28-.84-.56-1.261-.825a10.557,10.557,0,0,1-1.557-1.126c-.295-.265.483-.472,1.1-.1,1.1.67,2.2,1.324,3.264,2.076.639.452,1.376.8,2.076,1.194.768.43,1.526.882,2.284,1.328l1.4.825c.711.41,1.416.846,2.127,1.246.556.316,1.126.576,1.687.871.124.063.249.12.368.192.447.27.545.421.472.727a.712.712,0,0,1-.046.208c-.083.212-.369.259-.716.109A28.346,28.346,0,0,1,153.59,37.3l-2.257-1.344Z" fill="#231f20"/>
    <path id="Path_19704" data-name="Path 19704" d="M142.9,35.554l-2.376-1.624c-.2-.135-.4-.265-.592-.384l-.15-.1s-.042-.036-.063-.036a.289.289,0,0,0-.067.036l-.213.125-.623.374c-.6.363-1.188.757-1.795,1.115l-6.4,3.8c-.939.571-1.878,1.167-2.8,1.749a33.173,33.173,0,0,1-3.633,2.153c-.4.192-.436,0-.228-.358a4.886,4.886,0,0,1,.483-.685,3.627,3.627,0,0,1,.82-.763c1.188-.814,2.366-1.634,3.585-2.4s2.46-1.5,3.721-2.206c1.505-.851,2.994-1.873,4.5-2.812l1.241-.768.617-.384.472-.291.255-.14.062-.036.062.031.135.067c.171.088.348.171.519.27l.348.208c.218.129.42.269.628.4.415.265.819.519,1.229.81l2.974,2.039,4.468,3.114c1.157.8,2.335,1.515,3.492,2.293.255.177.519.338.763.519a4.558,4.558,0,0,1,.9.851.967.967,0,0,1,.166.654,1.8,1.8,0,0,1,0,.254c-.031.109-.166.115-.4.078a2.581,2.581,0,0,1-.887-.368c-2.076-1.272-4.229-2.761-6.378-4.245-1.593-1.1-3.191-2.226-4.8-3.311Z" fill="#231f20"/>
    <path id="Path_19705" data-name="Path 19705" d="M159.553,64.345H153.04c-.789,0-1.557.062-2.371.067l-8.376.057c-1.24,0-2.486.052-3.71.094a34.746,34.746,0,0,1-4.764,0c-.519-.047-.415-.317,0-.582a4.552,4.552,0,0,1,2.076-.555c3.2-.114,6.419-.249,9.672-.2,1.941,0,3.965-.119,5.947-.176l6.56-.156,4.042-.078,6.108-.125c1.557-.051,3.114-.181,4.67-.249.348,0,.685-.046,1.038-.052a4.164,4.164,0,0,1,1.37.135.946.946,0,0,1,.587.462,1.753,1.753,0,0,1,.166.3c.1.322-.431.581-1.355.675-2.75.207-5.666.275-8.6.311l-6.56.083Z" fill="#231f20"/>
    <path id="Path_19706" data-name="Path 19706" d="M60.685,124.494H54.017c-.809,0-1.619.063-2.428.063l-8.584.025c-1.266,0-2.542.047-3.8.094a34.024,34.024,0,0,1-4.884,0c-.518-.052-.42-.358,0-.654a4.246,4.246,0,0,1,2.123-.638c3.28-.12,6.58-.26,9.912-.182,1.987.036,4.058-.119,6.092-.171l6.746-.145,4.151-.073c2.076-.042,4.188-.052,6.264-.119,1.609-.052,3.191-.2,4.795-.281.353,0,.7-.052,1.038-.057a3.93,3.93,0,0,1,1.406.145.994.994,0,0,1,.6.519,2.154,2.154,0,0,1,.166.333c.1.373-.446.669-1.391.778-2.812.244-5.8.311-8.821.348l-6.721.067Z" fill="#231f20"/>
    <path id="Path_19707" data-name="Path 19707" d="M160.762,69.742c-1.121-.037-2.247-.063-3.368-.078-.41,0-.82.036-1.23.026-1.443-.026-2.89-.068-4.338-.068-.644,0-1.287,0-1.925.052a11.866,11.866,0,0,1-2.471,0c-.259-.041-.218-.316,0-.6a1.556,1.556,0,0,1,1.064-.622c.825-.068,1.656-.13,2.491-.166s1.676,0,2.522.046c1.012.068,2.076-.046,3.088-.062h5.48c1.038,0,2.122.026,3.176,0,.819,0,1.624-.114,2.444-.145a4.5,4.5,0,0,1,.545,0c.685.057.9.207.991.6a1.712,1.712,0,0,1,.057.265c.026.3-.275.519-.742.587a29.1,29.1,0,0,1-4.406.233c-1.126,0-2.257-.031-3.389-.036Z" fill="#231f20"/>
    <path id="Path_19708" data-name="Path 19708" d="M66.2,133.42c-1.121-.036-2.247-.068-3.368-.078-.41,0-.82.031-1.23.026-1.443-.026-2.89-.067-4.338-.073-.644,0-1.287,0-1.926.057a12.283,12.283,0,0,1-2.47,0c-.259-.041-.218-.316,0-.6a1.558,1.558,0,0,1,1.038-.617c.825-.073,1.656-.135,2.491-.166s1.676,0,2.522.047c1.012.062,2.076-.047,3.088-.063h5.48c1.038,0,2.122.026,3.176,0,.819,0,1.624-.109,2.444-.14a4.99,4.99,0,0,1,.519,0c.685.057.9.208.991.6a1.751,1.751,0,0,1,.057.27c.026.29-.275.519-.742.581a29.9,29.9,0,0,1-4.406.239c-1.126,0-2.257-.037-3.389-.037Z" fill="#231f20"/>
    <path id="Path_19709" data-name="Path 19709" d="M183.963,14.906c-1.359-.036-2.719-.068-4.084-.083-.493,0-.991.036-1.489.026-1.749-.026-3.5-.073-5.252-.078-.778,0-1.556,0-2.33.057a17.971,17.971,0,0,1-2.989,0c-.311-.036-.264-.316,0-.6a2.02,2.02,0,0,1,1.292-.622c1.007-.073,2.019-.135,3.031-.167s2.029,0,3.051.047c1.22.068,2.491-.041,3.737-.057h6.658c1.281,0,2.594.031,3.845,0,.986,0,1.961-.114,2.953-.15a5.471,5.471,0,0,1,.653,0c.82.046,1.1.212,1.215.6a2,2,0,0,1,.078.264c.036.3-.322.519-.883.576a43.692,43.692,0,0,1-5.365.249l-4.1-.031Z" fill="#231f20"/>
    <g id="Group_11479" data-name="Group 11479" opacity="0.4">
      <path id="Path_19710" data-name="Path 19710" d="M183.6,17.973c.472.031.95.036,1.432.031.177,0,.353-.047.519-.047h1.9a7.376,7.376,0,0,0,.84-.057,2.528,2.528,0,0,1,1.1,0c.114.031.094.286,0,.545s-.249.519-.441.519a8.247,8.247,0,0,1-2.128.114,8.271,8.271,0,0,0-1.333.1c-.493.031-1,.047-1.495.057h-.929c-.472,0-.944-.052-1.422-.062-.368,0-.742.031-1.131,0a1.6,1.6,0,0,1-.259,0c-.317-.057-.374-.229-.312-.587a.432.432,0,0,1,.042-.228.709.709,0,0,1,.467-.519,8.52,8.52,0,0,1,1.749,0c.451,0,.913.057,1.39.052Z" fill="#231f20"/>
    </g>
    <g id="Group_11480" data-name="Group 11480" opacity="0.4">
      <path id="Path_19711" data-name="Path 19711" d="M61.485,49.083c.472.031.954.036,1.437.031.177,0,.348-.047.519-.047h1.9a7.481,7.481,0,0,0,.846-.057,2.505,2.505,0,0,1,1.09,0c.114.031.1.286,0,.545s-.249.519-.441.519a8.44,8.44,0,0,1-2.123.119,7.885,7.885,0,0,0-1.338.1c-.519.031-.992.047-1.495.057H60.95c-.472,0-.944-.052-1.417-.062-.368,0-.747.036-1.131,0a1.4,1.4,0,0,1-.259,0c-.322-.057-.379-.229-.317-.587a.434.434,0,0,1,.042-.228.729.729,0,0,1,.467-.519,8.52,8.52,0,0,1,1.749,0c.456,0,.918.057,1.39.052Z" fill="#231f20"/>
    </g>
    <path id="Path_19712" data-name="Path 19712" d="M56.871,25.077c-2.537-2.3-5.838,2.8-2.745,4.068,3.254,1.334,5.371-4.374,1.438-4.234" fill="#231f20"/>
    <path id="Path_19713" data-name="Path 19713" d="M56.306,30.012a3.174,3.174,0,0,1-1.687.109,3.46,3.46,0,0,1-1.474-.685,2.481,2.481,0,0,1-.788-1,2.838,2.838,0,0,1,.057-2.075,3.832,3.832,0,0,1,1.079-1.526,3.5,3.5,0,0,1,1.479-.815,2.274,2.274,0,0,1,1.147,0,1.752,1.752,0,0,1,.918.618c.146.182-.1.363-.4.519a2.372,2.372,0,0,1-.841.259,1.412,1.412,0,0,0-1,.2,3.481,3.481,0,0,0-1,.94,1.453,1.453,0,0,0-.254.8,1.249,1.249,0,0,0,.2.706,1.822,1.822,0,0,0,1.624.716,1.9,1.9,0,0,0,1.1-.519,2.241,2.241,0,0,0,.774-1.728.944.944,0,0,0-.255-.581,1.061,1.061,0,0,0-.519-.254l-.264-.042c-.348-.067-.478-.119-.581-.555a1.3,1.3,0,0,0-.073-.26.575.575,0,0,1,.5-.644.547.547,0,0,1,.1,0,2.3,2.3,0,0,1,1.115.135,2.234,2.234,0,0,1,1.038.84,2.556,2.556,0,0,1,.41,1.266,3.283,3.283,0,0,1-.156,1.189,3.777,3.777,0,0,1-.84,1.448,3.587,3.587,0,0,1-1.412.96Z" fill="#231f20"/>
    <path id="Path_19714" data-name="Path 19714" d="M69.2,25.077c-2.537-2.3-5.838,2.8-2.745,4.068,3.254,1.334,5.371-4.374,1.437-4.234" fill="#231f20"/>
    <path id="Path_19715" data-name="Path 19715" d="M68.641,30.012a3.193,3.193,0,0,1-1.692.109,3.46,3.46,0,0,1-1.474-.685,2.418,2.418,0,0,1-.757-1,2.838,2.838,0,0,1,.052-2.075,3.832,3.832,0,0,1,1.079-1.526,3.5,3.5,0,0,1,1.479-.815,2.274,2.274,0,0,1,1.147,0,1.756,1.756,0,0,1,.918.618c.146.182-.1.363-.4.519a2.361,2.361,0,0,1-.84.259,1.414,1.414,0,0,0-1,.2,3.408,3.408,0,0,0-1,.94,1.42,1.42,0,0,0-.259.8,1.242,1.242,0,0,0,.2.706,1.826,1.826,0,0,0,1.629.716,1.913,1.913,0,0,0,1.1-.519,2.243,2.243,0,0,0,.773-1.728.884.884,0,0,0-.254-.581,1.056,1.056,0,0,0-.493-.254l-.265-.042c-.342-.067-.477-.119-.581-.555a1.3,1.3,0,0,0-.072-.26.575.575,0,0,1,.5-.644.532.532,0,0,1,.1,0,2.306,2.306,0,0,1,1.116.135,2.244,2.244,0,0,1,1.038.84,2.556,2.556,0,0,1,.41,1.266,3.305,3.305,0,0,1-.156,1.189,3.79,3.79,0,0,1-.84,1.448,3.594,3.594,0,0,1-1.412.96Z" fill="#231f20"/>
    <path id="Path_19716" data-name="Path 19716" d="M28.75,46.358c.415-.368.794-.679,1.246-1.037a14.976,14.976,0,0,1,1.416-.94c.929-.55,1.858-1.038,2.787-1.505,1.858-.949,3.716-1.837,5.511-2.786.654-.353,1.287-.722,1.889-1.111a8.917,8.917,0,0,0,1.557-1.2c.109-.14.124-.145.14-.223a1.694,1.694,0,0,0,0-.285,2.6,2.6,0,0,0,0-.306,1.256,1.256,0,0,0-.192-.519,2.125,2.125,0,0,0-1.074-.737,9.443,9.443,0,0,0-3.41-.348,20.936,20.936,0,0,0-3.6.519,17.8,17.8,0,0,0-1.749.519c-.28.1-.56.208-.82.322l-.368.187-.405.233c-2.076,1.194-4.182,2.315-6.331,3.3-1.385.634-2.787,1.23-4.214,1.749a32.3,32.3,0,0,1-4.4,1.209c-.929.187-.9-.212-.249-.809A12.308,12.308,0,0,1,19.96,40.51a72,72,0,0,0,8.251-3.632c.669-.348,1.328-.7,1.992-1.069l1.038-.571a8.728,8.728,0,0,1,1.22-.519,20.916,20.916,0,0,1,4.753-.991,16.075,16.075,0,0,1,4.671.119,6.411,6.411,0,0,1,1.229.4,3.774,3.774,0,0,1,1.178.8,3.058,3.058,0,0,1,.768,1.328l.083.369.032.368a1.6,1.6,0,0,1,0,.353v.394a3,3,0,0,1-.151.519,2.225,2.225,0,0,1-.259.442,3.011,3.011,0,0,1-.265.321,2.549,2.549,0,0,1-.27.27,8.785,8.785,0,0,1-1.1.856,53.276,53.276,0,0,1-5.542,3.088c-1.853.944-3.736,1.847-5.449,2.89a8.375,8.375,0,0,0-.752.519c-.234.187-.467.374-.706.576-.483.4-.945.82-1.38,1.251a8.813,8.813,0,0,0-1.158,1.37,16.855,16.855,0,0,1-1.157,1.6,24.194,24.194,0,0,1-2.076,2.148A15.287,15.287,0,0,1,22.456,55.5a25.228,25.228,0,0,1-5.48,2.335A32.014,32.014,0,0,1,8,59.249c-.664,0-1.323,0-2-.042a10.3,10.3,0,0,1-2.594-.462A1.938,1.938,0,0,1,2.373,58,2.5,2.5,0,0,1,2.1,57.6c-.156-.379.892-.607,2.595-.488a37.749,37.749,0,0,0,7.784-.332,26.114,26.114,0,0,0,7.493-2.3,17.775,17.775,0,0,0,2.48-1.469c.187-.14.379-.275.561-.42s.342-.28.519-.451c.368-.343.732-.685,1.074-1.038a13.688,13.688,0,0,0,.95-1.064c.29-.358.519-.727.851-1.194a10.739,10.739,0,0,1,1.1-1.38c.394-.42.8-.81,1.2-1.168Z" fill="#231f20"/>
    <path id="Path_19717" data-name="Path 19717" d="M9.254,19.763a20.107,20.107,0,0,1,4.214-3.036,12.228,12.228,0,0,1,2.517-.986,11.232,11.232,0,0,1,2.688-.353,22.766,22.766,0,0,1,5.1.587c1.639.358,3.2.737,4.8,1.126,2.319.571,4.67,1.121,6.948,1.8,2.029.6,4.048,1.241,6.046,2,1,.374,1.987.784,2.963,1.251a14.181,14.181,0,0,1,2.87,1.733,5,5,0,0,1,.664.654,2.924,2.924,0,0,1,.55.939,2.026,2.026,0,0,1,.031,1.251,2.717,2.717,0,0,1-.586.986,4.2,4.2,0,0,1-1.63,1.012,8.333,8.333,0,0,1-1.676.415,12.153,12.153,0,0,1-3.332.052c-1.037-.125-2.075-.265-3.155-.457a18.315,18.315,0,0,1-3.233-.84c-.519-.2-1.037-.441-1.525-.68l-1.37-.7a.484.484,0,0,0-.3,0l-.576.058c-.4.041-.8.077-1.2.109-.8.057-1.6.093-2.4.093a28.42,28.42,0,0,1-4.089-.311c-.342-.042-.68-.1-1.038-.167s-.674-.124-1.006-.207-.67-.156-1-.254L20,25.684l-.244-.078-.124-.036a.038.038,0,0,1-.037-.031.516.516,0,0,0-.3.083c-.208.1-.436.239-.665.368a15.811,15.811,0,0,1-1.427.732,9.715,9.715,0,0,1-3.155.846,2.823,2.823,0,0,1-.851,0c-.176-.036-.254-.083-.244-.14a3.906,3.906,0,0,1,.971-.519,12.971,12.971,0,0,0,2.195-1.168c.425-.28.877-.591,1.354-.944l.784-.555.249-.156a2.443,2.443,0,0,1,.436-.213.6.6,0,0,1,.233-.067,1.758,1.758,0,0,1,.239-.032c.083,0,.161.037.244,0H19.9v0h.062l.285.078.182.047.368.093c.244.063.519.115.742.156l.742.171.748.135a25.638,25.638,0,0,0,3.015.343,28.563,28.563,0,0,0,3.041,0c.519-.031,1.038-.068,1.556-.12l.789-.077h.213a1.489,1.489,0,0,1,.353,0,1.835,1.835,0,0,1,.384.041h.14l.182.068,1.037.518c.3.156.6.307.888.442a13.112,13.112,0,0,0,1.733.685,26.22,26.22,0,0,0,3.825.778l1,.135c.317.036.706.093.955.114A11.765,11.765,0,0,0,44,27.345a7.862,7.862,0,0,0,1.749-.369,3.588,3.588,0,0,0,.679-.332c.161-.135.327-.264.369-.389a.269.269,0,0,0,.041-.27,1.841,1.841,0,0,0-.41-.56,7.873,7.873,0,0,0-1.619-1.132,28.3,28.3,0,0,0-3.975-1.738c-2.776-1.007-5.661-1.811-8.531-2.6-1.557-.42-3.165-.814-4.759-1.2s-3.2-.774-4.769-1.085a18.783,18.783,0,0,0-4.67-.4,9.722,9.722,0,0,0-4.245,1.448,22.719,22.719,0,0,0-4.535,3.7,36.588,36.588,0,0,0-3.789,4.6c-3.533,4.951-6.777,10.2-10.119,15.283a130.044,130.044,0,0,1-8.1,11.551l-1.038,1.178c-.353.379-.7.768-1.08,1.142a15.273,15.273,0,0,1-3.3,2.6c-.207.108-.384.212-.56.29a4.182,4.182,0,0,1-.488.171,2.2,2.2,0,0,1-.773.135,3.657,3.657,0,0,1-.592,0c-.213-.046,0-.28.576-.638a22.965,22.965,0,0,0,2.341-2A43.394,43.394,0,0,0-13.61,52c1.282-1.666,2.511-3.414,3.726-5.189,2.444-3.55,4.821-7.265,7.208-10.97,1.774-2.761,3.56-5.532,5.423-8.3.939-1.375,1.9-2.74,2.958-4.074.518-.664,1.084-1.328,1.681-1.967s1.183-1.209,1.816-1.79Z" fill="#231f20"/>
    <path id="Path_19718" data-name="Path 19718" d="M40.079,29.576a1.92,1.92,0,0,0-1.63,2.076c.156,1.417,2.138,2.454,3.4,2.6C45.138,34.682,48.382,30.095,40.079,29.576Z" fill="#231f20"/>
    <path id="Path_19719" data-name="Path 19719" d="M45.844,33.323a3.5,3.5,0,0,1-1.375,1.188,4.5,4.5,0,0,1-1.614.467,4.09,4.09,0,0,1-1.23,0,5.677,5.677,0,0,1-1.863-.8,4.463,4.463,0,0,1-1.437-1.453,2.353,2.353,0,0,1-.249-1.92,2.535,2.535,0,0,1,.643-1.038,1.706,1.706,0,0,1,1.157-.493c.286,0,.208.265.088.519a5.761,5.761,0,0,1-.326.778,1.375,1.375,0,0,0-.307.857.762.762,0,0,0,0,.243,2.359,2.359,0,0,0,.81,1.21,3.588,3.588,0,0,0,2.013.8,3.048,3.048,0,0,0,2.18-.695,1.22,1.22,0,0,0,.519-1.069c-.1-.561-.841-1.064-1.6-1.277a6.6,6.6,0,0,0-1.894-.182h-.42a.91.91,0,0,1-.519-.166.922.922,0,0,1-.218-.519,2.612,2.612,0,0,0-.057-.285.521.521,0,0,1,.145-.426.821.821,0,0,1,.519-.29,5.3,5.3,0,0,1,1.977.046,6.117,6.117,0,0,1,2.076.784,3.173,3.173,0,0,1,1.339,1.51,2.355,2.355,0,0,1,.145,1.183,2.65,2.65,0,0,1-.379,1.038Z" fill="#231f20"/>
    <path id="Path_19720" data-name="Path 19720" d="M61.6,44.625l-3.9-.093H56.285c-1.671-.052-3.342-.109-5.013-.135-.742,0-1.484,0-2.221.026a19.285,19.285,0,0,1-2.844-.026c-.3-.036-.259-.265,0-.519a2.079,2.079,0,0,1,1.241-.519c.96-.067,1.925-.13,2.89-.161s1.93,0,2.906.052c1.168.062,2.377-.036,3.565-.052h6.347c1.224,0,2.449.026,3.663,0,.94-.026,1.868-.14,2.808-.2.2,0,.41-.042.622-.042.774-.026,1.064.146,1.173.566a1.54,1.54,0,0,1,.073.29c.026.317-.3.576-.82.644a40.361,40.361,0,0,1-5.132.244Z" fill="#231f20"/>
    <path id="Path_19721" data-name="Path 19721" d="M61.6,73.623c-1.79,1.526-3.591,3.057-5.423,4.562-.669.55-1.313,1.136-2.008,1.665-.55.416-1.111.826-1.707,1.215-.307.2-.6.379-.976.576a1.728,1.728,0,0,1-1.557.207l-.451-.244c-.151-.093-.234-.16-.327-.223a4.57,4.57,0,0,1-.519-.4c-.343-.27-.67-.545-.991-.825-.639-.556-1.261-1.127-1.879-1.692l-3.036-2.7c-.633-.581-1.276-1.152-1.894-1.749a17.43,17.43,0,0,1-1.728-1.925c-.332-.436-.062-.586.519-.519a4.7,4.7,0,0,1,2.221.945c1.308,1.147,2.657,2.247,3.908,3.451s2.532,2.392,3.8,3.5a5.649,5.649,0,0,0,.518.41l.224.166.088.068a.178.178,0,0,0,.181,0,1.279,1.279,0,0,0,.276-.14,11.728,11.728,0,0,0,.98-.659c.654-.483,1.3-1.038,1.951-1.557,1.832-1.469,3.633-3,5.418-4.551l1.65-1.438.831-.721.519-.446a1.8,1.8,0,0,1,.643-.4.39.39,0,0,1,.265-.047,2.724,2.724,0,0,1,.264.088,2.514,2.514,0,0,1,.519.265c.4.239.561.358.81.519l1.37.955,2.709,1.909c1.406.971,2.838,1.838,4.25,2.777.306.207.622.394.929.612a4.788,4.788,0,0,1,1.115.981,1.2,1.2,0,0,1,.182.841,2.459,2.459,0,0,1-.031.363c-.052.171-.229.218-.519.207a2.457,2.457,0,0,1-1.142-.389c-2.594-1.51-5.189-3.337-7.784-5.158L64.3,73.167l-.716-.519-.353-.239-.067-.047h-.026l-.161.14L61.6,73.685Z" fill="#231f20"/>
    <path id="Path_19722" data-name="Path 19722" d="M127.509,121.64l-.032-5.921c0-.716-.062-1.432-.067-2.154v-7.591c0-1.127-.052-2.258-.1-3.374-.031-.716-.083-1.432-.1-2.153a15.806,15.806,0,0,1,.109-2.164c.052-.446.337-.384.654,0a3.788,3.788,0,0,1,.757,1.878c.161,2.912.265,5.833.192,8.786-.052,1.764.088,3.6.135,5.4l.109,5.952.062,3.669c.037,1.848.057,3.71.125,5.548.052,1.427.2,2.823.285,4.239,0,.317.052.623.057.939a3.109,3.109,0,0,1-.114,1.261.918.918,0,0,1-.456.519,1.932,1.932,0,0,1-.286.156c-.316.093-.586-.389-.721-1.219-.291-2.491-.441-5.143-.519-7.784-.042-1.983-.078-3.97-.119-5.958Z" fill="#231f20"/>
    <path id="Path_19723" data-name="Path 19723" d="M152.417,136.954h-5.4c-.659,0-1.313.057-1.972.062l-6.953.036c-1.038,0-2.076.068-3.083.13a22.688,22.688,0,0,1-3.944.062c-.415-.041-.368-.352-.031-.685a2.992,2.992,0,0,1,1.7-.794c.664-.077,1.334-.114,2-.145l2.009-.078c1.344-.041,2.688-.041,4.042,0,1.619.057,3.295-.083,4.951-.114,1.816-.031,3.632-.047,5.459-.057h8.443c1.308,0,2.595-.119,3.9-.145h.862c1.079.036,1.427.176,1.608.638a1.936,1.936,0,0,1,.12.291c.072.29-.389.6-1.152.622-2.273.151-4.671.187-7.12.2l-5.438.036Z" fill="#231f20"/>
    <path id="Path_19724" data-name="Path 19724" d="M220.87,57.407a70.418,70.418,0,0,1-5.345-11.5c-.519-1.463-1.007-2.911-1.422-4.38-1.479-5.189-2.548-10.441-4.3-15.454a47.75,47.75,0,0,0-2.761-6.455,11.241,11.241,0,0,0-1.235-1.749,10.143,10.143,0,0,0-1.557-1.422,16.788,16.788,0,0,0-3.86-2.008c-.867-.343-.665-.612.207-.706a6.816,6.816,0,0,1,1.764.094,7.088,7.088,0,0,1,2.4.866,10.38,10.38,0,0,1,3.607,3.633c.233.358.42.726.622,1.1l.519,1.069c.353.711.649,1.442.971,2.169a62.367,62.367,0,0,1,2.823,8.988c.9,3.632,1.935,7.379,3.041,11a58.462,58.462,0,0,0,2.075,5.864c.779,1.92,1.7,3.788,2.652,5.641,1.209,2.257,2.486,4.494,3.908,6.627a71.127,71.127,0,0,0,7.1,9.221,43.824,43.824,0,0,0,3.165,3.114,35.756,35.756,0,0,0,3.436,2.761l.773.57c.265.177.519.343.81.519.518.327.908.613,1.24.867s.628.42.846.6a2.386,2.386,0,0,1,.788.934,2.615,2.615,0,0,1,.177.415c.078.384-.939.15-2.6-.654a36.633,36.633,0,0,1-6.746-4.94,63.094,63.094,0,0,1-5.853-6.227,83.326,83.326,0,0,1-7.266-10.53Z" fill="#231f20"/>
    <path id="Path_19725" data-name="Path 19725" d="M198.151,57.173a11.352,11.352,0,0,0-3.866-3.01,19.1,19.1,0,0,0-4.914-1.5c-1.282-.238-2.6-.4-3.949-.721a18.221,18.221,0,0,1-3.5-1.162,7.861,7.861,0,0,1-3.114-2.4,4.709,4.709,0,0,1-.519-.9,3.014,3.014,0,0,1-.321-1.105,2.3,2.3,0,0,1,.264-1.318,2.722,2.722,0,0,1,.851-.909,5.44,5.44,0,0,1,1.884-.762,13.511,13.511,0,0,1,1.832-.281,44.661,44.661,0,0,1,6.336,0c1.334.1,2.662.218,3.991.415.659.1,1.323.208,1.977.374.327.083.654.171.975.27s.634.28.96.4c.405.161.582.368.519.488s-.332.2-.705.295a8.276,8.276,0,0,1-3.555.374c-1.308-.166-2.6-.3-3.928-.389s-2.6-.218-3.913-.244a20.667,20.667,0,0,0-3.762.2,4.684,4.684,0,0,0-1.464.467.849.849,0,0,0-.285.234c-.047.052-.073.155-.047.347a3,3,0,0,0,.327.81l.275.4c.1.129.234.244.348.368a6.285,6.285,0,0,0,1.837,1.168,21.71,21.71,0,0,0,4.6,1.255l2.688.488a24.593,24.593,0,0,1,2.755.675,15.22,15.22,0,0,1,5.1,2.636,13.527,13.527,0,0,1,2.429,2.6c.176.233.327.488.493.731.078.12.161.255.239.4l.2.384c.26.519.519,1,.773,1.484a23.613,23.613,0,0,0,6.227,7.68,17.731,17.731,0,0,0,6.778,3.114c.519.14,1.069.2,1.608.306s.924.151,1.282.208a8.636,8.636,0,0,1,.872.192,2.664,2.664,0,0,1,.581.207,2.177,2.177,0,0,1,.389.306c.1.1.239.187.3.26s-.062.233-.461.41a4.806,4.806,0,0,1-1.853.265A17.184,17.184,0,0,1,210.4,71a20.491,20.491,0,0,1-6.2-4.67,27.093,27.093,0,0,1-3.389-4.639c-.482-.82-.923-1.671-1.339-2.476a10,10,0,0,0-1.375-2.029Z" fill="#231f20"/>
    <path id="Path_19726" data-name="Path 19726" d="M225.25,88.485c-.774-1.037-1.505-2.075-2.232-3.113-.27-.379-.56-.732-.82-1.116-.908-1.349-1.764-2.729-2.651-4.079-.4-.6-.836-1.172-1.272-1.733a18.188,18.188,0,0,1-1.64-2.185c-.28-.519,1.126-.721,1.832.094a35.8,35.8,0,0,1,3.28,4.6c.576.975,1.318,1.883,1.982,2.817.732,1.038,1.464,2.076,2.226,3.052.473.617.945,1.23,1.443,1.816a29.336,29.336,0,0,0,2.377,2.6c.337.295.69.565,1.038.835s.736.519,1.1.747c.155.109.321.208.482.312.6.4.716.622.6,1.079-.031.1-.047.213-.083.306-.13.322-.519.374-1.038.125a14.67,14.67,0,0,1-4.11-3.155c-.9-.945-1.738-1.946-2.537-2.958Z" fill="#231f20"/>
    <path id="Path_19727" data-name="Path 19727" d="M-2.194,67.915c.971-1.1,1.972-2.174,2.989-3.233.369-.389.711-.8,1.095-1.178a40.582,40.582,0,0,1,4.349-3.7c.685-.519,1.386-1,2.107-1.463l.726-.426c.255-.119.519-.259.774-.358a4.235,4.235,0,0,1,.851-.239c.145-.026.3-.046.441-.062a4.449,4.449,0,0,1,.462,0c.384.036.28.436.036.841a4.49,4.49,0,0,1-.441.586,1.459,1.459,0,0,1-.27.239,1.276,1.276,0,0,1-.322.181A12.828,12.828,0,0,0,8.06,60.51c-.845.571-1.681,1.2-2.532,1.842a25.756,25.756,0,0,0-2.813,2.724q-1.509,1.557-2.952,3.2c-.592.669-1.178,1.349-1.749,2.039-.862,1.038-1.739,2.1-2.527,3.2-.623.846-1.121,1.754-1.7,2.626-.13.192-.239.389-.374.576-.519.7-.783.851-1.25.711a1.911,1.911,0,0,1-.317-.1c-.317-.161-.327-.6-.047-1.152A29.394,29.394,0,0,1-5.027,71.3c.893-1.168,1.842-2.305,2.8-3.436Z" fill="#231f20"/>
    <path id="Path_19728" data-name="Path 19728" d="M198.135,69.664V67.65c0-.244-.052-.482-.046-.731,0-.867.072-1.739.088-2.6,0-.389,0-.778-.026-1.157a4.327,4.327,0,0,1,.047-1.484c.041-.156.316-.135.6,0s.582.352.623.622c.078.483.14.971.182,1.458a8.485,8.485,0,0,1-.042,1.5,15.65,15.65,0,0,0,.078,1.837l.036,2.029V70.38c0,.633,0,1.271.047,1.9,0,.488.145.976.14,1.479V74.1a.759.759,0,0,1-.155.451.519.519,0,0,1-.374.14,1.736,1.736,0,0,1-.228,0,.61.61,0,0,1-.519-.467,9.24,9.24,0,0,1-.452-2.543c-.031-.664-.036-1.333-.062-2Z" fill="#231f20"/>
    <path id="Path_19729" data-name="Path 19729" d="M201.441,24.631l-.379,4.473c-.047.519-.052,1.09-.1,1.629-.161,1.92-.343,3.835-.488,5.755-.063.851-.1,1.708-.125,2.553a16.992,16.992,0,0,1-.223,3.249c-.062.337-.285.291-.519,0a2.593,2.593,0,0,1-.591-1.469c0-1.11.031-2.226.083-3.336s.181-2.227.316-3.342c.171-1.334.177-2.73.27-4.1.1-1.5.223-3.01.348-4.515l.228-2.776c.1-1.4.239-2.807.317-4.2.062-1.08.051-2.149.088-3.228a6.5,6.5,0,0,1,.026-.711c.046-.892.233-1.178.6-1.308a1.458,1.458,0,0,1,.239-.088c.125-.026.223.062.317.234a1.487,1.487,0,0,1,.15.742c.042,1.9-.057,3.918-.187,5.931-.109,1.5-.212,3.01-.321,4.51Z" fill="#231f20"/>
    <path id="Path_19730" data-name="Path 19730" d="M199.168,68.792c.026-.457,0-.913,0-1.38,0-.172-.052-.338-.057-.519,0-.613-.036-1.23-.073-1.848a6.661,6.661,0,0,0-.109-.809,2.693,2.693,0,0,1-.072-1.038c0-.109.218-.12.43-.057a.734.734,0,0,1,.519.389,8,8,0,0,1,.286,2.076,9.407,9.407,0,0,0,.2,1.292,12.364,12.364,0,0,1,.13,1.463v.908c0,.457-.026.908,0,1.36a8.9,8.9,0,0,0,.166,1.038,1.746,1.746,0,0,1,.036.228c0,.286-.078.369-.462.41a2.326,2.326,0,0,1-.264,0,.576.576,0,0,1-.607-.316,5.008,5.008,0,0,1-.2-1.853c0-.462.037-.924,0-1.38Z" fill="#231f20"/>
    <path id="Path_19731" data-name="Path 19731" d="M141.873,13.9V29.415l15.106,9.211c1.5-4.265,4.364-15.957-6.99-22.158C149.989,16.468,144.914,13.3,141.873,13.9Z" fill="#231f20"/>
    <path id="Path_19732" data-name="Path 19732" d="M165.339,85.989l-11.194.057-4.084.058-14.4.031c-2.127,0-4.265.041-6.378.077-2.714.042-5.443.125-8.157.032-1.687-.057.457-.914,3.575-.971,5.537-.093,11.074-.176,16.663-.15,3.342,0,6.819-.109,10.234-.161l11.276-.161,6.938-.093c3.5-.057,7.021-.1,10.5-.192,2.7-.073,5.35-.218,8.023-.333l1.754-.077c2.2-.068,2.906,0,3.383.373a1.875,1.875,0,0,1,.312.249c.207.281-.68.519-2.289.613-4.764.311-9.8.436-14.857.519l-11.3.155Z" fill="#231f20"/>
    <path id="Path_19733" data-name="Path 19733" d="M70.857,95.771l-9.627.088c-1.172,0-2.345.073-3.513.073H45.335c-1.831,0-3.674.031-5.49.073-2.335.026-4.67.078-7.016-.052-.726-.042-.628-.254,0-.478a10.8,10.8,0,0,1,3.114-.518c4.753-.182,9.512-.25,14.317-.239,2.875,0,5.864-.135,8.822-.208l9.694-.181,5.967-.12c3.01-.067,6.036-.124,9.025-.228,2.324-.088,4.6-.265,6.9-.389.519-.026,1-.068,1.516-.088a11.874,11.874,0,0,1,2.013.046,1.475,1.475,0,0,1,.9.426,1.458,1.458,0,0,1,.259.29c.161.338-.581.582-1.956.706-4.089.353-8.422.519-12.766.649l-9.714.187Z" fill="#231f20"/>
    <path id="Path_19734" data-name="Path 19734" d="M98.329,63.919l.135-9.3V51.226l.218-11.935c.031-1.765.031-3.545,0-5.3,0-2.252,0-4.52.192-6.772.052-.706.155-.612.306,0a17.365,17.365,0,0,1,.488,2.979c.135,2.3.129,4.6.124,6.912s-.036,4.619-.119,6.938c-.093,2.776-.042,5.667-.062,8.505q-.053,4.671-.1,9.372l-.026,5.729c0,2.912-.062,5.833-.047,8.724,0,2.247.094,4.447.141,6.668,0,.488,0,.965.041,1.458,0,1.827-.057,2.408-.389,2.8a1.928,1.928,0,0,1-.208.26c-.212.171-.467-.571-.519-1.91-.212-3.964-.244-8.152-.249-12.35,0-3.114.031-6.253.047-9.383Z" fill="#231f20"/>
    <path id="Path_19735" data-name="Path 19735" d="M227.751,80.509a14.463,14.463,0,0,0,1.723-1.53c.192-.208.337-.457.519-.67a15.951,15.951,0,0,0,1.8-2.46,6.92,6.92,0,0,0,.519-1.245c.089-.28.156-.56.244-.836a2.464,2.464,0,0,1,.343-.8c.1-.161.519-.031.851.229s.643.674.55,1.038a9.709,9.709,0,0,1-1.77,3.45,11.644,11.644,0,0,0-.68.96,9.662,9.662,0,0,1-.679.976,15.088,15.088,0,0,1-1.8,1.879c-.415.337-.82.685-1.266.986l-.519.347-.519.312c-.337.223-.711.384-1.038.591a12.965,12.965,0,0,1-1.7.836,2.053,2.053,0,0,1-.394.14c-.519.093-.711,0-.872-.389a1.771,1.771,0,0,1-.1-.27.705.705,0,0,1,.358-.789c.861-.55,1.676-1.038,2.548-1.5a14.4,14.4,0,0,0,1.837-1.281Z" fill="#231f20"/>
    <path id="Path_19736" data-name="Path 19736" d="M234.372,86.6a4.073,4.073,0,0,1-.456-.395l-.286-.275c-.155-.171-.327-.342-.477-.519-.311-.347-.6-.7-.877-1.038l-.794-1.037a10.067,10.067,0,0,0-.752-.872,5.4,5.4,0,0,0-.753-.664l-.1-.063h0V81.63a2.588,2.588,0,0,0,.083-.249l.052-.223v-.176c0-.223-.088-.229.031-.14a.8.8,0,0,0,.286.114,2.6,2.6,0,0,0,.519.093h.036v.094a1.987,1.987,0,0,0,.026.2q.042.245.109.519l.036.135.037.093a1.06,1.06,0,0,0,.077.2,5.328,5.328,0,0,0,.244.519c.519,1.037,1.282,2.049,1.926,3.113.456.8,1.956,3.031,1.868,4.152a2.206,2.206,0,0,1-.109.887,1.649,1.649,0,0,1-.519.825,1.425,1.425,0,0,1-.882.291,2.662,2.662,0,0,1-.9-.146,6.685,6.685,0,0,1-2.034-1.23c-.172-.134-.343-.275-.519-.42l-.249-.218-.125-.109-.083-.078-.566-.628c-.8-.793-1.556-1.608-2.319-2.423l-1-1.079-.244-.255-.119-.119-.052-.052h0l.073-.1c.026-.032.057-.078.078-.1a.215.215,0,0,0,.062,0,.418.418,0,0,0,.109-.078.322.322,0,0,0,.1-.218v-.088c.155,1.479.041.41.078.737h0a.2.2,0,0,1-.032-.073.307.307,0,0,0-.036-.1c-.1-.161-.083-.067.047-.046a.777.777,0,0,0,.155.036h0v.062a1.4,1.4,0,0,0,.057.223,3.615,3.615,0,0,0,.255.55,10.6,10.6,0,0,0,.737,1.147c1.427,1.936,3.207,3.69,4.706,5.626.462.591.208.783-.586.659a6.4,6.4,0,0,1-1.469-.483,6.139,6.139,0,0,1-1.639-1.194,24.515,24.515,0,0,1-2.6-3.015,13.468,13.468,0,0,1-1.137-1.8,4.809,4.809,0,0,1-.461-1.277,3.608,3.608,0,0,1-.052-.519,1.155,1.155,0,0,1,.036-.347c.036-.12,0-.109.031-.172a2.1,2.1,0,0,0,.073-.212,2.1,2.1,0,0,1,.213-.41,2.8,2.8,0,0,1,.342-.364,1.9,1.9,0,0,1,.363-.233,1.694,1.694,0,0,1,.348-.135l.3-.062h.156a1.461,1.461,0,0,1,.337,0,1.522,1.522,0,0,1,.633.275l.057.046h0c.145.13.192.187.265.255l.348.368.653.711,1.282,1.391c.426.456.856.908,1.3,1.344l.618.607a1.932,1.932,0,0,0,.145.192,1.566,1.566,0,0,0,.592.462.276.276,0,0,0,.192,0,.216.216,0,0,0,.109-.135.465.465,0,0,0-.026-.353c-.052-.114-.109-.228-.171-.337l-.1-.166-.14-.224-1.168-1.863c-.456-.747-.918-1.489-1.344-2.324a6.038,6.038,0,0,1-.519-1.433,5.387,5.387,0,0,1-.135-.778,3.058,3.058,0,0,1,0-.488,1.666,1.666,0,0,1,.218-.731,1.234,1.234,0,0,1,.447-.452,1.213,1.213,0,0,1,.311-.13,1.308,1.308,0,0,1,.285-.041,1.554,1.554,0,0,1,.717.14,3.391,3.391,0,0,1,.757.457,8.794,8.794,0,0,1,1.038.986c.317.337.623.7.893,1.037s.519.67.794.992a15.279,15.279,0,0,0,1.038,1.126l.228.223a1.725,1.725,0,0,0,.14.13,2.108,2.108,0,0,0,.306.243,1.033,1.033,0,0,0,.753.218.8.8,0,0,0,.358-.192.519.519,0,0,0,.135-.368,2.436,2.436,0,0,0-.519-1.126,21.976,21.976,0,0,0-1.49-1.79l-.814-.893c-.141-.156-.275-.306-.426-.493a5.227,5.227,0,0,1-.384-.571,11.349,11.349,0,0,1-.607-1.136,7.407,7.407,0,0,1-.306-.758,4.648,4.648,0,0,1-.213-.8,2.772,2.772,0,0,1,0-1.189,1.406,1.406,0,0,1,.706-.9,2.817,2.817,0,0,1,2.371.078,8.217,8.217,0,0,1,1.111.639c.275.181.519.368.783.55.519.363.992.726,1.474,1.037a9.241,9.241,0,0,0,1.251.711,5.293,5.293,0,0,0,1.385.426,3.583,3.583,0,0,1,.877.3c.151.062.338.1.473.166.223.114.259.384-.032.8a1.832,1.832,0,0,1-.778.6,2.94,2.94,0,0,1-1.37.265,5.517,5.517,0,0,1-2-.618,12.973,12.973,0,0,1-1.588-.965c-.488-.337-.939-.68-1.38-1l-.322-.229-.161-.109-.1-.067c-.083-.052-.052,0-.072-.031h-.026a.051.051,0,0,0-.052.051.05.05,0,0,0,.021.042h0l.051.1.161.327c.114.217.239.435.369.638l.145.218.218.249c.519.586,1.173,1.245,1.764,1.941l.447.519.218.28.109.145.062.078.093.13a6.986,6.986,0,0,1,1.121,2.148,2.861,2.861,0,0,1-.067,1.925,2.561,2.561,0,0,1-.55.81,3.16,3.16,0,0,1-.826.555,2.889,2.889,0,0,1-1.914.177,5.161,5.161,0,0,1-2.019-1.1Z" fill="#231f20"/>
    <path id="Path_19737" data-name="Path 19737" d="M-9.267,67.738a28.131,28.131,0,0,1-2.33-2.911c-.259-.363-.555-.705-.789-1.084a40.542,40.542,0,0,1-2.236-4.152c-.3-.628-.628-1.245-.908-1.883a11.064,11.064,0,0,1-.519-1.256,3.162,3.162,0,0,1-.177-1.49c.125-.472.416-.15.732.042a1.791,1.791,0,0,1,.893.815c.3.742.7,1.494,1.038,2.267s.726,1.557,1.089,2.361a17.666,17.666,0,0,0,1.739,2.689A31.033,31.033,0,0,0-8.556,65.9a17.464,17.464,0,0,0,1.521,1.557,9.621,9.621,0,0,0,2.657,1.754,5.445,5.445,0,0,0,2.734.249c.592-.031.805,0,1.08.3.062.063.135.12.181.177.151.176,0,.565-.55.887a4.3,4.3,0,0,1-2.75.379,6.829,6.829,0,0,1-2.595-.955A15.1,15.1,0,0,1-9.3,67.785Z" fill="#231f20"/>
    <path id="Path_19738" data-name="Path 19738" d="M117.337,9.473,93.145,9.291H84.323c-10.379-.078-20.757-.166-31.1-.192-4.6,0-9.227,0-13.793.083L30.6,9.317c-2.937.026-5.874.062-8.822.031-1.832-.052-1.593-.265-.052-.581a49.228,49.228,0,0,1,7.784-.778c11.988-.229,23.959-.25,36.035-.094,7.223.094,14.743,0,22.132.052l24.39.1,15,.057c7.571,0,15.178.036,22.693,0,5.843-.047,11.567-.182,17.342-.306l3.8-.089c2.371-.046,3.939-.051,5.039,0a7.951,7.951,0,0,1,2.252.39,7.057,7.057,0,0,1,.675.244c.233.134-.135.264-1,.4a32.505,32.505,0,0,1-3.954.332c-10.327.39-21.219.493-32.174.519l-24.421-.057Z" fill="#231f20"/>
    <g id="Group_11481" data-name="Group 11481" opacity="0.4">
      <path id="Path_19739" data-name="Path 19739" d="M117.524,147.312l-23.02.176-8.4.083-29.579.052-13.119.057-8.386.037c-2.792,0-5.589,0-8.375-.12-1.744-.062-1.505-.306-.031-.555a46.563,46.563,0,0,1,7.394-.519h34.25c6.871,0,14.011-.119,21.048-.192l23.181-.26,14.27-.186c7.2-.114,14.437-.218,21.583-.4,5.552-.14,11-.363,16.486-.581l3.633-.145c4.514-.166,5.957-.115,6.938.228a4.317,4.317,0,0,1,.649.239c.446.275-1.391.57-4.7.747-9.813.519-20.171.778-30.57.991-7.722.145-15.48.249-23.223.358Z" fill="#231f20"/>
    </g>
    <path id="Path_19740" data-name="Path 19740" d="M6.6,119.964v-7.058l-.041-2.594v-9.076c0-1.339-.032-2.688-.073-4.022a34.027,34.027,0,0,1,.062-5.138c.057-.518.208-.467.436,0A8.65,8.65,0,0,1,7.365,93a5.519,5.519,0,0,1,.254,1.334c.208,3.492.2,6.979.1,10.508-.062,2.107.031,4.3.047,6.451L7.8,118.4v4.375c0,2.21.026,4.431.083,6.621.047,1.7.161,3.373.249,5.055l.057,1.1c.052,1.385-.1,1.832-.374,2.133a1.465,1.465,0,0,1-.176.2c-.1.068-.192-.041-.291-.291a4.389,4.389,0,0,1-.27-1.146c-.3-3.01-.373-6.186-.446-9.372-.031-2.367-.062-4.749-.093-7.12Z" fill="#231f20"/>
    <path id="Path_19741" data-name="Path 19741" d="M209.915,120.649l.145-6.684v-2.434l.224-8.6V99.124a36.29,36.29,0,0,1,.16-4.868c.047-.519.224-.436.426,0a6.739,6.739,0,0,1,.322.882c.052.182.1.384.15.6a1.853,1.853,0,0,0,.068.322V96.4c.088,1.656.067,3.311.041,4.967s-.083,3.321-.166,4.992c-.1,2-.047,4.073-.083,6.118l-.114,6.746c0,1.38-.047,2.766-.073,4.152-.026,2.075-.067,4.193-.057,6.273,0,1.614.088,3.2.14,4.8l.037,1.038c0,1.313-.063,1.728-.395,2a1.147,1.147,0,0,1-.218.187c-.233.119-.467-.42-.519-1.38-.207-2.86-.228-5.869-.223-8.89.026-2.241.047-4.494.068-6.746Z" fill="#231f20"/>
    <path id="Path_19742" data-name="Path 19742" d="M73.539-11.067c-.119.831-.918,1.713-1.8.981-.716-.592.13-2.128.981-2.076A.835.835,0,0,1,73.539-11.067Z" fill="#231f20"/>
    <path id="Path_19743" data-name="Path 19743" d="M45.315-1.876c-.12.83-.919,1.712-1.8.98-.716-.591.13-2.127.976-2.075C45.175-2.951,45.387-2.426,45.315-1.876Z" fill="#231f20" opacity="0.6" style="mix-blend-mode: normal;isolation: isolate"/>
    <path id="Path_19744" data-name="Path 19744" d="M182,161.691c-.115.836-.919,1.718-1.8.986-.716-.6.13-2.132.981-2.075a.861.861,0,0,1,.85.872A.886.886,0,0,1,182,161.691Z" fill="#231f20"/>
    <path id="Path_19745" data-name="Path 19745" d="M86.134-4.347c-.073.519-.581,1.085-1.136.623-.457-.373.077-1.349.617-1.323a.519.519,0,0,1,.551.485A.508.508,0,0,1,86.134-4.347Z" fill="#231f20" opacity="0.4" style="mix-blend-mode: normal;isolation: isolate"/>
    <path id="Path_19746" data-name="Path 19746" d="M147.9,159.652c-.078.519-.582,1.09-1.142.623-.457-.374.083-1.35.617-1.324a.552.552,0,0,1,.546.555A.591.591,0,0,1,147.9,159.652Z" fill="#231f20" opacity="0.4" style="mix-blend-mode: normal;isolation: isolate"/>
    <path id="Path_19747" data-name="Path 19747" d="M158.935,162.9c-.073.519-.581,1.09-1.142.623-.451-.373.084-1.349.623-1.323C158.847,162.221,158.982,162.553,158.935,162.9Z" fill="#231f20" opacity="0.7" style="mix-blend-mode: normal;isolation: isolate"/>
    <path id="Path_19748" data-name="Path 19748" d="M32.969-6.23c-.072.519-.581,1.089-1.141.622-.452-.373.083-1.344.622-1.323a.55.55,0,0,1,.54.56A.559.559,0,0,1,32.969-6.23Z" fill="#231f20" opacity="0.4" style="mix-blend-mode: normal;isolation: isolate"/>
    <path id="Path_19749" data-name="Path 19749" d="M116.99,148.526q-11.319.171-22.631.239l-8.251.088q-14.531.036-29.1-.093l-12.9-.12L39.99,148.6l-4.12-.089c-2.75-.051-5.5-.166-8.235-.358-1.708-.114-1.464-.352,0-.555a29.9,29.9,0,0,1,3-.254c1.241-.042,2.7-.057,4.276-.031,11.183.27,22.371.347,33.663.456,6.747.057,13.778-.057,20.685-.129q11.385-.125,22.787-.307,7-.118,14.011-.269c7.073-.161,14.187-.338,21.209-.592,5.459-.208,10.8-.519,16.195-.815l3.545-.2c4.431-.254,5.848-.234,6.824.093a4.7,4.7,0,0,1,.643.223c.441.27-1.354.6-4.608.841-9.637.711-19.818,1.1-30.036,1.417-7.592.218-15.22.384-22.833.519Z" fill="#231f20"/>
    <path id="Path_19750" data-name="Path 19750" d="M124.084,21.834a24.843,24.843,0,0,1,2.719-3.052c.368-.332.706-.7,1.1-1.012a18.8,18.8,0,0,1,4.473-2.719c.721-.285,1.437-.586,2.185-.8a6.534,6.534,0,0,1,.716-.2A5.019,5.019,0,0,1,136,13.9l.748-.062h.747c.228,0,.264.254.031.519a2.819,2.819,0,0,1-1.162.685,20.782,20.782,0,0,0-2.657.778c-.867.338-1.718.727-2.569,1.157a13.533,13.533,0,0,0-2.8,2.076,22.8,22.8,0,0,0-2.657,2.839,18.589,18.589,0,0,0-1.381,1.972,16.087,16.087,0,0,0-1.582,3.259,9.457,9.457,0,0,0-.483,2.667v.576a3.34,3.34,0,0,1-.088.758.7.7,0,0,1-.249.389c-.053.053-.109.1-.166.15-.1.063-.2.026-.322-.1a1.661,1.661,0,0,1-.327-.669,6.4,6.4,0,0,1,0-2.823,11.366,11.366,0,0,1,.872-2.683,20.307,20.307,0,0,1,2.112-3.586Z" fill="#231f20"/>
    <g id="Group_11482" data-name="Group 11482" opacity="0.4">
      <path id="Path_19751" data-name="Path 19751" d="M5.741,120.571l.067-6.824v-2.486l.12-8.77V98.605a31.091,31.091,0,0,1,.114-4.967c.067-.518.218-.446.436,0a8.841,8.841,0,0,1,.379.9,5.749,5.749,0,0,1,.238,1.287c.161,3.373.114,6.746,0,10.151-.083,2.039,0,4.151-.026,6.227l-.046,6.87v10.623c0,1.645.124,3.259.192,4.883l.046,1.074c.037,1.339-.119,1.765-.394,2.076a2.067,2.067,0,0,1-.182.192c-.1.068-.192-.036-.285-.28a3.794,3.794,0,0,1-.254-1.111c-.27-2.906-.312-5.973-.343-9.055v-6.881Z" fill="#231f20"/>
    </g>
    <g id="Group_11483" data-name="Group 11483" opacity="0.4">
      <path id="Path_19752" data-name="Path 19752" d="M210.782,120.613l.254-6.285.042-2.293c.1-2.694.218-5.387.28-8.08.031-1.194.026-2.4,0-3.586V98.081c0-.763.1-1.526.15-2.289.047-.477.223-.415.426,0a6.358,6.358,0,0,1,.327.83,5,5,0,0,1,.155.561l.068.306.026.322c.1,1.556.072,3.113.047,4.67s-.089,3.114-.182,4.7c-.109,1.879-.073,3.835-.13,5.755l-.218,6.342c-.052,1.3-.1,2.594-.15,3.9-.068,1.967-.161,3.944-.192,5.9-.031,1.521,0,3.01.036,4.51v.991c0,1.235-.088,1.624-.426,1.884a1.964,1.964,0,0,1-.223.171c-.233.114-.456-.4-.519-1.3-.16-2.693-.109-5.526-.036-8.365q.1-3.171.208-6.341Z" fill="#231f20"/>
    </g>
    <g id="Group_11484" data-name="Group 11484" opacity="0.4">
      <path id="Path_19753" data-name="Path 19753" d="M117.8,10.376,94.39,10.085l-8.531-.057c-10.031-.125-20.062-.26-30.1-.322-4.447,0-8.926,0-13.337.031l-8.521.12c-2.838,0-5.677.052-8.51,0-1.77-.057-1.557-.27-.052-.587A47.021,47.021,0,0,1,32.855,8.5c11.6-.207,23.181-.176,34.862.026,6.985.12,14.255.088,21.4.146l23.58.217,14.53.115c7.322.041,14.681.093,21.946.062,5.651-.031,11.193-.156,16.777-.275l3.669-.083c2.3-.042,3.814-.042,4.878,0a7.657,7.657,0,0,1,2.179.394,6.257,6.257,0,0,1,.654.244c.223.135-.135.265-.965.405a31.064,31.064,0,0,1-3.83.327c-9.984.384-20.523.462-31.1.436-7.857,0-15.745-.089-23.622-.146Z" fill="#231f20"/>
    </g>
    <path id="Path_19754" data-name="Path 19754" d="M132.563,109.824l.27,23.907h5.028V109.824Z" fill="#231f20" stroke="#231f20" stroke-width="0.519" opacity="0.3" style="mix-blend-mode: normal;isolation: isolate"/>
    <path id="Path_19755" data-name="Path 19755" d="M142.148,114.873l.275,18.718h5.023V114.873Z" fill="#231f20"/>
    <path id="Path_19756" data-name="Path 19756" d="M151.141,122.138l.27,11.453h5.028V122.138Z" fill="#231f20" opacity="0.3" style="mix-blend-mode: normal;isolation: isolate"/>
    <path id="Path_19757" data-name="Path 19757" d="M-15.2,74.459a2.465,2.465,0,0,1-.3-1.661,4.907,4.907,0,0,1,.783-1.956c.519-.815,1.355-1.754,1.962-2.6l.363-.519a.745.745,0,0,0,.089-.2.347.347,0,0,0-.052-.3c-.078-.083-.2-.052-.291-.036l-.166.041-.1.036c-.057.026-.083.032-.207.094-.4.192-.805.41-1.23.628s-.856.441-1.354.643a5.236,5.236,0,0,1-1.038.312,1.97,1.97,0,0,1-1.038-.13,2.126,2.126,0,0,1-1.054-.965,2.48,2.48,0,0,1-.228-1.37,4.686,4.686,0,0,1,.275-1.168,9.575,9.575,0,0,1,.4-.918c.321-.649.674-1.267,1.037-1.869s.717-1.2.992-1.754a2.075,2.075,0,0,0,.041-1.816.648.648,0,0,0-.441-.358,1.559,1.559,0,0,0-.82.119c-.4.166-.695-.2-.519-.866a1.644,1.644,0,0,1,.96-1,1.662,1.662,0,0,1,.519-.124c.1,0,.2,0,.3,0a1.445,1.445,0,0,1,.322.057,2.444,2.444,0,0,1,.638.254,2.136,2.136,0,0,1,.519.452,3.423,3.423,0,0,1,.768,2,4.218,4.218,0,0,1-.052.965,3.181,3.181,0,0,1-.1.462l-.062.228a2.584,2.584,0,0,1-.1.254,6.96,6.96,0,0,1-.363.722l-.348.6-.653,1.1a14.419,14.419,0,0,0-1.095,2.148,2.515,2.515,0,0,0-.083.244c-.021.078-.047.182-.052.145a.377.377,0,0,0-.047.114.3.3,0,0,0,.083.286h0a.262.262,0,0,0,.2.047.542.542,0,0,0,.114,0h.032l.072-.032a1.434,1.434,0,0,0,.166-.072,15.412,15.412,0,0,0,1.381-.758l.737-.425.192-.109.269-.146c.177-.1.41-.207.613-.3a2.662,2.662,0,0,1,2.35-.114,2.3,2.3,0,0,1,.867,2.325,3.905,3.905,0,0,1-.431,1.36l-.176.327-.14.223c-.026.046-.042.062-.047.078l-.036.041-.062.083a15.506,15.506,0,0,0-1.038,1.292,1.441,1.441,0,0,0-.229.55.718.718,0,0,0,.14.561c.047.072.083.176.167.213a.276.276,0,0,0,.238,0,1.35,1.35,0,0,0,.415-.276c.4-.358.758-.788,1.2-1.229l.166-.161c.1-.088.2-.187.332-.3a4.447,4.447,0,0,1,.966-.633,1.943,1.943,0,0,1,1.038-.182,1.423,1.423,0,0,1,.908.519,2.9,2.9,0,0,1,.43.727c0,.072.073.124.073.207a1.681,1.681,0,0,1,.093.2,1.292,1.292,0,0,1,.083.421,2.894,2.894,0,0,1-.119.882c-.057.145-.1.3-.161.446l-.171.41c-.358.836-.763,1.6-1.095,2.346-.073.161-.13.316-.182.462a1.875,1.875,0,0,0-.083.332H-7.86a.875.875,0,0,0-.322.026.291.291,0,0,0-.14.046h0a.218.218,0,0,0,.046-.135.918.918,0,0,0,.058-.269q0-.068,0-.135a.339.339,0,0,1,0-.078h.446a1.228,1.228,0,0,1,.778.254,3.334,3.334,0,0,1,.332.244c.151.156.135.374-.052.628a1.894,1.894,0,0,1-.415.394,2.271,2.271,0,0,1-.851.369,1.947,1.947,0,0,1-.264.036,2.29,2.29,0,0,1-.379-.031,1.407,1.407,0,0,1-.519-.244,1.35,1.35,0,0,1-.4-.519,1.33,1.33,0,0,1-.093-.275.447.447,0,0,0-.031-.2c-.031-.068,0-.135,0-.2v-.141a2.675,2.675,0,0,1,.072-.487,9.045,9.045,0,0,1,.452-1.313c.161-.384.327-.753.488-1.111s.321-.726.43-1.007c0-.057-.041-.057-.057-.051h0l-.135.129-.462.519L-10,73.789a13.861,13.861,0,0,1-1.089,1.106,5.825,5.825,0,0,1-.483.389,5.024,5.024,0,0,1-.431.27,2.3,2.3,0,0,1-1.256.3,1.949,1.949,0,0,1-.617-.125,1.54,1.54,0,0,1-.42-.223,1.657,1.657,0,0,1-.2-.156.449.449,0,0,1-.166-.2,3.552,3.552,0,0,1-.56-.669Z" fill="#231f20"/>
  </g>
</svg>
