<svg xmlns="http://www.w3.org/2000/svg" width="243.316" height="159.446" viewBox="0 0 243.316 159.446">
  <g id="Survey_Researchers" data-name="Survey Researchers" transform="translate(54.579 5.308)">
    <path id="Path_20146" data-name="Path 20146" d="M-1.83,102.1c-2.61,10.123-11.679,6.835-12.787,5.86,2.446-6.618,4.379-12.468,6.069-16.517h0C-2.757,92.025-.77,97.992-1.83,102.1Z" transform="translate(-2.97 -7.191)" fill="#221f1f"/>
    <path id="Path_20147" data-name="Path 20147" d="M32.173,109.15a6.621,6.621,0,0,1-3.575,1.04c-8.3,0-9.894-11.984-4.05-15.586A108.6,108.6,0,0,1,32.173,109.15Z" transform="translate(-5.622 -7.427)" fill="#221f1f"/>
    <path id="Path_20148" data-name="Path 20148" d="M20.367,61.7a6.792,6.792,0,0,0,6.73-7.012S23.287,58.865,20.367,61.7Z" transform="translate(-5.571 -4.459)" fill="#221f1f"/>
    <path id="Path_20149" data-name="Path 20149" d="M27.368,50.625A16.068,16.068,0,0,1,22.242,57.9L19.828,59.88a30.756,30.756,0,0,0-6.985,8.263A17.887,17.887,0,0,0,11.107,72.6a16.559,16.559,0,0,0-.176,6.016c.08.613-.255.634-.682.143a4.54,4.54,0,0,1-.629-1.065,5.751,5.751,0,0,1-.3-1.711,16.6,16.6,0,0,1,1.46-6.537,23.194,23.194,0,0,1,3.506-5.6,37.815,37.815,0,0,1,5.659-5.653,26.544,26.544,0,0,0,3.2-2.8,13.841,13.841,0,0,0,2.323-3.474,18.774,18.774,0,0,0,1.55-4.961,26.586,26.586,0,0,0,.367-3.964v-2l-.053-1-.1-1.065v-.181a1.061,1.061,0,0,1,.058-.5.393.393,0,0,1,.181-.155.878.878,0,0,1,.23-.106c.154-.059.389-.133.468-.17l.319-.15a3.024,3.024,0,0,0,1.066-.81,1.264,1.264,0,0,0,.351-1.027,2.16,2.16,0,0,0-.532-1.066,7.642,7.642,0,0,0-.916-.83c-.624-.5-1.065-.789-1.375-1.066a1.523,1.523,0,0,1-.5-.692.585.585,0,0,0-.059-.17c-.021-.058-.037-.118,0-.144s.048,0,.054,0h0l.08-.138h.1l.213.031a4.983,4.983,0,0,1,1.338.586,8.964,8.964,0,0,1,1.774,1.332,4.184,4.184,0,0,1,.405.454l.192.244.17.288a3.4,3.4,0,0,1,.278.645,2.612,2.612,0,0,1-.075,1.545,3.58,3.58,0,0,1-.362.644,4.041,4.041,0,0,1-.98.928A5.468,5.468,0,0,1,28.6,39h-.048v.081l.037.373c.027.25.043.505.058.756,0,.533.064,1.017.064,1.529A25.467,25.467,0,0,1,27.459,50.6Z" transform="translate(-4.75 -2.753)" fill="#221f1f"/>
    <line id="Line_318" data-name="Line 318" transform="translate(-7.177 39.934)" fill="none" stroke="#000" stroke-width="0.794"/>
    <path id="Path_20150" data-name="Path 20150" d="M24.456,15.608c-1.189,2.024-7.417,7.459-21.371,10.912-1.737.426-2.376,7.864-3.932,6.761-1.95-1.38-9.388-6.255-11.722.816-1.119,3.442,2.233,5.93,4.864,6.469a4.89,4.89,0,0,0,.564,6.893,4.89,4.89,0,0,0,6.565-.212C2.4,50.2,2.952,57.45-.4,59.97-7.966,65.693,1.47,81.048-26.513,79.865-35.2,79.5-42.572,72.15-46.093,64.2a28.842,28.842,0,0,1,1.172-25.138c1.8-3.282,5.86-6.222,7.273-9.681,1.545-3.7.532-23.731,21.014-30.988,9.591-3.4,21.547-4.263,31.377-1.6C26.6.013,26.635,11.91,24.456,15.608Z" transform="translate(-0.457 -0.04)" fill="#221f1f"/>
    <path id="Path_20151" data-name="Path 20151" d="M-45,41.074a28.162,28.162,0,0,0-1.285,20.4,26.456,26.456,0,0,0,2.1,4.795,31.092,31.092,0,0,0,2.915,4.364,29.252,29.252,0,0,0,3.65,3.73,21.4,21.4,0,0,0,4.331,2.915,16.557,16.557,0,0,0,7.257,1.833,52.806,52.806,0,0,0,7.747-.234A25.884,25.884,0,0,0-13.2,77.812a12.262,12.262,0,0,0,4.4-2.457A10.524,10.524,0,0,0-6.034,71.2a46.729,46.729,0,0,0,1.46-5.077A22.475,22.475,0,0,1-3.731,63.5a9.78,9.78,0,0,1,1.375-2.483,3.888,3.888,0,0,1,.468-.533,5.853,5.853,0,0,1,.506-.532l.56-.469.437-.394A5.466,5.466,0,0,0,.841,57.053a9.8,9.8,0,0,0,.437-2.461A12.793,12.793,0,0,0,1.1,52.055a11.121,11.121,0,0,0-.746-2.419A3.821,3.821,0,0,0,.073,49.1l-.144-.278-.176-.255L-.4,48.342a.508.508,0,0,0-.09-.118c-.065-.064-.123-.165-.187-.192l-.128.106-.165.117-.044.032-.09.048-.193.112a3.873,3.873,0,0,1-.394.192,5.77,5.77,0,0,1-5.035-.218,5.062,5.062,0,0,1-1.359-1.108,5.331,5.331,0,0,1-.878-1.5,5.794,5.794,0,0,1-.23-3.4,5.612,5.612,0,0,1,.17-.575l.106-.288L-8.8,41.3a2.111,2.111,0,0,1,.288-.437c-.069-.043-.208-.054-.3-.1l-.16-.053-.245-.1a8.911,8.911,0,0,1-1.321-.7,6.787,6.787,0,0,1-2.131-2.131,4.689,4.689,0,0,1-.592-3.032A7.546,7.546,0,0,1-13.087,34c.074-.24.165-.463.25-.7a7.2,7.2,0,0,1,.714-1.332,4.674,4.674,0,0,1,2.441-1.864A5.977,5.977,0,0,1-6.668,30a15.437,15.437,0,0,1,5.26,2.312l.532.352a.5.5,0,0,0,.218.106.281.281,0,0,0,.2-.112,1.044,1.044,0,0,0,.138-.2,4.642,4.642,0,0,0,.2-.431c.261-.618.469-1.3.688-1.982s.431-1.375.708-2.073a7.8,7.8,0,0,1,.533-1.066,3.26,3.26,0,0,1,.41-.532,1.712,1.712,0,0,1,.7-.416A69.008,69.008,0,0,0,13.307,22.49a46.618,46.618,0,0,0,4.876-2.43,26.257,26.257,0,0,0,4.39-3.111c1.188-1.065,1.518-1.6,1.641-1.471s0,.267-.149.624a6.764,6.764,0,0,1-.916,1.364,20.094,20.094,0,0,1-4.412,3.793,37.773,37.773,0,0,1-7.412,3.73,72.792,72.792,0,0,1-7.992,2.478l-.027.027a1.408,1.408,0,0,0-.186.244,5.53,5.53,0,0,0-.4.81c-.244.608-.463,1.274-.681,1.956s-.432,1.369-.741,2.1a6.161,6.161,0,0,1-.278.586c-.08.15-.192.293-.282.442A2.275,2.275,0,0,1,.381,34a1.422,1.422,0,0,1-.89.363A1.55,1.55,0,0,1-.982,34.3a3.1,3.1,0,0,1-.458-.218l-.458-.32-.293-.192-.58-.367q-.592-.357-1.2-.671a12.35,12.35,0,0,0-2.483-.98,5.423,5.423,0,0,0-2.424-.144,3.231,3.231,0,0,0-1.023.405,3.668,3.668,0,0,0-.831.751,5.061,5.061,0,0,0-.624,1.04,5.779,5.779,0,0,0-.41,1.166,3.03,3.03,0,0,0,.3,2.163,4.942,4.942,0,0,0,1.652,1.759,6.758,6.758,0,0,0,1.118.613l.15.058.122.053.17.059.709.192c.474.133.942.24,1.4.357l-.58.756c-.192.261-.4.533-.586.783a3.228,3.228,0,0,0-.213.383l-.081.171-.128.352a4.49,4.49,0,0,0-.192,1.507A3.794,3.794,0,0,0-4.1,47.737l.12,0a4.451,4.451,0,0,0,1.524-.261,4.139,4.139,0,0,0,.682-.33.915.915,0,0,0,.139-.1l.155-.122.319-.251.65-.565c.235.251.475.533.709.8l.346.405c.112.128.207.293.261.362a8.057,8.057,0,0,1,.655,1.119A10.98,10.98,0,0,1,2.3,51.181,12.035,12.035,0,0,1,2.449,56.2a8.017,8.017,0,0,1-.864,2.494c-.112.192-.218.393-.346.58L.8,59.8a3.869,3.869,0,0,1-.5.484l-.267.235-.213.181a8.056,8.056,0,0,0-2.467,3.73c-.532,1.476-.874,3.075-1.3,4.684a18.26,18.26,0,0,1-1.865,4.763,11.042,11.042,0,0,1-3.639,3.73A16.9,16.9,0,0,1-14.2,79.6a39.587,39.587,0,0,1-10.006.985c-.916-.031-1.817,0-2.749-.1-.469-.048-.938-.081-1.407-.144l-1.379-.271a20.243,20.243,0,0,1-5.19-2.084,23.126,23.126,0,0,1-4.486-3.378,29.132,29.132,0,0,1-3.692-4.124,30.146,30.146,0,0,1-4.875-9.879,29.314,29.314,0,0,1-.847-10.97,30.066,30.066,0,0,1,1.519-6.623A29.256,29.256,0,0,1-45.994,39.9c.272-.5.491-1.012.81-1.513a14.032,14.032,0,0,1,.98-1.417c1.407-1.785,3-3.351,4.369-5.072a12.739,12.739,0,0,0,1.694-2.718,8.777,8.777,0,0,0,.394-1.518c.1-.533.192-1.065.282-1.636a54.084,54.084,0,0,1,2.35-9.921A30.223,30.223,0,0,1-30.18,7.139,27.732,27.732,0,0,1-22.407.522a39.518,39.518,0,0,1,9.447-3.761A59.384,59.384,0,0,1,2.492-5.307a52.529,52.529,0,0,1,7.757.533c.64.085,1.279.207,1.919.33s1.273.261,1.907.416a18.511,18.511,0,0,1,3.762,1.247,14.175,14.175,0,0,1,5.477,4.4A13.921,13.921,0,0,1,25.68,6.66a14.38,14.38,0,0,1,.41,3.73,8.451,8.451,0,0,1-.959,4.012,4.55,4.55,0,0,1-.715,1.007c-.159.139-.186.043-.111-.245s.24-.783.372-1.507a15.292,15.292,0,0,0-.287-6.7,12.724,12.724,0,0,0-3.2-5.664,13.976,13.976,0,0,0-5.621-3.4,41.43,41.43,0,0,0-6.783-1.4,52.206,52.206,0,0,0-7.022-.373A57.58,57.58,0,0,0-12.3-2,43.554,43.554,0,0,0-19.023.336a28.875,28.875,0,0,0-6.021,3.65,26.153,26.153,0,0,0-6.686,7.991,36.089,36.089,0,0,0-3.538,9.948c-.384,1.748-.651,3.511-.954,5.328-.08.453-.165.916-.271,1.39-.069.245-.112.474-.208.746a5.766,5.766,0,0,1-.3.725,13.943,13.943,0,0,1-1.529,2.467c-1.156,1.507-2.44,2.808-3.6,4.155a18.875,18.875,0,0,0-1.6,2.057,22.169,22.169,0,0,0-1.22,2.28Z" transform="translate(-0.413)" fill="#221f1f"/>
    <path id="Path_20152" data-name="Path 20152" d="M-4.657,49.72a2.008,2.008,0,0,1,.5,1.065c0,.139-.155.319-.282.24a3.04,3.04,0,0,1-.709-.532,4.728,4.728,0,0,1-.879-1.471A5.652,5.652,0,0,1-6.4,46.7a4.793,4.793,0,0,1,1.1-2.717,6.032,6.032,0,0,1,2.392-1.716,5.332,5.332,0,0,1,2.958-.351,4.766,4.766,0,0,1,1.263.4,9.149,9.149,0,0,1,.953.533,5.646,5.646,0,0,1,.885.7,4.269,4.269,0,0,1,1.1,2.056c.064.24.08.5.154.73a5.076,5.076,0,0,1,.059.863,4.692,4.692,0,0,1-.064.736c-.038.261-.106.532-.166.8a6.546,6.546,0,0,1-.271.789,5.433,5.433,0,0,1-.346.681,6.466,6.466,0,0,1-.533.778,4.958,4.958,0,0,1-3.522,1.6l-.341.026a.964.964,0,0,1-.282-.074,5.614,5.614,0,0,0-1.065-.352,7.84,7.84,0,0,1-1.434-.576,2.287,2.287,0,0,1-.617-.5c-.166-.181.047-.213.112-.186.2.1.106-.075.132-.133a.128.128,0,0,1,.043-.058,3.415,3.415,0,0,0,.384.165,7.034,7.034,0,0,0,.927.272c.709.165,1.476.266,1.6.3H-.8s.3-.043.629-.08A3.659,3.659,0,0,0,2.281,49.6l.33-.532a5.376,5.376,0,0,0,.368-1.529,5.254,5.254,0,0,0,0-1.065c-.043-.283-.081-.479-.085-.506a4.047,4.047,0,0,0-.666-1.476A1.284,1.284,0,0,0,2,44.275,5.149,5.149,0,0,0-.879,43.182a3.919,3.919,0,0,0-1.539.326c-.091.037-.187.064-.277.1a3.107,3.107,0,0,0-.336.16,4.313,4.313,0,0,0-1.433,1.321A3.518,3.518,0,0,0-5.125,46.8c0,.069-.032.207-.043.383a3.064,3.064,0,0,0,0,.6,4.782,4.782,0,0,0,.069.607c.043.181.09.325.117.4A3.782,3.782,0,0,0-4.657,49.72Z" transform="translate(-3.581 -3.505)" fill="#221f1f"/>
    <path id="Path_20153" data-name="Path 20153" d="M112.226,125.318a14.463,14.463,0,0,1,7.646,6.208c.427.8.064.831-.565,0a15.888,15.888,0,0,0-4.859-3.874,25.384,25.384,0,0,0-3.661-1.705c-1.065-.389-2.27-.783-3.623-1.145s-2.834-.666-4.374-.928a72.07,72.07,0,0,0-9.346-.911c-2.968-.1-5.6-.031-7.364.054a99.908,99.908,0,0,0-10.224,1.065,101.277,101.277,0,0,0-10.081,2.036,86,86,0,0,0-9.953,3.159c-1.6.629-3.2,1.305-4.795,2.046l-1.177.533a10.868,10.868,0,0,1-1.348.532,9.6,9.6,0,0,1-2.846.5,10.183,10.183,0,0,1-5.541-1.444,10.472,10.472,0,0,1-2.238-1.838l-.474-.533-.426-.592c-.278-.393-.491-.766-.73-1.161a92.271,92.271,0,0,1-4.673-9.591c-.319-.709-.64-1.412-.98-2.088s-.708-1.4-1.039-2.132c-.688-1.417-1.338-2.845-1.983-4.262A121.885,121.885,0,0,0,20.4,95a38.143,38.143,0,0,0-4.795-6.233,20.836,20.836,0,0,0-6.25-4.491,15.629,15.629,0,0,0-4.891-1.364c-.165-.031-.437-.043-.789-.069a12.356,12.356,0,0,0-1.305-.069,22.958,22.958,0,0,0-3.879.288c-.373.064-.789.112-1.156.192a7.383,7.383,0,0,0-1.114.336,7.714,7.714,0,0,0-2.132,1.241,8.131,8.131,0,0,0-1.737,1.966,10.626,10.626,0,0,0-.64,1.231c-.207.447-.416.9-.613,1.358-1.6,3.677-3.016,7.5-4.188,10.582l-2.4,6.367c-3.33,8.733-6.6,17.524-10.086,26.225-.5,1.236-1,2.573-1.513,3.681-1.178,2.579-2.254,5.259-3.416,7.917a117.8,117.8,0,0,1-5.291,10.859,26.809,26.809,0,0,1-3.409,4.876c-1.3,1.278-.741.41-.336-.043a3.385,3.385,0,0,0,.49-.651c.054-.1,0-.1-.043-.048a1.96,1.96,0,0,1-.532.416c-.128.021-.128.048-.091-.026s.251-.3.629-.821l.315-.426.341-.533c.24-.378.533-.793.794-1.278a80.245,80.245,0,0,0,3.73-7.316c2.515-5.541,4.795-11.514,5.27-12.671.058-.143.868-2.21,2.073-5.28s2.738-7.182,4.294-11.391l6.964-19.026c.687-1.875,1.433-3.756,2.168-5.622.091-.218.746-1.961,1.759-4.454.533-1.257,1.065-2.664,1.854-4.215a9.735,9.735,0,0,1,3.874-3.985,9.247,9.247,0,0,1,2.664-1.007c.458-.091.884-.149,1.315-.218a11.857,11.857,0,0,1,1.289-.165l1.258-.1H2.682a2.859,2.859,0,0,1,.57.038l1.065.085c.692.1,1.342.2,1.918.319s1.065.261,1.5.389c.837.288,1.375.464,1.5.533A21.969,21.969,0,0,1,13.1,84.473a24.326,24.326,0,0,1,3.335,2.782,35.045,35.045,0,0,1,5.211,6.767l.868,1.45.853,1.47c2.376,4.263,4.321,8.648,6.335,12.984.506,1.066,1.017,2.163,1.535,3.24l.8,1.6c.277.532.533,1.1.783,1.651,1,2.206,1.918,4.4,2.963,6.538.532,1.065,1.065,2.131,1.694,3.2q.224.389.464.767a6.406,6.406,0,0,0,.474.73l.245.346.271.314a5.078,5.078,0,0,0,.581.607,8.365,8.365,0,0,0,2.829,1.764,8.7,8.7,0,0,0,3.3.532,8.241,8.241,0,0,0,2.376-.42c.928-.309,1.972-.848,2.989-1.306a87.093,87.093,0,0,1,16.64-5.514q4.263-.975,8.615-1.6c2.888-.416,5.8-.729,8.727-.9a84.876,84.876,0,0,1,9.17.054,75.9,75.9,0,0,1,9.426,1.129,47.017,47.017,0,0,1,8.647,2.659Z" transform="translate(-1.083 -6.417)" fill="#221f1f"/>
    <path id="Path_20154" data-name="Path 20154" d="M120.389,132.033c-.213-.027-.335-.181-.41-.416-.027-.075.054-.251.118-.255a2.787,2.787,0,0,1,.373,0c.069,0,1.161.325,1.539.426a10.519,10.519,0,0,1,1.065.373c.715.282,1.423.576,2.132.9a4.636,4.636,0,0,1,.453.245c.506.309,1.028.58,1.545.868a1.2,1.2,0,0,0,.267.128,5.062,5.062,0,0,1,.841.485,7.719,7.719,0,0,1,.816.613c.192.186.379.368.559.559a7.787,7.787,0,0,1,.533.586.549.549,0,0,1,.133.181,1.114,1.114,0,0,0,.267.389,6.571,6.571,0,0,1,.41.533,1.626,1.626,0,0,1,.143.293c.043.1-.08.132-.112.117s-.08.054-.111.091a.086.086,0,0,1-.038.037,13.277,13.277,0,0,1-1.114-.857,7.929,7.929,0,0,0-.687-.613,10.17,10.17,0,0,0-.842-.629,2.161,2.161,0,0,1-.24-.2c-.026-.048-1.252-.746-1.311-.762a5.473,5.473,0,0,1-.745-.464.55.55,0,0,0-.15-.091c-.458-.218-.905-.464-1.364-.687-.234-.112-.474-.208-.719-.309l-.123-.069a.939.939,0,0,0-.159-.085c-.576-.23-1.14-.491-1.732-.682-.139-.043-.752-.367-.911-.416S120.474,132.038,120.389,132.033Z" transform="translate(-12.975 -10.158)" fill="#221f1f"/>
    <path id="Path_20155" data-name="Path 20155" d="M119.416,134.458c-.187,0-.293-.159-.346-.389,0-.069.058-.245.112-.251a2.453,2.453,0,0,1,.33,0c.065,0,1.013.256,1.338.336a8.174,8.174,0,0,1,.928.293c.623.229,1.247.453,1.864.714a2.7,2.7,0,0,1,.4.2c.442.267.9.49,1.359.729a.716.716,0,0,0,.24.106,4.133,4.133,0,0,1,.741.411,7.68,7.68,0,0,1,.714.532l.479.5.453.533a.4.4,0,0,1,.107.16.857.857,0,0,0,.223.356,3.694,3.694,0,0,1,.325.485,1.224,1.224,0,0,1,.091.282.1.1,0,0,1-.128.1c-.027-.016-.085.043-.118.08s-.031.027-.043.027a3.824,3.824,0,0,1-.431-.352c-.213-.186-.447-.352-.485-.4a7.788,7.788,0,0,0-.586-.532,8.2,8.2,0,0,0-.725-.533,1.256,1.256,0,0,1-.2-.176q-.551-.344-1.135-.634a4.471,4.471,0,0,1-.645-.389.452.452,0,0,0-.128-.074c-.4-.176-.789-.379-1.188-.56-.2-.1-.421-.165-.629-.25l-.106-.059c-.048,0-.091-.053-.138-.069-.506-.181-1-.4-1.519-.532-.122-.032-.655-.315-.793-.357S119.48,134.464,119.416,134.458Z" transform="translate(-12.907 -10.341)" fill="#221f1f"/>
    <path id="Path_20156" data-name="Path 20156" d="M21.271,136.534a13.322,13.322,0,0,1-2.062-4.3c-.112-.432.2-.533.485-.075.533.853,1.146,1.694,1.732,2.558.181.255,1.6,2.525,3.426,4.928a66.984,66.984,0,0,0,5.216,6.148,54.7,54.7,0,0,0,7.331,6.469,18.642,18.642,0,0,0,8.994,3.416,18.242,18.242,0,0,0,9.4-1.774c.33-.133.645-.325.97-.485s.639-.325.975-.532l2-1.066q6.873-3.612,13.816-7.092c.767-.383,1.566-.767,2.291-1.177.6-.335,4.049-2.051,7.577-3.73s7.129-3.335,7.96-3.7l3.2-1.4.912.341.6.208c.4.132.805.261,1.21.378.816.24,1.641.442,2.467.629a29.062,29.062,0,0,0,5.025.651c.629.031,1.289,0,1.864,0a7.705,7.705,0,0,0,.991-.032,5.59,5.59,0,0,0,.991-.128,13.883,13.883,0,0,1,2.131-.3,9.425,9.425,0,0,1,5.626,2.073,10.489,10.489,0,0,1,2.036,2.094c.533.709.054.464-.149.245-.618-.613-.213,0-.234.091s0,.085-.054.069l-.352-.346a9.914,9.914,0,0,0-.938-.836,10.8,10.8,0,0,0-3.3-1.854,7.141,7.141,0,0,0-1.987-.4,6.23,6.23,0,0,0-1.785.176c-.6.128-1.156.277-1.6.335l-.911.123a22.935,22.935,0,0,1-4.795-.043,35.019,35.019,0,0,1-4.141-.688c-.692-.165-1.379-.335-2.03-.532-.325-.091-.639-.187-.948-.288l-.57-.187-4.795,2.27c-.869.421-1.759.805-2.664,1.2-.208.09-3.234,1.539-6.256,3.026l-6.223,3.1c-2.408,1.183-4.795,2.44-7.214,3.565-.479.218-.959.485-1.433.735q-3.064,1.6-6.09,3.266l-1.513.831c-.533.278-1.065.533-1.6.827a14.156,14.156,0,0,1-1.651.708,14.592,14.592,0,0,1-1.705.576,19.368,19.368,0,0,1-7.31.756c-.442-.058-.885-.1-1.316-.2-.533-.128-1.1-.218-1.636-.383a21.847,21.847,0,0,1-7.715-3.858,59.28,59.28,0,0,1-6.3-5.706c-.458-.464-1.711-1.871-2.893-3.368l-.874-1.108-.778-1.065c-.5-.651-.874-1.2-1.1-1.5C23.039,139.54,21.7,137.142,21.271,136.534Z" transform="translate(-5.483 -10.195)" fill="#221f1f"/>
    <path id="Path_20157" data-name="Path 20157" d="M22.934,135.839c6.042-4.172,11.461-9.058,15.1-15.526.484-.857-1.807-.559-2.132.032-3.575,6.34-8.861,11.13-14.79,15.223-1.023.708,1.294.639,1.827.271Z" transform="translate(-5.607 -9.298)" fill="#221f1f"/>
    <path id="Path_20158" data-name="Path 20158" d="M36.029,47.535a20.672,20.672,0,0,1,.592-3.559c.091-.33.341-.278.362.128l.064,1.2v1.214a23.138,23.138,0,0,1-.8,4.662,23.94,23.94,0,0,1-2.515,5.861,26.873,26.873,0,0,1-2.264,3.2,8.145,8.145,0,0,0-.532.715l-.235.356-.207.379a6.735,6.735,0,0,0-.581,1.6,7.249,7.249,0,0,0,.112,3.506,12.254,12.254,0,0,0,.6,1.769l.767,1.79,1.528,3.592,1.476,3.618c.426,1.065.874,2.131,1.257,3.229,1.364,3.73,2.749,7.433,4.06,11.189.218.624.427,1.268.672,1.86.1.245.4,1.065.766,2.185s.816,2.536,1.274,3.965l1.183,4.065c.309,1.183.532,2.089.634,2.43.426,1.678.772,3.383,1.151,5.073s.677,3.409.916,5.131c.075.49.187,1.012.208,1.465,0,1.065.223,2.131.3,3.2a32.2,32.2,0,0,1,.155,4.481,8.009,8.009,0,0,1-.08,1.1c-.065.363-.123.725-.187,1.065-.112.651-.229.267-.224.038,0-.666-.112-.139-.181-.085s-.054.037-.069,0a3.325,3.325,0,0,1,0-.384c0-.24.053-.57.037-.975s0-.885,0-1.39-.075-1.066-.112-1.6-.117-1.114-.176-1.651-.112-1.066-.2-1.5c-.143-.916-.25-1.6-.288-1.833,0-.058-.128-.857-.346-2.051s-.532-2.765-.89-4.379-.773-3.24-1.14-4.551-.634-2.312-.729-2.664L41.8,102.84c-.047-.165-.772-2.627-1.6-5.062-.2-.613-.4-1.226-.587-1.8s-.389-1.108-.532-1.6L38.5,92.7c-.634-1.95-1.413-3.863-2.009-5.819-.123-.383-.267-.778-.416-1.161l-1.9-4.945-1.956-4.918c-.655-1.684-1.406-3.324-2.131-4.992-.122-.3-.245-.6-.362-.905-.155-.384-.3-.767-.464-1.14a8.885,8.885,0,0,1-.448-6.687,7.793,7.793,0,0,1,.752-1.561,13.28,13.28,0,0,1,1.013-1.338,25.2,25.2,0,0,0,1.833-2.552,26.461,26.461,0,0,0,1.6-2.851,20.012,20.012,0,0,0,1.2-3.165c.091-.3.278-.938.464-1.572A11.917,11.917,0,0,0,36.029,47.535Z" transform="translate(-6.165 -3.647)" fill="#221f1f"/>
    <path id="Path_20159" data-name="Path 20159" d="M34.052,49.263A1.187,1.187,0,0,1,33.44,50c-.1.048-.255-.048-.24-.149.043-.208.085-.41.139-.607.048-.118.756-1.956.932-2.595s.384-1.221.533-1.838A18.346,18.346,0,0,0,35.47,41a4.55,4.55,0,0,1,.054-.853,3.366,3.366,0,0,0,0-.729v-.17l.421-.032h0l.4.091h0l-.091.367c-.122.5-.244.991-.372,1.492a4,4,0,0,0-.112.5,12.96,12.96,0,0,1-.458,1.6c-.24.741-.533,1.476-.608,1.64-.383.81-.766,1.625-1.214,2.409a1.161,1.161,0,0,1-.2.325,3.524,3.524,0,0,0-.453.692,11.314,11.314,0,0,1-.634.965,3.519,3.519,0,0,1-.383.421c-.118.128-.166,0-.144-.075.064-.165-.058-.08-.106-.09a.085.085,0,0,1-.048,0,2.964,2.964,0,0,1,.15-.326c.09-.186.223-.431.341-.692.24-.532.485-1.065.533-1.172,0,0,.1-.192.229-.474s.3-.651.458-1.034c.33-.767.618-1.6.671-1.763s.133-.346.208-.533c0-.037.218-.655.4-1.284s.33-1.263.347-1.311c.143-.5.24-1.013.426-1.5a1.929,1.929,0,0,0,.08-.3v-.085a.591.591,0,0,1,.533-.442.58.58,0,0,1,.576.352.562.562,0,0,1,.043.165v1.14a13.872,13.872,0,0,1-.106,1.4c-.048.464-.112.948-.2,1.412a1.933,1.933,0,0,1-.058.251c-.032.106-.059.207-.081.314a28.918,28.918,0,0,1-.927,3.224c-.081.244-.6,1.353-.719,1.6C34.41,48.683,34.052,49.109,34.052,49.263Z" transform="translate(-6.399 -3.266)" fill="#221f1f"/>
    <path id="Path_20160" data-name="Path 20160" d="M30.413,49.3c-.054.192-.23.277-.469.293-.074,0-.229-.112-.223-.165a3.044,3.044,0,0,1,.053-.342c0-.069.479-1,.613-1.326s.293-.613.453-.916q.48-.919.9-1.865c.059-.143.139-.277.208-.41a7.641,7.641,0,0,0,.623-1.444.842.842,0,0,0,.064-.255,6.972,6.972,0,0,1,.224-.82c.106-.373.2-.757.24-.842.091-.213.139-.426.208-.644a6.2,6.2,0,0,0,.17-.655.441.441,0,0,1,.048-.187.822.822,0,0,0,.117-.41,4.162,4.162,0,0,1,.054-.575,1.567,1.567,0,0,1,.1-.288c.032-.091.155-.048.166,0s.091,0,.138,0a.106.106,0,0,1,.054,0,4.13,4.13,0,0,1,.128.617,3.606,3.606,0,0,1,.054.719,16.1,16.1,0,0,1-.272,1.95,1.962,1.962,0,0,1-.1.293c0,.053-.352,1.385-.384,1.433a3.609,3.609,0,0,1-.346.783.682.682,0,0,0-.069.155,12.7,12.7,0,0,1-.607,1.326c-.106.23-.213.448-.314.672,0,.043-.054.074-.075.111a.857.857,0,0,0-.085.15c-.255.532-.565,1.027-.816,1.555-.064.123-.453.64-.532.778S30.435,49.224,30.413,49.3Z" transform="translate(-6.266 -3.248)" fill="#221f1f"/>
    <path id="Path_20161" data-name="Path 20161" d="M21.9,86.923a1.263,1.263,0,0,1-.091,1.114c-.064.117-.309.155-.367.047-.118-.218-.23-.431-.326-.655-.026-.068-.2-.666-.367-1.342l-.431-1.817c-.16-.746-.3-1.5-.4-2.254-.213-1.539-.394-3.08-.532-4.625-.032-.341-.048-.687-.048-1.033,0-1.177-.075-2.356-.143-3.533a3.047,3.047,0,0,0-.059-.586,37.813,37.813,0,0,1-.112-3.927c.069-1.039.144-2.057.214-3.085a1.653,1.653,0,0,1,.047-.431,3.154,3.154,0,0,0,.129-.943c.026-.442.058-.878.117-1.315a4.6,4.6,0,0,1,.155-.64c.054-.192.2-.08.218,0,.037.2.122.043.187.032s.053,0,.068,0a2.722,2.722,0,0,1,.048.416c0,.244.043.569.064.9.048.672.1,1.37.091,1.5v1.945c0,.976.048,2,.064,2.2s0,.437,0,.655c0,.106.16,3.026.17,3.144a15.854,15.854,0,0,1,.032,1.816,2.7,2.7,0,0,0,0,.367c.091,1.034.128,2.078.207,3.118.032.532.112,1.065.171,1.6v.651c.159,1.252.287,2.5.532,3.73.048.288.192,1.667.267,1.993C21.87,86.129,21.838,86.763,21.9,86.923Z" transform="translate(-5.47 -4.987)" fill="#221f1f"/>
    <path id="Path_20162" data-name="Path 20162" d="M200.94,87.3l-28.159,65.6H109.6v-7.934h57.954l26.1-60.793Z" transform="translate(-12.204 -6.651)" fill="#221f1f"/>
    <path id="Path_20163" data-name="Path 20163" d="M-46.993,154.555h.091c.735-19.458,2.6-38.826.122-58.241,0,0-1.22-7.012-5.141-5.328-4.875,2.073-1.55,47.42-1.55,63.7C-53.472,154.747-48.155,154.6-46.993,154.555Z" transform="translate(0 -7.138)" fill="#221f1f"/>
    <line id="Line_319" data-name="Line 319" x1="0.091" y2="0.213" transform="translate(151.851 146.25)" fill="none" stroke="#000" stroke-width="0.794"/>
    <line id="Line_320" data-name="Line 320" x1="0.091" y2="0.213" transform="translate(160.487 146.25)" fill="none" stroke="#000" stroke-width="0.794"/>
    <path id="Path_20164" data-name="Path 20164" d="M169.1,157.863a28.3,28.3,0,0,1,7.321.559c.671.144.559.586-.251.645-1.6.122-3.2.24-4.795.319-.991.054-16.65.255-21.968.341-5.147.085-10.3.1-15.451.1l-31.436.026c-2.328,0-4.662,0-6.98-.064-7.992-.132-15.952-.143-23.939-.106-1.332,0-2.691,0-3.98.059-2.131.111-23.774.106-26.577.053l-20.907-.314c-.99,0-2.057,0-2.962-.069-2.132-.187-4.263-.155-6.394-.17-2.989,0-5.984-.048-8.962-.112-1.476-.027-2.935-.133-4.39-.218-1.321-.075-.6-.352-.138-.379,1.348-.091.255-.218.128-.33-.043-.043-.1-.091-.032-.122s.3,0,.789-.043l2.009-.075,6.149-.181c4.544-.132,9.308-.25,10.245-.25l28.388-.192c1.487,0,2.989,0,4.48.047l21.563-.149c4.155,0,8.322-.058,12.457.106.816.032,1.663,0,2.494,0,7.144-.031,14.284.032,21.424.069H118.31c.655,0,1.315.027,1.971.038.831,0,1.657.031,2.488.031,8.643-.027,17.285.064,25.927,0,1.992,0,11.487.181,13.783.149C163.759,157.612,167.957,157.911,169.1,157.863Z" transform="translate(-3.809 -12.081)" fill="#221f1f"/>
    <path id="Path_20165" data-name="Path 20165" d="M20.486,120.264c-.255,3.261-3.021,6.474-7.012,5.446-4.379-1.125-4.528-6.345-1.838-9.324a5.072,5.072,0,0,1,8.85,3.879Z" transform="translate(-4.789 -8.918)" fill="#221f1f"/>
    <path id="Path_20166" data-name="Path 20166" d="M-22.494,128.91c-1.412,3.73-2.84,7.405-4.262,10.922" transform="translate(-2.068 -9.976)" fill="none" stroke="#000" stroke-width="0.794"/>
    <path id="Path_20167" data-name="Path 20167" d="M14.086,147.655a7.89,7.89,0,0,1-.138.942c-1.183,5.659-10.577,5.568-11.371-.218C1.613,141.4,14.646,140.264,14.086,147.655Z" transform="translate(-4.245 -10.995)" fill="#221f1f"/>
    <path id="Path_20168" data-name="Path 20168" d="M-15.585,136.614a6.065,6.065,0,0,1-6.394,5.551,5.412,5.412,0,0,1-4.518-2.334c1.412-3.517,2.595-7.2,4.006-10.922C-22.336,128.889-15.127,131.137-15.585,136.614Z" transform="translate(-2.087 -9.976)" fill="#221f1f"/>
    <path id="Path_20169" data-name="Path 20169" d="M-28.644,156.226c.037,3.6-4.588,5.861-7.31,4.838,1.545-2.664,2.989-6.106,4.752-10.081A6.864,6.864,0,0,1-28.644,156.226Z" transform="translate(-1.384 -11.617)" fill="#221f1f"/>
    <path id="Path_20170" data-name="Path 20170" d="M17.49,65.149c.054-.08.155,0,.251.176a.857.857,0,0,1,.064.267.478.478,0,0,1-.048.16,1.478,1.478,0,0,0-.112.117.125.125,0,0,0,0,.086c0,.026.037.026.037.026h0l.054.038h0s.043.09.053.069,0,0,0-.037a.164.164,0,0,0,0-.043h0s.1,0,.086-.133V65.73l-.086-.1a.465.465,0,0,1-.043-.106.206.206,0,0,1,.032-.159c.037-.032.027-.091.031-.139a.174.174,0,0,0,0-.054.584.584,0,0,1,.309,0,.828.828,0,0,1,.352.15,1.34,1.34,0,0,1,.272.42,1.789,1.789,0,0,1,.117.634.432.432,0,0,1-.043.17,1.436,1.436,0,0,1-.091.352.731.731,0,0,1-.3.325.527.527,0,0,1-.474,0,.217.217,0,0,0-.1-.026,1.311,1.311,0,0,1-.42-.149,1.208,1.208,0,0,1-.208-.123c-.053-.031-.069-.053-.138-.1a2.732,2.732,0,0,1-.342-.3.5.5,0,0,1-.037-.069.268.268,0,0,0-.037-.091.687.687,0,0,1-.085-.469,1.521,1.521,0,0,1,.207-.453,1.521,1.521,0,0,1,.469-.3C17.315,65.111,17.49,65.175,17.49,65.149Z" transform="translate(-5.289 -5.235)" fill="#221f1f"/>
    <path id="Path_20171" data-name="Path 20171" d="M21.771,65.8c.118-.091.272,0,.32.213a.8.8,0,0,1-.043.272.383.383,0,0,0-.064.138.76.76,0,0,0-.069.1.523.523,0,0,0-.058.2,1.794,1.794,0,0,0,0,.223c0,.112.058.2.223.3a.533.533,0,0,1,.106.08c.1.1.208.091.245.043s0,0,0-.043a.271.271,0,0,1,.038-.143,1.027,1.027,0,0,0,.037-.214.43.43,0,0,0,0-.335s-.032,0,0-.054-.037-.1-.075-.128l-.192-.112a.682.682,0,0,1-.1-.112c-.032-.037,0-.155,0-.165v-.139a.168.168,0,0,1,0-.053.789.789,0,0,1,.346-.054,1.082,1.082,0,0,1,.437.1l.159.123a1.373,1.373,0,0,1,.272.335,1.648,1.648,0,0,1,.192.672.535.535,0,0,1-.037.2,1.826,1.826,0,0,1-.118.491,1.212,1.212,0,0,1-.352.464.827.827,0,0,1-.66.192h-.128a1.147,1.147,0,0,1-.5-.112,1.789,1.789,0,0,1-.389-.245,1.833,1.833,0,0,1-.346-.362.335.335,0,0,1-.037-.091c-.012-.04-.027-.079-.043-.118a1.446,1.446,0,0,1,.047-1.166c0-.1.352-.384.454-.442S21.729,65.831,21.771,65.8Z" transform="translate(-5.606 -5.283)" fill="#221f1f"/>
    <path id="Path_20172" data-name="Path 20172" d="M27.332,67.522c.031.133-.118.208-.315.16a.739.739,0,0,1-.234-.144.529.529,0,0,0-.1-.111.369.369,0,0,0-.186-.144,1.037,1.037,0,0,1-.166-.085.42.42,0,0,0-.341,0h0c-.053-.027-.08,0-.037.1a.043.043,0,0,0,.037.043c.037,0,.075.069.128.133s.106.1.112.117a.214.214,0,0,0,.155.144h.165a.911.911,0,0,0,.155-.1.868.868,0,0,1,.139,0,.24.24,0,0,1,.143.085c0,.054.069.059.112.081l.048.027a1.042,1.042,0,0,1-.074.308.89.89,0,0,1-.251.33l-.17.085a1.033,1.033,0,0,1-.416.081,1.263,1.263,0,0,1-.645-.187.3.3,0,0,1-.133-.133,2.05,2.05,0,0,1-.3-.309,1.385,1.385,0,0,1-.213-.393.762.762,0,0,1,0-.591,1.173,1.173,0,0,0,.037-.123,1.347,1.347,0,0,1,.112-.25,1.419,1.419,0,0,1,.192-.2,1.2,1.2,0,0,1,.454-.213,1.737,1.737,0,0,1,.442-.064.2.2,0,0,1,.081,0l.1.026a1.543,1.543,0,0,1,.884.5,1.239,1.239,0,0,1,.187.565C27.454,67.294,27.32,67.48,27.332,67.522Z" transform="translate(-5.907 -5.312)" fill="#221f1f"/>
    <path id="Path_20173" data-name="Path 20173" d="M31.538,65.158c.069-.054.24.1.176.3,0,.064-.16.2-.165.218l-.032.058h0v.069h0a.461.461,0,0,0-.2.048.35.35,0,0,0-.176.1c-.048.048-.053.075-.08.1a.312.312,0,0,0-.032.271h0c0,.054.091.118.181.1s.037,0,.054-.027.08-.043.122-.069.069-.053.085-.053a.34.34,0,0,0,.165-.187v-.048c0-.021.044-.09.032-.128a.443.443,0,0,0-.043-.165.642.642,0,0,1,0-.133c0-.043.085-.122.106-.122s.064-.065.1-.1l.031-.043a.74.74,0,0,1,.3.166.892.892,0,0,1,.245.325,1.132,1.132,0,0,1,.043.165,1.482,1.482,0,0,1,0,.384,1.263,1.263,0,0,1-.267.629.449.449,0,0,1-.165.122,1.364,1.364,0,0,1-.41.24,1.528,1.528,0,0,1-.458.1.8.8,0,0,1-.533-.166.423.423,0,0,0-.1-.053,1.21,1.21,0,0,1-.319-.2,1.107,1.107,0,0,1-.245-.6,1.852,1.852,0,0,1,0-.453.463.463,0,0,1,.032-.08l.043-.091a1.269,1.269,0,0,1,.751-.789,1.611,1.611,0,0,1,.533,0C31.378,65.025,31.5,65.18,31.538,65.158Z" transform="translate(-6.283 -5.228)" fill="#221f1f"/>
    <path id="Path_20174" data-name="Path 20174" d="M23.782,24.543c.176,0,.213.218.144.485a.628.628,0,0,1-.235.288H23.4a5.066,5.066,0,0,0-.954-.251,4.212,4.212,0,0,1-.677-.112,5.183,5.183,0,0,0-1.406,0,2.055,2.055,0,0,1-.32,0,2.608,2.608,0,0,0-1.1.208.38.38,0,0,0-.171.091,9.885,9.885,0,0,1-1.172.532,10.29,10.29,0,0,0-1,.315c-.048,0-.091.058-.149.037a.425.425,0,0,0-.33.075,3.14,3.14,0,0,1-.431.17.85.85,0,0,1-.256,0c-.08,0-.128-.16-.117-.187s-.048-.112-.085-.165a.2.2,0,0,1-.038-.064,4.9,4.9,0,0,1,.709-.757l.592-.372c.3-.181.618-.368.687-.416a.7.7,0,0,1,.235-.069s1.006-.533,1.065-.533a1.644,1.644,0,0,1,.682-.133.384.384,0,0,0,.138,0,4.516,4.516,0,0,1,1.194-.143h.617a.754.754,0,0,1,.112,0,.581.581,0,0,0,.139,0,8.615,8.615,0,0,1,1.454.261,6.587,6.587,0,0,1,.7.389C23.59,24.234,23.712,24.506,23.782,24.543Z" transform="translate(-5.187 -2.144)" fill="#221f1f"/>
    <path id="Path_20175" data-name="Path 20175" d="M28.331,45.761c0-.085.106-.037.325.075a.917.917,0,0,1,.261.224.756.756,0,0,1,.037.213,2.324,2.324,0,0,1-.389.565,1.078,1.078,0,0,1-.394.272,2.975,2.975,0,0,1-.959.255.578.578,0,0,1-.218,0c-.255-.075-.5-.118-.741-.165a.184.184,0,0,0-.122,0,.785.785,0,0,1-.394-.112,1.352,1.352,0,0,1-.357-.24,3.464,3.464,0,0,1-.362-.533.1.1,0,0,1-.027-.091.236.236,0,0,0-.048-.2.912.912,0,0,1-.085-.244.4.4,0,0,1,.043-.16c0-.048.16-.1.181-.091s.1-.048.155-.08l.058-.027c.031,0,.421.149.442.16a1.705,1.705,0,0,0,.447.261c.027,0,.037.037.054.064a1.506,1.506,0,0,0,.367.074.184.184,0,0,1,.192.1c.054.1.027,0,.037,0,.123,0,.24.031.367.031a.573.573,0,0,0,.193-.037h.091a.967.967,0,0,0,.42-.2s.23-.047.251-.1S28.331,45.8,28.331,45.761Z" transform="translate(-5.905 -3.771)"/>
    <path id="Path_20176" data-name="Path 20176" d="M23.776,29.2c.149,1.065-.208,2.131-.794,2.216s-1.39-.826-1.535-1.891.416-2.036,1-2.132S23.632,28.133,23.776,29.2Z" transform="translate(-5.649 -2.43)" fill="#221f1f"/>
  </g>
</svg>
