<svg xmlns="http://www.w3.org/2000/svg" width="51.256" height="49.458" viewBox="0 0 51.256 49.458">
  <g id="volunteer_management" data-name="volunteer management" transform="translate(6017.116 -76.996)">
    <path id="Path_19457" data-name="Path 19457" d="M-6000.671,81.688l-5.978,6.623-.017.021a7.252,7.252,0,0,1-.58.652c-.306.264-1.243,1.048-2.263,1.9-1.5,1.255-3.053,2.554-3.26,2.747-.057.054-.147.133-.261.234-1.542,1.362-3.277,3.082-3,4.316.113.5.181.771.214.892l-.987,1.821a1.111,1.111,0,0,0,.427,1.353,1.179,1.179,0,0,0,.816.2c-.219.381-.376.649-.413.708a1.876,1.876,0,0,0,.4,2.266,1.523,1.523,0,0,0,1.576.1l-1.164,2.115-1.114,3.521a2.9,2.9,0,0,0,.125,1.966,1.175,1.175,0,0,0,.807.546,1.485,1.485,0,0,0,1.6-.937l1.013-2.295,7.6,6.26a.156.156,0,0,0,.021.017,7.275,7.275,0,0,1,.684.546c.279.291,1.112,1.185,2.016,2.157,1.333,1.434,2.713,2.914,2.917,3.11.057.054.142.139.248.247,1.441,1.468,3.251,3.11,4.469,2.77.492-.139.761-.223.88-.262l1.87.888a1.112,1.112,0,0,0,1.329-.5,1.181,1.181,0,0,0,.154-.826c.392.2.669.34.728.373a1.88,1.88,0,0,0,2.244-.52,1.523,1.523,0,0,0,.017-1.581l2.173,1.05,3.577.925a2.9,2.9,0,0,0,1.956-.229,1.178,1.178,0,0,0,.5-.834,1.49,1.49,0,0,0-1.021-1.549l-1.948-.736,5.982-6.6.018-.021a7.551,7.551,0,0,1,.581-.652c.306-.264,1.243-1.047,2.261-1.9,1.5-1.255,3.055-2.554,3.261-2.747.059-.054.148-.133.262-.234,1.542-1.362,3.277-3.082,3-4.315-.113-.5-.183-.772-.214-.894l.987-1.821a1.111,1.111,0,0,0-.428-1.353,1.179,1.179,0,0,0-.815-.2c.219-.381.376-.649.411-.706a1.876,1.876,0,0,0-.4-2.268,1.524,1.524,0,0,0-1.577-.1l1.164-2.115,1.114-3.521a2.91,2.91,0,0,0-.124-1.966,1.179,1.179,0,0,0-.807-.546,1.485,1.485,0,0,0-1.6.937l-1,2.265-7.565-6.23-.022-.016a7.145,7.145,0,0,1-.683-.546c-.28-.291-1.113-1.185-2.017-2.157-1.333-1.434-2.713-2.914-2.917-3.11-.057-.054-.141-.139-.248-.247-1.441-1.468-3.251-3.109-4.469-2.768-.492.138-.761.222-.88.261l-1.87-.888a1.112,1.112,0,0,0-1.329.5,1.181,1.181,0,0,0-.154.825c-.392-.2-.668-.34-.728-.373a1.876,1.876,0,0,0-2.242.522,1.52,1.52,0,0,0-.018,1.579l-2.173-1.048-3.576-.927a2.91,2.91,0,0,0-1.957.229,1.179,1.179,0,0,0-.5.834,1.491,1.491,0,0,0,1.021,1.549Zm30.243,11.739-.446,1.008-4.741,4.716a50.54,50.54,0,0,1-6.456-6.3.212.212,0,0,0-.067-.025,2.664,2.664,0,0,0-.487-.057,9.277,9.277,0,0,0-2.215.52,11.466,11.466,0,0,1-3.943.741,13.874,13.874,0,0,0-6.471,1.2,1.55,1.55,0,0,1-1.134.24.8.8,0,0,1-.465-.43c-.25-.492-.186-1.576,1.05-2.4a10.4,10.4,0,0,1,2.615-1.245,3.4,3.4,0,0,0,1.641-1.432.239.239,0,0,0,0-.237l-1.749-2.99a.215.215,0,0,0-.043-.055l-5.147-4.648a.262.262,0,0,0-.074-.047l-3.842-1.455c-.007,0-.828-.309-.722-1.044a.716.716,0,0,1,.307-.517,2.486,2.486,0,0,1,1.583-.159l3.524.907,5.413,2.618h0a.232.232,0,0,0,.311-.108.233.233,0,0,0-.108-.312l-2.192-1.059c-.052-.034-1.273-.87-.676-1.867.4-.658,1.471-.436,1.615-.354.246.136,3.719,1.887,3.868,1.96a.23.23,0,0,0,.312-.1.232.232,0,0,0-.1-.312h0l-2.465-1.245a.794.794,0,0,1-.1-.922.651.651,0,0,1,.75-.3l3.832,1.825a.236.236,0,0,0,.312-.109.234.234,0,0,0-.109-.312l-1.353-.651.372-.106c1.106-.309,3.292,1.915,4.01,2.645.109.114.2.2.258.259.193.186,1.631,1.729,2.9,3.091.908.973,1.741,1.869,2.022,2.163a4.614,4.614,0,0,0,.737.591C-5978.095,87.132-5971.45,92.582-5970.428,93.427Zm-5.591,5.99-2.634,1.357a2.753,2.753,0,0,1-1.038-1.348,10.837,10.837,0,0,0-1.157-2.813,2.452,2.452,0,0,0-2.932-1.365,1.239,1.239,0,0,0-.7.7,1.939,1.939,0,0,0,.194,1.506,13.736,13.736,0,0,1,.812,6.272,11.876,11.876,0,0,0,.54,4.147,9.036,9.036,0,0,1,.389,2.112,2.14,2.14,0,0,1-.059.345,55.174,55.174,0,0,0-6.642,6.113l-1.657-2.836a2.753,2.753,0,0,1,1.291-1.107,10.9,10.9,0,0,0,2.748-1.306,2.452,2.452,0,0,0,1.208-3,1.245,1.245,0,0,0-.741-.663,1.941,1.941,0,0,0-1.494.274,13.74,13.74,0,0,1-6.221,1.144,11.786,11.786,0,0,0-4.11.76,9.1,9.1,0,0,1-2.088.5,2.02,2.02,0,0,1-.35-.04,55.892,55.892,0,0,0-6.265-6.153l2.6-1.342a2.764,2.764,0,0,1,1.038,1.348,10.883,10.883,0,0,0,1.156,2.813,2.453,2.453,0,0,0,2.933,1.365,1.247,1.247,0,0,0,.7-.7,1.943,1.943,0,0,0-.195-1.507,13.77,13.77,0,0,1-.813-6.272,11.785,11.785,0,0,0-.54-4.147,9.188,9.188,0,0,1-.388-2.112,2.253,2.253,0,0,1,.06-.345A55.124,55.124,0,0,0-5993.729,87l.017-.03.033.03,1.659,2.836a2.745,2.745,0,0,1-1.293,1.107,10.909,10.909,0,0,0-2.747,1.306,2.452,2.452,0,0,0-1.207,3,1.244,1.244,0,0,0,.74.663,1.939,1.939,0,0,0,1.5-.274,13.751,13.751,0,0,1,6.219-1.144,11.807,11.807,0,0,0,4.112-.76,9.067,9.067,0,0,1,2.086-.5,2.162,2.162,0,0,1,.349.04A55.882,55.882,0,0,0-5976.019,99.417Zm-18.022-12.74a.218.218,0,0,0-.083.078,50.3,50.3,0,0,1-6.662,6.144.265.265,0,0,0-.029.066,2.825,2.825,0,0,0-.082.483,9.235,9.235,0,0,0,.4,2.241,11.454,11.454,0,0,1,.529,3.976,13.869,13.869,0,0,0,.854,6.527,1.536,1.536,0,0,1,.178,1.144.794.794,0,0,1-.453.441c-.5.225-1.585.1-2.343-1.176a10.466,10.466,0,0,1-1.1-2.677,3.382,3.382,0,0,0-1.344-1.714.233.233,0,0,0-.235-.014l-3.079,1.587a.233.233,0,0,0-.057.04l-4.917,4.892a.259.259,0,0,0-.048.07l-1.657,3.761c0,.008-.354.808-1.083.664a.718.718,0,0,1-.5-.334,2.471,2.471,0,0,1-.074-1.59l1.094-3.47,2.9-5.265,0,0a.235.235,0,0,0-.091-.316.236.236,0,0,0-.318.091l-1.174,2.134c-.038.049-.936,1.225-1.9.576-.637-.432-.357-1.492-.269-1.632.151-.238,2.083-3.614,2.164-3.757a.235.235,0,0,0-.085-.319.234.234,0,0,0-.318.087h0l-1.375,2.4a.791.791,0,0,1-.926.049.65.65,0,0,1-.264-.765l2.026-3.73a.234.234,0,0,0-.094-.316.233.233,0,0,0-.316.093l-.723,1.317c-.023-.108-.054-.234-.085-.378-.251-1.122,2.087-3.185,2.855-3.863.119-.1.211-.187.272-.244.2-.183,1.813-1.537,3.24-2.729,1.021-.853,1.96-1.638,2.266-1.9a4.578,4.578,0,0,0,.63-.7c.024-.009,5.615-6.234,6.11-6.77l1.437.544Zm11.261,34.887-1.383-.523-4.745-4.286a.224.224,0,0,0,.054-.06,50.334,50.334,0,0,1,6.662-6.144.242.242,0,0,0,.028-.066,2.733,2.733,0,0,0,.083-.483,9.331,9.331,0,0,0-.4-2.241,11.407,11.407,0,0,1-.529-3.976,13.869,13.869,0,0,0-.854-6.527,1.543,1.543,0,0,1-.18-1.144.8.8,0,0,1,.454-.441c.5-.223,1.585-.1,2.343,1.176a10.416,10.416,0,0,1,1.1,2.677,3.4,3.4,0,0,0,1.344,1.714.232.232,0,0,0,.237.013l3.079-1.587a.228.228,0,0,0,.057-.04l4.916-4.892a.226.226,0,0,0,.049-.07l1.657-3.76c0-.008.353-.81,1.082-.664a.713.713,0,0,1,.5.333,2.481,2.481,0,0,1,.073,1.59l-1.093,3.47-2.9,5.265,0,0a.233.233,0,0,0,.091.316.235.235,0,0,0,.318-.091l1.173-2.134c.039-.049.938-1.225,1.9-.576.637.432.357,1.492.267,1.632-.15.238-2.082,3.614-2.164,3.758a.233.233,0,0,0,.087.318.234.234,0,0,0,.317-.087h0l1.375-2.4a.793.793,0,0,1,.925-.049.65.65,0,0,1,.264.765l-2.026,3.73a.235.235,0,0,0,.093.316.234.234,0,0,0,.316-.093l.721-1.317c.025.108.056.234.087.378.25,1.122-2.087,3.185-2.855,3.863-.119.1-.212.187-.272.244-.2.183-1.813,1.537-3.241,2.729-1.021.853-1.96,1.639-2.268,1.9a4.579,4.579,0,0,0-.628.7C-5976.689,114.825-5982.118,120.845-5982.779,121.564Zm-29.756-11.573.433-.976,4.763-4.739a50.467,50.467,0,0,1,6.483,6.32.207.207,0,0,0,.067.025,2.658,2.658,0,0,0,.487.057,9.282,9.282,0,0,0,2.215-.52,11.474,11.474,0,0,1,3.943-.741,13.884,13.884,0,0,0,6.471-1.2,1.545,1.545,0,0,1,1.134-.241.8.8,0,0,1,.465.43c.25.492.186,1.578-1.05,2.4a10.4,10.4,0,0,1-2.616,1.245,3.4,3.4,0,0,0-1.641,1.432.241.241,0,0,0,0,.237l1.749,2.99a.226.226,0,0,0,.045.055l5.146,4.649a.239.239,0,0,0,.074.045l3.842,1.455c.007,0,.828.309.721,1.045a.716.716,0,0,1-.306.516,2.487,2.487,0,0,1-1.583.159l-3.524-.907-5.413-2.617,0,0a.232.232,0,0,0-.311.108.233.233,0,0,0,.108.312l2.192,1.059c.053.034,1.273.87.676,1.867-.4.66-1.471.436-1.615.354-.246-.136-3.719-1.887-3.866-1.96a.233.233,0,0,0-.313.1.23.23,0,0,0,.1.312h0l2.465,1.245a.794.794,0,0,1,.1.922.651.651,0,0,1-.75.3l-3.832-1.825a.234.234,0,0,0-.311.111.233.233,0,0,0,.108.31l1.353.651c-.1.032-.229.066-.372.106-1.106.31-3.292-1.915-4.01-2.645-.109-.112-.2-.2-.258-.259-.193-.186-1.63-1.729-2.9-3.091-.907-.973-1.741-1.869-2.02-2.163a4.72,4.72,0,0,0-.738-.591C-6004.832,116.319-6011.646,110.731-6012.535,109.991Z" transform="translate(0)" stroke="#000" stroke-width="0.4" fill-rule="evenodd"/>
  </g>
</svg>
