<svg xmlns="http://www.w3.org/2000/svg" xmlns:xlink="http://www.w3.org/1999/xlink" width="146.022" height="137.296" viewBox="0 0 146.022 137.296">
  <defs>
    <clipPath id="clip-path">
      <rect id="Rectangle_5703" data-name="Rectangle 5703" width="146.022" height="137.296" fill="none"/>
    </clipPath>
  </defs>
  <g id="Illustration" transform="translate(0 0)">
    <g id="Group_11365" data-name="Group 11365" transform="translate(0 0)" clip-path="url(#clip-path)">
      <path id="Path_19157" data-name="Path 19157" d="M23.564,57.982c-.091-5.765-.4-11.17,0-16.934.308-4.534,1.394-11.843,3.071-12.344,0,0,.225-2.87.488-5.606-5.338-.4-10.674-.882-16-1.353a2.037,2.037,0,0,0-2.107,1.906C8.023,36.8,7.743,50.319,11.368,63.117A56.041,56.041,0,0,0,22.961,85.089c.906-9.194.745-17.872.6-27.107" transform="translate(4.981 12.941)" fill="#f0f3f7"/>
      <path id="Path_19158" data-name="Path 19158" d="M28.515,28.162c2.321.443,3.393,4.971,3.561,9.264.246,6.274,1.983,16.923,2.814,23.2,1.19,8.962,4.156,17.87,5.776,26.793.032.179.065.359.1.544,1.64-2.142,4.019-4.242,4.652-6.7.952-3.7,5.091-20,5.091-20l-7.4.82c2.063-2.7,7.257-9.245,8.843-11.006a20.555,20.555,0,0,1,4.559-4.044l-.2-.075c-1.005-.416-2.312-.917-2.65-2.055a.728.728,0,0,1,.743-1.005,6.867,6.867,0,0,0,2.712-.107,4.845,4.845,0,0,0,1.9-1.541,7.4,7.4,0,0,1,4.824-2.058,4.038,4.038,0,0,1,3.883,2.267,3.054,3.054,0,0,1,.164,1.758,3.857,3.857,0,0,1,2.141.474,6.178,6.178,0,0,1,2.781,5.024,20.081,20.081,0,0,1,.067,2.736c2.45-.108,4.681.7,4.945,3.353.294,2.932-3.071,3.562-6.26,3.723a7.38,7.38,0,0,1-1.787,3.112V62.55c.155,2.744.365,6.727.416,8.977.094,4.191.3,11.808.893,13.855.493,1.715,2.15,4.114,3.554,6.954,2.06-4.041,5.339-9.647,7.448-15.489,3.669-10.2,6.8-20.619,5.753-31.553-.5-5.189-2.19-15.176,1.646-18.476.105-.928.116-3.061.12-5.012-13.759.935-27.493,2.364-41.289,2.56-6.7.094-13.386-.093-20.069-.442.188,2.243.26,4.239.26,4.239" transform="translate(16.82 12.981)" fill="#f0f3f7"/>
      <path id="Path_19159" data-name="Path 19159" d="M97.527,23.317a2.036,2.036,0,0,0-1.863-1.57,196.051,196.051,0,0,0-21.1-.309c.137,1.661.235,3.042.235,3.042,2.477.214,5.523,6.493,3.256,10.369,2.457.174,2.211,5.162,1.919,6.722-.3,1.665-1.667,2.946-1.661,4.48,0,1.935,1.31,4.06,1.581,6.056a74.4,74.4,0,0,1,.8,12.51,168.4,168.4,0,0,1-2.149,21.4C84.7,78.8,88.636,69.944,91.315,60.851c1.739-5.9,3.015-11.933,4.272-17.955,1.366-6.469,2.634-12.942,1.94-19.579" transform="translate(44.384 12.676)" fill="#f0f3f7"/>
      <path id="Path_19160" data-name="Path 19160" d="M95.077,10.371c-.053-.791-.284-2.722-1.3-3.519C92.037,5.485,87.951,5.12,86.26,5.158a.7.7,0,1,0,.016,1.407V14.62h-.049a.7.7,0,1,0,.048,1.407h.049l.565-.038c2.211-.139,5.893-.373,7.343-1.855.96-.968.887-3.125.846-3.762" transform="translate(50.924 3.069)" fill="#ed96ae"/>
      <path id="Path_19161" data-name="Path 19161" d="M73.556,3.424c.735-1.761,6.29-1.608,4.486,1.117" transform="translate(43.786 1.35)" fill="none" stroke="#272727" stroke-linecap="round" stroke-linejoin="round" stroke-width="0.882"/>
      <path id="Path_19162" data-name="Path 19162" d="M75.366,12.518c-.059,2.291-1.889,2.931-2.768,3.511" transform="translate(43.216 7.452)" fill="none" stroke="#272727" stroke-linecap="round" stroke-linejoin="round" stroke-width="0.882"/>
      <path id="Path_19163" data-name="Path 19163" d="M7.876,8.824c-.116-.726.093-1.678-.439-1.8-.231-.284-4.921,1.712-5.51,1.93C1.261,9.2.87,10.146,1.726,10.3c1.356.249,3.518.5,4.874.748a.822.822,0,0,0,.989-.562,7.873,7.873,0,0,0,.287-1.665" transform="translate(0.735 4.166)" fill="#272727"/>
      <path id="Path_19164" data-name="Path 19164" d="M31.684,9.212C29.742,8.916,27,8.563,26.2,6.42c-.2-.56-.1-1.268-.557-1.7.335-.019.587-.03.719-.035a.7.7,0,1,0-.048-1.405c-.487.018-2.312.116-4.623.242-3.727.2-8.361.459-9.3.469a.7.7,0,0,0-.321,1.324A2.164,2.164,0,0,1,13.292,7.6a2.312,2.312,0,0,1-.869,1.731.7.7,0,0,0,.239,1.385,1.06,1.06,0,0,1,1.005.346A2.516,2.516,0,0,1,14,13.205a5.454,5.454,0,0,1-2.01,2.351c-.23.183-.447.356-.624.518A.7.7,0,0,0,11.8,17.3c.1,0,10.108.63,17,.759h.013a.7.7,0,1,0,.014-1.405h-.081c.049-.021.1-.035.145-.059.67-.325.7-.965,1.005-1.56.866-1.713,3.133-1.922,4.811-2.083a.818.818,0,0,0,.8-.8c-.18-2.087-2.055-2.669-3.829-2.932" transform="translate(6.63 1.955)" fill="#ffe42e"/>
      <path id="Path_19165" data-name="Path 19165" d="M88.268,4.739l.4.013h.022a.7.7,0,1,0,.019-1.407c-11.61-.354-39.137-.384-57.562-.2a.7.7,0,0,0,0,1.407h.024a5.34,5.34,0,0,0-2.814,3.695.879.879,0,0,0,.74,1,.9.9,0,0,0,.357-.021A11.747,11.747,0,0,1,32.746,16a.986.986,0,0,0,.054.2c-.019.04-.038.08-.061.121a.76.76,0,0,0-.072.6l-.463-.013a.7.7,0,1,0-.035,1.407q2.41.06,4.823.137c5.459.16,11.1.329,16.682.242,6.172-.094,21.844.01,34.439.093a.7.7,0,1,0,0-1.407h-.238a.838.838,0,0,0,.035-.439c-.139-.771.5-1.369,1.015-1.849a21.292,21.292,0,0,0,2-1.927c1.313-1.635,1.021-3.709.249-5.54a5.3,5.3,0,0,0-2.9-2.892" transform="translate(16.875 1.806)" fill="#ffe42e"/>
      <path id="Path_19166" data-name="Path 19166" d="M84.9,5.768a.773.773,0,0,0-.455-.916.693.693,0,0,0,.057-.265.7.7,0,0,0-.692-.715c-.874-.014-2.5-.085-4.065-.153-1.389-.062-2.7-.118-3.47-.136a.7.7,0,1,0-.032,1.405l.6.019a.611.611,0,0,0-.1.348.91.91,0,0,0,.231.735c.534,1.471,1.756,5.317.33,5.36a1.033,1.033,0,0,1-1.206.035A4.055,4.055,0,0,0,74,12.877a6.112,6.112,0,0,1-2.779,1.91.815.815,0,0,0-.552,1.013.828.828,0,0,0,.072.169,3.01,3.01,0,0,0,1.018,1.168H71.71a.7.7,0,1,0,0,1.405c4.347.027,7.343.038,9.277.038,1.485,0,2.343,0,2.7-.021a.7.7,0,0,0,.128-1.386c.9-1.078,1.018-2.962,1.19-4.271a25.63,25.63,0,0,0-.1-7.134" transform="translate(42.049 2.134)" fill="#ffe42e"/>
      <line id="Line_289" data-name="Line 289" x1="0.102" y2="0.898" transform="translate(75.543 66.082)" fill="none" stroke="#272727" stroke-linecap="round" stroke-linejoin="round" stroke-width="0.882"/>
      <line id="Line_290" data-name="Line 290" x1="0.102" y2="0.898" transform="translate(78.759 66.629)" fill="none" stroke="#272727" stroke-linecap="round" stroke-linejoin="round" stroke-width="0.882"/>
      <path id="Path_19167" data-name="Path 19167" d="M44.034,46.989a16.25,16.25,0,0,0,3.72.6c1.535-.1,2.8-1.039,4.221-1.578,1.927-.729,4.714-.536,5.255,1.913,1.338,6.06-7.938,7.346-11.51,5.4C44.393,52.614,42.126,47.243,44.034,46.989Z" transform="translate(25.776 27.17)" fill="none" stroke="#272727" stroke-linecap="round" stroke-linejoin="round" stroke-width="0.882"/>
      <path id="Path_19168" data-name="Path 19168" d="M51.8,46.145c-.273.866-.549,1.712-.785,2.613a13.789,13.789,0,0,1,1.407,1.712" transform="translate(30.368 27.47)" fill="none" stroke="#272727" stroke-linecap="round" stroke-linejoin="round" stroke-width="0.882"/>
      <path id="Path_19169" data-name="Path 19169" d="M44.48,46.677c.668.716.75,2.312.951,2.84a5.581,5.581,0,0,1-1.1,1.694" transform="translate(26.387 27.786)" fill="none" stroke="#272727" stroke-linecap="round" stroke-linejoin="round" stroke-width="0.882"/>
      <path id="Path_19170" data-name="Path 19170" d="M39.017,59.076c6.241,3.845,18.69,5.472,25.335,2.026" transform="translate(23.226 35.167)" fill="none" stroke="#272727" stroke-linecap="round" stroke-linejoin="round" stroke-width="0.882"/>
      <path id="Path_19171" data-name="Path 19171" d="M39.16,61.832c.552,2.986,2.669,7.463,5.226,9.3,2.911,2.1,10.076-2.766,9.54-5.784a7,7,0,0,0,2.061,6.536c3.848,3.168,6.37-6.238,6.324-8.89-.246-.279-.035.112-.163.188" transform="translate(23.311 36.808)" fill="none" stroke="#272727" stroke-linecap="round" stroke-linejoin="round" stroke-width="0.882"/>
      <path id="Path_19172" data-name="Path 19172" d="M50.115,67.51c-.729,1.523-.115,5.657-.487,7.235-1.106,4.679-3.856,7.19-5.189,11.631-.892,2.974,1.809,1.67,4.058,2.257,3.819.992-1.544,4.052-.786,5.376s2.8,1.206,3.4,2.395" transform="translate(26.35 40.188)" fill="none" stroke="#272727" stroke-linecap="round" stroke-linejoin="round" stroke-width="0.882"/>
      <path id="Path_19173" data-name="Path 19173" d="M109.564,109.331c.311-2.828.107-5.792.443-8.7.585-5.024,1.745-9.884,2.564-14.86a169.935,169.935,0,0,0,2.3-22.332,75.406,75.406,0,0,0-.8-12.51c-.271-2-1.576-4.121-1.581-6.056,0-1.533,1.356-2.814,1.661-4.48.289-1.56.538-6.549-1.919-6.722,2.267-3.878-.78-10.156-3.256-10.369s-10.964,1.005-12.861,2.632c-3.838,3.3-2.147,13.287-1.646,18.476,1.051,10.939-2.085,21.362-5.754,31.553-3.216,8.962-9.2,17.323-9.337,20.421-.077,1.739-.316,5.137,1.7,5.172,3.532.057,1.576-6.952.973-8.4-1.492-3.585-3.747-6.606-4.333-8.653s-.8-9.666-.895-13.857c-.083-3.668-.59-11.945-.59-11.945,3.564-.053,8.575-.227,8.219-3.778-.4-3.956-5.148-3.819-8.495-2.648l-.469-1.882c-.884-4.317-3.7-5.748-7.9-5.614-3.829.124-6.632,2.73-9.031,5.427-1.578,1.764-6.774,8.3-8.844,11.006l7.405-.823s-4.138,16.3-5.091,20-5.871,6.59-6.249,10.034c-.2,1.774.619,2.471,1.42.748.676-1.452.348-3.133.077-4.623-1.626-8.921-4.591-17.83-5.781-26.791-.833-6.279-2.568-16.929-2.814-23.2-.169-4.293-1.24-8.819-3.561-9.262a34.92,34.92,0,0,0-13.729.5c-1.677.5-2.763,7.809-3.071,12.343-.391,5.765-.085,11.169,0,16.935.148,9.339.313,18.108-.64,27.418-.482,4.722.038,9.288-.5,13.976" transform="translate(10.224 13.857)" fill="none" stroke="#272727" stroke-linecap="round" stroke-linejoin="round" stroke-width="0.882"/>
      <path id="Path_19174" data-name="Path 19174" d="M66.648,29.231c.2-1.8.061-8.093.16-8.873s3.768-1.244,5.689-1.721,5.9-1.342,6.172-.632.844,8.594.844,8.594" transform="translate(39.674 10.559)" fill="none" stroke="#272727" stroke-linecap="round" stroke-linejoin="round" stroke-width="0.882"/>
      <path id="Path_19175" data-name="Path 19175" d="M33.541,29.48a66.194,66.194,0,0,0-.938-9.353c-3.58-1.086-8.11-.236-11.823.1-.388,2.345-.968,9.757-.968,9.757" transform="translate(11.794 11.663)" fill="none" stroke="#272727" stroke-linecap="round" stroke-linejoin="round" stroke-width="0.882"/>
      <path id="Path_19176" data-name="Path 19176" d="M67.841,25.686c-.643-3.854-3.248-8.733-1.418-12.644,1.121-2.4,7.33-7.057,9.71-4.086C78,11.284,73.669,12.7,72.289,12.879c2.12,1.16,2.769,2.5,2.211,4.02" transform="translate(39.159 4.761)" fill="none" stroke="#272727" stroke-linecap="round" stroke-linejoin="round" stroke-width="0.882"/>
      <path id="Path_19177" data-name="Path 19177" d="M22.581,16.389c-.517-4.762,6.381-5.781,8.063-3.618-1.618-.968-3.9-5.1-1.482-6.365,2.331-1.22,4.114,2.176,5.189,3.64a6.4,6.4,0,0,1,1.292,5.828c-.587,2.688-2.637,2.474-3.843,4.62a17.846,17.846,0,0,0-1.354,7.493" transform="translate(13.426 3.659)" fill="none" stroke="#272727" stroke-linecap="round" stroke-linejoin="round" stroke-width="0.882"/>
      <path id="Path_19178" data-name="Path 19178" d="M69.881,11.628c.33-2.192-1.809-6.877-3.706-7.959" transform="translate(39.392 2.185)" fill="none" stroke="#272727" stroke-linecap="round" stroke-linejoin="round" stroke-width="0.882"/>
      <path id="Path_19179" data-name="Path 19179" d="M64.615,4.2c.9-2.457,4.926-3.167,6.088-.246.715-2.243,3.6-1.255,4.28.351,2.075-3.044,5.553,1.048,6.062,3.144.495,2.034,1.557,7.177-2.211,4.532a1.492,1.492,0,0,1-1.5,1.351" transform="translate(38.464 1.219)" fill="none" stroke="#272727" stroke-linecap="round" stroke-linejoin="round" stroke-width="0.882"/>
      <path id="Path_19180" data-name="Path 19180" d="M73.386,14.4a37.036,37.036,0,0,1,.585,5.328" transform="translate(43.685 8.571)" fill="none" stroke="#272727" stroke-linecap="round" stroke-linejoin="round" stroke-width="0.882"/>
      <path id="Path_19181" data-name="Path 19181" d="M20.282,12.3c-.485,1.863,1.051,4.558,3.147,4.363" transform="translate(12.02 7.325)" fill="none" stroke="#272727" stroke-linecap="round" stroke-linejoin="round" stroke-width="0.882"/>
      <path id="Path_19182" data-name="Path 19182" d="M20.906,22.29c.228-1.916-.126-5.3.751-7.289" transform="translate(12.445 8.93)" fill="none" stroke="#272727" stroke-linecap="round" stroke-linejoin="round" stroke-width="0.882"/>
      <path id="Path_19183" data-name="Path 19183" d="M24.224,15.67a1.154,1.154,0,0,1,1.318-.4" transform="translate(14.42 9.049)" fill="none" stroke="#272727" stroke-linecap="round" stroke-linejoin="round" stroke-width="0.882"/>
      <path id="Path_19184" data-name="Path 19184" d="M70.157,16.232a3.749,3.749,0,0,0,1.3-.215" transform="translate(41.763 9.535)" fill="none" stroke="#272727" stroke-linecap="round" stroke-linejoin="round" stroke-width="0.882"/>
      <path id="Path_19185" data-name="Path 19185" d="M31.6,3.172C31,4.241,28.931,8.03,28.122,8.178" transform="translate(16.74 1.889)" fill="none" stroke="#272727" stroke-linecap="round" stroke-linejoin="round" stroke-width="0.882"/>
      <path id="Path_19186" data-name="Path 19186" d="M29.3,11.2c-1.126.134-3.071.1-3.157-1.263-1.045.774-2.993.745-2.637-1.1C17.68,10.356,21.676-1.54,25.534,2.506" transform="translate(12.244 0.99)" fill="none" stroke="#272727" stroke-linecap="round" stroke-linejoin="round" stroke-width="0.882"/>
      <path id="Path_19187" data-name="Path 19187" d="M22.536,6.482c.7-1.255,1.362-2.962,2.45-3.955.989-.9,3.642-2.01,4.007.077,1.157-3.9,8.345-2.047,8.516,1.737" transform="translate(13.415 0.263)" fill="none" stroke="#272727" stroke-linecap="round" stroke-linejoin="round" stroke-width="0.882"/>
      <path id="Path_19188" data-name="Path 19188" d="M55.255,44c.766-.372,1.634-.633,2.339-.919" transform="translate(32.892 25.648)" fill="none" stroke="#272727" stroke-linecap="round" stroke-linejoin="round" stroke-width="0.882"/>
      <path id="Path_19189" data-name="Path 19189" d="M54.806,80.8c3.336-.943,7.2-1.441,10.317-2.627" transform="translate(32.625 46.533)" fill="none" stroke="#272727" stroke-linecap="round" stroke-linejoin="round" stroke-width="0.882"/>
      <path id="Path_19190" data-name="Path 19190" d="M59.552,77.28a11,11,0,0,1,1.106,4.679" transform="translate(35.45 46.004)" fill="none" stroke="#272727" stroke-linecap="round" stroke-linejoin="round" stroke-width="0.882"/>
      <path id="Path_19191" data-name="Path 19191" d="M58.022,77.676c1.386,2.01,1.732,5.26,2.037,7.7" transform="translate(34.539 46.239)" fill="none" stroke="#272727" stroke-linecap="round" stroke-linejoin="round" stroke-width="0.882"/>
      <path id="Path_19192" data-name="Path 19192" d="M79.19,17.419c3.3-.086,8.739.077,9.947-.718,1.291-.847,1.648-3.8,1.445-6.679s-.75-4.409-1.946-4.937c-.916-.4-5-.614-8.758-.8" transform="translate(47.14 2.55)" fill="none" stroke="#272727" stroke-linecap="round" stroke-linejoin="round" stroke-width="0.882"/>
      <line id="Line_291" data-name="Line 291" x2="12.158" y2="0.254" transform="translate(115.487 15.649)" fill="none" stroke="#272727" stroke-linecap="round" stroke-linejoin="round" stroke-width="0.882"/>
      <path id="Path_19193" data-name="Path 19193" d="M30.435,9.43c12.539.034,32.041-.085,38.422.032,2.289.043,11.476.231,20.541.418" transform="translate(18.117 5.602)" fill="none" stroke="#272727" stroke-linecap="round" stroke-linejoin="round" stroke-width="0.882"/>
      <path id="Path_19194" data-name="Path 19194" d="M13.415,9.267s16.09.088,17.685.139c.887.029,2.107.049,3.586.065" transform="translate(7.986 5.517)" fill="none" stroke="#272727" stroke-linecap="round" stroke-linejoin="round" stroke-width="0.882"/>
      <path id="Path_19195" data-name="Path 19195" d="M80.018,4.334a18.685,18.685,0,0,1-.828,13.054" transform="translate(47.14 2.581)" fill="none" stroke="#272727" stroke-linecap="round" stroke-linejoin="round" stroke-width="0.882"/>
      <path id="Path_19196" data-name="Path 19196" d="M18.764,4.165S13.538,6.347,12.053,6.91C10.386,7.545.441,11.534.441,11.534S8.027,13.245,9.847,13.7c2.613.662,8.353,2.347,8.353,2.347" transform="translate(0.263 2.48)" fill="none" stroke="#272727" stroke-linecap="round" stroke-linejoin="round" stroke-width="0.882"/>
      <path id="Path_19197" data-name="Path 19197" d="M5.41,6.948c1.1,1.035.361,3.246-.518,4.561" transform="translate(2.912 4.137)" fill="none" stroke="#272727" stroke-linecap="round" stroke-linejoin="round" stroke-width="0.882"/>
      <path id="Path_19198" data-name="Path 19198" d="M63.354,42.85a6.183,6.183,0,0,0-2.782-5.025,3.856,3.856,0,0,0-2.142-.474,3.056,3.056,0,0,0-.164-1.758,4.039,4.039,0,0,0-3.883-2.267,7.385,7.385,0,0,0-4.823,2.06,4.924,4.924,0,0,1-1.906,1.541,6.817,6.817,0,0,1-2.71.105.729.729,0,0,0-.743,1.005c.337,1.139,1.651,1.638,2.648,2.053A16.146,16.146,0,0,0,51.084,41.2c1.405.171,3.444.3,4.791-.487a6.154,6.154,0,0,0,.258,1.721,27.252,27.252,0,0,0,1.021,2.812c.4.956,1.259,2.138.871,3.2A.725.725,0,0,0,59.369,49,20.176,20.176,0,0,0,60.7,46.038a12.563,12.563,0,0,1,2.72-.447,19.9,19.9,0,0,0-.064-2.741" transform="translate(26.287 19.838)" fill="#272727"/>
      <path id="Path_19199" data-name="Path 19199" d="M54.359,48.559a7.251,7.251,0,0,0,1.787-3.112c-.675.032-1.343.046-1.965.056-.006,0,.08,1.279.179,3.057" transform="translate(32.252 27.054)" fill="#272727"/>
      <path id="Path_19200" data-name="Path 19200" d="M69.693,4.835a14.626,14.626,0,0,1,1.68,4.441" transform="translate(41.487 2.879)" fill="none" stroke="#272727" stroke-linecap="round" stroke-linejoin="round" stroke-width="0.882"/>
      <path id="Path_19201" data-name="Path 19201" d="M72.49,5A13.935,13.935,0,0,1,74.1,10.043" transform="translate(43.152 2.978)" fill="none" stroke="#272727" stroke-linecap="round" stroke-linejoin="round" stroke-width="0.882"/>
      <path id="Path_19202" data-name="Path 19202" d="M45.611,49.4q-.153-1.187-.3-2.375a.682.682,0,0,0-.962-.539.608.608,0,0,0-.474.153,1.952,1.952,0,0,0-.346,2.3,2.675,2.675,0,0,0,.081.356,3.153,3.153,0,0,0,.211.534,4.693,4.693,0,0,0,.246.92.7.7,0,0,0,1.129.231.757.757,0,0,0,.4-.4l.182-.4a.728.728,0,0,0-.164-.775" transform="translate(25.779 27.642)" fill="#272727"/>
      <path id="Path_19203" data-name="Path 19203" d="M52.671,47.74h0v-.013a.069.069,0,0,1,0-.026.732.732,0,0,0-.64-.764.744.744,0,0,0-.729.413.384.384,0,0,0-.08.156,1.831,1.831,0,0,0-.061.815.725.725,0,0,0,1.434-.03v-.078a.347.347,0,0,0,.035-.069.761.761,0,0,0,.04-.405" transform="translate(30.443 27.94)" fill="#272727"/>
    </g>
  </g>
</svg>
