<svg xmlns="http://www.w3.org/2000/svg" width="19.635" height="19.7" viewBox="0 0 19.635 19.7">
  <path id="Web" d="M13.349,1.33A9.844,9.844,0,0,1,17.9,3.964a7.713,7.713,0,0,1-2.53,1.118c-.171.039-.344.07-.516.1a12.111,12.111,0,0,0-1.5-3.856ZM8.182,16.3c.641,2.7,1.7,4.406,2.687,4.406s2.046-1.711,2.687-4.407a20.006,20.006,0,0,0-5.374,0Zm5.958-4.788H7.6a24.659,24.659,0,0,0,.325,3.5,21.307,21.307,0,0,1,5.892,0,24.756,24.756,0,0,0,.325-3.5ZM13.814,6.7a21.183,21.183,0,0,1-2.946.215A21.082,21.082,0,0,1,7.922,6.7a24.645,24.645,0,0,0-.324,3.5H14.14a24.65,24.65,0,0,0-.325-3.5Zm1.851-.336c-.185.043-.373.075-.559.113a26.554,26.554,0,0,1,.347,3.721h5.233a9.777,9.777,0,0,0-1.925-5.213,9.03,9.03,0,0,1-3.1,1.379Zm-.212,5.147a26.554,26.554,0,0,1-.347,3.721c.187.038.374.07.559.114a9.043,9.043,0,0,1,3.1,1.379,9.784,9.784,0,0,0,1.925-5.214H15.453Zm-9.17-1.313A26.526,26.526,0,0,1,6.63,6.476c-.093-.019-.186-.033-.278-.053A9.593,9.593,0,0,1,2.99,4.963a9.778,9.778,0,0,0-1.939,5.231H6.284Zm.6,6.32c-.084.017-.169.03-.253.048a8.282,8.282,0,0,0-2.789,1.182,9.847,9.847,0,0,0,4.544,2.629,12.106,12.106,0,0,1-1.5-3.859Zm8.483.107c-.171-.039-.344-.07-.516-.1a12.1,12.1,0,0,1-1.5,3.857A9.844,9.844,0,0,0,17.9,17.74a7.735,7.735,0,0,0-2.53-1.118ZM6.63,15.228a26.526,26.526,0,0,1-.347-3.719H1.051A9.783,9.783,0,0,0,2.99,16.74a9.592,9.592,0,0,1,3.362-1.46c.092-.02.185-.033.278-.053Zm0-10.086c.084.018.169.031.253.048a12.106,12.106,0,0,1,1.5-3.859A9.847,9.847,0,0,0,3.844,3.959,8.273,8.273,0,0,0,6.632,5.141Zm6.923.267C12.914,2.713,11.855,1,10.869,1S8.823,2.713,8.182,5.408a19.975,19.975,0,0,0,5.373,0Z" transform="translate(-1.051 -1.002)" fill="#fff"/>
</svg>
