<svg xmlns="http://www.w3.org/2000/svg" width="70.658" height="73.252" viewBox="0 0 70.658 73.252"><defs><style>.a,.c{fill:#ad1123;}.b{fill:none;stroke:#dbdae1;stroke-linecap:round;stroke-miterlimit:10;stroke-width:4px;}.c,.d,.e{stroke:#323d50;stroke-width:0.3px;}.d{fill:#323d50;}.e{fill:#bc3c4b;}</style></defs><g transform="translate(-9.599 5.328)"><circle class="a" cx="5.481" cy="5.481" r="5.481" transform="translate(50.694 -0.308)"/><line class="b" x1="8.133" transform="translate(20.514 0.438)"/><line class="b" y1="7.824" x2="0.031" transform="translate(24.58 -3.32)"/><line class="b" x1="8.133" transform="translate(70.124 33.836)"/><line class="b" y1="7.824" x2="0.031" transform="translate(74.191 30.079)"/><path class="c" d="M37.2,48.367H32.416a1.287,1.287,0,1,0,0,2.574H37.2a1.287,1.287,0,0,0,0-2.574Z" transform="translate(6.135 12.157)"/><path class="d" d="M25.168,67.774H56.725a5.154,5.154,0,0,0,5.148-5.148V11.148A5.154,5.154,0,0,0,56.725,6H25.168a5.154,5.154,0,0,0-5.148,5.148V21.787H11.036A1.287,1.287,0,0,0,9.75,23.074V42.1a1.287,1.287,0,0,0,1.287,1.287h8.984V62.626A5.154,5.154,0,0,0,25.168,67.774ZM56.725,65.2H25.168a2.576,2.576,0,0,1-2.574-2.574v-4.2H59.3v4.2A2.576,2.576,0,0,1,56.725,65.2ZM25.168,8.574H56.725A2.576,2.576,0,0,1,59.3,11.148v4.309h-36.7V11.148A2.576,2.576,0,0,1,25.168,8.574Zm-2.574,9.457H59.3V55.848h-36.7V43.383H36.882A1.287,1.287,0,0,0,38.169,42.1V23.074a1.287,1.287,0,0,0-1.287-1.287H22.595Zm-10.271,6.33H35.595V40.809H12.323Z"/><path class="d" d="M39.23,12.355a1.283,1.283,0,0,0,.9-2.2,1.331,1.331,0,0,0-1.815,0,1.061,1.061,0,0,0-.155.193,1.991,1.991,0,0,0-.129.219c-.025.09-.051.167-.064.244a.872.872,0,0,0-.026.257,1.275,1.275,0,0,0,1.287,1.287Z" transform="translate(8.09 1.09)"/><path class="d" d="M35.017,11.969a1.294,1.294,0,0,0,2.2-.9,1.31,1.31,0,0,0-.386-.914,1.33,1.33,0,0,0-1.814,0,1.3,1.3,0,0,0-.283.412,1.383,1.383,0,0,0-.09.5,1.271,1.271,0,0,0,.09.489A1.3,1.3,0,0,0,35.017,11.969Z" transform="translate(7.144 1.09)"/><path class="d" d="M31.717,11.973a1.124,1.124,0,0,0,.412.283,1.337,1.337,0,0,0,.5.1,1.275,1.275,0,0,0,.49-.1,1.122,1.122,0,0,0,.412-.283,1.3,1.3,0,0,0,.283-.412,1.26,1.26,0,0,0,.09-.489,1.254,1.254,0,0,0-.785-1.184,1.211,1.211,0,0,0-.991,0,1.253,1.253,0,0,0-.785,1.184,1.26,1.26,0,0,0,.09.489A1.3,1.3,0,0,0,31.717,11.973Z" transform="translate(6.196 1.085)"/><path class="d" d="M28.417,11.972a1.116,1.116,0,0,0,.412.283,1.325,1.325,0,0,0,.489.1,1.266,1.266,0,0,0,.914-.386,1.126,1.126,0,0,0,.283-.412,1.284,1.284,0,0,0,.1-.489,1.781,1.781,0,0,0-.026-.257c-.026-.077-.052-.155-.077-.244s-.077-.142-.116-.219a2.39,2.39,0,0,0-.167-.193,1.282,1.282,0,0,0-1.4-.27,1.3,1.3,0,0,0-.7,1.673A1.315,1.315,0,0,0,28.417,11.972Z" transform="translate(5.25 1.086)"/><path class="e" d="M14.817,24.812H30.931a1.287,1.287,0,0,0,0-2.574H14.817a1.287,1.287,0,0,0,0,2.574Z" transform="translate(1.085 4.66)"/><path class="e" d="M14.817,28.231H30.931a1.287,1.287,0,0,0,0-2.574H14.817a1.287,1.287,0,0,0,0,2.574Z" transform="translate(1.085 5.641)"/><path class="e" d="M26.992,30.364A1.287,1.287,0,0,0,25.7,29.077H14.817a1.287,1.287,0,1,0,0,2.574H25.7A1.287,1.287,0,0,0,26.992,30.364Z" transform="translate(1.085 6.622)"/></g></svg>