<svg xmlns="http://www.w3.org/2000/svg" width="1170" height="272" viewBox="0 0 1170 272"><defs><style>.a{fill:#fff;}.b,.j{fill:#ad1123;}.b{font-size:16px;}.b,.g{font-family:SegoeUI-Bold, Segoe UI;font-weight:700;}.c,.d,.e,.l{fill:none;}.c,.d,.e,.f,.i{stroke:#c9c9cb;}.c,.d,.i{stroke-width:2px;}.c{stroke-dasharray:3;}.f,.g,.h{fill:#c9c9cb;}.g{font-size:18px;}.i{fill:#fdfdfd;}.k,.m{stroke:none;}.m{fill:#c9c9cb;}</style></defs><rect class="a" width="108" height="17" transform="translate(232 125)"/><text class="b" transform="translate(25 137)"><tspan x="0" y="0">Ideate</tspan></text><text class="b" transform="translate(418 140)"><tspan x="0" y="0">Software</tspan></text><text class="b" transform="translate(675 128)"><tspan x="-67.383" y="0">Quality Assurance</tspan><tspan x="-44.621" y="21.3">And Testing</tspan></text><text class="b" transform="translate(859 136)"><tspan x="0" y="0">Product</tspan></text><g class="c" transform="translate(0 106)"><rect class="k" width="96" height="50"/><rect class="l" x="1" y="1" width="94" height="48"/></g><g class="d" transform="translate(395 109)"><rect class="k" width="114" height="50"/><rect class="l" x="1" y="1" width="112" height="48"/></g><g class="c" transform="translate(171 110)"><rect class="k" width="147" height="50" rx="25"/><rect class="l" x="1" y="1" width="145" height="48" rx="24"/></g><path class="d" d="M-7442.972,205h52.584" transform="translate(7546.888 -73.5)"/><path class="d" d="M-7442.972,205h50.588" transform="translate(7769.002 -73.5)"/><path class="d" d="M-7442.971,205h42.421" transform="translate(7968.551 -73.5)"/><path class="d" d="M-7442.972,205h54.5" transform="translate(8215.972 -73.5)"/><path class="d" d="M-7442.972,205h37.019" transform="translate(8387.463 -73.5)"/><text class="b" transform="translate(196 140)"><tspan x="0" y="0">Proto Design</tspan></text><g class="c" transform="translate(388 101)"><rect class="k" width="128" height="65"/><rect class="l" x="1" y="1" width="126" height="63"/></g><g class="c" transform="translate(586 96)"><rect class="k" width="177" height="70"/><rect class="l" x="1" y="1" width="175" height="68"/></g><g class="d" transform="translate(841 104)"><rect class="k" width="94" height="50"/><rect class="l" x="1" y="1" width="92" height="48"/></g><line class="e" y2="38" transform="translate(48.5 56.5)"/><line class="e" y2="38" transform="translate(447.5 56.5)"/><line class="e" y1="38" transform="translate(244.5 173.5)"/><line class="e" y1="38" transform="translate(674.5 173.5)"/><line class="e" y2="38" transform="translate(888.5 56.5)"/><g class="f" transform="translate(46 54)"><rect class="k" width="5" height="5"/><rect class="l" x="0.5" y="0.5" width="4" height="4"/></g><g class="f" transform="translate(445 54)"><rect class="k" width="5" height="5"/><rect class="l" x="0.5" y="0.5" width="4" height="4"/></g><g class="f" transform="translate(242 207)"><rect class="k" width="5" height="5"/><rect class="l" x="0.5" y="0.5" width="4" height="4"/></g><g class="f" transform="translate(672 207)"><rect class="k" width="5" height="5"/><rect class="l" x="0.5" y="0.5" width="4" height="4"/></g><g class="f" transform="translate(886 54)"><rect class="k" width="5" height="5"/><rect class="l" x="0.5" y="0.5" width="4" height="4"/></g><text class="g" transform="translate(48 40)"><tspan x="-34.022" y="0">Scoping</tspan></text><text class="g" transform="translate(244 243)"><tspan x="-75.485" y="0">Design Document</tspan><tspan x="-71.873" y="24" xml:space="preserve"> and Prototyping</tspan></text><text class="g" transform="translate(889 19)"><tspan x="-72.681" y="0">Sales &amp; Technical</tspan><tspan x="-34.497" y="21.3">Support</tspan></text><text class="g" transform="translate(451 19)"><tspan x="-70.752" y="0">Iterations, Demo</tspan><tspan x="-49.808" y="21.3">&amp; Feedback</tspan></text><text class="g" transform="translate(675 243)"><tspan x="-67.359" y="0">Identify Defects</tspan><tspan x="-65.558" y="24">&amp; Resolve Bugs</tspan></text><g class="h" transform="translate(161 126) rotate(90)"><path class="k" d="M 10.10846900939941 8.5 L 0.8915305733680725 8.5 L 5.5 0.9588682055473328 L 10.10846900939941 8.5 Z"/><path class="m" d="M 5.5 1.917726516723633 L 1.783055305480957 8 L 9.216944694519043 8 L 5.5 1.917726516723633 M 5.5 0 L 11 9 L 0 9 L 5.5 0 Z"/></g><g class="h" transform="translate(381 126) rotate(90)"><path class="k" d="M 10.10846900939941 8.5 L 0.8915305733680725 8.5 L 5.5 0.9588682055473328 L 10.10846900939941 8.5 Z"/><path class="m" d="M 5.5 1.917726516723633 L 1.783055305480957 8 L 9.216944694519043 8 L 5.5 1.917726516723633 M 5.5 0 L 11 9 L 0 9 L 5.5 0 Z"/></g><g class="h" transform="translate(577 126) rotate(90)"><path class="k" d="M 10.10846900939941 8.5 L 0.8915305733680725 8.5 L 5.5 0.9588682055473328 L 10.10846900939941 8.5 Z"/><path class="m" d="M 5.5 1.917726516723633 L 1.783055305480957 8 L 9.216944694519043 8 L 5.5 1.917726516723633 M 5.5 0 L 11 9 L 0 9 L 5.5 0 Z"/></g><g class="h" transform="translate(832 126) rotate(90)"><path class="k" d="M 10.10846900939941 8.5 L 0.8915305733680725 8.5 L 5.5 0.9588682055473328 L 10.10846900939941 8.5 Z"/><path class="m" d="M 5.5 1.917726516723633 L 1.783055305480957 8 L 9.216944694519043 8 L 5.5 1.917726516723633 M 5.5 0 L 11 9 L 0 9 L 5.5 0 Z"/></g><g class="h" transform="translate(990 126) rotate(90)"><path class="k" d="M 10.10846900939941 8.5 L 0.8915305733680725 8.5 L 5.5 0.9588682055473328 L 10.10846900939941 8.5 Z"/><path class="m" d="M 5.5 1.917726516723633 L 1.783055305480957 8 L 9.216944694519043 8 L 5.5 1.917726516723633 M 5.5 0 L 11 9 L 0 9 L 5.5 0 Z"/></g><g transform="translate(-695 -2681)"><g class="i" transform="translate(1692 2746)"><rect class="k" width="173" height="133" rx="2"/><rect class="l" x="1" y="1" width="171" height="131" rx="1"/></g><text class="b" transform="translate(1779 2835)"><tspan x="-58.641" y="0">Product Launch</tspan><tspan x="-37.125" y="21.3">to Market</tspan></text><g transform="translate(1197 2797.414)"><g transform="translate(551.517 -42.966)"><path class="j" d="M47.835,14.751a1.209,1.209,0,0,0-1.1-1.1C43.48,13.374,32.78,13.508,24.2,25.5c0,0-9.136-2.361-10.609,9.32a1.19,1.19,0,0,0,1.253,1.329A20.958,20.958,0,0,0,20.562,34.9a.519.519,0,0,1,.693.562,3.884,3.884,0,0,0,1.3,3.472,3.884,3.884,0,0,0,3.471,1.3.52.52,0,0,1,.563.693,20.95,20.95,0,0,0-1.249,5.715,1.189,1.189,0,0,0,1.327,1.251c11.683-1.472,9.322-10.609,9.322-10.609C47.975,28.7,48.109,18,47.835,14.751ZM33.564,27.918c-2.1-2.1-1.642-4.3,0-5.946a3.878,3.878,0,0,1,5.946,0c2.052,2.052,1.866,4.081,0,5.946S35.669,30.023,33.564,27.918Z"/><path class="j" d="M25.081,68.23l-.014-.006a.586.586,0,0,0-.727.23A3.741,3.741,0,0,1,20.732,70.2,3.741,3.741,0,0,1,22.481,66.6a.586.586,0,0,0,.23-.727l-.006-.014a.608.608,0,0,0-.607-.37c-1.462.118-5.9,1.025-4.423,7.775,6.749,1.479,7.657-2.961,7.775-4.423A.608.608,0,0,0,25.081,68.23Z" transform="translate(-2.005 -27.448)"/></g></g></g></svg>