<svg xmlns="http://www.w3.org/2000/svg" xmlns:xlink="http://www.w3.org/1999/xlink" width="424.974" height="439.932" viewBox="0 0 424.974 439.932"><defs><style>.a{fill:#7baba1;}.b{fill:#fff;}.c{fill:#35ffc9;}.d{fill:#ededed;}.e{fill:#ffef00;}.f{filter:url(#l);}.g{filter:url(#j);}.h{filter:url(#h);}.i{filter:url(#f);}.j{filter:url(#d);}.k{filter:url(#a);}</style><filter id="a" x="279.002" y="60.146" width="133.005" height="131.064" filterUnits="userSpaceOnUse"><feOffset dy="3" input="SourceAlpha"/><feGaussianBlur stdDeviation="3" result="b"/><feFlood flood-opacity="0.251" result="c"/><feComposite operator="out" in="SourceGraphic" in2="b"/><feComposite operator="in" in="c"/><feComposite operator="in" in2="SourceGraphic"/></filter><filter id="d" x="370.118" y="383.911" width="32.203" height="32.203" filterUnits="userSpaceOnUse"><feOffset dy="3" input="SourceAlpha"/><feGaussianBlur stdDeviation="1.5" result="e"/><feFlood flood-opacity="0.161"/><feComposite operator="in" in2="e"/><feComposite in="SourceGraphic"/></filter><filter id="f" x="0" y="61.228" width="32.203" height="32.203" filterUnits="userSpaceOnUse"><feOffset dy="3" input="SourceAlpha"/><feGaussianBlur stdDeviation="1.5" result="g"/><feFlood flood-opacity="0.161"/><feComposite operator="in" in2="g"/><feComposite in="SourceGraphic"/></filter><filter id="h" x="261.331" y="0" width="41.203" height="41.203" filterUnits="userSpaceOnUse"><feOffset dy="3" input="SourceAlpha"/><feGaussianBlur stdDeviation="3" result="i"/><feFlood flood-opacity="0.161"/><feComposite operator="in" in2="i"/><feComposite in="SourceGraphic"/></filter><filter id="j" x="211.635" y="129.475" width="41.203" height="41.203" filterUnits="userSpaceOnUse"><feOffset dy="3" input="SourceAlpha"/><feGaussianBlur stdDeviation="3" result="k"/><feFlood flood-opacity="0.161"/><feComposite operator="in" in2="k"/><feComposite in="SourceGraphic"/></filter><filter id="l" x="336.625" y="194.858" width="13.238" height="50.259" filterUnits="userSpaceOnUse"><feOffset dy="3" input="SourceAlpha"/><feGaussianBlur stdDeviation="3" result="m"/><feFlood flood-opacity="0.161" result="n"/><feComposite operator="out" in="SourceGraphic" in2="m"/><feComposite operator="in" in="n"/><feComposite operator="in" in2="SourceGraphic"/></filter></defs><g transform="translate(-190.4 -121.399)"><g transform="translate(194.9 174.914)"><path class="a" d="M563.294,971.9a70.546,70.546,0,0,1-6.052,8.764,1.7,1.7,0,0,0-1.708.251c-2.386,1.934-4.47,4.219-6.906,6.152a54.13,54.13,0,0,1-7.282,4.872,57.079,57.079,0,0,1-16.624,6.228,55.956,55.956,0,0,1-35.081-4.369,60.127,60.127,0,0,1-16.5-11.6,1.435,1.435,0,0,0-2.36.477c-1.281-.9-2.913.979-1.833,2.335,9.693,11.928,24.584,19.16,39.777,20.566a59.89,59.89,0,0,0,50.549-21.42,45.392,45.392,0,0,0,6.654-10.7C566.76,971.7,564.324,970.14,563.294,971.9Z" transform="translate(-399.869 -806.768)"/><path class="a" d="M969.292,1303.883a9.13,9.13,0,0,1-3.591,3.189c-3.641,1.381-8.714.377-12.129.3a47.791,47.791,0,0,0-17.679,2.988c-.125-.025-.251-.025-.377-.05a1.452,1.452,0,0,0-1.457.778,1.854,1.854,0,0,0-1.055,2.16,2.01,2.01,0,0,0,1.281,1.306,5.714,5.714,0,0,0,.929,1.607,1.449,1.449,0,0,0,.527.5,5.228,5.228,0,0,0,4.821.653,24.665,24.665,0,0,1,5.55-1.08,52.192,52.192,0,0,1,5.6.2c3.666.251,7.383.427,10.949-.628.4-.126.8-.251,1.18-.4a11.114,11.114,0,0,0,1.205-.377,14.186,14.186,0,0,0,6.73-4.972,1.716,1.716,0,0,0-.5-2.411,11.16,11.16,0,0,0,1.306-1.858C973.837,1303.657,970.623,1301.8,969.292,1303.883Z" transform="translate(-747.608 -1055.283)"/><path class="a" d="M280.927,1411.75c-.753-2.687-1.406-5.424-2.285-8.086a1.445,1.445,0,0,0-1.08-1,1.674,1.674,0,0,0-1.883-.251c-11,5.273-23.529.6-33.423-4.872-5.273-2.913-10.3-6.3-15.67-9.015a34.086,34.086,0,0,0-6.479-2.561,21.682,21.682,0,0,0-8.864-2.386c-7.157-.251-14.69,5.047-14.288,12.782.075,1.532,2.26,2.36,3.064.829l.377-.678a1.071,1.071,0,0,0,.276-.3c3.616-4.8,10.773-2.009,15.142-.075a147.212,147.212,0,0,1,15.494,8.488,120.756,120.756,0,0,0,12.732,6.78,1.416,1.416,0,0,0,.4.728c3.742,3.566,9.417,5.474,14.69,5.826,7.132,1.682,15.167-.427,21.094-4.445A1.625,1.625,0,0,0,280.927,1411.75Z" transform="translate(-196.427 -1115.638)"/><path class="a" d="M1756.549,317.364a56.067,56.067,0,0,0-3.666,9.442,38.645,38.645,0,0,0-1.883,9.969,1.515,1.515,0,0,0,2.963.4c.979-3.064,1.557-6.3,2.411-9.417s1.934-6.177,2.988-9.241C1759.889,316.912,1757.328,315.807,1756.549,317.364Z" transform="translate(-1360.24 -316.614)"/><path class="a" d="M1809.274,399.592a40.256,40.256,0,0,0-17.427,5.349c-1.406.829-.477,3.315,1.155,2.712,2.737-1,5.424-2.084,8.211-2.913s5.625-1.431,8.463-2.109C1811.358,402.229,1811.057,399.492,1809.274,399.592Z" transform="translate(-1390.314 -378.753)"/><path class="a" d="M1286.078,799.156a61.477,61.477,0,0,0-9.969,6.454,75.2,75.2,0,0,0-8.94,7.785,1.492,1.492,0,0,0,2.109,2.109c2.888-2.511,5.8-5,8.864-7.282s6.3-4.294,9.467-6.454A1.516,1.516,0,0,0,1286.078,799.156Z" transform="translate(-997.572 -677.846)"/><path class="a" d="M1378.835,838.894a60.372,60.372,0,0,0-2.285,7.609c-.7,2.586-1.331,5.2-1.858,7.835a1.5,1.5,0,0,0,2.888.8c.829-2.561,1.557-5.148,2.21-7.734a58.753,58.753,0,0,0,1.758-7.759C1381.723,838.241,1379.387,837.588,1378.835,838.894Z" transform="translate(-1078.401 -707.213)"/><g data-type="innerShadowGroup"><path class="a" d="M1410.97,372.723a61.551,61.551,0,0,0-34.152-26.467,65.7,65.7,0,0,0-42.991.778,64.567,64.567,0,0,0-24.006,15.921,1.572,1.572,0,0,0-.5.326,65.408,65.408,0,0,0-20.164,35.909,59.545,59.545,0,0,0,5.776,39.5,68.865,68.865,0,0,0,69.684,34.729,69.784,69.784,0,0,0,37.441-17.427c11.3-10.471,17.3-24.634,18.658-39.224A72.663,72.663,0,0,0,1410.97,372.723Zm-116.994,45.05c-.276-1.934-.5-3.867-.628-5.826-.1-1.607,2.586-1.984,2.838-.377.3,1.934.527,3.867.7,5.826C1297.014,419.029,1294.227,419.405,1293.976,417.773Zm45.678,45.477a59.164,59.164,0,0,1-12.255-4.294,65.258,65.258,0,0,1-18.407-13.209,58.64,58.64,0,0,1-12.732-18.934c-.6-1.507,1.858-2.486,2.587-1.08a75.757,75.757,0,0,0,6.328,10.647,65.626,65.626,0,0,0,35.281,24.057C1342.24,460.94,1341.461,463.652,1339.653,463.25Zm68.278-72.447a90.314,90.314,0,0,0-4.62-10.9,73.127,73.127,0,0,0-6.2-9.869,82.286,82.286,0,0,0-16.875-16.272c-1.406-1.055-.176-3.365,1.406-2.411,6.981,4.244,12.983,10.346,17.879,16.825,4.872,6.454,9.115,13.987,11.275,21.822C1411.321,391.883,1408.584,392.561,1407.931,390.8Zm4.043,14.891a51.5,51.5,0,0,1-.954-8.086,1.412,1.412,0,0,1,2.762-.377,48.451,48.451,0,0,1,1,8.061C1414.912,406.925,1412.251,407.3,1411.974,405.695Z" transform="translate(-1013.53 -336.39)"/><g class="k" transform="matrix(1, 0, 0, 1, -4.5, -53.52)"><path class="b" d="M1410.97,372.723a61.551,61.551,0,0,0-34.152-26.467,65.7,65.7,0,0,0-42.991.778,64.567,64.567,0,0,0-24.006,15.921,1.572,1.572,0,0,0-.5.326,65.408,65.408,0,0,0-20.164,35.909,59.545,59.545,0,0,0,5.776,39.5,68.865,68.865,0,0,0,69.684,34.729,69.784,69.784,0,0,0,37.441-17.427c11.3-10.471,17.3-24.634,18.658-39.224A72.663,72.663,0,0,0,1410.97,372.723Zm-116.994,45.05c-.276-1.934-.5-3.867-.628-5.826-.1-1.607,2.586-1.984,2.838-.377.3,1.934.527,3.867.7,5.826C1297.014,419.029,1294.227,419.405,1293.976,417.773Zm45.678,45.477a59.164,59.164,0,0,1-12.255-4.294,65.258,65.258,0,0,1-18.407-13.209,58.64,58.64,0,0,1-12.732-18.934c-.6-1.507,1.858-2.486,2.587-1.08a75.757,75.757,0,0,0,6.328,10.647,65.626,65.626,0,0,0,35.281,24.057C1342.24,460.94,1341.461,463.652,1339.653,463.25Zm68.278-72.447a90.314,90.314,0,0,0-4.62-10.9,73.127,73.127,0,0,0-6.2-9.869,82.286,82.286,0,0,0-16.875-16.272c-1.406-1.055-.176-3.365,1.406-2.411,6.981,4.244,12.983,10.346,17.879,16.825,4.872,6.454,9.115,13.987,11.275,21.822C1411.321,391.883,1408.584,392.561,1407.931,390.8Zm4.043,14.891a51.5,51.5,0,0,1-.954-8.086,1.412,1.412,0,0,1,2.762-.377,48.451,48.451,0,0,1,1,8.061C1414.912,406.925,1412.251,407.3,1411.974,405.695Z" transform="translate(-1009.03 -282.88)"/></g></g><path class="a" d="M643.634,701.425c-1.758-1.632-5.047-1.758-7.307-1.733-2.561.05-5.751.477-7.935,1.909a2.944,2.944,0,0,0,.377,5.324,5.3,5.3,0,0,0,1.231.352,13.422,13.422,0,0,0,3.742.628,19.2,19.2,0,0,0,8.337-1.1C644.312,705.92,645.668,703.333,643.634,701.425Z" transform="translate(-518.403 -603.493)"/><g class="j" transform="matrix(1, 0, 0, 1, -4.5, -53.52)"><path class="a" d="M1680.4,1661.5a11.6,11.6,0,1,1,11.6-11.6A11.607,11.607,0,0,1,1680.4,1661.5Zm0-18.03a6.429,6.429,0,1,0,6.428,6.429A6.441,6.441,0,0,0,1680.4,1643.473Z" transform="translate(-1294.18 -1252.89)"/></g><g class="i" transform="matrix(1, 0, 0, 1, -4.5, -53.52)"><path class="a" d="M206.5,376.5a11.6,11.6,0,1,1,11.6-11.6A11.606,11.606,0,0,1,206.5,376.5Zm0-18.03a6.429,6.429,0,1,0,6.429,6.429A6.441,6.441,0,0,0,206.5,358.473Z" transform="translate(-190.4 -290.57)"/></g></g><g transform="translate(303.426 127.4)"><path class="c" d="M658.774,1542.3a24.1,24.1,0,0,0-3.264-9.241c-2.034-2.963-5.2-2.787-8.287-1.708-6.253,2.235-18.683,9.342-19.436,10.748a4.72,4.72,0,0,0-.377,1.632,22.118,22.118,0,0,0,3.641,16.373c1.883,2.612,4.646,4.395,7.885,3.114a24.087,24.087,0,0,0,4.294-2.586c1.632-1.1,3.265-2.21,4.9-3.34,2.813-1.908,6.077-3.641,8.463-6.077C659.05,1548.734,659.352,1545.569,658.774,1542.3Z" transform="translate(-627.078 -1178.264)"/><g class="h" transform="matrix(1, 0, 0, 1, -113.03, -6)"><path class="a" d="M1265.1,150.6a11.6,11.6,0,1,1,11.6-11.6A11.606,11.606,0,0,1,1265.1,150.6Zm0-18.03A6.429,6.429,0,1,0,1271.53,139,6.441,6.441,0,0,0,1265.1,132.573Z" transform="translate(-983.17 -121.4)"/></g><g class="g" transform="matrix(1, 0, 0, 1, -113.03, -6)"><path class="a" d="M1067.2,666.2a11.6,11.6,0,1,1,11.6-11.6A11.607,11.607,0,0,1,1067.2,666.2Zm0-18.055a6.429,6.429,0,1,0,6.428,6.429A6.441,6.441,0,0,0,1067.2,648.148Z" transform="translate(-834.97 -507.52)"/></g></g><g transform="translate(194.924 156.525)"><path class="d" d="M3811.456,12265h79.922s-37.465,34.359-82.816,0" transform="translate(-3791.064 -11875.465)"/><path d="M752.854,618.186c-.552-1.833-3.44-1.055-2.888.8a64.85,64.85,0,0,1,2.712,17.4,58.86,58.86,0,0,1-.4,8.663c-.1.753-.226,2.084-1.055,2.461-1.205.552-2.586-1.055-3.365-1.708a1.439,1.439,0,0,0-2.034,2.034c1.908,2.31,5.575,4.143,8.036,1.456a6.6,6.6,0,0,0,1.431-3.717,49.721,49.721,0,0,0,.427-5.449A68.268,68.268,0,0,0,752.854,618.186Z" transform="translate(-607.206 -523.285)"/><path d="M817.342,645.35a3.085,3.085,0,0,0-.578.276,1.682,1.682,0,0,0-1.08.427,3.634,3.634,0,0,0,.477,5.826,3.682,3.682,0,0,0,5.5-2.386C822.138,647.033,819.928,644.446,817.342,645.35Z" transform="translate(-658.887 -544.272)"/><path d="M654.469,599.142c-.151-3.039-3.867-2.511-5.8-1.883a15.6,15.6,0,0,0-3.842,1.883,17.108,17.108,0,0,0-5.223,4.118,1.542,1.542,0,0,0,1.08,2.586,18.427,18.427,0,0,0,8.287-1.507C650.979,603.461,654.595,601.753,654.469,599.142Z" transform="translate(-527.655 -508.033)"/><path d="M808.791,590.58a14.155,14.155,0,0,0-4.621-3.114,15.162,15.162,0,0,0-5.424-1.281c-1.632-.075-3.817.7-2.988,2.787a4.654,4.654,0,0,0,2.335,2.134,22.605,22.605,0,0,0,4.947,2.737c1.507.6,3.716,1.632,5.349,1C810.374,594.1,810,591.86,808.791,590.58Z" transform="translate(-644.762 -500.099)"/><path d="M658.783,653.77c-4.269-1.758-9.593-3.089-14.238-2.285-1.682.276-1.1,2.637.377,2.787,2.235.2,4.445.126,6.68.527.5.1.979.2,1.482.326a17.212,17.212,0,0,0-5.1,3.164c-1.18,1.08.377,3.164,1.733,2.26a22.59,22.59,0,0,1,9.04-3.842C660.465,656.432,659.988,654.272,658.783,653.77Z" transform="translate(-530.889 -548.825)"/><path d="M714.874,763.245a1.82,1.82,0,0,0-1.381-2.687.554.554,0,0,1-.2-.025,48.914,48.914,0,0,1-5.073-.176,22.9,22.9,0,0,1-4.947-1.331,22.233,22.233,0,0,1-4.52-2.386c-1.431-.979-2.561-2.235-3.892-3.34-1-.829-2.687,0-2.436,1.18a1.328,1.328,0,0,0-.025.326c.075,6.027,1.356,13.611,7.508,16.4a9.605,9.605,0,0,0,8.814-.578,15.619,15.619,0,0,0,6.077-7.257A.546.546,0,0,0,714.874,763.245Z" transform="translate(-567.494 -625.003)"/><path d="M571.463,1023.865a90.094,90.094,0,0,1-12.732,7.508,56.71,56.71,0,0,1-14.163,4.168,56.1,56.1,0,0,1-29.079-3.265,62.427,62.427,0,0,1-14.64-8.412c-1.306-.979-3.013,1.205-1.758,2.285,15.971,13.661,39.676,16.9,59.012,9.191,5.424-2.16,10.949-5,15.218-9.065C574.552,1025.1,572.919,1022.911,571.463,1023.865Z" transform="translate(-422.4 -827.69)"/><path d="M712.929,1060.028a46.467,46.467,0,0,1-8.663,5.776,56.255,56.255,0,0,1-9.844,3.39c-1.482.427-1.281,2.988.377,2.813a33,33,0,0,0,10.8-3.49,36.341,36.341,0,0,0,9.367-6.429C716.369,1060.756,714.36,1058.873,712.929,1060.028Z" transform="translate(-568.26 -854.687)"/><path d="M890.157,1407.889a6.321,6.321,0,0,0-4.369-3.591,23.488,23.488,0,0,0-6.479-.653c-2.586-.05-5.173,0-7.759.176a91.884,91.884,0,0,0-15.268,2.335c-5.751,1.381-16.1,2.687-21.47,5.2-1.733.8-.226,3.365,1.507,2.561,8.212-3.716,21.747-5.525,30.686-6.579a86,86,0,0,1,13.209-.527c2.059.075,8.663.326,6.7,4.093-1.03,1.984-3.29,2.637-5.324,3.013-2.386.452-11.8,1.03-13.987,2.16-1.431.728-.427,3.29,1.13,2.662,4.369-1.783,16.774-.954,20.139-4.947A5.77,5.77,0,0,0,890.157,1407.889Z" transform="translate(-673.57 -1112.272)"/><path d="M886.505,1470.216c-1.1-3.139-4.219-4.9-7.358-5.5-6.78-1.356-14.916-.276-20.893,3.315-1.632.979-.2,3.265,1.456,2.511,5.123-2.26,10.22-3.616,15.845-3.239,2.386.176,5.223.527,6.981,2.335,1.557,1.582,1.632,3.993-.477,5.073-1.482.753-.452,3.064,1.1,2.637C886.2,1476.519,887.51,1472.978,886.505,1470.216Z" transform="translate(-691.162 -1157.599)"/><path d="M862.433,1515.7c-4.445,0-9.542.929-13.359,3.34-1.306.829-.477,3.239,1.1,2.612a43.524,43.524,0,0,1,6.052-2.185,25.242,25.242,0,0,1,6.429-.7c3.491.05,8.111.578,10.622,3.34,2.361,2.586,1.13,6.4-1.256,8.513-3.089,2.737-7.86,2.461-11.627,1.733-1.833-.352-2.662,2.36-.778,2.863a17.823,17.823,0,0,0,11.652-.427,10.765,10.765,0,0,0,6.3-7.659C879.157,1518.437,869.087,1515.7,862.433,1515.7Z" transform="translate(-684.341 -1196.203)"/><path d="M656.721,1583.38a51.032,51.032,0,0,1-10.446,7.157c-3.465,1.708-7.684,3.164-10.522-.3-1.055-1.306-2.963.352-2.235,1.733,2.436,4.57,8.563,3.742,12.48,2.059a39.746,39.746,0,0,0,12.757-8.613A1.44,1.44,0,0,0,656.721,1583.38Z" transform="translate(-523.278 -1246.606)"/><path d="M891.018,1603.607a132.006,132.006,0,0,0-6.6,23.379,172.139,172.139,0,0,0-3.189,23.806c-.151,2.285-.251,4.545-.276,6.83a38.391,38.391,0,0,0,.226,7.006,1.473,1.473,0,0,0,1.657,1.08,1.513,1.513,0,0,0,1.306-1.481,51.317,51.317,0,0,0,.176-5.9c.025-1.959.1-3.942.2-5.9.176-3.917.5-7.835.954-11.752a164.768,164.768,0,0,1,4.47-23.429c1.155-4.344,2.612-8.563,3.892-12.857C894.358,1602.552,891.7,1601.95,891.018,1603.607Z" transform="translate(-708.658 -1261.309)"/><path d="M1075.212,1263.9c-3.365,5.3-6.554,10.7-9.944,15.946q-5.085,7.91-10.522,15.569-10.886,15.368-23.1,29.707c-15.067,17.7-33.248,38.22-58.108,40.153-11.853.929-24.208-3.214-31.741-12.706-1.205-1.507-3.265.6-2.109,2.109,6.755,8.714,17.653,13.359,28.5,13.886,12.129.578,24.132-4.018,34.1-10.672,10.471-6.981,19.16-16.222,27.4-25.639q12.845-14.615,24.333-30.385,6.366-8.7,12.254-17.729c4.018-6.127,8.01-12.33,11.476-18.783A1.463,1.463,0,0,0,1075.212,1263.9Z" transform="translate(-752.428 -1007.109)"/><path d="M1593.828,1067.207a14.122,14.122,0,0,0-16.85-3.038c-1.406.778-.427,3.315,1.13,2.662,4.043-1.708,8.814-1.607,12.3,1.356a7.378,7.378,0,0,1,2.838,5.55,4.29,4.29,0,0,1-3.842,4.319,1.483,1.483,0,0,0,0,2.963c3.089.251,5.826-2.185,6.68-5.022A9.688,9.688,0,0,0,1593.828,1067.207Z" transform="translate(-1229.434 -856.894)"/><path d="M1543.48,1144.171c-1.356-.879-3.013,1.205-1.758,2.285,2.787,2.411-1.256,5.575-3.139,6.906a31.145,31.145,0,0,1-9.166,4.495,27.842,27.842,0,0,1-10.07,1.13c-1.18-.1-3.792-.151-4.169-1.632-.477-1.883,3.239-1.205,4.068-1.055a1.448,1.448,0,0,0,.779-2.787c-1.858-.578-3.892-.929-5.7,0a4.061,4.061,0,0,0-2.235,4.319c.8,4.118,6.027,4.369,9.342,4.369a32.729,32.729,0,0,0,21.269-8.136C1545.489,1151.6,1547.322,1146.682,1543.48,1144.171Z" transform="translate(-1181.296 -917.812)"/><path d="M1543.619,1199.328c-.7-1.507-3.164-.452-2.687,1.13,1.08,3.641-1.758,6.3-4.57,8.111a27.771,27.771,0,0,1-9.191,3.767,27.454,27.454,0,0,1-9.919.276,16.3,16.3,0,0,1-4.6-1.18c-1.908-.929.854-2.235,1.733-2.586,1.708-.7,1.055-3.44-.779-2.838a7.037,7.037,0,0,0-4.018,2.612,3.693,3.693,0,0,0,.251,4.495c1.1,1.205,2.863,1.607,4.395,1.984a33.328,33.328,0,0,0,5.424.829,30.031,30.031,0,0,0,20.215-6.127C1543.041,1207.363,1545.477,1203.32,1543.619,1199.328Z" transform="translate(-1178.999 -958.73)"/><path d="M1537.108,1301.186c-.1-6.956-.226-13.912-.653-20.868.025-1.205.025-2.411-1.255-2.31a32.933,32.933,0,0,1-9.291-.2,1.535,1.535,0,0,0-1.909,1.456v.151c0,.3,1,15.921,1.08,23.479q.113,11.79-.377,23.58a1.372,1.372,0,0,0,1.557,1.456c.05,0,.125.025.176.025a30.3,30.3,0,0,0,9.392-.728,2.3,2.3,0,0,0,1.205-1.758,47.792,47.792,0,0,0,.076-5.374C1537.359,1313.817,1537.209,1307.464,1537.108,1301.186Z" transform="translate(-1190.267 -1018.025)"/><g data-type="innerShadowGroup"><path d="M1530.608,902.886c-.1-6.956-.226-13.912-.653-20.868.025-1.205.025-2.411-1.256-2.31a32.929,32.929,0,0,1-9.291-.2,1.535,1.535,0,0,0-1.909,1.456v.151c0,.3,1,15.921,1.08,23.479q.113,11.79-.377,23.58a1.372,1.372,0,0,0,1.557,1.456c.05,0,.126.025.176.025a30.3,30.3,0,0,0,9.392-.728,2.3,2.3,0,0,0,1.205-1.758,47.763,47.763,0,0,0,.075-5.374C1530.859,915.517,1530.683,909.164,1530.608,902.886Zm-2.863,9.567a1.432,1.432,0,0,1-2.863,0,35.778,35.778,0,0,1,.05-4.344,1.47,1.47,0,0,1,2.938,0A35.743,35.743,0,0,1,1527.746,912.453Zm-2.662-11.175c-.452-5.073-.578-10.2-.728-15.268-.05-1.909,2.838-1.883,2.963,0,.3,5.073.628,10.2.628,15.268C1527.972,903.162,1525.259,903.087,1525.084,901.279Z" transform="translate(-1185.4 -719.744)"/><g class="f" transform="matrix(1, 0, 0, 1, -4.52, -35.13)"><path class="b" d="M1530.608,902.886c-.1-6.956-.226-13.912-.653-20.868.025-1.205.025-2.411-1.256-2.31a32.929,32.929,0,0,1-9.291-.2,1.535,1.535,0,0,0-1.909,1.456v.151c0,.3,1,15.921,1.08,23.479q.113,11.79-.377,23.58a1.372,1.372,0,0,0,1.557,1.456c.05,0,.126.025.176.025a30.3,30.3,0,0,0,9.392-.728,2.3,2.3,0,0,0,1.205-1.758,47.763,47.763,0,0,0,.075-5.374C1530.859,915.517,1530.683,909.164,1530.608,902.886Zm-2.863,9.567a1.432,1.432,0,0,1-2.863,0,35.778,35.778,0,0,1,.05-4.344,1.47,1.47,0,0,1,2.938,0A35.743,35.743,0,0,1,1527.746,912.453Zm-2.662-11.175c-.452-5.073-.578-10.2-.728-15.268-.05-1.909,2.838-1.883,2.963,0,.3,5.073.628,10.2.628,15.268C1527.972,903.162,1525.259,903.087,1525.084,901.279Z" transform="translate(-1180.88 -684.62)"/></g></g><path d="M1514.825,462.167c1.23.226,1.557-1.406,1.607-2.687a1.682,1.682,0,0,0-1.18-1.532,72.487,72.487,0,0,0-21.094-3.49,99.36,99.36,0,0,0-10.6.226c-1.758.126-3.491.326-5.223.578a32.312,32.312,0,0,0-5.1.879c-1.582.352-2.134.3-2.034,1.507.527,6.7,1.281,13.384,1.381,20.139.1,6.78-.477,13.46-1.03,20.19a2.826,2.826,0,0,0-.05.779c.4,2.009.854,2.762,2.335,2.888,2.461.2,3.064-2.31,3.39-4.143a13.125,13.125,0,0,1,1.431-3.968,16.522,16.522,0,0,1,10.622-6.177,18.206,18.206,0,0,1,17.5,7.684,19.608,19.608,0,0,1,1.331,19.386A19.824,19.824,0,0,1,1491.4,525.5a20.038,20.038,0,0,1-18.758-10.949c-1.356-2.612-5.324-.3-3.968,2.31a23.121,23.121,0,0,0,1.733,2.838c4.545,6.3,11.2,10.5,18.181,11.049a25.134,25.134,0,0,0,4.42-50.072,19.867,19.867,0,0,0-14.715,4.52c-.126.126-.251.226-.4.352a99.779,99.779,0,0,0-1.557-22.726,72.114,72.114,0,0,1,18.934-2.812A106.764,106.764,0,0,1,1514.825,462.167Z" transform="translate(-1148.623 -401.418)"/><path d="M552.66,522.3c-2.436-2.335-5.826-2.411-8.99-1.984a85.374,85.374,0,0,0-9.718,1.959,110.279,110.279,0,0,0-18.256,6.655c-11.928,5.524-22.952,12.832-33.474,20.692-11.2,8.362-22.023,17.226-32.519,26.442-10.572,9.291-20.843,18.984-30.661,29.079-.075-2.863-.025-5.75.1-8.613.176-3.716.829-7.383,1.055-11.074.251-.276.5-.578.753-.879a1.28,1.28,0,0,0,.778-1.406c-2.637-19.738-6.981-41.233-20.968-56.325a48.577,48.577,0,0,0-11-8.864,84.751,84.751,0,0,0-14.163-6.228c-2.888-1.03-5.826-2.009-8.739-3.039a44.816,44.816,0,0,0,8.663-5.022,49.467,49.467,0,0,0,9.994-9.567,2.252,2.252,0,0,0,.427-.979,1.463,1.463,0,0,0-.8-2.662c-7.458-.5-13.862-4.269-18.633-9.919-5.3-6.3-8.161-14.238-11.15-21.8a1.274,1.274,0,0,0-.226-.4c7.157-10.471,9.994-23.856,10.848-36.437a137.577,137.577,0,0,0,.2-14.74,1.731,1.731,0,0,0,.276-.326c10.17-14.841,13.359-34.6,5.6-51.177-6.981-14.916-22.073-25.488-38.822-24.484-8.714.527-17.478,3.943-23.555,10.3a20.137,20.137,0,0,0-13.058-5.8,26.814,26.814,0,0,0-16.473,4.445c-5.349,3.415-9.643,8.161-13.46,13.184a121.8,121.8,0,0,0-10.773,17.051,125.869,125.869,0,0,0-12.732,39.6c-2.185,14.74-2.335,29.707-4.344,44.447a119.33,119.33,0,0,1-4.821,21.546,75.064,75.064,0,0,1-10.12,19.763,1.28,1.28,0,0,0,.025,1.532,1.5,1.5,0,0,0,.251.678c2.863,4.118,7.207,7.559,11.4,10.22a46.481,46.481,0,0,0,6.755,3.49,33.586,33.586,0,0,0,5.273,1.934,167.05,167.05,0,0,0-13.41,9.969,105.813,105.813,0,0,0-14.138,14.514A113.851,113.851,0,0,0,200.823,573.4a109.862,109.862,0,0,0-5.6,39.8c.025.3.025.578.05.854a8.092,8.092,0,0,0-.075,1.557,8.912,8.912,0,0,0,.477,2.461.188.188,0,0,0,.025.125,1.12,1.12,0,0,0,.276.628,8.317,8.317,0,0,0,4.6,4.445c-3.767,12.932-6.429,26.242-5.324,39.676,1.356,16.473,8.362,32.67,22.525,41.986,15.946,10.471,36.01,10.5,54.015,6.529a154.549,154.549,0,0,0,84.977-52.207c1.306-1.607,2.561-3.239,3.817-4.9,1.03-1.381-1.356-3.239-2.411-1.858a154.831,154.831,0,0,1-12.757,14.489c-1.909-1.883-3.917-3.641-5.675-5.675-2.059-2.386-3.641-5.073-5.525-7.559a1.6,1.6,0,0,0-.427-.4c.7-.678,1.381-1.356,2.034-2.084a1.439,1.439,0,0,0-2.034-2.034c-3.264,2.813-6.353,5.826-9.668,8.563q-2.524,2.072-5.123,4.068c-1.682,1.281-3.516,2.436-5.1,3.817-1.256,1.08.352,3.039,1.733,2.26a38.35,38.35,0,0,0,4.319-3.038,1.047,1.047,0,0,0,.1.251,45.028,45.028,0,0,0,4.972,7.483,40.523,40.523,0,0,0,5.826,6.755,1.424,1.424,0,0,0,.326.2c-2.762,2.16-5.575,4.219-8.463,6.177a151.861,151.861,0,0,1-43.87,20.491c-17.327,4.872-36.738,7.081-53.563-.829a43.366,43.366,0,0,1-18.105-15.494,56.16,56.16,0,0,1-8.186-22c-2.963-18.306,2.16-36.713,7.709-54.015.7-2.16,1.406-4.319,2.084-6.479,5.374.276,10.6,3.591,14.941,6.429,11.451,7.458,22.55,17.377,36.839,18.281.552.025,1.08.05,1.657.05-.552,3.265-.9,6.579-1.356,9.844-.276,2.034-.578,4.093-.854,6.152a40.709,40.709,0,0,0-.728,6.027c-.854.5-4.344,2.436-5.2,2.938a1.431,1.431,0,0,0,1.456,2.461c10.5-5.5,23.4-12.958,33.75-18.733,4.746-2.637,9.492-5.3,14.213-7.935a14.083,14.083,0,0,0,1.08,7.986c.678,1.507,3.189.427,2.662-1.13a13.493,13.493,0,0,1-.075-8.889c3.943-2.185,7.86-4.394,11.8-6.579a13.24,13.24,0,0,0,2.235,7.132A1.459,1.459,0,0,0,323.718,630a13.835,13.835,0,0,1-1.557-7.408c4.219-2.26,8.613-4.47,12.154-7.684,3.239-2.913,5.3-6.755,6.906-10.748s2.737-8.186,4.344-12.179a32.9,32.9,0,0,1,2.812-5.55c1.13-1.733,2.662-3.892,4.8-4.42,2.36-.578,3.139,1.959,3.29,3.817a78.851,78.851,0,0,1-.276,8.789c-.3,6.68-.4,7.558-.678,14.238-.075,1.984,2.963,1.959,3.064,0,.3-6.177.326-6.554.628-12.732.151-2.988.377-5.976.4-8.965a10.937,10.937,0,0,0-1.23-5.725A5.307,5.307,0,0,0,352.747,579a10.1,10.1,0,0,0-5.525,3.842c-2.838,3.566-4.52,7.81-6,12.079-1.431,4.194-2.662,8.513-4.821,12.405-2.536,4.545-6.378,7.358-10.848,9.869-1.582.9-3.189,1.783-4.771,2.687a1.452,1.452,0,0,0-1.13.628c-8.764,4.922-17.578,9.793-26.367,14.715-10.145,5.675-20.416,11.175-30.485,16.95.176-1.205.276-2.461.427-3.616.276-2.059.552-4.093.829-6.152.477-3.44,1.08-6.906,1.406-10.346,5.324-.527,10.723-2.511,14.138-6.529,1.055-1.23-.377-3.591-1.883-2.436a25.952,25.952,0,0,1-8.312,4.495,24.78,24.78,0,0,1-5.223.929,1.221,1.221,0,0,0-.3.025,27.185,27.185,0,0,1-4.043-.075c-7.307-.628-14.088-4.143-20.165-7.985-6.579-4.143-12.732-8.94-19.612-12.556-6.077-3.214-14.138-5.6-20.265-1.08a14.77,14.77,0,0,0-1.507,1.306c0-3.541.126-7.081.477-10.647a106.381,106.381,0,0,1,3.968-19.838,111.338,111.338,0,0,1,18.231-35.809A104.275,104.275,0,0,1,234.8,527.073c5.55-4.9,11.677-8.99,17.754-13.183,6.2-4.269,12.405-8.639,17.754-13.962a63.587,63.587,0,0,0,11.9-16.448,66.726,66.726,0,0,0,6.429-39.8c-.251-1.682-.6-3.315-1-4.972a.357.357,0,0,0-.05-.151,9.716,9.716,0,0,0,3.641-1.883c1.281-1.055-.4-3.214-1.783-2.31a8.693,8.693,0,0,1-9.643-.05c-3.038-2.009-4.746-5.675-5.223-9.216-.6-4.671,1.13-20.064,9.166-14.715,3.792,2.536,3.742,7.584,4.093,11.627a1.47,1.47,0,0,0,2.938,0c0-1.08-.025-2.185-.126-3.315a149.874,149.874,0,0,0,21.646-47.737,70.647,70.647,0,0,0,49.419,20.868,143.253,143.253,0,0,1,1.381,25.187c-.3,9.115-1.356,18.306-4.319,26.97a46.721,46.721,0,0,1-12.706,19.939c-6,5.349-13.987,8.663-22.1,8.262a23.786,23.786,0,0,1-19.687-12.254c-.9-1.682-3.34-.2-2.536,1.482,3.39,6.956,10.5,11.8,17.98,13.334a30.2,30.2,0,0,0,13.811-.527c-2.16,8.538,1.708,17.6,7.634,23.755,6.855,7.132,16.423,10.848,25.564,14.037,9.517,3.315,19.461,6.429,27.271,13.083,7.081,6.027,12.229,14.113,15.695,22.676,4.6,11.3,6.353,23.278,8.613,35.156-4.169,3.917-9.517,5-15.192,5-3.164,0-6.328-.327-9.492-.427q-2.486-.113-4.972,0c-1.406.075-3.29,0-4.545.728-.7-2.386-1.507-4.721-2.285-7.081-1.909-5.776-3.214-11.476-2.26-17.553a1.472,1.472,0,0,0-2.838-.779c-1.934,5.776-.251,12.28,1.582,17.854.954,2.863,2.009,5.7,2.863,8.613a45.15,45.15,0,0,1,1.1,4.495c.3,1.532.326,3.089.527,4.62a1.433,1.433,0,0,0,2.863,0,21.227,21.227,0,0,0-.753-7.056,37.422,37.422,0,0,0,4.445-.377c1.733-.075,3.49-.025,5.223.05,3.465.151,6.956.427,10.421.276a25.594,25.594,0,0,0,11.727-3.089c-.377,2.687-.5,5.474-.653,8.136-.2,3.817-.2,7.634-.025,11.451a1.173,1.173,0,0,0,.075.427c-.352.352-3.767,3.842-4.093,4.194-1.331,1.381.778,3.49,2.109,2.109,18.457-19.06,41.133-40.028,62.05-56.35,19.11-14.916,40-29.355,64.26-33.875,2.838-.527,7.006-1.758,9.542.226,2.863,2.235-.326,5.022-2.411,6.278a29.88,29.88,0,0,1-19.562,3.742c-1.833-.251-2.712,2.436-.778,2.863a30.209,30.209,0,0,0,19.06-2.109c2.712-1.231,5.675-2.863,7.282-5.474A5.938,5.938,0,0,0,552.66,522.3Zm-306.435-58.51a63.273,63.273,0,0,1-11,31.666c-1.055,1.557-3.591.1-2.536-1.482a65.356,65.356,0,0,0,10.647-30.184C243.512,461.959,246.325,461.909,246.224,463.792Zm81.311,207.195c-1.783-2.335-3.265-4.872-5.022-7.232a1.5,1.5,0,0,0-.477-.427c1.356-1.055,2.687-2.109,4.018-3.189,1.908-1.582,3.842-3.164,5.675-4.846a37.506,37.506,0,0,0,5.7,8.061A43.825,43.825,0,0,0,343.2,669.2c-3.164,3.064-6.479,5.976-9.894,8.739a1.691,1.691,0,0,0-.176-.276C331.427,675.331,329.318,673.3,327.535,670.987Zm-64.26-295.663c-.954,2.486-2.009,4.972-3.114,7.408-.678,1.482-3.214.4-2.637-1.1.954-2.486,1.984-4.972,3.089-7.408C261.316,372.713,263.852,373.818,263.275,375.324Zm40.982-26.543a20.245,20.245,0,0,0-10.748-1.557,24.73,24.73,0,0,0-10.22,4.018c-6.378,4.319-10.7,11.024-14.414,17.6-.9,1.607-3.315.176-2.461-1.456,3.817-7.383,8.739-14.59,15.845-19.16,6.579-4.219,16.021-6.152,23.128-2.084C306.718,346.948,305.763,349.409,304.257,348.781Zm41.936,35.859c-11.25-1.03-21.747-8.412-27.6-17.9-1-1.657,1.582-3.139,2.586-1.507a35.4,35.4,0,0,0,10.873,11.049,39.606,39.606,0,0,0,14.514,5.449C348.227,382.054,347.825,384.791,346.193,384.641Zm13.56,1.934a53.776,53.776,0,0,1-5.3-1.155c-1.883-.527-1.055-3.189.779-2.863a45.993,45.993,0,0,1,5.273,1.23C362.365,384.264,361.561,386.875,359.753,386.574Z" transform="translate(-194.996 -309.101)"/><path d="M596.931,313.624a76.547,76.547,0,0,1-11.8-6.805c-1.356-.929-3.013,1.205-1.758,2.285a43.388,43.388,0,0,0,12.405,7.257C597.333,316.964,598.463,314.3,596.931,313.624Z" transform="translate(-485.51 -290.718)"/><path d="M659.236,243.79a24.915,24.915,0,0,0-6.68,10.446c-1.281,3.717-2.16,8.463-1.155,12.355a1.451,1.451,0,0,0,2.838-.377c.05-1.858-.151-3.691.05-5.55a25.1,25.1,0,0,1,1.231-5.4,27.423,27.423,0,0,1,5.776-9.417A1.457,1.457,0,0,0,659.236,243.79Z" transform="translate(-536.465 -243.384)"/><path d="M659.509,1558.521a34.593,34.593,0,0,0-5.55.4c-1.858.176-1.934,3.064,0,2.963,1-.05,2.009-.125,3.013-.2.427-.025.879-.05,1.306-.1-.226.527-.5,1.055-.653,1.431-.4.979-.778,1.984-1.18,2.963a42.536,42.536,0,0,0-2.16,5.726,1.448,1.448,0,0,0,2.637,1.1,43.509,43.509,0,0,0,2.21-5.349c.753-1.909,1.532-3.792,2.235-5.7C661.944,1560.2,661.292,1558.646,659.509,1558.521Z" transform="translate(-537.641 -1228.251)"/></g><path class="e" d="M839.5,686.766a18.646,18.646,0,0,0-6.981-.1c-2.109.326-4.821.979-6.228,2.737a3.753,3.753,0,0,0-.653,1.205,2.792,2.792,0,0,0,.025,3.465c1.331,1.582,4.018,1.657,5.9,1.708a20.954,20.954,0,0,0,7.056-.979c1.783-.6,3.943-1.507,4.395-3.566C843.545,688.875,841.561,687.218,839.5,686.766Z" transform="translate(-471.91 -418.616)"/><path class="e" d="M1347.212,1222.151a1.517,1.517,0,0,0-2.762,1.155c.628,2.084.754,4.269-.527,6.152a6.081,6.081,0,0,1-5.148,2.612c-5.072-.151-7.985-5.524-10.07-9.417a99.171,99.171,0,0,1-10.12-28.728c-.3-1.682-2.787-17.051.075-16.6,1.833.3,2.662-2.386.778-2.838-10.522-2.461-2.009,28.8-.578,33.172a104.357,104.357,0,0,0,7.458,17.4c2.687,4.922,6.805,10.7,13.159,10.245C1345.756,1234.907,1350.4,1227.926,1347.212,1222.151Z" transform="translate(-838.268 -784.046)"/><path class="c" d="M1300.294,1270.383c-.251,1.808-.5,4.6-2.938,4.42-2.235-.151-3.742-2.285-4.922-3.917a84.735,84.735,0,0,1-7.734-12.983,82.836,82.836,0,0,1-8.01-29,57.46,57.46,0,0,1-.251-8.312,11.479,11.479,0,0,1,2.285-7.006c1.23-1.457-.8-3.591-2.135-2.135-3.767,4.118-3.541,10.07-3.239,15.293a87.731,87.731,0,0,0,2.787,17.478,90.906,90.906,0,0,0,6,16.2,81.787,81.787,0,0,0,4.42,7.935,47.438,47.438,0,0,0,4.947,6.906c2.034,2.235,5.148,3.817,8.186,2.687,2.913-1.08,3.917-4.269,3.993-7.106C1303.659,1268.977,1300.571,1268.45,1300.294,1270.383Z" transform="translate(-807.522 -811.461)"/></g></svg>