<svg xmlns="http://www.w3.org/2000/svg" width="91.468" height="72.778" viewBox="0 0 91.468 72.778"><defs><style>.a{fill:#ad1123;}.b{fill:none;stroke:#dbdae1;stroke-linecap:round;stroke-miterlimit:10;stroke-width:4px;}.c{fill:#323d50;}</style></defs><g transform="translate(-4.6 -2.407)"><circle class="a" cx="5.481" cy="5.481" r="5.481" transform="translate(66.115 9.427)"/><line class="b" x1="8.133" transform="translate(15.935 8.172)"/><line class="b" x1="8.133" transform="translate(85.935 62.172)"/><line class="b" y1="7.824" x2="0.031" transform="translate(20 4.415)"/><line class="b" y1="7.824" x2="0.031" transform="translate(90 58.415)"/><path class="c" d="M72.569,14.2h-58.6A9.342,9.342,0,0,0,4.6,23.569V65.815a9.342,9.342,0,0,0,9.369,9.369h58.6a9.342,9.342,0,0,0,9.369-9.369V23.569A9.4,9.4,0,0,0,72.569,14.2Zm5.962,51.615a5.925,5.925,0,0,1-5.962,5.962h-58.6a5.925,5.925,0,0,1-5.962-5.962V30.724H78.531Zm0-38.5H8.007V23.569a5.925,5.925,0,0,1,5.962-5.962h58.6a5.925,5.925,0,0,1,5.962,5.962Z"/><circle class="a" cx="2.896" cy="2.896" r="2.896" transform="translate(10.306 19.651)"/><circle class="a" cx="2.896" cy="2.896" r="2.896" transform="translate(19.08 19.651)"/><circle class="a" cx="2.896" cy="2.896" r="2.896" transform="translate(27.938 19.651)"/><path class="a" d="M63.111,67.286a1.647,1.647,0,0,0,2.385,0l10.9-10.9A1.647,1.647,0,0,0,76.4,54L65.5,43.011A1.686,1.686,0,0,0,63.111,45.4l9.71,9.71-9.71,9.71A1.748,1.748,0,0,0,63.111,67.286Z" transform="translate(-8.599 -4.196)"/><path class="a" d="M32.013,67.3a1.647,1.647,0,0,0,2.385,0,1.647,1.647,0,0,0,0-2.385l-9.71-9.8L34.4,45.5a1.686,1.686,0,1,0-2.385-2.385l-10.9,10.817a1.647,1.647,0,0,0,0,2.385Z" transform="translate(-2.372 -4.211)"/><path class="c" d="M42.04,67.536a1.266,1.266,0,0,0,.767.17,1.794,1.794,0,0,0,1.533-.937l11.754-21.8a1.7,1.7,0,1,0-2.981-1.618L41.358,65.236A1.611,1.611,0,0,0,42.04,67.536Z" transform="translate(-5.414 -4.19)"/></g></svg>