<?xml version="1.0" encoding="utf-8"?>
<!-- Generator: Adobe Illustrator 25.4.1, SVG Export Plug-In . SVG Version: 6.00 Build 0)  -->
<svg version="1.1" id="Mobile-Development" xmlns="http://www.w3.org/2000/svg" xmlns:xlink="http://www.w3.org/1999/xlink" x="0px"
	 y="0px" viewBox="0 0 37 25.8" style="enable-background:new 0 0 37 25.8;" xml:space="preserve">
<style type="text/css">
	.st0{display:none;}
	.st1{fill:#FFFFFF;}
</style>
<rect x="-0.1" class="st0" width="37.1" height="25.8"/>
<g>
	<path class="st1" d="M16.3,18.2c0,0,0.1,0,0.1,0c0.3,0,0.5-0.2,0.5-0.5c0-0.2-0.2-0.5-0.4-0.5c-0.4-0.1-0.8-0.5-0.8-1v-1.6
		c0-0.7-0.3-1.3-0.9-1.7c0.6-0.4,0.9-1,0.9-1.7V9.6c0-0.5,0.3-0.9,0.8-1C16.8,8.6,17,8.3,16.9,8c-0.1-0.3-0.4-0.5-0.7-0.4
		c-0.9,0.2-1.6,1.1-1.6,2v1.6c0,0.3-0.2,0.7-0.5,0.8l-0.7,0.4c-0.3,0.1-0.4,0.5-0.2,0.7c0.1,0.1,0.1,0.2,0.2,0.2l0.7,0.4
		c0.3,0.2,0.5,0.5,0.5,0.8v1.6C14.7,17.1,15.4,18,16.3,18.2z"/>
	<path class="st1" d="M21.2,14.6v1.6c0,0.5-0.3,0.9-0.8,1c-0.3,0.1-0.5,0.4-0.4,0.7c0.1,0.2,0.3,0.4,0.5,0.4c0,0,0.1,0,0.1,0
		c0.9-0.2,1.6-1.1,1.6-2v-1.6c0-0.3,0.2-0.7,0.5-0.8l0.7-0.4c0.3-0.1,0.4-0.5,0.2-0.7c-0.1-0.1-0.1-0.2-0.2-0.2L22.8,12
		c-0.3-0.2-0.5-0.5-0.5-0.8V9.6c0-1-0.7-1.8-1.6-2c-0.3-0.1-0.6,0.1-0.7,0.4s0.1,0.6,0.4,0.7l0,0c0.4,0.1,0.8,0.5,0.8,1v1.6
		c0,0.7,0.3,1.3,0.9,1.7C21.6,13.3,21.2,13.9,21.2,14.6z"/>
	<path class="st1" d="M36,21.4h-1.7V3.5c0-1.9-1.5-3.4-3.4-3.4H6.1c-1.9,0-3.4,1.5-3.4,3.4v17.9H1c-0.3,0-0.5,0.2-0.5,0.5v2.1
		c0,0.9,0.7,1.6,1.6,1.6h32.8c0.9,0,1.6-0.7,1.6-1.6V22C36.5,21.7,36.3,21.4,36,21.4L36,21.4z M3.8,3.5c0-1.3,1-2.3,2.3-2.3h24.9
		c1.3,0,2.3,1,2.3,2.3v17.9h-1.1V4c0-0.9-0.7-1.6-1.6-1.6h-24C5.6,2.4,4.9,3.1,4.9,4v17.5H3.8L3.8,3.5z M14.4,21.4H6V4
		c0-0.3,0.2-0.5,0.5-0.5h24C30.8,3.4,31,3.7,31,4v17.5h-8.4c-0.3,0-0.5,0.2-0.5,0.5l0,0v0.3c0,0.1-0.1,0.2-0.2,0.2h-6.8
		c-0.1,0-0.2-0.1-0.2-0.2V22C14.9,21.7,14.7,21.4,14.4,21.4L14.4,21.4L14.4,21.4z M35.4,24.1c0,0.3-0.2,0.5-0.5,0.5H2.1
		c-0.3,0-0.5-0.2-0.5-0.5v-1.5h12.3c0.1,0.6,0.6,1,1.2,1h6.8c0.6,0,1.1-0.4,1.2-1h12.3V24.1z"/>
</g>
</svg>
