<svg xmlns="http://www.w3.org/2000/svg" width="43.733" height="29.998" viewBox="0 0 43.733 29.998">
  <g id="FBB" transform="translate(-5.1 -7.05)">
    <path id="Path_1023" data-name="Path 1023" d="M36.561,16.67v-.309q.012-3.341,0-6.689a3.378,3.378,0,0,0-.049-.556.645.645,0,0,0-.686-.581,1.692,1.692,0,0,0-.4.012c-1.019.161-2.032.321-3.045.5-.476.08-.611.29-.593.778.019.371.136.469.648.525s.581.074.581.667V28.985c0,.729.5,1.1,1.167.821a3.41,3.41,0,0,1,2.409-.074,10.648,10.648,0,0,0,3.527.469,7.01,7.01,0,0,0,3.391-.9,5.218,5.218,0,0,0,2.316-3.261,14.114,14.114,0,0,0,.364-5.682,7,7,0,0,0-1.476-3.576,5.225,5.225,0,0,0-6.6-1.278A15.724,15.724,0,0,0,36.561,16.67Zm-15.595.025v-.309c0-2.328,0-4.657-.012-6.979-.006-.673-.29-.951-.945-.865-1.093.142-2.193.327-3.28.525-.432.08-.537.29-.506.809.012.321.111.4.556.463l.278.031c.253.025.4.148.389.414-.006.117,0,.229,0,.34V28.972c0,.753.506,1.13,1.18.828A3.277,3.277,0,0,1,21,29.726a10.227,10.227,0,0,0,4.36.408A5.312,5.312,0,0,0,30.286,25.9a14.563,14.563,0,0,0,.352-5.293,7.491,7.491,0,0,0-1.112-3.273A5.231,5.231,0,0,0,22.5,15.515,14.583,14.583,0,0,0,20.966,16.694Zm-10.808.957h3.477c.284,0,.42-.1.408-.4s0-.716,0-1.081-.049-.42-.439-.42h-3.15c-.2,0-.3-.031-.3-.266.006-.883-.025-1.773.012-2.656a6.948,6.948,0,0,1,.229-1.513,1.6,1.6,0,0,1,2.557-1.124,2.415,2.415,0,0,0,.655.259A1.232,1.232,0,0,0,15.068,9.03a.691.691,0,0,0-.247-.439,3.946,3.946,0,0,0-1.186-.463,6.08,6.08,0,0,0-1.569.049,6.255,6.255,0,0,0-5.132,4.6,9.643,9.643,0,0,0-.284,2.662c.006.235-.062.334-.315.321s-.593-.006-.9-.006-.34.093-.34.334c.006.408.006.821,0,1.235,0,.229.117.334.346.327h.8c.4,0,.4,0,.4.414,0,3.094-.006,6.195.012,9.289,0,.611-.111,1.013-.84.9-.241-.037-.352.117-.346.358s0,.581,0,.865c.006.389.08.463.476.463h5c.2,0,.377-.062.383-.309.006-.358,0-.716,0-1.081a.289.289,0,0,0-.315-.3c-.191-.006-.2,0-.309,0-.42,0-.556-.136-.556-.55q0-4.836.006-9.666ZM48.833,8.184a.493.493,0,0,0-.624-.259,2.909,2.909,0,0,0-.519.259.9.9,0,0,1-1.3-.148c-.229-.222-.457-.445-.7-.655a.967.967,0,0,0-1.044-.266c.068.093.179.179.2.278a5.978,5.978,0,0,0,.7,1.779.8.8,0,0,1-.3,1.272c-.136.086-.278.167-.42.247a3.72,3.72,0,0,0,3.039-1.637A1.558,1.558,0,0,1,48.833,8.184Z" transform="translate(0 0)" fill="#f16113"/>
    <path id="Path_1024" data-name="Path 1024" d="M514.5,174.112c0-1.019,0-2.038.006-3.051a3.14,3.14,0,0,1,3.582-3.02,2.676,2.676,0,0,1,1.785,1.359,6.1,6.1,0,0,1,.834,2.748,13.53,13.53,0,0,1-.3,4.4,4.745,4.745,0,0,1-1.013,2.088,3.218,3.218,0,0,1-3.6.766,2.139,2.139,0,0,1-1.272-2.149c-.025-1.044-.006-2.094-.006-3.144Z" transform="translate(-477.939 -151.007)" fill="#fff"/>
    <path id="Path_1025" data-name="Path 1025" d="M261.958,173.845c0-.994-.006-1.995,0-2.989a3.472,3.472,0,0,1,2.026-2.909,2.687,2.687,0,0,1,3.335,1.18,6.276,6.276,0,0,1,.865,2.958,13.087,13.087,0,0,1-.358,4.434,4.117,4.117,0,0,1-1.217,2.143,3.237,3.237,0,0,1-3.28.55,1.985,1.985,0,0,1-1.316-1.822c-.062-.63-.043-1.272-.056-1.908C261.952,174.938,261.958,174.394,261.958,173.845Z" transform="translate(-240.992 -150.783)" fill="#fff"/>
    <text id="INDIA_S_FASHION_HUB" data-name="INDIA’S FASHION HUB" transform="translate(5.748 36.049)" fill="#f16113" font-size="3" font-family="Helvetica Neue" font-weight="700"><tspan x="0" y="0">INDI</tspan><tspan y="0" letter-spacing="-0.07em">A</tspan><tspan y="0">’S </tspan><tspan y="0" letter-spacing="-0.05em">F</tspan><tspan y="0">ASHION HUB</tspan></text>
  </g>
</svg>
