<svg xmlns="http://www.w3.org/2000/svg" xmlns:xlink="http://www.w3.org/1999/xlink" width="153.492" height="173.814" viewBox="0 0 153.492 173.814">
  <defs>
    <clipPath id="clip-path">
      <rect id="Rectangle_344" data-name="Rectangle 344" width="97.968" height="152.45" fill="none"/>
    </clipPath>
    <clipPath id="clip-path-3">
      <rect id="Rectangle_335" data-name="Rectangle 335" width="13.41" height="2.123" fill="none"/>
    </clipPath>
    <clipPath id="clip-path-4">
      <rect id="Rectangle_336" data-name="Rectangle 336" width="19.288" height="20.042" fill="none"/>
    </clipPath>
    <clipPath id="clip-path-5">
      <rect id="Rectangle_337" data-name="Rectangle 337" width="3.545" height="7.089" fill="none"/>
    </clipPath>
    <clipPath id="clip-path-6">
      <rect id="Rectangle_338" data-name="Rectangle 338" width="4.02" height="6.328" fill="none"/>
    </clipPath>
    <clipPath id="clip-path-7">
      <rect id="Rectangle_339" data-name="Rectangle 339" width="1.438" height="1.652" fill="none"/>
    </clipPath>
    <clipPath id="clip-path-8">
      <rect id="Rectangle_340" data-name="Rectangle 340" width="1.431" height="1.653" fill="none"/>
    </clipPath>
    <clipPath id="clip-path-10">
      <rect id="Rectangle_342" data-name="Rectangle 342" width="2.285" height="5.206" fill="none"/>
    </clipPath>
    <clipPath id="clip-path-11">
      <rect id="Rectangle_346" data-name="Rectangle 346" width="66.296" height="76.633" fill="none"/>
    </clipPath>
    <clipPath id="clip-path-12">
      <rect id="Rectangle_347" data-name="Rectangle 347" width="12.217" height="13" fill="none" stroke="#000" stroke-width="1"/>
    </clipPath>
  </defs>
  <g id="Group_293" data-name="Group 293" transform="translate(-778.616 -4138.314)">
    <g id="Group_279" data-name="Group 279" transform="translate(834.14 4159.679)">
      <g id="Group_278" data-name="Group 278" transform="translate(0)" clip-path="url(#clip-path)">
        <g id="Group_277" data-name="Group 277">
          <g id="Group_276" data-name="Group 276" clip-path="url(#clip-path)">
            <g id="Group_254" data-name="Group 254" transform="translate(31.605 66.575)" opacity="0.3">
              <g id="Group_253" data-name="Group 253" transform="translate(0)">
                <g id="Group_252" data-name="Group 252" clip-path="url(#clip-path-3)">
                  <path id="Path_663" data-name="Path 663" d="M89.785,173.821c-.694,0-1.388-.019-2.078-.035a6.953,6.953,0,0,1-.752,0c-.888-.043-1.771-.116-2.655-.174a10.782,10.782,0,0,0-1.163,0,4.153,4.153,0,0,1-1.5-.043c-.31-.1.12-1.384.682-1.388a17.079,17.079,0,0,1,3.031.233,12.436,12.436,0,0,0,1.845.078c.682,0,1.368.027,2.051.027.423,0,.841,0,1.264-.019l.95-.05q.477-.035.942-.1a7.8,7.8,0,0,0,1.368-.415c.1-.039.19-.081.287-.112.333-.132.469-.081.678.229.047.07.1.14.143.213a.489.489,0,0,1-.182.666.441.441,0,0,1-.047.024,6.85,6.85,0,0,1-2.764.795c-.705.078-1.411.1-2.109.128Z" transform="translate(-81.533 -171.749)" fill="#dde0e0"/>
                </g>
              </g>
            </g>
            <g id="Group_257" data-name="Group 257" transform="translate(27.685 15.226)" opacity="0.3">
              <g id="Group_256" data-name="Group 256">
                <g id="Group_255" data-name="Group 255" clip-path="url(#clip-path-4)">
                  <path id="Path_664" data-name="Path 664" d="M74.452,44.081a8.889,8.889,0,0,0-1.244,7.683A9.12,9.12,0,0,0,74.53,54.4a8.4,8.4,0,0,0,4.117,3.1,7.486,7.486,0,0,0,2.582.426,7.732,7.732,0,0,0,2.6-.446A7.45,7.45,0,0,0,85.9,56.361l.24-.174.217-.2c.147-.132.3-.26.438-.388a9.355,9.355,0,0,0,.775-.9,9.175,9.175,0,0,0,1.345-2.682,12.312,12.312,0,0,0,.519-2.965c.039-.624.415-.593.775-.023a3.217,3.217,0,0,1,.271.531,5.078,5.078,0,0,1,.174.713,3.521,3.521,0,0,1,.039.868,4.116,4.116,0,0,1-.043.473,3.141,3.141,0,0,1-.116.485,9.959,9.959,0,0,1-4.144,5.741,9.246,9.246,0,0,1-6.942,1.283,10.464,10.464,0,0,1-3.927-1.748,9.56,9.56,0,0,1-2.845-3.229,10.426,10.426,0,0,1-1.252-4.52,10.551,10.551,0,0,1,.853-4.582A10.387,10.387,0,0,1,73.8,42.6a10.787,10.787,0,0,1,2.155-1.9,9.252,9.252,0,0,1,8.338-.775,9.95,9.95,0,0,1,4.985,4.237c.12.217.26.419.36.643s.205.446.306.674a9.561,9.561,0,0,1,.337,1.116,5.489,5.489,0,0,1,.1.775,1.3,1.3,0,0,1-.275.892,1.65,1.65,0,0,1-.236.267c-.14.089-.291-.039-.434-.322a3.321,3.321,0,0,1-.205-.55,6.283,6.283,0,0,1-.252-.748,10.875,10.875,0,0,0-1.163-2.361,9.69,9.69,0,0,0-1.76-1.938,7.834,7.834,0,0,0-8.621-1.093,8.348,8.348,0,0,0-2.969,2.586Z" transform="translate(-71.421 -39.28)" fill="#dde0e0"/>
                </g>
              </g>
            </g>
            <path id="Path_665" data-name="Path 665" d="M133.2,235.27a99.661,99.661,0,0,1-4.9-9.567c-.539-1.19-1.1-2.365-1.6-3.566-.892-2.109-1.717-4.264-2.539-6.38-.419-1.05-.872-2.089-1.333-3.136-.233-.523-.465-1.05-.682-1.6-.109-.271-.209-.55-.3-.849a3.452,3.452,0,0,1-.112-.488v-.295a.993.993,0,0,1,.043-.322.665.665,0,0,1,.035-.128l.182-.388a3.556,3.556,0,0,1,.209-.368,2.493,2.493,0,0,1,.264-.357,1.8,1.8,0,0,1,.337-.326,1.859,1.859,0,0,1,.426-.26,1.884,1.884,0,0,1,.5-.124,1.64,1.64,0,0,1,.5.023,1.863,1.863,0,0,1,.454.128,4.488,4.488,0,0,1,1.384.946,10.9,10.9,0,0,1,1.047,1.163,22.533,22.533,0,0,1,2.14,3.334,18.566,18.566,0,0,1,1.512,3.659c.209.822-.167.775-.686.244a11.653,11.653,0,0,1-1.938-2.818,21.149,21.149,0,0,0-2.648-4.148,6.316,6.316,0,0,0-.8-.775,1.937,1.937,0,0,0-.733-.388.415.415,0,0,0-.423.143,1.823,1.823,0,0,0-.26.341,1.094,1.094,0,0,0-.124.221l-.058.12-.031.062v.05h0v.159a5.171,5.171,0,0,0,.167.562c.136.388.31.822.485,1.24.353.841.721,1.694,1.07,2.562l.9,2.26c.295.752.589,1.508.9,2.26.612,1.508,1.271,3,1.915,4.5,1.438,3.26,2.946,6.5,4.675,9.609a54.615,54.615,0,0,0,3.462,5.563,27.446,27.446,0,0,0,3.171,3.772c1.2,1.163,2.407,2.326,3.578,3.489,1.833,1.818,3.667,3.558,5.454,5.388.388.388.775.775,1.163,1.209,1.426,1.551,1.779,2.19,1.748,2.783a1.437,1.437,0,0,1-.046.388c-.07.151-.275.07-.539-.155a5.537,5.537,0,0,1-.527-.473c-.213-.2-.446-.434-.706-.709-1.551-1.616-3.225-3.252-4.9-4.919s-3.376-3.365-5.1-5.016c-.616-.578-1.318-1.244-1.938-1.919l-.915-1.047c-.295-.357-.57-.721-.857-1.085a48.772,48.772,0,0,1-3.055-4.547Z" transform="translate(-74.55 -126.828)" fill="#dde0e0"/>
            <path id="Path_666" data-name="Path 666" d="M119.989,157.181h-.047c-.012,0-.035.027,0,0v.019s-.027.023-.027.043a.507.507,0,0,1-.035.1,1.373,1.373,0,0,0-.047.543,4.805,4.805,0,0,0,.423,1.419,16.669,16.669,0,0,0,1.721,2.853,50.387,50.387,0,0,0,4.5,5.241c1.225,1.252,2.516,2.45,3.826,3.593.295.26.566.481.884.74a7.223,7.223,0,0,1,.911.911,16.649,16.649,0,0,1,1.407,2,39.245,39.245,0,0,1,2.175,4.229,68.491,68.491,0,0,1,3.217,8.869,38.156,38.156,0,0,1,.957,4.109c.058.353.1.709.128,1.078a5.367,5.367,0,0,1,0,.558,2.563,2.563,0,0,1,0,.3,2.225,2.225,0,0,1-.066.388,1.163,1.163,0,0,1-.388.643,1.244,1.244,0,0,1-.357.14,2.18,2.18,0,0,1-.388.093,3.541,3.541,0,0,1-1.2-.023,6.484,6.484,0,0,1-2.578-1.237,16.482,16.482,0,0,1-2.039-1.833c-1.248-1.3-2.326-2.737-3.407-4.078-.341-.415-.434-.632-.329-.721s.415-.023.857.217a15.781,15.781,0,0,1,3.531,3.1,18.751,18.751,0,0,0,1.841,1.8,6.653,6.653,0,0,0,2,1.233,2.521,2.521,0,0,0,.973.151c.217-.027.124,0,.151,0a1.106,1.106,0,0,0,0-.124v-.271c0-.194-.019-.388-.039-.6-.039-.411-.109-.837-.186-1.264a46.936,46.936,0,0,0-1.33-5.144c-.531-1.706-1.124-3.4-1.779-5.078a36.922,36.922,0,0,0-2.861-5.845,11.172,11.172,0,0,0-1.958-2.469l-.643-.519c-.221-.182-.434-.368-.647-.554q-.64-.558-1.256-1.132a67.174,67.174,0,0,1-5.121-5.338,36.862,36.862,0,0,1-2.283-2.946A13.3,13.3,0,0,1,118.694,159a4.069,4.069,0,0,1-.209-1.481,1.981,1.981,0,0,1,.058-.388,3.237,3.237,0,0,1,.143-.407.821.821,0,0,1,.109-.186l.155-.225a3.33,3.33,0,0,1,.357-.345,1.192,1.192,0,0,1,.248-.14.8.8,0,0,1,.287-.031,1.811,1.811,0,0,1,.574.155c.209.089.306.147.442.217l.36.217c.473.295.911.609,1.349.926.868.64,1.709,1.306,2.543,1.973,1.779,1.43,3.527,2.9,5.291,4.349.88.721,1.76,1.442,2.651,2.14.446.349.892.694,1.345,1.027a14.545,14.545,0,0,1,1.345,1.109,22.3,22.3,0,0,1,3.38,4.121c.957,1.477,1.861,2.946,2.713,4.477.388.678.744,1.341,1.085,2.051a14.6,14.6,0,0,1,1.1,2.9,2.714,2.714,0,0,1,.031,1.43,2.5,2.5,0,0,1-.155.45c-.244.31-.578-.775-1.415-2.624a43.776,43.776,0,0,0-2.147-4.105c-.775-1.345-1.632-2.737-2.5-4.055a20.386,20.386,0,0,0-2.938-3.613,18.619,18.619,0,0,0-1.841-1.477c-.663-.5-1.314-1.016-1.961-1.551-1.915-1.551-3.795-3.1-5.687-4.652-.946-.775-1.9-1.551-2.857-2.272-.477-.364-.961-.725-1.446-1.058-.244-.167-.485-.326-.725-.469q-.179-.109-.349-.2l-.07-.035Z" transform="translate(-72.554 -95.406)" fill="#dde0e0"/>
            <path id="Path_667" data-name="Path 667" d="M147.309,211.317a6,6,0,0,1-.469-2.64,7.984,7.984,0,0,1,.027-.919,16.139,16.139,0,0,1,.752-3.055c.147-.434.275-.876.388-1.31a4.261,4.261,0,0,1,.709-1.628c.128-.147.415.05.647.333a1.042,1.042,0,0,1,.31.93c-.388,1.016-.775,2.054-1.2,3.1a7.178,7.178,0,0,0-.333,2.008,6.1,6.1,0,0,0,.167,2.136,3.7,3.7,0,0,0,.236.585c.05.081.112.194.151.252a1.415,1.415,0,0,0,.116.147,1.608,1.608,0,0,0,.217.209.388.388,0,0,0,.283.116c.1-.027.143-.14.171-.236a1.921,1.921,0,0,0,.062-.306l.035-.326.062-.45a3.79,3.79,0,0,1,.264-.93,2.388,2.388,0,0,1,.209-.407c.361-.473.62-.5.9-.26a1.584,1.584,0,0,1,.19.167.651.651,0,0,1,.047.709,4.143,4.143,0,0,0-.322,1.109c-.047.306-.1.616-.147.923a3.682,3.682,0,0,1-.19.733,1.521,1.521,0,0,1-.353.512,1.192,1.192,0,0,1-.841.3,1.412,1.412,0,0,1-.225-.027c-.074-.023-.151-.043-.225-.07l-.446-.24c-.147-.1-.287-.24-.43-.357a4.514,4.514,0,0,1-.388-.423l-.089-.1-.05-.081-.1-.159a3.013,3.013,0,0,1-.182-.326Z" transform="translate(-89.915 -123.524)" fill="#dde0e0"/>
            <path id="Path_668" data-name="Path 668" d="M175.737,195.41c-.678-1.14-1.368-2.272-2.113-3.357-.271-.388-.581-.775-.861-1.163a17.475,17.475,0,0,0-3.361-3.667,4.481,4.481,0,0,0-1.884-.861,3.039,3.039,0,0,0-1.217.062,5.272,5.272,0,0,0-.562.217l-.283.124c-.093.058-.186.109-.283.159-.236.12-.461-.143-.454-.574a1.282,1.282,0,0,1,.233-.713,1.734,1.734,0,0,1,.318-.341,1.55,1.55,0,0,1,.457-.233l.229-.078.24-.043c.159-.023.318-.058.477-.066a4.248,4.248,0,0,1,.946.062,5.3,5.3,0,0,1,.876.233,6.882,6.882,0,0,1,.775.388,9.3,9.3,0,0,1,2.458,2.089c.818.946,1.671,1.884,2.407,2.892.81,1.1,1.551,2.252,2.252,3.407l1.291,2.136c.655,1.082,1.264,2.155,2.012,3.163a17.893,17.893,0,0,1,1.582,2.512c.1.194.2.388.287.581.314.733.314,1,.043,1.287a1.793,1.793,0,0,1-.19.19c-.233.171-.562-.05-.841-.554-.423-.756-.8-1.5-1.244-2.2-.221-.353-.457-.7-.705-1.054l-.388-.539c-.14-.194-.271-.388-.388-.585-.756-1.163-1.423-2.326-2.136-3.454Z" transform="translate(-100.87 -113.21)" fill="#dde0e0"/>
            <path id="Path_669" data-name="Path 669" d="M198.037,208.144c-.368-.83-.744-1.647-1.163-2.427-.155-.283-.349-.543-.519-.814a7.117,7.117,0,0,0-2.151-2.43,2.323,2.323,0,0,0-1.287-.364,7.909,7.909,0,0,0-1.7.364c-.19.035-.341-.279-.318-.659a1.329,1.329,0,0,1,.178-.581.978.978,0,0,1,.519-.388,3.966,3.966,0,0,1,2.531.1,4.742,4.742,0,0,1,1.919,1.423,18.367,18.367,0,0,1,1.616,2.12A26.328,26.328,0,0,1,198.979,207l.709,1.551c.361.775.69,1.589,1.082,2.345a17.2,17.2,0,0,0,1.039,1.663c.078.12.167.229.24.349.279.45.295.628.047.919a2.03,2.03,0,0,1-.171.194c-.205.194-.516.124-.8-.19a13.7,13.7,0,0,1-1.938-3.179l-1.163-2.5Z" transform="translate(-116.898 -122.894)" fill="#dde0e0"/>
            <path id="Path_670" data-name="Path 670" d="M224.039,252l-.341-8.164c-.027-.5-.07-.988-.1-1.481s-.1-.942-.171-1.426c-.244-1.7-.609-3.407-1.016-5.1s-.876-3.372-1.407-5.039a34.981,34.981,0,0,0-1.69-4.291,16.282,16.282,0,0,0-1.446-2.485,3.725,3.725,0,0,0-.872-.9.543.543,0,0,0-.345-.116.57.57,0,0,0-.349.182c-.167.155-.306.229-.419.143a.613.613,0,0,1-.132-.62,1.089,1.089,0,0,1,.322-.574,1.272,1.272,0,0,1,.946-.341,2.1,2.1,0,0,1,1.047.36,3.124,3.124,0,0,1,.748.674,13.942,13.942,0,0,1,1.659,2.795,30.99,30.99,0,0,1,1.163,2.888,53.7,53.7,0,0,1,1.725,5.931c.279,1.2.566,2.427.853,3.659a31.577,31.577,0,0,1,.659,3.783c.194,2.779.271,5.512.388,8.26.074,1.69.155,3.38.26,5.062.163,2.551.345,5.117.674,7.625a47.346,47.346,0,0,0,1.116,5.71c.116.388.217.814.341,1.213.442,1.508.589,1.938.388,2.419a2.118,2.118,0,0,1-.14.31c-.1.132-.26.07-.465-.171a3.606,3.606,0,0,1-.337-.488,3.729,3.729,0,0,1-.353-.737,28.48,28.48,0,0,1-1.415-5.287c-.333-1.814-.55-3.663-.744-5.516-.275-2.752-.438-5.52-.589-8.272Z" transform="translate(-132.096 -135.817)" fill="#dde0e0"/>
            <path id="Path_671" data-name="Path 671" d="M193.059,332.651c-.186-.93-.388-1.861-.612-2.779-.078-.337-.205-.659-.291-.992-.295-1.182-.6-2.365-1-3.52a15.244,15.244,0,0,0-.62-1.492,11.037,11.037,0,0,1-.826-1.9c-.054-.213.217-.322.562-.291a1.287,1.287,0,0,1,.985.554,14.8,14.8,0,0,1,1.551,4.066c.2.853.543,1.69.775,2.543.267.938.488,1.888.7,2.837l.388,1.756c.19.884.345,1.779.554,2.651.159.678.388,1.326.593,1.989.043.143.1.283.136.434.128.55.074.744-.295.938a1.725,1.725,0,0,1-.233.128c-.256.1-.585-.066-.736-.457a20.933,20.933,0,0,1-1.066-3.655c-.209-.93-.388-1.872-.612-2.8Z" transform="translate(-116.168 -196.981)" fill="#dde0e0"/>
            <path id="Path_672" data-name="Path 672" d="M210.5,356.588c-.938.275-1.884.523-2.834.752-.345.085-.682.209-1.031.279-1.229.26-2.469.461-3.717.62l-1.667.24a4.22,4.22,0,0,1-2.272-.074c-.267-.128-.054-.426.19-.705a1.3,1.3,0,0,1,.868-.578c.624,0,1.31-.074,2-.14l2.1-.194a16.961,16.961,0,0,0,2.547-.547c.934-.225,1.865-.461,2.787-.733.57-.163,1.136-.337,1.7-.527a26.718,26.718,0,0,0,2.5-.961,15.735,15.735,0,0,0,1.771-1.031c.124-.077.24-.171.368-.248.477-.279.667-.3.954-.047.066.058.14.109.2.171.19.209.1.523-.229.81a13.227,13.227,0,0,1-3.427,1.938c-.915.388-1.853.694-2.795,1Z" transform="translate(-121.77 -215.872)" fill="#dde0e0"/>
            <path id="Path_673" data-name="Path 673" d="M213.993,361.533c.213.729.442,1.465.616,2.26a6.273,6.273,0,0,1,.171,1.31,2.205,2.205,0,0,1-.171.892l-.058.128-.1.14a1.088,1.088,0,0,1-.233.252,1.528,1.528,0,0,1-.616.306l-.12.031-.151-.019a1.851,1.851,0,0,1-.969-.457,2.355,2.355,0,0,1-.519-.74,5.116,5.116,0,0,1-.364-1.357c-.12-.853-.143-1.651-.186-2.438a19.7,19.7,0,0,0-.2-2.26,2.772,2.772,0,0,0-.682-1.624l1.1-.229a2.792,2.792,0,0,0-.217,1.655,12.636,12.636,0,0,0,.438,1.992c.194.682.423,1.368.62,2.089.1.36.194.733.264,1.124a4.507,4.507,0,0,1,.062,1.291,2.251,2.251,0,0,1-.074.388,2.219,2.219,0,0,1-.159.388,1.837,1.837,0,0,1-.585.659l-.07.05-.116.039a.906.906,0,0,1-.566-.019.986.986,0,0,1-.333-.217,1.425,1.425,0,0,1-.252-.345,2.862,2.862,0,0,1-.225-.523c-.112-.322-.194-.624-.267-.926-.147-.6-.264-1.2-.388-1.791-.236-1.163-.454-2.349-.752-3.458a8.609,8.609,0,0,0-.275-.857,2.052,2.052,0,0,0-.314-.6l.74-.128a.28.28,0,0,0,.116.109l.054.043a.081.081,0,0,1-.019.054.3.3,0,0,0-.023.078,2.277,2.277,0,0,0-.043.461,8.42,8.42,0,0,0,.066,1.1c.089.775.225,1.551.364,2.326s.291,1.57.388,2.384a10.917,10.917,0,0,1,.112,1.271,3.563,3.563,0,0,1-.062.748c-.023.077-.05.163-.081.24a1.261,1.261,0,0,1-.174.287.979.979,0,0,1-.36.26,1.544,1.544,0,0,1-.221.054h-.2a1.208,1.208,0,0,1-.3-.066l-.221-.1a1.819,1.819,0,0,1-.364-.264,2.382,2.382,0,0,1-.485-.628,5.619,5.619,0,0,1-.469-1.26,22.443,22.443,0,0,1-.419-2.427c-.1-.795-.2-1.582-.345-2.326a7.956,7.956,0,0,0-.279-1.078,1.893,1.893,0,0,0-.45-.775l.826-.186a1.778,1.778,0,0,0-.07.725,8.462,8.462,0,0,0,.124.942c.116.64.279,1.287.446,1.938a38.581,38.581,0,0,1,.938,4.008,4.4,4.4,0,0,1,.043.775.853.853,0,0,1-.019.217,1.192,1.192,0,0,1-.05.233.945.945,0,0,1-.112.267.843.843,0,0,1-.229.267,1.169,1.169,0,0,1-.318.163.851.851,0,0,1-.407,0,.771.771,0,0,1-.318-.147l-.12-.093-.081-.089a2.741,2.741,0,0,1-.434-.706,16.783,16.783,0,0,1-.826-2.713c-.209-.892-.388-1.787-.6-2.667-.1-.438-.2-.876-.318-1.3-.058-.209-.116-.423-.186-.612-.035-.093-.07-.19-.1-.26a.511.511,0,0,0-.047-.081s-.05,0,.066-.074a.364.364,0,0,0,.147-.19l.492.116a2.716,2.716,0,0,0-.225,1.678,16.028,16.028,0,0,0,1.019,3.508c.217.589.45,1.182.643,1.814a5.187,5.187,0,0,1,.225,1.031,1.682,1.682,0,0,1-.066.694.8.8,0,0,1-.1.209.657.657,0,0,1-.163.2,1.023,1.023,0,0,1-.438.24h.047a.982.982,0,0,1-.62,0c-.085-.035-.163-.074-.244-.116a1.763,1.763,0,0,1-.178-.14,2.29,2.29,0,0,1-.45-.574,6.712,6.712,0,0,1-.492-1.124,16.7,16.7,0,0,1-.566-2.244,21.323,21.323,0,0,1-.353-4.559c.031-.892.3-1.322.388-1.244a6.355,6.355,0,0,1,.244,1.225c.143.709.341,1.713.636,2.9.143.6.318,1.237.5,1.9a17.387,17.387,0,0,0,.663,2.008,3.066,3.066,0,0,0,.3.562c.023.035.043.047.058.07h0l-.039.054c-.027.031-.054.089-.066.1-.163.229-.093.31-.132.205v-.151a.287.287,0,0,0,.062.167h0l-.058-.039a.566.566,0,0,1-.085-.035,1.16,1.16,0,0,0-.287-.074,1.356,1.356,0,0,0-.027-.291,7.949,7.949,0,0,0-.295-1.023l-.826-2.252a14.4,14.4,0,0,1-.674-2.469,5.745,5.745,0,0,1-.081-1.407,3.44,3.44,0,0,1,.461-1.551l.438-.729.748.388a1.292,1.292,0,0,1,.426.388c.035.047.066.093.1.143a.587.587,0,0,1,.058.109,3.223,3.223,0,0,1,.167.388c.081.225.143.434.2.636.116.411.205.8.295,1.194l.5,2.326c.167.775.341,1.52.558,2.233a6.88,6.88,0,0,0,.357.985c.035.058.07.14.1.178l.043.07.023.023c.023,0-.043.054-.078.085a.83.83,0,0,0-.1.128c-.066.132-.081.128-.1.19a.2.2,0,0,0,0,.043.154.154,0,0,0-.023-.085.294.294,0,0,0-.058-.089l.116.174V367.6a.082.082,0,0,0-.039-.023.55.55,0,0,0-.229-.128c-.186-.081-.128-.05-.132-.058a.362.362,0,0,1,0-.058,1.89,1.89,0,0,0,0-.419,8.922,8.922,0,0,0-.171-1.066c-.155-.74-.36-1.5-.558-2.272s-.388-1.551-.566-2.361a11.4,11.4,0,0,1-.19-1.264,5.234,5.234,0,0,1-.019-.7,2.376,2.376,0,0,1,.205-.876l.388-.876.736.616a2.554,2.554,0,0,1,.709.977,6.1,6.1,0,0,1,.318.942,15.61,15.61,0,0,1,.326,1.8,31.867,31.867,0,0,0,.589,3.733,3.869,3.869,0,0,0,.291.775.914.914,0,0,0,.368.43l.043.019a.5.5,0,0,0-.031.132.79.79,0,0,0,0,.136.157.157,0,0,0,0,.043.166.166,0,0,0,.019.05l-.023-.035a.045.045,0,0,0-.027-.019.634.634,0,0,0-.089-.081.566.566,0,0,0-.109-.054h-.047v-.1a3.9,3.9,0,0,0,0-.818c-.124-1.233-.411-2.531-.64-3.834-.112-.655-.225-1.314-.291-2a8.187,8.187,0,0,1-.031-1.081,3.187,3.187,0,0,1,.1-.616,1.4,1.4,0,0,1,.477-.756l.423-.337.388.388a2.57,2.57,0,0,1,.477.713,6.578,6.578,0,0,1,.267.663c.147.43.26.857.364,1.283.205.849.368,1.686.531,2.52.128.659.252,1.314.388,1.938.07.318.147.632.24.923a3.161,3.161,0,0,0,.147.388l.031.058-.07.058a.775.775,0,0,0-.19.233c-.027.05,0,.058-.023.023l-.279-.322a.622.622,0,0,0,.178-.209,1.222,1.222,0,0,0,.085-.388,3.929,3.929,0,0,0-.109-1.047c-.159-.748-.415-1.52-.647-2.3a17.866,17.866,0,0,1-.6-2.454,6.15,6.15,0,0,1-.062-1.345,3.3,3.3,0,0,1,.388-1.4l.318-.554.5.388a2.711,2.711,0,0,1,.83,1.136,5.794,5.794,0,0,1,.341,1.206,18.065,18.065,0,0,1,.229,2.326c.043.775.066,1.512.151,2.233a5.693,5.693,0,0,0,.2,1.016,1.164,1.164,0,0,0,.388.64.7.7,0,0,1,.078.035.323.323,0,0,1,.089.023h-.167c.031-.023.035,0,.043-.027a.351.351,0,0,0,.058-.174,2.624,2.624,0,0,0-.027-.705,13.354,13.354,0,0,0-.388-1.6c-.306-1.089-.674-2.175-.926-3.334a5.283,5.283,0,0,1-.132-1.876,1.376,1.376,0,0,1,.7-1.047.693.693,0,0,1,.353-.054.769.769,0,0,1,.295.112,1.188,1.188,0,0,1,.271.279,2.433,2.433,0,0,1,.24.465,12.8,12.8,0,0,1,.508,1.706c.136.562.26,1.12.388,1.678.159.725.322,1.45.512,2.151a9.84,9.84,0,0,0,.376.946,2.54,2.54,0,0,0,.205.434.7.7,0,0,0,.1.136c0,.031.039-.027-.019.07a.235.235,0,0,0-.035.1l-.209-.12c.07,0,.182-.31.174-.643a6.724,6.724,0,0,0-.093-1.058c-.112-.729-.275-1.465-.423-2.21a19.679,19.679,0,0,1-.353-2.279,6.592,6.592,0,0,1,0-1.206,2.715,2.715,0,0,1,.43-1.248l.326-.461.322.457a3.459,3.459,0,0,1,.457,1.019c.1.33.174.659.24.985.132.651.233,1.3.333,1.938s.2,1.275.326,1.9c.066.31.132.616.221.907a3.062,3.062,0,0,0,.329.775.546.546,0,0,0,.136.128.367.367,0,0,0,.12-.039h.062c.019,0,.05-.027.089-.155a1.778,1.778,0,0,0,.047-.434,7.072,7.072,0,0,0-.1-1.039c-.12-.709-.287-1.426-.438-2.147s-.295-1.457-.388-2.213a7.72,7.72,0,0,1-.043-1.163,3.263,3.263,0,0,1,.275-1.252l.24-.485.454.244a2.453,2.453,0,0,1,.775.694,4.392,4.392,0,0,1,.45.822,9.665,9.665,0,0,1,.492,1.655c.12.55.209,1.085.318,1.613s.2,1.066.322,1.578a6.505,6.505,0,0,0,.229.775,1.151,1.151,0,0,0,.12.244l-.07.058-.112.116a.318.318,0,0,0-.081.143.693.693,0,0,0-.248-.314l-.031-.023v-.019a.274.274,0,0,0,.027-.05,1.516,1.516,0,0,0,.062-.151l.039-.132.023-.163a4.314,4.314,0,0,0,0-.775,24.436,24.436,0,0,0-.388-2.713c-.031-.194-.062-.388-.093-.55s-.05-.345-.074-.5c-.039-.314-.078-.6-.109-.849a5.347,5.347,0,0,1,.05-2.171,3.031,3.031,0,0,1,.217-.643c.143-.213.244.132.419.9.093.388.209.88.353,1.473.074.3.151.632.229.988s.155.725.24,1.124a18.065,18.065,0,0,1,.492,3.268,3.916,3.916,0,0,1-.093.981c-.027.089-.054.194-.085.275a2.424,2.424,0,0,1-.1.244,1.837,1.837,0,0,1-.182.3,1.04,1.04,0,0,1-.2.2.744.744,0,0,1-.163.1.914.914,0,0,1-.244.085.9.9,0,0,1-.306,0,1.058,1.058,0,0,1-.252-.078,1.141,1.141,0,0,1-.295-.213,1.443,1.443,0,0,1-.143-.178,1.011,1.011,0,0,1-.093-.151,3.248,3.248,0,0,1-.213-.485,8.56,8.56,0,0,1-.244-.853c-.136-.55-.236-1.1-.337-1.62s-.2-1.078-.31-1.578a8.613,8.613,0,0,0-.419-1.423,3.611,3.611,0,0,0-.3-.55,1.107,1.107,0,0,0-.306-.287l1.163-.388a2.178,2.178,0,0,0-.143.725,6.811,6.811,0,0,0,.039.957c.074.671.205,1.372.353,2.082s.31,1.438.438,2.21a7.623,7.623,0,0,1,.12,1.252,2.936,2.936,0,0,1-.1.8c-.031.089-.062.174-.1.256a2.022,2.022,0,0,1-.171.287,1.8,1.8,0,0,1-.271.271,1.843,1.843,0,0,1-.353.2l.14-.066a1.557,1.557,0,0,1-.578.2,1.05,1.05,0,0,1-.388,0,1,1,0,0,1-.368-.1,1.728,1.728,0,0,1-.775-.729,4.828,4.828,0,0,1-.473-1.209c-.194-.744-.314-1.45-.43-2.155s-.217-1.392-.337-2.062c-.062-.337-.132-.663-.209-.973a3.971,3.971,0,0,0-.275-.8c-.023-.058-.046-.07-.062-.109h1.485a1.4,1.4,0,0,0-.178.609,5.222,5.222,0,0,0,0,.954,19.1,19.1,0,0,0,.337,2.124c.143.733.31,1.473.434,2.264a7.692,7.692,0,0,1,.112,1.283,2.986,2.986,0,0,1-.112.806,1.843,1.843,0,0,1-.229.5,2.432,2.432,0,0,1-.221.264,2.681,2.681,0,0,1-.295.221l-.182.116H215.8a1.213,1.213,0,0,1-.752-.26,1.518,1.518,0,0,1-.326-.333,2.885,2.885,0,0,1-.306-.527,7.887,7.887,0,0,1-.341-.907c-.178-.581-.314-1.144-.45-1.706-.26-1.116-.481-2.233-.775-3.279-.07-.26-.143-.519-.225-.744-.043-.116-.085-.225-.124-.306a.493.493,0,0,0-.05-.089l.085-.07c.058-.05.1-.078.143-.124l.109-.112c.128-.143.109-.24.116-.186a.165.165,0,0,0,.023.054l.264.43.031.031a.235.235,0,0,0,.07.043v.023a1.546,1.546,0,0,0-.039.492,7.533,7.533,0,0,0,.267,1.492c.132.523.291,1.058.454,1.6Z" transform="translate(-124.008 -216.549)" fill="#dde0e0"/>
            <path id="Path_674" data-name="Path 674" d="M36.315,83.065a2.838,2.838,0,0,1,.035-.868,1.985,1.985,0,0,1,.159-.442,3.346,3.346,0,0,1,.194-.364,2.327,2.327,0,0,1,.64-.674,2.118,2.118,0,0,1,.911-.337,3.065,3.065,0,0,1,1.574.291,6.777,6.777,0,0,1,1.182.69,10.8,10.8,0,0,1,1.454,1.225,7.232,7.232,0,0,1,.554.636c.089.109.182.236.26.353l.225.345a16.15,16.15,0,0,1,.8,1.426,20.191,20.191,0,0,1,1.163,3c.279.907.535,1.822.74,2.741a11.12,11.12,0,0,1,.388,3.613c-.035.388-.388.318-.729,0a2.382,2.382,0,0,1-.775-1.473,26.383,26.383,0,0,0-.62-3.4,25.907,25.907,0,0,0-1.047-3.33,9.573,9.573,0,0,0-1-1.872,6.021,6.021,0,0,0-.632-.81c-.236-.256-.492-.5-.748-.737A6.669,6.669,0,0,0,39.2,81.817a1.548,1.548,0,0,0-.876-.14.849.849,0,0,0-.578.485,2.126,2.126,0,0,0-.116.264.9.9,0,0,0-.031.225,3.72,3.72,0,0,0,.066.659,12.15,12.15,0,0,0,.353,1.415c.434,1.438.961,2.876,1.52,4.283.434,1.093.942,2.136,1.38,3.237.093.244.2.477.283.733.3.938.256,1.337-.078,1.589a1.169,1.169,0,0,1-.233.155c-.279.078-.492-.213-.74-.826-.388-.919-.8-1.888-1.209-2.876s-.826-2.008-1.221-3.043c-.291-.775-.574-1.551-.833-2.349a13.854,13.854,0,0,1-.624-2.57Z" transform="translate(-22.205 -49.215)" fill="#dde0e0"/>
            <path id="Path_675" data-name="Path 675" d="M29.244,141.391a19.156,19.156,0,0,1,.295-5.908,8.447,8.447,0,0,1,.244-1.062c.1-.353.186-.705.3-1.05a19.571,19.571,0,0,1,1.752-3.365l1.989-3.1a22.541,22.541,0,0,0,1.512-2.822,14.129,14.129,0,0,0,1.016-3.787c.058-.388.388-.388.729,0a2.3,2.3,0,0,1,.388,2.035,15.6,15.6,0,0,1-1.779,4.093c-.736,1.252-1.551,2.419-2.361,3.582a14.851,14.851,0,0,0-2.206,4.516,16.869,16.869,0,0,0-.647,5.508c.035.574.085,1.163.132,1.725a16.126,16.126,0,0,0,.267,1.717,28.352,28.352,0,0,0,1.461,5.086,26.379,26.379,0,0,0,1.814,3.6c.143.26.31.492.461.748.562.942.686,1.252.523,1.655a1.708,1.708,0,0,1-.109.271c-.081.128-.233.132-.434,0a2.325,2.325,0,0,1-.709-.694,24.417,24.417,0,0,1-3.431-6.95,28.737,28.737,0,0,1-1.237-5.814Z" transform="translate(-17.843 -73.487)" fill="#dde0e0"/>
            <path id="Path_676" data-name="Path 676" d="M62.956,158.869l-.244-.562-.267-.547c-.174-.388-.388-.713-.581-1.066-.143-.264-.349-.473-.5-.725a11.839,11.839,0,0,0-1.992-2.38,4.12,4.12,0,0,0-.547-.423,4.956,4.956,0,0,0-.581-.361l-.775-.388a3.456,3.456,0,0,1-.775-.411c-.147-.112,0-.388.244-.632a1.023,1.023,0,0,1,1.027-.225,8.407,8.407,0,0,1,3.1,2.492,5.427,5.427,0,0,0,.388.461c.14.147.248.314.388.469a9.045,9.045,0,0,1,.729.957c.26.357.457.748.682,1.12s.388.775.593,1.163c.225.485.442.969.64,1.458.31.74.562,1.5.849,2.241.217.574.492,1.116.725,1.682a3.657,3.657,0,0,1,.159.388c.163.473.128.647-.159.845a2.206,2.206,0,0,1-.2.128c-.233.12-.492,0-.667-.337a25.17,25.17,0,0,1-1.295-3.039c-.3-.775-.593-1.551-.946-2.279Z" transform="translate(-34.678 -92.527)" fill="#dde0e0"/>
            <path id="Path_677" data-name="Path 677" d="M16.379,212.544c.554-1.275,1.1-2.551,1.624-3.841.186-.473.337-.957.527-1.426.659-1.659,1.322-3.322,1.892-5.012.267-.748.457-1.52.647-2.279.209-.977.388-1.985.6-2.892.078-.283.423-.256.729.043a1.638,1.638,0,0,1,.388.636,1.755,1.755,0,0,1,.058.857,30.484,30.484,0,0,1-1.938,6.035c-.5,1.163-.872,2.411-1.337,3.609q-.388.988-.775,1.965c-.264.655-.539,1.306-.818,1.958l-1.043,2.392c-.543,1.2-1.081,2.4-1.616,3.6-.2.465-.388.93-.589,1.4s-.388.934-.585,1.4c-.093.2-.171.411-.267.612-.388.744-.612.93-1.008.9a1.473,1.473,0,0,1-.267-.027c-.275-.078-.306-.485-.085-1.031.643-1.64,1.4-3.338,2.163-5.039l.841-1.919.826-1.938Z" transform="translate(-7.572 -120.573)" fill="#dde0e0"/>
            <path id="Path_678" data-name="Path 678" d="M86.121,187.976a23.818,23.818,0,0,1-2.609,3.268c-.182.182-.341.388-.527.562s-.388.357-.574.527a10.1,10.1,0,0,1-1.112.818c-.388.267-.752.465-1.136.694-.775.438-1.551.857-2.361,1.225a21.393,21.393,0,0,1-2.221.9,7.177,7.177,0,0,1-1.551.345,3.2,3.2,0,0,1-1.636-.244c-.333-.147-.124-.442.209-.7a4.283,4.283,0,0,1,.55-.345,1.522,1.522,0,0,1,.628-.174,9.268,9.268,0,0,0,2.589-.64c.88-.337,1.76-.752,2.655-1.182a10.921,10.921,0,0,0,1.551-.926l.7-.523c.213-.2.434-.388.655-.6a20.5,20.5,0,0,0,2.582-3l.694-1.019c.229-.349.442-.7.659-1.054.64-1.078,1.268-2.182,1.81-3.31.43-.88.775-1.779,1.163-2.679.085-.2.178-.388.279-.593a2.273,2.273,0,0,1,.539-.729.581.581,0,0,1,.55-.1,1.117,1.117,0,0,1,.244.089.411.411,0,0,1,.159.388.805.805,0,0,1-.039.248,1.748,1.748,0,0,1-.12.345c-.318.737-.651,1.551-1.019,2.372s-.775,1.647-1.194,2.469c-.624,1.221-1.337,2.423-2.093,3.6Z" transform="translate(-44.229 -109.288)" fill="#dde0e0"/>
            <path id="Path_679" data-name="Path 679" d="M77.909,1.576c-3.334.047-6.667.116-10,.233-1.663.062-3.326.132-4.977.236-.826.058-1.655.109-2.469.194-.407.043-.822.074-1.213.136l-.593.085c-.186.035-.357.078-.535.116a3.127,3.127,0,0,0-1.3.659,3.662,3.662,0,0,0-.888,1.194,5.5,5.5,0,0,0-.461,1.516c-.023.136-.039.267-.05.388v.19a.6.6,0,0,0,0,.14l.054.911q.729,12.862,1.458,25.719c.225,3.8.492,7.625.775,11.4.353,4.845.775,9.691.942,14.556.1,3.027-1.651-.7-2.039-6.287-.678-9.9-1.268-19.792-1.713-29.786-.132-2.985-.318-6.032-.519-9.094l-.3-4.6-.151-2.3-.019-.287V6.537a5.709,5.709,0,0,1,.058-.651,8.036,8.036,0,0,1,.279-1.237,5.565,5.565,0,0,1,1.485-2.438A4.825,4.825,0,0,1,58.33.987,50.555,50.555,0,0,1,63.431.5C66.8.3,70.172.2,73.541.11c2.074-.047,4.144-.085,6.2-.1h.194a1.586,1.586,0,0,1,.271,0,3.283,3.283,0,0,1,.45.089,4.207,4.207,0,0,1,.83.318,4.387,4.387,0,0,1,1.372,1.1,5.308,5.308,0,0,1,.845,1.5c.089.267.167.539.233.81a6.606,6.606,0,0,1,.136.822c.256,6.276.516,12.586.775,18.816.221,4.834.531,9.567.8,14.342.062,1.05.124,2.078.186,3.14.194,3.931.143,5.187-.236,6.051a3.663,3.663,0,0,1-.26.57c-.3.388-.636-1.2-.853-4.078-.64-8.528-1.062-17.544-1.45-26.592q-.205-5.039-.407-10.1l-.05-1.264a9.094,9.094,0,0,0-.109-1.1,4.145,4.145,0,0,0-.752-1.853,2.941,2.941,0,0,0-.31-.345,3.627,3.627,0,0,0-.364-.279,2.71,2.71,0,0,0-.837-.36,1.554,1.554,0,0,0-.2-.039h-2.07Z" transform="translate(-33.013)" fill="#dde0e0"/>
            <path id="Path_680" data-name="Path 680" d="M124.1,118.248a12.751,12.751,0,0,0,2.822-2.268c.314-.329.6-.686.9-1.027a23.284,23.284,0,0,0,1.485-1.892,9.672,9.672,0,0,0,1.14-2.051c.031-.078.047-.151.07-.229a.952.952,0,0,0,.043-.221.58.58,0,0,0,0-.194v-.085l-.027-.112a1.871,1.871,0,0,0-.411-.775,1.515,1.515,0,0,0-.911-.5,1.162,1.162,0,0,0-.465.023,1.747,1.747,0,0,0-.229.074c-.066.047-.151.066-.221.124-.174.116-.434-.058-.446-.469a.776.776,0,0,1,.066-.337.957.957,0,0,1,.236-.357,1.309,1.309,0,0,1,.434-.287,1.431,1.431,0,0,1,.581-.093,2.643,2.643,0,0,1,1.795.872,3.1,3.1,0,0,1,.8,1.713v.306a2.388,2.388,0,0,1-.031.252,2.794,2.794,0,0,1-.1.454,5.463,5.463,0,0,1-.31.775,9.336,9.336,0,0,1-.775,1.31,34.593,34.593,0,0,1-2.171,2.88,17.417,17.417,0,0,1-2.93,2.686,7.576,7.576,0,0,1-1.089.643,3.489,3.489,0,0,1-1.3.36,1.714,1.714,0,0,1-1.1-.36,2.11,2.11,0,0,1-.581-.923l-.078-.244c0-.1-.027-.209-.035-.31a1.927,1.927,0,0,1,.085-.539,2.908,2.908,0,0,1,.167-.469c.058-.155.136-.291.205-.434a12.307,12.307,0,0,1,1.616-2.372,5.55,5.55,0,0,1,.442-.469c.612-.539.981-.616,1.268-.368a.69.69,0,0,1,.167.171.388.388,0,0,1-.031.357.959.959,0,0,1-.128.194c-.054.062-.128.147-.213.233a13.091,13.091,0,0,0-1.469,1.791,9.1,9.1,0,0,0-.612,1,2.511,2.511,0,0,0-.318.872v.039a.539.539,0,0,0-.112.035l.112-.031.027.081.054.159c.023.039.047.074.066.112.1.143.14.205.244.225a2.022,2.022,0,0,0,1.252-.357Z" transform="translate(-74.25 -65.873)" fill="#dde0e0"/>
            <g id="Group_260" data-name="Group 260" transform="translate(46.271 47.215)" opacity="0.3">
              <g id="Group_259" data-name="Group 259">
                <g id="Group_258" data-name="Group 258" clip-path="url(#clip-path-5)">
                  <path id="Path_681" data-name="Path 681" d="M121.184,124.774a7.965,7.965,0,0,0-.62,1.043c-.054.132-.1.271-.143.388a2.529,2.529,0,0,0-.12.337l-.043.167-.019.151a.3.3,0,0,0,0,.132.267.267,0,0,0,.023.136,1.552,1.552,0,0,0,.143.318.968.968,0,0,0,.423.388.589.589,0,0,0,.279.047l.264-.035c.066,0,.225.178.271.426a.552.552,0,0,1-.062.388.481.481,0,0,1-.388.233,1.46,1.46,0,0,1-.775-.167,1.806,1.806,0,0,1-.535-.426,2.1,2.1,0,0,1-.333-.523,1.82,1.82,0,0,1-.171-.632,2.233,2.233,0,0,1,0-.388,2.408,2.408,0,0,1,.05-.353,1.671,1.671,0,0,1,.074-.326,2.415,2.415,0,0,1,.1-.31,8.115,8.115,0,0,1,.628-1.213c.147-.236.3-.461.461-.686.24-.341.5-.659.775-.985a9.249,9.249,0,0,1,.6-.775,1.085,1.085,0,0,1,.163-.167.438.438,0,0,1,.3-.136.311.311,0,0,1,.233.159.826.826,0,0,1,.093.143.476.476,0,0,1,0,.461c-.26.388-.6.775-.923,1.221-.248.322-.492.655-.709,1Z" transform="translate(-119.369 -121.805)" fill="#dde0e0"/>
                </g>
              </g>
            </g>
            <path id="Path_682" data-name="Path 682" d="M123.562,137.163a10.345,10.345,0,0,0,2.946-1.023c.349-.178.674-.388,1.012-.6a12.047,12.047,0,0,0,1.682-1.163,4.618,4.618,0,0,0,.686-.69,1.706,1.706,0,0,0,.128-.182,1.368,1.368,0,0,0,.1-.174,1.88,1.88,0,0,0,.12-.43,2.553,2.553,0,0,0,.023-.841,2.694,2.694,0,0,0-.213-.81,1.882,1.882,0,0,0-.581-.775,1.615,1.615,0,0,0-.81-.3c-.19-.027-.26-.322-.047-.636a.913.913,0,0,1,.217-.225,1.316,1.316,0,0,1,.349-.151,1.213,1.213,0,0,1,.446,0,1.343,1.343,0,0,1,.469.178,2.863,2.863,0,0,1,1.062,1.31,4.172,4.172,0,0,1,.326,1.477,3.985,3.985,0,0,1-.221,1.5,3.317,3.317,0,0,1-.926,1.24,16.859,16.859,0,0,1-2.582,1.938,14.229,14.229,0,0,1-3.21,1.38,6.671,6.671,0,0,1-1.1.2,2.841,2.841,0,0,1-1.206-.112,1.43,1.43,0,0,1-.236-.1c-.078-.05-.155-.1-.229-.155a1.406,1.406,0,0,1-.326-.446,1.807,1.807,0,0,1-.128-.961l.027-.221a.89.89,0,0,1,.062-.236,2.665,2.665,0,0,1,.178-.426,4.9,4.9,0,0,1,.477-.705,7.466,7.466,0,0,1,.88-.942,4.336,4.336,0,0,1,1.089-.756,1.709,1.709,0,0,1,.287-.124,1.342,1.342,0,0,1,.314-.093,2.877,2.877,0,0,0,.295-.039,1.818,1.818,0,0,1,.267.023.755.755,0,0,1,.388.143.434.434,0,0,1,.209.465.718.718,0,0,1-.058.225.469.469,0,0,1-.291.194.288.288,0,0,0-.171.039c-.066.039-.109,0-.186.039a3.315,3.315,0,0,0-1.434.849,5.182,5.182,0,0,0-.663.7,2.813,2.813,0,0,0-.442.713.3.3,0,0,1-.023.085v.132a.945.945,0,0,0,0,.252c.019.136.031.151.054.178s0,0,.039.027a.274.274,0,0,1,.07.031,1.342,1.342,0,0,0,.248.039,2.79,2.79,0,0,0,.655-.039Z" transform="translate(-74.278 -79.082)" fill="#dde0e0"/>
            <g id="Group_263" data-name="Group 263" transform="translate(46.451 53.5)" opacity="0.3">
              <g id="Group_262" data-name="Group 262" transform="translate(0)">
                <g id="Group_261" data-name="Group 261" clip-path="url(#clip-path-6)">
                  <path id="Path_683" data-name="Path 683" d="M121.533,140.726a4.367,4.367,0,0,0-.628,1.078,1.932,1.932,0,0,0-.07.388v.124a.47.47,0,0,0,.019.155,1.361,1.361,0,0,0,.1.306.954.954,0,0,0,.465.45,1.03,1.03,0,0,0,.624.047c.283-.058.527-.225.849-.279.1,0,.225.213.264.477s-.027.581-.26.674a2.469,2.469,0,0,1-1.357.171,1.849,1.849,0,0,1-1.233-.775,2.952,2.952,0,0,1-.388-.775,2.171,2.171,0,0,1-.089-.43,1.705,1.705,0,0,1,.027-.43,4.334,4.334,0,0,1,.64-1.45,8.148,8.148,0,0,1,.558-.744,7.536,7.536,0,0,1,1.012-.981,3.306,3.306,0,0,1,.992-.632,1.369,1.369,0,0,1,.291-.078c.388-.027.523.124.492.388a1.5,1.5,0,0,1-.027.19.631.631,0,0,1-.314.388,4.366,4.366,0,0,0-1.12.81,5.956,5.956,0,0,0-.826.954Z" transform="translate(-119.832 -138.017)" fill="#dde0e0"/>
                </g>
              </g>
            </g>
            <path id="Path_684" data-name="Path 684" d="M49.311,247.358c.841-2.089,1.7-4.167,2.566-6.245.314-.756.593-1.527.915-2.279,1.136-2.659,2.326-5.3,3.489-7.943.519-1.163,1.016-2.365,1.508-3.539.314-.756.62-1.516.957-2.268a13.8,13.8,0,0,1,1.163-2.21c.159-.225.345-.295.434-.2a1.163,1.163,0,0,1,.2.558,4,4,0,0,1-.349,2.2c-1.361,3.008-2.713,6.063-4.155,9.09-.864,1.814-1.6,3.772-2.384,5.671q-1.295,3.128-2.57,6.272c-.516,1.291-1.031,2.582-1.531,3.876-.752,1.965-1.508,3.938-2.167,5.919-.508,1.551-.919,3.082-1.295,4.628-.081.337-.147.674-.225,1.016-.287,1.268-.388,1.578-.725,1.83a1.883,1.883,0,0,0-.209.221.143.143,0,0,1-.2.027.386.386,0,0,1-.116-.124.772.772,0,0,1-.093-.19,2.8,2.8,0,0,1-.074-1.225,28.614,28.614,0,0,1,1.019-4.384c.426-1.45.915-2.9,1.423-4.334.775-2.14,1.582-4.264,2.4-6.38Z" transform="translate(-27.2 -136.335)" fill="#dde0e0"/>
            <path id="Path_685" data-name="Path 685" d="M19.386,265.265c-1.081-.531-2.128-1.12-3.159-1.737-.388-.213-.775-.423-1.128-.659a40.754,40.754,0,0,1-3.717-2.737l-1.6-1.279a6.441,6.441,0,0,1-1.822-1.992c-.136-.267.2-.388.609-.388a2.068,2.068,0,0,1,.62.074,1.265,1.265,0,0,1,.566.314c1.124,1.163,2.465,2.248,3.783,3.376A20.8,20.8,0,0,0,16.188,262c1,.612,2.016,1.194,3.058,1.733.643.322,1.295.64,1.938.923.508.2,1.008.426,1.523.6a15.516,15.516,0,0,0,1.551.481c.411.093.818.163,1.225.229l1.225.1a4.934,4.934,0,0,0,.535,0c.659,0,.864.116,1.008.485a2.223,2.223,0,0,1,.1.252c.07.279-.221.492-.775.543a6.341,6.341,0,0,1-1.213.031c-.388-.031-.814-.058-1.221-.12a17.791,17.791,0,0,1-2.4-.6,17.978,17.978,0,0,1-1.725-.632c-.574-.217-1.12-.485-1.675-.733Z" transform="translate(-4.857 -157.055)" fill="#dde0e0"/>
            <path id="Path_686" data-name="Path 686" d="M13.176,275.409a22.993,22.993,0,0,0,1.081-2.845l.1-.368a.744.744,0,0,0,0-.093.438.438,0,0,0,0-.1c0-.035-.019-.081-.058-.074a.287.287,0,0,0-.143.128l-.058.1-.318.651L12.4,275.657c-.477.95-.961,1.9-1.516,2.834a11.853,11.853,0,0,1-.942,1.4,3.015,3.015,0,0,1-.775.717,1.115,1.115,0,0,1-.19.089,1.13,1.13,0,0,1-.229.07,1.456,1.456,0,0,1-.318,0,.488.488,0,0,1-.1,0l-.07-.019-.279-.074a2.76,2.76,0,0,1-.314-.143,1.52,1.52,0,0,1-.775-1.1,2.415,2.415,0,0,1,.132-1.136,8.346,8.346,0,0,1,.752-1.551c.562-.946,1.163-1.806,1.764-2.675.43-.632.849-1.264,1.225-1.9a9.46,9.46,0,0,0,.919-1.938,2.251,2.251,0,0,0,.136-.872,1.664,1.664,0,0,0-.062-.388v-.023l.043-.023c.093-.062.143-.074.2-.109s.085-.07.124-.109c.023,0,.05-.074.05-.07a.3.3,0,0,0,.023.093.428.428,0,0,0,.078.151,1.009,1.009,0,0,0,.136.2l-.043.047a1.33,1.33,0,0,0-.124.167,4.419,4.419,0,0,0-.264.434c-.171.31-.329.643-.485.985-.275.585-.5,1.163-.806,1.814A14.317,14.317,0,0,1,9.66,274.32c-.756,1.14-1.593,2.155-2.326,3.206l-.469.663-.516-.578a2.142,2.142,0,0,1-.523-.88,2.476,2.476,0,0,1-.1-.492,3.105,3.105,0,0,1,0-.465,4.966,4.966,0,0,1,.473-1.582,23.79,23.79,0,0,1,1.477-2.578,23.77,23.77,0,0,0,1.407-2.442c.047-.1.1-.205.136-.31l.066-.155.035-.089a2.428,2.428,0,0,0,.085-.275,1.075,1.075,0,0,0,0-.554.776.776,0,0,0-.527.271,1.374,1.374,0,0,0-.194.264s-.047.081-.07.132l-.085.167c-.05.112-.109.225-.155.345-.2.469-.357.977-.543,1.5s-.318.985-.457,1.516-.271,1.05-.438,1.589a6.313,6.313,0,0,1-.721,1.616,2.757,2.757,0,0,1-.306.388c-.058.062-.116.124-.178.178l-.233.171a2.213,2.213,0,0,1-.558.256l-.3.062-.151.031c-.023,0-.05.019-.074,0l-.062-.043a3.511,3.511,0,0,1-.473-.388c-.07-.074-.147-.143-.213-.221l-.159-.248a2.324,2.324,0,0,1-.291-.973,4.687,4.687,0,0,1,.345-1.965,15.077,15.077,0,0,1,.775-1.7c.574-1.085,1.213-2.109,1.787-3.148a11.841,11.841,0,0,0,.744-1.551,2.727,2.727,0,0,0,.171-.706.99.99,0,0,0-.1-.419c-.05-.128-.19-.248-.333-.178A.845.845,0,0,0,6.3,265c-.035.043-.132.174-.209.287s-.155.233-.229.353c-.147.244-.287.492-.423.748-.174.329-.333.667-.488,1.008-.078.178-.143.329-.205.5s-.116.345-.171.523l-.643,2.2a11.771,11.771,0,0,1-.884,2.248,3.241,3.241,0,0,1-.426.585,1.52,1.52,0,0,1-.756.457A1.562,1.562,0,0,1,.35,273.2a1.919,1.919,0,0,1-.205-.357,2.934,2.934,0,0,1-.116-.388,2.574,2.574,0,0,1,0-.748,4.8,4.8,0,0,1,.388-1.248,17.426,17.426,0,0,1,1.163-2.074c.388-.651.822-1.287,1.186-1.938a7.235,7.235,0,0,0,.837-1.938c.159-.8.023-1.1.178-1.163.062,0,.182.062.306.264a2.017,2.017,0,0,1,.24.981,7.988,7.988,0,0,1-1,3.353c-.31.636-.678,1.3-1.035,1.985-.174.341-.353.69-.5,1.031a3.711,3.711,0,0,0-.295.961.511.511,0,0,0,.081.434l.023.035v-.019a2.145,2.145,0,0,0,.205-.322,7.677,7.677,0,0,0,.419-.942c.252-.69.465-1.427.686-2.175.112-.388.221-.775.353-1.163a8.984,8.984,0,0,1,.481-1.19A15.027,15.027,0,0,1,4.978,264.4l.1-.136.05-.07.085-.1a5.432,5.432,0,0,1,.388-.419,2.085,2.085,0,0,1,.892-.523,1.315,1.315,0,0,1,.95.112,1.55,1.55,0,0,1,.671.725,2.335,2.335,0,0,1,.2.512,3.707,3.707,0,0,1,.12.554,3.324,3.324,0,0,1,0,.527,3.645,3.645,0,0,1-.078.388,6.765,6.765,0,0,1-.481,1.264c-.388.775-.775,1.442-1.163,2.12s-.8,1.337-1.163,2a10.723,10.723,0,0,0-.857,1.981,3.1,3.1,0,0,0-.124.888,1.214,1.214,0,0,0,.058.337c.023.043.027.1.058.136l.019.027.043.039a.147.147,0,0,0,.058,0l.031-.019c.043,0,.078-.081.124-.116a1.029,1.029,0,0,0,.124-.151,1.848,1.848,0,0,0,.12-.182,8.665,8.665,0,0,0,.729-2l.314-1.163c.05-.194.112-.388.174-.593l.2-.578a14.182,14.182,0,0,1,.954-2.326c.1-.143.186-.295.283-.434l.318-.388.345-.314.36-.248a5.287,5.287,0,0,1,1.516-.5.5.5,0,0,1,.143-.023c.093.345.174.655.236.954l.043.229v.5l-.023.275a4.963,4.963,0,0,1-.256,1.132l-.093.275-.074.178c-.05.12-.1.24-.155.353A24.956,24.956,0,0,1,8.75,272.2a23.839,23.839,0,0,0-1.4,2.446,3.917,3.917,0,0,0-.388,1.186.973.973,0,0,0,.252.841l-.961.081A34.733,34.733,0,0,0,9.385,272.1c.1-.205.2-.411.287-.616l.275-.659c.19-.442.388-.888.6-1.333.112-.221.229-.442.357-.667a4.1,4.1,0,0,1,.5-.7,1.835,1.835,0,0,1,.271-.147.959.959,0,0,1,.539-.155.841.841,0,0,1,.593.314,1.421,1.421,0,0,1,.12.178l.066.151a2.721,2.721,0,0,1,.155.9,4.415,4.415,0,0,1-.388,1.795,12.5,12.5,0,0,1-.752,1.492c-.554.946-1.163,1.826-1.76,2.713A28.672,28.672,0,0,0,8.6,277.987a4.705,4.705,0,0,0-.287.651,1.6,1.6,0,0,0-.116.527.318.318,0,0,0,.14.256.543.543,0,0,0,.182.066H8.61c.043-.248-.058.337-.047.275v-.05a.183.183,0,0,0,0-.05.192.192,0,0,1,0-.07.4.4,0,0,0-.031-.109.89.89,0,0,0,.167-.128,2.869,2.869,0,0,0,.221-.244,6.068,6.068,0,0,0,.434-.593c.283-.419.543-.868.795-1.322.508-.915.977-1.857,1.442-2.806L13,271.49a7.417,7.417,0,0,1,.589-1.039,4.772,4.772,0,0,1,.326-.388,3.923,3.923,0,0,1,.388-.31,1.4,1.4,0,0,1,.775-.3.582.582,0,0,1,.415.171,1.065,1.065,0,0,1,.229.337,2.513,2.513,0,0,1,.167,1.132l-.023.341-.054.361-.078.364c-.023.112-.05.26-.074.337-.1.388-.194.69-.3,1.012s-.221.632-.337.942c-.477,1.244-1.043,2.434-1.6,3.617l-.209.442-.229.45c-.147.279-.3.589-.407.829a2.257,2.257,0,0,0-.163.469.839.839,0,0,0,0,.488.548.548,0,0,0,.136.2.213.213,0,0,0,.233.023,1.045,1.045,0,0,0,.349-.341,4.286,4.286,0,0,0,.264-.438c.124-.233.3-.562.411-.826.388-.864.69-1.822,1.039-2.744.171-.469.349-.934.531-1.4l.279-.7.147-.345.078-.182.112-.24a12.993,12.993,0,0,1,.95-1.791l.248-.368.248-.3a3,3,0,0,1,.488-.481l.26-.167a.584.584,0,0,1,.31-.109.806.806,0,0,1,.69.326.532.532,0,0,1,.1.3v.287a5.077,5.077,0,0,1-.039.651l-.07.388-.12.454c-.089.306-.19.632-.306.961s-.233.659-.357.973l-.291.752-1.116,2.744c-.368.915-.733,1.826-1.062,2.741-.167.457-.318.915-.454,1.376-.066.225-.128.477-.174.674a3.652,3.652,0,0,0-.074.434.776.776,0,0,0,.089.55.357.357,0,0,0,.5.023l0,0a1.415,1.415,0,0,0,.341-.446l.066-.124.081-.171c.066-.147.128-.295.186-.45a35.762,35.762,0,0,0,1.163-3.8c.345-1.295.667-2.593,1.058-3.876a18.908,18.908,0,0,1,.674-1.938,7.658,7.658,0,0,1,.488-.973,2.213,2.213,0,0,1,.957-.915l.457-.209.229.461a3.709,3.709,0,0,1,.225,2.326,21.226,21.226,0,0,1-1.229,3.876c-.2.539-.388,1.128-.574,1.609s-.364.934-.527,1.333c-.326.775-.585,1.423-.8,1.938a18.851,18.851,0,0,1-.95,2.116c-.132.217-.252.519-.353.651s-.147.066-.182-.124a3.575,3.575,0,0,1,0-.992,17.279,17.279,0,0,1,1.147-4.086c.256-.7.512-1.388.74-2.078.1-.329.236-.737.388-1.085s.26-.7.388-1.058a15.951,15.951,0,0,0,.62-2.078,2.89,2.89,0,0,0-.039-1.733l.985.326c.023.058,0,.043,0,.047a.372.372,0,0,1-.05.043,1.183,1.183,0,0,0-.143.171,3.281,3.281,0,0,0-.3.523,10.892,10.892,0,0,0-.519,1.291c-.31.907-.578,1.868-.837,2.834s-.527,1.958-.775,2.942a28.958,28.958,0,0,1-.973,3c-.054.128-.1.256-.167.388l-.089.194c-.043.089-.1.225-.167.326a3.572,3.572,0,0,1-.849,1.1,1.663,1.663,0,0,1-1.027.388,1.569,1.569,0,0,1-.562-.1,4.462,4.462,0,0,1-.485-.295,1.711,1.711,0,0,1-.473-1l-.031-.326a2.882,2.882,0,0,1,0-.357l.027-.364.066-.341.062-.329.05-.2c.035-.136.07-.271.109-.388.07-.264.155-.519.236-.775.674-2.023,1.5-3.919,2.264-5.814l.392-1.07-.279.667-.291.725-.554,1.473-.55,1.5c-.093.252-.19.508-.3.775-.054.132-.124.279-.186.415l-.182.368-.217.415c-.109.2-.248.45-.388.655a3.666,3.666,0,0,1-.888,1.019,1.5,1.5,0,0,1-.915.322,1.243,1.243,0,0,1-.523-.124,1.389,1.389,0,0,1-.43-.326,2.356,2.356,0,0,1-.426-2.233,5.844,5.844,0,0,1,.244-.721l.066-.171.05-.116.1-.221c.124-.256.252-.5.388-.736l.163-.329.174-.361.337-.717c.225-.477.446-.954.655-1.43Z" transform="translate(0 -161.118)" fill="#dde0e0"/>
            <path id="Path_687" data-name="Path 687" d="M88.815,171.791H86.466c-.283,0-.566.054-.853.054-1,0-2.016-.027-3.02,0a10.977,10.977,0,0,0-1.333.112,4.919,4.919,0,0,1-1.7.1c-.36-.078-.023-1.6.628-1.667a17.036,17.036,0,0,1,3.489,0,16.558,16.558,0,0,0,2.144-.066c.775-.023,1.574-.031,2.365-.047.485,0,.969,0,1.454-.035.733-.031,1.469-.035,2.194-.112.562-.058,1.109-.205,1.663-.318.12-.023.236-.062.361-.078.457-.058.612.035.74.438a2.6,2.6,0,0,1,.085.279.6.6,0,0,1-.426.713,11.849,11.849,0,0,1-3.1.55c-.775.058-1.574.078-2.365.116Z" transform="translate(-48.629 -103.934)" fill="#dde0e0"/>
            <path id="Path_688" data-name="Path 688" d="M86.291,110.678l.717,8.14c.047.516,1.4.209,1.349-.36l-.713-8.14c-.047-.516-1.4-.213-1.349.36Z" transform="translate(-52.842 -67.393)" fill="#dde0e0"/>
            <path id="Path_689" data-name="Path 689" d="M88.189,130.475l-1.919,3.807-2.45-3.562Z" transform="translate(-51.329 -79.899)" fill="#dde0e0"/>
            <path id="Path_690" data-name="Path 690" d="M86.468,130.036l-1.919,3.81,1.3-.349-2.45-3.562-.892.589,4.369-.244c.233,0,.775-.085.9-.349s-.081-.345-.349-.329l-4.369.244c-.225,0-1.163.209-.9.589L84.6,134c.236.349,1.163-.07,1.3-.349l1.938-3.807c.136-.318-1.167-.2-1.368.194" transform="translate(-50.278 -79.363)" fill="#dde0e0"/>
            <path id="Path_691" data-name="Path 691" d="M106.09,125.448l-.713-8.14c-.058-.643-1.407-.314-1.349.364l.717,8.14c.054.647,1.407.314,1.345-.36Z" transform="translate(-63.702 -71.624)" fill="#dde0e0"/>
            <path id="Path_692" data-name="Path 692" d="M104.919,113.828l-2.45-3.562-1.919,3.807Z" transform="translate(-61.574 -67.523)" fill="#dde0e0"/>
            <path id="Path_693" data-name="Path 693" d="M104.519,113.151l-2.45-3.562c-.217-.314-1.194,0-1.341.295l-1.919,3.807c-.093.186.31.178.388.174l4.369-.244c.388-.023,1.461-.624.574-.574l-4.369.244.388.171,1.938-3.807-1.341.295,2.45,3.562c.2.345,1.438-.178,1.314-.36" transform="translate(-60.499 -67.029)" fill="#dde0e0"/>
            <path id="Path_694" data-name="Path 694" d="M76.845,46.321a7.884,7.884,0,0,0-1.109,6.818A8.088,8.088,0,0,0,76.9,55.465a7.5,7.5,0,0,0,3.651,2.748,6.678,6.678,0,0,0,2.295.388,6.8,6.8,0,0,0,2.306-.388,6.616,6.616,0,0,0,1.841-.992l.213-.155.194-.178c.132-.116.267-.229.388-.353a7.791,7.791,0,0,0,.674-.8,8.218,8.218,0,0,0,1.194-2.38,10.989,10.989,0,0,0,.461-2.636c.039-.554.388-.527.733,0a2.912,2.912,0,0,1,.252.473,4.483,4.483,0,0,1,.159.64,3.111,3.111,0,0,1,.043.775,4.117,4.117,0,0,1-.035.426,2.4,2.4,0,0,1-.1.43A8.916,8.916,0,0,1,87.458,58.6a8.269,8.269,0,0,1-6.2,1.163,9.043,9.043,0,0,1-6.051-4.45,9.3,9.3,0,0,1-1.074-4.074,9.415,9.415,0,0,1,.775-4.09,9.157,9.157,0,0,1,1.357-2.178A9.328,9.328,0,0,1,78.2,43.274a8.252,8.252,0,0,1,7.439-.694,8.914,8.914,0,0,1,4.454,3.779c.109.19.233.388.322.57s.186.388.275.6a8.427,8.427,0,0,1,.3,1,4.685,4.685,0,0,1,.081.705,1.131,1.131,0,0,1-.26.775,1.354,1.354,0,0,1-.221.24c-.128.081-.267-.031-.388-.287a3.246,3.246,0,0,1-.19-.485,6.3,6.3,0,0,1-.225-.667,9.752,9.752,0,0,0-1.023-2.089A8.491,8.491,0,0,0,87.218,45a6.946,6.946,0,0,0-7.636-.965,7.367,7.367,0,0,0-2.632,2.291Z" transform="translate(-45.392 -25.721)" fill="#dde0e0"/>
            <path id="Path_696" data-name="Path 696" d="M93.026,61.672l-1.376-11.9c0-.136-1.113,0-1.089.128L91.948,61.8c0,.109,1.089-.016,1.078-.124" transform="translate(-55.456 -30.447)" fill="#dcdfdf"/>
            <path id="Path_697" data-name="Path 697" d="M97.909,61.422,97.18,49.487c0-.136-1.1-.07-1.089.066l.725,11.935a1.912,1.912,0,0,0,1.093-.066" transform="translate(-58.843 -30.259)" fill="#dcdfdf"/>
            <path id="Path_698" data-name="Path 698" d="M65.357,10.545a1.306,1.306,0,1,1-1.306,1.306,1.306,1.306,0,0,1,1.306-1.306" transform="translate(-39.223 -6.457)" fill="#dde0e0"/>
            <path id="Path_699" data-name="Path 699" d="M184.306,49.165c-.027-.043.023-.074.116-.1a.26.26,0,0,1,.136,0,.363.363,0,0,1,.066.07,3.106,3.106,0,0,1,.07.314.847.847,0,0,1,.023.221v.45a.405.405,0,0,1,0,.1,1.172,1.172,0,0,0-.023.345.087.087,0,0,0,0,.054,1.381,1.381,0,0,1,0,.388c-.027.1-.043.2-.066.3v.039a.118.118,0,0,0-.035.093.5.5,0,0,1-.023.128c0,.023-.027.043-.043.062s-.074,0-.081,0h-.093a1.288,1.288,0,0,1-.112-.275s-.035-.388-.043-.388a.208.208,0,0,1,0-.066s-.031-.295-.031-.306a.355.355,0,0,1,.023-.178.106.106,0,0,0,0-.035,2.019,2.019,0,0,1,0-.306V49.91a.079.079,0,0,1,0-.027.106.106,0,0,0,0-.035V49.46c0-.027.035-.163.031-.2s.1-.081.085-.1" transform="translate(-112.776 -30.038)" fill="#dde0e0"/>
            <path id="Path_700" data-name="Path 700" d="M181.892,52.123c-.039.027-.066,0-.093-.116a.291.291,0,0,1,0-.132.556.556,0,0,1,.058-.07s.205-.05.271-.07a.811.811,0,0,1,.194,0h.388a.344.344,0,0,1,.089,0,.847.847,0,0,0,.295.023h.05a1.044,1.044,0,0,1,.329,0c.085.027.174.043.26.066h.035a.077.077,0,0,0,.081.035.521.521,0,0,1,.109.023.146.146,0,0,1,.054.047c.019,0,0,.074,0,.078v.07a.064.064,0,0,1,0,.027,1.256,1.256,0,0,1-.24.112l-.353.039a.142.142,0,0,1-.054,0s-.256.031-.267.031a.277.277,0,0,1-.155-.023h-.031a1.2,1.2,0,0,1-.264,0h-.19a2.969,2.969,0,0,0-.322,0,1.315,1.315,0,0,0-.171-.031c-.027.008-.062-.116-.074-.109" transform="translate(-111.323 -31.678)" fill="#dde0e0"/>
            <path id="Path_701" data-name="Path 701" d="M182.82,49.795c-.047,0-.027-.07.031-.151a.276.276,0,0,1,.1-.081.621.621,0,0,1,.093,0l.236.186a.748.748,0,0,1,.143.147c.089.112.178.217.264.329a.243.243,0,0,1,.05.078.977.977,0,0,0,.178.267.128.128,0,0,0,.043.035,1.208,1.208,0,0,1,.229.271c.035.089.081.171.12.26a.027.027,0,0,1,0,.039.093.093,0,0,0,.023.089.586.586,0,0,1,.058.109.236.236,0,0,1,0,.074c0,.023-.054.05-.062.05a.209.209,0,0,0-.054.043,1.2,1.2,0,0,1-.248-.132s-.236-.248-.267-.271a.143.143,0,0,1-.027-.054l-.205-.205a.321.321,0,0,1-.085-.147.041.041,0,0,0,0-.027,1.927,1.927,0,0,1-.167-.233c-.027-.043-.062-.078-.089-.116s0,0,0-.023a.084.084,0,0,0,0-.031c-.078-.089-.132-.19-.217-.271-.019,0-.066-.143-.089-.163s-.047-.066-.062-.07" transform="translate(-111.937 -30.349)" fill="#dde0e0"/>
            <path id="Path_702" data-name="Path 702" d="M183.179,51.917c0,.043-.062.035-.147,0a.289.289,0,0,1-.1-.089v-.089a2.593,2.593,0,0,1,.128-.252.643.643,0,0,1,.112-.155l.256-.295.066-.054a.842.842,0,0,0,.217-.205.079.079,0,0,0,.023-.047,1.07,1.07,0,0,1,.209-.252c.078-.047.147-.1.221-.147h.035a.077.077,0,0,0,.081-.035l.089-.066a.211.211,0,0,1,.07,0c.023,0,.062.043.062.05s.031.035.05.05h.019a1.093,1.093,0,0,1-.074.252s-.186.256-.205.291a.082.082,0,0,1-.046.031l-.151.221c-.039.035-.062.085-.12.1a.039.039,0,0,0-.023.019,1.758,1.758,0,0,1-.19.19c-.031.031-.058.066-.089.1h-.047a2.505,2.505,0,0,0-.213.24c0,.023-.12.081-.136.109s-.1.012-.1.031" transform="translate(-112.021 -30.758)" fill="#dde0e0"/>
            <path id="Path_703" data-name="Path 703" d="M210.8,108.025c-.027-.043.019-.078.116-.1a.246.246,0,0,1,.132,0,.388.388,0,0,1,.07.066s.05.24.07.314a1.086,1.086,0,0,1,.019.221v.45a.44.44,0,0,1,0,.1,1.274,1.274,0,0,0-.023.341v.058a1.544,1.544,0,0,1,0,.388,2.934,2.934,0,0,0-.066.3v.043c0,.012-.031.062-.035.093a.714.714,0,0,1-.023.128.221.221,0,0,1-.047.062h-.167a1.39,1.39,0,0,1-.112-.275s-.031-.364-.039-.388a.188.188,0,0,1,0-.066s-.031-.295-.031-.306a.346.346,0,0,1,.023-.178v-.039a2.019,2.019,0,0,1,0-.306v-.182a.1.1,0,0,0,0-.035,2.934,2.934,0,0,0,0-.388,1.51,1.51,0,0,0,.031-.2c-.008-.035.089-.081.081-.1" transform="translate(-129.003 -66.082)" fill="#dde0e0"/>
            <path id="Path_704" data-name="Path 704" d="M208.379,110.957c-.035.027-.066-.023-.089-.116a.32.32,0,0,1,0-.136.522.522,0,0,1,.062-.066s.205-.05.271-.07a.64.64,0,0,1,.19-.019h.388a.314.314,0,0,1,.085,0,.775.775,0,0,0,.3.023h.047a1.044,1.044,0,0,1,.329,0c.089.027.174.047.26.066h.039c.012,0,.05.031.078.035a.557.557,0,0,1,.112.023.2.2,0,0,1,.054.047.088.088,0,0,1,0,.078v.093a.978.978,0,0,1-.236.116s-.318.031-.353.039a.087.087,0,0,1-.054,0l-.267.035a.352.352,0,0,1-.155-.023.047.047,0,0,0-.031,0,2.053,2.053,0,0,1-.267,0h-.19a2.226,2.226,0,0,0-.322,0,1.205,1.205,0,0,0-.171-.031c-.027.008-.062-.1-.078-.093" transform="translate(-127.546 -67.696)" fill="#dde0e0"/>
            <path id="Path_705" data-name="Path 705" d="M209.3,108.654c-.043,0-.027-.066.031-.147a.32.32,0,0,1,.109-.081h.093s.178.143.236.186a1.037,1.037,0,0,1,.143.151l.264.326a.346.346,0,0,1,.047.081.953.953,0,0,0,.182.267.082.082,0,0,0,.043.031,1.3,1.3,0,0,1,.229.271,2.664,2.664,0,0,0,.12.26.032.032,0,0,1,0,.043c-.019.019,0,.062.027.089a.71.71,0,0,1,.054.109.158.158,0,0,1,0,.074c0,.023-.05.05-.058.05a.244.244,0,0,0-.058.039.047.047,0,0,1-.019.019,1.42,1.42,0,0,1-.248-.132l-.264-.275a.112.112,0,0,1-.031-.05s-.2-.2-.2-.209-.078-.078-.085-.143,0-.019-.019-.027a2.254,2.254,0,0,1-.163-.233,1.4,1.4,0,0,0-.093-.116v-.023a.083.083,0,0,0,0-.031,2.855,2.855,0,0,0-.217-.271c-.019-.019-.066-.143-.089-.163s-.012-.085-.031-.093" transform="translate(-128.156 -66.396)" fill="#dde0e0"/>
            <path id="Path_706" data-name="Path 706" d="M209.661,110.77c0,.043-.058.031-.147,0-.027,0-.1-.078-.1-.093a.382.382,0,0,1,0-.089s.1-.186.128-.248a.775.775,0,0,1,.112-.155c.089-.1.171-.2.256-.295a.244.244,0,0,1,.07-.054.9.9,0,0,0,.213-.205.079.079,0,0,0,.023-.047,1,1,0,0,1,.213-.252c.078-.047.147-.1.221-.147,0,0,0-.023.035,0s.058-.019.078-.035a.42.42,0,0,1,.093-.07.176.176,0,0,1,.07,0c.023,0,.058.043.058.05s.031.035.05.047,0,0,.019.019a1.017,1.017,0,0,1-.074.252s-.186.256-.205.287-.027.023-.043.035-.147.213-.155.221-.062.085-.12.1,0,0-.023,0a1.686,1.686,0,0,1-.186.186.741.741,0,0,0-.089.1h-.023l-.027.019a2.521,2.521,0,0,0-.209.24,1.078,1.078,0,0,0-.14.1c-.016.023-.1,0-.1.023" transform="translate(-128.239 -66.795)" fill="#dde0e0"/>
            <path id="Path_707" data-name="Path 707" d="M127.17,274.485c-.027-.043.019-.078.116-.1a.246.246,0,0,1,.132,0,.387.387,0,0,1,.07.066s.05.24.07.314a1.085,1.085,0,0,1,.019.221v.45a.293.293,0,0,1,0,.1,1.121,1.121,0,0,0-.023.341v.058a1.382,1.382,0,0,1,0,.388c-.027.1-.043.2-.066.3v.043c0,.012-.031.062-.035.093a.714.714,0,0,1-.023.128.221.221,0,0,1-.047.062c0,.019-.074,0-.078,0h-.1a1.392,1.392,0,0,1-.112-.275s-.031-.364-.039-.388a.188.188,0,0,1,0-.066s-.031-.295-.031-.306a.346.346,0,0,1,.023-.178v-.039a1.617,1.617,0,0,1,0-.306V275.2a.105.105,0,0,0,0-.035v-.388a1.507,1.507,0,0,0,.031-.2c-.008-.035.1-.1.089-.1" transform="translate(-77.785 -168.017)" fill="#dde0e0"/>
            <path id="Path_708" data-name="Path 708" d="M124.754,277.407c-.035.027-.066-.023-.093-.116a.379.379,0,0,1,0-.136.521.521,0,0,1,.062-.066s.205-.05.271-.07a.639.639,0,0,1,.19-.019h.388a.314.314,0,0,1,.085,0,.776.776,0,0,0,.3.023H126a1.043,1.043,0,0,1,.329,0c.089.027.174.047.26.066h.039c.012,0,.05.031.078.035a.583.583,0,0,1,.112.023.27.27,0,0,1,.054.047.088.088,0,0,1,0,.078v.093a1.04,1.04,0,0,1-.236.116s-.318.031-.353.039a.106.106,0,0,1-.058,0l-.264.035a.352.352,0,0,1-.155-.023.048.048,0,0,0-.031,0,2.048,2.048,0,0,1-.267,0,.793.793,0,0,0-.136,0h-.054a2.237,2.237,0,0,0-.322,0,1.205,1.205,0,0,0-.171-.031c-.027.008-.062-.1-.074-.093" transform="translate(-76.335 -169.624)" fill="#dde0e0"/>
            <path id="Path_709" data-name="Path 709" d="M125.68,275.1c-.047,0-.027-.066.031-.147a.28.28,0,0,1,.109-.081h.089a3.024,3.024,0,0,1,.24.186,1.039,1.039,0,0,1,.143.151l.264.326a.279.279,0,0,1,.047.081.962.962,0,0,0,.182.267.082.082,0,0,0,.043.031,1.172,1.172,0,0,1,.225.271c.039.093.081.174.124.26a.032.032,0,0,1,0,.043c-.019.019,0,.062.027.089a.708.708,0,0,1,.054.109.158.158,0,0,1,0,.074c0,.023-.05.05-.062.05s-.035.023-.054.039a.047.047,0,0,1-.019.019,1.422,1.422,0,0,1-.248-.132l-.264-.275a.112.112,0,0,1-.031-.05s-.2-.2-.2-.209-.078-.078-.085-.143a.071.071,0,0,0-.019-.027,2.57,2.57,0,0,1-.167-.236c-.027-.039-.058-.074-.089-.112s0,0,0-.023a.083.083,0,0,0,0-.031,2.857,2.857,0,0,0-.217-.271c-.019-.019-.066-.143-.089-.163s-.016-.085-.031-.093" transform="translate(-76.947 -168.325)" fill="#dde0e0"/>
            <path id="Path_710" data-name="Path 710" d="M126.041,277.189c0,.043-.062.031-.147,0s-.1-.078-.1-.093a.381.381,0,0,1,0-.089s.1-.186.128-.248a.777.777,0,0,1,.112-.155c.089-.1.171-.2.256-.295a.288.288,0,0,1,.066-.054.849.849,0,0,0,.217-.205A.079.079,0,0,0,126.6,276a1.071,1.071,0,0,1,.209-.252c.081-.047.151-.1.225-.147,0,0,0-.023.035-.019a.1.1,0,0,0,.078-.035.421.421,0,0,1,.093-.07.177.177,0,0,1,.07,0c.023,0,.058.043.058.05s.031.035.05.047l.019.019a1.017,1.017,0,0,1-.074.252s-.186.256-.205.287-.027.023-.043.035-.147.213-.155.221-.062.085-.12.1,0,0-.023.023a1.686,1.686,0,0,1-.186.186.739.739,0,0,0-.089.1h-.023l-.027.019a2.518,2.518,0,0,0-.209.24c0,.019-.124.081-.14.1s-.1,0-.1.023" transform="translate(-77.032 -168.693)" fill="#dde0e0"/>
            <path id="Path_711" data-name="Path 711" d="M239.28,161.678c-.023-.039.023-.074.12-.1a.291.291,0,0,1,.132,0,.362.362,0,0,1,.066.07s.054.236.074.314a1.084,1.084,0,0,1,.019.221v.45a.438.438,0,0,1,0,.1,1.12,1.12,0,0,0-.023.341.106.106,0,0,0,0,.058,1.381,1.381,0,0,1,0,.388c-.027.1-.043.2-.066.3v.043a.1.1,0,0,0-.035.093.715.715,0,0,1-.023.128.518.518,0,0,1-.047.062c0,.019-.074,0-.081,0h-.093a1.5,1.5,0,0,1-.112-.275s-.035-.364-.043-.388a.166.166,0,0,1,0-.062s-.031-.3-.031-.31a.359.359,0,0,1,.023-.178v-.035a2.023,2.023,0,0,1,0-.306v-.155a.1.1,0,0,1,0-.031.1.1,0,0,0,0-.035v-.388a1.744,1.744,0,0,0,.031-.2c-.008-.031.1-.081.089-.1" transform="translate(-146.438 -98.938)" fill="#dde0e0"/>
            <path id="Path_712" data-name="Path 712" d="M236.874,164.611c-.035.027-.066-.023-.093-.116a.38.38,0,0,1,0-.136.5.5,0,0,1,.058-.066s.209-.054.275-.07a.641.641,0,0,1,.19-.023h.388a.313.313,0,0,1,.085,0,.771.771,0,0,0,.295.023.075.075,0,0,0,.05,0,1.044,1.044,0,0,1,.329,0c.085.027.174.043.26.066h.035a.624.624,0,0,0,.081.035.384.384,0,0,1,.112.023l.054.043c.019.016,0,.074,0,.081v.093a1.06,1.06,0,0,1-.24.112l-.349.043a.106.106,0,0,1-.058,0s-.256.035-.267.031a.566.566,0,0,1-.151-.023H237.9a1.541,1.541,0,0,1-.267,0h-.512c-.023,0-.143-.035-.171-.031s-.062-.1-.074-.085" transform="translate(-144.994 -100.549)" fill="#dde0e0"/>
            <path id="Path_713" data-name="Path 713" d="M237.8,162.3c-.047,0-.027-.07.031-.147a.259.259,0,0,1,.109-.081.343.343,0,0,1,.089,0s.182.143.24.186a.9.9,0,0,1,.143.151l.264.326a.279.279,0,0,1,.047.081.953.953,0,0,0,.178.264.075.075,0,0,0,.043.035,1.106,1.106,0,0,1,.229.271c.039.089.081.174.124.26v.039a.092.092,0,0,0,.027.089.945.945,0,0,1,.054.109.158.158,0,0,1,0,.074c0,.027-.05.054-.062.054s-.035.023-.054.039a.041.041,0,0,1-.019,0,1.036,1.036,0,0,1-.248-.132s-.236-.244-.267-.271-.019-.035-.027-.054l-.2-.205c-.031-.047-.078-.081-.085-.143s0-.019-.019-.031a2.049,2.049,0,0,1-.167-.233c-.027-.039-.062-.074-.089-.112s0-.019,0-.027a.206.206,0,0,0,0-.031,2.876,2.876,0,0,0-.217-.267c-.019-.019-.066-.143-.089-.163s-.016-.078-.031-.078" transform="translate(-145.605 -99.245)" fill="#dde0e0"/>
            <path id="Path_714" data-name="Path 714" d="M238.157,164.413c0,.046-.062.035-.147,0a.345.345,0,0,1-.1-.093.86.86,0,0,1,0-.089s.1-.19.128-.248a.772.772,0,0,1,.112-.159l.256-.291a.3.3,0,0,1,.066-.058.783.783,0,0,0,.217-.205.081.081,0,0,0,.023-.043.992.992,0,0,1,.209-.252c.078-.047.151-.1.225-.151,0,0,0-.019.035,0s.058-.019.078-.039a.538.538,0,0,1,.093-.066.176.176,0,0,1,.07,0c.019,0,.058.043.058.05s.031.031.05.047h.019a1.094,1.094,0,0,1-.074.252l-.205.291s-.027.023-.043.035-.147.213-.155.217-.062.085-.12.1a.04.04,0,0,0-.023,0,1.465,1.465,0,0,1-.19.19c-.031.031-.058.07-.089.1s0,0-.019,0H238.6a3.127,3.127,0,0,0-.209.244.808.808,0,0,0-.14.1c-.016.027-.1.047-.1.062" transform="translate(-145.687 -99.642)" fill="#dde0e0"/>
            <g id="Group_266" data-name="Group 266" transform="translate(81.559 28.341)" opacity="0.3">
              <g id="Group_265" data-name="Group 265" transform="translate(0)">
                <g id="Group_264" data-name="Group 264" clip-path="url(#clip-path-7)">
                  <path id="Path_715" data-name="Path 715" d="M212.038,73.187c0-.027,0-.05.07-.07a.18.18,0,0,1,.081,0l.039.043s.031.155.043.205a.562.562,0,0,1,0,.14V73.8a.374.374,0,0,1,0,.066.679.679,0,0,0,0,.217v.039a1.029,1.029,0,0,1,0,.244,1.146,1.146,0,0,1-.039.194.041.041,0,0,1,0,.027c-.023.019-.019.039-.023.058a.286.286,0,0,1,0,.081.134.134,0,0,1-.027.043h-.089a.859.859,0,0,1-.07-.178s-.019-.233-.023-.26a.157.157,0,0,1,0-.043s-.019-.19-.019-.2a.236.236,0,0,1,0-.116.047.047,0,0,0,0-.023,1.682,1.682,0,0,1,0-.2.874.874,0,0,0,0-.1.047.047,0,0,0,0-.023v-.24c0-.019.019-.1,0-.128s.081-.062.058-.07" transform="translate(-211.364 -73.113)" fill="#dde0e0"/>
                  <path id="Path_716" data-name="Path 716" d="M210.465,75.094c-.023.019-.043,0-.058-.07a.259.259,0,0,1,0-.078l.039-.043.178-.043a.623.623,0,0,1,.12,0h.31a.522.522,0,0,0,.19,0,.047.047,0,0,0,.031,0,.657.657,0,0,1,.213,0l.167.039h.023c.023,0,.035,0,.05.019h.074a.113.113,0,0,1,.035.027.064.064,0,0,1,0,.047v.043a.57.57,0,0,1-.155.07l-.217.062h-.035c-.012,0-.167.019-.174.019a.232.232,0,0,1-.1,0h-.019a.834.834,0,0,1-.171,0h-.124a1.824,1.824,0,0,0-.205,0c-.036-.008-.072-.015-.109-.019,0,0-.054-.078-.062-.074" transform="translate(-210.403 -74.178)" fill="#dde0e0"/>
                  <path id="Path_717" data-name="Path 717" d="M211.119,73.595c-.031,0,0-.043,0-.093a.167.167,0,0,1,.062-.047h.058s.112.093.151.12a1.1,1.1,0,0,1,.093.1c.054.074.112.14.167.213a.136.136,0,0,1,.031.05.672.672,0,0,0,.12.171l.027.023a.806.806,0,0,1,.143.174l.081.167v.023a.066.066,0,0,0,.019.058.3.3,0,0,1,.039.07.188.188,0,0,1,0,.047s-.031.031-.035.027-.023,0-.035.027a.783.783,0,0,1-.155-.085s-.151-.163-.171-.178a.06.06,0,0,1,0-.035l-.128-.132a.233.233,0,0,1-.058-.093.033.033,0,0,0,0-.019,1.038,1.038,0,0,1-.1-.151c-.019-.023-.043-.047-.062-.074h0v-.019c-.05-.054-.085-.12-.14-.174s-.043-.089-.058-.1a.357.357,0,0,1-.047-.062" transform="translate(-210.833 -73.322)" fill="#dde0e0"/>
                  <path id="Path_718" data-name="Path 718" d="M211.29,74.952c0,.027-.039.023-.093,0s-.058-.043-.058-.054a.252.252,0,0,1,0-.054s.066-.12.085-.159a.484.484,0,0,1,.074-.1l.163-.19.043-.035a.5.5,0,0,0,.14-.132.039.039,0,0,0,0-.031.868.868,0,0,1,.136-.163,1.194,1.194,0,0,0,.143-.1.024.024,0,0,1,.019,0c.031,0,.039,0,.05-.023l.058-.043a.08.08,0,0,1,.043,0s.039.023.039.031.019.019.027.027a.559.559,0,0,1-.05.163s-.12.163-.132.182a.092.092,0,0,1-.031.023s-.093.136-.1.14-.039.054-.074.066a1.173,1.173,0,0,1-.12.12.5.5,0,0,0-.058.066c-.043.054-.1.1-.136.155s-.078.054-.089.07a.284.284,0,0,1-.078.039" transform="translate(-210.853 -73.575)" fill="#dde0e0"/>
                </g>
              </g>
            </g>
            <g id="Group_269" data-name="Group 269" transform="translate(41.468 87.791)" opacity="0.3">
              <g id="Group_268" data-name="Group 268" transform="translate(0)">
                <g id="Group_267" data-name="Group 267" clip-path="url(#clip-path-8)">
                  <path id="Path_719" data-name="Path 719" d="M108.714,226.552c0-.027,0-.047.07-.066a.145.145,0,0,1,.081,0l.043.047s.031.151.043.2a.888.888,0,0,1,0,.143v.287a.376.376,0,0,1,0,.066.7.7,0,0,0,0,.221.06.06,0,0,0,0,.035,1.029,1.029,0,0,1,0,.244,1.95,1.95,0,0,0-.039.194v.027a.062.062,0,0,0,0,.058.52.52,0,0,1,0,.085.113.113,0,0,1-.027.039H108.8a.708.708,0,0,1-.07-.174s-.019-.236-.023-.264a.066.066,0,0,1,0-.039v-.2a.288.288,0,0,1,0-.112.023.023,0,0,0,0-.023,1.121,1.121,0,0,1,0-.2v-.38a1.017,1.017,0,0,1,.019-.128c0-.019,0-.062-.008-.062" transform="translate(-108.031 -226.48)" fill="#dde0e0"/>
                  <path id="Path_720" data-name="Path 720" d="M107.042,228.428s-.039,0-.058-.07a.181.181,0,0,1,0-.081.123.123,0,0,1,.039-.039,1.284,1.284,0,0,1,.174-.043.443.443,0,0,1,.124,0h.252a.142.142,0,0,1,.054,0,.624.624,0,0,0,.19,0,.06.06,0,0,0,.035,0,.943.943,0,0,1,.209,0c.058.019.112.027.167.043s0,0,.027,0,.031.019.05.019h.07a.113.113,0,0,1,.035.027v.089a.7.7,0,0,1-.151.066s-.205.019-.229.027H107.7a1.252,1.252,0,0,1-.171,0h-.124a1.216,1.216,0,0,0-.205,0,.6.6,0,0,0-.112-.019c-.019,0-.05-.027-.05-.019" transform="translate(-106.979 -227.527)" fill="#dde0e0"/>
                  <path id="Path_721" data-name="Path 721" d="M107.642,226.918c-.027,0,0-.047,0-.093a.183.183,0,0,1,.066-.05h.058l.147.124a.45.45,0,0,1,.093.1l.171.209.031.05a.572.572,0,0,0,.116.171s0,.019.027.023a.814.814,0,0,1,.147.174c.023.058.054.112.081.167s0,0,0,.027v.054a.617.617,0,0,1,.039.07.1.1,0,0,1,0,.047.282.282,0,0,1-.035.031.038.038,0,0,0-.035.023h0a1.137,1.137,0,0,1-.155-.089l-.171-.178a.2.2,0,0,1-.019-.031s-.124-.128-.128-.136-.05-.05-.054-.093V227.5a1.038,1.038,0,0,1-.109-.147l-.058-.074v-.019a1.511,1.511,0,0,0-.14-.174.6.6,0,0,0-.058-.1c-.016-.012,0-.054-.016-.058" transform="translate(-107.378 -226.661)" fill="#dde0e0"/>
                  <path id="Path_722" data-name="Path 722" d="M107.9,228.28c0,.027-.035.019-.089,0a.156.156,0,0,1-.058-.054.147.147,0,0,1,0-.058s.062-.12.085-.159a.439.439,0,0,1,.07-.1l.167-.19a.213.213,0,0,1,.043-.039.644.644,0,0,0,.14-.132.158.158,0,0,0,0-.027.676.676,0,0,1,.136-.163l.14-.1h.023a.045.045,0,0,0,.05-.027.216.216,0,0,1,.058-.043h.043c.016,0,.035.027.035.031s0,.019.031.027a.959.959,0,0,1-.05.159s-.124.163-.136.186a.054.054,0,0,1-.027,0l-.1.143c-.023.023-.039.054-.078.062h0a.881.881,0,0,1-.12.12l-.058.066a1.324,1.324,0,0,0-.14.155.51.51,0,0,0-.085.066c-.008.016-.078.058-.078.07" transform="translate(-107.453 -226.918)" fill="#dde0e0"/>
                </g>
              </g>
            </g>
            <path id="Path_723" data-name="Path 723" d="M168.878,144.318c0-.027,0-.05.07-.07a.192.192,0,0,1,.081,0l.039.043s.031.155.043.205a.559.559,0,0,1,0,.14v.291a.371.371,0,0,1,0,.066.849.849,0,0,0,0,.217v.039a.858.858,0,0,1,0,.244,1.146,1.146,0,0,1-.039.194v.027a.075.075,0,0,1-.023.058.286.286,0,0,1,0,.081.444.444,0,0,0-.027.043c-.008.016-.047,0-.05,0h-.039a.86.86,0,0,1-.07-.178s-.019-.233-.023-.26a.151.151,0,0,1,0-.043c0-.015-.019-.19-.019-.2a.236.236,0,0,1,0-.116.047.047,0,0,0,0-.023,1.682,1.682,0,0,1,0-.2.874.874,0,0,0,0-.1v-.264c.009-.042.015-.085.019-.128,0,0,.043-.062.039-.07" transform="translate(-103.375 -88.33)" fill="#dde0e0"/>
            <path id="Path_724" data-name="Path 724" d="M167.262,146.224c-.023.019-.043,0-.058-.07a.174.174,0,0,1,0-.078l.039-.043.174-.043h.43a.543.543,0,0,0,.194,0,.053.053,0,0,0,.031,0,.656.656,0,0,1,.213,0l.167.039h.023c.023,0,.035,0,.05.019h.074a.113.113,0,0,1,.035.027.064.064,0,0,1,0,.047v.043a.634.634,0,0,1-.155.07l-.225.023h-.039c-.012,0-.163.019-.171.019a.232.232,0,0,1-.1,0h-.019a.836.836,0,0,1-.171,0h-.124a1.817,1.817,0,0,0-.205,0,.909.909,0,0,0-.112,0s-.043-.058-.05-.054" transform="translate(-102.388 -89.395)" fill="#dde0e0"/>
            <path id="Path_725" data-name="Path 725" d="M167.872,144.725c-.027,0,0-.043,0-.093a.172.172,0,0,1,.066-.047H168l.151.12a.727.727,0,0,1,.089.1c.058.074.116.14.171.213a.23.23,0,0,1,.031.05.665.665,0,0,0,.116.171l.027.023a.721.721,0,0,1,.147.174c.023.058.054.109.081.167s0,0,0,.023v.058a.293.293,0,0,1,.035.07v.047c0,.019-.031.031-.039.027s0,0-.031.027a.794.794,0,0,1-.155-.085s-.151-.163-.171-.178a.062.062,0,0,1-.019-.035l-.132-.132a.281.281,0,0,1-.054-.093,1.1,1.1,0,0,1-.109-.151l-.058-.074a.056.056,0,0,0,0-.019c-.05-.054-.085-.12-.14-.174a.919.919,0,0,1-.058-.1s0-.078-.008-.081" transform="translate(-102.792 -88.539)" fill="#dde0e0"/>
            <path id="Path_726" data-name="Path 726" d="M168.09,146.082c0,.027-.039.023-.093,0s-.058-.043-.058-.054a.256.256,0,0,1,0-.054s.066-.12.085-.159a.484.484,0,0,1,.074-.1l.163-.19.043-.035a.5.5,0,0,0,.14-.132.039.039,0,0,0,0-.031.866.866,0,0,1,.136-.163,1.152,1.152,0,0,0,.14-.1h.023a.055.055,0,0,0,.05-.023.224.224,0,0,1,.058-.043.08.08,0,0,1,.043,0s.035.023.035.031.019,0,.031.027a.56.56,0,0,1-.05.163s-.12.163-.132.182a.092.092,0,0,1-.031.023l-.1.14c-.023.023-.039.054-.074.066-.035.043-.081.081-.12.12a.494.494,0,0,0-.058.066c-.043.054-.1.1-.136.155s-.078.054-.089.07-.078.027-.078.039" transform="translate(-102.84 -88.792)" fill="#dde0e0"/>
            <path id="Path_727" data-name="Path 727" d="M8.6,133.317c0-.027,0-.05.07-.07a.18.18,0,0,1,.081,0,.193.193,0,0,1,.039.043,1.757,1.757,0,0,1,.043.205.56.56,0,0,1,0,.14v.291a.374.374,0,0,1,0,.066.7.7,0,0,0,0,.217.06.06,0,0,0,0,.039,1.285,1.285,0,0,1,0,.244c-.019.066-.027.128-.043.194v.027a.062.062,0,0,0-.019.058.57.57,0,0,1,0,.081.133.133,0,0,1-.027.043H8.653a.888.888,0,0,1-.066-.178,1.089,1.089,0,0,0-.023-.26.08.08,0,0,1,0-.043s-.019-.19-.019-.2v-.14a1.123,1.123,0,0,1,0-.2v-.1a.059.059,0,0,0,0-.023v-.24c0-.019.023-.1,0-.128s.062-.062.054-.07" transform="translate(-5.229 -81.594)" fill="#dde0e0"/>
            <path id="Path_728" data-name="Path 728" d="M6.972,135.224c-.019.019-.039,0-.058-.07a.174.174,0,0,1,0-.078.213.213,0,0,1,.039-.043l.174-.043a.661.661,0,0,1,.124,0h.306a.521.521,0,0,0,.19,0,.059.059,0,0,0,.035,0,.632.632,0,0,1,.209,0l.167.039h.023a.081.081,0,0,1,.054.019h.07a.113.113,0,0,1,.035.027v.089a.547.547,0,0,1-.151.07l-.229.023H7.926c-.012,0-.167.019-.171.019a.221.221,0,0,1-.1,0,.834.834,0,0,1-.171,0H7.36a1.886,1.886,0,0,0-.209,0,.847.847,0,0,0-.109,0s-.043-.058-.07-.054" transform="translate(-4.231 -82.659)" fill="#dde0e0"/>
            <path id="Path_729" data-name="Path 729" d="M7.583,133.725c-.027,0-.019-.043,0-.093a.172.172,0,0,1,.066-.047H7.7l.151.12a.708.708,0,0,1,.093.1c.054.074.112.14.171.213a.232.232,0,0,1,.031.05.577.577,0,0,0,.116.171l.027.023a.814.814,0,0,1,.147.174c.023.058.054.109.081.167s0,0,0,.023v.058a.3.3,0,0,1,.039.07.094.094,0,0,1,0,.047s-.031.031-.035.027-.023,0-.035.027a.915.915,0,0,1-.155-.085s-.151-.163-.171-.178a.262.262,0,0,1,0-.035l-.128-.132a.214.214,0,0,1-.054-.093,1.1,1.1,0,0,1-.109-.151l-.058-.074v-.019a.778.778,0,0,0-.14-.174c-.054-.054-.043-.089-.058-.1s-.023-.078-.035-.081" transform="translate(-4.633 -81.803)" fill="#dde0e0"/>
            <path id="Path_730" data-name="Path 730" d="M7.8,135.081c0,.027-.039.023-.089,0a.171.171,0,0,1-.062-.054v-.054a1.763,1.763,0,0,1,.085-.159.484.484,0,0,1,.074-.1c.058-.062.112-.124.167-.19l.043-.035a.541.541,0,0,0,.136-.132.039.039,0,0,0,0-.031,1.075,1.075,0,0,1,.14-.163,1.514,1.514,0,0,0,.14-.1h.023c.023,0,.035,0,.047-.023L8.562,134a.086.086,0,0,1,.047,0s.035.023.035.031.019,0,.031.027a.954.954,0,0,1-.05.163s-.124.163-.136.182,0,0-.027.023l-.1.14c-.023.023-.039.054-.078.066a1.171,1.171,0,0,1-.12.12l-.058.066a1.761,1.761,0,0,0-.14.155.566.566,0,0,0-.085.07c-.008.016-.074.027-.078.039" transform="translate(-4.685 -82.055)" fill="#dde0e0"/>
            <g id="Group_272" data-name="Group 272" transform="translate(7.626 44.912)" opacity="0.3">
              <g id="Group_271" data-name="Group 271" transform="translate(0)">
                <g id="Group_270" data-name="Group 270" clip-path="url(#clip-path-7)">
                  <path id="Path_731" data-name="Path 731" d="M21.378,115.937c0-.027,0-.05.07-.07a.18.18,0,0,1,.081,0,.213.213,0,0,1,.039.043s.031.155.043.2a.592.592,0,0,1,0,.143v.291a.332.332,0,0,1,0,.062.7.7,0,0,0,0,.221v.039a1.029,1.029,0,0,1,0,.244,1.144,1.144,0,0,1-.039.194.041.041,0,0,1,0,.027c-.023.019-.019.039-.023.058a.286.286,0,0,1,0,.081.133.133,0,0,1-.027.043h-.089a.951.951,0,0,1-.07-.178,1.073,1.073,0,0,0-.023-.26.157.157,0,0,1,0-.043v-.2a.236.236,0,0,1,0-.116.047.047,0,0,0,0-.023,1.681,1.681,0,0,1,0-.2.873.873,0,0,0,0-.1.047.047,0,0,0,0-.023v-.24c0-.019.019-.1.019-.128s.027-.062.019-.07" transform="translate(-20.689 -115.863)" fill="#dde0e0"/>
                  <path id="Path_732" data-name="Path 732" d="M19.735,117.844c-.023,0-.043,0-.058-.07a.286.286,0,0,1,0-.081.366.366,0,0,0,.039-.039l.178-.043a.417.417,0,0,1,.12,0h.31a.521.521,0,0,0,.19,0h.031a.656.656,0,0,1,.213,0l.167.039h.023c.023,0,.035.019.05.023a.235.235,0,0,1,.074,0,.041.041,0,0,1,.035.027.067.067,0,0,1,0,.05v.039a.714.714,0,0,1-.155.07l-.225.023h-.209a.165.165,0,0,1-.1,0H20.4a1.25,1.25,0,0,1-.171,0H20.1a1.82,1.82,0,0,0-.205,0,1.028,1.028,0,0,0-.109-.019s-.047-.023-.054-.019" transform="translate(-19.673 -116.928)" fill="#dde0e0"/>
                  <path id="Path_733" data-name="Path 733" d="M20.349,116.339c-.031,0,0-.043,0-.093a.049.049,0,0,1,.062-.047.134.134,0,0,1,.058,0s.112.093.151.12a.758.758,0,0,1,.093.1l.167.209a.193.193,0,0,1,.031.054.758.758,0,0,0,.12.171h.027a.934.934,0,0,1,.143.178l.081.167v.023a.07.07,0,0,0,.019.058.386.386,0,0,1,.039.066.187.187,0,0,1,0,.047.282.282,0,0,1-.035.031.037.037,0,0,0-.035.027.8.8,0,0,1-.155-.085s-.151-.163-.171-.178a.062.062,0,0,1-.019-.035l-.128-.132a.238.238,0,0,1-.058-.093.019.019,0,0,0,0-.019,1.347,1.347,0,0,1-.1-.151c-.019-.027-.043-.047-.062-.074v-.019c-.05-.054-.085-.12-.14-.174s-.043-.089-.058-.1-.019-.039-.027-.043" transform="translate(-20.079 -116.067)" fill="#dde0e0"/>
                  <path id="Path_734" data-name="Path 734" d="M20.56,117.7c0,.027-.039.023-.093,0s-.058-.043-.058-.054a.254.254,0,0,1,0-.054s.066-.12.085-.159a.484.484,0,0,1,.074-.1c.054-.062.109-.128.167-.19a.2.2,0,0,1,.043-.035.541.541,0,0,0,.136-.132v-.031a.781.781,0,0,1,.136-.163l.143-.1a.024.024,0,0,1,.019,0c.031,0,.039,0,.05-.023l.058-.047h.043a.272.272,0,0,1,.039.031s0,.019.027.031a.5.5,0,0,1-.05.159s-.12.167-.132.186-.019,0-.027.023a1.2,1.2,0,0,1-.1.14.235.235,0,0,1-.078.066.932.932,0,0,1-.12.124.5.5,0,0,0-.058.066c-.043.054-.1.1-.136.155s-.078.054-.089.07-.078.023-.078.035" transform="translate(-20.123 -116.323)" fill="#dde0e0"/>
                </g>
              </g>
            </g>
            <path id="Path_735" data-name="Path 735" d="M151.586,71.807c0-.027,0-.05.07-.07a.18.18,0,0,1,.081,0,.193.193,0,0,1,.039.043s.031.155.043.2a.635.635,0,0,1,0,.143v.291a.209.209,0,0,1,0,.066.814.814,0,0,0,0,.217v.039a1.029,1.029,0,0,1,0,.244.859.859,0,0,1-.039.194V73.2a.062.062,0,0,0-.019.058.575.575,0,0,1,0,.081.133.133,0,0,1-.027.043h-.089a.686.686,0,0,1-.066-.178s-.023-.233-.027-.26a.157.157,0,0,1,0-.043s-.019-.19-.019-.2a.294.294,0,0,1,0-.116v-.023a1.682,1.682,0,0,1,0-.2.881.881,0,0,0,0-.1.048.048,0,0,0,0-.023v-.24a1.265,1.265,0,0,0,.019-.128c0-.023.043-.062.035-.07" transform="translate(-92.79 -43.927)" fill="#dde0e0"/>
            <path id="Path_736" data-name="Path 736" d="M149.962,73.714c-.023,0-.043,0-.058-.07a.175.175,0,0,1,0-.078l.035-.043.178-.043a.662.662,0,0,1,.124,0h.306a.521.521,0,0,0,.19,0,.043.043,0,0,0,.031,0,.656.656,0,0,1,.213,0l.167.039h.023c.023,0,.035,0,.05.023a.39.39,0,0,1,.074,0s.023,0,.035.031a.053.053,0,0,1,0,.047v.039a.57.57,0,0,1-.155.07l-.225.023h-.209a.165.165,0,0,1-.1,0h-.023a1.252,1.252,0,0,1-.171,0h-.12a1.882,1.882,0,0,0-.209,0,.936.936,0,0,0-.109-.019s-.043-.023-.05-.019" transform="translate(-91.794 -44.992)" fill="#dde0e0"/>
            <path id="Path_737" data-name="Path 737" d="M150.582,72.215c-.027,0,0-.043,0-.093a.172.172,0,0,1,.066-.047h.054s.112.093.151.12a.711.711,0,0,1,.093.1c.054.074.112.14.171.213l.031.05a.577.577,0,0,0,.116.171l.027.023a.948.948,0,0,1,.147.174c.023.058.05.109.078.167s0,0,0,.023v.058a.3.3,0,0,1,.039.07.185.185,0,0,1,0,.047s-.031.031-.035.027-.023,0-.035.027a.794.794,0,0,1-.155-.085s-.151-.163-.171-.178a.261.261,0,0,1,0-.035l-.128-.132a.238.238,0,0,1-.058-.093.019.019,0,0,0,0-.019,1.04,1.04,0,0,1-.1-.151c-.019-.023-.043-.047-.062-.074h0c-.046-.054-.085-.12-.14-.174s-.043-.089-.058-.1-.016-.078-.027-.081" transform="translate(-92.204 -44.136)" fill="#dde0e0"/>
            <path id="Path_738" data-name="Path 738" d="M150.79,73.572c0,.027-.039.023-.093,0a.2.2,0,0,1-.058-.054.254.254,0,0,1,0-.054s.066-.12.085-.159a.485.485,0,0,1,.074-.1l.167-.19a.2.2,0,0,1,.043-.035.541.541,0,0,0,.136-.132.039.039,0,0,0,0-.031.868.868,0,0,1,.136-.163,1.191,1.191,0,0,0,.143-.1.024.024,0,0,1,.019,0c.031,0,.039,0,.05-.023l.058-.043a.079.079,0,0,1,.043,0s.039.023.039.031.019.019.031.027a.559.559,0,0,1-.05.163l-.132.182a.031.031,0,0,0-.027.023,1.2,1.2,0,0,1-.1.14.2.2,0,0,1-.078.066.932.932,0,0,1-.12.124l-.058.066h-.019c-.043.054-.1.1-.136.155s-.078.054-.085.07-.066.023-.066.035" transform="translate(-92.246 -44.389)" fill="#dde0e0"/>
            <g id="Group_275" data-name="Group 275" transform="translate(45.026 60.69)" opacity="0.6">
              <g id="Group_274" data-name="Group 274" transform="translate(0)">
                <g id="Group_273" data-name="Group 273" clip-path="url(#clip-path-10)">
                  <path id="Path_739" data-name="Path 739" d="M117.809,157.565a2.954,2.954,0,0,0,.857,4.431" transform="translate(-116.768 -157.177)" fill="none" stroke="#dde0e0" stroke-linecap="round" stroke-linejoin="round" stroke-width="2"/>
                </g>
              </g>
            </g>
          </g>
        </g>
      </g>
    </g>
    <g id="Group_289" data-name="Group 289" transform="translate(778.616 4138.314)">
      <g id="Group_283" data-name="Group 283" transform="translate(0 0)">
        <g id="Group_282" data-name="Group 282" clip-path="url(#clip-path-11)">
          <path id="Path_758" data-name="Path 758" d="M.035,23.5Q.066,11.748.1,0L8.714.019h11.4L60.295.14l5.953.009c0,4.152.009,8.3.014,12.417.017,7.577.074,15.185-.01,22.757-.052,4.721-.811-1.266-.818-10V12.883q.01-5.968.022-11.936L55.169.9,44.335.836C35.007.77,25.295.8,15.751.787L.858.758Q.842,8.715.825,16.689.8,26.376.787,36.064v1.294l27.506.024c7.548-.009,14.945-.062,22.406-.1l4.906-.028c6.141-.012,8.094.04,9.414.249.3.048.692.1.865.144.59.163-1.913.3-6.409.346-13.338.142-27.4.163-41.518.164L0,38.143Q0,30.833.017,23.5Z" fill="#dde0e0"/>
          <path id="Path_759" data-name="Path 759" d="M28.29,61.119l12.649.069h4.614l16.261.107c2.4.014,4.825,0,7.21,0,3.067-.016,6.146-.066,9.21,0,1.912.047-.519.716-4.046.723-6.262.01-12.521-.019-18.835-.114-3.775-.057-7.705-.028-11.568-.042l-12.741-.05-7.266-.029V60.745c.012-3.958.033-7.935.022-11.864,0-3.055-.055-6.055-.086-9.068,0-.664-.016-1.315-.022-1.986a13.439,13.439,0,0,1,.22-3.806,2.463,2.463,0,0,1,.126-.346c.142-.239.261.775.3,2.595.125,5.4.142,11.092.144,16.806q0,4-.016,8.025l3.818.012Z" transform="translate(-19.592 -27.821)" fill="#dde0e0"/>
          <path id="Path_760" data-name="Path 760" d="M97.023,23.068,84.261,23H79.606L63.2,22.889c-2.422-.012-4.866,0-7.266,0-3.093.014-6.2.064-9.291-.01-1.929-.045.519-.714,4.083-.721,6.318-.012,12.628.017,19,.112,3.806.057,7.774.028,11.672.042l12.857.057,6.088.026v2.3c-.012,3.993-.033,8.006-.022,11.969,0,3.083.055,6.1.086,9.15,0,.671.016,1.327.022,2a13.732,13.732,0,0,1-.22,3.844,2.5,2.5,0,0,1-.126.356c-.142.24-.261-.782-.3-2.617-.125-5.448-.142-11.189-.144-16.953q.01-4.671.019-9.352h-2.61Z" transform="translate(-38.012 -18.322)" fill="#dde0e0"/>
          <path id="Path_761" data-name="Path 761" d="M285.509,54.864a3.577,3.577,0,0,1-.08.552,4.983,4.983,0,0,1-4.562,4.56c-2.406,0-4.358-2.219-4.358-4.958s1.951-4.958,4.358-4.958a5.012,5.012,0,0,1,4.641,4.8" transform="translate(-228.676 -41.4)" fill="#dde0e0"/>
          <path id="Path_762" data-name="Path 762" d="M276.376,51.274a4.992,4.992,0,0,0-.138,5.408,4.306,4.306,0,0,0,.849,1.038,3.712,3.712,0,0,0,2.434.977,3.5,3.5,0,0,0,1.316-.259,4.621,4.621,0,0,0,1.057-.605,5.129,5.129,0,0,0,.865-.865,5.037,5.037,0,0,0,.728-1.368,7.065,7.065,0,0,0,.218-.746l.071-.384.021-.1a1.167,1.167,0,0,1,.024-.118c.017-.074.036-.14.054-.2.038-.138.076-.173.147-.185s.173.076.223.249c.029.083.048.183.074.272,0,.024.014.04.021.067l.016.088c.009.061.016.126.022.194a2.374,2.374,0,0,1-.1.919,5.5,5.5,0,0,1-2.154,2.884,4.915,4.915,0,0,1-1.675.735,3.98,3.98,0,0,1-.931.1c-.156-.009-.31-.026-.462-.04a4.6,4.6,0,0,1-.455-.09,4.968,4.968,0,0,1-3.254-2.785,5.838,5.838,0,0,1-.031-4.652,5.377,5.377,0,0,1,.33-.654,5.18,5.18,0,0,1,.424-.6,5.465,5.465,0,0,1,.5-.538l.282-.237a3.359,3.359,0,0,1,.306-.218,4.44,4.44,0,0,1,.483-.28c.173-.083.346-.147.519-.215a4.229,4.229,0,0,1,3.242.254,5.584,5.584,0,0,1,2.422,2.3c.057.112.126.216.173.33s.1.228.151.346a5.683,5.683,0,0,1,.173.567,3.358,3.358,0,0,1,.047.4.675.675,0,0,1-.131.453.688.688,0,0,1-.114.133c-.066.047-.138-.019-.206-.173a2.091,2.091,0,0,1-.1-.282,3.419,3.419,0,0,1-.123-.388,6.069,6.069,0,0,0-.569-1.232,5.658,5.658,0,0,0-.865-1.057,4.228,4.228,0,0,0-2.406-1.169,3.151,3.151,0,0,0-.495-.01,1.463,1.463,0,0,0-.249.014l-.246.042-.123.022-.121.035-.24.067-.232.1-.118.047-.111.061-.223.119c-.071.045-.14.1-.209.142a3.851,3.851,0,0,0-.4.315,4.371,4.371,0,0,0-.668.78Z" transform="translate(-227.299 -40.405)" fill="#dde0e0"/>
          <path id="Path_763" data-name="Path 763" d="M298.826,33.525c-.035-.016.014-.04.111-.09a.518.518,0,0,1,.142-.045.346.346,0,0,1,.085.026,1.808,1.808,0,0,1,.123.173.31.31,0,0,1,.048.123l.061.259a.12.12,0,0,1,0,.061.357.357,0,0,0,.014.2.027.027,0,0,0,.021.031.512.512,0,0,1,.055.216,1.777,1.777,0,0,0-.038.185.04.04,0,0,1-.012.028.1.1,0,0,0-.028.061.256.256,0,0,1-.01.078c0,.014-.026.029-.043.045a.175.175,0,0,1-.087.019.1.1,0,0,0-.076.012h-.028a.63.63,0,0,1-.154-.133s-.021-.052-.04-.106a1.188,1.188,0,0,0-.05-.118v-.04c0-.014-.067-.163-.069-.173,0-.035-.026-.064,0-.106a.023.023,0,0,0,0-.021.681.681,0,0,1-.021-.173.735.735,0,0,0-.019-.088v-.017a.055.055,0,0,0,0-.022,1.033,1.033,0,0,0-.05-.208c0-.016.021-.1.01-.118s.066-.055.055-.061" transform="translate(-247.077 -27.614)" fill="#dde0e0"/>
          <path id="Path_764" data-name="Path 764" d="M262.872,50.36c-.033.019-.033-.04-.014-.144a.551.551,0,0,1,.054-.14.586.586,0,0,1,.064-.057,1.558,1.558,0,0,0,.2-.01.3.3,0,0,1,.13.024c.083.031.173.055.251.085a.14.14,0,0,1,.05.035.361.361,0,0,0,.173.093c.012,0,.021.009.036,0a.612.612,0,0,1,.215.066c.045.048.093.086.14.128,0,0,.017,0,.017.024,0,.047.022.047.038.055a.243.243,0,0,1,.062.05.2.2,0,0,1,.017.061.193.193,0,0,1-.029.083c-.019.016-.021.047-.028.073l-.01.026a.69.69,0,0,1-.2.064s-.215-.042-.239-.042-.022-.014-.033-.022a1.722,1.722,0,0,0-.182-.029c-.031-.017-.071-.012-.09-.061a.018.018,0,0,0-.017-.01.651.651,0,0,1-.164-.078.753.753,0,0,0-.088-.029.015.015,0,0,0-.012-.014c-.012,0-.01-.014-.017-.016A1.22,1.22,0,0,0,263,50.5c-.017,0-.076-.073-.1-.073s-.014-.08-.026-.071" transform="translate(-217.375 -41.358)" fill="#dde0e0"/>
          <path id="Path_765" data-name="Path 765" d="M257.568,82.866c-.016.035-.048-.014-.087-.114a.547.547,0,0,1-.031-.147.571.571,0,0,1,.021-.08,1.644,1.644,0,0,1,.149-.118.291.291,0,0,1,.112-.054c.08-.021.159-.048.239-.073a.135.135,0,0,1,.059,0,.309.309,0,0,0,.19-.028c.01,0,.022,0,.028-.022a.456.456,0,0,1,.2-.073,1.725,1.725,0,0,0,.183.022.035.035,0,0,1,.026.009.123.123,0,0,0,.062.022.226.226,0,0,1,.076,0c.014,0,.031.024.048.04a.172.172,0,0,1,.028.083.268.268,0,0,0,.021.074l.009.026a.635.635,0,0,1-.112.173l-.1.05c-.05.024-.1.052-.111.059s-.026,0-.038,0-.152.083-.159.083c-.035,0-.062.031-.106,0h-.021a.579.579,0,0,1-.173.033.537.537,0,0,0-.086.026h-.017a.036.036,0,0,0-.022,0,1.088,1.088,0,0,0-.2.057c-.016.01-.1-.017-.121,0s-.054-.064-.066-.05" transform="translate(-212.913 -67.945)" fill="#dde0e0"/>
          <path id="Path_766" data-name="Path 766" d="M270.14,108.312c.028.019-.028.021-.135.031a.646.646,0,0,1-.151-.01.367.367,0,0,1-.067-.054.985.985,0,0,1-.029-.221.278.278,0,0,1,.026-.133c.033-.085.064-.163.1-.24a.112.112,0,0,1,.038-.043.345.345,0,0,0,.112-.154c0-.01.01-.019,0-.035a.492.492,0,0,1,.1-.187c.054-.029.1-.066.147-.1,0,0,0-.016.026-.01a.05.05,0,0,0,.059-.021.2.2,0,0,1,.059-.045.236.236,0,0,1,.061,0,.191.191,0,0,1,.074.048c.012.021.042.029.064.043l.023.016a.641.641,0,0,1,.031.187l-.035.092a1.05,1.05,0,0,0-.035.107c0,.012-.016.016-.026.022a1.539,1.539,0,0,0-.047.152c-.019.022-.017.057-.066.066-.009,0-.01,0-.012.014a.492.492,0,0,1-.081.126.336.336,0,0,0-.031.069.017.017,0,0,0-.014.01c-.005.01-.012,0-.014.012-.019.055-.061.1-.059.159,0,.014-.061.055-.055.069s-.071.019-.059.028" transform="translate(-223.092 -88.563)" fill="#dde0e0"/>
          <path id="Path_767" data-name="Path 767" d="M298.515,116.135c.031.01-.021.029-.121.064a.726.726,0,0,1-.149.028.381.381,0,0,1-.078-.022,1.353,1.353,0,0,1-.1-.157.231.231,0,0,1-.028-.107v-.213a.071.071,0,0,1,.014-.047.236.236,0,0,0,.029-.157.028.028,0,0,0-.014-.028.309.309,0,0,1,0-.173.923.923,0,0,0,.08-.131.021.021,0,0,1,.017-.019.078.078,0,0,0,.042-.04.133.133,0,0,1,.029-.055c0-.01.033-.017.052-.026a.237.237,0,0,1,.088,0,.208.208,0,0,0,.076,0h.028a.49.49,0,0,1,.119.128l.016.085c.009.043.017.087.021.1s0,.019-.012.028.031.131.029.137.012.052-.026.076c-.009,0,0,.01,0,.016a.385.385,0,0,1-.017.133.445.445,0,0,0,0,.067v.028a.354.354,0,0,0,.01.154c0,.012-.038.069-.029.08s-.09.055-.076.059" transform="translate(-246.481 -95.144)" fill="#dde0e0"/>
          <path id="Path_768" data-name="Path 768" d="M327.107,105.48c.035,0-.009.043-.1.092a1.1,1.1,0,0,1-.142.05h-.078q-.061-.034-.119-.074a.141.141,0,0,1-.059-.066c-.028-.052-.062-.1-.093-.154a.069.069,0,0,1-.009-.043.173.173,0,0,0-.05-.133.022.022,0,0,0-.026-.012c-.028,0-.1-.106-.1-.126a1.022,1.022,0,0,0,0-.145.02.02,0,0,1,0-.024.09.09,0,0,0,.012-.054.122.122,0,0,1-.01-.059.217.217,0,0,1,.028-.05.279.279,0,0,1,.071-.052c.022,0,.043-.026.064-.043l.022-.016a.517.517,0,0,1,.173.028l.062.059a.962.962,0,0,0,.074.066c.009,0,0,.019,0,.029a1.332,1.332,0,0,0,.1.1c0,.005.04.038.021.081a.012.012,0,0,0,0,.016.348.348,0,0,1,.057.126.306.306,0,0,0,.036.061v.016a.061.061,0,0,0,0,.017c.033.047.04.106.083.15.01.009,0,.088,0,.1s-.035.066-.021.066" transform="translate(-269.875 -86.48)" fill="#dde0e0"/>
          <path id="Path_769" data-name="Path 769" d="M330.811,49.511a.024.024,0,0,1,.021-.012.057.057,0,0,1,.036.019.157.157,0,0,1,.038.114c0,.033-.026.133-.026.149a.1.1,0,0,0,.017.074.082.082,0,0,1-.014.043l-.043.067a.2.2,0,0,1-.073.066,1.93,1.93,0,0,0-.173.119.107.107,0,0,1-.048.016.243.243,0,0,0-.152.076.032.032,0,0,0-.016.028.457.457,0,0,1-.144.123,1.555,1.555,0,0,0-.164.031c-.009,0-.01.012-.026,0a.059.059,0,0,0-.061,0,.174.174,0,0,1-.068.019.171.171,0,0,1-.057-.019.239.239,0,0,1-.055-.069c0-.022-.029-.04-.047-.061l-.017-.022a.53.53,0,0,1,.035-.187s.031-.038.066-.076a.906.906,0,0,0,.074-.088c0-.01.021-.009.035-.01a1.459,1.459,0,0,0,.111-.125c.007,0,.043-.047.09-.035h.019a.577.577,0,0,1,.144-.08.437.437,0,0,0,.069-.047h.017a.039.039,0,0,0,.021,0,1.545,1.545,0,0,0,.173-.109c.01-.012.112,0,.128-.021s.083.029.09.016" transform="translate(-272.697 -40.929)" fill="#dde0e0"/>
          <path id="Path_770" data-name="Path 770" d="M337.59,77.447c.023-.028.035.028.04.133a.874.874,0,0,1-.012.149c-.012.028-.024.054-.035.073a1.273,1.273,0,0,1-.137.073.173.173,0,0,1-.1.021h-.2a.078.078,0,0,1-.045-.012.2.2,0,0,0-.152-.026.031.031,0,0,0-.026.016.378.378,0,0,1-.173.016.947.947,0,0,0-.137-.071.023.023,0,0,1-.019-.016.073.073,0,0,0-.042-.038.173.173,0,0,1-.059-.024c-.01,0-.019-.031-.029-.05a.221.221,0,0,1,0-.088.2.2,0,0,0,0-.078V77.5a.542.542,0,0,1,.121-.13l.087-.021.1-.028a.036.036,0,0,1,.029.01c.01.01.135-.038.14-.036s.054-.014.081.024h.016a.436.436,0,0,1,.142.016.489.489,0,0,0,.071,0,.016.016,0,0,1,.014.009c0,.009.01,0,.016,0a.723.723,0,0,0,.173,0c.014,0,.076.045.092.04s.033.078.041.067" transform="translate(-278.259 -63.919)" fill="#dde0e0"/>
          <path id="Path_771" data-name="Path 771" d="M54.908,105.261a8.976,8.976,0,0,0-1.166-.777,6.137,6.137,0,0,0-1.266-.519,3.955,3.955,0,0,0-1.318-.1,4.587,4.587,0,0,0-1.3.387,11.8,11.8,0,0,0-1.789,1.055,26.931,26.931,0,0,0-2.9,2.348q-1.383,1.266-2.652,2.661c-.754.82-1.469,1.683-2.145,2.557-.865,1.124-1.666,2.3-2.486,3.46-.254.358-.377.218-.322-.194a4.345,4.345,0,0,1,.778-1.775,43.159,43.159,0,0,1,2.728-3.46,40.415,40.415,0,0,1,3.078-3.18c.652-.6,1.32-1.211,2.019-1.794a18.843,18.843,0,0,1,2.211-1.631,9.755,9.755,0,0,1,1.353-.711,4.746,4.746,0,0,1,1.519-.4,4.426,4.426,0,0,1,1.557.173,6.231,6.231,0,0,1,1.415.616c.133.081.273.154.4.244l.388.263c.249.187.5.372.732.576a15.843,15.843,0,0,1,1.335,1.28,30.786,30.786,0,0,1,3.353,4.425c.772,1.2,1.5,2.4,2.166,3.647.144.277.294.543.429.827.509,1.048.6,1.417.519,1.716a1.008,1.008,0,0,1-.054.2c-.093.156-.372-.237-.753-.983a55.738,55.738,0,0,0-3.962-6.634,28.148,28.148,0,0,0-1.808-2.284,14.934,14.934,0,0,0-2.076-1.984Z" transform="translate(-31.058 -85.333)" fill="#dde0e0"/>
          <path id="Path_772" data-name="Path 772" d="M180.742,130.75a5.669,5.669,0,0,0-2.36-1.451,3.136,3.136,0,0,0-.977-.09,6.6,6.6,0,0,0-1.778.4,18.1,18.1,0,0,0-1.754.728,16.493,16.493,0,0,0-1.488.813c-.618.375-1.211.8-1.834,1.147-.2.107-.279-.054-.22-.306a1.446,1.446,0,0,1,.623-.829,19.261,19.261,0,0,1,4.06-2.024c.432-.15.877-.3,1.337-.429l.346-.088c.119-.026.242-.043.363-.064a2.653,2.653,0,0,1,.375-.036,1.4,1.4,0,0,1,.19,0l.185.012a4.428,4.428,0,0,1,1.557.42,6.4,6.4,0,0,1,1.327.851,11.365,11.365,0,0,1,1.349,1.341c.626.723,1.161,1.514,1.7,2.27.424.588.865,1.138,1.334,1.669l.311.346c.384.429.483.581.438.8a.644.644,0,0,1-.031.149c-.057.142-.32.059-.649-.244a20.327,20.327,0,0,1-2.533-3.128,15.463,15.463,0,0,0-1.893-2.237Z" transform="translate(-140.85 -106.285)" fill="#dde0e0"/>
          <path id="Path_773" data-name="Path 773" d="M78.852,137.161a9.636,9.636,0,0,0-.81.886c-.093.116-.173.242-.261.362l-.981,1.261c-.149.187-.285.386-.422.581-.088.125-.173.256-.263.379a1.783,1.783,0,0,1-.325.33c-.154.116-.467-.483-.259-.737.37-.469.739-.939,1.161-1.4.251-.275.446-.614.678-.92a11.357,11.357,0,0,1,.83-.976c.088-.1.183-.19.28-.28s.187-.187.291-.27c.152-.13.3-.265.465-.379l.237-.182.242-.173c.246-.187.488-.368.737-.548.057-.036.111-.076.173-.111.22-.123.311-.119.432.012a1.025,1.025,0,0,1,.081.092c.076.109.035.254-.1.367-.413.325-.848.623-1.27.941-.156.121-.313.24-.458.374s-.292.265-.434.4Z" transform="translate(-62.407 -111.558)" fill="#dde0e0"/>
          <path id="Path_774" data-name="Path 774" d="M213.675,150.408c-.1-.156-.2-.308-.317-.453-.042-.054-.1-.09-.14-.142a4.631,4.631,0,0,0-.477-.533,1.127,1.127,0,0,0-.263-.173c-.061-.029-.126-.05-.185-.081a.347.347,0,0,1-.159-.125c-.055-.078.317-.588.484-.505a1.923,1.923,0,0,1,.708.614,4.8,4.8,0,0,0,.391.4,5.532,5.532,0,0,1,.375.481l.209.308c.107.154.2.318.308.467.085.116.2.211.294.322a.509.509,0,0,1,.066.071c.067.1.048.152-.092.256-.031.022-.062.048-.1.069a.284.284,0,0,1-.3.035,2.047,2.047,0,0,1-.5-.552c-.107-.149-.2-.306-.315-.453Z" transform="translate(-175.431 -122.717)" fill="#dde0e0"/>
          <path id="Path_775" data-name="Path 775" d="M150.4,152.391c-.119-.187-.244-.374-.377-.554-.048-.066-.111-.116-.159-.182a5.657,5.657,0,0,0-.543-.65,1.06,1.06,0,0,0-.3-.2c-.137-.062-.266-.064-.337-.123a.533.533,0,0,1-.023-.346.415.415,0,0,1,.138-.216.251.251,0,0,1,.218-.057,1.567,1.567,0,0,1,.566.318,1.982,1.982,0,0,1,.374.427c.123.185.3.323.432.493s.287.379.422.573l.242.36c.125.173.237.368.367.543.1.135.23.247.346.379.024.029.054.054.076.086.081.118.066.187-.074.291-.031.022-.062.048-.1.069a.282.282,0,0,1-.311.014,2.906,2.906,0,0,1-.588-.659c-.131-.173-.253-.37-.386-.552Z" transform="translate(-122.927 -124.099)" fill="#dde0e0"/>
          <path id="Path_776" data-name="Path 776" d="M177.837,217.913l-.071,9.193v3.353l-.107,11.82c-.012,1.745,0,3.506,0,5.234.014,2.228.064,4.466-.01,6.693-.045,1.389-.714-.374-.721-2.941-.012-4.551.017-9.1.112-13.688.057-2.742.028-5.6.042-8.408l.057-9.262.026-4.385h2.3c3.993.009,8.006.024,11.969.016,3.083,0,6.1-.04,9.15-.062.671,0,1.327-.011,2-.016a18.939,18.939,0,0,1,3.844.158,3.18,3.18,0,0,1,.356.091c.24.1-.782.188-2.617.218-5.448.09-11.189.1-16.953.1l-9.352-.014V217.9Z" transform="translate(-146.318 -178.187)" fill="#dde0e0"/>
          <path id="Path_777" data-name="Path 777" d="M49.906,218.633l.071,9.193v3.353L50.084,243c.012,1.745,0,3.506,0,5.234-.014,2.228-.064,4.466.01,6.693.045,1.389.714-.374.721-2.941.012-4.551-.017-9.1-.112-13.688-.057-2.742-.028-5.6-.042-8.408l-.057-9.262-.026-4.385h-2.3c-3.993.009-8.006.024-11.969.016-3.083,0-6.1-.04-9.15-.062-.671,0-1.327-.011-2-.016a18.943,18.943,0,0,0-3.844.158,3.192,3.192,0,0,0-.356.091c-.24.1.782.188,2.617.218,5.448.09,11.189.1,16.953.1l9.352-.014v1.881Z" transform="translate(-17.304 -178.782)" fill="#dde0e0"/>
        </g>
      </g>
      <g id="Group_285" data-name="Group 285" transform="translate(30.602 67.503) rotate(40)">
        <g id="Group_284" data-name="Group 284" transform="translate(0 0)" clip-path="url(#clip-path-12)">
          <path id="Path_778" data-name="Path 778" d="M7.248,4.847A20.608,20.608,0,0,0,5.517,6.74c-.2.248-.37.518-.558.773l-2.1,2.7c-.318.4-.61.825-.9,1.243-.189.266-.37.547-.562.81a3.81,3.81,0,0,1-.7.706c-.329.248-1-1.032-.555-1.575.791-1,1.579-2.008,2.481-3,.536-.588.954-1.313,1.45-1.967A24.275,24.275,0,0,1,5.853,4.344c.189-.211.392-.407.6-.6s.4-.4.621-.577c.325-.277.643-.566.995-.81l.507-.388.518-.37c.525-.4,1.043-.788,1.575-1.172.122-.078.237-.163.37-.237.47-.263.666-.255.925.026a2.186,2.186,0,0,1,.174.2c.163.233.074.544-.218.784-.884.7-1.812,1.331-2.714,2.012-.333.259-.669.514-.98.8s-.625.566-.928.865Z" transform="translate(0 0)" fill="#dde0e0" stroke="#000" stroke-width="1"/>
        </g>
      </g>
    </g>
  </g>
</svg>
