<svg xmlns="http://www.w3.org/2000/svg" width="51.527" height="16.164" viewBox="0 0 51.527 16.164">
  <g id="Paytm" transform="translate(-8 -8)">
    <path id="Path_1030" data-name="Path 1030" d="M8,68.954c.16-.389.255-.454.678-.454h4.729a3.535,3.535,0,0,1,1.477.272,2.789,2.789,0,0,1,1.741,2.548c.06,1.287.048,2.578,0,3.866a2.917,2.917,0,0,1-2.924,2.8c-.708.017-1.412,0-2.116,0h-.255v.25c0,1.028,0,2.06-.009,3.088,0,.488-.173.656-.665.661H8.7c-.445,0-.531-.06-.7-.462Zm3.343,5.71h.194c.432,0,.864,0,1.3-.009a.484.484,0,0,0,.484-.484c.013-.618.017-1.235,0-1.857a.5.5,0,0,0-.553-.484c-.328-.009-.7,0-1.054,0h-.367Z" transform="translate(0 -57.887)" fill="#233266"/>
    <path id="Path_1031" data-name="Path 1031" d="M692.564,8c.354.147.423.251.423.635v1.982h1.145c.51,0,.674.16.678.665,0,.678,0,1.356,0,2.03,0,.419-.186.609-.6.609h-1.192v.289q0,4.652-.009,9.308a.812.812,0,0,1-.155.488.5.5,0,0,1-.4.147c-.7.017-1.4.009-2.095.009-.436,0-.609-.173-.609-.622V20.711q0-3.248,0-6.5v-.294h-1.3c-.41,0-.592-.181-.592-.592q0-1.067,0-2.138a.505.505,0,0,1,.57-.574,3.019,3.019,0,0,0,2.691-1.4c.069-.108.151-.207.225-.315a2.11,2.11,0,0,1,1.14-.9Z" transform="translate(-650.487)" fill="#54c1f0"/>
    <path id="Path_1032" data-name="Path 1032" d="M881.021,66.147a3.52,3.52,0,0,1,4.725.238l.207-.181a3.446,3.446,0,0,1,5.593,1.641,3.128,3.128,0,0,1,.112.851c.009,3.218,0,6.44,0,9.657a.524.524,0,0,1-.587.583H889c-.471,0-.652-.181-.652-.652q0-4.332-.009-8.664a.912.912,0,0,0-.268-.721,1.252,1.252,0,0,0-1.464-.009.913.913,0,0,0-.285.739c0,.821,0,1.641,0,2.462V78.27c0,.536-.156.691-.7.691h-1.965c-.471,0-.644-.177-.644-.639q-.009-4.328-.009-8.66c0-.5-.181-.829-.583-.92a2.168,2.168,0,0,0-.851,0,.774.774,0,0,0-.583.747c0,.078,0,.155,0,.238V78.3c0,.462-.173.635-.639.639h-2.052c-.419,0-.609-.186-.609-.6V66.039c0-.41.181-.587.6-.592h1.944C880.853,65.447,880.944,65.529,881.021,66.147Z" transform="translate(-832.137 -54.864)" fill="#54c1f0"/>
    <path id="Path_1033" data-name="Path 1033" d="M235.629,76.525v4.384a1.278,1.278,0,0,1-1.317,1.373c-1.49.017-2.98.039-4.47-.013a2.928,2.928,0,0,1-2.933-3.041c-.013-.924-.009-1.844,0-2.769a3.058,3.058,0,0,1,2.665-3.118,12.14,12.14,0,0,1,2.021-.073c.674.017.734-.441.656-.881A.509.509,0,0,0,231.69,72c-.946,0-1.887.009-2.829-.009a.825.825,0,0,1-.466-.164.523.523,0,0,1-.147-.363c-.013-.691-.009-1.382,0-2.073a.476.476,0,0,1,.514-.514c1.2,0,2.4-.013,3.6.009a3.853,3.853,0,0,1,1.706.415,2.771,2.771,0,0,1,1.512,2.363c.06.644.048,1.3.052,1.944C235.633,74.582,235.629,75.553,235.629,76.525ZM232.3,77.817c0-.3,0-.6,0-.907a.544.544,0,0,0-.553-.557h-.929a.511.511,0,0,0-.553.553c0,.618,0,1.235,0,1.857a.511.511,0,0,0,.527.557c.337.017.648.013.972,0a.533.533,0,0,0,.536-.574Z" transform="translate(-209.446 -58.246)" fill="#233266"/>
    <path id="Path_1034" data-name="Path 1034" d="M465.637,74.137c0,1.5,0,3,0,4.5a3.564,3.564,0,0,1-.492,1.918,3.146,3.146,0,0,1-2.743,1.533c-1.287.035-2.574.013-3.861.009a.5.5,0,0,1-.549-.553c0-.717,0-1.43,0-2.142,0-.432.181-.618.618-.618l2.98-.009a2.2,2.2,0,0,0,.238,0,.545.545,0,0,0,.536-.54.534.534,0,0,0-.549-.527c-.54-.009-1.08.013-1.62-.013a3.262,3.262,0,0,1-3.222-3.287q-.009-2.617,0-5.226a.51.51,0,0,1,.574-.574h2.138c.415,0,.6.19.6.613q0,2.237.009,4.47c0,.527.173.7.7.7h.713a.548.548,0,0,0,.618-.626V69.261c0-.5.164-.661.661-.661h1.965c.527,0,.687.16.687.678Z" transform="translate(-429.576 -57.983)" fill="#233266"/>
  </g>
</svg>
