<svg xmlns="http://www.w3.org/2000/svg" xmlns:xlink="http://www.w3.org/1999/xlink" width="574" height="402.672" viewBox="0 0 574 402.672"><defs><style>.a{fill:none;}.b{clip-path:url(#a);}.c{fill:#f5f5f5;}.d{fill:#e0e0e0;}.e{fill:#fff;}.f{fill:#fafafa;}.g{fill:#ebebeb;}.h{fill:#263238;}.i{fill:#b78876;}.j{fill:#aa6550;}.k{fill:#e8505b;}.l{opacity:0.6;}.m{clip-path:url(#e);}.n{clip-path:url(#f);}.o{clip-path:url(#g);}.p{opacity:0.4;}.q{clip-path:url(#h);}.r{fill:#686a6b;}.s{opacity:0.3;}.t{clip-path:url(#i);}.u{fill:#455a64;}.v{clip-path:url(#l);}.w{fill:#ffbe9d;}.x{fill:#eb996e;}.y{clip-path:url(#n);}.z{opacity:0.2;}.aa{clip-path:url(#p);}</style><clipPath id="a"><rect class="a" width="574" height="402.672"/></clipPath><clipPath id="e"><rect class="a" width="30.228" height="2.625"/></clipPath><clipPath id="f"><rect class="a" width="19.973" height="12.521"/></clipPath><clipPath id="g"><rect class="a" width="2.366" height="2.366"/></clipPath><clipPath id="h"><rect class="a" width="3.701" height="4.679"/></clipPath><clipPath id="i"><rect class="a" width="35.13" height="20.259"/></clipPath><clipPath id="l"><rect class="a" width="28.533" height="12.55"/></clipPath><clipPath id="n"><rect class="a" width="19.789" height="43.527"/></clipPath><clipPath id="p"><rect class="a" width="12.63" height="14.674"/></clipPath></defs><g class="b"><path class="c" d="M234.273,437.218v20.723H298V437.218Z" transform="translate(-33.637 -62.775)"/><path class="d" d="M231.151,430.453v5.795h68.633v-5.795H231.151Z" transform="translate(-33.188 -61.804)"/><path class="d" d="M271,456.97h32.087V436.247h2.229v-5.795H269.658v5.258Z" transform="translate(-38.717 -61.804)"/><rect class="d" width="12.924" height="3.12" transform="translate(209.55 377.784)"/><rect class="e" width="16.596" height="6.587" transform="translate(207.886 384.804)"/><path class="c" d="M241.109,406.277V427H304.84V406.277Z" transform="translate(-34.618 -58.333)"/><path class="d" d="M237.987,399.512v5.794H306.62v-5.794H237.987Z" transform="translate(-34.17 -57.362)"/><path class="d" d="M277.832,426.03H309.92V405.306h2.229v-5.794H276.494v5.258Z" transform="translate(-39.699 -57.362)"/><rect class="d" width="12.924" height="3.12" transform="translate(215.404 351.286)"/><rect class="e" width="16.596" height="6.587" transform="translate(213.74 358.306)"/><g class="b"><path class="c" d="M48.68,288.635s-3.337,2.52-3.337,5.858v17.064H70.224V293.73s-.348-4.375-3.272-5.095Z" transform="translate(-6.51 -41.442)"/><path class="d" d="M47.485,312.3a47.058,47.058,0,0,1-.367-5.246,4.208,4.208,0,0,1,2.914-3.866c1.312-.361,2.685.12,4.027.343a10.683,10.683,0,0,0,6.44-.961c1.68-.834,3.216-2.138,5.084-2.311a2.755,2.755,0,0,1,2.973,1.641,4.073,4.073,0,0,1-.029,1.731c-.4,2.63.114,5.9.114,8.425-6.967.325-14.183.094-21.155.245" transform="translate(-6.764 -43.109)"/><path class="d" d="M43.5,317.81l3.749-2.41h22.71l3.646,2.41Z" transform="translate(-6.246 -45.285)"/><path class="c" d="M42.679,252.5v25.4H73.488V308h-30.1v7.218H95.318V252.5a5.409,5.409,0,0,0-5.409-5.408H48.087a5.408,5.408,0,0,0-5.408,5.408" transform="translate(-6.128 -35.477)"/><path class="d" d="M95.318,254.042c0,.123-11.784.223-26.318.223s-26.321-.1-26.321-.223,11.782-.223,26.321-.223,26.318.1,26.318.223" transform="translate(-6.128 -36.443)"/><path class="d" d="M87.044,315.25c-.123,0-.223-15.214-.223-33.976s.1-33.979.223-33.979.223,15.21.223,33.979-.1,33.976-.223,33.976" transform="translate(-12.466 -35.506)"/><path class="d" d="M39.37,302.988l-.31-7.694a10.381,10.381,0,0,1,1.672-6.278,5.519,5.519,0,0,1,4.535-2.749H66.049v2.03h-20.4s-3.673.387-4.156,5.413a49.741,49.741,0,0,0,0,9.279Z" transform="translate(-5.607 -41.102)"/><rect class="d" width="9.112" height="16.429" transform="translate(52.648 378.232)"/><rect class="d" width="9.112" height="16.429" transform="translate(92.915 378.232)"/><rect class="d" width="75.473" height="98.488" transform="translate(32.624 279.744)"/><rect class="c" width="73.516" height="98.488" transform="translate(18.798 279.744)"/><rect class="c" width="9.112" height="16.429" transform="translate(25.296 378.232)"/><rect class="c" width="9.112" height="16.429" transform="translate(77.692 378.232)"/><path class="d" d="M90.357,424.4s-.007-.152-.01-.436-.007-.711-.011-1.258c-.006-1.11-.015-2.734-.026-4.827-.013-4.191-.032-10.255-.056-17.791l.1.1c-15.8.012-38.232.029-63.09.046h0l.149-.148c0,8.5,0,16.71-.006,24.312l-.143-.143,45.2.067,13.143.04,3.523.018.915.009c.206,0,.316.009.316.009s-.1.006-.3.009l-.9.009-3.494.018-13.11.039-45.294.067H27.12V424.4c0-7.6,0-15.816-.006-24.312v-.149h.153l63.09.046h.1v.1c-.024,7.562-.043,13.648-.056,17.853-.011,2.084-.02,3.7-.026,4.8q-.006.808-.011,1.24c0,.277-.01.415-.01.415" transform="translate(-3.893 -57.423)"/><path class="d" d="M65.685,413.97a4.42,4.42,0,0,1-.116-.45,1.907,1.907,0,0,0-.7-.981,1.8,1.8,0,0,0-1.691-.23,1.772,1.772,0,0,0,0,3.321,1.807,1.807,0,0,0,1.691-.23,1.9,1.9,0,0,0,.7-.981,4.425,4.425,0,0,1,.116-.451.893.893,0,0,1,0,.48A1.9,1.9,0,0,1,65,415.568a2,2,0,0,1-1.913.32,2.034,2.034,0,0,1,0-3.837,2,2,0,0,1,1.912.32,1.9,1.9,0,0,1,.686,1.118.893.893,0,0,1,0,.48" transform="translate(-8.862 -59.145)"/><path class="d" d="M90.357,390.408s-.007-.151-.01-.435-.007-.712-.011-1.259c-.006-1.11-.015-2.734-.026-4.827-.013-4.19-.032-10.255-.056-17.791l.1.1-63.09.047h0l.149-.149c0,8.5,0,16.711-.006,24.312l-.143-.143,45.2.067,13.143.04,3.523.018.915.009c.206,0,.316.009.316.009s-.1.006-.3.009l-.9.009-3.494.018-13.11.039-45.294.068H27.12v-.143c0-7.6,0-15.815-.006-24.312v-.149h.153l63.09.046h.1v.1c-.024,7.562-.043,13.648-.056,17.853-.011,2.085-.02,3.7-.026,4.8q-.006.809-.011,1.24c0,.277-.01.415-.01.415" transform="translate(-3.893 -52.542)"/><path class="d" d="M65.685,379.974a4.343,4.343,0,0,1-.116-.451,1.907,1.907,0,0,0-.7-.981,1.807,1.807,0,0,0-1.691-.229,1.772,1.772,0,0,0,0,3.321,1.807,1.807,0,0,0,1.691-.229,1.9,1.9,0,0,0,.7-.98,4.407,4.407,0,0,1,.116-.451.893.893,0,0,1,0,.48A1.9,1.9,0,0,1,65,381.572a2,2,0,0,1-1.913.32,2.034,2.034,0,0,1,0-3.837,2,2,0,0,1,1.912.32,1.9,1.9,0,0,1,.686,1.118.892.892,0,0,1,0,.48" transform="translate(-8.862 -54.264)"/><path class="d" d="M90.357,356.87s-.007-.151-.01-.435-.007-.711-.011-1.258c-.006-1.11-.015-2.734-.026-4.827-.013-4.191-.032-10.256-.056-17.792l.1.1-63.09.046h0l.149-.149c0,8.5,0,16.711-.006,24.312l-.143-.142,45.2.067,13.143.039,3.523.018.915.009c.206,0,.316.009.316.009s-.1.007-.3.009l-.9.009-3.494.018-13.11.04-45.294.067H27.12v-.143c0-7.6,0-15.815-.006-24.312v-.149h.153l63.09.046h.1v.1c-.024,7.563-.043,13.649-.056,17.854-.011,2.084-.02,3.7-.026,4.8q-.006.809-.011,1.241c0,.277-.01.414-.01.414" transform="translate(-3.893 -47.727)"/><path class="d" d="M65.685,346.437a4.411,4.411,0,0,1-.116-.451,1.905,1.905,0,0,0-.7-.98,1.8,1.8,0,0,0-1.691-.23,1.772,1.772,0,0,0,0,3.321,1.807,1.807,0,0,0,1.691-.23,1.9,1.9,0,0,0,.7-.981,4.344,4.344,0,0,1,.116-.45.892.892,0,0,1,0,.48A1.9,1.9,0,0,1,65,348.035a2,2,0,0,1-1.913.32,2.034,2.034,0,0,1,0-3.837,2,2,0,0,1,1.912.32,1.9,1.9,0,0,1,.686,1.118.893.893,0,0,1,0,.48" transform="translate(-8.862 -49.449)"/><path class="d" d="M94.689,326.606c0,.123-11.447.223-25.563.223s-25.566-.1-25.566-.223,11.444-.224,25.566-.224,25.563.1,25.563.224" transform="translate(-6.254 -46.862)"/><rect class="f" width="66.373" height="59.382" transform="translate(252.473 132)"/><path class="d" d="M361.145,213.482s-.012-.381-.018-1.1-.009-1.794-.016-3.182c-.009-2.789-.022-6.863-.039-12.054-.018-10.376-.045-25.2-.077-43.044l.15.15-66.367.027h-.006l.177-.177c-.008,21.6-.015,41.933-.021,59.382l-.157-.157,48.007.08,13.539.041,3.585.018.925.009c.208,0,.319.009.319.009s-.1.006-.3.009l-.907.009-3.555.018-13.5.041-48.107.079h-.157v-.157c-.005-17.449-.013-37.778-.021-59.382v-.178h.183l66.367.027h.152v.151c-.032,17.882-.059,32.741-.077,43.139-.017,5.176-.03,9.24-.039,12.02-.008,1.375-.014,2.431-.016,3.153s-.017,1.07-.017,1.07" transform="translate(-42.297 -22.1)"/><path class="d" d="M321.9,166.42c0,.1-3.493.177-7.8.177s-7.8-.08-7.8-.177,3.493-.177,7.8-.177,7.8.08,7.8.177" transform="translate(-43.977 -23.869)"/><path class="d" d="M350.168,171.626c0,.1-9.6.177-21.434.177s-21.438-.08-21.438-.177,9.6-.177,21.438-.177,21.434.08,21.434.177" transform="translate(-44.121 -24.616)"/><rect class="d" width="2.796" height="2.796" transform="translate(262.432 154.563)"/><rect class="d" width="2.796" height="2.796" transform="translate(269.315 154.563)"/><rect class="d" width="2.796" height="2.796" transform="translate(276.325 154.435)"/><rect class="d" width="2.797" height="2.796" transform="translate(283.081 154.563)"/><rect class="d" width="2.796" height="2.796" transform="translate(289.965 154.563)"/><rect class="d" width="2.796" height="2.796" transform="translate(296.848 154.563)"/><rect class="g" width="2.796" height="2.796" transform="translate(303.731 154.563)"/><rect class="g" width="2.796" height="2.796" transform="translate(262.432 160.507)"/><rect class="d" width="2.796" height="2.796" transform="translate(269.315 160.507)"/><rect class="g" width="2.797" height="2.796" transform="translate(276.198 160.507)"/><rect class="d" width="2.797" height="2.796" transform="translate(283.081 160.507)"/><rect class="d" width="2.796" height="2.796" transform="translate(289.965 160.507)"/><rect class="d" width="2.797" height="2.796" transform="translate(296.975 160.38)"/><rect class="d" width="2.796" height="2.796" transform="translate(303.731 160.507)"/><rect class="d" width="2.796" height="2.796" transform="translate(262.432 166.452)"/><rect class="d" width="2.796" height="2.796" transform="translate(269.442 166.325)"/><rect class="d" width="2.797" height="2.796" transform="translate(276.198 166.452)"/><rect class="g" width="2.797" height="2.796" transform="translate(283.081 166.452)"/><rect class="d" width="2.796" height="2.796" transform="translate(289.965 166.452)"/><rect class="d" width="2.796" height="2.796" transform="translate(296.848 166.452)"/><rect class="d" width="2.796" height="2.796" transform="translate(303.731 166.452)"/><rect class="d" width="2.796" height="2.796" transform="translate(262.432 172.397)"/><rect class="d" width="2.796" height="2.796" transform="translate(269.315 172.397)"/><rect class="d" width="2.797" height="2.796" transform="translate(276.198 172.397)"/><rect class="d" width="2.797" height="2.796" transform="translate(283.208 172.27)"/><rect class="d" width="2.796" height="2.796" transform="translate(289.965 172.397)"/><rect class="g" width="2.796" height="2.796" transform="translate(296.848 172.397)"/><rect class="d" width="2.796" height="2.796" transform="translate(303.731 172.397)"/><rect class="d" width="2.796" height="2.796" transform="translate(262.432 178.342)"/><rect class="g" width="2.796" height="2.796" transform="translate(269.315 178.342)"/><rect class="d" width="2.797" height="2.796" transform="translate(276.198 178.342)"/><rect class="d" width="2.797" height="2.796" transform="translate(283.081 178.342)"/><rect class="d" width="2.796" height="2.796" transform="translate(289.965 178.342)"/><rect class="d" width="2.797" height="2.796" transform="translate(296.975 178.215)"/><rect class="d" width="2.796" height="2.796" transform="translate(303.731 178.342)"/><path class="d" d="M579.431,189.109s-.014-.648-.021-1.887-.012-3.075-.021-5.466c-.011-4.788-.026-11.8-.047-20.749-.023-17.876-.057-43.458-.1-74.322l.186.185-128.717.039H450.7l.224-.224c-.009,36.977-.016,71.922-.023,102.423l-.2-.2,92.992.1,26.341.053,6.982.023,1.8.012c.405,0,.617.011.617.011s-.2.008-.594.012l-1.778.011-6.941.024-26.3.053-93.121.1h-.2v-.2c-.007-30.5-.015-65.446-.022-102.423v-.223h.234l128.717.038h.186v.185c-.039,30.912-.073,56.535-.1,74.438-.021,8.927-.036,15.929-.048,20.707-.009,2.375-.016,4.2-.021,5.431s-.02,1.846-.02,1.846" transform="translate(-64.679 -12.414)"/><rect class="d" width="4.655" height="51.985" transform="translate(402.664 93.254)"/><rect class="g" width="4.656" height="34.329" transform="translate(411.649 110.91)"/><rect class="d" width="4.655" height="45.787" transform="translate(420.636 99.717)"/><rect class="g" width="4.656" height="49.977" transform="translate(429.622 95.261)"/><rect class="d" width="4.655" height="33.272" transform="translate(438.608 111.967)"/><rect class="g" width="4.655" height="26.747" transform="translate(447.596 118.492)"/><rect class="d" width="4.655" height="46.649" transform="translate(456.582 98.589)"/><rect class="g" width="4.655" height="38.238" transform="translate(465.569 107)"/><rect class="d" width="4.655" height="44.96" transform="translate(474.555 100.279)"/><rect class="g" width="4.655" height="30.63" transform="translate(483.541 114.609)"/><rect class="d" width="4.655" height="36.459" transform="translate(492.527 108.78)"/><path class="d" d="M566.22,173.784c0,.106-22.079.192-49.309.192s-49.314-.086-49.314-.192,22.075-.191,49.314-.191,49.309.086,49.309.191" transform="translate(-67.137 -24.924)"/><path class="d" d="M476.764,178.561a31.329,31.329,0,0,1-6.908,0,31.326,31.326,0,0,1,6.908,0" transform="translate(-67.461 -25.61)"/><path class="d" d="M489.918,178.8a44.717,44.717,0,0,1-8.257,0,44.518,44.518,0,0,1,8.257,0" transform="translate(-69.156 -25.645)"/><path class="d" d="M501.33,178.8a44.726,44.726,0,0,1-8.258,0,44.528,44.528,0,0,1,8.258,0" transform="translate(-70.795 -25.645)"/><path class="d" d="M512.741,178.8a44.716,44.716,0,0,1-8.257,0,44.518,44.518,0,0,1,8.257,0" transform="translate(-72.433 -25.645)"/><path class="d" d="M524.153,178.8a44.726,44.726,0,0,1-8.258,0,44.527,44.527,0,0,1,8.258,0" transform="translate(-74.072 -25.645)"/><path class="d" d="M535.564,178.8a44.717,44.717,0,0,1-8.257,0,44.519,44.519,0,0,1,8.257,0" transform="translate(-75.71 -25.645)"/><path class="d" d="M546.977,178.8a44.726,44.726,0,0,1-8.258,0,44.528,44.528,0,0,1,8.258,0" transform="translate(-77.349 -25.645)"/><path class="d" d="M558.388,178.8a44.717,44.717,0,0,1-8.257,0,44.519,44.519,0,0,1,8.257,0" transform="translate(-78.987 -25.645)"/><path class="d" d="M569.8,178.8a44.716,44.716,0,0,1-8.257,0,44.518,44.518,0,0,1,8.257,0" transform="translate(-80.626 -25.645)"/><path class="d" d="M581.212,178.8a44.726,44.726,0,0,1-8.258,0,44.528,44.528,0,0,1,8.258,0" transform="translate(-82.264 -25.645)"/><rect class="g" width="136.505" height="3.85" transform="translate(381.9 73.665)"/><path class="d" d="M312.021,211.142l-.9-3.146,1.81.086.16,2.9Z" transform="translate(-44.67 -29.864)"/><path class="d" d="M307.892,211.434l-2.056,11.159-5.2,14.746,29.3-4.226-11.824-12.871-4.937-9.569Z" transform="translate(-43.165 -30.248)"/><path class="d" d="M241.82,301.342c-.008-.155-.023-.307-.023-.465a9.3,9.3,0,1,1,18.6,0c0,.158-.015.31-.023.465Z" transform="translate(-34.717 -41.865)"/><path class="d" d="M250.527,284.013a.37.37,0,0,1-.357-.275l-12.32-46.958a.369.369,0,0,1,.714-.188l12.32,46.958a.368.368,0,0,1-.263.451.359.359,0,0,1-.094.012" transform="translate(-34.148 -33.93)"/><path class="d" d="M246.727,285.371a.37.37,0,0,1-.357-.275l-12.32-46.958a.369.369,0,0,1,.714-.188l12.32,46.958a.368.368,0,0,1-.263.451.36.36,0,0,1-.094.012" transform="translate(-33.603 -34.125)"/><path class="d" d="M233.382,236.9a2.325,2.325,0,1,0,2.324-2.324,2.324,2.324,0,0,0-2.324,2.324" transform="translate(-33.509 -33.68)"/><path class="d" d="M236.271,232.494l-.419-.607,43.661-30.12,25.539,14.527-.364.641-25.138-14.3Z" transform="translate(-33.863 -28.969)"/><rect class="d" width="52.296" height="0.739" transform="translate(204.319 204.554) rotate(-34.704)"/><path class="d" d="M285.227,203.282a2.092,2.092,0,1,0,2.092-2.092,2.092,2.092,0,0,0-2.092,2.092" transform="translate(-40.953 -28.887)"/><path class="d" d="M306.323,75.015,268.916,87.579h84.523L318.315,75.015Z" transform="translate(-38.611 -10.771)"/><path class="d" d="M322.685,88.687a20.21,20.21,0,0,0-.28,2.212,11.006,11.006,0,0,0,1.4,5.806c.581,1.142,1.339,2.345,1.929,3.77a8.27,8.27,0,0,1,.493,4.858,8.739,8.739,0,0,1-2.633,4.708,8.048,8.048,0,0,1-5.394,2.061,8.482,8.482,0,0,1-5.473-1.87,8.536,8.536,0,0,1-2.433-9.5,15.874,15.874,0,0,1,2.246-3.611,14.434,14.434,0,0,0,1.835-2.911,6.617,6.617,0,0,0,.588-2.5,4.82,4.82,0,0,0-.5-2.133,2.017,2.017,0,0,1,.306.5,4.071,4.071,0,0,1,.367,1.636,6.657,6.657,0,0,1-.532,2.6,14.269,14.269,0,0,1-1.811,3,15.871,15.871,0,0,0-2.156,3.558,7.891,7.891,0,0,0,7.555,10.788,7.629,7.629,0,0,0,5.105-1.939,8.357,8.357,0,0,0,2.524-4.466,7.91,7.91,0,0,0-.434-4.638c-.555-1.389-1.294-2.6-1.866-3.765a10.878,10.878,0,0,1-1.286-5.959,9.233,9.233,0,0,1,.271-1.648,2.322,2.322,0,0,1,.182-.553" transform="translate(-44.471 -12.734)"/><path class="d" d="M320.5,89.617a14.213,14.213,0,0,1-.228,1.572,41.352,41.352,0,0,0-.43,4.292,34.61,34.61,0,0,0,.28,6.355,1.435,1.435,0,0,0,.347.712.7.7,0,0,0,.651.235c.46-.1.707-.8.614-1.352a2.74,2.74,0,0,0-2.608-2.279,2.711,2.711,0,0,0-2.659,2.2,1.191,1.191,0,0,0,.7,1.341,1.054,1.054,0,0,0,1.219-.707,5.224,5.224,0,0,0,.285-1.662c.043-.567.063-1.118.071-1.652a28.419,28.419,0,0,0-.122-2.968,29.571,29.571,0,0,0-.719-4.246c-.242-.989-.408-1.531-.373-1.542a1.455,1.455,0,0,1,.169.378c.1.251.224.629.373,1.12a25.006,25.006,0,0,1,.865,4.258,26.943,26.943,0,0,1,.179,3c0,.54-.014,1.1-.05,1.677a5.508,5.508,0,0,1-.3,1.8,1.79,1.79,0,0,1-.651.79,1.242,1.242,0,0,1-1.078.155,1.621,1.621,0,0,1-1-1.8,3.1,3.1,0,0,1,6.134.066,2.041,2.041,0,0,1-.133,1.074,1.209,1.209,0,0,1-.823.758,1.126,1.126,0,0,1-1.043-.36,1.839,1.839,0,0,1-.447-.915,33.256,33.256,0,0,1,.381-10.765c.105-.5.2-.89.269-1.149a1.416,1.416,0,0,1,.129-.392" transform="translate(-45.372 -12.867)"/><path class="d" d="M319.571,0a3.54,3.54,0,0,1,.045.645c.01.466.025,1.081.042,1.85.017,1.655.041,3.967.071,6.8.016,5.787.039,13.7.065,22.446-.026,8.747-.049,16.662-.065,22.449-.03,2.836-.054,5.148-.071,6.8-.017.768-.032,1.383-.042,1.849a3.54,3.54,0,0,1-.045.645,3.378,3.378,0,0,1-.045-.645c-.01-.466-.024-1.081-.042-1.849-.017-1.655-.041-3.967-.071-6.8-.016-5.788-.039-13.7-.065-22.449.026-8.744.049-16.659.065-22.446.03-2.836.054-5.148.071-6.8.018-.769.032-1.384.042-1.85A3.378,3.378,0,0,1,319.571,0" transform="translate(-45.851)"/><path class="d" d="M312.594,73.274l2.32-10.384h7.707l1.966,10.384Z" transform="translate(-44.882 -9.03)"/><rect class="d" width="4.204" height="90.385" transform="translate(147.677 70.354)"/><path class="c" d="M101.231,83.026v89.69a.06.06,0,0,0,.061.06h60.22a.06.06,0,0,0,.061-.06V83.026a.061.061,0,0,0-.061-.061h-60.22a.061.061,0,0,0-.061.061" transform="translate(-14.535 -11.912)"/><path class="g" d="M162.094,173.359H100.475a.06.06,0,0,1-.061-.06V82.21a.061.061,0,0,1,.061-.061h61.619a.061.061,0,0,1,.061.061V173.3a.06.06,0,0,1-.061.06m-60.221-1.4H160.7a.06.06,0,0,0,.06-.061V83.607a.06.06,0,0,0-.06-.06H101.873a.06.06,0,0,0-.061.06V171.9a.061.061,0,0,0,.061.061" transform="translate(-14.417 -11.795)"/><path class="f" d="M108.325,89.495v78.551a.061.061,0,0,0,.061.061h48.175a.061.061,0,0,0,.061-.061V89.495a.061.061,0,0,0-.061-.06H108.386a.061.061,0,0,0-.061.06" transform="translate(-15.553 -12.841)"/><path class="g" d="M147.691,147.261H120.683a.055.055,0,0,1-.055-.055V115.533a.055.055,0,0,1,.055-.056h27.008a.054.054,0,0,1,.055.056v31.674a.055.055,0,0,1-.055.055" transform="translate(-17.32 -16.58)"/><path class="d" d="M145.676,143.848c.035.1-1.3.689-3.85.39a9.41,9.41,0,0,1-4.327-1.729,8.783,8.783,0,0,1-3.363-5.289,7.6,7.6,0,0,1,2.572-7.231,6.777,6.777,0,0,1,1.95-1.142,5.2,5.2,0,0,1,2.44-.281,4.3,4.3,0,0,1,2.439,1.065,3.185,3.185,0,0,1,.962,2.842,4.64,4.64,0,0,1-1.339,2.439,8.8,8.8,0,0,1-2.043,1.5,11.182,11.182,0,0,1-4.874,1.393,9.7,9.7,0,0,1-5.194-1.183,9.432,9.432,0,0,1-3.821-3.962,8.07,8.07,0,0,1-.686-5.549,8.238,8.238,0,0,1,2.925-4.571,7.2,7.2,0,0,1,2.452-1.238,6.1,6.1,0,0,1,2.76-.087,4.5,4.5,0,0,1,2.505,1.414,4.157,4.157,0,0,1,.982,2.677,5.1,5.1,0,0,1-.653,2.55,6.834,6.834,0,0,1-1.547,1.858,10.41,10.41,0,0,1-3.842,2.042,9.852,9.852,0,0,1-4.041.312,8.276,8.276,0,0,1-3.517-1.347,7.617,7.617,0,0,1-3.36-5.322,6.429,6.429,0,0,1,1.245-4.562,5.445,5.445,0,0,1,2.3-1.839c.634-.241.994-.232,1.011-.171.027.087-.287.226-.8.569a6,6,0,0,0-1.79,1.924,5.679,5.679,0,0,0-.733,3.9,6.379,6.379,0,0,0,2.987,4.183,7.355,7.355,0,0,0,6.161.587,8.66,8.66,0,0,0,3.083-1.744,3.788,3.788,0,0,0,1.441-2.89,2.076,2.076,0,0,0-1.856-2.05,4,4,0,0,0-1.773.083,5.091,5.091,0,0,0-1.673.876,6.106,6.106,0,0,0-2.109,3.362,5.868,5.868,0,0,0,.518,4.029,7.3,7.3,0,0,0,2.917,3.033,7.574,7.574,0,0,0,4.015.934,9.141,9.141,0,0,0,3.948-1.079,6.813,6.813,0,0,0,1.575-1.111,2.654,2.654,0,0,0,.8-1.3,1.134,1.134,0,0,0-.323-1.048,2.362,2.362,0,0,0-1.306-.575,3.3,3.3,0,0,0-1.536.13,4.93,4.93,0,0,0-1.433.785,5.965,5.965,0,0,0-2.183,5.529,7.618,7.618,0,0,0,2.584,4.578,9.111,9.111,0,0,0,3.714,1.853c2.293.534,3.671.27,3.689.463" transform="translate(-17.396 -17.056)"/></g><g class="b"><path class="h" d="M572.224,460.789c0,.124-128.107.224-286.1.224-158.046,0-286.127-.1-286.127-.224s128.08-.223,286.127-.223c157.991,0,286.1.1,286.1.223" transform="translate(0 -66.128)"/></g><g class="b"><path class="i" d="M456.713,176.436h0c1.809-2.621,2.8-4.585,4.083-6.237,1.576-2.036,2.083-2.986,1.683-3.256-.534-.361-.312-.247-3.7,3.046,0,0,4.8-4.742,2.951-4.532-.818.092-4.845,3.993-4.845,3.993,3.522-2.836,4.4-4.462,3.946-4.972-.664-.739-5.515,4.033-5.515,4.033a50.818,50.818,0,0,0,4.238-4.4c.465-.83-.667-.623-1.554-.188-1,.489-6.38,4.16-7.989,5.139a1.11,1.11,0,0,1-1.654-.337,7.012,7.012,0,0,0-3.842-4.166.836.836,0,0,0-.593,1.477,10.134,10.134,0,0,1,1.443,2.361,6.523,6.523,0,0,1,.617,2.119c.093.854.14,1.581.164,2.2L443.7,186.337l8.582,6.039Z" transform="translate(-63.697 -23.482)"/><path class="j" d="M458.982,172.662a24.411,24.411,0,0,0,4.528-4.621,24.479,24.479,0,0,0-4.528,4.621" transform="translate(-65.899 -24.127)"/><path class="j" d="M457.345,171.295a27.843,27.843,0,0,0,5.122-4.632,27.842,27.842,0,0,0-5.122,4.632" transform="translate(-65.665 -23.928)"/><path class="j" d="M455.654,169.921a12.588,12.588,0,0,0,2.592-2,12.755,12.755,0,0,0,2.312-2.32,24.925,24.925,0,0,0-4.9,4.318" transform="translate(-65.422 -23.776)"/><path class="i" d="M388.124,129.637a12.631,12.631,0,0,1,13.593,11.828c.354,5.867.675,12.213.635,15.41-.085,6.862-6.947,7.929-6.947,7.929s.982,11.92.88,13.846l-18.156.833-1.648-36.68a12.637,12.637,0,0,1,11.643-13.165" transform="translate(-54.053 -18.608)"/><path class="j" d="M397.093,170.165a15.957,15.957,0,0,1-8.945-2.542s2.114,4.937,8.962,4.32Z" transform="translate(-55.73 -24.067)"/><path class="i" d="M376.456,147.733c-.117-.051-4.715-1.394-4.565,3.3s4.829,3.572,4.832,3.438-.267-6.735-.267-6.735" transform="translate(-53.395 -21.18)"/><path class="j" d="M375.434,152.993c-.021-.015-.081.06-.216.128a.821.821,0,0,1-.611.033,2.025,2.025,0,0,1-.993-1.785,2.7,2.7,0,0,1,.192-1.178.942.942,0,0,1,.594-.647.415.415,0,0,1,.489.208c.067.129.04.224.065.231s.1-.081.055-.274a.522.522,0,0,0-.194-.288.613.613,0,0,0-.456-.105,1.149,1.149,0,0,0-.831.755,2.786,2.786,0,0,0-.242,1.316,2.122,2.122,0,0,0,1.257,1.988.875.875,0,0,0,.743-.148c.141-.12.164-.226.146-.234" transform="translate(-53.595 -21.438)"/><path class="h" d="M403.589,148.4a.98.98,0,0,1-.945.988.936.936,0,0,1-1.009-.883.98.98,0,0,1,.943-.99.939.939,0,0,1,1.011.885" transform="translate(-57.666 -21.18)"/><path class="h" d="M403.237,146.137c-.122.128-.864-.422-1.918-.419-1.053-.012-1.828.53-1.942.4-.057-.057.068-.288.4-.534a2.693,2.693,0,0,1,1.554-.479,2.575,2.575,0,0,1,1.527.493c.324.248.434.48.374.537" transform="translate(-57.34 -20.834)"/><path class="h" d="M391.487,148.4a.981.981,0,0,1-.945.988.936.936,0,0,1-1.01-.883.979.979,0,0,1,.944-.989.938.938,0,0,1,1.011.884" transform="translate(-55.928 -21.18)"/><path class="h" d="M391.134,146.366c-.122.128-.865-.421-1.918-.419s-1.828.53-1.942.4c-.056-.057.067-.287.405-.533a2.686,2.686,0,0,1,1.554-.48,2.59,2.59,0,0,1,1.528.493c.323.249.433.48.374.537" transform="translate(-55.602 -20.867)"/><path class="h" d="M396.168,154.2a6.988,6.988,0,0,1,1.713-.308c.269-.028.524-.082.57-.265a1.375,1.375,0,0,0-.18-.8q-.379-.978-.8-2.05a35.182,35.182,0,0,1-1.787-5.363,35.452,35.452,0,0,1,2.215,5.206q.4,1.08.763,2.062a1.557,1.557,0,0,1,.14,1.057.674.674,0,0,1-.442.394,1.844,1.844,0,0,1-.458.064,6.9,6.9,0,0,1-1.736,0" transform="translate(-56.811 -20.878)"/><path class="h" d="M392.6,156.522c.171-.01.174,1.135,1.154,1.947s2.2.687,2.207.847c.015.072-.272.222-.787.236a2.848,2.848,0,0,1-1.842-.642,2.478,2.478,0,0,1-.893-1.632c-.044-.479.083-.762.162-.755" transform="translate(-56.344 -22.473)"/><path class="h" d="M391.294,141.581c-.1.286-1.157.151-2.394.3-1.24.124-2.238.486-2.4.229-.073-.122.1-.392.5-.671a4.192,4.192,0,0,1,3.653-.4c.454.183.683.409.638.545" transform="translate(-55.491 -20.215)"/><path class="h" d="M402.831,142.563c-.185.24-.911-.009-1.786-.021-.873-.043-1.613.161-1.783-.09-.074-.122.042-.361.366-.588a2.585,2.585,0,0,1,2.875.089c.309.247.41.492.328.61" transform="translate(-57.323 -20.312)"/><path class="h" d="M376.668,144.986a7.251,7.251,0,0,0,.032,2.153,2.453,2.453,0,0,0,1.2,1.713c1.178.588,2.657-.313,3.185-1.52a7.887,7.887,0,0,0,.26-3.9,18.975,18.975,0,0,1,.081-5.369,7.7,7.7,0,0,1,2.577-4.6,4.885,4.885,0,0,1,5.053-.729,27.512,27.512,0,0,1,2.671,1.97,4.122,4.122,0,0,0,2.836.713,2.664,2.664,0,0,0,2.173-1.811,2.9,2.9,0,0,0-1.106-2.878,6.638,6.638,0,0,0-3-1.2,16.084,16.084,0,0,0-8.9.693,11.615,11.615,0,0,0-6.461,6.011c-1.364,3.21-.443,5.757-.642,9.322" transform="translate(-54.058 -18.551)"/><path class="d" d="M443.373,182.616,432.15,179.91,424.744,200,404.276,181.69c-2.179-1.594-5.933-1.793-8.789-2.146l-.216-.027c-1.108-.13-1.651-.29-2.317-.371-4.935,3.711-13.378,3.947-18.223.12,0,0-3.674.832-5.869,1.251-6.911,1.325-11.886,6.359-13.268,11.007l8.651,19.953,1.658,18.954L361.114,247.4a2.946,2.946,0,0,0,2.462,3.722l42.859.653.7-.347a7.957,7.957,0,0,0,1.152-5.43c-1.852-8.121-.56-32.338-.949-39.773,8.4,8.168,17.681,14.945,24.459,10.748,5.634-3.488,11.575-34.357,11.575-34.357" transform="translate(-51.056 -25.722)"/><path class="k" d="M378.315,178.733h0" transform="translate(-54.318 -25.662)"/><path class="d" d="M376.321,179.587l.994-6.858,9.341,3.429,2.636,4.646,1.638-5.1,5.125-1.764,2.192,4.559-3.76,5.321-7.054,1.426Z" transform="translate(-54.032 -24.8)"/><path class="h" d="M389.456,182.449c-.015.014-.137-.083-.349-.282a10.725,10.725,0,0,1-.856-.926,13.809,13.809,0,0,1-2.255-3.886l.343.005c-.639,1.61-1.374,3.464-2.156,5.438l-1.087,2.685-.114.282-.217-.211c-1.887-1.822-3.514-3.417-4.662-4.567l-1.333-1.361a2.576,2.576,0,0,1-.448-.527,2.589,2.589,0,0,1,.546.425l1.417,1.274c1.2,1.1,2.862,2.655,4.763,4.461l-.331.071c.341-.854.7-1.758,1.075-2.689.8-1.967,1.554-3.814,2.208-5.419l.181-.444.162.45a15.269,15.269,0,0,0,2.079,3.88c.638.862,1.069,1.308,1.036,1.34" transform="translate(-54.031 -25.382)"/><path class="h" d="M400.5,179a7.219,7.219,0,0,1-1.1,1.51,15.063,15.063,0,0,1-3.577,3.145l-.206.126-.086-.231c-.307-.832-.658-1.732-1.032-2.664-.562-1.4-1.089-2.728-1.5-3.908l.363-.029c-.308,1.548-.688,2.812-.919,3.707a8.628,8.628,0,0,1-.409,1.405,5.915,5.915,0,0,1,.189-1.455c.17-.916.5-2.193.766-3.727l.122-.683.242.654c.432,1.164.969,2.479,1.533,3.88.375.934.722,1.841,1.019,2.684l-.291-.1a17.028,17.028,0,0,0,3.594-2.967A16.229,16.229,0,0,1,400.5,179" transform="translate(-56.288 -25.297)"/><path class="h" d="M395.053,253.174a4.553,4.553,0,0,1,.048-.716q.08-.754.218-2.04c.116-.883.182-1.971.275-3.232.045-.632.092-1.307.144-2.02q.042-1.076.09-2.269c.145-3.181.14-6.975.061-11.183-.106-4.209-.339-8.833-.67-13.682-.7-9.7-1.656-18.452-2.377-24.784-.358-3.137-.65-5.689-.857-7.5q-.137-1.286-.219-2.042a4.409,4.409,0,0,1-.048-.715,4.538,4.538,0,0,1,.133.7q.109.75.3,2.031c.247,1.766.6,4.321.991,7.484.8,6.326,1.8,15.081,2.5,24.791.33,4.854.551,9.487.637,13.7.057,4.216.032,8.017-.152,11.2-.042.795-.083,1.554-.121,2.272q-.094,1.073-.176,2.023c-.115,1.262-.2,2.35-.348,3.232l-.3,2.033a4.427,4.427,0,0,1-.132.7" transform="translate(-56.241 -26.274)"/><path class="h" d="M436.024,211.189a39.46,39.46,0,0,1,0-8.145,39.466,39.466,0,0,1,0,8.145" transform="translate(-62.574 -29.153)"/><path class="h" d="M438.9,211.714c.032.379-.569-.707-1.826-4.2a18.211,18.211,0,0,1-1.13-4.439,39.48,39.48,0,0,1,1.529,4.3,39.072,39.072,0,0,1,1.428,4.336" transform="translate(-62.589 -29.157)"/><path class="k" d="M404.566,432.44,403.915,448s15.6,5.887,15.759,8.774l-30.217-.176.019-24.286Z" transform="translate(-55.918 -62.071)"/><path class="d" d="M395.29,449.03a1.235,1.235,0,0,0-.862,1.4,1.186,1.186,0,0,0,1.383.866,1.3,1.3,0,0,0,.905-1.491,1.231,1.231,0,0,0-1.539-.741" transform="translate(-56.628 -64.464)"/><g class="l" transform="translate(333.54 392.079)"><g class="m"><path class="e" d="M389.457,460.26l.1-2.448,28.934,1.084s1.342.594,1.184,1.54Z" transform="translate(-389.458 -457.811)"/></g></g><path class="h" d="M406.449,450.432c-.006.147-.743.21-1.473.68-.741.451-1.119,1.088-1.255,1.029-.135-.03.09-.91.982-1.464s1.778-.38,1.745-.245" transform="translate(-57.961 -64.653)"/><path class="h" d="M410.266,452c.033.144-.607.391-1.112,1.012-.522.606-.653,1.28-.8,1.273-.14.022-.236-.842.406-1.6s1.5-.823,1.506-.683" transform="translate(-58.616 -64.888)"/><path class="h" d="M412.651,456.022c-.134.031-.336-.707.049-1.513s1.075-1.123,1.136-1c.082.122-.367.553-.672,1.22-.32.659-.367,1.28-.513,1.294" transform="translate(-59.223 -65.111)"/><path class="h" d="M406.1,446.2c-.063.134-.738-.074-1.573-.021-.835.035-1.485.311-1.561.183-.086-.107.552-.648,1.536-.7s1.672.419,1.6.534" transform="translate(-57.856 -63.988)"/><path class="h" d="M405.942,442.215a2.833,2.833,0,0,1-1.513-.017,6.729,6.729,0,0,1-1.58-.5,7.029,7.029,0,0,1-.866-.466,1.808,1.808,0,0,1-.455-.359.643.643,0,0,1-.064-.785.815.815,0,0,1,.649-.333,1.962,1.962,0,0,1,.567.082,5.332,5.332,0,0,1,2.329,1.252c.7.653.934,1.206.883,1.234-.067.048-.405-.415-1.115-.956a6.024,6.024,0,0,0-1.346-.768,5.637,5.637,0,0,0-.867-.273c-.319-.086-.592-.09-.674.052-.032.054-.034.075.032.17a1.5,1.5,0,0,0,.334.261,7.683,7.683,0,0,0,.8.462,8.221,8.221,0,0,0,1.459.57,10.234,10.234,0,0,1,1.43.371" transform="translate(-57.627 -63.14)"/><path class="h" d="M406.42,442.068a2.414,2.414,0,0,1-.391-1.464,4.9,4.9,0,0,1,.607-2.572,1.251,1.251,0,0,1,.969-.759.709.709,0,0,1,.629.426,2.06,2.06,0,0,1,.152.556,3.353,3.353,0,0,1-.005,1.019,3.486,3.486,0,0,1-.656,1.56c-.594.779-1.212.951-1.223.9-.049-.074.468-.356.923-1.106a3.485,3.485,0,0,0,.486-1.419,3.1,3.1,0,0,0-.022-.874c-.045-.321-.164-.582-.284-.549-.151,0-.408.236-.533.492a5.1,5.1,0,0,0-.38.818,5.467,5.467,0,0,0-.3,1.508c-.046.886.108,1.44.027,1.462" transform="translate(-58.296 -62.783)"/><path class="k" d="M343.973,427.121,339.065,446.6l-8.324,14.284a2.058,2.058,0,0,0,2.749,2.85c3.737-2.016,17.449-9.5,17.728-10.948.323-1.673,6.54-20.2,6.54-20.2Z" transform="translate(-47.447 -61.326)"/><g class="l" transform="translate(284.16 390.151)"><g class="n"><path class="e" d="M331.8,467.844l19.973-12.285-.226.82a3.1,3.1,0,0,1-1.244,1.74c-1.628,1.1-6.191,4.057-16.561,9.71a2.054,2.054,0,0,1-1.942.014" transform="translate(-331.799 -455.559)"/></g></g><g class="l" transform="translate(301.08 382.736)"><g class="o"><path class="e" d="M352.363,446.974a1.244,1.244,0,0,0-.762,1.476,1.2,1.2,0,0,0,1.458.767,1.314,1.314,0,0,0,.8-1.567,1.242,1.242,0,0,0-1.6-.631" transform="translate(-351.556 -446.902)"/></g></g><path class="h" d="M339.128,460.934a6.335,6.335,0,0,0-1.281-1.976,6.269,6.269,0,0,0-2.112-1.041c0-.052.283-.135.754-.074a3.28,3.28,0,0,1,2.623,2.333c.116.461.068.755.016.758" transform="translate(-48.204 -65.733)"/><path class="h" d="M336.694,463.672c-.116.058-.562-.742-1.484-1.306a16.609,16.609,0,0,0-1.823-.766,2.281,2.281,0,0,1,2.057.392c1.047.649,1.366,1.656,1.25,1.68" transform="translate(-47.867 -66.261)"/><path class="h" d="M342.954,457.789a10.592,10.592,0,0,0-4.841-3.634,5.628,5.628,0,0,1,4.841,3.634" transform="translate(-48.546 -65.202)"/><path class="h" d="M345.249,451.339c-.084.1-1.029-.641-2.407-1.076-1.372-.454-2.573-.405-2.581-.537a5.106,5.106,0,0,1,4.989,1.613" transform="translate(-48.854 -64.547)"/><path class="h" d="M347.061,444.712a6.541,6.541,0,0,0-5.222-1.251c-.021-.05.258-.233.776-.368a4.483,4.483,0,0,1,3.921.939c.4.355.565.646.525.68" transform="translate(-49.081 -63.601)"/><path class="h" d="M345.023,441.73a1.756,1.756,0,0,1,.176-.739,5.266,5.266,0,0,1,1.112-1.757,2.336,2.336,0,0,1,1.264-.809.828.828,0,0,1,.85.426,1.345,1.345,0,0,1,.064.958,2.909,2.909,0,0,1-3.174,1.915,3.373,3.373,0,0,1-2.724-2.584,1.173,1.173,0,0,1,.206-.954.809.809,0,0,1,.933-.187,2.875,2.875,0,0,1,1.092,1.015,5.875,5.875,0,0,1,.905,1.87,1.783,1.783,0,0,1,.112.751,9.363,9.363,0,0,0-1.266-2.432,2.687,2.687,0,0,0-.974-.862.431.431,0,0,0-.509.1.8.8,0,0,0-.1.635,3.012,3.012,0,0,0,2.388,2.213A2.527,2.527,0,0,0,348.1,439.7a.979.979,0,0,0-.017-.671.448.448,0,0,0-.466-.242,2.114,2.114,0,0,0-1.083.666,7.82,7.82,0,0,0-1.51,2.276" transform="translate(-49.186 -62.877)"/><path class="k" d="M386.605,180.378l2.12,1.107-.395,3.572-3.307-.694Z" transform="translate(-55.281 -25.898)"/><g class="p" transform="translate(329.742 154.48)"><g class="q"><path d="M386.605,180.378l2.12,1.107-.395,3.572-3.307-.694Z" transform="translate(-385.023 -180.378)"/></g></g><path class="k" d="M392.548,181.175l1.6-1.412,1.468,3.736-2.1,1.011Z" transform="translate(-56.362 -25.81)"/><path class="k" d="M389.64,186.817l-.99,42.229,7.137,7.056,3.456-9.374-6.854-40.134Z" transform="translate(-55.802 -26.791)"/><path class="k" d="M389.566,180.09c.486-.056,1.159-.188,1.689-.3a1.173,1.173,0,0,1,1.274.589l.9,1.661a1.173,1.173,0,0,1,.12.783l-.361,1.865a1.176,1.176,0,0,1-.92.928l-2.037.411a1.174,1.174,0,0,1-1.279-.619l-1.018-2.011a1.174,1.174,0,0,1-.027-1l.709-1.608a1.183,1.183,0,0,1,.951-.694" transform="translate(-55.681 -25.81)"/><path class="h" d="M392.652,180.669a4.5,4.5,0,0,1-.544.677c-.351.4-.844.949-1.4,1.547s-1.059,1.132-1.432,1.513a4.437,4.437,0,0,1-.631.6,4.468,4.468,0,0,1,.541-.674c.351-.4.844-.951,1.4-1.55s1.061-1.134,1.435-1.516a4.337,4.337,0,0,1,.629-.593" transform="translate(-55.802 -25.94)"/><path class="h" d="M390.576,182.644a9.806,9.806,0,0,1-1.85-1.776,9.878,9.878,0,0,1,1.85,1.776" transform="translate(-55.813 -25.968)"/><path class="h" d="M393.627,185.3a22.54,22.54,0,0,1,.507-2.436,2.427,2.427,0,0,0-.511-1.588,1.42,1.42,0,0,1-.247-.695c.025-.005.1.26.349.634a7.5,7.5,0,0,1,.415.684,1.6,1.6,0,0,1,.16.989c-.138.692-.319,1.277-.438,1.716a3.188,3.188,0,0,1-.236.695" transform="translate(-56.48 -25.928)"/><path class="r" d="M403.648,263.734l-3,155.034a1.9,1.9,0,0,1-1.918,1.864l-18.06-.158a1.9,1.9,0,0,1-1.884-1.941l2.8-133.438L358.1,417.544a3.409,3.409,0,0,1-3.474,2.812l-15.147-.522a3.41,3.41,0,0,1-3.251-3.932l23.788-152.8Z" transform="translate(-48.269 -37.776)"/><path class="r" d="M348.6,413.586s.008-.125.042-.366l.163-1.066c.156-.956.379-2.332.666-4.093.6-3.572,1.452-8.707,2.508-15.044,2.12-12.72,5.041-30.259,8.269-49.632,3.2-19.391,6.039-36.955,8.045-49.676.989-6.347,1.792-11.49,2.349-15.067.278-1.763.495-3.139.646-4.1l.179-1.064c.043-.239.075-.36.075-.36s0,.125-.033.367c-.033.259-.079.614-.137,1.07-.133.959-.324,2.339-.568,4.107-.492,3.567-1.263,8.721-2.217,15.089-1.93,12.733-4.72,30.306-7.924,49.7s-6.188,36.925-8.39,49.613c-1.113,6.327-2.013,11.454-2.64,15.021-.32,1.757-.57,3.127-.743,4.08-.087.45-.155.8-.2,1.059-.049.238-.085.358-.085.358" transform="translate(-50.052 -39.215)"/><path class="r" d="M402.642,414.173c-.116,0,.087-31.55.455-70.457s.76-70.46.877-70.46-.087,31.544-.456,70.464-.76,70.453-.876,70.453" transform="translate(-57.806 -39.234)"/><path class="r" d="M408.414,438.4c0,.116-4.924.211-11,.211s-11-.094-11-.211,4.922-.211,11-.211,11,.094,11,.211" transform="translate(-55.482 -62.914)"/><path class="r" d="M359.267,437.427a3.621,3.621,0,0,1-.882.085l-2.406.082-7.935.194c-3.1.063-5.908.089-7.941.069-1.017-.009-1.839-.027-2.407-.051a3.61,3.61,0,0,1-.883-.08,3.5,3.5,0,0,1,.883-.084l2.4-.083,7.936-.193c3.1-.064,5.907-.09,7.94-.07,1.017.009,1.84.027,2.407.051a3.665,3.665,0,0,1,.883.08" transform="translate(-48.359 -62.785)"/><path class="r" d="M392.211,265.979a15.923,15.923,0,0,1-.057,2.682c-.092,1.653-.25,3.934-.453,6.45-.111,1.259-.181,2.454-.335,3.556a6.84,6.84,0,0,1-.958,2.8,3.866,3.866,0,0,1-1.464,1.361,1.334,1.334,0,0,1-.7.209,4.47,4.47,0,0,0,1.9-1.737,6.94,6.94,0,0,0,.819-2.689c.128-1.07.188-2.279.3-3.534.2-2.517.41-4.794.583-6.439a16.073,16.073,0,0,1,.372-2.657" transform="translate(-55.743 -38.189)"/><g class="s" transform="translate(312.965 196.881)"><g class="t"><path d="M365.632,246.019a8.089,8.089,0,0,0,7.044,2.023c1.775-.358,3.459-1.324,5.266-1.206,1.978.128,3.612,1.514,5.418,2.332,3.37,1.526,7.3,1.039,10.877.086a8.087,8.087,0,0,0,4.422-2.363,7.914,7.914,0,0,0,1.361-3.673,37.832,37.832,0,0,0,.534-7.28,6.979,6.979,0,0,0-1.175-4.34,5.016,5.016,0,0,0-3.261-1.645,12.857,12.857,0,0,0-3.721.207,61.509,61.509,0,0,0-26.962,11.563" transform="translate(-365.434 -229.888)"/></g></g><path class="d" d="M379.357,232.6s-22.677,10.143-24.985,10.65c-7.655,1.679-16.408-5.553-13.977-13.8.9-3.065,13.107-36.98,13.107-36.98l11.611,16.048L360.2,224.943l12.864-.854Z" transform="translate(-48.814 -27.635)"/><path class="h" d="M375.361,226.914a4.445,4.445,0,0,1-.9.125l-2.481.211c-2.111.164-5.063.368-8.426.582l-.283.018.081-.272c.245-.82.5-1.671.757-2.541,1.147-3.834,2.206-7.3,2.993-9.8.385-1.194.7-2.187.951-2.956a6.25,6.25,0,0,1,.4-1.069,6.126,6.126,0,0,1-.251,1.113c-.215.779-.494,1.785-.828,2.993-.717,2.523-1.734,6-2.881,9.834-.261.869-.516,1.72-.763,2.539l-.2-.254c3.364-.2,6.32-.351,8.435-.445l2.489-.092a4.346,4.346,0,0,1,.905.015" transform="translate(-52.158 -30.325)"/><path class="h" d="M379.247,240.871c.042.1-4.936,2.252-11.118,4.8S356.9,250.2,356.856,250.1s4.936-2.252,11.12-4.8,11.229-4.53,11.271-4.428" transform="translate(-51.237 -34.583)"/><path class="u" d="M379.5,226.984l-1.79-8.707a1.119,1.119,0,0,1,1.1-1.345l22.539.105a1.12,1.12,0,0,1,1.106,1.249l-2.328,19.95a1.555,1.555,0,0,1-1.556,1.375l-14.7-.114a1.555,1.555,0,0,1-1.5-1.172Z" transform="translate(-54.227 -31.147)"/><path class="i" d="M377.482,223.315h0a2.367,2.367,0,0,1,2.213,1.512,5.116,5.116,0,0,0,1.51,2.413c1.106.6,3.018,1.085,4.024.593s5.031-4.114,5.735-3.713,1.309,1.309.6,2.114-4.428,3.219-3.722,4.024,8.551-2.738,9.758-2.425,1.912,1.054,1.208,1.539-6.037,2.5-6.338,3.2c0,0,8.049-2.113,8.351-1.61s.8,1.309,0,1.61-7.747,2.113-8.351,2.414a14.59,14.59,0,0,1-3.1.906,32.928,32.928,0,0,0-3.242,1.028,7.106,7.106,0,0,1-5.007-.134l-.814-.332a3.2,3.2,0,0,1-1.984-3.15l.165-2.745-.879-2.264Z" transform="translate(-54.198 -32.063)"/><path class="f" d="M393,220.712a.819.819,0,1,1-.82-.819.819.819,0,0,1,.82.819" transform="translate(-56.191 -31.572)"/></g><g class="b"><path class="u" d="M495.157,302.725H427.615v-2.514h65.028a2.514,2.514,0,0,1,2.514,2.514" transform="translate(-61.396 -43.104)"/><path class="u" d="M476.5,295.959H430.476a2.861,2.861,0,0,1-2.861-2.861V259.682a2.861,2.861,0,0,1,2.861-2.861H476.5a2.861,2.861,0,0,1,2.862,2.861V293.1a2.862,2.862,0,0,1-2.862,2.861" transform="translate(-61.396 -36.874)"/><rect class="f" width="47.427" height="34.855" transform="translate(368.378 221.808)"/><path class="h" d="M477.551,293.839s-.005-.22-.007-.641,0-1.048-.007-1.863c0-1.631-.008-4.021-.015-7.067-.008-6.087-.018-14.8-.03-25.283l.058.05-47.423.009h0l.069-.059c0,12.657-.005,24.58-.008,34.855l-.061-.051,34.306.027,9.678.013,2.56.006.658,0,.226,0s-.073,0-.218,0l-.653,0-2.548.007-9.663.013-34.345.027h-.061v-.052c0-10.274-.005-22.2-.009-34.855v-.058h.074l47.423.009h.057v.049c-.012,10.5-.022,19.219-.03,25.314-.006,3.042-.01,5.428-.015,7.057,0,.81-.005,1.431-.007,1.852s-.006.631-.006.631" transform="translate(-61.747 -37.176)"/><path class="d" d="M471.726,269.938s-.055,0-.163.005l-.479.005-1.851.01-6.882.017-23.382.02.057-.057c0,2.558,0,5.21,0,7.925,0,2.8,0,5.529,0,8.167l-.057-.057,23.219.021,6.828.016,1.835.01.475.005c.106,0,.161.005.161.005s-.055,0-.161,0l-.475.006-1.835.009-6.828.017-23.219.021h-.057v-.057c0-2.638,0-5.369,0-8.167,0-2.715,0-5.367,0-7.925v-.057h.057l23.382.02,6.882.017,1.851.009.479.005c.108,0,.163.005.163.005" transform="translate(-63.018 -38.749)"/><path class="d" d="M471.735,273.1c0,.033-7.334.058-16.377.058s-16.379-.026-16.379-.058,7.332-.058,16.379-.058,16.377.026,16.377.058" transform="translate(-63.028 -39.203)"/><path class="d" d="M471.456,275.622c0,.033-7.334.058-16.377.058s-16.379-.026-16.379-.058,7.332-.058,16.379-.058,16.377.027,16.377.058" transform="translate(-62.988 -39.565)"/><path class="d" d="M471.735,278.278c0,.033-7.334.058-16.377.058s-16.379-.026-16.379-.058,7.332-.057,16.379-.057,16.377.026,16.377.057" transform="translate(-63.028 -39.947)"/><path class="d" d="M471.735,280.867c0,.032-7.334.058-16.377.058s-16.379-.027-16.379-.058,7.332-.058,16.379-.058,16.377.026,16.377.058" transform="translate(-63.028 -40.318)"/><path class="d" d="M471.735,283.454c0,.032-7.334.059-16.377.059s-16.379-.027-16.379-.059,7.332-.058,16.379-.058,16.377.026,16.377.058" transform="translate(-63.028 -40.69)"/><path class="d" d="M438.979,286.042c0-.033,7.334-.058,16.377-.058s16.379.026,16.379.058-7.332.058-16.379.058-16.377-.026-16.377-.058" transform="translate(-63.028 -41.061)"/><path class="d" d="M446.542,286.285c-.032,0-.057-3.658-.057-8.168s.026-8.169.057-8.169.058,3.656.058,8.169-.026,8.168-.058,8.168" transform="translate(-64.106 -38.759)"/><path class="d" d="M454.211,286.285c-.033,0-.058-3.658-.058-8.168s.026-8.169.058-8.169.058,3.656.058,8.169-.026,8.168-.058,8.168" transform="translate(-65.207 -38.759)"/><path class="d" d="M461.879,286.285c-.032,0-.057-3.658-.057-8.168s.026-8.169.057-8.169.058,3.656.058,8.169-.026,8.168-.058,8.168" transform="translate(-66.308 -38.759)"/><path class="d" d="M469.548,286.285c-.033,0-.058-3.658-.058-8.168s.026-8.169.058-8.169.058,3.656.058,8.169-.026,8.168-.058,8.168" transform="translate(-67.409 -38.759)"/><path class="d" d="M477.217,286.285c-.033,0-.058-3.658-.058-8.168s.026-8.169.058-8.169.057,3.656.057,8.169-.026,8.168-.057,8.168" transform="translate(-68.51 -38.759)"/><path class="k" d="M471.735,273.112a1.839,1.839,0,0,1-.247.193l-.734.52-2.749,1.9c-2.341,1.6-5.617,3.832-9.34,6.351l-.047.032-.055-.018-2.79-.94c-1.3-.44-2.564-.868-3.777-1.278l.1-.014-6.58,4.412-.01.007-.011,0-4.75,1.642-1.3.438-.342.107a.427.427,0,0,1-.12.028.436.436,0,0,1,.11-.054l.334-.132,1.288-.482,4.723-1.716-.02.01,6.554-4.453.046-.032.054.018,3.779,1.273,2.789.943-.1.014c3.727-2.511,7.019-4.716,9.384-6.287l2.789-1.84.757-.487a1.735,1.735,0,0,1,.271-.157" transform="translate(-63.028 -39.213)"/><path class="k" d="M446.885,285.985a.4.4,0,1,1-.4-.4.4.4,0,0,1,.4.4" transform="translate(-64.048 -41.004)"/><path class="k" d="M454.554,280.81a.4.4,0,1,1-.4-.4.4.4,0,0,1,.4.4" transform="translate(-65.149 -40.261)"/><path class="k" d="M462.222,283.353a.4.4,0,1,1-.4-.4.4.4,0,0,1,.4.4" transform="translate(-66.25 -40.626)"/><path class="k" d="M469.969,278.243a.4.4,0,1,1-.4-.4.4.4,0,0,1,.4.4" transform="translate(-67.363 -39.892)"/><path class="u" d="M471.707,284.536a.523.523,0,0,1-.125-.067l-.349-.218-1.327-.858-4.817-3.173h.1c-1.87,1.258-4.106,2.763-6.556,4.41l-.088.06-.064-.086-3.454-4.655c-1.076-1.456-2.121-2.868-3.114-4.21l.171.011-6.587,6.63-.015.015-.02.006-4.882,1.585-1.332.42-.349.1a.448.448,0,0,1-.121.027.482.482,0,0,1,.114-.051l.34-.126,1.318-.463,4.858-1.658-.034.022,6.547-6.669.093-.1.08.107,3.119,4.206c1.2,1.625,2.366,3.2,3.448,4.661l-.153-.027,6.579-4.373.051-.033.05.033,4.772,3.239,1.3.9.336.241a.581.581,0,0,1,.11.089" transform="translate(-63 -39.555)"/><path class="u" d="M454.554,275.633a.4.4,0,1,1-.4-.4.4.4,0,0,1,.4.4" transform="translate(-65.149 -39.518)"/><path class="u" d="M446.885,283.4a.4.4,0,1,1-.4-.4.4.4,0,0,1,.4.4" transform="translate(-64.048 -40.632)"/><path class="u" d="M462.222,285.985a.4.4,0,1,1-.4-.4.4.4,0,0,1,.4.4" transform="translate(-66.25 -41.004)"/><path class="u" d="M469.891,281.276a.4.4,0,1,1-.4-.4.4.4,0,0,1,.4.4" transform="translate(-67.352 -40.328)"/><path class="d" d="M443.139,290.87a3.419,3.419,0,0,1-1.266,0,3.518,3.518,0,0,1,1.266,0" transform="translate(-63.444 -41.755)"/><path class="d" d="M450.977,290.87a3.415,3.415,0,0,1-1.265,0,3.513,3.513,0,0,1,1.265,0" transform="translate(-64.569 -41.755)"/><path class="d" d="M458.815,290.87a3.415,3.415,0,0,1-1.265,0,3.513,3.513,0,0,1,1.265,0" transform="translate(-65.695 -41.755)"/><path class="d" d="M466.653,290.87a3.419,3.419,0,0,1-1.266,0,3.518,3.518,0,0,1,1.266,0" transform="translate(-66.82 -41.755)"/><path class="d" d="M474.49,290.87a3.415,3.415,0,0,1-1.265,0,3.513,3.513,0,0,1,1.265,0" transform="translate(-67.945 -41.755)"/><path class="d" d="M437.727,288.623a2.266,2.266,0,0,1-1.021,0,2.266,2.266,0,0,1,1.021,0" transform="translate(-62.702 -41.432)"/><path class="d" d="M437.727,285.614a2.266,2.266,0,0,1-1.021,0,2.266,2.266,0,0,1,1.021,0" transform="translate(-62.702 -41)"/><path class="d" d="M437.727,282.6a2.266,2.266,0,1,1-.51-.058,1.178,1.178,0,0,1,.51.058" transform="translate(-62.702 -40.567)"/><path class="d" d="M437.727,279.593a2.266,2.266,0,0,1-1.021,0,2.266,2.266,0,0,1,1.021,0" transform="translate(-62.702 -40.135)"/><path class="d" d="M437.727,276.582a2.265,2.265,0,1,1-.51-.058,1.177,1.177,0,0,1,.51.058" transform="translate(-62.702 -39.703)"/><path class="d" d="M437.727,273.572a2.266,2.266,0,1,1-.51-.058,1.163,1.163,0,0,1,.51.058" transform="translate(-62.702 -39.271)"/><path class="d" d="M437.727,270.562a2.266,2.266,0,1,1-.51-.058,1.163,1.163,0,0,1,.51.058" transform="translate(-62.702 -38.839)"/><rect class="k" width="9.41" height="0.668" transform="translate(375.78 225.615)"/><path class="h" d="M464.986,265.705c0,.033-5.884.058-13.14.058s-13.141-.026-13.141-.058,5.882-.058,13.141-.058,13.14.026,13.14.058" transform="translate(-62.989 -38.141)"/><path class="h" d="M455.49,294.627c0,.032-3.588.058-8.012.058s-8.014-.027-8.014-.058,3.588-.058,8.014-.058,8.012.026,8.012.058" transform="translate(-63.098 -42.294)"/><path class="h" d="M443.383,296.04a25.108,25.108,0,0,1-3.419,0,25.494,25.494,0,0,1,3.419,0" transform="translate(-63.17 -42.497)"/><path class="h" d="M473.232,294.377c0,.033-2.551.058-5.7.058s-5.7-.026-5.7-.058,2.55-.058,5.7-.058,5.7.027,5.7.058" transform="translate(-66.31 -42.258)"/><path class="h" d="M467.309,295.292a27.252,27.252,0,0,1-3.561,0,27.252,27.252,0,0,1,3.561,0" transform="translate(-66.584 -42.389)"/><path class="r" d="M141.028,439.843l14.153-125.159,12,4.236L147.575,439.843Z" transform="translate(-20.249 -45.182)"/><rect class="u" width="362.049" height="15.832" transform="translate(114.744 259.478)"/><path class="h" d="M210.772,303.254a.734.734,0,0,1-.115.171c-.084.107-.2.273-.378.474a7.625,7.625,0,0,1-1.821,1.458,10.2,10.2,0,0,1-3.5,1.173,24.785,24.785,0,0,1-4.878.214,47.4,47.4,0,0,1-5.872-.675,52.491,52.491,0,0,0-6.689-.8c-4.745-.17-9.9,1.071-15.052,2.92-5.167,1.846-9.993,3.946-14.61,5.224a40.269,40.269,0,0,1-6.662,1.321,28.182,28.182,0,0,1-5.92-.01,20.118,20.118,0,0,1-8.119-2.6,12.769,12.769,0,0,1-2.51-1.877.7.7,0,0,1,.175.111l.484.361a16.869,16.869,0,0,0,1.938,1.256,20.557,20.557,0,0,0,8.066,2.434,28.332,28.332,0,0,0,5.848-.043,40.61,40.61,0,0,0,6.589-1.349c4.577-1.291,9.382-3.395,14.574-5.25,5.174-1.855,10.393-3.1,15.214-2.908a51.746,51.746,0,0,1,6.733.843,48.6,48.6,0,0,0,5.826.725,25.071,25.071,0,0,0,4.827-.146,10.265,10.265,0,0,0,3.452-1.079,9.175,9.175,0,0,0,2.4-1.951" transform="translate(-19.333 -43.54)"/><path class="h" d="M171.739,303.526a9.109,9.109,0,0,1-1.1.934,25.088,25.088,0,0,1-3.3,2.126,28.866,28.866,0,0,1-5.4,2.2,29.3,29.3,0,0,1-7.057,1.1,27.04,27.04,0,0,1-12.621-2.6,8,8,0,0,1-3.045-2.49,4.29,4.29,0,0,1-.5-.954,1.179,1.179,0,0,1-.092-.364,9.793,9.793,0,0,0,.731,1.217A8.274,8.274,0,0,0,142.4,307a27.976,27.976,0,0,0,12.464,2.44,30.155,30.155,0,0,0,6.96-1.053,30.6,30.6,0,0,0,5.368-2.082,31.032,31.032,0,0,0,3.348-1.989,8.821,8.821,0,0,1,1.2-.793" transform="translate(-19.903 -43.573)"/><path class="h" d="M271.64,314.1a4.573,4.573,0,0,1,.562.2,10.66,10.66,0,0,0,1.671.444,9.851,9.851,0,0,0,6.336-.991l-.018.2a15.091,15.091,0,0,0-7.857-3.06,15.279,15.279,0,0,0-10.219,2.654,1.64,1.64,0,0,0-.791,1.029A1.109,1.109,0,0,0,262,315.6a4.657,4.657,0,0,0,1.4.492l1.542.349c2.072.461,4.212.92,6.427,1.244a38.2,38.2,0,0,0,6.836.464,25,25,0,0,0,3.51-.336c.584-.1,1.168-.213,1.746-.367a8.742,8.742,0,0,0,1.691-.546,5.581,5.581,0,0,0,2.193-1.584,2.5,2.5,0,0,0,.421-2.433,4.15,4.15,0,0,0-1.721-1.923,13.6,13.6,0,0,0-2.4-1.173,32.875,32.875,0,0,0-10.056-2.087,41.664,41.664,0,0,0-17.164,2.661A42.452,42.452,0,0,0,246.09,316c-1.1.854-1.954,1.528-2.5,2.025l-.638.543a1.4,1.4,0,0,1-.228.174,1.315,1.315,0,0,1,.2-.207l.609-.576c.524-.521,1.359-1.218,2.452-2.1a41.867,41.867,0,0,1,27.627-8.576,33.078,33.078,0,0,1,10.193,2.09,14.018,14.018,0,0,1,2.483,1.211,4.573,4.573,0,0,1,1.9,2.138,2.948,2.948,0,0,1-.484,2.857,5.989,5.989,0,0,1-2.367,1.721,9.131,9.131,0,0,1-1.762.571c-.589.157-1.185.271-1.781.373a25.39,25.39,0,0,1-3.569.339,38.362,38.362,0,0,1-6.913-.48c-2.233-.331-4.381-.8-6.455-1.267l-1.542-.355a5.082,5.082,0,0,1-1.517-.543,2.031,2.031,0,0,1-.636-.556,1.238,1.238,0,0,1-.231-.854,1.994,1.994,0,0,1,.957-1.3,15.58,15.58,0,0,1,10.479-2.663,15.254,15.254,0,0,1,7.977,3.2l.146.116-.165.086a9.85,9.85,0,0,1-6.475.9,7.287,7.287,0,0,1-2.209-.772" transform="translate(-34.851 -44.112)"/><path class="h" d="M328.778,303.732a2.344,2.344,0,0,1,.356.8,6.023,6.023,0,0,1,.239,2.375,11.69,11.69,0,0,1-3.526,6.91,17.79,17.79,0,0,1-3.294,2.8,14.644,14.644,0,0,1-3.178,1.541,14.984,14.984,0,0,1-2.3.578,3.205,3.205,0,0,1-.868.074c-.016-.082,1.215-.253,3.063-.948a15.867,15.867,0,0,0,3.06-1.588,18.65,18.65,0,0,0,3.194-2.761,11.982,11.982,0,0,0,3.538-6.637,8.635,8.635,0,0,0-.282-3.141" transform="translate(-45.4 -43.609)"/><path class="h" d="M397.95,318.743a20.786,20.786,0,0,0-1.662-1.618,11.8,11.8,0,0,0-5.663-2.552,12.62,12.62,0,0,0-4.311.123,18.512,18.512,0,0,1-5.052.465,10.089,10.089,0,0,1-5.03-2.466,17.186,17.186,0,0,0-5.055-3,18.535,18.535,0,0,0-11.225-.174,26.669,26.669,0,0,0-8.306,4.208,45.192,45.192,0,0,0-4.815,4.111l-1.23,1.212a3.072,3.072,0,0,1-.444.41,3.154,3.154,0,0,1,.379-.471c.259-.3.652-.731,1.172-1.273a40.244,40.244,0,0,1,4.751-4.241,26.384,26.384,0,0,1,8.38-4.35,18.775,18.775,0,0,1,11.49.15,17.42,17.42,0,0,1,5.17,3.07,9.749,9.749,0,0,0,4.812,2.406,18.569,18.569,0,0,0,4.946-.421,12.741,12.741,0,0,1,4.421-.07,11.627,11.627,0,0,1,5.723,2.731,7.719,7.719,0,0,1,1.55,1.75" transform="translate(-49.557 -44.265)"/><path class="h" d="M464.994,303.156a3.805,3.805,0,0,1-.4.54,19.125,19.125,0,0,1-1.237,1.472,33.813,33.813,0,0,1-5.285,4.7,42.531,42.531,0,0,1-9.17,5.084,37.781,37.781,0,0,1-5.914,1.887,30.578,30.578,0,0,1-6.615.85,32.7,32.7,0,0,1-12.553-2.611A41.728,41.728,0,0,1,414.7,309.9a35.667,35.667,0,0,1-5.249-4.737c-.581-.6-.957-1.134-1.239-1.469a3.755,3.755,0,0,1-.4-.54,3.781,3.781,0,0,1,.467.481c.3.317.7.829,1.3,1.409a38.785,38.785,0,0,0,5.308,4.6,42.73,42.73,0,0,0,9.089,5.047,32.751,32.751,0,0,0,12.392,2.545,30.437,30.437,0,0,0,6.523-.83,37.923,37.923,0,0,0,5.858-1.843,43.388,43.388,0,0,0,9.14-4.958,36.449,36.449,0,0,0,5.342-4.559c.6-.576.991-1.093,1.294-1.411a3.789,3.789,0,0,1,.466-.483" transform="translate(-58.554 -43.527)"/><path class="h" d="M458.834,302.979c.009.013-.1.1-.307.249s-.52.376-.938.635a38.032,38.032,0,0,1-3.626,2.053,38.452,38.452,0,0,1-5.73,2.332,25.219,25.219,0,0,1-7.475,1.279,30.7,30.7,0,0,1-13.273-3.355,29.321,29.321,0,0,1-3.6-2.111c-.41-.272-.707-.515-.914-.67s-.307-.249-.3-.261a12.33,12.33,0,0,1,1.307.785,36.441,36.441,0,0,0,3.639,1.972,31.837,31.837,0,0,0,13.134,3.193,25.643,25.643,0,0,0,7.354-1.225,41.348,41.348,0,0,0,5.713-2.223c1.581-.749,2.827-1.427,3.674-1.918a12.087,12.087,0,0,1,1.336-.736" transform="translate(-60.687 -43.501)"/><path class="h" d="M501.732,304.8a1.42,1.42,0,0,1-.419,0l-1.185-.076-.855-.064-1.02-.008c-.731-.009-1.563-.033-2.481.041-.461.025-.941.05-1.441.078l-1.554.182c-1.077.093-2.207.347-3.406.546a51.612,51.612,0,0,0-7.568,2.258,52.709,52.709,0,0,0-7.089,3.487c-1.019.661-2.021,1.242-2.883,1.9l-1.27.914q-.584.471-1.123.908c-.731.561-1.333,1.135-1.874,1.627l-.755.685-.6.615c-.332.336-.61.613-.838.842a1.6,1.6,0,0,1-.315.275,1.42,1.42,0,0,1,.248-.334l.779-.9c.176-.2.367-.413.572-.645l.734-.715c.528-.514,1.121-1.108,1.844-1.689l1.112-.939,1.267-.941c.86-.675,1.862-1.273,2.885-1.949a49.87,49.87,0,0,1,7.14-3.551,48.985,48.985,0,0,1,7.65-2.245c1.212-.192,2.354-.434,3.444-.513l1.571-.158,1.455-.049a23.321,23.321,0,0,1,2.5.025l1.025.045.856.1,1.181.159a1.446,1.446,0,0,1,.408.086" transform="translate(-66.772 -43.699)"/><path class="h" d="M522.4,301.251c.015,0,.018.1.011.3a7,7,0,0,1-.072.854,11.879,11.879,0,0,1-.844,3.037,17.785,17.785,0,0,1-6.758,7.766,35.187,35.187,0,0,1-9.521,4.062c-1.275.361-2.314.621-3.034.789a5.711,5.711,0,0,1-1.131.215,5.9,5.9,0,0,1,1.086-.383l2.988-.922a38.659,38.659,0,0,0,9.369-4.135,18.274,18.274,0,0,0,6.712-7.518,18.531,18.531,0,0,0,1.195-4.065" transform="translate(-71.941 -43.253)"/><path class="h" d="M402.185,317.941a16.939,16.939,0,0,0-1.992-2.369,18.421,18.421,0,0,0-7.3-4.077,39.918,39.918,0,0,0-5.693-1.257c-2.076-.331-4.313-.588-6.656-.993a55.878,55.878,0,0,1-7.229-1.813,47.3,47.3,0,0,0-7.712-1.861,32.121,32.121,0,0,0-15.023,2.074,54.4,54.4,0,0,0-6.111,2.745c-1.871.959-3.589,1.906-5.148,2.786-3.117,1.763-5.6,3.265-7.307,4.309l-1.967,1.2-.515.307a.75.75,0,0,1-.184.093c0-.007.051-.051.159-.131l.492-.346c.435-.3,1.082-.732,1.924-1.276,1.683-1.09,4.14-2.634,7.242-4.435,1.552-.9,3.264-1.864,5.135-2.841a53.728,53.728,0,0,1,6.138-2.8,32.255,32.255,0,0,1,15.222-2.131,47.019,47.019,0,0,1,7.782,1.885,56.368,56.368,0,0,0,7.174,1.827c2.324.413,4.561.685,6.644,1.033a39.12,39.12,0,0,1,5.731,1.321,18.114,18.114,0,0,1,7.32,4.254,9.291,9.291,0,0,1,1.871,2.492" transform="translate(-47.288 -43.781)"/><path class="h" d="M316.126,303.254a3.533,3.533,0,0,1-.053,1.011,11.793,11.793,0,0,1-.708,2.672,15.338,15.338,0,0,1-5.564,7.119,37.191,37.191,0,0,1-8.248,3.8c-1.1.367-2,.629-2.633.792a4.258,4.258,0,0,1-.989.206,4.566,4.566,0,0,1,.939-.372l2.579-.923a42.614,42.614,0,0,0,8.109-3.872,15.827,15.827,0,0,0,5.516-6.865,21.436,21.436,0,0,0,1.053-3.565" transform="translate(-42.777 -43.541)"/><path class="h" d="M221.038,318.85a6.473,6.473,0,0,1,.881-.846c.582-.529,1.463-1.252,2.578-2.109a74.649,74.649,0,0,1,9.233-5.95c3.762-2.068,7.277-3.722,9.828-4.894,1.276-.586,2.315-1.047,3.036-1.357a6.366,6.366,0,0,1,1.139-.44,6.4,6.4,0,0,1-1.065.6l-2.974,1.485c-2.514,1.244-6,2.939-9.748,5a90.889,90.889,0,0,0-9.261,5.813c-1.133.82-2.041,1.5-2.655,1.99a6.331,6.331,0,0,1-.992.713" transform="translate(-31.736 -43.54)"/><path class="h" d="M231.515,303.979c0,.052-.837-.107-2.335.008a16.491,16.491,0,0,0-6.04,1.835,55.207,55.207,0,0,0-7.846,5.266,40.143,40.143,0,0,1-4.725,3.061,26.39,26.39,0,0,1-5.651,2.175,52.544,52.544,0,0,1-11.566,1.39c-3.579.1-6.8.033-9.49.144a46.664,46.664,0,0,0-6.346.621c-.741.137-1.315.25-1.7.341a3.059,3.059,0,0,1-.6.109,2.959,2.959,0,0,1,.576-.2c.379-.12.951-.26,1.691-.426a41.465,41.465,0,0,1,6.366-.765c2.7-.152,5.927-.112,9.49-.239a53.7,53.7,0,0,0,11.467-1.411,26.292,26.292,0,0,0,5.558-2.13,40.561,40.561,0,0,0,4.689-3.008A52.935,52.935,0,0,1,223,305.54a15.96,15.96,0,0,1,6.167-1.726,10.8,10.8,0,0,1,1.748.056,3.071,3.071,0,0,1,.6.109" transform="translate(-25.157 -43.62)"/><path class="h" d="M493.28,302.869c0,.123-15.13.223-33.791.223s-33.8-.1-33.8-.223,15.128-.224,33.8-.224,33.791.1,33.791.224" transform="translate(-61.121 -43.453)"/><rect class="h" width="48.791" height="7.291" transform="translate(241.826 252.368)"/><rect class="d" width="12.899" height="3.926" transform="translate(241.826 254.05)"/><rect class="k" width="48.79" height="7.291" transform="translate(246.18 245.078)"/><rect class="d" width="33.088" height="3.646" transform="translate(261.882 246.83)"/><rect class="h" width="48.791" height="7.292" transform="translate(238.894 237.787)"/><rect class="d" width="12.899" height="3.926" transform="translate(274.785 239.47)"/></g><g class="b"><path class="k" d="M478.108,428l5.819,14.446s-12.73,10.765-11.915,13.541l28.416-10.275-8.143-22.882Z" transform="translate(-67.765 -60.71)"/><path class="d" d="M495.487,440.586a1.233,1.233,0,0,1,1.281,1.034,1.185,1.185,0,0,1-1.014,1.279,1.3,1.3,0,0,1-1.351-1.1c-.005-.606.6-1.3,1.2-1.214" transform="translate(-70.986 -63.257)"/><g class="l" transform="translate(404.129 382.728)"><g class="v"><path class="e" d="M500.414,449.167l-.911-2.274-26.9,10.7s-1.066,1.008-.6,1.847Z" transform="translate(-471.881 -446.893)"/></g></g><path class="h" d="M485.33,445.691c.054.137.771-.051,1.615.149.85.177,1.418.651,1.526.549.118-.073-.389-.827-1.415-1.051s-1.8.236-1.727.353" transform="translate(-69.682 -63.932)"/><path class="h" d="M482.371,448.431c.017.146.7.164,1.387.582.7.4,1.044.987,1.18.932.138-.026-.059-.874-.919-1.375s-1.693-.272-1.648-.139" transform="translate(-69.258 -64.36)"/><path class="h" d="M481.573,453c.137-.016.08-.779-.552-1.41s-1.389-.7-1.405-.563c-.037.142.532.4,1.042.924s.773,1.084.916,1.048" transform="translate(-68.862 -64.749)"/><path class="h" d="M484.207,441.552c.1.105.671-.316,1.475-.546.8-.247,1.5-.2,1.534-.349.044-.129-.738-.427-1.68-.143s-1.436.954-1.328,1.039" transform="translate(-69.52 -63.231)"/><path class="h" d="M482.9,437.707a2.826,2.826,0,0,0,1.42-.522,6.826,6.826,0,0,0,1.324-1,7.122,7.122,0,0,0,.66-.73,1.879,1.879,0,0,0,.308-.49.643.643,0,0,0-.2-.761.812.812,0,0,0-.723-.1,2.016,2.016,0,0,0-.507.266,5.448,5.448,0,0,0-.775.624,5.345,5.345,0,0,0-1,1.335,2.507,2.507,0,0,0-.419,1.458c.079.023.242-.528.731-1.274a6.014,6.014,0,0,1,1.011-1.173,5.748,5.748,0,0,1,.725-.548c.273-.188.528-.283.653-.176.047.041.058.06.027.171a1.545,1.545,0,0,1-.227.359,8.19,8.19,0,0,1-.6.7,8.477,8.477,0,0,1-1.184,1.025c-.733.522-1.255.753-1.225.827" transform="translate(-69.334 -62.323)"/><path class="h" d="M482.664,437.777a2.425,2.425,0,0,0-.123-1.511,4.941,4.941,0,0,0-.755-1.488,5.071,5.071,0,0,0-.676-.732,1.251,1.251,0,0,0-1.169-.391.707.707,0,0,0-.45.611,2.086,2.086,0,0,0,.043.575,3.354,3.354,0,0,0,.346.958,3.466,3.466,0,0,0,1.139,1.25c.821.535,1.46.492,1.455.441a12.51,12.51,0,0,1-1.24-.733,3.489,3.489,0,0,1-.934-1.175,3.14,3.14,0,0,1-.271-.831c-.064-.319-.039-.6.084-.613a.862.862,0,0,1,.667.286,4.959,4.959,0,0,1,.631.644,5.431,5.431,0,0,1,.79,1.321c.34.82.379,1.393.464,1.387" transform="translate(-68.844 -62.259)"/><path class="k" d="M509.339,424.914l5.818,14.447s-12.729,10.765-11.914,13.54l28.415-10.275-8.142-22.881Z" transform="translate(-72.25 -60.267)"/><path class="d" d="M526.719,437.5A1.234,1.234,0,0,1,528,438.535a1.186,1.186,0,0,1-1.014,1.279,1.3,1.3,0,0,1-1.351-1.1c0-.606.6-1.3,1.2-1.214" transform="translate(-75.47 -62.814)"/><g class="l" transform="translate(430.876 380.085)"><g class="v"><path class="e" d="M531.644,446.081l-.91-2.274-26.9,10.7s-1.066,1.008-.6,1.846Z" transform="translate(-503.112 -443.806)"/></g></g><path class="h" d="M516.561,442.605c.055.137.772-.051,1.616.148.849.177,1.418.652,1.526.55.118-.074-.389-.827-1.415-1.051s-1.8.236-1.727.353" transform="translate(-74.167 -63.489)"/><path class="h" d="M513.6,445.344c.017.146.7.164,1.387.582.7.4,1.044.987,1.18.932.138-.026-.06-.873-.919-1.375s-1.693-.271-1.648-.139" transform="translate(-73.742 -63.917)"/><path class="h" d="M512.8,449.912c.137-.016.08-.778-.552-1.41s-1.389-.7-1.405-.563c-.038.143.531.4,1.041.924s.773,1.085.916,1.048" transform="translate(-73.346 -64.306)"/><path class="h" d="M515.439,438.465c.1.106.671-.316,1.475-.546.8-.247,1.5-.2,1.534-.349.043-.128-.738-.427-1.68-.142s-1.436.953-1.328,1.038" transform="translate(-74.004 -62.788)"/><path class="h" d="M514.132,434.621a2.849,2.849,0,0,0,1.421-.522,6.858,6.858,0,0,0,1.323-1,7.231,7.231,0,0,0,.661-.73,1.866,1.866,0,0,0,.308-.49.645.645,0,0,0-.2-.761.809.809,0,0,0-.723-.1,1.947,1.947,0,0,0-.507.266,5.344,5.344,0,0,0-1.776,1.959,2.525,2.525,0,0,0-.419,1.459c.079.023.243-.528.731-1.274a6.049,6.049,0,0,1,1.011-1.174,5.817,5.817,0,0,1,.725-.548c.272-.187.528-.282.653-.176.047.041.058.061.026.171a1.519,1.519,0,0,1-.227.359,7.792,7.792,0,0,1-.6.7,8.37,8.37,0,0,1-1.184,1.024,10.526,10.526,0,0,0-1.225.828" transform="translate(-73.818 -61.88)"/><path class="h" d="M513.894,434.69a2.412,2.412,0,0,0-.122-1.51,4.909,4.909,0,0,0-.757-1.488,4.974,4.974,0,0,0-.675-.733,1.253,1.253,0,0,0-1.168-.391.707.707,0,0,0-.451.611,2.049,2.049,0,0,0,.043.575,3.356,3.356,0,0,0,.345.959,3.481,3.481,0,0,0,1.139,1.25c.822.535,1.461.492,1.456.441a12.816,12.816,0,0,1-1.24-.733,3.482,3.482,0,0,1-.934-1.176,3.092,3.092,0,0,1-.271-.831c-.065-.318-.04-.6.084-.613a.866.866,0,0,1,.667.287,5.071,5.071,0,0,1,.631.643,5.413,5.413,0,0,1,.789,1.321c.341.82.38,1.393.463,1.387" transform="translate(-73.328 -61.816)"/><path class="w" d="M528.679,205.673l-2.713,22.221,4.219,10.251-16.7.591-3.468-8.008s-8.27-.935-8.6-6.232c-.211-3.384,5.242-28.031,5.242-28.031Z" transform="translate(-71.993 -28.208)"/><path class="h" d="M523.278,231.26a8.391,8.391,0,0,0,3.831-4.443c.863-2.218,1.423-4.551,2.409-6.718,1.035-2.275,2.522-4.322,3.542-6.6s1.54-4.968.545-7.261c0,0-.354-2.937-4.312-4.008,0,0-2.234-6.226-7.361-6.81-6.97-.793-6.73-2.842-11.278-4.581a4.414,4.414,0,0,0-5.9,2.125s-2.8,1.283-3.457,3.845c-.006.022-.012.045-.017.069a6.094,6.094,0,0,0,2.842,6.69q.423.249.849.493a5.9,5.9,0,0,1,2.142,1.714,5.074,5.074,0,0,1,.26,3.989,10.857,10.857,0,0,0-.633,4.04c.064.463.333,1.014.8.991.557-.029.689-.768.856-1.3a2.349,2.349,0,0,1,3.958-.86,2.474,2.474,0,0,1,.1,3.1c-.767,1-2.11,1.626-2.6,2.812-.82,2,1.234,4.332,1.924,5.658a8.592,8.592,0,0,0,.827,1.342,19.858,19.858,0,0,0,5.827,5.073,5.349,5.349,0,0,0,5.463.271" transform="translate(-71.947 -27.341)"/><path class="w" d="M445.033,266.667h0c-2.93-1.249-4.821-2.379-6.784-3.093-2.419-.88-3.355-1.412-3.161-1.854.258-.591.132-.375,4.757.6,0,0-6.59-1.446-4.917-2.255.741-.358,6.23.79,6.23.79-4.494-.517-6.1-1.422-5.991-2.1.166-.979,6.816.465,6.816.465a50.844,50.844,0,0,1-5.931-1.454c-.838-.452.23-.883,1.214-.989,1.1-.119,7.615.11,9.5.078a1.109,1.109,0,0,0,1.219-1.167,7.015,7.015,0,0,1,1.024-5.574c.575-.516,1.476.1,1.289.933a10.246,10.246,0,0,0,.041,2.767,6.535,6.535,0,0,0,.611,2.12c.377.772.725,1.411,1.035,1.947l9.336,10.21-4.03,9.69Z" transform="translate(-62.408 -35.884)"/><path class="x" d="M442.9,264.9a24.447,24.447,0,0,1-6.3-1.489,24.515,24.515,0,0,1,6.3,1.489" transform="translate(-62.686 -37.816)"/><path class="x" d="M443.465,262.922a27.816,27.816,0,0,1-6.8-1.181,27.812,27.812,0,0,1,6.8,1.181" transform="translate(-62.695 -37.575)"/><path class="x" d="M444.193,260.836a24.87,24.87,0,0,1-6.452-1.032,24.978,24.978,0,0,1,6.452,1.032" transform="translate(-62.85 -37.296)"/><path class="r" d="M508.693,320.084l-39.92,6.024a19.439,19.439,0,0,0-15.767,24.65l21.077,67.221,19.038-7.209-11.689-59.429,61.753-4.137v-27.12l-34.492-1.245" transform="translate(-64.931 -45.779)"/><path class="r" d="M541.523,320.084l-39.92,6.024a19.44,19.44,0,0,0-15.768,24.65l18.38,63.223,21.263-5.615-11.218-57.026,41.253-2.764v-27.12l-13.99-2.618" transform="translate(-69.645 -45.779)"/><path class="k" d="M457.192,262.148c.822-.113,27.942,21.025,27.942,21.025l-17.308,6.9L450.276,272.66s-1.106-9.406,6.916-10.513" transform="translate(-64.643 -37.639)"/><path class="k" d="M547.6,250.845c-4.519-6.552-12.211-8.818-14.877-9.427a7.7,7.7,0,0,0-1.727-.19H507.918a16.188,16.188,0,0,0-11.215,4.458A55.422,55.422,0,0,0,487.84,257.1l-11.62,16.152-7.144,11.98,1.456,1.832a12.012,12.012,0,0,0,14.349,3.652c2.356-1.1,4.077-3.149,5.678-5.5,2.917-4.286,5.963-8.923,7.98-12.463L510.19,306.06l-6.232,3.961,26.256,10.613,27.341-11.693-7.55-26.9,0,.013s11.973,1.163,13.079-3.54-9.959-19.642-15.493-27.665" transform="translate(-67.349 -34.635)"/><path class="f" d="M557.6,266.641a111.069,111.069,0,0,1,5.454,10.091c.221.447.874.056.666-.389a85.778,85.778,0,0,0-5.687-9.955c-.173-.271-.606-.021-.433.253" transform="translate(-80.053 -38.231)"/><path class="f" d="M563.935,264.37a111.08,111.08,0,0,1,5.454,10.09c.221.448.874.057.666-.389a85.857,85.857,0,0,0-5.687-9.955c-.174-.271-.606-.021-.433.254" transform="translate(-80.963 -37.905)"/><path class="f" d="M551.47,267.558c1.153,4.473,2.063,9.013,2.8,13.573.1.637,1.077.368.97-.268a90.08,90.08,0,0,0-3.358-13.418.213.213,0,0,0-.41.113" transform="translate(-79.178 -38.378)"/><path class="f" d="M537.026,269.042a54.2,54.2,0,0,1,2.254,13.453c.033.63,1.01.638.987,0a44.934,44.934,0,0,0-2.759-13.586c-.107-.3-.581-.178-.483.134" transform="translate(-77.104 -38.585)"/><path class="f" d="M548.183,279.631a60.265,60.265,0,0,1-2.989-12.681c-.059-.586-.941-.614-.935,0a25.409,25.409,0,0,0,3.436,12.887c.156.247.583.094.488-.206" transform="translate(-78.144 -38.264)"/><path class="f" d="M530.582,269.472a57.641,57.641,0,0,0,1.862,12.794c.155.583,1.005.334.894-.247-.808-4.206-1.58-8.384-2.271-12.613-.045-.276-.494-.209-.485.066" transform="translate(-76.18 -38.656)"/><path class="f" d="M522.833,270.361c1.156,4.69,2,9.4,2.852,14.156.08.448.862.35.805-.11a76.975,76.975,0,0,0-3.308-14.142.181.181,0,0,0-.349.1" transform="translate(-75.067 -38.786)"/><path class="f" d="M515.755,271.63a56.407,56.407,0,0,0,1.433,13.078c.121.464.767.256.7-.194a120.342,120.342,0,0,1-1.563-12.884.285.285,0,0,0-.57,0" transform="translate(-74.052 -38.961)"/><path class="f" d="M493.095,283.591c3.63-3.391,6.812-7.72,9.831-11.661.269-.351-.323-.808-.614-.474-3.261,3.738-6.862,7.713-9.463,11.945a.157.157,0,0,0,.246.19" transform="translate(-70.759 -38.959)"/><path class="f" d="M488.119,279.361A41.25,41.25,0,0,0,496.549,269c.265-.447-.4-.823-.69-.4-2.508,3.659-5.3,6.983-8.043,10.458a.215.215,0,0,0,.3.3" transform="translate(-70.032 -38.539)"/><path class="f" d="M489.946,266.644c-2.413,2.708-4.911,5.364-7.195,8.184-.3.375.208.916.541.541,2.425-2.712,4.653-5.61,6.946-8.433.164-.2-.112-.493-.292-.292" transform="translate(-69.3 -38.275)"/><path class="f" d="M508.564,272.37c1.031,4.345,1.641,8.76,2.591,13.115.09.412.8.331.749-.1a99.013,99.013,0,0,0-2.759-13.174.3.3,0,0,0-.581.16" transform="translate(-73.018 -39.053)"/><g class="s" transform="translate(450.79 242.651)"><g class="y"><path d="M546.154,283.336a6.371,6.371,0,0,0-4.906,2.45,15.254,15.254,0,0,0-2.545,5.034,52.338,52.338,0,0,0-2.728,17.816c.04,1.846.064,3.973-1.333,5.18-1.2,1.035-2.976.956-4.452,1.533-2.355.921-4.379,4.071-3.69,6.505l13.2,5Z" transform="translate(-526.365 -283.332)"/></g></g><path class="h" d="M530.347,315.9a4.645,4.645,0,0,1-1.5.582,17.45,17.45,0,0,1-7.726.341,4.657,4.657,0,0,1-1.549-.447,29.219,29.219,0,0,0,10.779-.476" transform="translate(-74.599 -45.355)"/><path class="u" d="M474.9,358.083,464.394,446.19h4.542l11.155-88.107Z" transform="translate(-66.677 -51.413)"/><path class="u" d="M525.531,358.083l9.642,88.107h4.948l-9.4-88.107Z" transform="translate(-75.455 -51.413)"/><path class="u" d="M585.763,358.083,593.8,446.19h5.515l-9.168-88.107h-6.654" transform="translate(-83.777 -51.413)"/><path class="u" d="M551.487,269.7h38.922a6.056,6.056,0,0,1,5.995,6.916l-9.218,64.305a5.207,5.207,0,0,1-5.154,4.467H531.588Z" transform="translate(-76.325 -38.724)"/><path class="u" d="M470.605,345.394c.1-.974,0-5.84,0-5.84l48.27.905a7.411,7.411,0,0,0,7.452-6.212l9.622-58.779a6.873,6.873,0,0,1,6.784-5.764l-10.5,66.177a11.279,11.279,0,0,1-11.139,9.511Z" transform="translate(-67.569 -38.724)"/><path class="h" d="M551.818,269.7a.689.689,0,0,1-.01.2c-.019.161-.043.356-.072.6q-.117.836-.319,2.278c-.3,2.015-.731,4.864-1.258,8.368-1.111,7.092-2.635,16.826-4.318,27.579-.862,5.383-1.683,10.508-2.431,15.177-.379,2.329-.737,4.544-1.073,6.62a45.889,45.889,0,0,1-1.172,5.741,15.743,15.743,0,0,1-1.989,4.417,10.985,10.985,0,0,1-2.49,2.679,8.174,8.174,0,0,1-2.016,1.13,4.252,4.252,0,0,1-.772.23,10.317,10.317,0,0,0,2.681-1.5,13.234,13.234,0,0,0,4.282-7.046,47.023,47.023,0,0,0,1.11-5.711c.324-2.078.669-4.295,1.033-6.628.737-4.67,1.546-9.8,2.4-15.182,1.733-10.746,3.3-20.473,4.447-27.56.586-3.5,1.062-6.336,1.4-8.346q.253-1.432.4-2.266c.046-.235.084-.429.116-.587a.73.73,0,0,1,.055-.2" transform="translate(-76.656 -38.724)"/><path class="h" d="M556.617,269.049a37.068,37.068,0,0,1-4.312-6.88,37.143,37.143,0,0,1,4.312,6.88" transform="translate(-79.298 -37.642)"/><path class="h" d="M471.564,285.3a69.863,69.863,0,0,1,6.4-9.143,69.934,69.934,0,0,1-6.4,9.143" transform="translate(-67.706 -39.65)"/><path class="h" d="M506.982,268.647a6.614,6.614,0,0,1-.527.987l-1.531,2.63c-1.312,2.211-3.161,5.246-5.3,8.537s-4.146,6.224-5.65,8.312c-.749,1.046-1.371,1.879-1.811,2.448a5.344,5.344,0,0,1-.719.858,5.472,5.472,0,0,1,.578-.958c.451-.671,1.017-1.518,1.695-2.527,1.435-2.131,3.4-5.083,5.533-8.373l5.4-8.46c.689-1.084,1.252-1.959,1.653-2.557a4.573,4.573,0,0,1,.674-.895" transform="translate(-70.561 -38.572)"/></g><rect class="r" width="49.547" height="6.809" transform="translate(503.081 353.245)"/><path class="r" d="M637.04,419.344H587.322v-6.977H637.04Zm-49.547-.17h49.379v-6.639H587.492Z" transform="translate(-84.327 -59.207)"/><path class="r" d="M592.786,417.769l7.131,35.185h26.389l6.894-32.919Z" transform="translate(-85.112 -59.983)"/><path class="r" d="M592.786,454.966l3.8,5.23h32.076l4.536-5.23Z" transform="translate(-85.112 -65.324)"/><g class="b"><path class="h" d="M614.125,406.762c-.1,0-.223-16.3-.279-36.4s-.024-36.407.074-36.408.223,16.3.278,36.407.023,36.4-.074,36.4" transform="translate(-88.131 -47.948)"/><path class="h" d="M626.3,371.339a1.778,1.778,0,0,1-.133.379l-.443,1.056q-.148.348-.324.76l-.33.925c-.119.333-.247.687-.382,1.061s-.236.787-.367,1.21a49.657,49.657,0,0,0-1.386,6.067,73.65,73.65,0,0,0-.766,7.585,102.157,102.157,0,0,0,.391,13.859c.159,1.768.319,3.2.438,4.186.051.462.092.839.125,1.138a1.674,1.674,0,0,1,.019.4,1.856,1.856,0,0,1-.09-.391c-.05-.3-.113-.671-.191-1.13-.158-.982-.358-2.409-.549-4.179a91.152,91.152,0,0,1-.5-13.9,69.335,69.335,0,0,1,.8-7.624,45.761,45.761,0,0,1,1.468-6.085c.138-.425.251-.835.392-1.211s.281-.726.41-1.058.247-.634.359-.921.247-.525.353-.75l.5-1.031a1.656,1.656,0,0,1,.2-.348" transform="translate(-89.268 -53.316)"/><path class="h" d="M624.506,355.946a3.311,3.311,0,0,1-.158.537q-.193.565-.516,1.515l-.379,1.093q-.184.61-.4,1.316c-.289.944-.626,2.015-.924,3.222q-.239.9-.5,1.884l-.464,2.061c-.347,1.418-.6,2.961-.916,4.57-.546,3.237-1.027,6.817-1.359,10.591-.313,3.779-.449,7.388-.5,10.673-.01,3.284.032,6.244.167,8.726.043,1.242.123,2.362.187,3.348s.119,1.833.182,2.526c.051.668.092,1.2.122,1.6a3.372,3.372,0,0,1,.019.56,3.282,3.282,0,0,1-.089-.552q-.071-.593-.188-1.591c-.085-.691-.166-1.538-.242-2.524s-.18-2.107-.241-3.35c-.167-2.483-.234-5.448-.242-8.741.03-3.291.158-6.911.471-10.7.333-3.786.825-7.375,1.39-10.619.33-1.614.591-3.158.951-4.578q.252-1.068.486-2.062.271-.983.52-1.884c.315-1.206.67-2.275.977-3.215q.23-.7.427-1.311l.409-1.084.578-1.494a3.193,3.193,0,0,1,.224-.512" transform="translate(-88.742 -51.106)"/><path class="h" d="M608.935,410.016a.7.7,0,0,1-.028-.191c-.012-.146-.027-.331-.047-.561-.035-.519-.084-1.241-.146-2.158-.118-1.9-.289-4.608-.5-7.94-.431-6.7-1.052-15.963-2.18-26.146-.576-5.092-1.244-9.928-1.939-14.312-.369-2.188-.7-4.271-1.084-6.207-.349-1.944-.725-3.743-1.07-5.385-.326-1.648-.689-3.122-.981-4.423s-.564-2.418-.8-3.327c-.218-.892-.391-1.595-.515-2.1-.051-.225-.092-.406-.125-.549a.757.757,0,0,1-.031-.191.844.844,0,0,1,.066.181c.042.141.093.319.158.54.14.5.333,1.2.579,2.085.253.905.551,2.015.856,3.315s.691,2.771,1.032,4.417c.362,1.641.752,3.44,1.113,5.383.393,1.937.739,4.021,1.118,6.211.713,4.387,1.393,9.228,1.969,14.324,1.13,10.193,1.712,19.462,2.078,26.17.182,3.355.308,6.07.385,7.948.033.918.061,1.642.08,2.162.005.231.009.416.012.563a.8.8,0,0,1-.008.193" transform="translate(-86.075 -48.318)"/><path class="k" d="M611.092,342.419a4.913,4.913,0,0,0-4.869-4.076,7.667,7.667,0,0,0-5.9,3.2,18.45,18.45,0,0,0-2.841,6.306,42.847,42.847,0,0,0-1.748,16.776,25.4,25.4,0,0,0,6.982,15.126,2.855,2.855,0,0,0,2.4,1.1,2.919,2.919,0,0,0,1.269-.784,37.546,37.546,0,0,0,12.184-28.551,11.594,11.594,0,0,0-1.527-6.142c-1.184-1.78-3.942-3.671-5.957-2.956" transform="translate(-85.502 -48.579)"/><path class="k" d="M591.367,320.087,588.1,326c-.076.138-.178.293-.334.306-.171.015-.3-.147-.394-.292l-8.636-13.254,1.989-1.127Z" transform="translate(-83.094 -44.744)"/><g class="z" transform="translate(495.643 266.892)"><g class="aa"><path d="M591.367,320.087,588.1,326c-.076.138-.178.293-.334.306-.171.015-.3-.147-.394-.292l-8.636-13.254,1.989-1.127Z" transform="translate(-578.737 -311.636)"/></g></g><path class="k" d="M608.875,329.674l-29.457-17.383a1.371,1.371,0,0,1-.718-.724c-.118-.436.21-.856.524-1.181a20.307,20.307,0,0,1,15.743-6.184,17.986,17.986,0,0,1,14.232,8.852c2.843,5.079,2.937,11.8-.324,16.62" transform="translate(-83.086 -43.67)"/><path class="h" d="M584.5,307.157a1.617,1.617,0,0,1,.385-.048c.254-.012.629-.058,1.113-.053a22.09,22.09,0,0,1,4.088.325,23.888,23.888,0,0,1,19.067,17.253,22.155,22.155,0,0,1,.731,4.035c.053.481.045.859.057,1.112a1.545,1.545,0,0,1-.009.389c-.031,0-.068-.532-.185-1.487a25.093,25.093,0,0,0-.833-3.981,24.061,24.061,0,0,0-18.87-17.075,25.056,25.056,0,0,0-4.045-.433c-.962-.021-1.5,0-1.5-.036" transform="translate(-83.922 -44.086)"/><path class="h" d="M607.5,319.941a7.047,7.047,0,0,1-1.488.677c-.939.37-2.251.842-3.718,1.309s-2.811.837-3.791,1.076a7.088,7.088,0,0,1-1.607.307,8.071,8.071,0,0,1,1.54-.546l3.752-1.172,3.739-1.207a7.914,7.914,0,0,1,1.573-.443" transform="translate(-85.702 -45.936)"/><path class="h" d="M603.855,305.393a20.557,20.557,0,0,1,.166,6.585,62.1,62.1,0,0,1-.166-6.585" transform="translate(-86.693 -43.848)"/><path class="h" d="M579.24,312.661a13.191,13.191,0,0,1,2.14-.754c1.339-.412,3.2-.934,5.28-1.436s3.976-.884,5.355-1.125a13.391,13.391,0,0,1,2.248-.3,15.762,15.762,0,0,1-2.2.549c-1.364.3-3.248.726-5.322,1.226s-3.941.981-5.294,1.333a15.892,15.892,0,0,1-2.208.513" transform="translate(-83.167 -44.37)"/><path class="k" d="M592.519,336.351c-2.533-1.921-5.213-2.3-8.39-2.174a25.631,25.631,0,0,0-9.183,2.37c-4.966,2.176-9.636,5.383-12.6,9.921s-4,10.547-1.78,15.493a2.213,2.213,0,0,0,1.006,1.22,2.4,2.4,0,0,0,1.663-.127c5.649-1.844,11.339-3.7,16.533-6.59s9.923-6.9,12.711-12.146a10.446,10.446,0,0,0,1.339-4.031,5.017,5.017,0,0,0-1.3-3.937" transform="translate(-80.313 -47.978)"/><path class="h" d="M592.9,336.024a2.063,2.063,0,0,1-.407.164l-1.183.408-.857.286c-.312.111-.642.251-1,.39-.714.289-1.545.578-2.419,1l-1.386.631c-.48.222-.96.494-1.468.753-1.023.5-2.06,1.146-3.163,1.8a49.983,49.983,0,0,0-12.464,10.966c-.787,1.011-1.556,1.957-2.186,2.908-.321.471-.653.911-.934,1.36l-.8,1.294c-.532.813-.924,1.6-1.3,2.27-.184.339-.364.65-.515.945s-.273.565-.393.813l-.554,1.122a2.141,2.141,0,0,1-.216.383,2.074,2.074,0,0,1,.15-.411l.5-1.152c.111-.253.233-.53.365-.83s.315-.616.492-.96c.361-.684.741-1.483,1.262-2.308l.788-1.313c.277-.455.6-.9.922-1.379.623-.964,1.388-1.924,2.174-2.948a48.407,48.407,0,0,1,12.546-11.037c1.115-.648,2.163-1.286,3.2-1.781.515-.254,1-.522,1.487-.739l1.4-.613c.885-.411,1.726-.685,2.45-.958.364-.13.7-.261,1.015-.364l.87-.257,1.206-.345a1.968,1.968,0,0,1,.427-.1" transform="translate(-80.641 -48.246)"/><path class="h" d="M572.942,348.537a119.138,119.138,0,0,1-12.426,3.633,118.747,118.747,0,0,1,12.426-3.633" transform="translate(-80.478 -50.041)"/><path class="h" d="M574.7,362.221a9.762,9.762,0,0,1-.135-1.92c-.032-1.187-.038-2.828.012-4.639s.147-3.451.248-4.634a9.96,9.96,0,0,1,.241-1.91,10.937,10.937,0,0,1,.007,1.924c-.039,1.3-.089,2.882-.142,4.631s-.084,3.328-.116,4.629a11.039,11.039,0,0,1-.114,1.92" transform="translate(-82.492 -50.126)"/><path class="h" d="M588.153,354.987c-.1.007-.408-3.328-.692-7.447s-.437-7.465-.339-7.472.407,3.327.692,7.447.436,7.465.339,7.472" transform="translate(-84.294 -48.826)"/><path class="h" d="M571.4,339.679a10.98,10.98,0,0,1,1.976-.059c1.218.008,2.9.043,4.755.105s3.537.136,4.753.209a10.833,10.833,0,0,1,1.967.19,11.015,11.015,0,0,1-1.972.059c-1.219-.009-2.9-.045-4.759-.105s-3.539-.137-4.755-.209a10.957,10.957,0,0,1-1.965-.19" transform="translate(-82.041 -48.762)"/><path class="h" d="M605.38,382.036a1.8,1.8,0,0,1-.042-.4c-.013-.3-.031-.685-.051-1.156-.045-1.006-.055-2.462-.017-4.262s.152-3.94.364-6.311c.229-2.37.561-4.966,1.037-7.673s1.073-5.258,1.676-7.56c.619-2.3,1.247-4.349,1.838-6.049s1.1-3.065,1.488-3.993c.182-.435.33-.789.448-1.068a1.8,1.8,0,0,1,.178-.364,1.671,1.671,0,0,1-.112.39l-.386,1.091c-.349.942-.825,2.316-1.378,4.023s-1.161,3.757-1.761,6.053c-.583,2.3-1.157,4.845-1.643,7.539s-.814,5.282-1.06,7.642c-.229,2.361-.374,4.495-.438,6.288s-.1,3.248-.1,4.251c-.006.472-.01.855-.015,1.157a1.752,1.752,0,0,1-.029.405" transform="translate(-86.901 -49.276)"/><path class="h" d="M605.719,365.079a8.088,8.088,0,0,1-1.175,1.29c-.762.76-1.844,1.78-3.079,2.863s-2.389,2.022-3.242,2.678a8.034,8.034,0,0,1-1.433,1,9.035,9.035,0,0,1,1.274-1.19l3.168-2.75,3.141-2.78a9.085,9.085,0,0,1,1.345-1.107" transform="translate(-85.686 -52.417)"/><path class="h" d="M616.708,371.842a13.84,13.84,0,0,1-1.251-1.733l-2.911-4.249-2.972-4.207a13.729,13.729,0,0,1-1.19-1.776,11.986,11.986,0,0,1,1.39,1.627c.817,1.037,1.911,2.5,3.063,4.154s2.141,3.188,2.83,4.315a11.943,11.943,0,0,1,1.042,1.869" transform="translate(-87.351 -51.671)"/><path class="h" d="M610.049,346.266c.053.083-3.045,2.168-6.917,4.657s-7.056,4.442-7.109,4.36,3.045-2.167,6.918-4.656,7.055-4.442,7.108-4.361" transform="translate(-85.576 -49.716)"/><path class="h" d="M621.068,355.78a115.632,115.632,0,0,1-9.123-8.911,115.232,115.232,0,0,1,9.123,8.911" transform="translate(-87.862 -49.803)"/><path class="k" d="M625.163,353.79l2.658-.22a13.146,13.146,0,0,0,5.37-1.643,21.427,21.427,0,0,1,2.5-1.257c3.288-1.32,6.955-1.083,10.493-1.261a43.435,43.435,0,0,0,16.693-4.268,1.623,1.623,0,0,0,.727-.66c.546-.994-.468-1.88-1.341-2.419-4.48-2.76-9.039-5.556-14.119-6.926S637.3,334,632.964,336.98c-5.088,3.5-6.942,10.693-7.8,16.81" transform="translate(-89.76 -48.003)"/><path class="h" d="M663.675,344.576a2.665,2.665,0,0,1-.451-.21l-1.261-.66c-1.093-.575-2.666-1.423-4.655-2.377a43.358,43.358,0,0,0-7.206-2.777,23.776,23.776,0,0,0-9.338-.757,15.959,15.959,0,0,0-8.513,3.656,18.931,18.931,0,0,0-4.434,6.226,52.052,52.052,0,0,0-1.929,4.848c-.2.557-.354,1-.474,1.341a2.62,2.62,0,0,1-.186.462,2.7,2.7,0,0,1,.118-.484c.1-.344.241-.8.411-1.363a44.106,44.106,0,0,1,1.833-4.909,18.854,18.854,0,0,1,4.444-6.366,16.143,16.143,0,0,1,8.682-3.762,23.764,23.764,0,0,1,9.472.794,41.781,41.781,0,0,1,7.227,2.866c1.983.986,3.539,1.869,4.612,2.481l1.229.718a2.519,2.519,0,0,1,.416.272" transform="translate(-89.77 -48.425)"/><path class="h" d="M660.094,348.072c-.054.081-3.532-2.168-7.766-5.024s-7.625-5.236-7.57-5.318,3.531,2.168,7.767,5.025,7.623,5.235,7.569,5.317" transform="translate(-92.574 -48.491)"/><path class="h" d="M657.846,337.337a13.046,13.046,0,0,1-5.482.5,64.278,64.278,0,0,1,5.482-.5" transform="translate(-93.666 -48.43)"/><path class="h" d="M640.124,334.081a18.426,18.426,0,0,1-2.586,4.383,9.4,9.4,0,0,1,1.142-2.282,9.3,9.3,0,0,1,1.445-2.1" transform="translate(-91.536 -47.967)"/><path class="h" d="M642.424,350.944a9.258,9.258,0,0,1-1.675-.908c-1-.609-2.362-1.5-3.811-2.556s-2.731-2.049-3.65-2.779a10.39,10.39,0,0,1-1.444-1.238,9.957,9.957,0,0,1,1.595,1.039l3.707,2.692c1.444,1.05,2.772,1.971,3.74,2.632a11.494,11.494,0,0,1,1.539,1.118" transform="translate(-90.719 -49.314)"/><path class="k" d="M628.691,370.042c-2.537-.67-5.559,1.8-6.082,4.368s.441,5.2,1.57,7.567A38.609,38.609,0,0,0,634.666,395.7a25.932,25.932,0,0,0,16.036,5.9c-1.072-4.98.284-10.183-.313-15.242a19.825,19.825,0,0,0-17.559-17.385c-1.62-.176-3.492-.429-4.138,1.065" transform="translate(-89.372 -52.958)"/><path class="h" d="M651.745,401.8a1.641,1.641,0,0,1-.361-.168,6.6,6.6,0,0,1-.948-.636,9.906,9.906,0,0,1-2.505-3.349c-.4-.785-.856-1.637-1.3-2.581s-.884-1.956-1.364-3.016a29.169,29.169,0,0,0-1.677-3.224,25.161,25.161,0,0,0-2.307-3.138c-1.736-2.04-3.6-3.8-5.214-5.491a35.823,35.823,0,0,1-3.975-4.769,17.574,17.574,0,0,1-1.943-3.711c-.163-.468-.28-.833-.338-1.087a1.628,1.628,0,0,1-.08-.391c.033-.009.176.519.546,1.428a19.169,19.169,0,0,0,2.02,3.619,37.78,37.78,0,0,0,4,4.685c1.621,1.667,3.5,3.428,5.25,5.488a24.9,24.9,0,0,1,2.333,3.187,28.526,28.526,0,0,1,1.678,3.269c.469,1.064.916,2.077,1.334,3.027s.866,1.8,1.255,2.591a10.252,10.252,0,0,0,2.37,3.358c.741.639,1.242.875,1.221.91" transform="translate(-90.416 -53.159)"/><path class="h" d="M640.12,400.372a7.614,7.614,0,0,1,.233-1.707c.2-1.045.525-2.478.964-4.041s.911-2.955,1.287-3.95a7.611,7.611,0,0,1,.693-1.578,9.217,9.217,0,0,1-.456,1.658c-.314,1.012-.744,2.41-1.184,3.964s-.8,2.972-1.059,4a9.074,9.074,0,0,1-.477,1.653" transform="translate(-91.906 -55.866)"/><path class="h" d="M652.833,387.526a10.466,10.466,0,0,1-1.787-.41c-1.092-.286-2.6-.677-4.28-1.055s-3.21-.671-4.32-.882a10.48,10.48,0,0,1-1.79-.395,8.607,8.607,0,0,1,1.829.149c1.124.147,2.669.4,4.358.784s3.195.811,4.273,1.159a8.642,8.642,0,0,1,1.717.651" transform="translate(-91.985 -55.244)"/><path class="h" d="M629.132,389.934a10.343,10.343,0,0,1,.274-1.977c.223-1.21.578-2.874,1.053-4.692s.979-3.445,1.375-4.61a10.348,10.348,0,0,1,.727-1.858,12.2,12.2,0,0,1-.488,1.932c-.336,1.182-.8,2.813-1.273,4.624s-.864,3.462-1.149,4.656a12.182,12.182,0,0,1-.518,1.924" transform="translate(-90.328 -54.1)"/><path class="h" d="M645.716,375.3c-.011.1-3.177-.159-7.071-.572s-7.044-.826-7.035-.923,3.176.158,7.072.572,7.044.826,7.034.923" transform="translate(-90.686 -53.667)"/><path class="u" d="M637.038,420.351c0,.1-11.129.176-24.854.176s-24.858-.079-24.858-.176,11.127-.176,24.858-.176,24.854.08,24.854.176" transform="translate(-84.328 -60.328)"/><path class="u" d="M630.716,437.075c0,.1-7.5.176-16.746.176s-16.748-.08-16.748-.176,7.5-.176,16.748-.176,16.746.079,16.746.176" transform="translate(-85.748 -62.729)"/><path class="u" d="M631.058,439.466c0,.1-7.5.176-16.747.176s-16.747-.079-16.747-.176,7.5-.176,16.747-.176,16.747.08,16.747.176" transform="translate(-85.797 -63.073)"/><path class="u" d="M630.865,435.1c0,.1-7.757.176-17.323.176s-17.323-.08-17.323-.176,7.755-.176,17.323-.176,17.323.079,17.323.176" transform="translate(-85.604 -62.446)"/></g></g></svg>