<?xml version="1.0" encoding="utf-8"?>
<!-- Generator: Adobe Illustrator 25.0.1, SVG Export Plug-In . SVG Version: 6.00 Build 0)  -->
<svg version="1.1" id="Mobile-Development" xmlns="http://www.w3.org/2000/svg" xmlns:xlink="http://www.w3.org/1999/xlink" x="0px"
	 y="0px" viewBox="0 0 28.1 25.8" style="enable-background:new 0 0 28.1 25.8;" xml:space="preserve">
<style type="text/css">
	.st0{fill:#FFFFFF;stroke:#E01F26;stroke-width:1.1387;}
</style>
<g>
	<path class="st0" d="M6.1,24.3h5V22h-5c-1.1,0-1.9-0.9-1.9-1.9V7.9C4.1,6.9,5,6,6.1,6h12.2c1.1,0,1.9,0.9,1.9,1.9v2.7h2.3V7.9
		c0-1.9-1.2-3.5-3-4V0.7h-2.3v3h-3.8v-3H11v3H7.2v-3H4.9v3.2c-1.8,0.5-3,2.2-3,4v12.2C1.9,22.4,3.7,24.3,6.1,24.3z"/>
	<rect x="8" y="9.9" class="st0" width="8.4" height="2.3"/>
	<path class="st0" d="M22.9,12.1c-0.9,0-1.7,0.3-2.3,1l-6.1,6.1c-0.8,0.8-1.2,1.8-1.2,3v2.9h2.9c1.1,0,2.2-0.4,3-1.2l6.1-6.1
		c1.3-1.3,1.3-3.4,0-4.7C24.7,12.5,23.8,12.1,22.9,12.1z M23.7,16.2l-6.1,6.1c-0.4,0.4-0.8,0.6-1.3,0.6h-0.6v-0.6
		c0-0.5,0.2-1,0.6-1.3l6.1-6.1c0.4-0.4,1-0.4,1.4,0C24,15.2,24,15.8,23.7,16.2L23.7,16.2z"/>
	<rect x="8" y="15.2" class="st0" width="6.1" height="2.3"/>
</g>
</svg>
